<?xml version="1.0" encoding="UTF-8" standalone="no"?>
<svg width="1600px" height="1057px" viewBox="0 0 1600 1057" version="1.1" xmlns="http://www.w3.org/2000/svg" xmlns:xlink="http://www.w3.org/1999/xlink">
    <!-- Generator: Sketch 39.1 (31720) - http://www.bohemiancoding.com/sketch -->
    <title>01-background</title>
    <desc>Created with Sketch.</desc>
    <defs></defs>
    <g id="Templates" stroke="none" stroke-width="1" fill="none" fill-rule="evenodd">
        <g id="01-background" fill="#FFF101">
            <g id="Group" transform="translate(-20.000000, -50.000000)">
                <path d="M1312.60809,437.29219 C1382.14383,351.120187 1369.25675,224.345659 1283.83323,154.297402 C1246.8316,123.955443 1202.31145,109.192792 1158.05533,109.192792 C1100.10748,109.192792 1042.59129,134.530108 1003.1715,183.445786 C933.639943,269.496337 946.56055,396.266678 1031.99665,466.411258 C1117.48304,536.463702 1243.0891,523.434877 1312.60809,437.29219" id="Fill-2"></path>
                <path d="M693.642711,0.853778085 C692.025015,0.853778085 690.415702,0.878906002 688.785434,0.941725794 C606.241071,3.52990123 541.336291,73.2012388 544.005907,156.517035 C546.591705,239.757448 615.637114,305.110972 698.210814,302.510232 C780.709076,299.863425 845.530038,230.254907 842.940049,146.951675 C840.34587,65.2943209 773.94074,0.853778085 693.642711,0.853778085" id="Fill-3"></path>
                <path d="M323.856873,147.79346 C302.944181,147.79346 281.784226,153.694332 262.925085,166.05308 C210.93253,200.030211 196.079909,270.070091 229.837771,322.52043 C263.532768,374.979144 332.988888,389.909315 384.989825,355.894492 C436.965616,321.883856 451.805664,251.843976 418.085521,199.427141 C396.607055,165.994448 360.59867,147.79346 323.856873,147.79346" id="Fill-4"></path>
                <path d="M129.553243,399.851594 C115.534615,390.843236 99.8731464,386.554738 84.3918874,386.554738 C56.601896,386.554738 29.4070153,400.408596 13.4060822,425.779416 C-11.6053291,465.322382 -0.0970624635,517.77272 39.12995,542.976021 C78.3150532,568.141629 130.303417,556.545096 155.298065,516.997943 C180.259185,477.475917 168.780255,425.038143 129.553243,399.851594 L129.553243,399.851594 Z" id="Path"></path>
                <circle id="Oval" cx="1406.5" cy="841.5" r="257.5"></circle>
            </g>
        </g>
    </g>
</svg>