<?xml version="1.0" encoding="UTF-8" standalone="no"?>
<svg width="1366px" height="1096px" viewBox="0 0 1366 1096" version="1.1" xmlns="http://www.w3.org/2000/svg" xmlns:xlink="http://www.w3.org/1999/xlink">
    <!-- Generator: Sketch 39.1 (31720) - http://www.bohemiancoding.com/sketch -->
    <title>02-background</title>
    <desc>Created with Sketch.</desc>
    <defs></defs>
    <g id="Templates" stroke="none" stroke-width="1" fill="none" fill-rule="evenodd">
        <g id="02-background" fill="#1B416D">
            <path d="M359.810639,912.611299 C429.346386,826.439296 416.459306,699.664768 331.035781,629.616512 C294.034147,599.274552 249.514003,584.511901 205.257886,584.511901 C147.310034,584.511901 89.7938456,609.849217 50.3740509,658.764895 C-19.157505,744.815446 -6.23689826,871.585787 79.1991995,941.730367 C164.685588,1011.78281 290.291656,998.753986 359.810639,912.611299" id="Fill-2" transform="translate(205.101276, 785.659555) scale(-1, -1) translate(-205.101276, -785.659555) "></path>
            <path d="M669.701254,793.414762 C668.083559,793.414762 666.474246,793.43989 664.843978,793.502709 C582.299615,796.090885 517.394835,865.762222 520.064451,949.078019 C522.650249,1032.31843 591.695658,1097.67196 674.269357,1095.07122 C756.76762,1092.42441 821.588582,1022.81589 818.998593,939.512658 C816.404414,857.855305 749.999284,793.414762 669.701254,793.414762" id="Fill-3" transform="translate(669.529272, 944.280492) scale(-1, -1) translate(-669.529272, -944.280492) "></path>
            <path d="M1038.95697,721.865587 C1018.04428,721.865587 996.884328,727.76646 978.025187,740.125207 C926.032632,774.102339 911.180011,844.142219 944.937873,896.592557 C978.63287,949.051272 1048.08899,963.981442 1100.08993,929.966619 C1152.06572,895.955983 1166.90577,825.916103 1133.18562,773.499269 C1111.70716,740.066575 1075.69877,721.865587 1038.95697,721.865587" id="Fill-4" transform="translate(1039.050051, 835.036064) scale(-1, -1) translate(-1039.050051, -835.036064) "></path>
            <path d="M1278.71613,539.726553 C1250.92614,539.726553 1223.73126,553.580411 1207.73033,578.951231 C1182.71892,618.494196 1194.22718,670.944535 1233.45419,696.147835 C1272.6393,721.313444 1324.62766,709.71691 1349.62231,670.169757 C1374.58343,630.647732 1363.1045,578.209957 1323.87749,553.023409 C1309.85886,544.01505 1294.19739,539.726553 1278.71613,539.726553 Z" id="Path" transform="translate(1278.662122, 624.585907) scale(-1, -1) translate(-1278.662122, -624.585907) "></path>
            <path d="M7.5,515 C149.713323,515 265,399.713323 265,257.5 C265,115.286677 149.713323,0 7.5,0 C-134.713323,0 -250,115.286677 -250,257.5 C-250,399.713323 -134.713323,515 7.5,515 Z" id="Oval"></path>
        </g>
    </g>
</svg>