<?xml version="1.0" encoding="UTF-8" standalone="no"?>
<svg width="728px" height="103px" viewBox="0 0 728 103" version="1.1" xmlns="http://www.w3.org/2000/svg" xmlns:xlink="http://www.w3.org/1999/xlink">
    <!-- Generator: Sketch 39.1 (31720) - http://www.bohemiancoding.com/sketch -->
    <title>05-advertising</title>
    <desc>Created with Sketch.</desc>
    <defs>
        <rect id="path-1" x="0" y="5" width="728" height="90"></rect>
        <mask id="mask-2" maskContentUnits="userSpaceOnUse" maskUnits="objectBoundingBox" x="0" y="0" width="728" height="90" fill="white">
            <use xlink:href="#path-1"></use>
        </mask>
    </defs>
    <g id="Templates" stroke="none" stroke-width="1" fill="none" fill-rule="evenodd">
        <g id="5-logo" transform="translate(-682.000000, -2421.000000)">
            <g id="05-advertising" transform="translate(682.000000, 2422.000000)">
                <use id="Rectangle" stroke="#E0D3D4" mask="url(#mask-2)" stroke-width="2" xlink:href="#path-1"></use>
                <path d="M546,0.5 L546,100.5" id="Line" stroke="#E0D3D4" stroke-width="2" stroke-linecap="square" stroke-dasharray="8,8,8,8"></path>
                <path d="M363,0.5 L363,100.5" id="Line" stroke="#E0D3D4" stroke-width="2" stroke-linecap="square" stroke-dasharray="8,8,8,8"></path>
                <g id="Page-1" transform="translate(582.055556, 19.000000)">
                    <path d="M0,60.5486132 C1.65173837,61.8109819 4.05020788,62.4907869 6.44982225,62.4907869 C10.7484635,62.4907869 14.0195981,60.0954099 14.0195981,56.2110625 C14.0195981,49.4133072 5.23427332,49.9316327 5.23427332,46.3048274 C5.23427332,44.8164463 6.38714148,44.3305346 7.69485117,44.3305346 C9.34687575,44.3305346 10.9980417,44.8164463 12.7734243,45.721969 L12.7734243,41.7403803 C11.5896451,41.1259922 9.75186792,40.607372 7.57120692,40.607372 C3.14663172,40.607372 0.685767655,43.4886608 0.685767655,46.6943819 C0.685767655,53.2337111 9.47166486,52.7477993 9.47166486,56.5994383 C9.47166486,58.217769 7.88232104,58.8006274 6.29297722,58.8006274 C4.48611111,58.8006274 2.928537,58.1202331 1.61996867,57.2147104 L0,60.5486132 Z M20.9986292,62.4907869 C22.9305706,62.4907869 24.3945529,61.6489131 25.4538292,60.6452651 L26.0772023,62.1669439 L29.6594511,62.1669439 C29.4107315,61.3253648 29.3789618,60.0627014 29.3789618,58.8657496 L29.3789618,46.856156 L25.17334,46.856156 L25.17334,57.6673244 C24.5505393,58.3480134 23.5842824,58.767919 22.5559171,58.767919 C21.4663021,58.767919 20.7805345,58.3150103 20.407312,57.5055503 C20.1889311,57.0526416 20.0947668,56.4706672 20.0947668,55.7245614 L20.0947668,46.856156 L15.8894312,46.856156 L15.8894312,56.0811127 C15.8894312,57.6024969 16.0751838,58.6067342 16.387729,59.4480186 C17.3843245,61.9085178 19.5658442,62.4907869 20.9986292,62.4907869 L20.9986292,62.4907869 Z M32.0770969,62.1669439 L36.2838636,62.1669439 L36.2838636,51.614791 C37.2486894,50.8053309 38.4648108,50.255181 39.5861955,50.255181 C41.3933478,50.255181 41.7044619,51.7114429 41.7044619,53.4276043 L41.7044619,62.1669439 L45.9112286,62.1669439 L45.9112286,52.1004081 C45.9112286,47.5356663 43.4489335,46.4666015 41.0810888,46.4666015 C39.2739365,46.4666015 37.5915733,47.2442371 36.0966799,48.5066058 L35.6607767,46.856156 L32.0770969,46.856156 L32.0770969,62.1669439 Z M48.6826344,62.1669439 L60.1168655,62.1669439 L60.1168655,58.5743204 L52.950937,58.5743204 L52.950937,40.8348577 L48.6826344,40.8348577 L48.6826344,62.1669439 Z M61.5258948,62.1669439 L65.7277959,62.1669439 L65.7277959,46.8549773 L61.5258948,46.8549773 L61.5258948,62.1669439 Z M63.6441612,44.7186157 C65.0749428,44.7186157 66.1628404,43.5531936 66.1628404,42.1284614 C66.1628404,40.6719048 65.0749428,39.6043134 63.6441612,39.6043134 C62.1796065,39.6043134 61.0888467,40.7367324 61.0888467,42.1284614 C61.0888467,43.5861967 62.1796065,44.7186157 63.6441612,44.7186157 L63.6441612,44.7186157 Z M69.524991,62.1669439 L73.7317577,62.1669439 L73.7317577,50.255181 L76.6279525,50.255181 L77.6262654,46.856156 L73.7317577,46.856156 L73.7317577,44.9128036 C73.7317577,43.7146731 74.29245,43.0354574 75.4132622,43.0354574 C76.0051518,43.0354574 76.6600084,43.1969369 77.3137202,43.4565417 L78.1245631,39.9926892 C77.0652868,39.474953 75.8497379,39.248646 74.7586919,39.248646 C71.4569324,39.248646 69.524991,41.3841236 69.524991,44.9128036 L69.524991,46.856156 L67.2203995,46.856156 L67.2203995,50.255181 L69.524991,50.255181 L69.524991,62.1669439 Z M84.9779465,62.4907869 C86.8477796,62.4907869 88.6855568,62.0699973 90.3367227,61.0348196 L89.1220324,58.0565842 C88.0309864,58.7027968 86.8781182,59.0926459 85.3531725,59.0926459 C83.1083996,59.0926459 81.5210593,57.893042 81.458951,55.7578591 L90.8358791,55.7578591 L90.8358791,54.7542112 C90.8358791,49.6074951 88.3429591,46.4666015 84.0437455,46.4666015 C79.6191703,46.4666015 77.220987,49.9955762 77.220987,54.6251455 C77.220987,58.6391479 79.3707369,62.4907869 84.9779465,62.4907869 L84.9779465,62.4907869 Z M81.3956978,52.8120375 C81.3956978,51.2252365 82.2987015,49.7686799 83.9822096,49.7686799 C85.8194143,49.7686799 86.5670041,51.2906533 86.5984876,52.8120375 L81.3956978,52.8120375 Z" id="Fill-1" fill="#1D3661"></path>
                    <path d="M106.648033,30.708209 C111.396888,24.6450674 110.516781,15.7250947 104.68289,10.7964349 C102.155911,8.66154661 99.1154646,7.62283287 96.0930495,7.62283287 C92.1355748,7.62283287 88.2075801,9.40558979 85.5154555,12.847342 C80.7668866,18.9019381 81.649283,27.8216161 87.4840323,32.7570534 C93.3222162,37.686008 101.900322,36.7692879 106.648033,30.708209" id="Fill-3" fill="#FFF101"></path>
                    <path d="M64.3765817,0 C64.2661033,0 64.1561973,0.00176802339 64.0448602,0.00618808188 C58.4075982,0.188294492 53.975009,5.09043402 54.1573271,10.9526103 C54.3339208,16.8094824 59.049289,21.4078166 64.6885545,21.2248262 C70.3226681,21.0385944 74.749533,16.1408749 74.572653,10.2795827 C74.3954869,4.534096 69.8604332,0 64.3765817,0" id="Fill-5" fill="#FFF101"></path>
                    <path d="M39.1225295,10.3388115 C37.6943239,10.3388115 36.2492317,10.7540023 34.9612708,11.6235751 C31.4105055,14.0142374 30.3961647,18.942308 32.7016148,22.6327621 C35.0027718,26.3238057 39.7461888,27.3743062 43.2975265,24.9809919 C46.8471469,22.5879722 47.8606291,17.6599017 45.5577549,13.9718049 C44.0909105,11.6194497 41.6317637,10.3388115 39.1225295,10.3388115" id="Fill-7" fill="#FFF101"></path>
                    <path d="M25.8528109,28.0738541 C24.8954266,27.4400178 23.8258466,27.1382751 22.7685738,27.1382751 C20.8706917,27.1382751 19.013452,28.1130453 17.9206887,29.8981596 C16.2125663,32.6804391 16.9985087,36.3708933 19.6774675,38.1442207 C22.3535641,39.9148962 25.9040431,39.0989534 27.6110207,36.3163792 C29.3157086,33.5355731 28.5317697,29.8460029 25.8528109,28.0738541" id="Fill-9" fill="#FFF101"></path>
                    <path d="M113.426428,40.6810396 C103.402657,40.8277856 95.3875331,49.400931 95.5312123,59.8240183 C95.5426609,60.6211021 95.6059141,61.4040418 95.708951,62.1725427 L131.683131,62.1725427 C131.809065,61.2278288 131.869743,60.2630774 131.854001,59.2806457 C131.711467,48.9471383 123.610192,40.6789769 113.69919,40.6789769 C113.608746,40.6789769 113.518589,40.6798609 113.426428,40.6810396" id="Fill-11" fill="#FFF101"></path>
                </g>
                <path d="M181,0.5 L181,100.5" id="Line" stroke="#E0D3D4" stroke-width="2" stroke-linecap="square" stroke-dasharray="8,8,8,8"></path>
            </g>
        </g>
    </g>
</svg>