<?xml version="1.0" encoding="UTF-8" standalone="no"?>
<svg width="490px" height="277px" viewBox="0 0 490 277" version="1.1" xmlns="http://www.w3.org/2000/svg" xmlns:xlink="http://www.w3.org/1999/xlink">
    <!-- Generator: Sketch 39.1 (31720) - http://www.bohemiancoding.com/sketch -->
    <title>05-anatomy-sunlife-logo</title>
    <desc>Created with Sketch.</desc>
    <defs></defs>
    <g id="Templates" stroke="none" stroke-width="1" fill="none" fill-rule="evenodd">
        <g id="5-logo" transform="translate(-230.000000, -860.000000)">
            <g id="05-anatomy-sunlife-logo" transform="translate(230.000000, 860.000000)">
                <g id="Group-4">
                    <path d="M0.8,219.3 C5.8,222.8 13,225 20.7,225 C34.2,225 44.2,217.8 44.2,206.1 C44.2,185.2 15.7,186.8 15.7,174.7 C15.7,169.4 20.1,167.6 24.7,167.6 C29.9,167.6 35.2,169.1 40.4,171.8 L40.4,160.8 C36.8,159 31.1,157.5 24.3,157.5 C10.6,157.5 2.9,166 2.9,175.7 C2.9,195.8 31.4,194.2 31.4,207.1 C31.4,212.8 25.9,214.9 20.4,214.9 C14.4,214.9 9.4,212.8 5.5,210.1 L0.8,219.3 Z M69.6,225 C75.8,225 80.7,222.3 84.3,219.1 L86.1,224 L96.3,224 C95.6,221.5 95.5,217.4 95.5,212.3 L95.5,176.7 L83.5,176.7 L83.5,210.6 C81.4,212.9 77.7,214.8 73.8,214.8 C70.2,214.8 67.9,213.3 66.7,210.5 C66,209 65.7,207.1 65.7,204.6 L65.7,176.7 L53.8,176.7 L53.8,205.8 C53.8,210.2 54.3,213.1 55.4,215.7 C58.3,223.1 65,225 69.6,225 L69.6,225 Z M106.3,224 L118.2,224 L118.2,190.9 C121.7,188 125.9,185.9 129.8,185.9 C135.9,185.9 137.1,190.6 137.1,196.4 L137.1,224 L149.1,224 L149.1,192.7 C149.1,179.2 141.4,175.5 133.9,175.5 C128,175.5 122.7,178.1 117.7,182 L116.5,176.7 L106.3,176.7 L106.3,224 Z M161.5,224 L196.9,224 L196.9,214.2 L173.5,214.2 L173.5,158.1 L161.5,158.1 L161.5,224 Z M203.6,224 L215.6,224 L215.6,176.7 L203.6,176.7 L203.6,224 Z M209.6,169 C213.8,169 217,165.8 217,161.9 C217,157.8 213.8,154.7 209.6,154.7 C205.4,154.7 202.3,157.9 202.3,161.9 C202.3,165.9 205.4,169 209.6,169 L209.6,169 Z M229.9,224 L241.9,224 L241.9,186 L251.3,186 L254.2,176.7 L241.9,176.7 L241.9,170 C241.9,165.9 243.7,163.5 247.7,163.5 C249.5,163.5 251.5,164.1 253.5,164.8 L255.9,155.3 C252.7,153.8 249.1,153.2 246,153.2 C236.4,153.2 229.9,159 229.9,170.1 L229.9,176.7 L222.9,176.7 L222.9,186 L229.9,186 L229.9,224 Z M281.8,225 C287.6,225 293.5,223.7 298.5,220.6 L294.9,212.4 C291.5,214.3 287.7,215.6 282.9,215.6 C275,215.6 269.8,210.9 269.6,203.6 L299.9,203.6 L299.9,200.8 C299.9,185.1 292.2,175.5 278.9,175.5 C265.4,175.5 257.6,186.2 257.6,200.4 C257.6,213.2 264.5,225 281.8,225 L281.8,225 Z M269.5,195.3 C269.5,189.6 272.8,184.6 278.7,184.6 C285,184.6 287.6,189.9 287.8,195.3 L269.5,195.3 Z" id="SunLife" fill="#7D7878"></path>
                    <circle id="Oval-6" stroke="#979797" cx="376" cy="216.236209" r="60"></circle>
                    <circle id="Oval-6" stroke="#979797" cx="317" cy="96.2362089" r="45"></circle>
                    <circle id="Oval-6" stroke="#979797" cx="213" cy="61.2362089" r="34"></circle>
                    <circle id="Oval-6" stroke="#979797" cx="129.5" cy="85.7362089" r="25.5"></circle>
                    <circle id="Oval-6" stroke="#979797" cx="75" cy="132.236209" r="19"></circle>
                    <path d="M453.952,220.262 C453.952,220.784 454.258,221.108 454.744,221.108 C455.23,221.108 455.536,220.784 455.536,220.262 L455.536,208.616 C455.536,208.22 455.356,208.184 455.05,208.184 L452.296,208.184 C451.918,208.184 451.612,208.49 451.612,208.868 C451.612,209.246 451.918,209.552 452.296,209.552 L453.952,209.552 L453.952,220.262 Z M457.93,214.592 C457.93,218.714 459.82,221.108 462.16,221.108 C464.5,221.108 466.39,218.714 466.39,214.592 C466.39,210.47 464.5,208.076 462.16,208.076 C459.82,208.076 457.93,210.47 457.93,214.592 L457.93,214.592 Z M459.622,214.592 C459.622,211.01 460.756,209.444 462.16,209.444 C463.564,209.444 464.698,211.01 464.698,214.592 C464.698,218.174 463.564,219.74 462.16,219.74 C460.756,219.74 459.622,218.174 459.622,214.592 L459.622,214.592 Z M467.578,214.592 C467.578,218.714 469.468,221.108 471.808,221.108 C474.148,221.108 476.038,218.714 476.038,214.592 C476.038,210.47 474.148,208.076 471.808,208.076 C469.468,208.076 467.578,210.47 467.578,214.592 L467.578,214.592 Z M469.27,214.592 C469.27,211.01 470.404,209.444 471.808,209.444 C473.212,209.444 474.346,211.01 474.346,214.592 C474.346,218.174 473.212,219.74 471.808,219.74 C470.404,219.74 469.27,218.174 469.27,214.592 L469.27,214.592 Z M480.124,213.188 C478.972,213.188 478.576,212.072 478.576,211.118 C478.576,210.164 478.972,209.048 480.124,209.048 C481.276,209.048 481.672,210.164 481.672,211.118 C481.672,212.072 481.276,213.188 480.124,213.188 L480.124,213.188 Z M480.124,214.16 C481.924,214.16 482.86,212.72 482.86,211.118 C482.86,209.516 481.924,208.076 480.124,208.076 C478.324,208.076 477.388,209.516 477.388,211.118 C477.388,212.72 478.324,214.16 480.124,214.16 L480.124,214.16 Z M486.478,221.108 C488.278,221.108 489.214,219.668 489.214,218.066 C489.214,216.464 488.278,215.024 486.478,215.024 C484.678,215.024 483.742,216.464 483.742,218.066 C483.742,219.668 484.678,221.108 486.478,221.108 L486.478,221.108 Z M486.478,220.136 C485.326,220.136 484.93,219.02 484.93,218.066 C484.93,217.112 485.326,215.996 486.478,215.996 C487.63,215.996 488.026,217.112 488.026,218.066 C488.026,219.02 487.63,220.136 486.478,220.136 L486.478,220.136 Z M480.394,219.956 C480.196,220.442 480.142,220.622 480.142,220.766 C480.142,221 480.34,221.252 480.736,221.252 C481.06,221.252 481.24,221.09 481.402,220.712 L486.19,209.228 C486.388,208.724 486.442,208.562 486.442,208.418 C486.442,208.202 486.244,207.932 485.812,207.932 C485.524,207.932 485.344,208.094 485.182,208.472 L480.394,219.956 Z" id="100%" fill="#7D7878"></path>
                    <path d="M368.588,54.552 L368.588,54.588 L364.106,64.65 C363.908,65.118 363.854,65.37 363.854,65.496 C363.854,65.91 364.232,66.108 364.448,66.108 C364.79,66.108 365.186,66.036 365.402,65.532 L370.19,54.642 C370.388,54.192 370.496,53.94 370.496,53.688 C370.496,53.31 370.172,53.184 369.686,53.184 L363.188,53.184 C362.81,53.184 362.504,53.49 362.504,53.868 C362.504,54.246 362.81,54.552 363.188,54.552 L368.588,54.552 Z M375.104,54.552 L378.758,54.552 C379.136,54.552 379.442,54.246 379.442,53.868 C379.442,53.49 379.136,53.184 378.758,53.184 L374.312,53.184 C373.934,53.184 373.772,53.274 373.718,53.598 L373.052,58.08 C372.998,58.476 372.926,58.944 372.926,59.142 C372.926,59.394 373.088,59.628 373.466,59.628 C373.916,59.628 374.474,59.142 375.644,59.142 C377.192,59.142 377.858,60.348 377.858,61.86 C377.858,63.354 376.94,64.632 375.41,64.632 C373.592,64.632 373.016,63.3 372.368,63.3 C371.972,63.3 371.792,63.66 371.792,63.984 C371.792,64.758 373.268,66.108 375.392,66.108 C377.984,66.108 379.55,64.308 379.55,61.554 C379.55,59.556 378.272,57.666 376.274,57.666 C375.68,57.666 375.104,57.756 374.582,58.026 L375.104,54.552 Z M384.14,58.188 C382.988,58.188 382.592,57.072 382.592,56.118 C382.592,55.164 382.988,54.048 384.14,54.048 C385.292,54.048 385.688,55.164 385.688,56.118 C385.688,57.072 385.292,58.188 384.14,58.188 L384.14,58.188 Z M384.14,59.16 C385.94,59.16 386.876,57.72 386.876,56.118 C386.876,54.516 385.94,53.076 384.14,53.076 C382.34,53.076 381.404,54.516 381.404,56.118 C381.404,57.72 382.34,59.16 384.14,59.16 L384.14,59.16 Z M390.494,66.108 C392.294,66.108 393.23,64.668 393.23,63.066 C393.23,61.464 392.294,60.024 390.494,60.024 C388.694,60.024 387.758,61.464 387.758,63.066 C387.758,64.668 388.694,66.108 390.494,66.108 L390.494,66.108 Z M390.494,65.136 C389.342,65.136 388.946,64.02 388.946,63.066 C388.946,62.112 389.342,60.996 390.494,60.996 C391.646,60.996 392.042,62.112 392.042,63.066 C392.042,64.02 391.646,65.136 390.494,65.136 L390.494,65.136 Z M384.41,64.956 C384.212,65.442 384.158,65.622 384.158,65.766 C384.158,66 384.356,66.252 384.752,66.252 C385.076,66.252 385.256,66.09 385.418,65.712 L390.206,54.228 C390.404,53.724 390.458,53.562 390.458,53.418 C390.458,53.202 390.26,52.932 389.828,52.932 C389.54,52.932 389.36,53.094 389.198,53.472 L384.41,64.956 Z" id="75%" fill="#7D7878"></path>
                    <path d="M203.588,2.552 L203.588,2.588 L199.106,12.65 C198.908,13.118 198.854,13.37 198.854,13.496 C198.854,13.91 199.232,14.108 199.448,14.108 C199.79,14.108 200.186,14.036 200.402,13.532 L205.19,2.642 C205.388,2.192 205.496,1.94 205.496,1.688 C205.496,1.31 205.172,1.184 204.686,1.184 L198.188,1.184 C197.81,1.184 197.504,1.49 197.504,1.868 C197.504,2.246 197.81,2.552 198.188,2.552 L203.588,2.552 Z M210.104,2.552 L213.758,2.552 C214.136,2.552 214.442,2.246 214.442,1.868 C214.442,1.49 214.136,1.184 213.758,1.184 L209.312,1.184 C208.934,1.184 208.772,1.274 208.718,1.598 L208.052,6.08 C207.998,6.476 207.926,6.944 207.926,7.142 C207.926,7.394 208.088,7.628 208.466,7.628 C208.916,7.628 209.474,7.142 210.644,7.142 C212.192,7.142 212.858,8.348 212.858,9.86 C212.858,11.354 211.94,12.632 210.41,12.632 C208.592,12.632 208.016,11.3 207.368,11.3 C206.972,11.3 206.792,11.66 206.792,11.984 C206.792,12.758 208.268,14.108 210.392,14.108 C212.984,14.108 214.55,12.308 214.55,9.554 C214.55,7.556 213.272,5.666 211.274,5.666 C210.68,5.666 210.104,5.756 209.582,6.026 L210.104,2.552 Z M219.14,6.188 C217.988,6.188 217.592,5.072 217.592,4.118 C217.592,3.164 217.988,2.048 219.14,2.048 C220.292,2.048 220.688,3.164 220.688,4.118 C220.688,5.072 220.292,6.188 219.14,6.188 L219.14,6.188 Z M219.14,7.16 C220.94,7.16 221.876,5.72 221.876,4.118 C221.876,2.516 220.94,1.076 219.14,1.076 C217.34,1.076 216.404,2.516 216.404,4.118 C216.404,5.72 217.34,7.16 219.14,7.16 L219.14,7.16 Z M225.494,14.108 C227.294,14.108 228.23,12.668 228.23,11.066 C228.23,9.464 227.294,8.024 225.494,8.024 C223.694,8.024 222.758,9.464 222.758,11.066 C222.758,12.668 223.694,14.108 225.494,14.108 L225.494,14.108 Z M225.494,13.136 C224.342,13.136 223.946,12.02 223.946,11.066 C223.946,10.112 224.342,8.996 225.494,8.996 C226.646,8.996 227.042,10.112 227.042,11.066 C227.042,12.02 226.646,13.136 225.494,13.136 L225.494,13.136 Z M219.41,12.956 C219.212,13.442 219.158,13.622 219.158,13.766 C219.158,14 219.356,14.252 219.752,14.252 C220.076,14.252 220.256,14.09 220.418,13.712 L225.206,2.228 C225.404,1.724 225.458,1.562 225.458,1.418 C225.458,1.202 225.26,0.932 224.828,0.932 C224.54,0.932 224.36,1.094 224.198,1.472 L219.41,12.956 Z" id="75%" fill="#7D7878"></path>
                    <path d="M84.588,44.552 L84.588,44.588 L80.106,54.65 C79.908,55.118 79.854,55.37 79.854,55.496 C79.854,55.91 80.232,56.108 80.448,56.108 C80.79,56.108 81.186,56.036 81.402,55.532 L86.19,44.642 C86.388,44.192 86.496,43.94 86.496,43.688 C86.496,43.31 86.172,43.184 85.686,43.184 L79.188,43.184 C78.81,43.184 78.504,43.49 78.504,43.868 C78.504,44.246 78.81,44.552 79.188,44.552 L84.588,44.552 Z M91.104,44.552 L94.758,44.552 C95.136,44.552 95.442,44.246 95.442,43.868 C95.442,43.49 95.136,43.184 94.758,43.184 L90.312,43.184 C89.934,43.184 89.772,43.274 89.718,43.598 L89.052,48.08 C88.998,48.476 88.926,48.944 88.926,49.142 C88.926,49.394 89.088,49.628 89.466,49.628 C89.916,49.628 90.474,49.142 91.644,49.142 C93.192,49.142 93.858,50.348 93.858,51.86 C93.858,53.354 92.94,54.632 91.41,54.632 C89.592,54.632 89.016,53.3 88.368,53.3 C87.972,53.3 87.792,53.66 87.792,53.984 C87.792,54.758 89.268,56.108 91.392,56.108 C93.984,56.108 95.55,54.308 95.55,51.554 C95.55,49.556 94.272,47.666 92.274,47.666 C91.68,47.666 91.104,47.756 90.582,48.026 L91.104,44.552 Z M100.14,48.188 C98.988,48.188 98.592,47.072 98.592,46.118 C98.592,45.164 98.988,44.048 100.14,44.048 C101.292,44.048 101.688,45.164 101.688,46.118 C101.688,47.072 101.292,48.188 100.14,48.188 L100.14,48.188 Z M100.14,49.16 C101.94,49.16 102.876,47.72 102.876,46.118 C102.876,44.516 101.94,43.076 100.14,43.076 C98.34,43.076 97.404,44.516 97.404,46.118 C97.404,47.72 98.34,49.16 100.14,49.16 L100.14,49.16 Z M106.494,56.108 C108.294,56.108 109.23,54.668 109.23,53.066 C109.23,51.464 108.294,50.024 106.494,50.024 C104.694,50.024 103.758,51.464 103.758,53.066 C103.758,54.668 104.694,56.108 106.494,56.108 L106.494,56.108 Z M106.494,55.136 C105.342,55.136 104.946,54.02 104.946,53.066 C104.946,52.112 105.342,50.996 106.494,50.996 C107.646,50.996 108.042,52.112 108.042,53.066 C108.042,54.02 107.646,55.136 106.494,55.136 L106.494,55.136 Z M100.41,54.956 C100.212,55.442 100.158,55.622 100.158,55.766 C100.158,56 100.356,56.252 100.752,56.252 C101.076,56.252 101.256,56.09 101.418,55.712 L106.206,44.228 C106.404,43.724 106.458,43.562 106.458,43.418 C106.458,43.202 106.26,42.932 105.828,42.932 C105.54,42.932 105.36,43.094 105.198,43.472 L100.41,54.956 Z" id="51px" fill="#7D7878"></path>
                    <path d="M13.588,113.552 L13.588,113.588 L9.106,123.65 C8.908,124.118 8.854,124.37 8.854,124.496 C8.854,124.91 9.232,125.108 9.448,125.108 C9.79,125.108 10.186,125.036 10.402,124.532 L15.19,113.642 C15.388,113.192 15.496,112.94 15.496,112.688 C15.496,112.31 15.172,112.184 14.686,112.184 L8.188,112.184 C7.81,112.184 7.504,112.49 7.504,112.868 C7.504,113.246 7.81,113.552 8.188,113.552 L13.588,113.552 Z M20.104,113.552 L23.758,113.552 C24.136,113.552 24.442,113.246 24.442,112.868 C24.442,112.49 24.136,112.184 23.758,112.184 L19.312,112.184 C18.934,112.184 18.772,112.274 18.718,112.598 L18.052,117.08 C17.998,117.476 17.926,117.944 17.926,118.142 C17.926,118.394 18.088,118.628 18.466,118.628 C18.916,118.628 19.474,118.142 20.644,118.142 C22.192,118.142 22.858,119.348 22.858,120.86 C22.858,122.354 21.94,123.632 20.41,123.632 C18.592,123.632 18.016,122.3 17.368,122.3 C16.972,122.3 16.792,122.66 16.792,122.984 C16.792,123.758 18.268,125.108 20.392,125.108 C22.984,125.108 24.55,123.308 24.55,120.554 C24.55,118.556 23.272,116.666 21.274,116.666 C20.68,116.666 20.104,116.756 19.582,117.026 L20.104,113.552 Z M29.14,117.188 C27.988,117.188 27.592,116.072 27.592,115.118 C27.592,114.164 27.988,113.048 29.14,113.048 C30.292,113.048 30.688,114.164 30.688,115.118 C30.688,116.072 30.292,117.188 29.14,117.188 L29.14,117.188 Z M29.14,118.16 C30.94,118.16 31.876,116.72 31.876,115.118 C31.876,113.516 30.94,112.076 29.14,112.076 C27.34,112.076 26.404,113.516 26.404,115.118 C26.404,116.72 27.34,118.16 29.14,118.16 L29.14,118.16 Z M35.494,125.108 C37.294,125.108 38.23,123.668 38.23,122.066 C38.23,120.464 37.294,119.024 35.494,119.024 C33.694,119.024 32.758,120.464 32.758,122.066 C32.758,123.668 33.694,125.108 35.494,125.108 L35.494,125.108 Z M35.494,124.136 C34.342,124.136 33.946,123.02 33.946,122.066 C33.946,121.112 34.342,119.996 35.494,119.996 C36.646,119.996 37.042,121.112 37.042,122.066 C37.042,123.02 36.646,124.136 35.494,124.136 L35.494,124.136 Z M29.41,123.956 C29.212,124.442 29.158,124.622 29.158,124.766 C29.158,125 29.356,125.252 29.752,125.252 C30.076,125.252 30.256,125.09 30.418,124.712 L35.206,113.228 C35.404,112.724 35.458,112.562 35.458,112.418 C35.458,112.202 35.26,111.932 34.828,111.932 C34.54,111.932 34.36,112.094 34.198,112.472 L29.41,123.956 Z" id="75%" fill="#7D7878"></path>
                    <path d="M460.5,181.5 L389.5,78.5" id="Line" stroke="#DBD6D6" stroke-linecap="square"></path>
                    <path id="Line-decoration-1" d="M398.099523,85.6894507 L389.5,78.5 L393.159474,89.0947276" stroke="#DBD6D6" stroke-linecap="square"></path>
                    <path d="M346.5,44.5 L245.5,11.5" id="Line" stroke="#DBD6D6" stroke-linecap="square"></path>
                    <path id="Line-decoration-1" d="M256.697653,12.0025674 L245.5,11.5 L254.834201,17.70586" stroke="#DBD6D6" stroke-linecap="square"></path>
                    <path d="M183.5,13.5 L118.5,41.5" id="Line" stroke="#DBD6D6" stroke-linecap="square"></path>
                    <path id="Line-decoration-1" d="M127.231985,34.4720241 L118.5,41.5 L129.605728,39.9824998" stroke="#DBD6D6" stroke-linecap="square"></path>
                    <path d="M85.5,68.5 L54.5,94.5" id="Line" stroke="#DBD6D6" stroke-linecap="square"></path>
                    <path id="Line-decoration-1" d="M60.8470319,85.2612129 L54.5,94.5 L64.7027055,89.8583622" stroke="#DBD6D6" stroke-linecap="square"></path>
                </g>
                <path d="M308,227 L444,227" id="Line" stroke="#979797" stroke-linecap="square" stroke-dasharray="5,5,5,5"></path>
            </g>
        </g>
    </g>
</svg>