<?xml version="1.0" encoding="UTF-8" standalone="no"?>
<svg width="32px" height="33px" viewBox="0 0 32 33" version="1.1" xmlns="http://www.w3.org/2000/svg" xmlns:xlink="http://www.w3.org/1999/xlink">
    <!-- Generator: Sketch 39.1 (31720) - http://www.bohemiancoding.com/sketch -->
    <title>favicon-32</title>
    <desc>Created with Sketch.</desc>
    <defs></defs>
    <g id="Templates" stroke="none" stroke-width="1" fill="none" fill-rule="evenodd">
        <g id="5-logo" transform="translate(-1029.000000, -1993.000000)">
            <g id="favicon-32" transform="translate(1029.000000, 1993.000000)">
                <rect id="Rectangle-1" fill="#009FE4" x="0" y="0" width="32" height="32" rx="5"></rect>
                <path d="M20.6901215,20.2388883 C22.3962038,18.0750272 22.0800151,14.8915981 19.984121,13.1326197 C19.0762739,12.3707042 17.9839576,12 16.8981194,12 C15.47635,12 14.0651716,12.6362441 13.097994,13.8645634 C11.3920147,16.0253746 11.709026,19.2086986 13.8052285,20.9700958 C15.9026649,22.7291793 18.9844506,22.4020131 20.6901215,20.2388883" id="Fill-3" fill="#FFF101"></path>
                <path d="M4.67333802,10 C4.63364734,10 4.59416231,10.000631 4.55416316,10.0022085 C2.52891032,10.0672 0.936450392,11.8167136 1.00195029,13.9088526 C1.06539368,15.9990986 2.75944529,17.6401878 4.78541791,17.5748808 C6.80953967,17.5084169 8.39994308,15.7604808 8.33639687,13.6686573 C8.27274783,11.6181634 6.64347634,10 4.67333802,10" id="Fill-5" fill="#FFF101"></path>
                <path d="M21.4297505,24.5007362 C17.8285927,24.553108 14.9490648,27.6127587 15.0006833,31.332631 C15.0047963,31.6171005 15.0275208,31.8965221 15.064538,32.1707906 L27.9886865,32.1707906 C28.0339298,31.8336338 28.0557288,31.4893258 28.0500734,31.138708 C27.9988662,27.4508056 25.0883879,24.5 21.5277433,24.5 C21.4952504,24.5 21.4628604,24.5003155 21.4297505,24.5007362" id="Fill-11" fill="#FFF101"></path>
            </g>
        </g>
    </g>
</svg>