<?xml version="1.0" encoding="UTF-8" standalone="no"?>
<svg width="180px" height="180px" viewBox="0 0 180 180" version="1.1" xmlns="http://www.w3.org/2000/svg" xmlns:xlink="http://www.w3.org/1999/xlink">
    <!-- Generator: Sketch 39.1 (31720) - http://www.bohemiancoding.com/sketch -->
    <title>favicon-magnified</title>
    <desc>Created with Sketch.</desc>
    <defs></defs>
    <g id="Templates" stroke="none" stroke-width="1" fill="none" fill-rule="evenodd">
        <g id="5-logo" transform="translate(-828.000000, -1846.000000)">
            <g id="favicon-magnified" transform="translate(828.000000, 1846.000000)">
                <rect id="Rectangle-1" fill="#009FE4" x="0" y="0" width="179.535914" height="179.535914" rx="10"></rect>
                <path d="M117.326528,116.738065 C126.898497,104.597729 125.124521,86.7371082 113.365514,76.8683646 C108.27204,72.5936398 102.143602,70.5138047 96.0515098,70.5138047 C88.0746762,70.5138047 80.1572636,74.0834507 74.7309168,80.9749325 C65.1595241,93.0981583 66.9381151,110.958189 78.6988535,120.840503 C90.4665148,130.709836 107.756866,128.874271 117.326528,116.738065" id="Fill-3" fill="#FFF101"></path>
                <path d="M32.1226141,55.2504705 C31.8999296,55.2504705 31.678399,55.2540107 31.4539838,55.262861 C20.0913083,55.6274959 11.1568161,65.4431374 11.5243032,77.1810774 C11.8802521,88.908397 21.3847241,98.1157235 32.751438,97.7493185 C44.1077677,97.3764233 53.0307217,87.5696322 52.6741958,75.8334623 C52.3170931,64.3291718 43.1760698,55.2504705 32.1226141,55.2504705" id="Fill-5" fill="#FFF101"></path>
                <path d="M127.989314,136.706842 C107.785028,137.000674 91.6294447,154.166836 91.9190498,175.037169 C91.942126,176.633184 92.0696215,178.200879 92.2773064,179.739662 L164.788207,179.739662 C165.042044,177.848044 165.164347,175.916305 165.132618,173.949165 C164.84532,153.258199 148.516089,136.702712 128.539103,136.702712 C128.356801,136.702712 128.175077,136.704482 127.989314,136.706842" id="Fill-11" fill="#FFF101"></path>
            </g>
        </g>
    </g>
</svg>