<?xml version="1.0" encoding="UTF-8" standalone="no"?>
<svg width="144px" height="144px" viewBox="0 0 144 144" version="1.1" xmlns="http://www.w3.org/2000/svg" xmlns:xlink="http://www.w3.org/1999/xlink">
    <!-- Generator: Sketch 39.1 (31720) - http://www.bohemiancoding.com/sketch -->
    <title>homescreen-icon-144</title>
    <desc>Created with Sketch.</desc>
    <defs></defs>
    <g id="Templates" stroke="none" stroke-width="1" fill="none" fill-rule="evenodd">
        <g id="5-logo" transform="translate(-1128.000000, -2166.000000)">
            <g id="homescreen-icon-144" transform="translate(1128.000000, 2166.000000)">
                <rect id="Rectangle-1" fill="#009FE4" x="0" y="0" width="144" height="144" rx="5"></rect>
                <g id="Page-1" transform="translate(5.000000, 76.000000)">
                    <path d="M0,59.8107887 C1.67747072,61.0577746 4.11330586,61.7292958 6.55030369,61.7292958 C10.9159132,61.7292958 14.2380087,59.363108 14.2380087,55.5260939 C14.2380087,48.8111737 5.31581779,49.3231831 5.31581779,45.7405728 C5.31581779,44.2703286 6.48664642,43.790338 7.81472885,43.790338 C9.49249024,43.790338 11.1693796,44.2703286 12.9724208,45.1648169 L12.9724208,41.2317465 C11.7701996,40.6248451 9.90379176,40.1125446 7.68915835,40.1125446 C3.19565293,40.1125446 0.696451193,42.958723 0.696451193,46.1253803 C0.696451193,52.5850235 9.61922343,52.1050329 9.61922343,55.9097371 C9.61922343,57.5083474 8.00511931,58.0841033 6.39101518,58.0841033 C4.556,58.0841033 2.97416052,57.412 1.64520607,56.5175117 L0,59.8107887 Z M21.3257657,61.7292958 C23.2878048,61.7292958 24.7745944,60.8976808 25.8503731,59.9062629 L26.4834577,61.4093991 L30.1215141,61.4093991 C29.8689197,60.5780751 29.8366551,59.3307981 29.8366551,58.1484319 L29.8366551,46.2851831 L25.5655141,46.2851831 L25.5655141,56.9646103 C24.9330108,57.6370047 23.9517007,58.0517934 22.9073145,58.0517934 C21.8007245,58.0517934 21.1042733,57.6044038 20.7252364,56.8048075 C20.5034534,56.3574178 20.4078221,55.7825352 20.4078221,55.0455211 L20.4078221,46.2851831 L16.1369718,46.2851831 L16.1369718,55.3977277 C16.1369718,56.9005728 16.3256182,57.8925728 16.6430325,58.7236056 C17.655154,61.1541221 19.8706594,61.7292958 21.3257657,61.7292958 L21.3257657,61.7292958 Z M32.5768243,61.4093991 L36.849128,61.4093991 L36.849128,50.985831 C37.8289848,50.1862347 39.0640521,49.6427887 40.2029067,49.6427887 C42.0382126,49.6427887 42.3541735,51.0813052 42.3541735,52.776554 L42.3541735,61.4093991 L46.6264772,61.4093991 L46.6264772,51.4655305 C46.6264772,46.9564131 44.1258221,45.9003756 41.7210889,45.9003756 C39.8857831,45.9003756 38.1772104,46.6685352 36.6590282,47.9155211 L36.2163341,46.2851831 L32.5768243,46.2851831 L32.5768243,61.4093991 Z M49.4410586,61.4093991 L61.053423,61.4093991 L61.053423,57.860554 L53.7758568,57.860554 L53.7758568,40.3372582 L49.4410586,40.3372582 L49.4410586,61.4093991 Z M62.4844035,61.4093991 L66.7517657,61.4093991 L66.7517657,46.2840188 L62.4844035,46.2840188 L62.4844035,61.4093991 Z M64.6356703,44.1736901 C66.0887419,44.1736901 67.1935879,43.0224695 67.1935879,41.6150986 C67.1935879,40.1762911 66.0887419,39.1217089 64.6356703,39.1217089 C63.1482993,39.1217089 62.0405466,40.2403286 62.0405466,41.6150986 C62.0405466,43.0550704 63.1482993,44.1736901 64.6356703,44.1736901 L64.6356703,44.1736901 Z M70.6081171,61.4093991 L74.8804208,61.4093991 L74.8804208,49.6427887 L77.8217354,49.6427887 L78.8356009,46.2851831 L74.8804208,46.2851831 L74.8804208,44.3655117 C74.8804208,43.1819812 75.4498482,42.5110423 76.5881215,42.5110423 C77.1892321,42.5110423 77.8542907,42.670554 78.5181866,42.9269953 L79.3416616,39.5053521 C78.2658829,38.9939249 77.031397,38.7703756 75.9233536,38.7703756 C72.5701562,38.7703756 70.6081171,40.879831 70.6081171,44.3655117 L70.6081171,46.2851831 L68.2676226,46.2851831 L68.2676226,49.6427887 L70.6081171,49.6427887 L70.6081171,61.4093991 Z M86.3018134,61.7292958 C88.2007766,61.7292958 90.0671844,61.3136338 91.7440738,60.2910704 L90.5104599,57.3491268 C89.4024165,57.9874648 88.2315879,58.3725634 86.682885,58.3725634 C84.403141,58.3725634 82.7910716,57.1875775 82.7279957,55.0784131 L92.2510065,55.0784131 L92.2510065,54.0869953 C92.2510065,49.0029953 89.7192495,45.9003756 85.3530586,45.9003756 C80.8595531,45.9003756 78.4240087,49.3863474 78.4240087,53.9595023 C78.4240087,57.9245915 80.6072495,61.7292958 86.3018134,61.7292958 L86.3018134,61.7292958 Z M82.663757,52.1684883 C82.663757,50.6010235 83.5808286,49.162216 85.290564,49.162216 C87.1563905,49.162216 87.9156269,50.6656432 87.9476009,52.1684883 L82.663757,52.1684883 Z" id="Fill-1" fill="#FFFFFF"></path>
                    <path d="M108.309497,30.3340094 C113.132334,24.3447512 112.238516,15.5334742 106.31374,10.6648732 C103.747393,8.556 100.659579,7.52994366 97.5900781,7.52994366 C93.5709501,7.52994366 89.5817614,9.29097653 86.8476963,12.6907887 C82.0251497,18.6716056 82.9212928,27.4825915 88.8469414,32.3578873 C94.7760781,37.2267793 103.487822,36.32123 108.309497,30.3340094" id="Fill-3" fill="#FFF101"></path>
                    <path d="M65.3795011,0 C65.2673015,0 65.1556833,0.00174647887 65.0426117,0.00611267606 C59.3175271,0.186 54.8158829,5.02840376 55.0010412,10.8191455 C55.1803861,16.6046479 59.9692148,21.1469484 65.6963341,20.9661878 C71.4182213,20.7822254 75.9140521,15.9441878 75.7344165,10.1543192 C75.5544902,4.47884507 70.9487852,0 65.3795011,0" id="Fill-5" fill="#FFF101"></path>
                    <path d="M39.7320174,10.2128263 C38.2815618,10.2128263 36.8139566,10.6229577 35.5059306,11.4819343 C31.8998482,13.8434648 30.869705,18.7114836 33.2110716,22.3569671 C35.5480781,26.0030329 40.3653926,27.0407324 43.9720564,24.6765822 C47.5769761,22.312723 48.6062473,17.4447042 46.2674967,13.8015493 C44.7778004,11.4778592 42.2803427,10.2128263 39.7320174,10.2128263" id="Fill-7" fill="#FFF101"></path>
                    <path d="M26.2555705,27.7317559 C25.2832711,27.1056432 24.1970282,26.8075775 23.1232842,26.8075775 C21.1958351,26.8075775 19.3096616,27.7704695 18.1998742,29.533831 C16.465141,32.2822066 17.2633275,35.9276901 19.9840217,37.6794085 C22.7018091,39.428507 26.3076009,38.622507 28.0411714,35.8738404 C29.7724165,33.1269202 28.9762646,29.4823099 26.2555705,27.7317559" id="Fill-9" fill="#FFF101"></path>
                    <path d="M115.193492,40.1853146 C105.013562,40.3302723 96.8735705,48.7989484 97.0194881,59.0950235 C97.031115,59.8823944 97.0953536,60.6557934 97.1999957,61.4149296 L133.734616,61.4149296 C133.862512,60.4817277 133.924134,59.5287324 133.908148,58.5582723 C133.763393,48.3506854 125.535909,40.183277 115.470503,40.183277 C115.378651,40.183277 115.287089,40.1841502 115.193492,40.1853146" id="Fill-11" fill="#FFF101"></path>
                </g>
            </g>
        </g>
    </g>
</svg>