<?xml version="1.0" encoding="UTF-8" standalone="no"?>
<svg width="114px" height="114px" viewBox="0 0 114 114" version="1.1" xmlns="http://www.w3.org/2000/svg" xmlns:xlink="http://www.w3.org/1999/xlink">
    <!-- Generator: Sketch 39.1 (31720) - http://www.bohemiancoding.com/sketch -->
    <title>homescreen-icon-114</title>
    <desc>Created with Sketch.</desc>
    <defs></defs>
    <g id="Templates" stroke="none" stroke-width="1" fill="none" fill-rule="evenodd">
        <g id="5-logo" transform="translate(-995.000000, -2196.000000)">
            <g id="homescreen-icon-114" transform="translate(995.000000, 2196.000000)">
                <rect id="Rectangle-1" fill="#009FE4" x="0" y="0" width="114" height="114" rx="5"></rect>
                <g id="Page-1" transform="translate(4.000000, 61.000000)">
                    <path d="M0,46.3051268 C1.30191757,47.2705352 3.19241649,47.7904225 5.08381779,47.7904225 C8.47205206,47.7904225 11.0503948,45.9585352 11.0503948,42.9879437 C11.0503948,37.7892958 4.12570933,38.1856901 4.12570933,35.4120563 C4.12570933,34.2738028 5.03441215,33.9021972 6.06516269,33.9021972 C7.36730586,33.9021972 8.66877223,34.2738028 10.0681475,34.9663099 L10.0681475,31.9213521 C9.13508026,31.451493 7.68652495,31.0548732 5.96770499,31.0548732 C2.48020824,31.0548732 0.540529284,33.2583662 0.540529284,35.7099718 C0.540529284,40.7109859 7.46566594,40.3393803 7.46566594,43.2849577 C7.46566594,44.5225915 6.21292842,44.968338 4.96019089,44.968338 C3.536,44.968338 2.30830369,44.448 1.27687636,43.755493 L0,46.3051268 Z M16.5513406,47.7904225 C18.0741171,47.7904225 19.2280434,47.1465915 20.0629761,46.3790423 L20.5543254,47.5427606 L23.3778915,47.5427606 C23.1818482,46.8991549 23.1568069,45.9335211 23.1568069,45.0181408 L23.1568069,35.8336901 L19.8418915,35.8336901 L19.8418915,44.1016338 C19.3509935,44.6221972 18.5893796,44.9433239 17.7788113,44.9433239 C16.9199653,44.9433239 16.379436,44.5969577 16.0852581,43.9779155 C15.913128,43.6315493 15.8389067,43.1864789 15.8389067,42.6158873 L15.8389067,35.8336901 L12.5242169,35.8336901 L12.5242169,42.8885634 C12.5242169,44.0520563 12.6706291,44.8200563 12.9169805,45.4634366 C13.7025076,47.3451268 15.4220043,47.7904225 16.5513406,47.7904225 L16.5513406,47.7904225 Z M25.2835054,47.5427606 L28.5993232,47.5427606 L28.5993232,39.4729014 C29.3598091,38.8538592 30.3183688,38.4331268 31.202256,38.4331268 C32.6266725,38.4331268 32.8718959,39.5468169 32.8718959,40.8592676 L32.8718959,47.5427606 L36.1877137,47.5427606 L36.1877137,39.8442817 C36.1877137,36.3533521 34.2469067,35.5357746 32.3805466,35.5357746 C30.9561302,35.5357746 29.6300738,36.1304789 28.4517831,37.0958873 L28.1081996,35.8336901 L25.2835054,35.8336901 L25.2835054,47.5427606 Z M38.3721649,47.5427606 L47.3847462,47.5427606 L47.3847462,44.7952676 L41.7364859,44.7952676 L41.7364859,31.2288451 L38.3721649,31.2288451 L38.3721649,47.5427606 Z M48.4953579,47.5427606 L51.8073406,47.5427606 L51.8073406,35.8327887 L48.4953579,35.8327887 L48.4953579,47.5427606 Z M50.1649978,34.1989859 C51.2927549,34.1989859 52.1502473,33.3077183 52.1502473,32.2181408 C52.1502473,31.1042254 51.2927549,30.2877746 50.1649978,30.2877746 C49.0106204,30.2877746 48.150872,31.1538028 48.150872,32.2181408 C48.150872,33.3329577 49.0106204,34.1989859 50.1649978,34.1989859 L50.1649978,34.1989859 Z M54.8003297,47.5427606 L58.1161475,47.5427606 L58.1161475,38.4331268 L60.3989588,38.4331268 L61.1858395,35.8336901 L58.1161475,35.8336901 L58.1161475,34.347493 C58.1161475,33.4312113 58.5580911,32.9117746 59.4415271,32.9117746 C59.9080607,32.9117746 60.4242256,33.0352676 60.9394881,33.2338028 L61.578603,30.5847887 C60.7436703,30.1888451 59.7855618,30.0157746 58.9255879,30.0157746 C56.3231063,30.0157746 54.8003297,31.6489014 54.8003297,34.347493 L54.8003297,35.8336901 L52.9838265,35.8336901 L52.9838265,38.4331268 L54.8003297,38.4331268 L54.8003297,47.5427606 Z M66.9805119,47.7904225 C68.4543341,47.7904225 69.9028894,47.4686197 71.2043557,46.6769577 L70.2469241,44.3993239 C69.3869501,44.8935211 68.4782473,45.191662 67.276269,45.191662 C65.5069154,45.191662 64.255757,44.2742535 64.2068026,42.6413521 L71.5977961,42.6413521 L71.5977961,41.8738028 C71.5977961,37.9378028 69.6328503,35.5357746 66.2441649,35.5357746 C62.7566681,35.5357746 60.8663948,38.2345915 60.8663948,41.7750986 C60.8663948,44.8448451 62.5608503,47.7904225 66.9805119,47.7904225 L66.9805119,47.7904225 Z M64.1569458,40.388507 C64.1569458,39.1749859 64.8687028,38.0610704 66.1956616,38.0610704 C67.6437657,38.0610704 68.2330239,39.2250141 68.2578395,40.388507 L64.1569458,40.388507 Z" id="Fill-1" fill="#FFFFFF"></path>
                    <path d="M84.061102,23.4843944 C87.8041996,18.8475493 87.1104902,12.0259155 82.5121562,8.25667606 C80.5203644,6.624 78.1238525,5.8296338 75.7415531,5.8296338 C72.6222299,5.8296338 69.5261432,7.19301408 67.4041822,9.82512676 C63.6613102,14.4554366 64.3568243,21.2768451 68.9558351,25.0512676 C73.5575531,28.8207324 80.3189067,28.119662 84.061102,23.4843944" id="Fill-3" fill="#FFF101"></path>
                    <path d="M50.7422993,0 C50.6552191,0 50.56859,0.00135211268 50.480833,0.00473239437 C46.0374837,0.144 42.5436703,3.89295775 42.6873753,8.37611268 C42.8265683,12.8552113 46.5432711,16.371831 50.9881996,16.2318873 C55.4290672,16.0894648 58.9183688,12.3438873 58.7789501,7.86140845 C58.6393059,3.46749296 55.0647289,0 50.7422993,0" id="Fill-5" fill="#FFF101"></path>
                    <path d="M30.8367896,7.90670423 C29.7110629,7.90670423 28.572026,8.22422535 27.5568416,8.88923944 C24.7580911,10.7175211 23.958577,14.4863099 25.775757,17.3086197 C27.5895531,20.1313803 31.3283644,20.9347606 34.1275662,19.1044507 C36.9254143,17.2743662 37.7242516,13.5055775 35.909102,10.6850704 C34.7529197,8.88608451 32.8145944,7.90670423 30.8367896,7.90670423" id="Fill-7" fill="#FFF101"></path>
                    <path d="M20.3774577,21.4697465 C19.6228373,20.9850141 18.7797831,20.7542535 17.9464295,20.7542535 C16.4504989,20.7542535 14.986603,21.4997183 14.1252755,22.8649014 C12.7789154,24.9926761 13.3984035,27.8149859 15.509987,29.1711549 C17.6193145,30.5252958 20.4178395,29.9012958 21.7632972,27.7732958 C23.1069501,25.6466479 22.4890412,22.8250141 20.3774577,21.4697465" id="Fill-9" fill="#FFF101"></path>
                    <path d="M89.4039046,31.1112113 C81.5030629,31.2234366 75.1854577,37.779831 75.2987072,45.7509859 C75.307731,46.3605634 75.3575879,46.9593239 75.4388026,47.5470423 L103.79403,47.5470423 C103.893293,46.8245634 103.941119,46.0867606 103.928711,45.3354366 C103.816364,37.4327887 97.4308547,31.1096338 89.618898,31.1096338 C89.5476095,31.1096338 89.4765466,31.1103099 89.4039046,31.1112113" id="Fill-11" fill="#FFF101"></path>
                </g>
            </g>
        </g>
    </g>
</svg>