<?xml version="1.0" encoding="UTF-8" standalone="no"?>
<svg width="57px" height="58px" viewBox="0 0 57 58" version="1.1" xmlns="http://www.w3.org/2000/svg" xmlns:xlink="http://www.w3.org/1999/xlink">
    <!-- Generator: Sketch 39.1 (31720) - http://www.bohemiancoding.com/sketch -->
    <title>homescreen-icon-57</title>
    <desc>Created with Sketch.</desc>
    <defs></defs>
    <g id="Templates" stroke="none" stroke-width="1" fill="none" fill-rule="evenodd">
        <g id="5-logo" transform="translate(-828.000000, -2253.000000)">
            <g id="homescreen-icon-57" transform="translate(828.000000, 2253.000000)">
                <rect id="Rectangle-1" fill="#009FE4" x="0" y="0" width="57" height="57" rx="5"></rect>
                <path d="M36.854279,36.0505197 C39.8932379,32.1961423 39.3300268,26.5256592 35.5967156,23.3924789 C33.9796129,22.0353169 32.0339246,21.375 30.0997752,21.375 C27.5672484,21.375 25.0535868,22.5083099 23.3308019,24.6962535 C20.2920261,28.5451986 20.8567025,34.2154944 24.5905632,37.3529831 C28.3266218,40.4863507 33.8160527,39.9035859 36.854279,36.0505197" id="Fill-3" fill="#FFF101"></path>
                <path d="M8.32438334,17.8125 C8.25368432,17.8125 8.18335162,17.8136239 8.11210312,17.8164338 C4.5046215,17.9322 1.66805226,21.0485211 1.78472396,24.7751437 C1.8977325,28.4983944 4.91526193,31.4215845 8.52402565,31.3052563 C12.1294925,31.1868676 14.9623986,28.0733563 14.8492069,24.3472958 C14.7358321,20.6948535 11.8336922,17.8125 8.32438334,17.8125" id="Fill-5" fill="#FFF101"></path>
                <path d="M38.1717431,43.4012136 C31.7571807,43.4945009 26.6280217,48.9445038 26.7199671,55.5705263 C26.7272934,56.0772376 26.7677714,56.5749573 26.8337083,57.0634981 L49.8548478,57.0634981 C49.9354374,56.4629376 49.9742669,55.849639 49.9641932,55.2251009 C49.8729805,48.6560249 44.6886909,43.3999023 38.3462928,43.3999023 C38.2884148,43.3999023 38.23072,43.4004643 38.1717431,43.4012136" id="Fill-11" fill="#FFF101"></path>
            </g>
        </g>
    </g>
</svg>