<?xml version="1.0" encoding="UTF-8" standalone="no"?>
<svg width="72px" height="73px" viewBox="0 0 72 73" version="1.1" xmlns="http://www.w3.org/2000/svg" xmlns:xlink="http://www.w3.org/1999/xlink">
    <!-- Generator: Sketch 39.1 (31720) - http://www.bohemiancoding.com/sketch -->
    <title>homescreen-icon-72</title>
    <desc>Created with Sketch.</desc>
    <defs></defs>
    <g id="Templates" stroke="none" stroke-width="1" fill="none" fill-rule="evenodd">
        <g id="5-logo" transform="translate(-904.000000, -2238.000000)">
            <g id="homescreen-icon-72" transform="translate(904.000000, 2238.000000)">
                <rect id="Rectangle-1" fill="#009FE4" x="0" y="0" width="72" height="72" rx="5"></rect>
                <path d="M46.5527735,45.5374986 C50.3914584,40.6688113 49.6800339,33.5060958 44.9642723,29.5483944 C42.9216163,27.8340845 40.4639047,27 38.0207687,27 C34.8217874,27 31.646636,28.4315493 29.4704866,31.1952676 C25.632033,36.057093 26.3453084,43.2195718 31.061764,47.1827155 C35.7809959,51.1406535 42.715014,50.4045296 46.5527735,45.5374986" id="Fill-3" fill="#FFF101"></path>
                <path d="M10.5150105,22.5 C10.4257065,22.5 10.3368652,22.5014197 10.2468671,22.504969 C5.69004822,22.6512 2.10701338,26.5876056 2.25438816,31.2949183 C2.39713579,35.9979718 6.20875191,39.6904225 10.7671903,39.5434817 C15.3214643,39.393938 18.8998719,35.4610817 18.7568929,30.7544789 C18.6136826,26.1408676 14.9478218,22.5 10.5150105,22.5" id="Fill-5" fill="#FFF101"></path>
                <path d="M48.2169387,54.8225856 C40.1143335,54.9404222 33.6353959,61.8246363 33.7515374,70.194349 C33.7607917,70.8344053 33.8119217,71.4631039 33.8952104,72.0802081 L62.9745446,72.0802081 C63.0763419,71.3216053 63.1253897,70.5469124 63.1126651,69.7580222 C62.997449,61.460242 56.4488727,54.8209293 48.4374225,54.8209293 C48.3643135,54.8209293 48.2914358,54.8216391 48.2169387,54.8225856" id="Fill-11" fill="#FFF101"></path>
            </g>
        </g>
    </g>
</svg>