<?xml version="1.0" encoding="UTF-8" standalone="no"?>
<svg width="490px" height="277px" viewBox="0 0 490 277" version="1.1" xmlns="http://www.w3.org/2000/svg" xmlns:xlink="http://www.w3.org/1999/xlink">
    <!-- Generator: Sketch 39.1 (31720) - http://www.bohemiancoding.com/sketch -->
    <title>05-sunlife-logo</title>
    <desc>Created with Sketch.</desc>
    <defs></defs>
    <g id="Templates" stroke="none" stroke-width="1" fill="none" fill-rule="evenodd">
        <g id="05-sunlife-logo">
            <g id="Group" transform="translate(-2.000000, 23.000000)">
                <path d="M0.8,192.3 C5.8,195.8 13,198 20.7,198 C34.2,198 44.2,190.8 44.2,179.1 C44.2,158.2 15.7,159.8 15.7,147.7 C15.7,142.4 20.1,140.6 24.7,140.6 C29.9,140.6 35.2,142.1 40.4,144.8 L40.4,133.8 C36.8,132 31.1,130.5 24.3,130.5 C10.6,130.5 2.9,139 2.9,148.7 C2.9,168.8 31.4,167.2 31.4,180.1 C31.4,185.8 25.9,187.9 20.4,187.9 C14.4,187.9 9.4,185.8 5.5,183.1 L0.8,192.3 Z M69.6,198 C75.8,198 80.7,195.3 84.3,192.1 L86.1,197 L96.3,197 C95.6,194.5 95.5,190.4 95.5,185.3 L95.5,149.7 L83.5,149.7 L83.5,183.6 C81.4,185.9 77.7,187.8 73.8,187.8 C70.2,187.8 67.9,186.3 66.7,183.5 C66,182 65.7,180.1 65.7,177.6 L65.7,149.7 L53.8,149.7 L53.8,178.8 C53.8,183.2 54.3,186.1 55.4,188.7 C58.3,196.1 65,198 69.6,198 L69.6,198 Z M106.3,197 L118.2,197 L118.2,163.9 C121.7,161 125.9,158.9 129.8,158.9 C135.9,158.9 137.1,163.6 137.1,169.4 L137.1,197 L149.1,197 L149.1,165.7 C149.1,152.2 141.4,148.5 133.9,148.5 C128,148.5 122.7,151.1 117.7,155 L116.5,149.7 L106.3,149.7 L106.3,197 Z M161.5,197 L196.9,197 L196.9,187.2 L173.5,187.2 L173.5,131.1 L161.5,131.1 L161.5,197 Z M203.6,197 L215.6,197 L215.6,149.7 L203.6,149.7 L203.6,197 Z M209.6,142 C213.8,142 217,138.8 217,134.9 C217,130.8 213.8,127.7 209.6,127.7 C205.4,127.7 202.3,130.9 202.3,134.9 C202.3,138.9 205.4,142 209.6,142 L209.6,142 Z M229.9,197 L241.9,197 L241.9,159 L251.3,159 L254.2,149.7 L241.9,149.7 L241.9,143 C241.9,138.9 243.7,136.5 247.7,136.5 C249.5,136.5 251.5,137.1 253.5,137.8 L255.9,128.3 C252.7,126.8 249.1,126.2 246,126.2 C236.4,126.2 229.9,132 229.9,143.1 L229.9,149.7 L222.9,149.7 L222.9,159 L229.9,159 L229.9,197 Z M281.8,198 C287.6,198 293.5,196.7 298.5,193.6 L294.9,185.4 C291.5,187.3 287.7,188.6 282.9,188.6 C275,188.6 269.8,183.9 269.6,176.6 L299.9,176.6 L299.9,173.8 C299.9,158.1 292.2,148.5 278.9,148.5 C265.4,148.5 257.6,159.2 257.6,173.4 C257.6,186.2 264.5,198 281.8,198 L281.8,198 Z M269.5,168.3 C269.5,162.6 272.8,157.6 278.7,157.6 C285,157.6 287.6,162.9 287.8,168.3 L269.5,168.3 Z" id="SunLife" fill="#1D3661"></path>
                <circle id="Oval-6" fill="#FFF101" cx="317" cy="69.2362089" r="45"></circle>
                <circle id="Oval-6" fill="#FFF101" cx="213" cy="34.2362089" r="34"></circle>
                <circle id="Oval-6" fill="#FFF101" cx="129.5" cy="58.7362089" r="25.5"></circle>
                <circle id="Oval-6" fill="#FFF101" cx="75" cy="105.236209" r="19"></circle>
                <path d="M435.36335,198 C435.782794,194.989548 436,191.979711 436,189 C436,155.862915 409.137085,129 376,129 C342.862915,129 316,155.862915 316,189 C316,191.979711 316.217206,194.989548 316.63665,198 L435.36335,198 Z" id="Combined-Shape" fill="#FFF101"></path>
            </g>
        </g>
    </g>
</svg>