<?xml version="1.0" encoding="UTF-8" standalone="no"?>
<svg width="220px" height="101px" viewBox="0 0 220 101" version="1.1" xmlns="http://www.w3.org/2000/svg" xmlns:xlink="http://www.w3.org/1999/xlink">
    <!-- Generator: Sketch 39.1 (31720) - http://www.bohemiancoding.com/sketch -->
    <title>sunlife-logo-reverse</title>
    <desc>Created with Sketch.</desc>
    <defs></defs>
    <g id="Templates" stroke="none" stroke-width="1" fill="none" fill-rule="evenodd">
        <g id="5-logo" transform="translate(-270.000000, -1478.000000)">
            <g id="sunlife-logo-reverse" transform="translate(270.000000, 1478.000000)">
                <path d="M0,97.7383432 C2.75224226,99.7760749 6.7487403,100.873425 10.747146,100.873425 C17.9098433,100.873425 23.3604371,97.0067766 23.3604371,90.7366135 C23.3604371,79.7635903 8.72171314,80.600278 8.72171314,74.7458426 C8.72171314,72.343279 10.6427029,71.558914 12.8217004,71.558914 C15.5744196,71.558914 18.3257081,72.343279 21.283975,73.8049852 L21.283975,67.377854 C19.3114791,66.3861008 16.249246,65.5489375 12.6156757,65.5489375 C5.24313835,65.5489375 1.14267414,70.1999506 1.14267414,75.3746664 C1.14267414,85.930535 15.782352,85.14617 15.782352,91.3635347 C15.782352,93.9758648 13.1340759,94.9167223 10.4857998,94.9167223 C7.47507282,94.9167223 4.87973364,93.8184211 2.69930536,92.3567149 L0,97.7383432 Z M34.989388,100.873425 C38.2085242,100.873425 40.6479142,99.5144613 42.4129546,97.89436 L43.4516626,100.350673 L49.4206566,100.350673 C49.0062226,98.9921856 48.9532857,96.9539783 48.9532857,95.0218433 L48.9532857,75.6358043 L41.9455837,75.6358043 L41.9455837,93.0873301 C40.9078296,94.186107 39.2977846,94.8639239 37.5842503,94.8639239 C35.7686574,94.8639239 34.6259833,94.132833 34.0040938,92.8261922 C33.6402122,92.0951013 33.4833091,91.1556709 33.4833091,89.9512973 L33.4833091,75.6358043 L26.4760841,75.6358043 L26.4760841,90.526847 C26.4760841,92.9826847 26.7855981,94.6037373 27.3063828,95.9617494 C28.9669802,99.9335187 32.6019812,100.873425 34.989388,100.873425 L34.989388,100.873425 Z M53.4491075,100.350673 L60.4587171,100.350673 L60.4587171,83.3172535 C62.0663776,82.0106128 64.0927642,81.1225537 65.961294,81.1225537 C68.9724978,81.1225537 69.490898,83.4732703 69.490898,86.2435199 L69.490898,100.350673 L76.5005076,100.350673 L76.5005076,84.1011428 C76.5005076,76.7326785 72.3976588,75.0069805 68.45219,75.0069805 C65.4409862,75.0069805 62.6377146,76.2622498 60.1468185,78.2999815 L59.420486,75.6358043 L53.4491075,75.6358043 L53.4491075,100.350673 Z M81.1184181,100.350673 L100.170936,100.350673 L100.170936,94.5514146 L88.2305631,94.5514146 L88.2305631,65.9161478 L81.1184181,65.9161478 L81.1184181,100.350673 Z M102.518759,100.350673 L109.520261,100.350673 L109.520261,75.6339017 L102.518759,75.6339017 L102.518759,100.350673 Z M106.048363,72.1853595 C108.432431,72.1853595 110.245163,70.3041203 110.245163,68.0042995 C110.245163,65.6531072 108.432431,63.9297875 106.048363,63.9297875 C103.608019,63.9297875 101.790519,65.7577527 101.790519,68.0042995 C101.790519,70.3573944 103.608019,72.1853595 106.048363,72.1853595 L106.048363,72.1853595 Z M115.847414,100.350673 L122.857023,100.350673 L122.857023,81.1225537 L127.682866,81.1225537 L129.346325,75.6358043 L122.857023,75.6358043 L122.857023,72.4988201 C122.857023,70.5647826 123.791288,69.468384 125.658864,69.468384 C126.645112,69.468384 127.73628,69.7290462 128.82554,70.1481035 L130.176624,64.5567087 C128.411583,63.7209723 126.38615,63.3556647 124.568173,63.3556647 C119.06655,63.3556647 115.847414,66.8027798 115.847414,72.4988201 L115.847414,75.6358043 L112.007342,75.6358043 L112.007342,81.1225537 L115.847414,81.1225537 L115.847414,100.350673 Z M141.596212,100.873425 C144.711859,100.873425 147.774092,100.194181 150.52538,98.5231838 L148.501378,93.7156783 C146.683401,94.7588028 144.762411,95.3881023 142.221439,95.3881023 C138.481041,95.3881023 135.836104,93.4516864 135.732614,90.0050469 L151.35711,90.0050469 L151.35711,88.3849456 C151.35711,80.0770509 147.203232,75.0069805 140.03958,75.0069805 C132.667043,75.0069805 128.671022,80.7034964 128.671022,88.1766061 C128.671022,94.65606 132.253086,100.873425 141.596212,100.873425 L141.596212,100.873425 Z M135.627218,85.2498641 C135.627218,82.6884297 137.131866,80.3372375 139.937045,80.3372375 C142.998324,80.3372375 144.244011,82.7940264 144.296471,85.2498641 L135.627218,85.2498641 Z" id="Fill-1" fill="#FFFFFF"></path>
                <path d="M177.704428,49.5695824 C185.617304,39.782382 184.150808,25.3836484 174.429971,17.4277428 C170.21934,13.9815789 165.153135,12.304874 160.116975,12.304874 C153.522754,12.304874 146.977654,15.1826229 142.491847,20.7383432 C134.579448,30.5117494 136.049759,44.9100074 145.772027,52.8768532 C155.500019,60.8332345 169.793461,59.3534532 177.704428,49.5695824" id="Fill-3" fill="#FFF101"></path>
                <path d="M107.268773,0 C107.084686,0 106.901553,0.0028539659 106.716036,0.00998888065 C97.3228346,0.303947368 89.9369438,8.21704349 90.2407349,17.6798431 C90.5349878,27.1340808 98.3920648,34.5567704 107.788604,34.261385 C117.176559,33.9607672 124.552912,26.054806 124.258182,16.5934334 C123.962975,7.31899555 116.406351,0 107.268773,0" id="Fill-5" fill="#FFF101"></path>
                <path d="M65.1887013,16.6890413 C62.808925,16.6890413 60.4010111,17.3592476 58.2549202,18.7629232 C52.3383863,22.6219607 50.6482205,30.576915 54.4897231,36.5340932 C58.3240721,42.4922226 66.2278861,44.187954 72.1453739,40.3246355 C78.0600002,36.4617927 79.7487353,28.5068384 75.9115249,22.5534655 C73.4673659,18.7562639 69.3697631,16.6890413 65.1887013,16.6890413" id="Fill-7" fill="#FFF101"></path>
                <path d="M43.0777659,45.3171732 C41.482505,44.2940264 39.7002958,43.8069496 37.9385937,43.8069496 C34.7762096,43.8069496 31.6815467,45.3804361 29.8607078,48.2619904 C27.0145145,52.7531814 28.3241068,58.7103595 32.7879757,61.5728873 C37.2470755,64.4311342 43.1631326,63.1140289 46.0074183,58.6223622 C48.8478888,54.1335495 47.5416348,48.1777984 43.0777659,45.3171732" id="Fill-9" fill="#FFF101"></path>
                <path d="M188.999066,65.6678527 C172.296756,65.9047319 158.941395,79.7436126 159.180803,96.5686929 C159.199879,97.8553558 159.305276,99.1191871 159.476963,100.359711 L219.419665,100.359711 C219.629505,98.8347418 219.73061,97.2774277 219.70438,95.691574 C219.466879,79.0110946 205.967968,65.6645231 189.45356,65.6645231 C189.302857,65.6645231 189.152631,65.6659501 188.999066,65.6678527" id="Fill-11" fill="#FFF101"></path>
            </g>
        </g>
    </g>
</svg>