<?xml version="1.0" encoding="UTF-8" standalone="no"?>
<svg width="84px" height="100px" viewBox="0 0 84 100" version="1.1" xmlns="http://www.w3.org/2000/svg" xmlns:xlink="http://www.w3.org/1999/xlink">
    <!-- Generator: Sketch 39.1 (31720) - http://www.bohemiancoding.com/sketch -->
    <title>06-icons.svg</title>
    <desc>Created with Sketch.</desc>
    <defs></defs>
    <g id="Page-1" stroke="none" stroke-width="1" fill="none" fill-rule="evenodd">
        <g id="06-icons.svg">
            <g id="icon-brochure-black-cherry" transform="translate(43.428571, 66.285714)">
                <path d="M22.8368701,11.4420339 C22.8368701,17.7298015 17.7373571,22.8271422 11.4469099,22.8271422 C5.15646275,22.8271422 0.0569498006,17.7298015 0.0569498006,11.4420339 C0.0569498006,5.15426625 5.15646275,0.0569255418 11.4469099,0.0569255418 C17.7373571,0.0569255418 22.8368701,5.15426625 22.8368701,11.4420339 L22.8368701,11.4420339 Z" id="Stroke-1" fill="#009FE3"></path>
                <g id="Group" transform="translate(7.289574, 6.147959)">
                    <path d="M7.87089847,1.30601451 L0.656782474,1.30601451 C0.310011579,1.30601451 0.0289109222,1.02374515 0.0289109222,0.675532513 C0.0289109222,0.327319877 0.310011579,0.0450505123 0.656782474,0.0450505123 L7.71072716,0.0450505123 C7.79914172,0.0450505123 7.87089847,0.117105598 7.87089847,0.205887757 L7.87089847,1.30601451 Z" id="Fill-7099" fill="#FFFFFF"></path>
                    <path d="M0.656782474,1.30601451 L0.656782474,0.965039554 C0.656782474,0.787314398 0.800295972,0.643365064 0.977125103,0.643365064 L7.39038453,0.643365064 L7.39038453,1.30601451 L0.656782474,1.30601451 Z" id="Fill-7100" fill="#009FE3"></path>
                    <path d="M0.656782474,1.30601451 C0.310011579,1.30601451 0.0289109222,1.02374515 0.0289109222,0.675532513 L0.0289109222,9.50228052 C0.0289109222,9.85049315 0.310011579,10.1327625 0.656782474,10.1327625 L8.1912411,10.1327625 L8.1912411,1.46363501 C8.1912411,1.37662206 8.12092589,1.30601451 8.03427321,1.30601451 L0.656782474,1.30601451 Z" id="Fill-7101" fill="#FFFFFF"></path>
                    <path d="M1.50319889,6.4334898 C1.50319889,5.0123319 2.65066618,3.86009388 4.06593991,3.86009388 C5.48121365,3.86009388 6.62868094,5.0123319 6.62868094,6.4334898 C6.62868094,7.85480853 5.48121365,9.00688572 4.06593991,9.00688572 C2.65066618,9.00688572 1.50319889,7.85480853 1.50319889,6.4334898" id="Fill-7103" fill="#009FE3"></path>
                    <path d="M5.65153982,6.64352716 C5.61886488,6.56439523 5.54182247,6.51276648 5.45645116,6.51276648 L4.91042715,6.51276648 L4.91042715,5.02856038 C4.91042715,4.91147087 4.81592608,4.81657689 4.69932136,4.81657689 L3.43252644,4.81657689 C3.31592172,4.81657689 3.22142064,4.91147087 3.22142064,5.02856038 L3.22142064,6.51276648 L2.67539663,6.51276648 C2.59002532,6.51276648 2.51298292,6.56439523 2.48030797,6.64352716 C2.44763302,6.72281992 2.46557221,6.81401464 2.52611697,6.87465028 L3.91255986,8.14928545 C3.99504809,8.23195579 4.12863097,8.23195579 4.21111919,8.14928545 L5.60573083,6.87465028 C5.66611541,6.81401464 5.68421477,6.72281992 5.65153982,6.64352716" id="Fill-7104" fill="#FFFFFF"></path>
                </g>
            </g>
            <g id="icon-save-later-black-cherry" transform="translate(49.714286, 29.714286)">
                <g id="Grid-phone" fill="#009FE3">
                    <g id="Page-1">
                        <path d="M34.2553051,17.1630508 C34.2553051,26.5947023 26.6060357,34.2407134 17.1703649,34.2407134 C7.73469412,34.2407134 0.085424701,26.5947023 0.085424701,17.1630508 C0.085424701,7.73139938 7.73469412,0.0853883126 17.1703649,0.0853883126 C26.6060357,0.0853883126 34.2553051,7.73139938 34.2553051,17.1630508 L34.2553051,17.1630508 Z" id="Stroke-1"></path>
                    </g>
                </g>
                <g id="Group" transform="translate(10.250964, 9.905044)">
                    <path d="M14.1615587,3.02474115 C14.1615587,2.78953371 14.0686061,2.56429268 13.9027928,2.39818573 L11.7706238,0.259614092 C11.6050313,0.0932856642 11.3804879,4.42951874e-05 11.1462297,4.42951874e-05 L0.914158901,4.42951874e-05 C0.426433799,4.42951874e-05 0.0309989155,0.396707696 0.0309989155,0.885948039 L0.0309989155,13.2886005 C0.0309989155,13.7778408 0.426433799,14.1745042 0.914158901,14.1745042 L13.2783987,14.1745042 C13.7661238,14.1745042 14.1615587,13.7778408 14.1615587,13.2886005 L14.1615587,3.02474115 Z" id="Fill-4889" fill="#FFFFFF"></path>
                    <path d="M10.6289187,0.512329876 L4.44679884,0.512329876 L4.44679884,4.05594485 C4.44679884,4.54518519 4.84223372,4.94184859 5.32995883,4.94184859 L9.74575875,4.94184859 C10.2334839,4.94184859 10.6289187,4.54518519 10.6289187,4.05594485 L10.6289187,0.512329876 Z" id="Fill-4892" fill="#009FE3"></path>
                    <polygon id="Fill-4894" fill="#009FE3" points="12.3951504 6.57490007 1.79723057 6.57490007 1.79723057 13.66213 12.3951504 13.66213"></polygon>
                    <polygon id="Fill-4895" fill="#FFFFFF" points="9.74567044 4.49889672 7.97935047 4.49889672 7.97935047 0.955281748 9.74567044 0.955281748"></polygon>
                    <path d="M10.8497087,8.5681835 C10.8497087,8.69065969 10.7507948,8.78965943 10.6289187,8.78965943 L3.78442885,8.78965943 C3.66255277,8.78965943 3.56363886,8.69065969 3.56363886,8.5681835 C3.56363886,8.44592878 3.66255277,8.34670756 3.78442885,8.34670756 L10.6289187,8.34670756 C10.7507948,8.34670756 10.8497087,8.44592878 10.8497087,8.5681835" id="Fill-4896" fill="#FFFFFF"></path>
                    <path d="M10.8497087,10.339991 C10.8497087,10.4624672 10.7507948,10.5614669 10.6289187,10.5614669 L3.78442885,10.5614669 C3.66255277,10.5614669 3.56363886,10.4624672 3.56363886,10.339991 C3.56363886,10.2177363 3.66255277,10.118515 3.78442885,10.118515 L10.6289187,10.118515 C10.7507948,10.118515 10.8497087,10.2177363 10.8497087,10.339991" id="Fill-4897" fill="#FFFFFF"></path>
                    <path d="M10.8497087,12.1117985 C10.8497087,12.2342747 10.7507948,12.3332744 10.6289187,12.3332744 L3.78442885,12.3332744 C3.66255277,12.3332744 3.56363886,12.2342747 3.56363886,12.1117985 C3.56363886,11.9895438 3.66255277,11.8903225 3.78442885,11.8903225 L10.6289187,11.8903225 C10.7507948,11.8903225 10.8497087,11.9895438 10.8497087,12.1117985" id="Fill-4898" fill="#FFFFFF"></path>
                </g>
            </g>
            <g id="icon-print-black-cherry" transform="translate(0.000000, 32.571429)">
                <g id="Grid-phone" fill="#009FE3">
                    <g id="Page-1">
                        <path d="M45.6737401,22.8840678 C45.6737401,35.4596031 35.4747142,45.6542845 22.8938199,45.6542845 C10.3129255,45.6542845 0.113899601,35.4596031 0.113899601,22.8840678 C0.113899601,10.3085325 10.3129255,0.113851084 22.8938199,0.113851084 C35.4747142,0.113851084 45.6737401,10.3085325 45.6737401,22.8840678 L45.6737401,22.8840678 Z" id="Stroke-1"></path>
                    </g>
                </g>
                <g id="Group" transform="translate(12.073358, 11.385108)">
                    <path d="M21.4080037,17.8461573 C21.4080037,18.5849299 20.8102264,19.1839076 20.0729343,19.1839076 L1.38196364,19.1839076 C0.644671605,19.1839076 0.0468943104,18.5849299 0.0468943104,17.8461573 L0.0468943104,9.81965595 C0.0468943104,8.34211082 1.2424489,7.14415549 2.71703298,7.14415549 L18.737865,7.14415549 C20.2124491,7.14415549 21.4080037,8.34211082 21.4080037,9.81965595 L21.4080037,17.8461573 Z" id="Fill-7515" fill="#FFFFFF"></path>
                    <polygon id="Fill-7517" fill="#FFFFFF" points="16.0677263 2.67550046 13.3975877 0 5.38717165 0 5.38717165 6.68875116 16.0677263 6.68875116"></polygon>
                    <polygon id="Fill-7519" fill="#FFFFFF" points="20.0731012 19.1839076 1.38213053 19.1839076 1.38213053 11.1574062 20.0731012 11.1574062"></polygon>
                    <path d="M17.4027957,16.7361093 C17.4027957,15.9973367 16.8050184,15.398359 16.0677263,15.398359 L5.38717165,15.398359 C4.64987961,15.398359 4.05210231,15.9973367 4.05210231,16.7361093 L4.05210231,19.4116097 L17.4027957,19.4116097 L17.4027957,16.7361093 Z" id="Fill-7520" fill="#009FE3"></path>
                    <path d="M17.4027957,21.859408 L4.05210231,21.859408 C4.05210231,20.5216578 4.55775982,18.6521519 5.38717165,16.5084071 L16.0677263,16.5084071 C16.8974719,18.6521519 17.4027957,20.5216578 17.4027957,21.859408" id="Fill-7521" fill="#FFFFFF"></path>
                    <path d="M14.8260169,12.4951564 L6.7888995,12.4951564 C6.05895034,12.4951564 5.46718086,11.9021986 5.46718086,11.1707837 L5.46718086,11.1574062 L16.1477355,11.1574062 L16.1477355,11.1707837 C16.1477355,11.9021986 15.5559661,12.4951564 14.8260169,12.4951564" id="Fill-7522" fill="#009FE3"></path>
                    <polygon id="Fill-7523" fill="#009FE3" points="14.7328239 20.1872202 6.72240787 20.1872202 6.72240787 19.5183451 14.7328239 19.5183451"></polygon>
                    <polygon id="Fill-7524" fill="#009FE3" points="14.0652892 18.5150325 7.38994253 18.5150325 7.38994253 17.8461573 14.0652892 17.8461573"></polygon>
                    <path d="M18.737865,9.4852184 C18.737865,9.66982793 18.5883372,9.81965595 18.4040977,9.81965595 C18.2198581,9.81965595 18.0703303,9.66982793 18.0703303,9.4852184 C18.0703303,9.30060886 18.2198581,9.15078084 18.4040977,9.15078084 C18.5883372,9.15078084 18.737865,9.30060886 18.737865,9.4852184" id="Fill-7525" fill="#009FE3"></path>
                    <path d="M17.4027957,9.4852184 C17.4027957,9.66982793 17.2532679,9.81965595 17.0690283,9.81965595 C16.8847888,9.81965595 16.735261,9.66982793 16.735261,9.4852184 C16.735261,9.30060886 16.8847888,9.15078084 17.0690283,9.15078084 C17.2532679,9.15078084 17.4027957,9.30060886 17.4027957,9.4852184" id="Fill-7526" fill="#009FE3"></path>
                </g>
            </g>
            <g id="icon-plus-sky" transform="translate(5.714286, 4.000000)">
                <path d="M17.1002132,8.57142857 C17.1002132,13.2817058 13.2817058,17.1002132 8.57142857,17.1002132 C3.86115139,17.1002132 0.0426439232,13.2817058 0.0426439232,8.57142857 C0.0426439232,3.86115139 3.86115139,0.0426439232 8.57142857,0.0426439232 C13.2817058,0.0426439232 17.1002132,3.86115139 17.1002132,8.57142857 L17.1002132,8.57142857 L17.1002132,8.57142857 Z" id="Stroke-1" fill="#009FE3"></path>
                <path d="M8.19594432,3.92324094 C7.53643352,3.92324094 7.00179438,4.45712554 7.00179438,5.11744161 L7.00179438,7.04958009 L5.11789635,7.04958009 C4.45810639,7.04958009 3.92324094,7.58391953 3.92324094,8.24376415 L3.92324094,8.9129832 C3.92324094,9.57251284 4.4577257,10.1071672 5.11789635,10.1071672 L7.00179438,10.1071672 L7.00179438,12.0251636 C7.00179438,12.6848415 7.53611855,13.2196162 8.19594432,13.2196162 L8.86514422,13.2196162 C9.52465501,13.2196162 10.0592942,12.6845672 10.0592942,12.0251636 L10.0592942,10.1071672 L12.0248883,10.1071672 C12.6847666,10.1071672 13.2197035,9.5728278 13.2197035,8.9129832 L13.2197035,8.24376415 C13.2197035,7.58423451 12.6853712,7.04958009 12.0248883,7.04958009 L10.0592942,7.04958009 L10.0592942,5.11744161 C10.0592942,4.45790279 9.52496998,3.92324094 8.86514422,3.92324094 L8.19594432,3.92324094 L8.19594432,3.92324094 Z" id="Page-1" fill="#FFFFFF"></path>
            </g>
            <g id="icon-up-sky" transform="translate(29.714286, 0.000000)">
                <g id="up">
                    <path d="M28.5003554,14.2857143 C28.5003554,22.1361763 22.1361763,28.5003554 14.2857143,28.5003554 C6.43525231,28.5003554 0.0710732054,22.1361763 0.0710732054,14.2857143 C0.0710732054,6.43525231 6.43525231,0.0710732054 14.2857143,0.0710732054 C22.1361763,0.0710732054 28.5003554,6.43525231 28.5003554,14.2857143 L28.5003554,14.2857143 L28.5003554,14.2857143 Z" id="Stroke-1" fill="#009FE3"></path>
                    <path d="M15.8066311,7.37486273 C15.0290624,6.59730819 13.7685137,6.59719197 12.9915445,7.37417545 L8.08488461,12.2809251 C7.30772385,13.0581001 7.30817385,14.3185881 8.08584293,15.0962573 L8.10244165,15.112856 C8.88013167,15.890546 10.1406161,15.8909461 10.9173184,15.1142438 L12.3574237,13.6741386 L12.3574237,20.1349723 C12.3574237,21.2335537 13.2490708,22.1241299 14.3474399,22.1241299 L14.3738495,22.1241299 C15.472905,22.1241299 16.3638657,21.231809 16.3638657,20.1332011 L16.3638657,13.5979909 L17.9326896,15.1668149 C18.7100722,15.9441974 19.9707599,15.9438958 20.7474304,15.1672254 L20.7661049,15.148551 C21.5432607,14.3713952 21.5436313,13.1117587 20.7653574,12.3334988 L15.8066311,7.37486273 L15.8066311,7.37486273 Z" id="Page-1" fill="#FFFFFF"></path>
                </g>
            </g>
            <g id="icon-down-sky" transform="translate(24.000000, 82.857143)">
                <path d="M17.1002132,8.57142857 C17.1002132,13.2817058 13.2817058,17.1002132 8.57142857,17.1002132 C3.86115139,17.1002132 0.0426439232,13.2817058 0.0426439232,8.57142857 C0.0426439232,3.86115139 3.86115139,0.0426439232 8.57142857,0.0426439232 C13.2817058,0.0426439232 17.1002132,3.86115139 17.1002132,8.57142857 L17.1002132,8.57142857 L17.1002132,8.57142857 Z" id="Stroke-1" fill="#009FE3"></path>
                <path d="M8.56818507,3.83795309 C7.90907325,3.83795309 7.37475756,4.37267371 7.37475756,5.03156825 L7.37475756,8.90165757 L6.51300146,8.03990149 C6.04672786,7.57362791 5.29090466,7.57347226 4.82485108,8.03952584 L4.81490354,8.04947338 C4.34883742,8.5155395 4.34868311,9.27102772 4.81564652,9.73799104 L7.75340498,12.6757495 C8.21988143,13.142226 8.97633424,13.1420809 9.44240861,12.6760067 L12.4125987,9.70581655 C12.8789331,9.23948205 12.8791382,8.48360948 12.4130846,8.0175559 L12.4031371,8.00760836 C11.937071,7.54154223 11.1810005,7.54197017 10.7144733,8.0084973 L9.77568043,8.94729032 L9.77568043,5.03264016 C9.77568043,4.37283272 9.24134695,3.83795309 8.58225288,3.83795309 L8.56818507,3.83795309 L8.56818507,3.83795309 Z" id="Page-1" fill="#FFFFFF"></path>
            </g>
        </g>
    </g>
</svg>