<?xml version="1.0" encoding="UTF-8" standalone="no"?>
<svg width="1178px" height="581px" viewBox="0 0 1178 581" version="1.1" xmlns="http://www.w3.org/2000/svg" xmlns:xlink="http://www.w3.org/1999/xlink">
    <!-- Generator: Sketch 39.1 (31720) - http://www.bohemiancoding.com/sketch -->
    <title>06-banner</title>
    <desc>Created with Sketch.</desc>
    <defs></defs>
    <g id="Templates" stroke="none" stroke-width="1" fill="none" fill-rule="evenodd">
        <g id="6-colour-brand" transform="translate(-230.000000, -75.000000)">
            <g id="06-banner" transform="translate(230.000000, 75.000000)">
                <circle id="Oval" fill="#FFED00" cx="40" cy="40" r="40"></circle>
                <circle id="Oval" fill="#FFED00" cx="138" cy="340" r="40"></circle>
                <circle id="Oval" fill="#FFED00" cx="240" cy="440" r="40"></circle>
                <circle id="Oval" fill="#FFED00" cx="538" cy="340" r="40"></circle>
                <circle id="Oval" fill="#FFED00" cx="837" cy="40" r="40"></circle>
                <circle id="Oval" fill="#FFED00" cx="1038" cy="140" r="40"></circle>
                <circle id="Oval" fill="#FFED00" cx="338" cy="240" r="40"></circle>
                <circle id="Oval" fill="#009FE3" cx="140" cy="140" r="40"></circle>
                <circle id="Oval" fill="#009FE3" cx="238" cy="340" r="40"></circle>
                <circle id="Oval" fill="#009FE3" cx="338" cy="540" r="40"></circle>
                <circle id="Oval" fill="#009FE3" cx="438" cy="240" r="40"></circle>
                <circle id="Oval" fill="#009FE3" cx="538" cy="140" r="40"></circle>
                <circle id="Oval" fill="#009FE3" cx="638" cy="340" r="40"></circle>
                <circle id="Oval" fill="#009FE3" cx="739" cy="540" r="40"></circle>
                <circle id="Oval" fill="#009FE3" cx="838" cy="440" r="40"></circle>
                <circle id="Oval" fill="#009FE3" cx="938" cy="140" r="40"></circle>
                <circle id="Oval" fill="#009FE3" cx="1038" cy="240" r="40"></circle>
                <circle id="Oval" fill="#009FE3" cx="1138" cy="440" r="40"></circle>
                <circle id="Oval" fill="#009FE3" cx="40" cy="440" r="40"></circle>
                <circle id="Oval" fill="#87556C" cx="40" cy="540" r="20"></circle>
                <circle id="Oval" fill="#1D3661" cx="138" cy="540" r="20"></circle>
                <circle id="Oval" fill="#1D3661" cx="40" cy="140" r="20"></circle>
                <circle id="Oval" fill="#85AB1B" cx="40" cy="239" r="10"></circle>
                <circle id="Oval" fill="#E3231D" cx="40" cy="340" r="10"></circle>
                <circle id="Oval" fill="#E3231D" cx="140" cy="40" r="10"></circle>
                <circle id="Oval" fill="#E3231D" cx="238" cy="240" r="10"></circle>
                <circle id="Oval" fill="#E3231D" cx="338" cy="340" r="10"></circle>
                <circle id="Oval" fill="#E3231D" cx="438" cy="440" r="10"></circle>
                <circle id="Oval" fill="#E3231D" cx="538" cy="540" r="10"></circle>
                <circle id="Oval" fill="#E3231D" cx="638" cy="40" r="10"></circle>
                <circle id="Oval" fill="#E3231D" cx="737" cy="40" r="10"></circle>
                <circle id="Oval" fill="#E3231D" cx="938" cy="240" r="10"></circle>
                <circle id="Oval" fill="#E3231D" cx="837" cy="540" r="10"></circle>
                <circle id="Oval" fill="#E3231D" cx="1038" cy="340" r="10"></circle>
                <circle id="Oval" fill="#E3231D" cx="1138" cy="540" r="10"></circle>
                <circle id="Oval" fill="#E3231D" cx="538" cy="540" r="10"></circle>
                <circle id="Oval" fill="#85AB1B" cx="140" cy="440" r="10"></circle>
                <circle id="Oval" fill="#85AB1B" cx="238" cy="540" r="10"></circle>
                <circle id="Oval" fill="#85AB1B" cx="338" cy="441" r="10"></circle>
                <circle id="Oval" fill="#85AB1B" cx="438" cy="140" r="10"></circle>
                <circle id="Oval" fill="#85AB1B" cx="538" cy="40" r="10"></circle>
                <circle id="Oval" fill="#85AB1B" cx="638" cy="540" r="10"></circle>
                <circle id="Oval" fill="#85AB1B" cx="738" cy="239" r="10"></circle>
                <circle id="Oval" fill="#85AB1B" cx="837" cy="340" r="10"></circle>
                <circle id="Oval" fill="#85AB1B" cx="938" cy="440" r="10"></circle>
                <circle id="Oval" fill="#85AB1B" cx="1038" cy="40" r="10"></circle>
                <circle id="Oval" fill="#85AB1B" cx="1138" cy="340" r="10"></circle>
                <circle id="Oval" fill="#1D3661" cx="238" cy="40" r="20"></circle>
                <circle id="Oval" fill="#1D3661" cx="338" cy="140" r="20"></circle>
                <circle id="Oval" fill="#1D3661" cx="438" cy="40" r="20"></circle>
                <circle id="Oval" fill="#1D3661" cx="438" cy="40" r="20"></circle>
                <circle id="Oval" fill="#1D3661" cx="538" cy="243" r="20"></circle>
                <circle id="Oval" fill="#1D3661" cx="738" cy="440" r="20"></circle>
                <circle id="Oval" fill="#1D3661" cx="838" cy="239" r="20"></circle>
                <circle id="Oval" fill="#1D3661" cx="938" cy="540" r="20"></circle>
                <circle id="Oval" fill="#1D3661" cx="1038" cy="441" r="20"></circle>
                <circle id="Oval" fill="#1D3661" cx="1140" cy="40" r="20"></circle>
                <circle id="Oval" fill="#1D3661" cx="638" cy="140" r="20"></circle>
                <circle id="Oval" fill="#87556C" cx="140" cy="239" r="20"></circle>
                <circle id="Oval" fill="#87556C" cx="238" cy="140" r="20"></circle>
                <circle id="Oval" fill="#87556C" cx="438" cy="340" r="20"></circle>
                <circle id="Oval" fill="#87556C" cx="538" cy="440" r="20"></circle>
                <circle id="Oval" fill="#87556C" cx="338" cy="40" r="20"></circle>
                <circle id="Oval" fill="#87556C" cx="638" cy="240" r="20"></circle>
                <circle id="Oval" fill="#87556C" cx="737" cy="340" r="20"></circle>
                <circle id="Oval" fill="#87556C" cx="838" cy="140" r="20"></circle>
                <circle id="Oval" fill="#87556C" cx="938" cy="40" r="20"></circle>
                <circle id="Oval" fill="#87556C" cx="1037" cy="540" r="20"></circle>
                <circle id="Oval" fill="#87556C" cx="1138" cy="140" r="20"></circle>
                <circle id="Oval" fill="#FFED00" cx="739" cy="140" r="40"></circle>
                <circle id="Oval" fill="#FFED00" cx="938" cy="340" r="40"></circle>
                <circle id="Oval" fill="#FFED00" cx="1138" cy="240" r="40"></circle>
                <circle id="Oval" fill="#FFED00" cx="638" cy="440" r="40"></circle>
                <circle id="Oval" fill="#FFED00" cx="438" cy="541" r="40"></circle>
            </g>
        </g>
    </g>
</svg>