<?xml version="1.0" encoding="UTF-8" standalone="no"?>
<svg width="375px" height="357px" viewBox="0 0 375 357" version="1.1" xmlns="http://www.w3.org/2000/svg" xmlns:xlink="http://www.w3.org/1999/xlink">
    <!-- Generator: Sketch 39.1 (31720) - http://www.bohemiancoding.com/sketch -->
    <title>06-roundels</title>
    <desc>Created with Sketch.</desc>
    <defs></defs>
    <g id="Templates" stroke="none" stroke-width="1" fill="none" fill-rule="evenodd">
        <g id="iPad-Pro-Portrait" transform="translate(-325.000000, -75.000000)">
            <g id="06-roundels" transform="translate(325.000000, 75.000000)">
                <g id="Group-8">
                    <path d="M269.328358,135 C269.328358,209.186866 209.186866,269.328358 135,269.328358 C60.8131343,269.328358 0.671641791,209.186866 0.671641791,135 C0.671641791,60.8131343 60.8131343,0.671641791 135,0.671641791 C209.186866,0.671641791 269.328358,60.8131343 269.328358,135 L269.328358,135 Z" id="Stroke-1" fill="#FFEE00"></path>
                    <path d="M49.139574,148.347605 C49.139574,150.496858 50.5150964,151.70044 52.3634546,151.70044 C54.2118128,151.70044 55.5873352,150.496858 55.5873352,148.347605 L55.5873352,141.298052 L60.3586785,141.298052 C66.2476337,141.298052 71.1049471,137.38641 71.1049471,131.11059 C71.1049471,124.963724 66.419574,120.837157 60.100768,120.837157 L52.4924098,120.837157 C50.3431561,120.837157 49.139574,122.169694 49.139574,124.189993 L49.139574,148.347605 Z M55.5873352,126.511187 L59.9718128,126.511187 C62.6798725,126.511187 64.3992755,128.4885 64.3992755,131.067605 C64.3992755,133.646709 62.6798725,135.624022 59.9718128,135.624022 L55.5873352,135.624022 L55.5873352,126.511187 Z M86.7300217,146.02641 C81.2709173,146.02641 78.6488277,141.384022 78.6488277,136.139843 C78.6488277,130.938649 81.3568874,126.253276 86.7300217,126.253276 C92.1031561,126.253276 94.8112158,130.938649 94.8112158,136.139843 C94.8112158,141.384022 92.1891262,146.02641 86.7300217,146.02641 L86.7300217,146.02641 Z M86.7300217,151.958351 C95.541962,151.958351 101.516887,145.037754 101.516887,136.139843 C101.516887,127.413873 95.3700217,120.321336 86.7300217,120.321336 C77.9610665,120.321336 71.9431561,127.198948 71.9431561,136.139843 C71.9431561,145.037754 78.0040516,151.958351 86.7300217,151.958351 L86.7300217,151.958351 Z M104.289425,148.347605 C104.289425,150.496858 105.664947,151.70044 107.513305,151.70044 C109.361664,151.70044 110.737186,150.496858 110.737186,148.347605 L110.737186,141.298052 L115.508529,141.298052 C121.397484,141.298052 126.254798,137.38641 126.254798,131.11059 C126.254798,124.963724 121.569425,120.837157 115.250619,120.837157 L107.642261,120.837157 C105.493007,120.837157 104.289425,122.169694 104.289425,124.189993 L104.289425,148.347605 Z M110.737186,126.511187 L115.121664,126.511187 C117.829723,126.511187 119.549126,128.4885 119.549126,131.067605 C119.549126,133.646709 117.829723,135.624022 115.121664,135.624022 L110.737186,135.624022 L110.737186,126.511187 Z M128.038678,139.277754 C128.038678,146.585216 133.927634,151.958351 141.106141,151.958351 C148.198678,151.958351 154.130619,146.499246 154.130619,139.277754 L154.130619,123.932082 C154.130619,121.782828 152.755096,120.579246 150.906738,120.579246 C149.05838,120.579246 147.682858,121.782828 147.682858,123.932082 L147.682858,138.933873 C147.682858,142.71656 145.017783,146.02641 141.106141,146.02641 C137.022559,146.02641 134.48644,142.8885 134.48644,138.933873 L134.48644,123.932082 C134.48644,121.782828 133.110917,120.579246 131.262559,120.579246 C129.414201,120.579246 128.038678,121.782828 128.038678,123.932082 L128.038678,139.277754 Z M157.848828,147.917754 C157.848828,150.067008 159.095395,151.44253 161.201664,151.44253 L171.947932,151.44253 C173.839275,151.44253 174.956887,150.024022 175.042858,148.605515 C175.085843,147.144022 174.140171,145.51059 171.947932,145.51059 L164.296589,145.51059 L164.296589,123.932082 C164.296589,121.782828 162.921067,120.579246 161.072708,120.579246 C159.22435,120.579246 157.848828,121.782828 157.848828,123.932082 L157.848828,147.917754 Z M174.72047,147.272978 C174.634499,147.487903 174.419574,148.003724 174.419574,148.691485 C174.419574,150.410888 175.881067,151.70044 177.60047,151.70044 C179.362858,151.70044 180.265544,150.754769 180.695395,149.422231 L181.984947,145.424619 L193.934798,145.424619 L195.22435,149.465216 C195.654201,150.754769 196.556887,151.70044 198.362261,151.70044 C199.952708,151.70044 201.328231,150.539843 201.328231,148.863425 C201.328231,148.56253 201.242261,147.960739 200.98435,147.272978 L192.559276,123.889097 C191.828529,121.825813 190.238081,120.321336 187.959873,120.321336 C185.767634,120.321336 184.091216,121.911784 183.36047,123.889097 L174.72047,147.272978 Z M187.916887,127.027008 L188.002858,127.027008 L192.00047,139.492679 L183.833305,139.492679 L187.916887,127.027008 Z M203.455992,148.347605 C203.455992,150.496858 204.831514,151.70044 206.679873,151.70044 C208.528231,151.70044 209.903753,150.496858 209.903753,148.347605 L209.903753,139.019843 L209.989723,139.019843 L219.53241,150.582828 C220.220171,151.399545 221.251813,151.70044 222.025544,151.70044 C223.916887,151.70044 225.249425,150.067008 225.249425,148.39059 C225.249425,147.788799 224.991514,147.144022 224.389723,146.499246 L217.082261,138.675963 C221.466738,137.988202 225.034499,135.280142 225.034499,130.551784 C225.034499,123.803127 220.950917,120.837157 214.331216,120.837157 L206.765843,120.837157 C204.616589,120.837157 203.455992,122.126709 203.455992,124.189993 L203.455992,148.347605 Z M209.903753,126.769097 L214.331216,126.769097 C216.695395,126.769097 218.328828,128.101634 218.328828,130.551784 C218.328828,132.958948 216.695395,134.377455 214.331216,134.377455 L209.903753,134.377455 L209.903753,126.769097 Z" id="POPULAR" fill="#1A3053" transform="translate(137.194499, 136.139843) rotate(-5.000000) translate(-137.194499, -136.139843) "></path>
                    <path d="M40.4283908,180.515932 C40.4283908,175.766082 42.4540624,170.527276 48.0421221,170.527276 C53.6301818,170.527276 55.6558535,175.766082 55.6558535,180.515932 C55.6558535,185.265783 53.6301818,190.504589 48.0421221,190.504589 C42.4540624,190.504589 40.4283908,185.265783 40.4283908,180.515932 L40.4283908,180.515932 Z M37.1454057,180.515932 C37.1454057,186.977126 40.9522714,193.158917 48.0421221,193.158917 C55.1319729,193.158917 58.9388385,186.977126 58.9388385,180.515932 C58.9388385,174.054738 55.1319729,167.872947 48.0421221,167.872947 C40.9522714,167.872947 37.1454057,174.054738 37.1454057,180.515932 L37.1454057,180.515932 Z M65.9413759,191.831753 C66.2557042,192.739813 66.5700326,193.158917 67.547943,193.158917 C68.5258535,193.158917 68.8401818,192.739813 69.1545102,191.831753 L74.4980923,176.848768 C74.7076445,176.289962 74.8124206,175.940708 74.8124206,175.591455 C74.8124206,174.683395 74.1488385,174.159514 73.4154057,174.159514 C72.4025699,174.159514 72.0533162,174.64847 71.8088385,175.346977 L67.5828684,188.199514 L67.5130176,188.199514 L63.2870475,175.346977 C63.0425699,174.64847 62.6933162,174.159514 61.6804803,174.159514 C60.9470475,174.159514 60.2834654,174.683395 60.2834654,175.591455 C60.2834654,175.940708 60.3882415,176.289962 60.5977938,176.848768 L65.9413759,191.831753 Z M90.616152,184.846679 C91.9433162,184.846679 92.3274953,184.287873 92.3274953,183.205186 C92.3274953,178.734738 89.3937639,174.159514 84.3295848,174.159514 C79.1257042,174.159514 75.9824206,178.629962 75.9824206,183.659216 C75.9824206,188.583694 78.5668982,193.158917 84.5042117,193.158917 C88.1364505,193.158917 91.9433162,190.853843 91.9433162,189.352052 C91.9433162,188.478917 91.3845102,187.989962 90.8257042,187.989962 C89.6731669,187.989962 88.6254057,190.504589 84.5391371,190.504589 C81.0815251,190.504589 79.0558535,188.024888 79.0558535,184.846679 L90.616152,184.846679 Z M79.0558535,182.541604 C79.1606296,179.712649 80.5227191,176.674141 84.3295848,176.813843 C87.717346,176.813843 89.2540624,179.887276 89.2540624,182.541604 L79.0558535,182.541604 Z M95.34854,191.517425 C95.34854,192.530261 95.9422714,193.158917 96.8852565,193.158917 C97.8282415,193.158917 98.4219729,192.530261 98.4219729,191.517425 L98.4219729,182.681305 C98.4219729,179.083992 100.657197,177.721902 102.473316,177.407574 C103.765555,177.163097 104.394212,176.604291 104.394212,175.731156 C104.394212,174.858022 103.765555,174.159514 102.682868,174.159514 C100.901674,174.159514 99.1903311,175.940708 98.4918236,177.372649 L98.4219729,177.372649 L98.4219729,175.801007 C98.4219729,174.788171 97.8282415,174.159514 96.8852565,174.159514 C95.9422714,174.159514 95.34854,174.788171 95.34854,175.801007 L95.34854,191.517425 Z M121.193316,170.736828 L128.283167,170.736828 C129.0166,170.736828 129.610331,170.143097 129.610331,169.409664 C129.610331,168.676231 129.0166,168.082499 128.283167,168.082499 L119.6566,168.082499 C118.923167,168.082499 118.608839,168.257126 118.504062,168.885783 L117.211824,177.582201 C117.107048,178.350559 116.967346,179.258619 116.967346,179.642798 C116.967346,180.131753 117.281674,180.585783 118.015107,180.585783 C118.888242,180.585783 119.970928,179.642798 122.241077,179.642798 C125.244659,179.642798 126.536898,181.982798 126.536898,184.916529 C126.536898,187.815335 124.755704,190.295037 121.787048,190.295037 C118.259585,190.295037 117.141973,187.710559 115.884659,187.710559 C115.116301,187.710559 114.767048,188.409067 114.767048,189.037723 C114.767048,190.539514 117.630928,193.158917 121.752122,193.158917 C126.781376,193.158917 129.819883,189.66638 129.819883,184.322798 C129.819883,180.446082 127.340182,176.778917 123.463465,176.778917 C122.310928,176.778917 121.193316,176.953544 120.18048,177.477425 L121.193316,170.736828 Z M133.190182,180.515932 C133.190182,188.513843 136.857346,193.158917 141.397645,193.158917 C145.937943,193.158917 149.605107,188.513843 149.605107,180.515932 C149.605107,172.518022 145.937943,167.872947 141.397645,167.872947 C136.857346,167.872947 133.190182,172.518022 133.190182,180.515932 L133.190182,180.515932 Z M136.473167,180.515932 C136.473167,173.565783 138.673465,170.527276 141.397645,170.527276 C144.121824,170.527276 146.322122,173.565783 146.322122,180.515932 C146.322122,187.466082 144.121824,190.504589 141.397645,190.504589 C138.673465,190.504589 136.473167,187.466082 136.473167,180.515932 L136.473167,180.515932 Z M152.451525,179.39832 C152.451525,184.567276 162.370331,184.357723 162.370331,187.989962 C162.370331,189.247276 161.008242,190.504589 158.773018,190.504589 C155.420182,190.504589 154.30257,188.23444 152.94048,188.23444 C152.276898,188.23444 151.683167,188.793246 151.683167,189.631455 C151.683167,191.203097 154.7566,193.158917 158.668242,193.158917 C162.125854,193.158917 165.443764,191.307873 165.443764,187.431156 C165.443764,182.052649 155.524958,182.401902 155.524958,179.153843 C155.524958,177.582201 157.026749,176.813843 158.773018,176.813843 C161.706749,176.813843 162.23063,178.699813 163.557794,178.699813 C164.500779,178.699813 164.954809,178.106082 164.954809,177.442499 C164.954809,175.521604 161.32257,174.159514 158.773018,174.159514 C155.664659,174.159514 152.451525,175.975634 152.451525,179.39832 L152.451525,179.39832 Z M180.356898,183.659216 L185.106749,183.659216 C189.647048,183.659216 193.069734,180.236529 193.069734,175.905783 C193.069734,171.575037 189.996301,168.082499 185.001973,168.082499 L178.924958,168.082499 C177.772421,168.082499 177.283465,168.815932 177.283465,169.758917 L177.283465,191.517425 C177.283465,192.530261 177.877197,193.158917 178.820182,193.158917 C179.763167,193.158917 180.356898,192.530261 180.356898,191.517425 L180.356898,183.659216 Z M180.356898,170.736828 L184.757495,170.736828 C188.599286,170.736828 189.996301,173.461007 189.996301,175.905783 C189.996301,178.734738 187.935704,181.004888 184.897197,181.004888 L180.356898,181.004888 L180.356898,170.736828 Z M198.57048,167.62847 C198.57048,166.615634 197.976749,165.986977 197.033764,165.986977 C196.090779,165.986977 195.497048,166.615634 195.497048,167.62847 L195.497048,191.517425 C195.497048,192.530261 196.090779,193.158917 197.033764,193.158917 C197.976749,193.158917 198.57048,192.530261 198.57048,191.517425 L198.57048,167.62847 Z M218.076301,175.661305 C218.076301,174.578619 217.238092,174.159514 216.644361,174.159514 C216.015704,174.159514 215.212421,174.578619 215.212421,175.661305 L215.212421,176.639216 L215.14257,176.639216 C213.71063,175.067574 212.208839,174.159514 210.078391,174.159514 C204.839585,174.159514 201.905854,178.734738 201.905854,183.659216 C201.905854,188.583694 204.839585,193.158917 210.078391,193.158917 C212.069137,193.158917 213.815406,192.250858 215.14257,190.364888 L215.212421,190.364888 L215.212421,191.657126 C215.212421,192.739813 216.015704,193.158917 216.644361,193.158917 C217.238092,193.158917 218.076301,192.739813 218.076301,191.657126 L218.076301,175.661305 Z M204.979286,183.659216 C204.979286,180.515932 206.306451,176.813843 210.078391,176.813843 C213.850331,176.813843 215.177495,180.515932 215.177495,183.659216 C215.177495,186.802499 213.850331,190.504589 210.078391,190.504589 C206.306451,190.504589 204.979286,186.802499 204.979286,183.659216 L204.979286,183.659216 Z M222.214958,191.517425 C222.214958,192.530261 222.808689,193.158917 223.751674,193.158917 C224.69466,193.158917 225.288391,192.530261 225.288391,191.517425 L225.288391,181.389067 C225.288391,178.141007 227.55854,176.813843 229.584212,176.813843 C231.609883,176.813843 233.880033,178.141007 233.880033,181.389067 L233.880033,191.517425 C233.880033,192.530261 234.473764,193.158917 235.416749,193.158917 C236.359734,193.158917 236.953465,192.530261 236.953465,191.517425 L236.953465,181.21444 C236.953465,175.975634 233.356152,174.159514 230.492271,174.159514 C228.641227,174.159514 226.720331,174.858022 225.358242,176.604291 L225.288391,176.53444 L225.288391,175.801007 C225.288391,174.788171 224.69466,174.159514 223.751674,174.159514 C222.808689,174.159514 222.214958,174.788171 222.214958,175.801007 L222.214958,191.517425 Z" id="Over-50s-Plan" fill="#1A3053" transform="translate(137.049436, 179.572947) rotate(-5.000000) translate(-137.049436, -179.572947) "></path>
                    <path d="M31.3675338,98.7992187 C31.3675338,106.106681 37.256489,111.479816 44.4349965,111.479816 C51.5275338,111.479816 57.4594741,106.020711 57.4594741,98.7992187 L57.4594741,83.4535471 C57.4594741,81.3042933 56.0839517,80.1007113 54.2355935,80.1007113 C52.3872353,80.1007113 51.0117129,81.3042933 51.0117129,83.4535471 L51.0117129,98.4553381 C51.0117129,102.238025 48.3466383,105.547875 44.4349965,105.547875 C40.3514144,105.547875 37.815295,102.409965 37.815295,98.4553381 L37.815295,83.4535471 C37.815295,81.3042933 36.4397726,80.1007113 34.5914144,80.1007113 C32.7430562,80.1007113 31.3675338,81.3042933 31.3675338,83.4535471 L31.3675338,98.7992187 Z M61.0702204,108.12698 C61.0702204,110.018323 62.4457428,111.221905 64.294101,111.221905 C66.2284293,111.221905 67.5179816,109.803398 67.5179816,108.12698 L67.5179816,97.1657859 L78.6511159,109.201607 C79.854698,110.491159 80.6714144,111.221905 81.9179816,111.221905 C83.6803696,111.221905 85.2708174,110.276234 85.2708174,108.255935 C85.2708174,106.966383 84.4970861,106.020711 83.4654443,104.989069 L73.535892,94.6296665 L81.6600711,86.6344426 C83.0785786,85.2159351 83.7663398,84.3132486 83.7663398,83.1956366 C83.7663398,81.3472784 82.2188771,80.1007113 80.5854443,80.1007113 C79.3818622,80.1007113 78.5651458,80.7884724 78.0923099,81.3042933 L67.5179816,92.5663829 L67.5179816,83.2816068 C67.5179816,81.3042933 66.1424592,80.1007113 64.294101,80.1007113 C62.3597726,80.1007113 61.0702204,81.5192187 61.0702204,83.2816068 L61.0702204,108.12698 Z M94.7705189,84.3992187 C95.0284293,83.8404127 95.3293249,83.2816068 95.3293249,82.6798157 C95.3293249,81.132353 93.9108174,79.8428008 92.3633547,79.8428008 C91.6755935,79.8428008 90.4290264,80.3156366 89.8702204,81.3042933 L86.3024592,87.7520545 C86.0445487,88.3108605 85.7866383,88.8696665 85.7866383,89.4714575 C85.7866383,91.0189202 87.1621607,92.3084724 88.7096234,92.3084724 C89.3973846,92.3084724 90.6439517,91.8356366 91.1597726,90.8469799 L94.7705189,84.3992187 Z M109.85828,92.050562 C109.85828,88.9986217 105.172907,87.5801142 102.120967,87.5801142 C97.2206681,87.5801142 93.7388771,90.5030993 93.7388771,94.8016068 C93.7388771,101.894144 104.485146,101.464293 104.485146,104.301308 C104.485146,105.461905 103.92634,106.063696 102.034997,106.063696 C99.1120114,106.063696 98.0373846,103.957428 95.6302204,103.957428 C93.9108174,103.957428 92.9651458,105.762801 92.9651458,106.708472 C92.9651458,109.502502 98.1233547,111.479816 101.605146,111.479816 C106.935295,111.479816 110.417086,108.341905 110.417086,104.215338 C110.417086,97.1657859 99.6708174,97.5956366 99.6708174,94.7156366 C99.6708174,93.5120545 100.659474,92.9962336 101.777086,92.9962336 C103.797385,92.9962336 106.161564,94.8016068 107.322161,94.8016068 C108.783653,94.8016068 109.85828,93.4690695 109.85828,92.050562 L109.85828,92.050562 Z M123.441564,107.396234 C123.398579,107.654144 123.398579,107.912055 123.398579,108.12698 C123.398579,110.018323 124.774101,111.221905 126.493504,111.221905 C128.685743,111.221905 129.545444,110.233249 129.84634,108.21295 L132.382459,90.7180247 L132.468429,90.7180247 L137.626638,108.728771 C137.927534,109.760413 138.74425,111.221905 141.065444,111.221905 C143.386638,111.221905 144.203355,109.760413 144.50425,108.728771 L149.662459,90.7180247 L149.748429,90.7180247 L152.284549,108.21295 C152.585444,110.233249 153.445146,111.221905 155.637385,111.221905 C157.356788,111.221905 158.73231,110.018323 158.73231,108.12698 C158.73231,107.912055 158.73231,107.654144 158.689325,107.396234 L154.691713,83.410562 C154.433802,81.8630993 152.757385,80.1007113 150.479176,80.1007113 C148.329922,80.1007113 146.653504,81.6481739 146.180668,83.1956366 L141.108429,100.217726 L141.022459,100.217726 L135.95022,83.1956366 C135.477385,81.6481739 133.800967,80.1007113 131.651713,80.1007113 C129.373504,80.1007113 127.697086,81.8630993 127.439176,83.410562 L123.441564,107.396234 Z M175.281564,105.547875 C169.822459,105.547875 167.20037,100.905487 167.20037,95.6613083 C167.20037,90.4601142 169.908429,85.7747411 175.281564,85.7747411 C180.654698,85.7747411 183.362758,90.4601142 183.362758,95.6613083 C183.362758,100.905487 180.740668,105.547875 175.281564,105.547875 L175.281564,105.547875 Z M175.281564,111.479816 C184.093504,111.479816 190.068429,104.559219 190.068429,95.6613083 C190.068429,86.9353381 183.921564,79.8428008 175.281564,79.8428008 C166.512608,79.8428008 160.494698,86.7204127 160.494698,95.6613083 C160.494698,104.559219 166.555594,111.479816 175.281564,111.479816 L175.281564,111.479816 Z M202.405146,79.8428008 C196.688131,79.8428008 191.744847,83.5825023 191.744847,89.6004127 C191.744847,99.5729501 206.101862,96.5210098 206.101862,101.593249 C206.101862,103.699517 204.554399,105.289965 201.717385,105.289965 C198.923355,105.289965 196.516191,103.613547 194.495892,103.613547 C192.733504,103.613547 191.615892,104.989069 191.615892,106.665487 C191.615892,110.706084 198.751414,111.479816 202.061265,111.479816 C207.993205,111.479816 213.065444,107.654144 213.065444,101.507278 C213.065444,90.4171292 198.708429,93.2541441 198.708429,88.8266814 C198.708429,87.0213083 200.384847,86.0326516 202.233205,86.0326516 C204.81231,86.0326516 206.187832,87.3222038 207.95022,87.3222038 C209.712608,87.3222038 210.83022,85.8177262 210.83022,84.1413083 C210.83022,80.7454874 204.81231,79.8428008 202.405146,79.8428008 L202.405146,79.8428008 Z M220.974698,107.869069 C220.974698,110.018323 222.35022,111.221905 224.198579,111.221905 C226.046937,111.221905 227.422459,110.018323 227.422459,107.869069 L227.422459,86.290562 L232.107832,86.290562 C234.171116,86.290562 235.030817,84.7860844 235.030817,83.3245919 C235.030817,81.8201142 233.956191,80.3586217 232.107832,80.3586217 L216.289325,80.3586217 C214.440967,80.3586217 213.36634,81.8201142 213.36634,83.3245919 C213.36634,84.7860844 214.226041,86.290562 216.289325,86.290562 L220.974698,86.290562 L220.974698,107.869069 Z" id="UK’s-MOST" fill="#1A3053" transform="translate(133.199176, 95.661308) rotate(-5.000000) translate(-133.199176, -95.661308) "></path>
                </g>
                <g id="Group-8" transform="translate(197.000000, 179.000000)">
                    <path d="M177.557214,89 C177.557214,137.908378 137.908378,177.557214 89,177.557214 C40.0916219,177.557214 0.44278607,137.908378 0.44278607,89 C0.44278607,40.0916219 40.0916219,0.44278607 89,0.44278607 C137.908378,0.44278607 177.557214,40.0916219 177.557214,89 L177.557214,89 Z" id="Stroke-1" fill="#1A3053"></path>
                    <path d="M32.3957191,97.7995319 C32.3957191,99.2164473 33.302545,100.00992 34.5210923,100.00992 C35.7396395,100.00992 36.6464654,99.2164473 36.6464654,97.7995319 L36.6464654,93.1520493 L39.7920176,93.1520493 C43.6743659,93.1520493 46.8765948,90.5732632 46.8765948,86.4358702 C46.8765948,82.3834921 43.7877191,79.6630145 39.6219878,79.6630145 L34.6061072,79.6630145 C33.1891918,79.6630145 32.3957191,80.541502 32.3957191,81.8734025 L32.3957191,97.7995319 Z M36.6464654,83.4036712 L39.5369729,83.4036712 C41.3222863,83.4036712 42.4558186,84.7072334 42.4558186,86.4075319 C42.4558186,88.1078304 41.3222863,89.4113926 39.5369729,89.4113926 L36.6464654,89.4113926 L36.6464654,83.4036712 Z M57.1775699,96.2692632 C53.5786047,96.2692632 51.8499679,93.2087259 51.8499679,89.7514523 C51.8499679,86.3225169 53.6352813,83.2336413 57.1775699,83.2336413 C60.7198584,83.2336413 62.5051719,86.3225169 62.5051719,89.7514523 C62.5051719,93.2087259 60.7765351,96.2692632 57.1775699,96.2692632 L57.1775699,96.2692632 Z M57.1775699,100.17995 C62.9869231,100.17995 66.925948,95.6174821 66.925948,89.7514523 C66.925948,83.9987756 62.8735699,79.3229548 57.1775699,79.3229548 C51.396555,79.3229548 47.4291918,83.8570841 47.4291918,89.7514523 C47.4291918,95.6174821 51.4248933,100.17995 57.1775699,100.17995 L57.1775699,100.17995 Z M68.7537689,97.7995319 C68.7537689,99.2164473 69.6605948,100.00992 70.879142,100.00992 C72.0976893,100.00992 73.0045152,99.2164473 73.0045152,97.7995319 L73.0045152,93.1520493 L76.1500674,93.1520493 C80.0324157,93.1520493 83.2346445,90.5732632 83.2346445,86.4358702 C83.2346445,82.3834921 80.1457689,79.6630145 75.9800376,79.6630145 L70.964157,79.6630145 C69.5472415,79.6630145 68.7537689,80.541502 68.7537689,81.8734025 L68.7537689,97.7995319 Z M73.0045152,83.4036712 L75.8950226,83.4036712 C77.6803361,83.4036712 78.8138684,84.7072334 78.8138684,86.4075319 C78.8138684,88.1078304 77.6803361,89.4113926 75.8950226,89.4113926 L73.0045152,89.4113926 L73.0045152,83.4036712 Z M84.4106843,91.8201488 C84.4106843,96.6376612 88.2930326,100.17995 93.0255301,100.17995 C97.701351,100.17995 101.612038,96.5809846 101.612038,91.8201488 L101.612038,81.7033727 C101.612038,80.2864572 100.705212,79.4929846 99.4866644,79.4929846 C98.2681172,79.4929846 97.3612913,80.2864572 97.3612913,81.7033727 L97.3612913,91.5934423 C97.3612913,94.0872135 95.6043162,96.2692632 93.0255301,96.2692632 C90.3333908,96.2692632 88.6614306,94.2005667 88.6614306,91.5934423 L88.6614306,81.7033727 C88.6614306,80.2864572 87.7546047,79.4929846 86.5360575,79.4929846 C85.3175102,79.4929846 84.4106843,80.2864572 84.4106843,81.7033727 L84.4106843,91.8201488 Z M104.063301,97.5161488 C104.063301,98.9330642 104.885112,99.8398901 106.273689,99.8398901 L113.358266,99.8398901 C114.605152,99.8398901 115.341948,98.9047259 115.398625,97.9695617 C115.426963,97.0060592 114.80352,95.9292035 113.358266,95.9292035 L108.314048,95.9292035 L108.314048,81.7033727 C108.314048,80.2864572 107.407222,79.4929846 106.188674,79.4929846 C104.970127,79.4929846 104.063301,80.2864572 104.063301,81.7033727 L104.063301,97.5161488 Z M115.186087,97.0910742 C115.129411,97.2327657 114.987719,97.5728254 114.987719,98.0262383 C114.987719,99.1597707 115.951222,100.00992 117.084754,100.00992 C118.246625,100.00992 118.841729,99.3864771 119.125112,98.5079896 L119.975261,95.8725269 L127.853311,95.8725269 L128.70346,98.5363279 C128.986844,99.3864771 129.581948,100.00992 130.772157,100.00992 C131.820674,100.00992 132.7275,99.2447856 132.7275,98.1395916 C132.7275,97.9412234 132.670824,97.5444871 132.500794,97.0910742 L126.946485,81.6750344 C126.464734,80.3147955 125.416217,79.3229548 123.914286,79.3229548 C122.469033,79.3229548 121.363839,80.3714722 120.882087,81.6750344 L115.186087,97.0910742 Z M123.885948,83.7437309 L123.942625,83.7437309 L126.578087,91.9618403 L121.193809,91.9618403 L123.885948,83.7437309 Z M134.130247,97.7995319 C134.130247,99.2164473 135.037072,100.00992 136.25562,100.00992 C137.474167,100.00992 138.380993,99.2164473 138.380993,97.7995319 L138.380993,91.6501189 L138.437669,91.6501189 L144.728774,99.2731239 C145.182187,99.8115518 145.862306,100.00992 146.372396,100.00992 C147.619281,100.00992 148.497769,98.9330642 148.497769,97.8278702 C148.497769,97.4311339 148.327739,97.0060592 147.931003,96.5809846 L143.11349,91.4234125 C146.003998,90.9699995 148.356077,89.1846861 148.356077,86.0674722 C148.356077,81.6183577 145.663938,79.6630145 141.299839,79.6630145 L136.312296,79.6630145 C134.895381,79.6630145 134.130247,80.5131637 134.130247,81.8734025 L134.130247,97.7995319 Z M138.380993,83.573701 L141.299839,83.573701 C142.858446,83.573701 143.935301,84.4521886 143.935301,86.0674722 C143.935301,87.6544174 142.858446,88.5895816 141.299839,88.5895816 L138.380993,88.5895816 L138.380993,83.573701 Z" id="POPULAR" fill="#FFEE00" transform="translate(90.446744, 89.751452) rotate(-5.000000) translate(-90.446744, -89.751452) "></path>
                    <path d="M26.652791,119.0068 C26.652791,115.875417 27.9882337,112.421685 31.6722138,112.421685 C35.3561939,112.421685 36.6916367,115.875417 36.6916367,119.0068 C36.6916367,122.138183 35.3561939,125.591914 31.6722138,125.591914 C27.9882337,125.591914 26.652791,122.138183 26.652791,119.0068 L26.652791,119.0068 Z M24.4884526,119.0068 C24.4884526,123.266402 26.9981641,127.341805 31.6722138,127.341805 C36.3462636,127.341805 38.855975,123.266402 38.855975,119.0068 C38.855975,114.747198 36.3462636,110.671795 31.6722138,110.671795 C26.9981641,110.671795 24.4884526,114.747198 24.4884526,119.0068 L24.4884526,119.0068 Z M43.4724626,126.46686 C43.6796865,127.065506 43.8869104,127.341805 44.5316069,127.341805 C45.1763034,127.341805 45.3835273,127.065506 45.5907512,126.46686 L49.1135571,116.589188 C49.2517064,116.22079 49.320781,115.990541 49.320781,115.760292 C49.320781,115.161646 48.8833084,114.816272 48.399786,114.816272 C47.7320646,114.816272 47.5018158,115.138621 47.3406417,115.599118 L44.5546318,124.072272 L44.508582,124.072272 L41.7225721,115.599118 C41.5613979,115.138621 41.3311492,114.816272 40.6634278,114.816272 C40.1799054,114.816272 39.7424327,115.161646 39.7424327,115.760292 C39.7424327,115.990541 39.8115074,116.22079 39.9496566,116.589188 L43.4724626,126.46686 Z M59.7395372,121.861884 C60.6144825,121.861884 60.8677561,121.493486 60.8677561,120.779715 C60.8677561,117.832531 58.9336666,114.816272 55.5950596,114.816272 C52.1643532,114.816272 50.0921143,117.763457 50.0921143,121.079039 C50.0921143,124.325546 51.7959551,127.341805 55.710184,127.341805 C58.1047711,127.341805 60.6144825,125.822163 60.6144825,124.832093 C60.6144825,124.256471 60.2460845,123.934123 59.8776865,123.934123 C59.1178656,123.934123 58.4271193,125.591914 55.7332089,125.591914 C53.4537462,125.591914 52.1183034,123.957148 52.1183034,121.861884 L59.7395372,121.861884 Z M52.1183034,120.342243 C52.187378,118.477228 53.0853482,116.474064 55.5950596,116.566163 C57.8284726,116.566163 58.8415671,118.592352 58.8415671,120.342243 L52.1183034,120.342243 Z M62.8594079,126.259636 C62.8594079,126.927357 63.2508308,127.341805 63.8725024,127.341805 C64.4941741,127.341805 64.8855969,126.927357 64.8855969,126.259636 L64.8855969,120.434342 C64.8855969,118.06278 66.359189,117.16481 67.5564825,116.957586 C68.4084029,116.796412 68.8228507,116.428014 68.8228507,115.852392 C68.8228507,115.27677 68.4084029,114.816272 67.6946318,114.816272 C66.5203631,114.816272 65.3921442,115.990541 64.9316467,116.934561 L64.8855969,116.934561 L64.8855969,115.898442 C64.8855969,115.23072 64.4941741,114.816272 63.8725024,114.816272 C63.2508308,114.816272 62.8594079,115.23072 62.8594079,115.898442 L62.8594079,126.259636 Z M79.8978159,112.559835 L84.5718656,112.559835 C85.055388,112.559835 85.4468109,112.168412 85.4468109,111.684889 C85.4468109,111.201367 85.055388,110.809944 84.5718656,110.809944 L78.8847213,110.809944 C78.4011989,110.809944 78.1939751,110.925068 78.1249004,111.339516 L77.27298,117.07271 C77.2039054,117.579258 77.1118059,118.177904 77.1118059,118.431178 C77.1118059,118.753526 77.3190298,119.05285 77.8025522,119.05285 C78.3781741,119.05285 79.0919452,118.431178 80.5885621,118.431178 C82.5687014,118.431178 83.4206218,119.973845 83.4206218,121.907934 C83.4206218,123.818999 82.2463532,125.453765 80.2892387,125.453765 C77.9637263,125.453765 77.2269303,123.749924 76.3980348,123.749924 C75.8914875,123.749924 75.6612387,124.210422 75.6612387,124.624869 C75.6612387,125.614939 77.5492785,127.341805 80.2662139,127.341805 C83.581796,127.341805 85.5849601,125.039317 85.5849601,121.516511 C85.5849601,118.96075 83.950194,116.543138 81.3944328,116.543138 C80.6346119,116.543138 79.8978159,116.658263 79.2300945,117.003636 L79.8978159,112.559835 Z M87.8068606,119.0068 C87.8068606,124.279496 90.2244726,127.341805 93.2177064,127.341805 C96.2109402,127.341805 98.6285522,124.279496 98.6285522,119.0068 C98.6285522,113.734103 96.2109402,110.671795 93.2177064,110.671795 C90.2244726,110.671795 87.8068606,113.734103 87.8068606,119.0068 L87.8068606,119.0068 Z M89.9711989,119.0068 C89.9711989,114.42485 91.4217661,112.421685 93.2177064,112.421685 C95.0136467,112.421685 96.4642139,114.42485 96.4642139,119.0068 C96.4642139,123.58875 95.0136467,125.591914 93.2177064,125.591914 C91.4217661,125.591914 89.9711989,123.58875 89.9711989,119.0068 L89.9711989,119.0068 Z M100.50508,118.270004 C100.50508,121.677685 107.044144,121.539536 107.044144,123.934123 C107.044144,124.763019 106.146174,125.591914 104.672582,125.591914 C102.462194,125.591914 101.725398,124.095297 100.827428,124.095297 C100.389955,124.095297 99.9985323,124.463695 99.9985323,125.016292 C99.9985323,126.052412 102.024721,127.341805 104.603507,127.341805 C106.88297,127.341805 109.070333,126.121486 109.070333,123.565725 C109.070333,120.019894 102.531269,120.250143 102.531269,118.10883 C102.531269,117.07271 103.521338,116.566163 104.672582,116.566163 C106.606672,116.566163 106.952045,117.809506 107.82699,117.809506 C108.448662,117.809506 108.747985,117.418083 108.747985,116.980611 C108.747985,115.714243 106.353398,114.816272 104.672582,114.816272 C102.623368,114.816272 100.50508,116.013566 100.50508,118.270004 L100.50508,118.270004 Z M118.901955,121.079039 L122.033338,121.079039 C125.026572,121.079039 127.28301,118.822601 127.28301,115.967516 C127.28301,113.112432 125.256821,110.809944 121.964264,110.809944 L117.957935,110.809944 C117.198114,110.809944 116.875766,111.293466 116.875766,111.915138 L116.875766,126.259636 C116.875766,126.927357 117.267189,127.341805 117.888861,127.341805 C118.510532,127.341805 118.901955,126.927357 118.901955,126.259636 L118.901955,121.079039 Z M118.901955,112.559835 L121.80309,112.559835 C124.335826,112.559835 125.256821,114.355775 125.256821,115.967516 C125.256821,117.832531 123.898353,119.329148 121.895189,119.329148 L118.901955,119.329148 L118.901955,112.559835 Z M130.909428,110.510621 C130.909428,109.842899 130.518005,109.428452 129.896333,109.428452 C129.274662,109.428452 128.883239,109.842899 128.883239,110.510621 L128.883239,126.259636 C128.883239,126.927357 129.274662,127.341805 129.896333,127.341805 C130.518005,127.341805 130.909428,126.927357 130.909428,126.259636 L130.909428,110.510621 Z M143.768821,115.806342 C143.768821,115.092571 143.216224,114.816272 142.824801,114.816272 C142.410353,114.816272 141.880781,115.092571 141.880781,115.806342 L141.880781,116.451039 L141.834731,116.451039 C140.890711,115.414919 139.900642,114.816272 138.496124,114.816272 C135.042393,114.816272 133.108303,117.832531 133.108303,121.079039 C133.108303,124.325546 135.042393,127.341805 138.496124,127.341805 C139.808542,127.341805 140.959786,126.743158 141.834731,125.499815 L141.880781,125.499815 L141.880781,126.351735 C141.880781,127.065506 142.410353,127.341805 142.824801,127.341805 C143.216224,127.341805 143.768821,127.065506 143.768821,126.351735 L143.768821,115.806342 Z M135.134492,121.079039 C135.134492,119.0068 136.009438,116.566163 138.496124,116.566163 C140.982811,116.566163 141.857756,119.0068 141.857756,121.079039 C141.857756,123.151277 140.982811,125.591914 138.496124,125.591914 C136.009438,125.591914 135.134492,123.151277 135.134492,121.079039 L135.134492,121.079039 Z M146.497269,126.259636 C146.497269,126.927357 146.888692,127.341805 147.510363,127.341805 C148.132035,127.341805 148.523458,126.927357 148.523458,126.259636 L148.523458,119.582422 C148.523458,117.441108 150.020075,116.566163 151.355517,116.566163 C152.69096,116.566163 154.187577,117.441108 154.187577,119.582422 L154.187577,126.259636 C154.187577,126.927357 154.579,127.341805 155.200672,127.341805 C155.822343,127.341805 156.213766,126.927357 156.213766,126.259636 L156.213766,119.467297 C156.213766,116.013566 153.842204,114.816272 151.954164,114.816272 C150.733846,114.816272 149.467478,115.27677 148.569507,116.428014 L148.523458,116.381964 L148.523458,115.898442 C148.523458,115.23072 148.132035,114.816272 147.510363,114.816272 C146.888692,114.816272 146.497269,115.23072 146.497269,115.898442 L146.497269,126.259636 Z" id="Over-50s-Plan" fill="#FFEE00" transform="translate(90.351109, 118.385128) rotate(-5.000000) translate(-90.351109, -118.385128) "></path>
                    <path d="M20.6793371,65.1342997 C20.6793371,69.9518122 24.5616854,73.4941007 29.2941829,73.4941007 C33.9700038,73.4941007 37.8806903,69.8951356 37.8806903,65.1342997 L37.8806903,55.0175236 C37.8806903,53.6006082 36.9738645,52.8071356 35.7553172,52.8071356 C34.5367699,52.8071356 33.6299441,53.6006082 33.6299441,55.0175236 L33.6299441,64.9075933 C33.6299441,67.4013644 31.872969,69.5834142 29.2941829,69.5834142 C26.6020436,69.5834142 24.9300834,67.5147177 24.9300834,64.9075933 L24.9300834,55.0175236 C24.9300834,53.6006082 24.0232575,52.8071356 22.8047102,52.8071356 C21.586163,52.8071356 20.6793371,53.6006082 20.6793371,55.0175236 L20.6793371,65.1342997 Z M40.2611083,71.2837127 C40.2611083,72.5305983 41.1679341,73.3240709 42.3864814,73.3240709 C43.6617053,73.3240709 44.5118545,72.3889067 44.5118545,71.2837127 L44.5118545,64.057444 L51.8514764,71.9921704 C52.6449491,72.8423196 53.1833769,73.3240709 54.0051879,73.3240709 C55.1670585,73.3240709 56.2155759,72.7006281 56.2155759,71.3687276 C56.2155759,70.5185784 55.7054864,69.8951356 55.025367,69.2150162 L48.4792177,62.3854838 L53.835158,57.1145585 C54.7703222,56.1793943 55.2237351,55.5842898 55.2237351,54.8474938 C55.2237351,53.6289465 54.203556,52.8071356 53.1267003,52.8071356 C52.3332277,52.8071356 51.7947998,53.2605485 51.4830784,53.6006082 L44.5118545,61.025245 L44.5118545,54.9041704 C44.5118545,53.6006082 43.6050287,52.8071356 42.3864814,52.8071356 C41.1112575,52.8071356 40.2611083,53.7422997 40.2611083,54.9041704 L40.2611083,71.2837127 Z M62.4783421,55.6409664 C62.6483719,55.2725684 62.8467401,54.9041704 62.8467401,54.5074341 C62.8467401,53.487255 61.9115759,52.6371057 60.8913968,52.6371057 C60.4379839,52.6371057 59.6161729,52.9488271 59.2477749,53.6006082 L56.8956953,57.8513545 C56.7256655,58.2197525 56.5556356,58.5881505 56.5556356,58.9848868 C56.5556356,60.0050659 57.4624615,60.8552152 58.4826406,60.8552152 C58.9360535,60.8552152 59.7578645,60.5434938 60.0979242,59.8917127 L62.4783421,55.6409664 Z M72.4250884,60.6851853 C72.4250884,58.6731654 69.3362127,57.7380012 67.3241928,57.7380012 C64.0936257,57.7380012 61.7982227,59.6650062 61.7982227,62.4988371 C61.7982227,67.174658 68.8827998,66.8912749 68.8827998,68.7616032 C68.8827998,69.5267376 68.5144018,69.9234739 67.2675162,69.9234739 C65.3405112,69.9234739 64.6320535,68.5348968 63.0451083,68.5348968 C61.9115759,68.5348968 61.2881331,69.7251057 61.2881331,70.3485485 C61.2881331,72.1905386 64.6887301,73.4941007 66.9841331,73.4941007 C70.4980834,73.4941007 72.7934864,71.4254042 72.7934864,68.7049266 C72.7934864,64.057444 65.7089093,64.3408271 65.7089093,62.4421604 C65.7089093,61.6486878 66.3606903,61.3086281 67.0974864,61.3086281 C68.4293869,61.3086281 69.9879938,62.4988371 70.7531282,62.4988371 C71.7166306,62.4988371 72.4250884,61.6203495 72.4250884,60.6851853 L72.4250884,60.6851853 Z M81.3799938,70.8019614 C81.3516555,70.9719913 81.3516555,71.1420211 81.3516555,71.2837127 C81.3516555,72.5305983 82.2584814,73.3240709 83.3920137,73.3240709 C84.8372675,73.3240709 85.4040336,72.6722898 85.6024018,71.3403893 L87.274362,59.8066978 L87.3310386,59.8066978 L90.7316356,71.680449 C90.9300038,72.3605684 91.4684316,73.3240709 92.9987003,73.3240709 C94.528969,73.3240709 95.0673968,72.3605684 95.265765,71.680449 L98.666362,59.8066978 L98.7230386,59.8066978 L100.394999,71.3403893 C100.593367,72.6722898 101.160133,73.3240709 102.605387,73.3240709 C103.738919,73.3240709 104.645745,72.5305983 104.645745,71.2837127 C104.645745,71.1420211 104.645745,70.9719913 104.617407,70.8019614 L101.981944,54.9891853 C101.811914,53.9690062 100.70672,52.8071356 99.2047898,52.8071356 C97.7878744,52.8071356 96.6826804,53.8273147 96.370959,54.8474938 L93.0270386,66.0694639 L92.970362,66.0694639 L89.6264416,54.8474938 C89.3147202,53.8273147 88.2095262,52.8071356 86.7926107,52.8071356 C85.2906804,52.8071356 84.1854864,53.9690062 84.0154565,54.9891853 L81.3799938,70.8019614 Z M115.555994,69.5834142 C111.957029,69.5834142 110.228392,66.5228769 110.228392,63.0656032 C110.228392,59.6366679 112.013705,56.5477923 115.555994,56.5477923 C119.098282,56.5477923 120.883596,59.6366679 120.883596,63.0656032 C120.883596,66.5228769 119.154959,69.5834142 115.555994,69.5834142 L115.555994,69.5834142 Z M115.555994,73.4941007 C121.365347,73.4941007 125.304372,68.9316331 125.304372,63.0656032 C125.304372,57.3129266 121.251994,52.6371057 115.555994,52.6371057 C109.774979,52.6371057 105.807616,57.1712351 105.807616,63.0656032 C105.807616,68.9316331 109.803317,73.4941007 115.555994,73.4941007 L115.555994,73.4941007 Z M133.437466,52.6371057 C129.668471,52.6371057 126.409566,55.1025386 126.409566,59.0699017 C126.409566,65.6443893 135.874561,63.6323694 135.874561,66.9762898 C135.874561,68.3648669 134.854382,69.4133843 132.984054,69.4133843 C131.142063,69.4133843 129.555118,68.3081903 128.223218,68.3081903 C127.061347,68.3081903 126.324551,69.2150162 126.324551,70.3202102 C126.324551,72.9840112 131.02871,73.4941007 133.21076,73.4941007 C137.121447,73.4941007 140.465367,70.9719913 140.465367,66.9196132 C140.465367,59.6083296 131.000372,61.478658 131.000372,58.5598122 C131.000372,57.3696032 132.105566,56.7178221 133.324113,56.7178221 C135.024412,56.7178221 135.931238,57.5679714 137.093108,57.5679714 C138.254979,57.5679714 138.991775,56.5761306 138.991775,55.4709366 C138.991775,53.2322102 135.024412,52.6371057 133.437466,52.6371057 L133.437466,52.6371057 Z M145.679616,71.1136828 C145.679616,72.5305983 146.586442,73.3240709 147.804989,73.3240709 C149.023536,73.3240709 149.930362,72.5305983 149.930362,71.1136828 L149.930362,56.887852 L153.019238,56.887852 C154.379476,56.887852 154.946243,55.8960112 154.946243,54.9325087 C154.946243,53.9406679 154.237785,52.9771654 153.019238,52.9771654 L142.59074,52.9771654 C141.372193,52.9771654 140.663735,53.9406679 140.663735,54.9325087 C140.663735,55.8960112 141.230501,56.887852 142.59074,56.887852 L145.679616,56.887852 L145.679616,71.1136828 Z" id="UK’s-MOST" fill="#FFEE00" transform="translate(87.812790, 63.065603) rotate(-5.000000) translate(-87.812790, -63.065603) "></path>
                </g>
            </g>
        </g>
    </g>
</svg>