<?xml version="1.0" encoding="UTF-8" standalone="no"?>
<svg width="452px" height="190px" viewBox="0 0 452 190" version="1.1" xmlns="http://www.w3.org/2000/svg" xmlns:xlink="http://www.w3.org/1999/xlink">
    <!-- Generator: Sketch 39.1 (31720) - http://www.bohemiancoding.com/sketch -->
    <title>colour-sunshine-value</title>
    <desc>Created with Sketch.</desc>
    <defs></defs>
    <g id="Templates" stroke="none" stroke-width="1" fill="none" fill-rule="evenodd">
        <g id="6-colour-brand" transform="translate(-356.000000, -1262.000000)">
            <g id="colour-sunshine-value" transform="translate(354.000000, 1260.000000)">
                <circle id="colour-brand-circle-sunshine" fill="#FFED00" cx="364" cy="92" r="90"></circle>
                <path d="M103.848,32.984 C103.848,34.384 104.744,35.168 105.948,35.168 C107.152,35.168 108.048,34.384 108.048,32.984 L108.048,26.88 L116.84,26.88 L116.84,32.984 C116.84,34.384 117.736,35.168 118.94,35.168 C120.144,35.168 121.04,34.384 121.04,32.984 L121.04,17.08 C121.04,15.68 120.144,14.896 118.94,14.896 C117.736,14.896 116.84,15.68 116.84,17.08 L116.84,23.016 L108.048,23.016 L108.048,17.08 C108.048,15.68 107.152,14.896 105.948,14.896 C104.744,14.896 103.848,15.68 103.848,17.08 L103.848,32.984 Z M135.292,28.896 C136.524,28.896 137.056,28.308 137.056,27.104 C137.056,23.744 134.172,19.768 129.804,19.768 C125.548,19.768 122.58,23.492 122.58,27.58 C122.58,32.032 125.604,35.336 130.14,35.336 C133.136,35.336 136.72,33.656 136.72,31.92 C136.72,31.052 135.936,30.184 135.068,30.184 C134.004,30.184 132.576,31.808 130.504,31.808 C128.628,31.808 126.976,30.884 126.696,28.896 L135.292,28.896 Z M126.612,26.208 C126.808,24.5 128.012,23.128 129.804,23.128 C131.68,23.128 132.8,24.444 133.024,26.208 L126.612,26.208 Z M137.896,31.836 C137.588,32.172 137.336,32.76 137.336,33.208 C137.336,34.384 138.148,35.168 139.324,35.168 C140.22,35.168 140.584,34.776 141.004,34.272 L144.336,30.184 L147.668,34.272 C148.088,34.776 148.452,35.168 149.348,35.168 C150.524,35.168 151.336,34.384 151.336,33.208 C151.336,32.76 151.084,32.172 150.776,31.836 L146.688,27.188 L150.104,23.352 C150.44,22.96 150.72,22.4 150.72,21.896 C150.72,20.832 149.684,19.936 148.648,19.936 C148.004,19.936 147.584,20.216 147.164,20.72 L144.336,24.248 L141.508,20.72 C141.088,20.216 140.668,19.936 140.024,19.936 C138.988,19.936 137.952,20.832 137.952,21.896 C137.952,22.4 138.232,22.96 138.568,23.352 L141.984,27.188 L137.896,31.836 Z M152.904,24.164 C152.904,25.368 153.884,26.348 155.088,26.348 C156.292,26.348 157.272,25.368 157.272,24.164 C157.272,22.96 156.292,21.98 155.088,21.98 C153.884,21.98 152.904,22.96 152.904,24.164 L152.904,24.164 Z M152.904,33.152 C152.904,34.356 153.884,35.336 155.088,35.336 C156.292,35.336 157.272,34.356 157.272,33.152 C157.272,31.948 156.292,30.968 155.088,30.968 C153.884,30.968 152.904,31.948 152.904,33.152 L152.904,33.152 Z M177.012,28.952 L178.972,28.952 C179.616,28.952 180.12,28.644 180.12,28.028 C180.12,27.412 179.616,27.104 178.972,27.104 L177.264,27.104 L177.852,22.96 L179.812,22.96 C180.456,22.96 180.96,22.68 180.96,22.036 C180.96,21.42 180.456,21.112 179.812,21.112 L178.104,21.112 L178.664,17.024 C178.748,16.492 178.804,16.156 178.804,15.848 C178.804,15.344 178.524,14.896 177.852,14.896 C177.124,14.896 176.872,15.26 176.788,15.904 L176.06,21.112 L172.728,21.112 L173.288,17.024 C173.372,16.492 173.428,16.156 173.428,15.848 C173.428,15.344 173.148,14.896 172.476,14.896 C171.748,14.896 171.496,15.26 171.412,15.904 L170.684,21.112 L168.724,21.112 C168.08,21.112 167.576,21.42 167.576,22.036 C167.576,22.652 168.08,22.96 168.724,22.96 L170.432,22.96 L169.844,27.104 L167.884,27.104 C167.24,27.104 166.736,27.384 166.736,28.028 C166.736,28.644 167.24,28.952 167.884,28.952 L169.592,28.952 L169.032,33.04 C168.948,33.572 168.892,33.908 168.892,34.216 C168.892,34.72 169.172,35.168 169.844,35.168 C170.572,35.168 170.824,34.804 170.908,34.16 L171.636,28.952 L174.968,28.952 L174.408,33.04 C174.324,33.572 174.268,33.908 174.268,34.216 C174.268,34.72 174.548,35.168 175.22,35.168 C175.948,35.168 176.2,34.804 176.284,34.16 L177.012,28.952 Z M175.22,27.104 L171.888,27.104 L172.476,22.96 L175.808,22.96 L175.22,27.104 Z M186.224,22.232 L187.764,22.232 C188.576,22.232 188.996,21.84 188.996,21.168 C188.996,20.496 188.576,20.104 187.764,20.104 L186.224,20.104 L186.224,16.492 C186.224,15.876 186.476,15.512 187.232,15.512 L187.848,15.512 C188.772,15.512 189.192,15.12 189.192,14.448 C189.192,13.776 188.436,13.384 187.792,13.384 L187.036,13.384 C185.244,13.384 183.76,14.448 183.76,16.604 L183.76,20.104 L182.752,20.104 C181.94,20.104 181.52,20.496 181.52,21.168 C181.52,21.84 181.94,22.232 182.752,22.232 L183.76,22.232 L183.76,33.852 C183.76,34.664 184.236,35.168 184.992,35.168 C185.748,35.168 186.224,34.664 186.224,33.852 L186.224,22.232 Z M193.476,22.232 L195.016,22.232 C195.828,22.232 196.248,21.84 196.248,21.168 C196.248,20.496 195.828,20.104 195.016,20.104 L193.476,20.104 L193.476,16.492 C193.476,15.876 193.728,15.512 194.484,15.512 L195.1,15.512 C196.024,15.512 196.444,15.12 196.444,14.448 C196.444,13.776 195.688,13.384 195.044,13.384 L194.288,13.384 C192.496,13.384 191.012,14.448 191.012,16.604 L191.012,20.104 L190.004,20.104 C189.192,20.104 188.772,20.496 188.772,21.168 C188.772,21.84 189.192,22.232 190.004,22.232 L191.012,22.232 L191.012,33.852 C191.012,34.664 191.488,35.168 192.244,35.168 C193,35.168 193.476,34.664 193.476,33.852 L193.476,22.232 Z M208.316,28.504 C209.38,28.504 209.688,28.056 209.688,27.188 C209.688,23.604 207.336,19.936 203.276,19.936 C199.104,19.936 196.584,23.52 196.584,27.552 C196.584,31.5 198.656,35.168 203.416,35.168 C206.328,35.168 209.38,33.32 209.38,32.116 C209.38,31.416 208.932,31.024 208.484,31.024 C207.56,31.024 206.72,33.04 203.444,33.04 C200.672,33.04 199.048,31.052 199.048,28.504 L208.316,28.504 Z M199.048,26.656 C199.132,24.388 200.224,21.952 203.276,22.064 C205.992,22.064 207.224,24.528 207.224,26.656 L199.048,26.656 Z M222.036,27.552 C222.036,30.072 220.972,33.04 217.948,33.04 C214.924,33.04 213.86,30.072 213.86,27.552 C213.86,25.032 214.924,22.064 217.948,22.064 C220.972,22.064 222.036,25.032 222.036,27.552 L222.036,27.552 Z M221.784,33.852 C221.784,34.664 222.26,35.168 223.016,35.168 C223.772,35.168 224.248,34.664 224.248,33.852 L224.248,14.7 C224.248,13.888 223.772,13.384 223.016,13.384 C222.26,13.384 221.784,13.888 221.784,14.7 L221.784,21.952 L221.728,21.952 C221.084,21.028 219.712,19.936 217.752,19.936 C213.72,19.936 211.396,23.604 211.396,27.552 C211.396,31.5 213.72,35.168 217.752,35.168 C219.712,35.168 221.028,34.468 221.728,33.124 L221.784,33.124 L221.784,33.852 Z M226.908,25.032 C226.908,31.444 229.848,35.168 233.488,35.168 C237.128,35.168 240.068,31.444 240.068,25.032 C240.068,18.62 237.128,14.896 233.488,14.896 C229.848,14.896 226.908,18.62 226.908,25.032 L226.908,25.032 Z M229.54,25.032 C229.54,19.46 231.304,17.024 233.488,17.024 C235.672,17.024 237.436,19.46 237.436,25.032 C237.436,30.604 235.672,33.04 233.488,33.04 C231.304,33.04 229.54,30.604 229.54,25.032 L229.54,25.032 Z M241.916,25.032 C241.916,31.444 244.856,35.168 248.496,35.168 C252.136,35.168 255.076,31.444 255.076,25.032 C255.076,18.62 252.136,14.896 248.496,14.896 C244.856,14.896 241.916,18.62 241.916,25.032 L241.916,25.032 Z M244.548,25.032 C244.548,19.46 246.312,17.024 248.496,17.024 C250.68,17.024 252.444,19.46 252.444,25.032 C252.444,30.604 250.68,33.04 248.496,33.04 C246.312,33.04 244.548,30.604 244.548,25.032 L244.548,25.032 Z" id="Hex:-#ffed00" fill="#575756" transform="translate(179.924000, 24.360000) rotate(10.000000) translate(-179.924000, -24.360000) "></path>
                <path d="M70.852,99.984 C70.852,101.384 71.748,102.168 72.952,102.168 C74.156,102.168 75.052,101.384 75.052,99.984 L75.052,93.908 L75.108,93.908 L81.324,101.44 C81.772,101.972 82.444,102.168 82.948,102.168 C84.18,102.168 85.048,101.104 85.048,100.012 C85.048,99.62 84.88,99.2 84.488,98.78 L79.728,93.684 C82.584,93.236 84.908,91.472 84.908,88.392 C84.908,83.996 82.248,82.064 77.936,82.064 L73.008,82.064 C71.608,82.064 70.852,82.904 70.852,84.248 L70.852,99.984 Z M75.052,85.928 L77.936,85.928 C79.476,85.928 80.54,86.796 80.54,88.392 C80.54,89.96 79.476,90.884 77.936,90.884 L75.052,90.884 L75.052,85.928 Z M97.172,90.184 C96.108,90.184 95.212,90.912 95.212,92.088 C95.212,93.236 96.024,94.048 97.172,94.048 L100.028,94.048 C100.028,97.24 97.48,98.472 95.268,98.472 C91.712,98.472 90.004,95.448 90.004,92.032 C90.004,88.644 91.768,85.592 95.268,85.592 C98.936,85.592 99.328,87.636 101.232,87.636 C102.212,87.636 102.968,86.88 102.968,85.676 C102.968,83.716 99.496,81.728 95.268,81.728 C89.556,81.728 85.636,86.208 85.636,92.032 C85.636,97.828 89.584,102.336 95.268,102.336 C100.868,102.336 104.396,98.276 104.396,92.872 C104.396,91.08 103.696,90.184 101.932,90.184 L97.172,90.184 Z M106.132,99.872 C106.132,101.188 107.084,102 108.372,102 L114.14,102 C118.004,102 120.636,99.872 120.636,95.924 C120.636,93.488 118.76,91.5 116.38,91.164 L116.38,91.108 C118.172,90.268 118.984,88.952 118.984,86.992 C118.984,84.024 116.632,82.064 113.72,82.064 L108.344,82.064 C107.056,82.064 106.132,82.82 106.132,84.164 L106.132,99.872 Z M110.332,85.76 L112.516,85.76 C113.748,85.76 114.784,86.432 114.784,87.748 C114.784,89.148 113.888,89.96 112.516,89.96 L110.332,89.96 L110.332,85.76 Z M110.332,93.656 L113.3,93.656 C115.26,93.656 116.268,94.552 116.268,95.868 C116.268,97.436 115.148,98.304 113.636,98.304 L110.332,98.304 L110.332,93.656 Z M122.512,91.164 C122.512,92.368 123.492,93.348 124.696,93.348 C125.9,93.348 126.88,92.368 126.88,91.164 C126.88,89.96 125.9,88.98 124.696,88.98 C123.492,88.98 122.512,89.96 122.512,91.164 L122.512,91.164 Z M122.512,100.152 C122.512,101.356 123.492,102.336 124.696,102.336 C125.9,102.336 126.88,101.356 126.88,100.152 C126.88,98.948 125.9,97.968 124.696,97.968 C123.492,97.968 122.512,98.948 122.512,100.152 L122.512,100.152 Z M141.048,99.872 L147.74,90.968 C149.028,89.288 149.112,88 149.112,86.852 C149.112,84.276 147.04,81.896 143.736,81.896 C139.62,81.896 137.38,84.836 137.38,88.14 C137.38,89.176 137.8,89.652 138.584,89.652 C139.116,89.652 139.676,89.4 139.676,88.532 C139.676,86.04 140.936,84.024 143.316,84.024 C145.108,84.024 146.48,85.312 146.48,87.132 C146.48,88.336 145.864,89.568 145.024,90.66 L138.136,99.872 C137.716,100.46 137.604,100.684 137.604,100.992 C137.604,101.412 137.912,102 138.948,102 L148.608,102 C149.196,102 149.672,101.524 149.672,100.936 C149.672,100.348 149.196,99.872 148.608,99.872 L141.048,99.872 Z M157.344,84.192 L163.028,84.192 C163.616,84.192 164.092,83.716 164.092,83.128 C164.092,82.54 163.616,82.064 163.028,82.064 L156.112,82.064 C155.524,82.064 155.272,82.204 155.188,82.708 L154.152,89.68 C154.068,90.296 153.956,91.024 153.956,91.332 C153.956,91.724 154.208,92.088 154.796,92.088 C155.496,92.088 156.364,91.332 158.184,91.332 C160.592,91.332 161.628,93.208 161.628,95.56 C161.628,97.884 160.2,99.872 157.82,99.872 C154.992,99.872 154.096,97.8 153.088,97.8 C152.472,97.8 152.192,98.36 152.192,98.864 C152.192,100.068 154.488,102.168 157.792,102.168 C161.824,102.168 164.26,99.368 164.26,95.084 C164.26,91.976 162.272,89.036 159.164,89.036 C158.24,89.036 157.344,89.176 156.532,89.596 L157.344,84.192 Z M172.352,84.192 L178.036,84.192 C178.624,84.192 179.1,83.716 179.1,83.128 C179.1,82.54 178.624,82.064 178.036,82.064 L171.12,82.064 C170.532,82.064 170.28,82.204 170.196,82.708 L169.16,89.68 C169.076,90.296 168.964,91.024 168.964,91.332 C168.964,91.724 169.216,92.088 169.804,92.088 C170.504,92.088 171.372,91.332 173.192,91.332 C175.6,91.332 176.636,93.208 176.636,95.56 C176.636,97.884 175.208,99.872 172.828,99.872 C170,99.872 169.104,97.8 168.096,97.8 C167.48,97.8 167.2,98.36 167.2,98.864 C167.2,100.068 169.496,102.168 172.8,102.168 C176.832,102.168 179.268,99.368 179.268,95.084 C179.268,91.976 177.28,89.036 174.172,89.036 C173.248,89.036 172.352,89.176 171.54,89.596 L172.352,84.192 Z M181.9,103.428 C181.676,103.876 181.592,104.156 181.592,104.464 C181.592,105.08 182.124,105.528 182.712,105.528 C183.44,105.528 183.748,105.024 184.028,104.492 L185.596,101.412 C185.82,100.964 185.904,100.684 185.904,100.376 C185.904,99.76 185.372,99.312 184.784,99.312 C184.056,99.312 183.748,99.816 183.468,100.348 L181.9,103.428 Z M193.072,99.872 L199.764,90.968 C201.052,89.288 201.136,88 201.136,86.852 C201.136,84.276 199.064,81.896 195.76,81.896 C191.644,81.896 189.404,84.836 189.404,88.14 C189.404,89.176 189.824,89.652 190.608,89.652 C191.14,89.652 191.7,89.4 191.7,88.532 C191.7,86.04 192.96,84.024 195.34,84.024 C197.132,84.024 198.504,85.312 198.504,87.132 C198.504,88.336 197.888,89.568 197.048,90.66 L190.16,99.872 C189.74,100.46 189.628,100.684 189.628,100.992 C189.628,101.412 189.936,102 190.972,102 L200.632,102 C201.22,102 201.696,101.524 201.696,100.936 C201.696,100.348 201.22,99.872 200.632,99.872 L193.072,99.872 Z M216.312,96.12 C216.312,93.852 215.136,91.948 212.896,91.276 C214.464,90.324 215.248,88.7 215.248,87.048 C215.248,84.248 213.26,81.896 210.068,81.896 C206.764,81.896 204.832,84.276 204.832,86.936 C204.832,87.58 205.252,88.084 205.952,88.084 C206.372,88.084 207.044,88.056 207.128,86.936 C207.268,85.424 207.996,84.024 209.956,84.024 C211.664,84.024 212.784,85.368 212.784,87.272 C212.784,89.092 211.972,90.044 209.984,90.492 C209.06,90.688 208.696,90.996 208.696,91.556 C208.696,92.2 209.228,92.62 210.208,92.62 C212.056,92.62 213.68,93.376 213.68,96.344 C213.68,98.388 212.112,100.04 209.9,100.04 C208.024,100.04 207.016,98.92 206.54,97.492 C206.26,96.624 205.896,96.204 205.168,96.204 C204.58,96.204 204.132,96.708 204.132,97.576 C204.132,99.06 205.812,102.168 209.956,102.168 C213.512,102.168 216.312,99.9 216.312,96.12 L216.312,96.12 Z M228.24,84.192 L228.24,84.248 L221.268,99.9 C220.96,100.628 220.876,101.02 220.876,101.216 C220.876,101.86 221.464,102.168 221.8,102.168 C222.332,102.168 222.948,102.056 223.284,101.272 L230.732,84.332 C231.04,83.632 231.208,83.24 231.208,82.848 C231.208,82.26 230.704,82.064 229.948,82.064 L219.84,82.064 C219.252,82.064 218.776,82.54 218.776,83.128 C218.776,83.716 219.252,84.192 219.84,84.192 L228.24,84.192 Z M232.916,103.428 C232.692,103.876 232.608,104.156 232.608,104.464 C232.608,105.08 233.14,105.528 233.728,105.528 C234.456,105.528 234.764,105.024 235.044,104.492 L236.612,101.412 C236.836,100.964 236.92,100.684 236.92,100.376 C236.92,99.76 236.388,99.312 235.8,99.312 C235.072,99.312 234.764,99.816 234.484,100.348 L232.916,103.428 Z M239.916,92.032 C239.916,98.444 242.856,102.168 246.496,102.168 C250.136,102.168 253.076,98.444 253.076,92.032 C253.076,85.62 250.136,81.896 246.496,81.896 C242.856,81.896 239.916,85.62 239.916,92.032 L239.916,92.032 Z M242.548,92.032 C242.548,86.46 244.312,84.024 246.496,84.024 C248.68,84.024 250.444,86.46 250.444,92.032 C250.444,97.604 248.68,100.04 246.496,100.04 C244.312,100.04 242.548,97.604 242.548,92.032 L242.548,92.032 Z" id="RGB:-255,237,0" fill="#575756"></path>
                <path d="M7.78,149.728 C4.056,149.728 0.836,152.164 0.836,156.084 C0.836,162.58 10.188,160.592 10.188,163.896 C10.188,165.268 9.18,166.304 7.332,166.304 C5.512,166.304 3.944,165.212 2.628,165.212 C1.48,165.212 0.752,166.108 0.752,167.2 C0.752,169.832 5.4,170.336 7.556,170.336 C11.42,170.336 14.724,167.844 14.724,163.84 C14.724,156.616 5.372,158.464 5.372,155.58 C5.372,154.404 6.464,153.76 7.668,153.76 C9.348,153.76 10.244,154.6 11.392,154.6 C12.54,154.6 13.268,153.62 13.268,152.528 C13.268,150.316 9.348,149.728 7.78,149.728 L7.78,149.728 Z M30.18,157.568 C30.18,156.532 30.18,154.936 28.248,154.936 C27.268,154.936 26.428,155.636 26.316,156.616 C25.42,155.356 23.964,154.768 22.48,154.768 C18.784,154.768 15.816,158.156 15.816,162.58 C15.816,167.116 18.7,170.336 22.48,170.336 C24.02,170.336 25.28,169.692 26.316,168.46 C26.596,169.524 27.072,170.168 28.248,170.168 C30.18,170.168 30.18,168.572 30.18,167.536 L30.18,157.568 Z M19.848,162.58 C19.848,160.648 20.828,158.464 23.04,158.464 C25.168,158.464 26.148,160.648 26.148,162.58 C26.148,164.512 25.14,166.64 23.04,166.64 C20.856,166.64 19.848,164.512 19.848,162.58 L19.848,162.58 Z M42.612,157.68 C42.612,155.692 39.56,154.768 37.572,154.768 C34.38,154.768 32.112,156.672 32.112,159.472 C32.112,164.092 39.112,163.812 39.112,165.66 C39.112,166.416 38.748,166.808 37.516,166.808 C35.612,166.808 34.912,165.436 33.344,165.436 C32.224,165.436 31.608,166.612 31.608,167.228 C31.608,169.048 34.968,170.336 37.236,170.336 C40.708,170.336 42.976,168.292 42.976,165.604 C42.976,161.012 35.976,161.292 35.976,159.416 C35.976,158.632 36.62,158.296 37.348,158.296 C38.664,158.296 40.204,159.472 40.96,159.472 C41.912,159.472 42.612,158.604 42.612,157.68 L42.612,157.68 Z M54.54,157.68 C54.54,155.692 51.488,154.768 49.5,154.768 C46.308,154.768 44.04,156.672 44.04,159.472 C44.04,164.092 51.04,163.812 51.04,165.66 C51.04,166.416 50.676,166.808 49.444,166.808 C47.54,166.808 46.84,165.436 45.272,165.436 C44.152,165.436 43.536,166.612 43.536,167.228 C43.536,169.048 46.896,170.336 49.164,170.336 C52.636,170.336 54.904,168.292 54.904,165.604 C54.904,161.012 47.904,161.292 47.904,159.416 C47.904,158.632 48.548,158.296 49.276,158.296 C50.592,158.296 52.132,159.472 52.888,159.472 C53.84,159.472 54.54,158.604 54.54,157.68 L54.54,157.68 Z M56.752,159.164 C56.752,160.368 57.732,161.348 58.936,161.348 C60.14,161.348 61.12,160.368 61.12,159.164 C61.12,157.96 60.14,156.98 58.936,156.98 C57.732,156.98 56.752,157.96 56.752,159.164 L56.752,159.164 Z M56.752,168.152 C56.752,169.356 57.732,170.336 58.936,170.336 C60.14,170.336 61.12,169.356 61.12,168.152 C61.12,166.948 60.14,165.968 58.936,165.968 C57.732,165.968 56.752,166.948 56.752,168.152 L56.752,168.152 Z M76.296,157.708 C74.756,157.12 73.608,156.392 73.608,154.852 C73.608,153.312 74.728,152.22 76.296,152.024 L76.296,157.708 Z M76.296,168.04 C73.804,168.04 72.796,166.5 71.76,166.5 C71.116,166.5 70.78,167.088 70.78,167.676 C70.78,168.88 73.44,170.168 76.296,170.168 L76.296,171.484 C76.296,171.82 76.52,172.072 76.884,172.072 C77.248,172.072 77.472,171.82 77.472,171.484 L77.472,170.056 C81.084,169.608 83.072,166.864 83.072,163.868 C83.072,160.088 80.076,159.08 77.472,158.156 L77.472,152.024 C79.32,152.304 79.712,153.312 80.692,153.312 C81.308,153.312 81.756,152.808 81.756,152.22 C81.756,151.044 79.712,150.064 77.472,149.896 L77.472,148.58 C77.472,148.244 77.248,147.992 76.884,147.992 C76.52,147.992 76.296,148.244 76.296,148.58 L76.296,149.896 C72.936,150.204 70.976,152.808 70.976,155.02 C70.976,158.52 73.748,159.416 76.296,160.284 L76.296,168.04 Z M77.472,160.704 C79.096,161.32 80.44,162.132 80.44,163.98 C80.44,165.968 79.348,167.508 77.472,167.9 L77.472,160.704 Z M84.64,162.552 C84.64,166.5 86.824,170.168 91.36,170.168 C93.908,170.168 95.28,169.16 95.28,168.236 C95.28,167.564 94.888,167.2 94.328,167.2 C93.544,167.2 93.096,168.04 91.36,168.04 C88.308,168.04 87.104,165.072 87.104,162.552 C87.104,160.032 88.308,157.064 91.36,157.064 C93.04,157.064 93.404,157.848 94.356,157.848 C94.944,157.848 95.364,157.316 95.364,156.812 C95.364,155.804 93.88,154.936 91.36,154.936 C86.824,154.936 84.64,158.604 84.64,162.552 L84.64,162.552 Z M97.072,162.552 C97.072,166.5 99.424,170.168 103.624,170.168 C107.824,170.168 110.176,166.5 110.176,162.552 C110.176,158.604 107.824,154.936 103.624,154.936 C99.424,154.936 97.072,158.604 97.072,162.552 L97.072,162.552 Z M99.536,162.552 C99.536,160.032 100.6,157.064 103.624,157.064 C106.648,157.064 107.712,160.032 107.712,162.552 C107.712,165.072 106.648,168.04 103.624,168.04 C100.6,168.04 99.536,165.072 99.536,162.552 L99.536,162.552 Z M115.244,149.7 C115.244,148.888 114.768,148.384 114.012,148.384 C113.256,148.384 112.78,148.888 112.78,149.7 L112.78,168.852 C112.78,169.664 113.256,170.168 114.012,170.168 C114.768,170.168 115.244,169.664 115.244,168.852 L115.244,149.7 Z M117.848,162.552 C117.848,166.5 120.2,170.168 124.4,170.168 C128.6,170.168 130.952,166.5 130.952,162.552 C130.952,158.604 128.6,154.936 124.4,154.936 C120.2,154.936 117.848,158.604 117.848,162.552 L117.848,162.552 Z M120.312,162.552 C120.312,160.032 121.376,157.064 124.4,157.064 C127.424,157.064 128.488,160.032 128.488,162.552 C128.488,165.072 127.424,168.04 124.4,168.04 C121.376,168.04 120.312,165.072 120.312,162.552 L120.312,162.552 Z M133.556,168.852 C133.556,169.664 134.032,170.168 134.788,170.168 C135.544,170.168 136.02,169.664 136.02,168.852 L136.02,161.768 C136.02,158.884 137.812,157.792 139.268,157.54 C140.304,157.344 140.808,156.896 140.808,156.196 C140.808,155.496 140.304,154.936 139.436,154.936 C138.008,154.936 136.636,156.364 136.076,157.512 L136.02,157.512 L136.02,156.252 C136.02,155.44 135.544,154.936 134.788,154.936 C134.032,154.936 133.556,155.44 133.556,156.252 L133.556,168.852 Z M148.564,163.56 C149.152,163.56 149.628,163.084 149.628,162.496 C149.628,161.908 149.152,161.432 148.564,161.432 L142.796,161.432 C142.208,161.432 141.732,161.908 141.732,162.496 C141.732,163.084 142.208,163.56 142.796,163.56 L148.564,163.56 Z M151.896,159.136 C151.896,163.28 159.848,163.112 159.848,166.024 C159.848,167.032 158.756,168.04 156.964,168.04 C154.276,168.04 153.38,166.22 152.288,166.22 C151.756,166.22 151.28,166.668 151.28,167.34 C151.28,168.6 153.744,170.168 156.88,170.168 C159.652,170.168 162.312,168.684 162.312,165.576 C162.312,161.264 154.36,161.544 154.36,158.94 C154.36,157.68 155.564,157.064 156.964,157.064 C159.316,157.064 159.736,158.576 160.8,158.576 C161.556,158.576 161.92,158.1 161.92,157.568 C161.92,156.028 159.008,154.936 156.964,154.936 C154.472,154.936 151.896,156.392 151.896,159.136 L151.896,159.136 Z M164.664,164.232 C164.664,168.6 167.576,170.168 170.572,170.168 C173.568,170.168 176.48,168.6 176.48,164.232 L176.48,156.252 C176.48,155.44 176.004,154.936 175.248,154.936 C174.492,154.936 174.016,155.44 174.016,156.252 L174.016,164.148 C174.016,166.696 172.896,168.04 170.572,168.04 C168.248,168.04 167.128,166.696 167.128,164.148 L167.128,156.252 C167.128,155.44 166.652,154.936 165.896,154.936 C165.14,154.936 164.664,155.44 164.664,156.252 L164.664,164.232 Z M179.728,168.852 C179.728,169.664 180.204,170.168 180.96,170.168 C181.716,170.168 182.192,169.664 182.192,168.852 L182.192,160.732 C182.192,158.128 184.012,157.064 185.636,157.064 C187.26,157.064 189.08,158.128 189.08,160.732 L189.08,168.852 C189.08,169.664 189.556,170.168 190.312,170.168 C191.068,170.168 191.544,169.664 191.544,168.852 L191.544,160.592 C191.544,156.392 188.66,154.936 186.364,154.936 C184.88,154.936 183.34,155.496 182.248,156.896 L182.192,156.84 L182.192,156.252 C182.192,155.44 181.716,154.936 180.96,154.936 C180.204,154.936 179.728,155.44 179.728,156.252 L179.728,168.852 Z M194.456,159.136 C194.456,163.28 202.408,163.112 202.408,166.024 C202.408,167.032 201.316,168.04 199.524,168.04 C196.836,168.04 195.94,166.22 194.848,166.22 C194.316,166.22 193.84,166.668 193.84,167.34 C193.84,168.6 196.304,170.168 199.44,170.168 C202.212,170.168 204.872,168.684 204.872,165.576 C204.872,161.264 196.92,161.544 196.92,158.94 C196.92,157.68 198.124,157.064 199.524,157.064 C201.876,157.064 202.296,158.576 203.36,158.576 C204.116,158.576 204.48,158.1 204.48,157.568 C204.48,156.028 201.568,154.936 199.524,154.936 C197.032,154.936 194.456,156.392 194.456,159.136 L194.456,159.136 Z M216.576,168.852 C216.576,169.664 217.052,170.168 217.808,170.168 C218.564,170.168 219.04,169.664 219.04,168.852 L219.04,160.592 C219.04,156.392 216.156,154.936 213.86,154.936 C212.376,154.936 210.836,155.496 209.744,156.896 L209.688,156.84 L209.688,149.7 C209.688,148.888 209.212,148.384 208.456,148.384 C207.7,148.384 207.224,148.888 207.224,149.7 L207.224,168.852 C207.224,169.664 207.7,170.168 208.456,170.168 C209.212,170.168 209.688,169.664 209.688,168.852 L209.688,160.732 C209.688,158.128 211.508,157.064 213.132,157.064 C214.756,157.064 216.576,158.128 216.576,160.732 L216.576,168.852 Z M224.752,156.252 C224.752,155.44 224.276,154.936 223.52,154.936 C222.764,154.936 222.288,155.44 222.288,156.252 L222.288,168.852 C222.288,169.664 222.764,170.168 223.52,170.168 C224.276,170.168 224.752,169.664 224.752,168.852 L224.752,156.252 Z M222.008,151.408 C222.008,152.248 222.68,152.92 223.52,152.92 C224.36,152.92 225.032,152.248 225.032,151.408 C225.032,150.568 224.36,149.896 223.52,149.896 C222.68,149.896 222.008,150.568 222.008,151.408 L222.008,151.408 Z M228,168.852 C228,169.664 228.476,170.168 229.232,170.168 C229.988,170.168 230.464,169.664 230.464,168.852 L230.464,160.732 C230.464,158.128 232.284,157.064 233.908,157.064 C235.532,157.064 237.352,158.128 237.352,160.732 L237.352,168.852 C237.352,169.664 237.828,170.168 238.584,170.168 C239.34,170.168 239.816,169.664 239.816,168.852 L239.816,160.592 C239.816,156.392 236.932,154.936 234.636,154.936 C233.152,154.936 231.612,155.496 230.52,156.896 L230.464,156.84 L230.464,156.252 C230.464,155.44 229.988,154.936 229.232,154.936 C228.476,154.936 228,155.44 228,156.252 L228,168.852 Z M253.9,163.504 C254.964,163.504 255.272,163.056 255.272,162.188 C255.272,158.604 252.92,154.936 248.86,154.936 C244.688,154.936 242.168,158.52 242.168,162.552 C242.168,166.5 244.24,170.168 249,170.168 C251.912,170.168 254.964,168.32 254.964,167.116 C254.964,166.416 254.516,166.024 254.068,166.024 C253.144,166.024 252.304,168.04 249.028,168.04 C246.256,168.04 244.632,166.052 244.632,163.504 L253.9,163.504 Z M244.632,161.656 C244.716,159.388 245.808,156.952 248.86,157.064 C251.576,157.064 252.808,159.528 252.808,161.656 L244.632,161.656 Z" id="Sass:-$color-sunshin" fill="#575756" transform="translate(128.376000, 160.032000) rotate(-10.000000) translate(-128.376000, -160.032000) "></path>
            </g>
        </g>
    </g>
</svg>