<?xml version="1.0" encoding="UTF-8" standalone="no"?>
<svg width="388px" height="185px" viewBox="0 0 388 185" version="1.1" xmlns="http://www.w3.org/2000/svg" xmlns:xlink="http://www.w3.org/1999/xlink">
    <!-- Generator: Sketch 39.1 (31720) - http://www.bohemiancoding.com/sketch -->
    <title>colour-sky-values</title>
    <desc>Created with Sketch.</desc>
    <defs></defs>
    <g id="Templates" stroke="none" stroke-width="1" fill="none" fill-rule="evenodd">
        <g id="6-colour-brand" transform="translate(-422.000000, -2233.000000)">
            <g id="colour-sky-values" transform="translate(421.000000, 2231.000000)">
                <circle id="colour-brand-circle-sky" fill="#009FE3" cx="299" cy="94" r="90"></circle>
                <path d="M30.652,33.984 C30.652,35.384 31.548,36.168 32.752,36.168 C33.956,36.168 34.852,35.384 34.852,33.984 L34.852,27.88 L43.644,27.88 L43.644,33.984 C43.644,35.384 44.54,36.168 45.744,36.168 C46.948,36.168 47.844,35.384 47.844,33.984 L47.844,18.08 C47.844,16.68 46.948,15.896 45.744,15.896 C44.54,15.896 43.644,16.68 43.644,18.08 L43.644,24.016 L34.852,24.016 L34.852,18.08 C34.852,16.68 33.956,15.896 32.752,15.896 C31.548,15.896 30.652,16.68 30.652,18.08 L30.652,33.984 Z M62.096,29.896 C63.328,29.896 63.86,29.308 63.86,28.104 C63.86,24.744 60.976,20.768 56.608,20.768 C52.352,20.768 49.384,24.492 49.384,28.58 C49.384,33.032 52.408,36.336 56.944,36.336 C59.94,36.336 63.524,34.656 63.524,32.92 C63.524,32.052 62.74,31.184 61.872,31.184 C60.808,31.184 59.38,32.808 57.308,32.808 C55.432,32.808 53.78,31.884 53.5,29.896 L62.096,29.896 Z M53.416,27.208 C53.612,25.5 54.816,24.128 56.608,24.128 C58.484,24.128 59.604,25.444 59.828,27.208 L53.416,27.208 Z M64.7,32.836 C64.392,33.172 64.14,33.76 64.14,34.208 C64.14,35.384 64.952,36.168 66.128,36.168 C67.024,36.168 67.388,35.776 67.808,35.272 L71.14,31.184 L74.472,35.272 C74.892,35.776 75.256,36.168 76.152,36.168 C77.328,36.168 78.14,35.384 78.14,34.208 C78.14,33.76 77.888,33.172 77.58,32.836 L73.492,28.188 L76.908,24.352 C77.244,23.96 77.524,23.4 77.524,22.896 C77.524,21.832 76.488,20.936 75.452,20.936 C74.808,20.936 74.388,21.216 73.968,21.72 L71.14,25.248 L68.312,21.72 C67.892,21.216 67.472,20.936 66.828,20.936 C65.792,20.936 64.756,21.832 64.756,22.896 C64.756,23.4 65.036,23.96 65.372,24.352 L68.788,28.188 L64.7,32.836 Z M79.708,25.164 C79.708,26.368 80.688,27.348 81.892,27.348 C83.096,27.348 84.076,26.368 84.076,25.164 C84.076,23.96 83.096,22.98 81.892,22.98 C80.688,22.98 79.708,23.96 79.708,25.164 L79.708,25.164 Z M79.708,34.152 C79.708,35.356 80.688,36.336 81.892,36.336 C83.096,36.336 84.076,35.356 84.076,34.152 C84.076,32.948 83.096,31.968 81.892,31.968 C80.688,31.968 79.708,32.948 79.708,34.152 L79.708,34.152 Z M103.816,29.952 L105.776,29.952 C106.42,29.952 106.924,29.644 106.924,29.028 C106.924,28.412 106.42,28.104 105.776,28.104 L104.068,28.104 L104.656,23.96 L106.616,23.96 C107.26,23.96 107.764,23.68 107.764,23.036 C107.764,22.42 107.26,22.112 106.616,22.112 L104.908,22.112 L105.468,18.024 C105.552,17.492 105.608,17.156 105.608,16.848 C105.608,16.344 105.328,15.896 104.656,15.896 C103.928,15.896 103.676,16.26 103.592,16.904 L102.864,22.112 L99.532,22.112 L100.092,18.024 C100.176,17.492 100.232,17.156 100.232,16.848 C100.232,16.344 99.952,15.896 99.28,15.896 C98.552,15.896 98.3,16.26 98.216,16.904 L97.488,22.112 L95.528,22.112 C94.884,22.112 94.38,22.42 94.38,23.036 C94.38,23.652 94.884,23.96 95.528,23.96 L97.236,23.96 L96.648,28.104 L94.688,28.104 C94.044,28.104 93.54,28.384 93.54,29.028 C93.54,29.644 94.044,29.952 94.688,29.952 L96.396,29.952 L95.836,34.04 C95.752,34.572 95.696,34.908 95.696,35.216 C95.696,35.72 95.976,36.168 96.648,36.168 C97.376,36.168 97.628,35.804 97.712,35.16 L98.44,29.952 L101.772,29.952 L101.212,34.04 C101.128,34.572 101.072,34.908 101.072,35.216 C101.072,35.72 101.352,36.168 102.024,36.168 C102.752,36.168 103.004,35.804 103.088,35.16 L103.816,29.952 Z M102.024,28.104 L98.692,28.104 L99.28,23.96 L102.612,23.96 L102.024,28.104 Z M109.08,26.032 C109.08,32.444 112.02,36.168 115.66,36.168 C119.3,36.168 122.24,32.444 122.24,26.032 C122.24,19.62 119.3,15.896 115.66,15.896 C112.02,15.896 109.08,19.62 109.08,26.032 L109.08,26.032 Z M111.712,26.032 C111.712,20.46 113.476,18.024 115.66,18.024 C117.844,18.024 119.608,20.46 119.608,26.032 C119.608,31.604 117.844,34.04 115.66,34.04 C113.476,34.04 111.712,31.604 111.712,26.032 L111.712,26.032 Z M124.088,26.032 C124.088,32.444 127.028,36.168 130.668,36.168 C134.308,36.168 137.248,32.444 137.248,26.032 C137.248,19.62 134.308,15.896 130.668,15.896 C127.028,15.896 124.088,19.62 124.088,26.032 L124.088,26.032 Z M126.72,26.032 C126.72,20.46 128.484,18.024 130.668,18.024 C132.852,18.024 134.616,20.46 134.616,26.032 C134.616,31.604 132.852,34.04 130.668,34.04 C128.484,34.04 126.72,31.604 126.72,26.032 L126.72,26.032 Z M145.732,15.896 C142.204,15.896 139.628,18.78 139.628,22.392 C139.628,25.864 141.42,28.944 144.668,28.944 C146.012,28.944 146.908,28.636 147.832,28.16 L147.888,28.16 C146.376,30.932 145.2,32.276 143.604,33.704 C142.904,34.32 142.624,34.628 142.624,35.02 C142.624,35.776 143.24,36.168 143.632,36.168 C143.968,36.168 144.276,36.028 144.78,35.608 C147.804,33.06 151.724,28.58 151.724,22.756 C151.724,18.78 149.204,15.896 145.732,15.896 L145.732,15.896 Z M149.26,22.504 C149.26,24.8 148.196,26.816 145.76,26.816 C143.324,26.816 142.26,25.136 142.26,22.504 C142.26,20.18 143.324,18.192 145.76,18.192 C148.196,18.192 149.26,20.18 149.26,22.504 L149.26,22.504 Z M158.052,23.232 L159.592,23.232 C160.404,23.232 160.824,22.84 160.824,22.168 C160.824,21.496 160.404,21.104 159.592,21.104 L158.052,21.104 L158.052,17.492 C158.052,16.876 158.304,16.512 159.06,16.512 L159.676,16.512 C160.6,16.512 161.02,16.12 161.02,15.448 C161.02,14.776 160.264,14.384 159.62,14.384 L158.864,14.384 C157.072,14.384 155.588,15.448 155.588,17.604 L155.588,21.104 L154.58,21.104 C153.768,21.104 153.348,21.496 153.348,22.168 C153.348,22.84 153.768,23.232 154.58,23.232 L155.588,23.232 L155.588,34.852 C155.588,35.664 156.064,36.168 156.82,36.168 C157.576,36.168 158.052,35.664 158.052,34.852 L158.052,23.232 Z M172.892,29.504 C173.956,29.504 174.264,29.056 174.264,28.188 C174.264,24.604 171.912,20.936 167.852,20.936 C163.68,20.936 161.16,24.52 161.16,28.552 C161.16,32.5 163.232,36.168 167.992,36.168 C170.904,36.168 173.956,34.32 173.956,33.116 C173.956,32.416 173.508,32.024 173.06,32.024 C172.136,32.024 171.296,34.04 168.02,34.04 C165.248,34.04 163.624,32.052 163.624,29.504 L172.892,29.504 Z M163.624,27.656 C163.708,25.388 164.8,22.952 167.852,23.064 C170.568,23.064 171.8,25.528 171.8,27.656 L163.624,27.656 Z M188.32,30.12 C188.32,27.852 187.144,25.948 184.904,25.276 C186.472,24.324 187.256,22.7 187.256,21.048 C187.256,18.248 185.268,15.896 182.076,15.896 C178.772,15.896 176.84,18.276 176.84,20.936 C176.84,21.58 177.26,22.084 177.96,22.084 C178.38,22.084 179.052,22.056 179.136,20.936 C179.276,19.424 180.004,18.024 181.964,18.024 C183.672,18.024 184.792,19.368 184.792,21.272 C184.792,23.092 183.98,24.044 181.992,24.492 C181.068,24.688 180.704,24.996 180.704,25.556 C180.704,26.2 181.236,26.62 182.216,26.62 C184.064,26.62 185.688,27.376 185.688,30.344 C185.688,32.388 184.12,34.04 181.908,34.04 C180.032,34.04 179.024,32.92 178.548,31.492 C178.268,30.624 177.904,30.204 177.176,30.204 C176.588,30.204 176.14,30.708 176.14,31.576 C176.14,33.06 177.82,36.168 181.964,36.168 C185.52,36.168 188.32,33.9 188.32,30.12 L188.32,30.12 Z" id="Hex:-#009fe3" fill="#575756" transform="translate(110.326000, 25.360000) rotate(10.000000) translate(-110.326000, -25.360000) "></path>
                <path d="M9.004,101.984 C9.004,103.384 9.9,104.168 11.104,104.168 C12.308,104.168 13.204,103.384 13.204,101.984 L13.204,95.908 L13.26,95.908 L19.476,103.44 C19.924,103.972 20.596,104.168 21.1,104.168 C22.332,104.168 23.2,103.104 23.2,102.012 C23.2,101.62 23.032,101.2 22.64,100.78 L17.88,95.684 C20.736,95.236 23.06,93.472 23.06,90.392 C23.06,85.996 20.4,84.064 16.088,84.064 L11.16,84.064 C9.76,84.064 9.004,84.904 9.004,86.248 L9.004,101.984 Z M13.204,87.928 L16.088,87.928 C17.628,87.928 18.692,88.796 18.692,90.392 C18.692,91.96 17.628,92.884 16.088,92.884 L13.204,92.884 L13.204,87.928 Z M35.324,92.184 C34.26,92.184 33.364,92.912 33.364,94.088 C33.364,95.236 34.176,96.048 35.324,96.048 L38.18,96.048 C38.18,99.24 35.632,100.472 33.42,100.472 C29.864,100.472 28.156,97.448 28.156,94.032 C28.156,90.644 29.92,87.592 33.42,87.592 C37.088,87.592 37.48,89.636 39.384,89.636 C40.364,89.636 41.12,88.88 41.12,87.676 C41.12,85.716 37.648,83.728 33.42,83.728 C27.708,83.728 23.788,88.208 23.788,94.032 C23.788,99.828 27.736,104.336 33.42,104.336 C39.02,104.336 42.548,100.276 42.548,94.872 C42.548,93.08 41.848,92.184 40.084,92.184 L35.324,92.184 Z M44.284,101.872 C44.284,103.188 45.236,104 46.524,104 L52.292,104 C56.156,104 58.788,101.872 58.788,97.924 C58.788,95.488 56.912,93.5 54.532,93.164 L54.532,93.108 C56.324,92.268 57.136,90.952 57.136,88.992 C57.136,86.024 54.784,84.064 51.872,84.064 L46.496,84.064 C45.208,84.064 44.284,84.82 44.284,86.164 L44.284,101.872 Z M48.484,87.76 L50.668,87.76 C51.9,87.76 52.936,88.432 52.936,89.748 C52.936,91.148 52.04,91.96 50.668,91.96 L48.484,91.96 L48.484,87.76 Z M48.484,95.656 L51.452,95.656 C53.412,95.656 54.42,96.552 54.42,97.868 C54.42,99.436 53.3,100.304 51.788,100.304 L48.484,100.304 L48.484,95.656 Z M60.664,93.164 C60.664,94.368 61.644,95.348 62.848,95.348 C64.052,95.348 65.032,94.368 65.032,93.164 C65.032,91.96 64.052,90.98 62.848,90.98 C61.644,90.98 60.664,91.96 60.664,93.164 L60.664,93.164 Z M60.664,102.152 C60.664,103.356 61.644,104.336 62.848,104.336 C64.052,104.336 65.032,103.356 65.032,102.152 C65.032,100.948 64.052,99.968 62.848,99.968 C61.644,99.968 60.664,100.948 60.664,102.152 L60.664,102.152 Z M75.028,94.032 C75.028,100.444 77.968,104.168 81.608,104.168 C85.248,104.168 88.188,100.444 88.188,94.032 C88.188,87.62 85.248,83.896 81.608,83.896 C77.968,83.896 75.028,87.62 75.028,94.032 L75.028,94.032 Z M77.66,94.032 C77.66,88.46 79.424,86.024 81.608,86.024 C83.792,86.024 85.556,88.46 85.556,94.032 C85.556,99.604 83.792,102.04 81.608,102.04 C79.424,102.04 77.66,99.604 77.66,94.032 L77.66,94.032 Z M90.036,105.428 C89.812,105.876 89.728,106.156 89.728,106.464 C89.728,107.08 90.26,107.528 90.848,107.528 C91.576,107.528 91.884,107.024 92.164,106.492 L93.732,103.412 C93.956,102.964 94.04,102.684 94.04,102.376 C94.04,101.76 93.508,101.312 92.92,101.312 C92.192,101.312 91.884,101.816 91.604,102.348 L90.036,105.428 Z M100.704,102.852 C100.704,103.664 101.18,104.168 101.936,104.168 C102.692,104.168 103.168,103.664 103.168,102.852 L103.168,84.736 C103.168,84.12 102.888,84.064 102.412,84.064 L98.128,84.064 C97.54,84.064 97.064,84.54 97.064,85.128 C97.064,85.716 97.54,86.192 98.128,86.192 L100.704,86.192 L100.704,102.852 Z M112.352,86.192 L118.036,86.192 C118.624,86.192 119.1,85.716 119.1,85.128 C119.1,84.54 118.624,84.064 118.036,84.064 L111.12,84.064 C110.532,84.064 110.28,84.204 110.196,84.708 L109.16,91.68 C109.076,92.296 108.964,93.024 108.964,93.332 C108.964,93.724 109.216,94.088 109.804,94.088 C110.504,94.088 111.372,93.332 113.192,93.332 C115.6,93.332 116.636,95.208 116.636,97.56 C116.636,99.884 115.208,101.872 112.828,101.872 C110,101.872 109.104,99.8 108.096,99.8 C107.48,99.8 107.2,100.36 107.2,100.864 C107.2,102.068 109.496,104.168 112.8,104.168 C116.832,104.168 119.268,101.368 119.268,97.084 C119.268,93.976 117.28,91.036 114.172,91.036 C113.248,91.036 112.352,91.176 111.54,91.596 L112.352,86.192 Z M128.536,83.896 C125.008,83.896 122.432,86.78 122.432,90.392 C122.432,93.864 124.224,96.944 127.472,96.944 C128.816,96.944 129.712,96.636 130.636,96.16 L130.692,96.16 C129.18,98.932 128.004,100.276 126.408,101.704 C125.708,102.32 125.428,102.628 125.428,103.02 C125.428,103.776 126.044,104.168 126.436,104.168 C126.772,104.168 127.08,104.028 127.584,103.608 C130.608,101.06 134.528,96.58 134.528,90.756 C134.528,86.78 132.008,83.896 128.536,83.896 L128.536,83.896 Z M132.064,90.504 C132.064,92.8 131,94.816 128.564,94.816 C126.128,94.816 125.064,93.136 125.064,90.504 C125.064,88.18 126.128,86.192 128.564,86.192 C131,86.192 132.064,88.18 132.064,90.504 L132.064,90.504 Z M136.908,105.428 C136.684,105.876 136.6,106.156 136.6,106.464 C136.6,107.08 137.132,107.528 137.72,107.528 C138.448,107.528 138.756,107.024 139.036,106.492 L140.604,103.412 C140.828,102.964 140.912,102.684 140.912,102.376 C140.912,101.76 140.38,101.312 139.792,101.312 C139.064,101.312 138.756,101.816 138.476,102.348 L136.908,105.428 Z M148.08,101.872 L154.772,92.968 C156.06,91.288 156.144,90 156.144,88.852 C156.144,86.276 154.072,83.896 150.768,83.896 C146.652,83.896 144.412,86.836 144.412,90.14 C144.412,91.176 144.832,91.652 145.616,91.652 C146.148,91.652 146.708,91.4 146.708,90.532 C146.708,88.04 147.968,86.024 150.348,86.024 C152.14,86.024 153.512,87.312 153.512,89.132 C153.512,90.336 152.896,91.568 152.056,92.66 L145.168,101.872 C144.748,102.46 144.636,102.684 144.636,102.992 C144.636,103.412 144.944,104 145.98,104 L155.64,104 C156.228,104 156.704,103.524 156.704,102.936 C156.704,102.348 156.228,101.872 155.64,101.872 L148.08,101.872 Z M163.088,101.872 L169.78,92.968 C171.068,91.288 171.152,90 171.152,88.852 C171.152,86.276 169.08,83.896 165.776,83.896 C161.66,83.896 159.42,86.836 159.42,90.14 C159.42,91.176 159.84,91.652 160.624,91.652 C161.156,91.652 161.716,91.4 161.716,90.532 C161.716,88.04 162.976,86.024 165.356,86.024 C167.148,86.024 168.52,87.312 168.52,89.132 C168.52,90.336 167.904,91.568 167.064,92.66 L160.176,101.872 C159.756,102.46 159.644,102.684 159.644,102.992 C159.644,103.412 159.952,104 160.988,104 L170.648,104 C171.236,104 171.712,103.524 171.712,102.936 C171.712,102.348 171.236,101.872 170.648,101.872 L163.088,101.872 Z M183.248,86.192 L183.248,86.248 L176.276,101.9 C175.968,102.628 175.884,103.02 175.884,103.216 C175.884,103.86 176.472,104.168 176.808,104.168 C177.34,104.168 177.956,104.056 178.292,103.272 L185.74,86.332 C186.048,85.632 186.216,85.24 186.216,84.848 C186.216,84.26 185.712,84.064 184.956,84.064 L174.848,84.064 C174.26,84.064 173.784,84.54 173.784,85.128 C173.784,85.716 174.26,86.192 174.848,86.192 L183.248,86.192 Z" id="RGB:-0,159,227" fill="#575756"></path>
                <path d="M8.344,150.728 C4.62,150.728 1.4,153.164 1.4,157.084 C1.4,163.58 10.752,161.592 10.752,164.896 C10.752,166.268 9.744,167.304 7.896,167.304 C6.076,167.304 4.508,166.212 3.192,166.212 C2.044,166.212 1.316,167.108 1.316,168.2 C1.316,170.832 5.964,171.336 8.12,171.336 C11.984,171.336 15.288,168.844 15.288,164.84 C15.288,157.616 5.936,159.464 5.936,156.58 C5.936,155.404 7.028,154.76 8.232,154.76 C9.912,154.76 10.808,155.6 11.956,155.6 C13.104,155.6 13.832,154.62 13.832,153.528 C13.832,151.316 9.912,150.728 8.344,150.728 L8.344,150.728 Z M30.744,158.568 C30.744,157.532 30.744,155.936 28.812,155.936 C27.832,155.936 26.992,156.636 26.88,157.616 C25.984,156.356 24.528,155.768 23.044,155.768 C19.348,155.768 16.38,159.156 16.38,163.58 C16.38,168.116 19.264,171.336 23.044,171.336 C24.584,171.336 25.844,170.692 26.88,169.46 C27.16,170.524 27.636,171.168 28.812,171.168 C30.744,171.168 30.744,169.572 30.744,168.536 L30.744,158.568 Z M20.412,163.58 C20.412,161.648 21.392,159.464 23.604,159.464 C25.732,159.464 26.712,161.648 26.712,163.58 C26.712,165.512 25.704,167.64 23.604,167.64 C21.42,167.64 20.412,165.512 20.412,163.58 L20.412,163.58 Z M43.176,158.68 C43.176,156.692 40.124,155.768 38.136,155.768 C34.944,155.768 32.676,157.672 32.676,160.472 C32.676,165.092 39.676,164.812 39.676,166.66 C39.676,167.416 39.312,167.808 38.08,167.808 C36.176,167.808 35.476,166.436 33.908,166.436 C32.788,166.436 32.172,167.612 32.172,168.228 C32.172,170.048 35.532,171.336 37.8,171.336 C41.272,171.336 43.54,169.292 43.54,166.604 C43.54,162.012 36.54,162.292 36.54,160.416 C36.54,159.632 37.184,159.296 37.912,159.296 C39.228,159.296 40.768,160.472 41.524,160.472 C42.476,160.472 43.176,159.604 43.176,158.68 L43.176,158.68 Z M55.104,158.68 C55.104,156.692 52.052,155.768 50.064,155.768 C46.872,155.768 44.604,157.672 44.604,160.472 C44.604,165.092 51.604,164.812 51.604,166.66 C51.604,167.416 51.24,167.808 50.008,167.808 C48.104,167.808 47.404,166.436 45.836,166.436 C44.716,166.436 44.1,167.612 44.1,168.228 C44.1,170.048 47.46,171.336 49.728,171.336 C53.2,171.336 55.468,169.292 55.468,166.604 C55.468,162.012 48.468,162.292 48.468,160.416 C48.468,159.632 49.112,159.296 49.84,159.296 C51.156,159.296 52.696,160.472 53.452,160.472 C54.404,160.472 55.104,159.604 55.104,158.68 L55.104,158.68 Z M57.316,160.164 C57.316,161.368 58.296,162.348 59.5,162.348 C60.704,162.348 61.684,161.368 61.684,160.164 C61.684,158.96 60.704,157.98 59.5,157.98 C58.296,157.98 57.316,158.96 57.316,160.164 L57.316,160.164 Z M57.316,169.152 C57.316,170.356 58.296,171.336 59.5,171.336 C60.704,171.336 61.684,170.356 61.684,169.152 C61.684,167.948 60.704,166.968 59.5,166.968 C58.296,166.968 57.316,167.948 57.316,169.152 L57.316,169.152 Z M76.86,158.708 C75.32,158.12 74.172,157.392 74.172,155.852 C74.172,154.312 75.292,153.22 76.86,153.024 L76.86,158.708 Z M76.86,169.04 C74.368,169.04 73.36,167.5 72.324,167.5 C71.68,167.5 71.344,168.088 71.344,168.676 C71.344,169.88 74.004,171.168 76.86,171.168 L76.86,172.484 C76.86,172.82 77.084,173.072 77.448,173.072 C77.812,173.072 78.036,172.82 78.036,172.484 L78.036,171.056 C81.648,170.608 83.636,167.864 83.636,164.868 C83.636,161.088 80.64,160.08 78.036,159.156 L78.036,153.024 C79.884,153.304 80.276,154.312 81.256,154.312 C81.872,154.312 82.32,153.808 82.32,153.22 C82.32,152.044 80.276,151.064 78.036,150.896 L78.036,149.58 C78.036,149.244 77.812,148.992 77.448,148.992 C77.084,148.992 76.86,149.244 76.86,149.58 L76.86,150.896 C73.5,151.204 71.54,153.808 71.54,156.02 C71.54,159.52 74.312,160.416 76.86,161.284 L76.86,169.04 Z M78.036,161.704 C79.66,162.32 81.004,163.132 81.004,164.98 C81.004,166.968 79.912,168.508 78.036,168.9 L78.036,161.704 Z M85.204,163.552 C85.204,167.5 87.388,171.168 91.924,171.168 C94.472,171.168 95.844,170.16 95.844,169.236 C95.844,168.564 95.452,168.2 94.892,168.2 C94.108,168.2 93.66,169.04 91.924,169.04 C88.872,169.04 87.668,166.072 87.668,163.552 C87.668,161.032 88.872,158.064 91.924,158.064 C93.604,158.064 93.968,158.848 94.92,158.848 C95.508,158.848 95.928,158.316 95.928,157.812 C95.928,156.804 94.444,155.936 91.924,155.936 C87.388,155.936 85.204,159.604 85.204,163.552 L85.204,163.552 Z M97.636,163.552 C97.636,167.5 99.988,171.168 104.188,171.168 C108.388,171.168 110.74,167.5 110.74,163.552 C110.74,159.604 108.388,155.936 104.188,155.936 C99.988,155.936 97.636,159.604 97.636,163.552 L97.636,163.552 Z M100.1,163.552 C100.1,161.032 101.164,158.064 104.188,158.064 C107.212,158.064 108.276,161.032 108.276,163.552 C108.276,166.072 107.212,169.04 104.188,169.04 C101.164,169.04 100.1,166.072 100.1,163.552 L100.1,163.552 Z M115.808,150.7 C115.808,149.888 115.332,149.384 114.576,149.384 C113.82,149.384 113.344,149.888 113.344,150.7 L113.344,169.852 C113.344,170.664 113.82,171.168 114.576,171.168 C115.332,171.168 115.808,170.664 115.808,169.852 L115.808,150.7 Z M118.412,163.552 C118.412,167.5 120.764,171.168 124.964,171.168 C129.164,171.168 131.516,167.5 131.516,163.552 C131.516,159.604 129.164,155.936 124.964,155.936 C120.764,155.936 118.412,159.604 118.412,163.552 L118.412,163.552 Z M120.876,163.552 C120.876,161.032 121.94,158.064 124.964,158.064 C127.988,158.064 129.052,161.032 129.052,163.552 C129.052,166.072 127.988,169.04 124.964,169.04 C121.94,169.04 120.876,166.072 120.876,163.552 L120.876,163.552 Z M134.12,169.852 C134.12,170.664 134.596,171.168 135.352,171.168 C136.108,171.168 136.584,170.664 136.584,169.852 L136.584,162.768 C136.584,159.884 138.376,158.792 139.832,158.54 C140.868,158.344 141.372,157.896 141.372,157.196 C141.372,156.496 140.868,155.936 140,155.936 C138.572,155.936 137.2,157.364 136.64,158.512 L136.584,158.512 L136.584,157.252 C136.584,156.44 136.108,155.936 135.352,155.936 C134.596,155.936 134.12,156.44 134.12,157.252 L134.12,169.852 Z M149.128,164.56 C149.716,164.56 150.192,164.084 150.192,163.496 C150.192,162.908 149.716,162.432 149.128,162.432 L143.36,162.432 C142.772,162.432 142.296,162.908 142.296,163.496 C142.296,164.084 142.772,164.56 143.36,164.56 L149.128,164.56 Z M152.46,160.136 C152.46,164.28 160.412,164.112 160.412,167.024 C160.412,168.032 159.32,169.04 157.528,169.04 C154.84,169.04 153.944,167.22 152.852,167.22 C152.32,167.22 151.844,167.668 151.844,168.34 C151.844,169.6 154.308,171.168 157.444,171.168 C160.216,171.168 162.876,169.684 162.876,166.576 C162.876,162.264 154.924,162.544 154.924,159.94 C154.924,158.68 156.128,158.064 157.528,158.064 C159.88,158.064 160.3,159.576 161.364,159.576 C162.12,159.576 162.484,159.1 162.484,158.568 C162.484,157.028 159.572,155.936 157.528,155.936 C155.036,155.936 152.46,157.392 152.46,160.136 L152.46,160.136 Z M165.228,169.852 C165.228,170.664 165.704,171.168 166.46,171.168 C167.216,171.168 167.692,170.664 167.692,169.852 L167.692,163.916 L173.908,170.412 C174.496,171 174.748,171.168 175.336,171.168 C175.868,171.168 176.372,170.748 176.372,170.188 C176.372,169.712 176.26,169.404 175.784,168.928 L169.288,162.516 L174.888,158.092 C175.364,157.728 175.504,157.392 175.504,157.028 C175.504,156.412 175.112,155.936 174.468,155.936 C174.048,155.936 173.572,156.244 173.068,156.692 L167.692,161.2 L167.692,150.7 C167.692,149.888 167.216,149.384 166.46,149.384 C165.704,149.384 165.228,149.888 165.228,150.7 L165.228,169.852 Z M181.58,170.468 L180.012,174.64 C179.704,175.48 179.648,175.732 179.648,176.012 C179.648,176.628 180.208,177.048 180.768,177.048 C181.384,177.048 181.776,176.656 181.972,176.124 L188.188,158.344 C188.468,157.504 188.524,157.252 188.524,156.972 C188.524,156.356 187.964,155.936 187.404,155.936 C186.788,155.936 186.396,156.328 186.228,156.86 L182.868,167.08 L182.812,167.08 L179.396,156.86 C179.228,156.328 178.78,155.936 178.164,155.936 C177.604,155.936 177.044,156.356 177.044,156.972 C177.044,157.252 177.1,157.504 177.38,158.344 L181.58,170.468 Z" id="Sass:-$color-sky" fill="#575756" transform="translate(95.158000, 163.020000) rotate(-10.000000) translate(-95.158000, -163.020000) "></path>
            </g>
        </g>
    </g>
</svg>