<?xml version="1.0" encoding="UTF-8" standalone="no"?>
<svg width="452px" height="197px" viewBox="0 0 452 197" version="1.1" xmlns="http://www.w3.org/2000/svg" xmlns:xlink="http://www.w3.org/1999/xlink">
    <!-- Generator: Sketch 39.1 (31720) - http://www.bohemiancoding.com/sketch -->
    <title>07-midnight-hex</title>
    <desc>Created with Sketch.</desc>
    <defs></defs>
    <g id="Templates" stroke="none" stroke-width="1" fill="none" fill-rule="evenodd">
        <g id="7-colour-supporting-(2)" transform="translate(-356.000000, -1997.000000)">
            <g id="07-midnight-hex" transform="translate(355.000000, 1995.000000)">
                <path d="M363,187 C412.705627,187 453,146.705627 453,97 C453,47.2943725 412.705627,7 363,7 C313.294373,7 273,47.2943725 273,97 C273,146.705627 313.294373,187 363,187 Z" id="Oval" fill="#1D3661"></path>
                <path d="M95.192,33.984 C95.192,35.384 96.088,36.168 97.292,36.168 C98.496,36.168 99.392,35.384 99.392,33.984 L99.392,27.88 L108.184,27.88 L108.184,33.984 C108.184,35.384 109.08,36.168 110.284,36.168 C111.488,36.168 112.384,35.384 112.384,33.984 L112.384,18.08 C112.384,16.68 111.488,15.896 110.284,15.896 C109.08,15.896 108.184,16.68 108.184,18.08 L108.184,24.016 L99.392,24.016 L99.392,18.08 C99.392,16.68 98.496,15.896 97.292,15.896 C96.088,15.896 95.192,16.68 95.192,18.08 L95.192,33.984 Z M126.636,29.896 C127.868,29.896 128.4,29.308 128.4,28.104 C128.4,24.744 125.516,20.768 121.148,20.768 C116.892,20.768 113.924,24.492 113.924,28.58 C113.924,33.032 116.948,36.336 121.484,36.336 C124.48,36.336 128.064,34.656 128.064,32.92 C128.064,32.052 127.28,31.184 126.412,31.184 C125.348,31.184 123.92,32.808 121.848,32.808 C119.972,32.808 118.32,31.884 118.04,29.896 L126.636,29.896 Z M117.956,27.208 C118.152,25.5 119.356,24.128 121.148,24.128 C123.024,24.128 124.144,25.444 124.368,27.208 L117.956,27.208 Z M129.24,32.836 C128.932,33.172 128.68,33.76 128.68,34.208 C128.68,35.384 129.492,36.168 130.668,36.168 C131.564,36.168 131.928,35.776 132.348,35.272 L135.68,31.184 L139.012,35.272 C139.432,35.776 139.796,36.168 140.692,36.168 C141.868,36.168 142.68,35.384 142.68,34.208 C142.68,33.76 142.428,33.172 142.12,32.836 L138.032,28.188 L141.448,24.352 C141.784,23.96 142.064,23.4 142.064,22.896 C142.064,21.832 141.028,20.936 139.992,20.936 C139.348,20.936 138.928,21.216 138.508,21.72 L135.68,25.248 L132.852,21.72 C132.432,21.216 132.012,20.936 131.368,20.936 C130.332,20.936 129.296,21.832 129.296,22.896 C129.296,23.4 129.576,23.96 129.912,24.352 L133.328,28.188 L129.24,32.836 Z M144.248,25.164 C144.248,26.368 145.228,27.348 146.432,27.348 C147.636,27.348 148.616,26.368 148.616,25.164 C148.616,23.96 147.636,22.98 146.432,22.98 C145.228,22.98 144.248,23.96 144.248,25.164 L144.248,25.164 Z M144.248,34.152 C144.248,35.356 145.228,36.336 146.432,36.336 C147.636,36.336 148.616,35.356 148.616,34.152 C148.616,32.948 147.636,31.968 146.432,31.968 C145.228,31.968 144.248,32.948 144.248,34.152 L144.248,34.152 Z M168.356,29.952 L170.316,29.952 C170.96,29.952 171.464,29.644 171.464,29.028 C171.464,28.412 170.96,28.104 170.316,28.104 L168.608,28.104 L169.196,23.96 L171.156,23.96 C171.8,23.96 172.304,23.68 172.304,23.036 C172.304,22.42 171.8,22.112 171.156,22.112 L169.448,22.112 L170.008,18.024 C170.092,17.492 170.148,17.156 170.148,16.848 C170.148,16.344 169.868,15.896 169.196,15.896 C168.468,15.896 168.216,16.26 168.132,16.904 L167.404,22.112 L164.072,22.112 L164.632,18.024 C164.716,17.492 164.772,17.156 164.772,16.848 C164.772,16.344 164.492,15.896 163.82,15.896 C163.092,15.896 162.84,16.26 162.756,16.904 L162.028,22.112 L160.068,22.112 C159.424,22.112 158.92,22.42 158.92,23.036 C158.92,23.652 159.424,23.96 160.068,23.96 L161.776,23.96 L161.188,28.104 L159.228,28.104 C158.584,28.104 158.08,28.384 158.08,29.028 C158.08,29.644 158.584,29.952 159.228,29.952 L160.936,29.952 L160.376,34.04 C160.292,34.572 160.236,34.908 160.236,35.216 C160.236,35.72 160.516,36.168 161.188,36.168 C161.916,36.168 162.168,35.804 162.252,35.16 L162.98,29.952 L166.312,29.952 L165.752,34.04 C165.668,34.572 165.612,34.908 165.612,35.216 C165.612,35.72 165.892,36.168 166.564,36.168 C167.292,36.168 167.544,35.804 167.628,35.16 L168.356,29.952 Z M166.564,28.104 L163.232,28.104 L163.82,23.96 L167.152,23.96 L166.564,28.104 Z M177.288,34.852 C177.288,35.664 177.764,36.168 178.52,36.168 C179.276,36.168 179.752,35.664 179.752,34.852 L179.752,16.736 C179.752,16.12 179.472,16.064 178.996,16.064 L174.712,16.064 C174.124,16.064 173.648,16.54 173.648,17.128 C173.648,17.716 174.124,18.192 174.712,18.192 L177.288,18.192 L177.288,34.852 Z M194.172,28.552 C194.172,31.072 193.108,34.04 190.084,34.04 C187.06,34.04 185.996,31.072 185.996,28.552 C185.996,26.032 187.06,23.064 190.084,23.064 C193.108,23.064 194.172,26.032 194.172,28.552 L194.172,28.552 Z M193.92,34.852 C193.92,35.664 194.396,36.168 195.152,36.168 C195.908,36.168 196.384,35.664 196.384,34.852 L196.384,15.7 C196.384,14.888 195.908,14.384 195.152,14.384 C194.396,14.384 193.92,14.888 193.92,15.7 L193.92,22.952 L193.864,22.952 C193.22,22.028 191.848,20.936 189.888,20.936 C185.856,20.936 183.532,24.604 183.532,28.552 C183.532,32.5 185.856,36.168 189.888,36.168 C191.848,36.168 193.164,35.468 193.864,34.124 L193.92,34.124 L193.92,34.852 Z M211.448,30.12 C211.448,27.852 210.272,25.948 208.032,25.276 C209.6,24.324 210.384,22.7 210.384,21.048 C210.384,18.248 208.396,15.896 205.204,15.896 C201.9,15.896 199.968,18.276 199.968,20.936 C199.968,21.58 200.388,22.084 201.088,22.084 C201.508,22.084 202.18,22.056 202.264,20.936 C202.404,19.424 203.132,18.024 205.092,18.024 C206.8,18.024 207.92,19.368 207.92,21.272 C207.92,23.092 207.108,24.044 205.12,24.492 C204.196,24.688 203.832,24.996 203.832,25.556 C203.832,26.2 204.364,26.62 205.344,26.62 C207.192,26.62 208.816,27.376 208.816,30.344 C208.816,32.388 207.248,34.04 205.036,34.04 C203.16,34.04 202.152,32.92 201.676,31.492 C201.396,30.624 201.032,30.204 200.304,30.204 C199.716,30.204 199.268,30.708 199.268,31.576 C199.268,33.06 200.948,36.168 205.092,36.168 C208.648,36.168 211.448,33.9 211.448,30.12 L211.448,30.12 Z M220.576,36.168 C224.104,36.168 226.68,33.284 226.68,29.672 C226.68,26.2 224.888,23.12 221.64,23.12 C220.296,23.12 219.4,23.428 218.476,23.904 L218.42,23.904 C219.932,21.132 221.108,19.788 222.704,18.36 C223.404,17.744 223.684,17.436 223.684,17.044 C223.684,16.288 223.068,15.896 222.676,15.896 C222.34,15.896 222.032,16.036 221.528,16.456 C218.504,19.004 214.584,23.484 214.584,29.308 C214.584,33.284 217.104,36.168 220.576,36.168 L220.576,36.168 Z M217.048,29.56 C217.048,27.264 218.112,25.248 220.548,25.248 C222.984,25.248 224.048,26.928 224.048,29.56 C224.048,31.884 222.984,33.872 220.548,33.872 C218.112,33.872 217.048,31.884 217.048,29.56 L217.048,29.56 Z M235.584,36.168 C239.112,36.168 241.688,33.284 241.688,29.672 C241.688,26.2 239.896,23.12 236.648,23.12 C235.304,23.12 234.408,23.428 233.484,23.904 L233.428,23.904 C234.94,21.132 236.116,19.788 237.712,18.36 C238.412,17.744 238.692,17.436 238.692,17.044 C238.692,16.288 238.076,15.896 237.684,15.896 C237.348,15.896 237.04,16.036 236.536,16.456 C233.512,19.004 229.592,23.484 229.592,29.308 C229.592,33.284 232.112,36.168 235.584,36.168 L235.584,36.168 Z M232.056,29.56 C232.056,27.264 233.12,25.248 235.556,25.248 C237.992,25.248 239.056,26.928 239.056,29.56 C239.056,31.884 237.992,33.872 235.556,33.872 C233.12,33.872 232.056,31.884 232.056,29.56 L232.056,29.56 Z M247.736,34.852 C247.736,35.664 248.212,36.168 248.968,36.168 C249.724,36.168 250.2,35.664 250.2,34.852 L250.2,16.736 C250.2,16.12 249.92,16.064 249.444,16.064 L245.16,16.064 C244.572,16.064 244.096,16.54 244.096,17.128 C244.096,17.716 244.572,18.192 245.16,18.192 L247.736,18.192 L247.736,34.852 Z" id="Hex:-#1d3661" fill="#575756" transform="translate(174.096000, 25.360000) rotate(10.000000) translate(-174.096000, -25.360000) "></path>
                <path d="M84.86,104.984 C84.86,106.384 85.756,107.168 86.96,107.168 C88.164,107.168 89.06,106.384 89.06,104.984 L89.06,98.908 L89.116,98.908 L95.332,106.44 C95.78,106.972 96.452,107.168 96.956,107.168 C98.188,107.168 99.056,106.104 99.056,105.012 C99.056,104.62 98.888,104.2 98.496,103.78 L93.736,98.684 C96.592,98.236 98.916,96.472 98.916,93.392 C98.916,88.996 96.256,87.064 91.944,87.064 L87.016,87.064 C85.616,87.064 84.86,87.904 84.86,89.248 L84.86,104.984 Z M89.06,90.928 L91.944,90.928 C93.484,90.928 94.548,91.796 94.548,93.392 C94.548,94.96 93.484,95.884 91.944,95.884 L89.06,95.884 L89.06,90.928 Z M111.18,95.184 C110.116,95.184 109.22,95.912 109.22,97.088 C109.22,98.236 110.032,99.048 111.18,99.048 L114.036,99.048 C114.036,102.24 111.488,103.472 109.276,103.472 C105.72,103.472 104.012,100.448 104.012,97.032 C104.012,93.644 105.776,90.592 109.276,90.592 C112.944,90.592 113.336,92.636 115.24,92.636 C116.22,92.636 116.976,91.88 116.976,90.676 C116.976,88.716 113.504,86.728 109.276,86.728 C103.564,86.728 99.644,91.208 99.644,97.032 C99.644,102.828 103.592,107.336 109.276,107.336 C114.876,107.336 118.404,103.276 118.404,97.872 C118.404,96.08 117.704,95.184 115.94,95.184 L111.18,95.184 Z M120.14,104.872 C120.14,106.188 121.092,107 122.38,107 L128.148,107 C132.012,107 134.644,104.872 134.644,100.924 C134.644,98.488 132.768,96.5 130.388,96.164 L130.388,96.108 C132.18,95.268 132.992,93.952 132.992,91.992 C132.992,89.024 130.64,87.064 127.728,87.064 L122.352,87.064 C121.064,87.064 120.14,87.82 120.14,89.164 L120.14,104.872 Z M124.34,90.76 L126.524,90.76 C127.756,90.76 128.792,91.432 128.792,92.748 C128.792,94.148 127.896,94.96 126.524,94.96 L124.34,94.96 L124.34,90.76 Z M124.34,98.656 L127.308,98.656 C129.268,98.656 130.276,99.552 130.276,100.868 C130.276,102.436 129.156,103.304 127.644,103.304 L124.34,103.304 L124.34,98.656 Z M136.52,96.164 C136.52,97.368 137.5,98.348 138.704,98.348 C139.908,98.348 140.888,97.368 140.888,96.164 C140.888,94.96 139.908,93.98 138.704,93.98 C137.5,93.98 136.52,94.96 136.52,96.164 L136.52,96.164 Z M136.52,105.152 C136.52,106.356 137.5,107.336 138.704,107.336 C139.908,107.336 140.888,106.356 140.888,105.152 C140.888,103.948 139.908,102.968 138.704,102.968 C137.5,102.968 136.52,103.948 136.52,105.152 L136.52,105.152 Z M155.056,104.872 L161.748,95.968 C163.036,94.288 163.12,93 163.12,91.852 C163.12,89.276 161.048,86.896 157.744,86.896 C153.628,86.896 151.388,89.836 151.388,93.14 C151.388,94.176 151.808,94.652 152.592,94.652 C153.124,94.652 153.684,94.4 153.684,93.532 C153.684,91.04 154.944,89.024 157.324,89.024 C159.116,89.024 160.488,90.312 160.488,92.132 C160.488,93.336 159.872,94.568 159.032,95.66 L152.144,104.872 C151.724,105.46 151.612,105.684 151.612,105.992 C151.612,106.412 151.92,107 152.956,107 L162.616,107 C163.204,107 163.68,106.524 163.68,105.936 C163.68,105.348 163.204,104.872 162.616,104.872 L155.056,104.872 Z M172.528,86.896 C169,86.896 166.424,89.78 166.424,93.392 C166.424,96.864 168.216,99.944 171.464,99.944 C172.808,99.944 173.704,99.636 174.628,99.16 L174.684,99.16 C173.172,101.932 171.996,103.276 170.4,104.704 C169.7,105.32 169.42,105.628 169.42,106.02 C169.42,106.776 170.036,107.168 170.428,107.168 C170.764,107.168 171.072,107.028 171.576,106.608 C174.6,104.06 178.52,99.58 178.52,93.756 C178.52,89.78 176,86.896 172.528,86.896 L172.528,86.896 Z M176.056,93.504 C176.056,95.8 174.992,97.816 172.556,97.816 C170.12,97.816 169.056,96.136 169.056,93.504 C169.056,91.18 170.12,89.192 172.556,89.192 C174.992,89.192 176.056,91.18 176.056,93.504 L176.056,93.504 Z M180.9,108.428 C180.676,108.876 180.592,109.156 180.592,109.464 C180.592,110.08 181.124,110.528 181.712,110.528 C182.44,110.528 182.748,110.024 183.028,109.492 L184.596,106.412 C184.82,105.964 184.904,105.684 184.904,105.376 C184.904,104.76 184.372,104.312 183.784,104.312 C183.056,104.312 182.748,104.816 182.468,105.348 L180.9,108.428 Z M193.36,89.192 L199.044,89.192 C199.632,89.192 200.108,88.716 200.108,88.128 C200.108,87.54 199.632,87.064 199.044,87.064 L192.128,87.064 C191.54,87.064 191.288,87.204 191.204,87.708 L190.168,94.68 C190.084,95.296 189.972,96.024 189.972,96.332 C189.972,96.724 190.224,97.088 190.812,97.088 C191.512,97.088 192.38,96.332 194.2,96.332 C196.608,96.332 197.644,98.208 197.644,100.56 C197.644,102.884 196.216,104.872 193.836,104.872 C191.008,104.872 190.112,102.8 189.104,102.8 C188.488,102.8 188.208,103.36 188.208,103.864 C188.208,105.068 190.504,107.168 193.808,107.168 C197.84,107.168 200.276,104.368 200.276,100.084 C200.276,96.976 198.288,94.036 195.18,94.036 C194.256,94.036 193.36,94.176 192.548,94.596 L193.36,89.192 Z M211.336,101.876 L211.336,105.852 C211.336,106.664 211.812,107.168 212.568,107.168 C213.324,107.168 213.8,106.664 213.8,105.852 L213.8,101.876 L215.06,101.876 C215.648,101.876 216.124,101.4 216.124,100.812 C216.124,100.224 215.648,99.748 215.06,99.748 L213.8,99.748 L213.8,88.94 C213.8,87.484 213.016,86.896 211.924,86.896 C211.056,86.896 210.496,87.176 209.992,88.016 L202.936,99.58 C202.572,100.168 202.32,100.644 202.32,101.008 C202.32,101.512 202.544,101.876 203.384,101.876 L211.336,101.876 Z M205.4,99.748 L211.28,89.528 L211.336,89.528 L211.336,99.748 L205.4,99.748 Z M217.916,108.428 C217.692,108.876 217.608,109.156 217.608,109.464 C217.608,110.08 218.14,110.528 218.728,110.528 C219.456,110.528 219.764,110.024 220.044,109.492 L221.612,106.412 C221.836,105.964 221.92,105.684 221.92,105.376 C221.92,104.76 221.388,104.312 220.8,104.312 C220.072,104.312 219.764,104.816 219.484,105.348 L217.916,108.428 Z M231.552,86.896 C228.024,86.896 225.448,89.78 225.448,93.392 C225.448,96.864 227.24,99.944 230.488,99.944 C231.832,99.944 232.728,99.636 233.652,99.16 L233.708,99.16 C232.196,101.932 231.02,103.276 229.424,104.704 C228.724,105.32 228.444,105.628 228.444,106.02 C228.444,106.776 229.06,107.168 229.452,107.168 C229.788,107.168 230.096,107.028 230.6,106.608 C233.624,104.06 237.544,99.58 237.544,93.756 C237.544,89.78 235.024,86.896 231.552,86.896 L231.552,86.896 Z M235.08,93.504 C235.08,95.8 234.016,97.816 231.58,97.816 C229.144,97.816 228.08,96.136 228.08,93.504 C228.08,91.18 229.144,89.192 231.58,89.192 C234.016,89.192 235.08,91.18 235.08,93.504 L235.08,93.504 Z M249.248,89.192 L249.248,89.248 L242.276,104.9 C241.968,105.628 241.884,106.02 241.884,106.216 C241.884,106.86 242.472,107.168 242.808,107.168 C243.34,107.168 243.956,107.056 244.292,106.272 L251.74,89.332 C252.048,88.632 252.216,88.24 252.216,87.848 C252.216,87.26 251.712,87.064 250.956,87.064 L240.848,87.064 C240.26,87.064 239.784,87.54 239.784,88.128 C239.784,88.716 240.26,89.192 240.848,89.192 L249.248,89.192 Z" id="RGB:-29,54,97" fill="#575756"></path>
                <path d="M7.852,156.728 C4.128,156.728 0.908,159.164 0.908,163.084 C0.908,169.58 10.26,167.592 10.26,170.896 C10.26,172.268 9.252,173.304 7.404,173.304 C5.584,173.304 4.016,172.212 2.7,172.212 C1.552,172.212 0.824,173.108 0.824,174.2 C0.824,176.832 5.472,177.336 7.628,177.336 C11.492,177.336 14.796,174.844 14.796,170.84 C14.796,163.616 5.444,165.464 5.444,162.58 C5.444,161.404 6.536,160.76 7.74,160.76 C9.42,160.76 10.316,161.6 11.464,161.6 C12.612,161.6 13.34,160.62 13.34,159.528 C13.34,157.316 9.42,156.728 7.852,156.728 L7.852,156.728 Z M30.252,164.568 C30.252,163.532 30.252,161.936 28.32,161.936 C27.34,161.936 26.5,162.636 26.388,163.616 C25.492,162.356 24.036,161.768 22.552,161.768 C18.856,161.768 15.888,165.156 15.888,169.58 C15.888,174.116 18.772,177.336 22.552,177.336 C24.092,177.336 25.352,176.692 26.388,175.46 C26.668,176.524 27.144,177.168 28.32,177.168 C30.252,177.168 30.252,175.572 30.252,174.536 L30.252,164.568 Z M19.92,169.58 C19.92,167.648 20.9,165.464 23.112,165.464 C25.24,165.464 26.22,167.648 26.22,169.58 C26.22,171.512 25.212,173.64 23.112,173.64 C20.928,173.64 19.92,171.512 19.92,169.58 L19.92,169.58 Z M42.684,164.68 C42.684,162.692 39.632,161.768 37.644,161.768 C34.452,161.768 32.184,163.672 32.184,166.472 C32.184,171.092 39.184,170.812 39.184,172.66 C39.184,173.416 38.82,173.808 37.588,173.808 C35.684,173.808 34.984,172.436 33.416,172.436 C32.296,172.436 31.68,173.612 31.68,174.228 C31.68,176.048 35.04,177.336 37.308,177.336 C40.78,177.336 43.048,175.292 43.048,172.604 C43.048,168.012 36.048,168.292 36.048,166.416 C36.048,165.632 36.692,165.296 37.42,165.296 C38.736,165.296 40.276,166.472 41.032,166.472 C41.984,166.472 42.684,165.604 42.684,164.68 L42.684,164.68 Z M54.612,164.68 C54.612,162.692 51.56,161.768 49.572,161.768 C46.38,161.768 44.112,163.672 44.112,166.472 C44.112,171.092 51.112,170.812 51.112,172.66 C51.112,173.416 50.748,173.808 49.516,173.808 C47.612,173.808 46.912,172.436 45.344,172.436 C44.224,172.436 43.608,173.612 43.608,174.228 C43.608,176.048 46.968,177.336 49.236,177.336 C52.708,177.336 54.976,175.292 54.976,172.604 C54.976,168.012 47.976,168.292 47.976,166.416 C47.976,165.632 48.62,165.296 49.348,165.296 C50.664,165.296 52.204,166.472 52.96,166.472 C53.912,166.472 54.612,165.604 54.612,164.68 L54.612,164.68 Z M56.824,166.164 C56.824,167.368 57.804,168.348 59.008,168.348 C60.212,168.348 61.192,167.368 61.192,166.164 C61.192,164.96 60.212,163.98 59.008,163.98 C57.804,163.98 56.824,164.96 56.824,166.164 L56.824,166.164 Z M56.824,175.152 C56.824,176.356 57.804,177.336 59.008,177.336 C60.212,177.336 61.192,176.356 61.192,175.152 C61.192,173.948 60.212,172.968 59.008,172.968 C57.804,172.968 56.824,173.948 56.824,175.152 L56.824,175.152 Z M76.368,164.708 C74.828,164.12 73.68,163.392 73.68,161.852 C73.68,160.312 74.8,159.22 76.368,159.024 L76.368,164.708 Z M76.368,175.04 C73.876,175.04 72.868,173.5 71.832,173.5 C71.188,173.5 70.852,174.088 70.852,174.676 C70.852,175.88 73.512,177.168 76.368,177.168 L76.368,178.484 C76.368,178.82 76.592,179.072 76.956,179.072 C77.32,179.072 77.544,178.82 77.544,178.484 L77.544,177.056 C81.156,176.608 83.144,173.864 83.144,170.868 C83.144,167.088 80.148,166.08 77.544,165.156 L77.544,159.024 C79.392,159.304 79.784,160.312 80.764,160.312 C81.38,160.312 81.828,159.808 81.828,159.22 C81.828,158.044 79.784,157.064 77.544,156.896 L77.544,155.58 C77.544,155.244 77.32,154.992 76.956,154.992 C76.592,154.992 76.368,155.244 76.368,155.58 L76.368,156.896 C73.008,157.204 71.048,159.808 71.048,162.02 C71.048,165.52 73.82,166.416 76.368,167.284 L76.368,175.04 Z M77.544,167.704 C79.168,168.32 80.512,169.132 80.512,170.98 C80.512,172.968 79.42,174.508 77.544,174.9 L77.544,167.704 Z M84.712,169.552 C84.712,173.5 86.896,177.168 91.432,177.168 C93.98,177.168 95.352,176.16 95.352,175.236 C95.352,174.564 94.96,174.2 94.4,174.2 C93.616,174.2 93.168,175.04 91.432,175.04 C88.38,175.04 87.176,172.072 87.176,169.552 C87.176,167.032 88.38,164.064 91.432,164.064 C93.112,164.064 93.476,164.848 94.428,164.848 C95.016,164.848 95.436,164.316 95.436,163.812 C95.436,162.804 93.952,161.936 91.432,161.936 C86.896,161.936 84.712,165.604 84.712,169.552 L84.712,169.552 Z M97.144,169.552 C97.144,173.5 99.496,177.168 103.696,177.168 C107.896,177.168 110.248,173.5 110.248,169.552 C110.248,165.604 107.896,161.936 103.696,161.936 C99.496,161.936 97.144,165.604 97.144,169.552 L97.144,169.552 Z M99.608,169.552 C99.608,167.032 100.672,164.064 103.696,164.064 C106.72,164.064 107.784,167.032 107.784,169.552 C107.784,172.072 106.72,175.04 103.696,175.04 C100.672,175.04 99.608,172.072 99.608,169.552 L99.608,169.552 Z M115.316,156.7 C115.316,155.888 114.84,155.384 114.084,155.384 C113.328,155.384 112.852,155.888 112.852,156.7 L112.852,175.852 C112.852,176.664 113.328,177.168 114.084,177.168 C114.84,177.168 115.316,176.664 115.316,175.852 L115.316,156.7 Z M117.92,169.552 C117.92,173.5 120.272,177.168 124.472,177.168 C128.672,177.168 131.024,173.5 131.024,169.552 C131.024,165.604 128.672,161.936 124.472,161.936 C120.272,161.936 117.92,165.604 117.92,169.552 L117.92,169.552 Z M120.384,169.552 C120.384,167.032 121.448,164.064 124.472,164.064 C127.496,164.064 128.56,167.032 128.56,169.552 C128.56,172.072 127.496,175.04 124.472,175.04 C121.448,175.04 120.384,172.072 120.384,169.552 L120.384,169.552 Z M133.628,175.852 C133.628,176.664 134.104,177.168 134.86,177.168 C135.616,177.168 136.092,176.664 136.092,175.852 L136.092,168.768 C136.092,165.884 137.884,164.792 139.34,164.54 C140.376,164.344 140.88,163.896 140.88,163.196 C140.88,162.496 140.376,161.936 139.508,161.936 C138.08,161.936 136.708,163.364 136.148,164.512 L136.092,164.512 L136.092,163.252 C136.092,162.44 135.616,161.936 134.86,161.936 C134.104,161.936 133.628,162.44 133.628,163.252 L133.628,175.852 Z M148.636,170.56 C149.224,170.56 149.7,170.084 149.7,169.496 C149.7,168.908 149.224,168.432 148.636,168.432 L142.868,168.432 C142.28,168.432 141.804,168.908 141.804,169.496 C141.804,170.084 142.28,170.56 142.868,170.56 L148.636,170.56 Z M161.124,175.852 C161.124,176.664 161.6,177.168 162.356,177.168 C163.112,177.168 163.588,176.664 163.588,175.852 L163.588,167.508 C163.588,165.38 164.764,164.064 166.752,164.064 C168.768,164.064 169.944,165.38 169.944,167.508 L169.944,175.852 C169.944,176.664 170.42,177.168 171.176,177.168 C171.932,177.168 172.408,176.664 172.408,175.852 L172.408,167.592 C172.408,163.392 169.524,161.936 167.228,161.936 C165.072,161.936 163.756,162.888 162.664,164.456 C161.544,162.552 160.032,161.936 158.576,161.936 C156.336,161.936 155.412,163 154.824,163.756 L154.768,163.7 L154.768,163.252 C154.768,162.44 154.292,161.936 153.536,161.936 C152.78,161.936 152.304,162.44 152.304,163.252 L152.304,175.852 C152.304,176.664 152.78,177.168 153.536,177.168 C154.292,177.168 154.768,176.664 154.768,175.852 L154.768,167.508 C154.768,165.38 155.944,164.064 157.932,164.064 C159.948,164.064 161.124,165.38 161.124,167.508 L161.124,175.852 Z M178.12,163.252 C178.12,162.44 177.644,161.936 176.888,161.936 C176.132,161.936 175.656,162.44 175.656,163.252 L175.656,175.852 C175.656,176.664 176.132,177.168 176.888,177.168 C177.644,177.168 178.12,176.664 178.12,175.852 L178.12,163.252 Z M175.376,158.408 C175.376,159.248 176.048,159.92 176.888,159.92 C177.728,159.92 178.4,159.248 178.4,158.408 C178.4,157.568 177.728,156.896 176.888,156.896 C176.048,156.896 175.376,157.568 175.376,158.408 L175.376,158.408 Z M191.364,169.552 C191.364,172.072 190.3,175.04 187.276,175.04 C184.252,175.04 183.188,172.072 183.188,169.552 C183.188,167.032 184.252,164.064 187.276,164.064 C190.3,164.064 191.364,167.032 191.364,169.552 L191.364,169.552 Z M191.112,175.852 C191.112,176.664 191.588,177.168 192.344,177.168 C193.1,177.168 193.576,176.664 193.576,175.852 L193.576,156.7 C193.576,155.888 193.1,155.384 192.344,155.384 C191.588,155.384 191.112,155.888 191.112,156.7 L191.112,163.952 L191.056,163.952 C190.412,163.028 189.04,161.936 187.08,161.936 C183.048,161.936 180.724,165.604 180.724,169.552 C180.724,173.5 183.048,177.168 187.08,177.168 C189.04,177.168 190.356,176.468 191.056,175.124 L191.112,175.124 L191.112,175.852 Z M196.936,175.852 C196.936,176.664 197.412,177.168 198.168,177.168 C198.924,177.168 199.4,176.664 199.4,175.852 L199.4,167.732 C199.4,165.128 201.22,164.064 202.844,164.064 C204.468,164.064 206.288,165.128 206.288,167.732 L206.288,175.852 C206.288,176.664 206.764,177.168 207.52,177.168 C208.276,177.168 208.752,176.664 208.752,175.852 L208.752,167.592 C208.752,163.392 205.868,161.936 203.572,161.936 C202.088,161.936 200.548,162.496 199.456,163.896 L199.4,163.84 L199.4,163.252 C199.4,162.44 198.924,161.936 198.168,161.936 C197.412,161.936 196.936,162.44 196.936,163.252 L196.936,175.852 Z M214.464,163.252 C214.464,162.44 213.988,161.936 213.232,161.936 C212.476,161.936 212,162.44 212,163.252 L212,175.852 C212,176.664 212.476,177.168 213.232,177.168 C213.988,177.168 214.464,176.664 214.464,175.852 L214.464,163.252 Z M211.72,158.408 C211.72,159.248 212.392,159.92 213.232,159.92 C214.072,159.92 214.744,159.248 214.744,158.408 C214.744,157.568 214.072,156.896 213.232,156.896 C212.392,156.896 211.72,157.568 211.72,158.408 L211.72,158.408 Z M229.92,163.14 C229.92,162.272 229.248,161.936 228.772,161.936 C228.1,161.936 227.456,162.272 227.456,163.14 L227.456,163.812 L227.4,163.812 C226.756,162.916 225.216,161.936 223.62,161.936 C219.42,161.936 217.068,165.604 217.068,169.552 C217.068,173.5 219.42,177.168 223.62,177.168 C225.3,177.168 226.644,176.328 227.4,175.04 L227.456,175.04 L227.456,176.328 C227.456,178.456 226.532,180.92 223.396,180.92 C220.736,180.92 219.644,179.184 218.524,179.184 C217.74,179.184 217.488,179.828 217.488,180.332 C217.488,181.592 220.652,183.048 223.2,183.048 C227.232,183.048 229.92,180.36 229.92,175.936 L229.92,163.14 Z M219.532,169.552 C219.532,167.032 220.596,164.064 223.62,164.064 C226.644,164.064 227.708,167.032 227.708,169.552 C227.708,172.072 226.644,175.04 223.62,175.04 C220.596,175.04 219.532,172.072 219.532,169.552 L219.532,169.552 Z M242.632,175.852 C242.632,176.664 243.108,177.168 243.864,177.168 C244.62,177.168 245.096,176.664 245.096,175.852 L245.096,167.592 C245.096,163.392 242.212,161.936 239.916,161.936 C238.432,161.936 236.892,162.496 235.8,163.896 L235.744,163.84 L235.744,156.7 C235.744,155.888 235.268,155.384 234.512,155.384 C233.756,155.384 233.28,155.888 233.28,156.7 L233.28,175.852 C233.28,176.664 233.756,177.168 234.512,177.168 C235.268,177.168 235.744,176.664 235.744,175.852 L235.744,167.732 C235.744,165.128 237.564,164.064 239.188,164.064 C240.812,164.064 242.632,165.128 242.632,167.732 L242.632,175.852 Z M249.128,162.104 L248.12,162.104 C247.308,162.104 246.888,162.496 246.888,163.168 C246.888,163.84 247.308,164.232 248.12,164.232 L249.128,164.232 L249.128,175.852 C249.128,176.664 249.604,177.168 250.36,177.168 C251.116,177.168 251.592,176.664 251.592,175.852 L251.592,164.232 L252.6,164.232 C253.412,164.232 253.832,163.84 253.832,163.168 C253.832,162.496 253.412,162.104 252.6,162.104 L251.592,162.104 L251.592,158.884 C251.592,158.072 251.116,157.568 250.36,157.568 C249.604,157.568 249.128,158.072 249.128,158.884 L249.128,162.104 Z" id="Sass:-$color-midnigh" fill="#575756" transform="translate(127.412000, 169.020000) rotate(-10.000000) translate(-127.412000, -169.020000) "></path>
            </g>
        </g>
    </g>
</svg>