<?xml version="1.0" encoding="utf-8"?>
<!-- Generator: Adobe Illustrator 20.0.0, SVG Export Plug-In . SVG Version: 6.00 Build 0)  -->
<svg version="1.1" id="Layer_1" xmlns="http://www.w3.org/2000/svg" xmlns:xlink="http://www.w3.org/1999/xlink" x="0px" y="0px"
	 viewBox="0 0 483 199" style="enable-background:new 0 0 483 199;" xml:space="preserve">
<style type="text/css">
	.st0{display:none;}
	.st1{display:inline;}
	.st2{fill:#86786F;}
	.st3{fill:#575756;}
	.st4{fill:none;}
	.st5{enable-background:new    ;}
</style>
<g id="Layer_2" class="st0">
	<g id="colour-midnight-values" transform="translate(324.000000, 426.000000)" class="st1">
		<path id="Oval" class="st2" d="M69-241c49.7,0,90-40.3,90-90s-40.3-90-90-90s-90,40.3-90,90S19.3-241,69-241z"/>
		<path id="Hex:-_x23_87556c" class="st3" d="M-205.1-408.4c-0.2,1.4,0.5,2.3,1.7,2.5s2.2-0.4,2.4-1.8l1.1-6l8.7,1.5l-1.1,6
			c-0.2,1.4,0.5,2.3,1.7,2.5s2.2-0.4,2.4-1.8l2.8-15.5c0.2-1.4-0.5-2.3-1.7-2.5s-2.2,0.4-2.4,1.8l-1,5.8l-8.7-1.5l1-5.8
			c0.2-1.4-0.5-2.3-1.7-2.5s-2.2,0.4-2.4,1.8L-205.1-408.4z M-173.4-406.9c1.2,0.2,1.8-0.3,2-1.5c0.6-3.3-1.6-7.7-5.9-8.5
			c-4.2-0.7-7.8,2.4-8.5,6.4c-0.8,4.4,1.6,8.2,6.1,9c3,0.5,6.8-0.5,7.1-2.2c0.2-0.9-0.5-1.8-1.3-2c-1-0.2-2.7,1.2-4.8,0.8
			c-1.8-0.3-3.3-1.5-3.2-3.5L-173.4-406.9z M-181.5-411.1c0.5-1.6,1.9-2.8,3.7-2.5s2.7,1.8,2.6,3.6L-181.5-411.1z M-171.4-403.6
			c-0.4,0.3-0.7,0.8-0.8,1.3c-0.2,1.2,0.5,2.1,1.6,2.3c0.9,0.2,1.3-0.2,1.8-0.6l4-3.4l2.6,4.6c0.3,0.6,0.6,1,1.5,1.2
			c1.2,0.2,2.1-0.4,2.3-1.6c0.1-0.4-0.1-1.1-0.3-1.4l-3.2-5.3l4-3.2c0.4-0.3,0.8-0.8,0.9-1.3c0.2-1-0.7-2.1-1.7-2.3
			c-0.6-0.1-1.1,0.1-1.6,0.5l-3.4,3l-2.2-4c-0.3-0.6-0.7-0.9-1.3-1c-1-0.2-2.2,0.5-2.4,1.6c-0.1,0.5,0.1,1.1,0.4,1.5l2.7,4.4
			L-171.4-403.6z M-155.2-408.5c-0.2,1.2,0.6,2.3,1.8,2.5s2.3-0.6,2.5-1.8c0.2-1.2-0.6-2.3-1.8-2.5S-155-409.7-155.2-408.5
			L-155.2-408.5z M-156.8-399.7c-0.2,1.2,0.6,2.3,1.8,2.5s2.3-0.6,2.5-1.8s-0.6-2.3-1.8-2.5S-156.6-400.9-156.8-399.7L-156.8-399.7z
			 M-132.3-399.6l1.9,0.3c0.6,0.1,1.2-0.1,1.3-0.7s-0.3-1-1-1.1l-1.7-0.3l1.3-4l1.9,0.3c0.6,0.1,1.2-0.1,1.3-0.7
			c0.1-0.6-0.3-1-1-1.1l-1.7-0.3l1.3-3.9c0.2-0.5,0.3-0.8,0.3-1.1c0.1-0.5-0.1-1-0.8-1.1s-1,0.2-1.2,0.8l-1.6,5l-3.3-0.6l1.3-3.9
			c0.2-0.5,0.3-0.8,0.3-1.1c0.1-0.5-0.1-1-0.8-1.1s-1,0.2-1.2,0.8l-1.6,5l-1.9-0.3c-0.6-0.1-1.2,0.1-1.3,0.7s0.3,1,1,1.1l1.7,0.3
			l-1.3,4l-1.9-0.4c-0.6-0.1-1.2,0.1-1.3,0.7s0.3,1,1,1.1l1.7,0.3l-1.3,3.9c-0.2,0.5-0.3,0.8-0.3,1.1c-0.1,0.5,0.1,1,0.8,1.1
			s1-0.2,1.2-0.8l1.6-5l3.3,0.6l-1.3,3.9c-0.2,0.5-0.3,0.8-0.3,1.1c-0.1,0.5,0.1,1,0.8,1.1s1-0.2,1.2-0.8L-132.3-399.6z
			 M-133.8-401.8l-3.3-0.6l1.3-4l3.3,0.6L-133.8-401.8z M-124-407.8c-0.4,2.1,0.2,3.4,1.8,4.8c-2.4,0.1-4,2-4.4,4.3
			c-0.6,3.2,1.1,6.6,4.9,7.3c3.8,0.7,6.5-1.9,7.1-5.1c0.4-2.3-0.5-4.6-2.7-5.5c2-0.8,3-1.8,3.3-3.9c0.5-3-1.7-4.9-4.2-5.4
			C-120.7-411.9-123.5-410.8-124-407.8L-124-407.8z M-121.9-406.9c0.3-1.7,1.5-2.7,3.3-2.4c1.7,0.3,2.5,1.7,2.3,3.4
			c-0.3,1.7-1.5,2.7-3.3,2.4C-121.4-403.9-122.2-405.3-121.9-406.9L-121.9-406.9z M-124.1-398.2c0.4-2,1.8-3.7,4.1-3.3
			s3.1,2.5,2.7,4.5c-0.4,2.5-2.3,3.7-4.1,3.4C-123.2-393.9-124.5-395.6-124.1-398.2L-124.1-398.2z M-101.1-406.1L-101.1-406.1
			l-9.6,14.3c-0.4,0.7-0.6,1-0.6,1.2c-0.1,0.6,0.4,1,0.7,1.1c0.5,0.1,1.2,0.1,1.6-0.6l10.3-15.4c0.4-0.6,0.7-1,0.7-1.4
			c0.1-0.6-0.4-0.9-1.1-1l-10-1.8c-0.6-0.1-1.1,0.3-1.2,0.9s0.3,1.1,0.9,1.2L-101.1-406.1z M-91.2-404.3l5.6,1
			c0.6,0.1,1.1-0.3,1.2-0.9s-0.3-1.1-0.9-1.2l-6.8-1.2c-0.6-0.1-0.9,0-1,0.5l-2.2,6.7c-0.2,0.6-0.4,1.3-0.5,1.6
			c-0.1,0.4,0.1,0.8,0.7,0.9c0.7,0.1,1.7-0.5,3.5-0.2c2.4,0.4,3.1,2.4,2.7,4.8c-0.4,2.3-2.2,4-4.5,3.6c-2.8-0.5-3.3-2.7-4.3-2.9
			c-0.6-0.1-1,0.4-1.1,0.9c-0.2,1.2,1.7,3.7,4.9,4.2c4,0.7,6.9-1.6,7.6-5.9c0.5-3.1-0.9-6.3-4-6.8c-0.9-0.2-1.8-0.2-2.7,0.1
			L-91.2-404.3z M-76.4-401.7l5.6,1c0.6,0.1,1.1-0.3,1.2-0.9s-0.3-1.1-0.9-1.2l-6.8-1.2c-0.6-0.1-0.9,0-1,0.5l-2.2,6.7
			c-0.2,0.6-0.4,1.3-0.5,1.6c-0.1,0.4,0.1,0.8,0.7,0.9c0.7,0.1,1.7-0.5,3.5-0.2c2.4,0.4,3.1,2.4,2.7,4.8c-0.4,2.3-2.2,4-4.5,3.6
			c-2.8-0.5-3.3-2.7-4.3-2.9c-0.6-0.1-1,0.4-1.1,0.9c-0.2,1.2,1.7,3.7,4.9,4.2c4,0.7,6.9-1.6,7.6-5.9c0.5-3.1-0.9-6.3-4-6.8
			c-0.9-0.2-1.8-0.2-2.7,0.1L-76.4-401.7z M-63.7-381.2c3.5,0.6,6.5-1.8,7.1-5.3c0.6-3.4-0.6-6.8-3.8-7.3c-1.3-0.2-2.3-0.1-3.3,0.2
			h-0.1c2-2.5,3.4-3.6,5.2-4.7c0.8-0.5,1.1-0.7,1.2-1.1c0.1-0.7-0.4-1.2-0.8-1.3c-0.3-0.1-0.7,0-1.2,0.4c-3.4,2-8.1,5.7-9.1,11.5
			C-69.1-385.1-67.1-381.8-63.7-381.2L-63.7-381.2z M-66-388.3c0.4-2.3,1.8-4.1,4.2-3.6c2.4,0.4,3.2,2.3,2.7,4.9
			c-0.4,2.3-1.8,4.1-4.2,3.6C-65.7-383.9-66.4-386.1-66-388.3L-66-388.3z M-53.9-387.2c-0.7,3.9,0.8,7.9,5.3,8.7
			c2.5,0.4,4-0.3,4.2-1.2c0.1-0.7-0.2-1.1-0.8-1.2c-0.8-0.1-1.4,0.6-3.1,0.3c-3-0.5-3.7-3.7-3.2-6.1s2.1-5.2,5.1-4.7
			c1.7,0.3,1.9,1.1,2.8,1.3c0.6,0.1,1.1-0.3,1.2-0.8c0.2-1-1.1-2.1-3.6-2.5C-50.5-394.4-53.3-391.1-53.9-387.2L-53.9-387.2z"/>
		<path id="RGB:-135_x2C_85_x2C_108" class="st3" d="M-229.9-323c0,1.4,0.9,2.2,2.1,2.2s2.1-0.8,2.1-2.2v-6.1h0.1l6.2,7.5
			c0.4,0.5,1.1,0.7,1.6,0.7c1.2,0,2.1-1.1,2.1-2.2c0-0.4-0.2-0.8-0.6-1.2l-4.8-5.1c2.9-0.4,5.2-2.2,5.2-5.3c0-4.4-2.7-6.3-7-6.3
			h-4.9c-1.4,0-2.2,0.8-2.2,2.2L-229.9-323L-229.9-323z M-225.7-337.1h2.9c1.5,0,2.6,0.9,2.6,2.5s-1.1,2.5-2.6,2.5h-2.9V-337.1z
			 M-203.5-332.8c-1.1,0-2,0.7-2,1.9c0,1.1,0.8,2,2,2h2.9c0,3.2-2.5,4.4-4.8,4.4c-3.6,0-5.3-3-5.3-6.4s1.8-6.4,5.3-6.4
			c3.7,0,4.1,2,6,2c1,0,1.7-0.8,1.7-2c0-2-3.5-3.9-7.7-3.9c-5.7,0-9.6,4.5-9.6,10.3s3.9,10.3,9.6,10.3c5.6,0,9.1-4.1,9.1-9.5
			c0-1.8-0.7-2.7-2.5-2.7L-203.5-332.8L-203.5-332.8z M-194.6-323.1c0,1.3,1,2.1,2.2,2.1h5.8c3.9,0,6.5-2.1,6.5-6.1
			c0-2.4-1.9-4.4-4.3-4.8v-0.1c1.8-0.8,2.6-2.2,2.6-4.1c0-3-2.4-4.9-5.3-4.9h-5.4c-1.3,0-2.2,0.8-2.2,2.1L-194.6-323.1L-194.6-323.1
			z M-190.4-337.2h2.2c1.2,0,2.3,0.7,2.3,2c0,1.4-0.9,2.2-2.3,2.2h-2.2V-337.2z M-190.4-329.3h3c2,0,3,0.9,3,2.2
			c0,1.6-1.1,2.4-2.6,2.4h-3.3L-190.4-329.3L-190.4-329.3z M-178.2-331.8c0,1.2,1,2.2,2.2,2.2s2.2-1,2.2-2.2s-1-2.2-2.2-2.2
			S-178.2-333-178.2-331.8L-178.2-331.8z M-178.2-322.8c0,1.2,1,2.2,2.2,2.2s2.2-1,2.2-2.2s-1-2.2-2.2-2.2S-178.2-324.1-178.2-322.8
			L-178.2-322.8z M-160.2-322.1c0,0.8,0.5,1.3,1.2,1.3c0.8,0,1.2-0.5,1.2-1.3v-18.2c0-0.6-0.3-0.7-0.8-0.7h-4.3
			c-0.6,0-1.1,0.5-1.1,1.1s0.5,1.1,1.1,1.1h2.6v16.7H-160.2z M-141.6-326.9c0-2.3-1.2-4.2-3.4-4.8c1.6-1,2.4-2.6,2.4-4.2
			c0-2.8-2-5.2-5.2-5.2c-3.3,0-5.2,2.4-5.2,5c0,0.6,0.4,1.1,1.1,1.1c0.4,0,1.1,0,1.2-1.1c0.1-1.5,0.9-2.9,2.8-2.9
			c1.7,0,2.8,1.3,2.8,3.2c0,1.8-0.8,2.8-2.8,3.2c-0.9,0.2-1.3,0.5-1.3,1.1s0.5,1.1,1.5,1.1c1.8,0,3.5,0.8,3.5,3.7
			c0,2-1.6,3.7-3.8,3.7c-1.9,0-2.9-1.1-3.4-2.5c-0.3-0.9-0.6-1.3-1.4-1.3c-0.6,0-1,0.5-1,1.4c0,1.5,1.7,4.6,5.8,4.6
			C-144.4-320.8-141.6-323.1-141.6-326.9L-141.6-326.9z M-133.5-338.8h5.7c0.6,0,1.1-0.5,1.1-1.1s-0.5-1.1-1.1-1.1h-6.9
			c-0.6,0-0.8,0.1-0.9,0.6l-1,7c-0.1,0.6-0.2,1.3-0.2,1.7c0,0.4,0.3,0.8,0.8,0.8c0.7,0,1.6-0.8,3.4-0.8c2.4,0,3.4,1.9,3.4,4.2
			s-1.4,4.3-3.8,4.3c-2.8,0-3.7-2.1-4.7-2.1c-0.6,0-0.9,0.6-0.9,1.1c0,1.2,2.3,3.3,5.6,3.3c4,0,6.5-2.8,6.5-7.1c0-3.1-2-6-5.1-6
			c-0.9,0-1.8,0.1-2.6,0.6L-133.5-338.8z M-124-319.6c-0.2,0.4-0.3,0.7-0.3,1c0,0.6,0.5,1.1,1.1,1.1c0.7,0,1-0.5,1.3-1l1.6-3.1
			c0.2-0.4,0.3-0.7,0.3-1c0-0.6-0.5-1.1-1.1-1.1c-0.7,0-1,0.5-1.3,1L-124-319.6z M-115.5-336.5c0,2.1,0.8,3.3,2.6,4.4
			c-2.3,0.5-3.6,2.7-3.6,5c0,3.2,2.2,6.3,6.1,6.3s6.1-3.1,6.1-6.3c0-2.3-1.3-4.5-3.6-5c1.8-1.1,2.6-2.3,2.6-4.4
			c0-3.1-2.6-4.6-5.1-4.6S-115.5-339.6-115.5-336.5L-115.5-336.5z M-113.2-336.1c0-1.7,1-2.9,2.8-2.9s2.8,1.2,2.8,2.9
			c0,1.7-1,2.9-2.8,2.9C-112.1-333.1-113.2-334.4-113.2-336.1L-113.2-336.1z M-113.9-327c0-2,1.2-4,3.5-4s3.5,1.9,3.5,4
			c0,2.6-1.6,4.1-3.5,4.1C-112.2-323-113.9-324.4-113.9-327L-113.9-327z M-96.5-338.8h5.7c0.6,0,1.1-0.5,1.1-1.1s-0.5-1.1-1.1-1.1
			h-6.9c-0.6,0-0.8,0.1-0.9,0.6l-1,7c-0.1,0.6-0.2,1.3-0.2,1.7c0,0.4,0.3,0.8,0.8,0.8c0.7,0,1.6-0.8,3.4-0.8c2.4,0,3.4,1.9,3.4,4.2
			s-1.4,4.3-3.8,4.3c-2.8,0-3.7-2.1-4.7-2.1c-0.6,0-0.9,0.6-0.9,1.1c0,1.2,2.3,3.3,5.6,3.3c4,0,6.5-2.8,6.5-7.1c0-3.1-2-6-5.1-6
			c-0.9,0-1.8,0.1-2.6,0.6L-96.5-338.8z M-86.9-319.6c-0.2,0.4-0.3,0.7-0.3,1c0,0.6,0.5,1.1,1.1,1.1c0.7,0,1-0.5,1.3-1l1.6-3.1
			c0.2-0.4,0.3-0.7,0.3-1c0-0.6-0.5-1.1-1.1-1.1c-0.7,0-1,0.5-1.3,1L-86.9-319.6z M-76.3-322.1c0,0.8,0.5,1.3,1.2,1.3
			s1.2-0.5,1.2-1.3v-18.2c0-0.6-0.3-0.7-0.8-0.7H-79c-0.6,0-1.1,0.5-1.1,1.1s0.5,1.1,1.1,1.1h2.6L-76.3-322.1L-76.3-322.1z
			 M-70.1-331c0,6.4,2.9,10.1,6.6,10.1c3.6,0,6.6-3.7,6.6-10.1s-2.9-10.1-6.6-10.1S-70.1-337.4-70.1-331L-70.1-331z M-67.5-331
			c0-5.6,1.8-8,3.9-8c2.2,0,3.9,2.4,3.9,8s-1.8,8-3.9,8C-65.7-323-67.5-325.4-67.5-331L-67.5-331z M-53.6-336.5
			c0,2.1,0.8,3.3,2.6,4.4c-2.3,0.5-3.6,2.7-3.6,5c0,3.2,2.2,6.3,6.1,6.3s6.1-3.1,6.1-6.3c0-2.3-1.3-4.5-3.6-5
			c1.8-1.1,2.6-2.3,2.6-4.4c0-3.1-2.6-4.6-5.1-4.6S-53.6-339.6-53.6-336.5L-53.6-336.5z M-51.3-336.1c0-1.7,1-2.9,2.8-2.9
			s2.8,1.2,2.8,2.9c0,1.7-1,2.9-2.8,2.9S-51.3-334.4-51.3-336.1L-51.3-336.1z M-52-327c0-2,1.2-4,3.5-4s3.5,1.9,3.5,4
			c0,2.6-1.6,4.1-3.5,4.1S-52-324.4-52-327L-52-327z"/>
		<path id="Sass:-_x24_color-blackch" class="st3" d="M-317.3-247.6c-3.6,0.6-6.4,3.6-5.7,7.4c1.1,6.4,10,2.8,10.6,6.1
			c0.2,1.4-0.6,2.5-2.4,2.9c-1.8,0.3-3.5-0.5-4.8-0.3c-1.1,0.2-1.7,1.2-1.5,2.3c0.5,2.6,5.1,2.3,7.2,1.9c3.8-0.7,6.6-3.7,5.9-7.6
			c-1.3-7.1-10.1-3.7-10.6-6.5c-0.2-1.2,0.8-2,1.9-2.2c1.7-0.3,2.7,0.4,3.8,0.2s1.7-1.3,1.5-2.4C-311.8-248-315.7-247.9-317.3-247.6
			L-317.3-247.6z M-293.9-243.8c-0.2-1-0.5-2.6-2.4-2.3c-1,0.2-1.7,1-1.6,2c-1.1-1.1-2.6-1.4-4.1-1.2c-3.6,0.6-6,4.5-5.2,8.9
			c0.8,4.5,4.2,7.1,7.9,6.5c1.5-0.3,2.6-1.1,3.5-2.5c0.5,1,1,1.6,2.2,1.3c1.9-0.3,1.6-1.9,1.4-2.9L-293.9-243.8z M-303.2-237.1
			c-0.3-1.9,0.3-4.2,2.4-4.6c2.1-0.4,3.4,1.6,3.8,3.5c0.3,1.9-0.3,4.2-2.4,4.5C-301.5-233.2-302.8-235.2-303.2-237.1L-303.2-237.1z
			 M-281.6-245.8c-0.3-2-3.5-2.3-5.5-2c-3.1,0.6-5,2.8-4.6,5.6c0.8,4.5,7.6,3.1,8,4.9c0.1,0.7-0.2,1.2-1.4,1.4
			c-1.9,0.3-2.8-0.9-4.3-0.6c-1.1,0.2-1.5,1.5-1.4,2.1c0.3,1.8,3.8,2.5,6.1,2.1c3.4-0.6,5.3-3,4.8-5.7c-0.8-4.5-7.6-3-8-4.9
			c-0.1-0.8,0.4-1.2,1.2-1.3c1.3-0.2,3,0.7,3.8,0.5C-282-244-281.4-244.9-281.6-245.8L-281.6-245.8z M-269.9-247.9
			c-0.3-2-3.5-2.3-5.5-2c-3.1,0.6-5,2.8-4.6,5.6c0.8,4.5,7.6,3.1,8,4.9c0.1,0.7-0.2,1.2-1.4,1.4c-1.9,0.3-2.8-0.9-4.3-0.6
			c-1.1,0.2-1.5,1.5-1.4,2.1c0.3,1.8,3.8,2.5,6.1,2.1c3.4-0.6,5.3-3,4.8-5.7c-0.8-4.5-7.6-3-8-4.9c-0.1-0.8,0.4-1.2,1.2-1.3
			c1.3-0.2,3,0.7,3.8,0.5C-270.2-246-269.7-247-269.9-247.9L-269.9-247.9z M-267.4-246.8c0.2,1.2,1.3,2,2.5,1.8s2-1.3,1.8-2.5
			s-1.3-2-2.5-1.8C-266.8-249.2-267.6-248-267.4-246.8L-267.4-246.8z M-265.9-238c0.2,1.2,1.3,2,2.5,1.8s2-1.3,1.8-2.5
			s-1.3-2-2.5-1.8C-265.3-240.3-266.1-239.2-265.9-238L-265.9-238z M-248.4-251.7c-1.6-0.3-2.9-0.8-3.1-2.3s0.6-2.8,2.2-3.3
			L-248.4-251.7z M-246.6-241.5c-2.5,0.4-3.7-0.9-4.7-0.7c-0.6,0.1-0.9,0.7-0.8,1.3c0.2,1.2,3.1,2,5.9,1.5l0.2,1.3
			c0.1,0.3,0.3,0.5,0.7,0.5s0.5-0.4,0.5-0.7l-0.2-1.4c3.5-1.1,5-4.1,4.4-7.1c-0.7-3.7-3.8-4.2-6.5-4.7l-1.1-6c1.9,0,2.4,0.9,3.4,0.7
			c0.6-0.1,1-0.7,0.9-1.3c-0.2-1.2-2.4-1.8-4.6-1.5l-0.2-1.3c-0.1-0.3-0.3-0.5-0.7-0.5s-0.5,0.4-0.5,0.7l0.2,1.3
			c-3.3,0.9-4.7,3.8-4.3,6c0.6,3.4,3.5,3.8,6.2,4.3L-246.6-241.5z M-246.7-248.9c1.7,0.3,3.2,0.9,3.5,2.7c0.3,2-0.5,3.7-2.2,4.4
			L-246.7-248.9z M-239.4-248.3c0.7,3.9,3.5,7.1,7.9,6.3c2.5-0.4,3.7-1.7,3.5-2.6c-0.1-0.7-0.6-1-1.1-0.9c-0.8,0.1-1.1,1-2.8,1.3
			c-3,0.5-4.7-2.2-5.1-4.7s0.2-5.6,3.2-6.1c1.7-0.3,2.1,0.4,3.1,0.3c0.6-0.1,0.9-0.7,0.8-1.2c-0.2-1-1.8-1.6-4.3-1.2
			C-238.5-256.2-240-252.2-239.4-248.3L-239.4-248.3z M-227.1-250.5c0.7,3.9,3.6,7.1,7.8,6.4c4.1-0.7,5.8-4.8,5.1-8.6
			c-0.7-3.9-3.6-7.1-7.8-6.4C-226.1-258.4-227.8-254.4-227.1-250.5L-227.1-250.5z M-224.7-250.9c-0.4-2.5,0.1-5.6,3.1-6.1
			s4.5,2.2,5,4.7c0.4,2.5-0.1,5.6-3.1,6.1S-224.3-248.5-224.7-250.9L-224.7-250.9z M-211.5-266.3c-0.1-0.8-0.7-1.2-1.4-1.1
			s-1.1,0.7-1,1.5l3.3,18.9c0.1,0.8,0.7,1.2,1.4,1.1c0.7-0.1,1.1-0.7,1-1.5L-211.5-266.3z M-206.7-254.1c0.7,3.9,3.6,7.1,7.8,6.4
			c4.1-0.7,5.8-4.8,5.1-8.6c-0.7-3.9-3.6-7.1-7.8-6.4S-207.3-258-206.7-254.1L-206.7-254.1z M-204.2-254.5c-0.4-2.5,0.1-5.6,3.1-6.1
			s4.5,2.2,5,4.7c0.5,2.5-0.1,5.6-3.1,6.1S-203.8-252.1-204.2-254.5L-204.2-254.5z M-190.1-250.6c0.1,0.8,0.7,1.2,1.4,1.1
			c0.7-0.1,1.1-0.7,1-1.5l-1.2-7c-0.5-2.8,1.1-4.2,2.5-4.7c1-0.4,1.4-0.9,1.3-1.6s-0.7-1.2-1.6-1c-1.4,0.2-2.5,1.9-2.9,3.1h-0.1
			l-0.2-1.2c-0.1-0.8-0.7-1.2-1.4-1.1s-1.1,0.7-1,1.5L-190.1-250.6z M-176.2-258.5c0.6-0.1,1-0.7,0.9-1.2c-0.1-0.6-0.7-1-1.2-0.9
			l-5.7,1c-0.6,0.1-1,0.7-0.9,1.2c0.1,0.6,0.7,1,1.2,0.9L-176.2-258.5z M-170.5-260.5c-0.4-2.5,0.1-5.6,3.1-6.1s4.5,2.2,5,4.7
			s-0.1,5.6-3.1,6.1C-168.5-255.3-170.1-258-170.5-260.5L-170.5-260.5z M-171.6-253.9c0.1,0.8,0.7,1.2,1.4,1.1
			c0.7-0.1,1.1-0.7,1-1.5l-0.1-0.7h0.1c0.9,1.2,2.3,1.7,4.3,1.3c4-0.7,5.6-4.7,4.9-8.6c-0.7-3.9-3.6-7.1-7.6-6.4
			c-1.9,0.3-3.1,1.7-3.6,2.7h-0.1l-1.3-7.1c-0.1-0.8-0.7-1.2-1.4-1.1s-1.1,0.7-1,1.5L-171.6-253.9z M-157.3-275.9
			c-0.1-0.8-0.7-1.2-1.4-1.1s-1.1,0.7-1,1.5l3.3,18.9c0.1,0.8,0.7,1.2,1.4,1.1c0.7-0.1,1.1-0.7,1-1.5L-157.3-275.9z M-140.8-272.2
			c-0.2-0.9-0.9-1.1-1.3-1c-0.5,0.1-1.1,0.5-0.9,1.4l0.1,0.8h-0.1c-1.3-1-2.7-1.5-4.3-1.3c-4.1,0.7-5.8,4.8-5.1,8.6
			c0.7,3.9,3.6,7.1,7.8,6.4c1.6-0.3,2.8-1.2,3.6-2.9h0.1l0.2,1c0.2,0.9,0.8,1.1,1.3,1s1.1-0.5,0.9-1.4L-140.8-272.2z M-150-264.1
			c-0.4-2.5,0.1-5.6,3.1-6.1s4.5,2.2,5,4.7s-0.1,5.6-3.1,6.1S-149.6-261.6-150-264.1L-150-264.1z M-137.1-266.4
			c0.7,3.9,3.5,7.1,7.9,6.3c2.5-0.4,3.7-1.7,3.5-2.6c-0.1-0.7-0.6-1-1.1-0.9c-0.8,0.1-1.1,1-2.8,1.3c-3,0.5-4.7-2.2-5.1-4.7
			s0.2-5.6,3.2-6.1c1.7-0.3,2.1,0.4,3.1,0.3c0.6-0.1,0.9-0.7,0.8-1.2c-0.2-1-1.8-1.6-4.3-1.2C-136.3-274.2-137.8-270.3-137.1-266.4
			L-137.1-266.4z M-123.2-262.4c0.1,0.8,0.7,1.2,1.4,1.1s1.1-0.7,1-1.5l-1-5.8l7.2,5.3c0.7,0.5,1,0.6,1.5,0.5s0.9-0.6,0.9-1.1
			c-0.1-0.5-0.2-0.8-0.8-1.1l-7.5-5.2l4.7-5.3c0.4-0.4,0.5-0.8,0.4-1.2c-0.1-0.6-0.6-1-1.2-0.9c-0.4,0.1-0.8,0.5-1.2,1l-4.5,5.4
			l-1.8-10.3c-0.1-0.8-0.7-1.2-1.4-1.1c-0.7,0.1-1.1,0.7-1,1.5L-123.2-262.4z M-112.1-270.8c0.7,3.9,3.5,7.1,7.9,6.3
			c2.5-0.4,3.7-1.7,3.5-2.6c-0.1-0.7-0.6-1-1.1-0.9c-0.8,0.1-1.1,1-2.8,1.3c-3,0.5-4.7-2.2-5.1-4.7s0.2-5.6,3.2-6.1
			c1.7-0.3,2.1,0.4,3.1,0.3c0.6-0.1,0.9-0.7,0.8-1.2c-0.2-1-1.8-1.6-4.3-1.2C-111.3-278.7-112.8-274.7-112.1-270.8L-112.1-270.8z
			 M-89-268.5c0.1,0.8,0.7,1.2,1.4,1.1s1.1-0.7,1-1.5L-88-277c-0.7-4.1-3.8-5.1-6.1-4.7c-1.5,0.3-2.9,1.1-3.7,2.6h-0.1l-1.2-7
			c-0.1-0.8-0.7-1.2-1.4-1.1s-1.1,0.7-1,1.5l3.3,18.9c0.1,0.8,0.7,1.2,1.4,1.1c0.7-0.1,1.1-0.7,1-1.5l-1.4-8
			c-0.5-2.6,1.2-3.9,2.8-4.2c1.6-0.3,3.6,0.4,4,3L-89-268.5z M-73.6-276.6c1-0.2,1.3-0.7,1.1-1.5c-0.6-3.5-3.6-6.7-7.6-6
			c-4.1,0.7-6,4.7-5.3,8.7c0.7,3.9,3.4,7.1,8.1,6.3c2.9-0.5,5.6-2.9,5.3-4c-0.1-0.7-0.6-1-1.1-0.9c-0.9,0.2-1.4,2.3-4.6,2.9
			c-2.7,0.5-4.7-1.2-5.1-3.7L-73.6-276.6z M-83-276.8c-0.3-2.2,0.3-4.8,3.4-5.3c2.7-0.5,4.3,1.7,4.7,3.8L-83-276.8z M-69-272
			c0.1,0.8,0.7,1.2,1.4,1.1c0.7-0.1,1.1-0.7,1-1.5l-1.2-7c-0.5-2.8,1.1-4.2,2.5-4.7c1-0.4,1.4-0.9,1.3-1.6s-0.7-1.2-1.6-1
			c-1.4,0.2-2.5,1.9-2.9,3.1h-0.1l-0.2-1.2c-0.1-0.8-0.7-1.2-1.4-1.1c-0.7,0.1-1.1,0.7-1,1.5L-69-272z M-60.3-273.5
			c0.1,0.8,0.7,1.2,1.4,1.1s1.1-0.7,1-1.5l-1.2-7c-0.5-2.8,1.1-4.2,2.5-4.7c1-0.4,1.4-0.9,1.3-1.6s-0.7-1.2-1.6-1
			c-1.4,0.2-2.5,1.9-2.9,3.1h-0.1l-0.2-1.2c-0.1-0.8-0.7-1.2-1.4-1.1s-1.1,0.7-1,1.5L-60.3-273.5z M-48.2-275l-0.8,4.4
			c-0.2,0.9-0.2,1.1-0.1,1.4c0.1,0.6,0.7,0.9,1.3,0.8s0.9-0.6,1-1.1l3-18.6c0.1-0.9,0.1-1.1,0.1-1.4c-0.1-0.6-0.7-0.9-1.3-0.8
			s-0.9,0.6-1,1.1l-1.5,10.6h-0.1l-5.1-9.5c-0.3-0.5-0.8-0.8-1.4-0.7s-1,0.6-0.9,1.2c0,0.3,0.1,0.5,0.6,1.3L-48.2-275z"/>
	</g>
</g>
<title>colour-midnight-values</title>
<desc>Created with Sketch.</desc>
<rect x="189.3" y="-55.9" transform="matrix(0.1784 -0.984 0.984 0.1784 136.8437 227.517)" class="st4" width="30.7" height="175.5"/>
<g class="st5">
	<path class="st3" d="M132.7,7c0.2-1.4,1.3-2,2.5-1.8s1.9,1.1,1.7,2.5l-1.1,5.8l8.7,1.6l1.1-5.8c0.2-1.4,1.3-2,2.5-1.8
		c1.2,0.2,1.9,1.1,1.7,2.5l-2.8,15.6c-0.2,1.4-1.3,2-2.5,1.8c-1.2-0.2-1.9-1.1-1.7-2.5l1.1-6l-8.7-1.6l-1.1,6
		c-0.2,1.4-1.3,2-2.5,1.8s-1.9-1.1-1.7-2.5L132.7,7z"/>
	<path class="st3" d="M153.1,22.7c-0.1,2,1.4,3.2,3.2,3.5c2,0.4,3.7-1,4.8-0.8c0.9,0.2,1.5,1.1,1.3,2c-0.3,1.7-4.1,2.7-7.1,2.2
		c-4.5-0.8-6.8-4.6-6.1-9c0.7-4,4.3-7.2,8.5-6.4c4.3,0.8,6.4,5.2,5.8,8.5c-0.2,1.2-0.8,1.7-2.1,1.4L153.1,22.7z M159.8,21.1
		c0.1-1.8-0.8-3.3-2.6-3.6c-1.8-0.3-3.2,0.8-3.7,2.5L159.8,21.1z"/>
	<path class="st3" d="M168.5,23.7l-2.7-4.4c-0.3-0.4-0.4-1-0.3-1.5c0.2-1,1.4-1.7,2.4-1.6c0.6,0.1,1,0.5,1.3,1l2.2,4l3.4-3
		c0.5-0.4,1-0.6,1.6-0.5c1,0.2,1.9,1.3,1.7,2.3c-0.1,0.5-0.5,1-0.9,1.3l-4,3.2l3.2,5.3c0.2,0.4,0.4,1,0.3,1.4
		c-0.2,1.2-1.1,1.8-2.3,1.6c-0.9-0.2-1.2-0.6-1.5-1.2l-2.6-4.6l-4,3.4c-0.5,0.4-0.9,0.7-1.8,0.6c-1.2-0.2-1.8-1.1-1.6-2.3
		c0.1-0.4,0.4-1,0.8-1.3L168.5,23.7z"/>
	<path class="st3" d="M180.7,29.8c1.2,0.2,2,1.4,1.8,2.5c-0.2,1.2-1.4,2-2.5,1.8s-2-1.4-1.8-2.5C178.4,30.3,179.5,29.5,180.7,29.8z
		 M182.3,20.9c1.2,0.2,2,1.4,1.8,2.5c-0.2,1.2-1.4,2-2.5,1.8s-2-1.4-1.8-2.5C180,21.5,181.1,20.7,182.3,20.9z"/>
</g>
<g class="st5">
	<path class="st3" d="M201,36.7c-0.2,0.6-0.5,0.9-1.2,0.8c-0.7-0.1-0.9-0.6-0.8-1.1c0.1-0.3,0.2-0.6,0.3-1.1l1.3-3.9l-3.3-0.6
		l-1.6,5c-0.2,0.6-0.5,0.9-1.2,0.8c-0.7-0.1-0.9-0.6-0.8-1.1c0.1-0.3,0.2-0.6,0.3-1.1l1.3-3.9l-1.7-0.3c-0.6-0.1-1.1-0.5-1-1.1
		c0.1-0.6,0.7-0.8,1.3-0.7l1.9,0.3l1.3-4l-1.7-0.3c-0.6-0.1-1.1-0.5-1-1.1c0.1-0.6,0.7-0.8,1.3-0.7l1.9,0.3l1.6-5
		c0.2-0.6,0.5-0.9,1.2-0.8c0.7,0.1,0.9,0.6,0.8,1.1c-0.1,0.3-0.2,0.6-0.3,1.1l-1.3,3.9l3.3,0.6l1.6-5c0.2-0.6,0.5-0.9,1.2-0.8
		c0.7,0.1,0.9,0.6,0.8,1.1c-0.1,0.3-0.2,0.6-0.3,1.1l-1.3,3.9l1.7,0.3c0.6,0.1,1.1,0.5,1,1.1c-0.1,0.6-0.7,0.8-1.3,0.7l-1.9-0.3
		l-1.3,4l1.7,0.3c0.6,0.1,1.1,0.5,1,1.1c-0.1,0.6-0.7,0.8-1.3,0.7l-1.9-0.3L201,36.7z M202.5,25.6l-3.3-0.6l-1.3,4l3.3,0.6
		L202.5,25.6z"/>
	<path class="st3" d="M216.8,20c2.5,0.4,4.7,2.4,4.2,5.4c-0.4,2.1-1.4,3.1-3.4,3.9c2.2,0.9,3.1,3.3,2.7,5.5
		c-0.6,3.2-3.3,5.8-7.1,5.1s-5.5-4.1-4.9-7.3c0.4-2.3,2.1-4.2,4.4-4.3c-1.6-1.4-2.2-2.7-1.8-4.8C211.5,20.6,214.3,19.5,216.8,20z
		 M213.6,37.8c1.8,0.3,3.7-0.8,4.1-3.4c0.4-2-0.4-4.1-2.7-4.5c-2.3-0.4-3.8,1.3-4.1,3.3C210.4,35.8,211.8,37.5,213.6,37.8z
		 M215.4,27.8c1.7,0.3,3-0.7,3.3-2.4c0.3-1.7-0.5-3.1-2.2-3.4s-3,0.7-3.3,2.4C212.9,26.1,213.7,27.5,215.4,27.8z"/>
	<path class="st3" d="M223.2,34.8c1-5.7,5.7-9.4,9.1-11.4c0.6-0.3,0.9-0.4,1.2-0.3c0.4,0.1,0.9,0.6,0.8,1.3
		c-0.1,0.4-0.4,0.6-1.2,1.1c-1.8,1.1-3.2,2.2-5.2,4.7l0.1,0c1-0.3,1.9-0.4,3.3-0.2c3.2,0.6,4.4,3.9,3.8,7.3
		c-0.6,3.6-3.7,5.9-7.2,5.3C224.5,42,222.5,38.7,223.2,34.8z M228.3,40.3c2.4,0.4,3.8-1.3,4.2-3.6c0.5-2.6-0.3-4.4-2.7-4.9
		c-2.4-0.4-3.8,1.4-4.2,3.6C225.2,37.7,225.9,39.9,228.3,40.3z"/>
	<path class="st3" d="M240.4,26.6c-0.6-0.1-1-0.7-0.9-1.2c0.1-0.6,0.7-1,1.2-0.9l9.9,1.8c0.7,0.1,1.2,0.4,1.1,1
		c-0.1,0.4-0.3,0.7-0.7,1.4L240.7,44c-0.5,0.7-1.1,0.7-1.6,0.6c-0.3-0.1-0.9-0.5-0.7-1.1c0-0.2,0.2-0.6,0.6-1.2l9.7-14.2l0-0.1
		L240.4,26.6z"/>
	<path class="st3" d="M260.1,27.8c2.5,0.4,4.7,2.4,4.2,5.4c-0.4,2.1-1.4,3.1-3.4,3.9c2.2,0.9,3.1,3.3,2.7,5.5
		c-0.6,3.2-3.3,5.8-7.1,5.1s-5.5-4.1-4.9-7.3c0.4-2.3,2.1-4.2,4.4-4.3c-1.6-1.4-2.2-2.7-1.8-4.8C254.8,28.4,257.6,27.4,260.1,27.8z
		 M256.9,45.7c1.8,0.3,3.7-0.8,4.1-3.4c0.4-2-0.4-4.1-2.7-4.5c-2.3-0.4-3.8,1.3-4.1,3.3C253.7,43.6,255.1,45.4,256.9,45.7z
		 M258.7,35.7c1.7,0.3,3-0.7,3.3-2.4c0.3-1.7-0.5-3.1-2.2-3.4s-3,0.7-3.3,2.4C256.2,34,257,35.4,258.7,35.7z"/>
	<path class="st3" d="M266.5,42.6c1-5.7,5.7-9.4,9.1-11.4c0.6-0.3,0.9-0.4,1.2-0.3c0.4,0.1,0.9,0.6,0.8,1.3
		c-0.1,0.4-0.4,0.6-1.2,1.1c-1.8,1.1-3.2,2.2-5.2,4.7l0.1,0c1-0.3,1.9-0.4,3.3-0.2c3.2,0.6,4.4,3.9,3.8,7.3
		c-0.6,3.6-3.7,5.9-7.2,5.3C267.8,49.8,265.8,46.5,266.5,42.6z M271.6,48.2c2.4,0.4,3.8-1.3,4.2-3.6c0.5-2.6-0.3-4.4-2.7-4.9
		c-2.4-0.4-3.8,1.4-4.2,3.6C268.5,45.6,269.2,47.7,271.6,48.2z"/>
	<path class="st3" d="M282.9,51.2c-0.1,0.8-0.7,1.2-1.4,1.1c-0.7-0.1-1.1-0.7-1-1.5l3.1-17.2c0.1-0.7,0.6-1.3,1.5-1.1l6.9,1.2
		c0.7,0.1,1.1,0.6,1,1.3s-0.7,1-1.4,0.9l-5.8-1l-1.2,6.4l5.1,0.9c0.7,0.1,1.1,0.6,1,1.3c-0.1,0.8-0.7,1-1.4,0.9l-5.1-0.9L282.9,51.2
		z"/>
</g>
<rect x="48.8" y="86.5" class="st4" width="234" height="39.4"/>
<g class="st5">
	<path class="st3" d="M94.3,90.4c0-1.3,0.8-2.2,2.2-2.2h4.9c4.3,0,7,1.9,7,6.3c0,3.1-2.3,4.8-5.2,5.3l4.8,5.1
		c0.4,0.4,0.6,0.8,0.6,1.2c0,1.1-0.9,2.2-2.1,2.2c-0.5,0-1.2-0.2-1.6-0.7l-6.2-7.5h-0.1v6.1c0,1.4-0.9,2.2-2.1,2.2s-2.1-0.8-2.1-2.2
		V90.4z M98.5,97h2.9c1.5,0,2.6-0.9,2.6-2.5c0-1.6-1.1-2.5-2.6-2.5h-2.9V97z"/>
	<path class="st3" d="M125.4,96.3c1.8,0,2.5,0.9,2.5,2.7c0,5.4-3.5,9.5-9.1,9.5c-5.7,0-9.6-4.5-9.6-10.3c0-5.8,3.9-10.3,9.6-10.3
		c4.2,0,7.7,2,7.7,3.9c0,1.2-0.8,2-1.7,2c-1.9,0-2.3-2-6-2c-3.5,0-5.3,3.1-5.3,6.4c0,3.4,1.7,6.4,5.3,6.4c2.2,0,4.8-1.2,4.8-4.4
		h-2.9c-1.1,0-2-0.8-2-2c0-1.2,0.9-1.9,2-1.9H125.4z"/>
	<path class="st3" d="M129.6,90.3c0-1.3,0.9-2.1,2.2-2.1h5.4c2.9,0,5.3,2,5.3,4.9c0,2-0.8,3.3-2.6,4.1v0.1c2.4,0.3,4.3,2.3,4.3,4.8
		c0,3.9-2.6,6.1-6.5,6.1h-5.8c-1.3,0-2.2-0.8-2.2-2.1V90.3z M133.8,96.1h2.2c1.4,0,2.3-0.8,2.3-2.2c0-1.3-1-2-2.3-2h-2.2V96.1z
		 M133.8,104.4h3.3c1.5,0,2.6-0.9,2.6-2.4c0-1.3-1-2.2-3-2.2h-3V104.4z"/>
	<path class="st3" d="M148.2,95.1c1.2,0,2.2,1,2.2,2.2s-1,2.2-2.2,2.2s-2.2-1-2.2-2.2S147,95.1,148.2,95.1z M148.2,104.1
		c1.2,0,2.2,1,2.2,2.2s-1,2.2-2.2,2.2s-2.2-1-2.2-2.2S147,104.1,148.2,104.1z"/>
</g>
<g class="st5">
	<path class="st3" d="M164,90.3h-2.6c-0.6,0-1.1-0.5-1.1-1.1s0.5-1.1,1.1-1.1h4.3c0.5,0,0.8,0.1,0.8,0.7V107c0,0.8-0.5,1.3-1.2,1.3
		c-0.8,0-1.2-0.5-1.2-1.3V90.3z"/>
	<path class="st3" d="M176.3,108.3c-4.1,0-5.8-3.1-5.8-4.6c0-0.9,0.4-1.4,1-1.4c0.7,0,1.1,0.4,1.4,1.3c0.5,1.4,1.5,2.5,3.4,2.5
		c2.2,0,3.8-1.7,3.8-3.7c0-3-1.6-3.7-3.5-3.7c-1,0-1.5-0.4-1.5-1.1c0-0.6,0.4-0.9,1.3-1.1c2-0.4,2.8-1.4,2.8-3.2
		c0-1.9-1.1-3.2-2.8-3.2c-2,0-2.7,1.4-2.8,2.9c-0.1,1.1-0.8,1.1-1.2,1.1c-0.7,0-1.1-0.5-1.1-1.1c0-2.7,1.9-5,5.2-5
		c3.2,0,5.2,2.4,5.2,5.2c0,1.7-0.8,3.3-2.4,4.2c2.2,0.7,3.4,2.6,3.4,4.8C182.6,106,179.8,108.3,176.3,108.3z"/>
	<path class="st3" d="M185.7,103c-0.8,0-1.1-0.4-1.1-0.9c0-0.4,0.3-0.8,0.6-1.4l7.1-11.6c0.5-0.8,1.1-1.1,1.9-1.1
		c1.1,0,1.9,0.6,1.9,2v10.8h1.3c0.6,0,1.1,0.5,1.1,1.1c0,0.6-0.5,1.1-1.1,1.1h-1.3v4c0,0.8-0.5,1.3-1.2,1.3s-1.2-0.5-1.2-1.3v-4
		H185.7z M193.7,100.9V90.7h-0.1l-5.9,10.2H193.7z"/>
	<path class="st3" d="M201.8,106.5c0.3-0.5,0.6-1,1.3-1c0.6,0,1.1,0.4,1.1,1.1c0,0.3-0.1,0.6-0.3,1l-1.6,3.1c-0.3,0.5-0.6,1-1.3,1
		c-0.6,0-1.1-0.4-1.1-1.1c0-0.3,0.1-0.6,0.3-1L201.8,106.5z"/>
	<path class="st3" d="M210.9,90.3h-2.6c-0.6,0-1.1-0.5-1.1-1.1s0.5-1.1,1.1-1.1h4.3c0.5,0,0.8,0.1,0.8,0.7V107
		c0,0.8-0.5,1.3-1.2,1.3c-0.8,0-1.2-0.5-1.2-1.3V90.3z"/>
	<path class="st3" d="M228.8,106c0.6,0,1.1,0.5,1.1,1.1c0,0.6-0.5,1.1-1.1,1.1h-9.7c-1,0-1.3-0.6-1.3-1c0-0.3,0.1-0.5,0.5-1.1
		l6.9-9.2c0.8-1.1,1.5-2.3,1.5-3.5c0-1.8-1.4-3.1-3.2-3.1c-2.4,0-3.6,2-3.6,4.5c0,0.9-0.6,1.1-1.1,1.1c-0.8,0-1.2-0.5-1.2-1.5
		c0-3.3,2.2-6.2,6.4-6.2c3.3,0,5.4,2.4,5.4,5c0,1.1-0.1,2.4-1.4,4.1l-6.7,8.9H228.8z"/>
	<path class="st3" d="M238.7,88c3.6,0,6.6,3.7,6.6,10.1c0,6.4-2.9,10.1-6.6,10.1c-3.6,0-6.6-3.7-6.6-10.1
		C232.1,91.7,235.1,88,238.7,88z M238.7,106.2c2.2,0,3.9-2.4,3.9-8c0-5.6-1.8-8-3.9-8s-3.9,2.4-3.9,8
		C234.7,103.7,236.5,106.2,238.7,106.2z"/>
	<path class="st3" d="M248.7,106.5c0.3-0.5,0.6-1,1.3-1c0.6,0,1.1,0.4,1.1,1.1c0,0.3-0.1,0.6-0.3,1l-1.6,3.1c-0.3,0.5-0.6,1-1.3,1
		c-0.6,0-1.1-0.4-1.1-1.1c0-0.3,0.1-0.6,0.3-1L248.7,106.5z"/>
	<path class="st3" d="M257.8,90.3h-2.6c-0.6,0-1.1-0.5-1.1-1.1s0.5-1.1,1.1-1.1h4.3c0.5,0,0.8,0.1,0.8,0.7V107
		c0,0.8-0.5,1.3-1.2,1.3s-1.2-0.5-1.2-1.3V90.3z"/>
	<path class="st3" d="M267.6,90.3h-2.6c-0.6,0-1.1-0.5-1.1-1.1s0.5-1.1,1.1-1.1h4.3c0.5,0,0.8,0.1,0.8,0.7V107
		c0,0.8-0.5,1.3-1.2,1.3s-1.2-0.5-1.2-1.3V90.3z"/>
	<path class="st3" d="M277.5,90.3h-2.6c-0.6,0-1.1-0.5-1.1-1.1s0.5-1.1,1.1-1.1h4.3c0.5,0,0.8,0.1,0.8,0.7V107
		c0,0.8-0.5,1.3-1.2,1.3s-1.2-0.5-1.2-1.3V90.3z"/>
</g>
<rect x="1.3" y="155.1" transform="matrix(0.9848 -0.1735 0.1735 0.9848 -29.3932 28.5633)" class="st4" width="294.8" height="54.6"/>
<g class="st5">
	<path class="st3" d="M77.3,171.5c0.2,1.1-0.4,2.2-1.5,2.4c-1.1,0.2-2.2-0.5-3.8-0.2c-1.2,0.2-2.1,1-1.9,2.2
		c0.5,2.8,9.4-0.6,10.6,6.5c0.7,3.9-2.1,7-5.9,7.6c-2.1,0.4-6.8,0.7-7.2-1.9c-0.2-1.1,0.4-2.1,1.5-2.3c1.3-0.2,3,0.6,4.8,0.3
		c1.8-0.3,2.6-1.5,2.4-2.9c-0.6-3.3-9.4,0.3-10.6-6.1c-0.7-3.9,2.1-6.8,5.7-7.5C73,169.5,76.9,169.4,77.3,171.5z"/>
	<path class="st3" d="M96.6,183.4c0.2,1,0.5,2.6-1.4,2.9c-1.2,0.2-1.7-0.3-2.2-1.3c-0.8,1.4-1.9,2.2-3.5,2.5c-3.7,0.7-7.1-2-7.9-6.5
		c-0.8-4.4,1.6-8.2,5.2-8.8c1.5-0.3,3,0.1,4.1,1.2c-0.1-1,0.6-1.8,1.6-2c1.9-0.3,2.2,1.2,2.4,2.3L96.6,183.4z M89.4,183.7
		c2.1-0.4,2.7-2.6,2.4-4.5s-1.7-3.9-3.8-3.5c-2.2,0.4-2.8,2.7-2.4,4.6S87.2,184.1,89.4,183.7z"/>
	<path class="st3" d="M105.8,173.6c-0.7,0.1-2.5-0.8-3.8-0.5c-0.7,0.1-1.3,0.6-1.2,1.3c0.3,1.8,7.2,0.4,8,4.9
		c0.5,2.6-1.4,5.1-4.8,5.7c-2.2,0.4-5.8-0.3-6.1-2.1c-0.1-0.6,0.3-1.9,1.4-2.1c1.5-0.3,2.5,1,4.3,0.6c1.2-0.2,1.5-0.7,1.4-1.4
		c-0.3-1.8-7.2-0.3-8-4.9c-0.5-2.8,1.4-5,4.6-5.6c2-0.3,5.1,0,5.5,2C107.3,172.4,106.7,173.4,105.8,173.6z"/>
	<path class="st3" d="M117.5,171.5c-0.7,0.1-2.5-0.8-3.8-0.5c-0.7,0.1-1.3,0.6-1.2,1.3c0.3,1.8,7.2,0.4,8,4.9
		c0.5,2.6-1.4,5.1-4.8,5.7c-2.2,0.4-5.8-0.3-6.1-2.1c-0.1-0.6,0.3-1.9,1.4-2.1c1.5-0.3,2.5,1,4.3,0.6c1.2-0.2,1.5-0.7,1.4-1.4
		c-0.3-1.8-7.2-0.3-8-4.9c-0.5-2.8,1.4-5,4.6-5.6c2-0.3,5.1,0,5.5,2C119,170.4,118.5,171.3,117.5,171.5z"/>
	<path class="st3" d="M123.1,168c1.2-0.2,2.3,0.6,2.5,1.8c0.2,1.2-0.6,2.3-1.8,2.5c-1.2,0.2-2.3-0.6-2.5-1.8
		C121.1,169.4,121.9,168.2,123.1,168z M124.6,176.9c1.2-0.2,2.3,0.6,2.5,1.8s-0.6,2.3-1.8,2.5c-1.2,0.2-2.3-0.6-2.5-1.8
		S123.4,177.1,124.6,176.9z"/>
</g>
<g class="st5">
	<path class="st3" d="M140.8,168.2c-2.7-0.4-5.5-0.8-6.2-4.3c-0.4-2.2,1.1-5.1,4.3-6l-0.2-1.3c-0.1-0.3,0.1-0.6,0.5-0.7
		c0.4-0.1,0.6,0.1,0.7,0.5l0.2,1.3c2.2-0.2,4.4,0.4,4.6,1.5c0.1,0.6-0.3,1.2-0.9,1.3c-1,0.2-1.5-0.8-3.4-0.7l1.1,6
		c2.7,0.5,5.9,0.9,6.5,4.7c0.5,3-1,6-4.4,7.1l0.2,1.4c0.1,0.3-0.1,0.6-0.5,0.7c-0.4,0.1-0.6-0.1-0.7-0.5l-0.2-1.3
		c-2.8,0.5-5.7-0.3-5.9-1.5c-0.1-0.6,0.1-1.2,0.8-1.3c1-0.2,2.3,1.2,4.7,0.7L140.8,168.2z M139.3,160.1c-1.5,0.5-2.4,1.7-2.2,3.3
		s1.5,2,3.1,2.3L139.3,160.1z M143.2,175.5c1.8-0.7,2.6-2.4,2.2-4.4c-0.3-1.8-1.8-2.4-3.5-2.7L143.2,175.5z"/>
	<path class="st3" d="M154.7,160.4c2.5-0.4,4.1,0.2,4.3,1.2c0.1,0.5-0.2,1.1-0.8,1.2c-0.9,0.2-1.4-0.5-3.1-0.3
		c-3,0.5-3.7,3.7-3.2,6.1c0.4,2.5,2.1,5.2,5.1,4.7c1.7-0.3,2-1.2,2.8-1.3c0.6-0.1,1,0.2,1.1,0.9c0.2,0.9-1,2.1-3.5,2.6
		c-4.5,0.8-7.3-2.4-7.9-6.3C148.7,165.1,150.2,161.2,154.7,160.4z"/>
	<path class="st3" d="M166.7,158.2c4.1-0.7,7.1,2.5,7.8,6.4s-1,7.9-5.1,8.6c-4.1,0.7-7.1-2.5-7.8-6.4S162.6,159,166.7,158.2z
		 M169,171.1c3-0.5,3.5-3.6,3.1-6.1c-0.4-2.5-2-5.2-5-4.7c-3,0.5-3.5,3.6-3.1,6.1C164.5,168.9,166,171.7,169,171.1z"/>
	<path class="st3" d="M180.6,169.9c0.1,0.8-0.2,1.4-1,1.5c-0.7,0.1-1.3-0.3-1.4-1.1l-3.3-18.9c-0.1-0.8,0.2-1.4,1-1.5
		c0.7-0.1,1.3,0.3,1.4,1.1L180.6,169.9z"/>
	<path class="st3" d="M187.2,154.6c4.1-0.7,7.1,2.5,7.8,6.4s-1,7.9-5.1,8.6c-4.1,0.7-7.1-2.5-7.8-6.4S183.1,155.4,187.2,154.6z
		 M189.5,167.5c3-0.5,3.5-3.6,3.1-6.1c-0.4-2.5-2-5.2-5-4.7c-3,0.5-3.5,3.6-3.1,6.1C184.9,165.3,186.5,168.1,189.5,167.5z"/>
</g>
<g class="st5">
	<path class="st3" d="M196.4,154.3c-0.1-0.8,0.2-1.4,1-1.5c0.7-0.1,1.3,0.3,1.4,1.1l0.2,1.2l0.1,0c0.4-1.2,1.5-2.9,2.9-3.1
		c0.9-0.2,1.4,0.3,1.6,1c0.1,0.7-0.3,1.2-1.3,1.6c-1.4,0.5-3,1.9-2.5,4.7l1.2,7c0.1,0.8-0.2,1.4-1,1.5c-0.7,0.1-1.3-0.3-1.4-1.1
		L196.4,154.3z"/>
</g>
<g class="st5">
	<path class="st3" d="M207,159.9c-0.6,0.1-1.1-0.3-1.2-0.9c-0.1-0.6,0.3-1.1,0.9-1.2l5.7-1c0.6-0.1,1.1,0.3,1.2,0.9
		c0.1,0.6-0.3,1.1-0.9,1.2L207,159.9z"/>
	<path class="st3" d="M219.4,149c2-0.4,5.1,0.2,5.3,1.7c0.1,0.5-0.2,1.1-0.9,1.2c-1,0.2-1.7-1.2-4-0.8c-1.4,0.2-2.5,1.1-2.2,2.3
		c0.5,2.6,8.2,0.9,9,5.2c0.5,3.1-1.8,5-4.6,5.5c-3.1,0.5-5.8-0.6-6-1.8c-0.1-0.7,0.3-1.2,0.8-1.3c1.1-0.2,2.3,1.4,4.9,1
		c1.8-0.3,2.7-1.5,2.5-2.5c-0.5-2.9-8.3-1.3-9-5.4C214.7,151.3,217,149.4,219.4,149z"/>
	<path class="st3" d="M236.6,151.6c-0.4-2.1-1.8-3.2-3.7-2.8c-2,0.3-2.9,1.8-2.5,3.9l1.4,8.2c0.1,0.8-0.2,1.4-1,1.5
		c-0.7,0.1-1.3-0.3-1.4-1.1l-2.2-12.4c-0.1-0.8,0.2-1.4,1-1.5c0.7-0.1,1.3,0.3,1.4,1.1l0.1,0.4l0.1,0c0.4-0.8,1.2-2.1,3.4-2.4
		c1.4-0.3,3,0.1,4.5,1.8c0.8-1.7,1.9-2.9,4.1-3.3c2.3-0.4,5.4,0.5,6.1,4.7l1.4,8.1c0.1,0.8-0.2,1.4-1,1.5c-0.7,0.1-1.3-0.3-1.4-1.1
		l-1.4-8.2c-0.4-2.1-1.8-3.2-3.7-2.8c-2,0.3-2.9,1.8-2.5,3.9l1.4,8.2c0.1,0.8-0.2,1.4-1,1.5c-0.7,0.1-1.3-0.3-1.4-1.1L236.6,151.6z"
		/>
	<path class="st3" d="M255.8,142.5c4.1-0.7,7.1,2.5,7.8,6.4c0.7,3.9-1,7.9-5.1,8.6s-7.1-2.5-7.8-6.4
		C250,147.3,251.7,143.3,255.8,142.5z M258.1,155.4c3-0.5,3.5-3.6,3.1-6.1c-0.4-2.5-2-5.2-5-4.7s-3.5,3.6-3.1,6.1
		S255.1,156,258.1,155.4z"/>
	<path class="st3" d="M263.9,135.8c-0.1-0.8,0.2-1.4,1-1.5c0.7-0.1,1.3,0.3,1.4,1.1l1.8,10.3l4.5-5.4c0.4-0.5,0.8-0.9,1.2-1
		c0.6-0.1,1.1,0.3,1.2,0.9c0.1,0.4,0,0.7-0.4,1.2l-4.7,5.3l7.5,5.2c0.6,0.4,0.7,0.7,0.8,1.1c0.1,0.6-0.3,1.1-0.9,1.1
		c-0.6,0.1-0.9,0-1.5-0.5l-7.2-5.3l1,5.8c0.1,0.8-0.2,1.4-1,1.5c-0.7,0.1-1.3-0.3-1.4-1.1L263.9,135.8z"/>
	<path class="st3" d="M280.6,146.9c0.4,2.5,2.4,4.2,5.1,3.7c3.2-0.6,3.7-2.7,4.6-2.9c0.4-0.1,0.9,0.2,1.1,0.9c0.2,1.2-2.5,3.5-5.3,4
		c-4.7,0.8-7.4-2.4-8-6.3c-0.7-4,1.2-7.9,5.3-8.7c4-0.7,7,2.5,7.6,6c0.2,0.9-0.1,1.3-1.1,1.5L280.6,146.9z M288.4,143.6
		c-0.4-2.1-2-4.3-4.7-3.8c-3,0.4-3.7,3-3.4,5.3L288.4,143.6z"/>
</g>
<path id="Oval_1_" class="st2" d="M301,98c0,49.7,40.3,90,90,90s90-40.3,90-90S440.7,8,391,8S301,48.3,301,98"/>
</svg>
