<?xml version="1.0" encoding="UTF-8" standalone="no"?>
<svg width="94px" height="87px" viewBox="0 0 94 87" version="1.1" xmlns="http://www.w3.org/2000/svg" xmlns:xlink="http://www.w3.org/1999/xlink">
    <!-- Generator: Sketch 39.1 (31720) - http://www.bohemiancoding.com/sketch -->
    <title>colour-icons-consequences</title>
    <desc>Created with Sketch.</desc>
    <defs></defs>
    <g id="Templates" stroke="none" stroke-width="1" fill="none" fill-rule="evenodd">
        <g id="8-colour-messaging" transform="translate(-628.000000, -2516.000000)">
            <g id="colour-icons-consequences" transform="translate(628.000000, 2516.000000)">
                <g id="icon-exclamation-red" transform="translate(25.000000, 0.000000)">
                    <path d="M42.0056208,21.1023622 C42.0056208,32.6987927 32.6256924,42.0997375 21.0551865,42.0997375 C9.48468063,42.0997375 0.104752172,32.6987927 0.104752172,21.1023622 C0.104752172,9.50593176 9.48468063,0.104986877 21.0551865,0.104986877 C32.6256924,0.104986877 42.0056208,9.50593176 42.0056208,21.1023622 L42.0056208,21.1023622 Z" id="Stroke-1" fill="#E3231D"></path>
                    <path d="M18.58767,23.7598414 C18.58767,25.091675 19.5684924,25.9161433 20.8657091,25.9161433 C22.1312863,25.9161433 23.1437481,25.0599646 23.1437481,23.7598414 L23.1437481,11.5513675 C23.1437481,10.2512443 22.1312863,9.39506562 20.8657091,9.39506562 C19.5684924,9.39506562 18.58767,10.219534 18.58767,11.5513675 L18.58767,23.7598414 Z M20.8657091,32.7338626 C22.2262046,32.7338626 23.3335847,31.6240013 23.3335847,30.2604574 C23.3335847,28.8969136 22.2262046,27.7870523 20.8657091,27.7870523 C19.5052135,27.7870523 18.3978334,28.8969136 18.3978334,30.2604574 C18.3978334,31.6240013 19.5052135,32.7338626 20.8657091,32.7338626 L20.8657091,32.7338626 Z" id="!" fill="#FFFFFF"></path>
                </g>
                <g id="icon-cross-red" transform="translate(0.000000, 44.795276)">
                    <g id="cross">
                        <path d="M42.0056208,21.1023622 C42.0056208,32.6987927 32.6256924,42.0997375 21.0551865,42.0997375 C9.48468063,42.0997375 0.104752172,32.6987927 0.104752172,21.1023622 C0.104752172,9.50593176 9.48468063,0.104986877 21.0551865,0.104986877 C32.6256924,0.104986877 42.0056208,9.50593176 42.0056208,21.1023622 L42.0056208,21.1023622 L42.0056208,21.1023622 Z" id="Stroke-1" fill="#E3231D"></path>
                        <path d="M28.5531846,12.3596855 C27.407566,11.2114999 25.5492866,11.2124028 24.4059816,12.3583144 L20.9437553,15.8284336 L17.5421494,12.4190715 C16.3967154,11.2710257 14.5383963,11.2721951 13.3938315,12.4193244 L12.1871955,13.6286639 C11.0415769,14.7768494 11.0417299,16.6385794 12.1868613,17.7862765 L15.5884671,21.1955038 L12.2696757,24.5217312 C11.1247532,25.6692191 11.1263714,27.5312487 12.2709362,28.6783315 L13.4775721,29.8876223 C14.6231908,31.0357613 16.4818602,31.0345037 17.6249639,29.8888848 L20.9437553,26.562791 L24.3225301,29.9491362 C25.4671888,31.0963595 27.3248418,31.0945233 28.4693602,29.947394 L29.6759475,28.7380546 C30.8215198,27.589869 30.8223525,25.7291647 29.6776019,24.581849 L26.2988271,21.1955038 L29.7611887,17.7255203 C30.9060518,16.5781368 30.9043854,14.7161542 29.7598207,13.569025 L28.5531846,12.3596855 L28.5531846,12.3596855 Z" id="Page-1" fill="#FFFFFF"></path>
                    </g>
                </g>
                <g id="icon-minus-red" transform="translate(51.000000, 44.000000)">
                    <path d="M21.2549821,42.7900262 C9.68447624,42.7900262 0.304547777,33.3890814 0.304547777,21.7926509 C0.304547777,10.1962205 9.68447624,0.795275591 21.2549821,0.795275591 C32.825488,0.795275591 42.2054165,10.1962205 42.2054165,21.7926509 C42.2054165,33.3890814 32.825488,42.7900262 21.2549821,42.7900262 Z" id="Stroke-1" fill="#E3231D"></path>
                    <path d="M9.30454778,22.5024605 C9.30454778,24.1263534 10.6184907,25.4427788 12.2373785,25.4427788 L29.2076904,25.4427788 C30.8274481,25.4427788 32.1405212,24.128126 32.1405212,22.5024605 L32.1405212,20.7355939 C32.1405212,19.111701 30.8265783,17.7952756 29.2076904,17.7952756 L12.2373785,17.7952756 C10.6176208,17.7952756 9.30454778,19.1099283 9.30454778,20.7355939 L9.30454778,22.5024605 L9.30454778,22.5024605 Z" id="Page-1" fill="#FFFFFF"></path>
                </g>
            </g>
        </g>
    </g>
</svg>