<?xml version="1.0" encoding="UTF-8" standalone="no"?>
<svg width="441px" height="196px" viewBox="0 0 441 196" version="1.1" xmlns="http://www.w3.org/2000/svg" xmlns:xlink="http://www.w3.org/1999/xlink">
    <!-- Generator: Sketch 39.1 (31720) - http://www.bohemiancoding.com/sketch -->
    <title>colour-value-ketchup</title>
    <desc>Created with Sketch.</desc>
    <defs></defs>
    <g id="Templates" stroke="none" stroke-width="1" fill="none" fill-rule="evenodd">
        <g id="8-colour-messaging" transform="translate(-367.000000, -1297.000000)">
            <g id="colour-value-ketchup" transform="translate(365.000000, 1295.000000)">
                <path d="M353,187 C402.705627,187 443,146.705627 443,97 C443,47.2943725 402.705627,7 353,7 C303.294373,7 263,47.2943725 263,97 C263,146.705627 303.294373,187 353,187 Z" id="Oval" fill="#E3231D"></path>
                <path d="M80.488,33.984 C80.488,35.384 81.384,36.168 82.588,36.168 C83.792,36.168 84.688,35.384 84.688,33.984 L84.688,27.88 L93.48,27.88 L93.48,33.984 C93.48,35.384 94.376,36.168 95.58,36.168 C96.784,36.168 97.68,35.384 97.68,33.984 L97.68,18.08 C97.68,16.68 96.784,15.896 95.58,15.896 C94.376,15.896 93.48,16.68 93.48,18.08 L93.48,24.016 L84.688,24.016 L84.688,18.08 C84.688,16.68 83.792,15.896 82.588,15.896 C81.384,15.896 80.488,16.68 80.488,18.08 L80.488,33.984 Z M111.932,29.896 C113.164,29.896 113.696,29.308 113.696,28.104 C113.696,24.744 110.812,20.768 106.444,20.768 C102.188,20.768 99.22,24.492 99.22,28.58 C99.22,33.032 102.244,36.336 106.78,36.336 C109.776,36.336 113.36,34.656 113.36,32.92 C113.36,32.052 112.576,31.184 111.708,31.184 C110.644,31.184 109.216,32.808 107.144,32.808 C105.268,32.808 103.616,31.884 103.336,29.896 L111.932,29.896 Z M103.252,27.208 C103.448,25.5 104.652,24.128 106.444,24.128 C108.32,24.128 109.44,25.444 109.664,27.208 L103.252,27.208 Z M114.536,32.836 C114.228,33.172 113.976,33.76 113.976,34.208 C113.976,35.384 114.788,36.168 115.964,36.168 C116.86,36.168 117.224,35.776 117.644,35.272 L120.976,31.184 L124.308,35.272 C124.728,35.776 125.092,36.168 125.988,36.168 C127.164,36.168 127.976,35.384 127.976,34.208 C127.976,33.76 127.724,33.172 127.416,32.836 L123.328,28.188 L126.744,24.352 C127.08,23.96 127.36,23.4 127.36,22.896 C127.36,21.832 126.324,20.936 125.288,20.936 C124.644,20.936 124.224,21.216 123.804,21.72 L120.976,25.248 L118.148,21.72 C117.728,21.216 117.308,20.936 116.664,20.936 C115.628,20.936 114.592,21.832 114.592,22.896 C114.592,23.4 114.872,23.96 115.208,24.352 L118.624,28.188 L114.536,32.836 Z M129.544,25.164 C129.544,26.368 130.524,27.348 131.728,27.348 C132.932,27.348 133.912,26.368 133.912,25.164 C133.912,23.96 132.932,22.98 131.728,22.98 C130.524,22.98 129.544,23.96 129.544,25.164 L129.544,25.164 Z M129.544,34.152 C129.544,35.356 130.524,36.336 131.728,36.336 C132.932,36.336 133.912,35.356 133.912,34.152 C133.912,32.948 132.932,31.968 131.728,31.968 C130.524,31.968 129.544,32.948 129.544,34.152 L129.544,34.152 Z M153.652,29.952 L155.612,29.952 C156.256,29.952 156.76,29.644 156.76,29.028 C156.76,28.412 156.256,28.104 155.612,28.104 L153.904,28.104 L154.492,23.96 L156.452,23.96 C157.096,23.96 157.6,23.68 157.6,23.036 C157.6,22.42 157.096,22.112 156.452,22.112 L154.744,22.112 L155.304,18.024 C155.388,17.492 155.444,17.156 155.444,16.848 C155.444,16.344 155.164,15.896 154.492,15.896 C153.764,15.896 153.512,16.26 153.428,16.904 L152.7,22.112 L149.368,22.112 L149.928,18.024 C150.012,17.492 150.068,17.156 150.068,16.848 C150.068,16.344 149.788,15.896 149.116,15.896 C148.388,15.896 148.136,16.26 148.052,16.904 L147.324,22.112 L145.364,22.112 C144.72,22.112 144.216,22.42 144.216,23.036 C144.216,23.652 144.72,23.96 145.364,23.96 L147.072,23.96 L146.484,28.104 L144.524,28.104 C143.88,28.104 143.376,28.384 143.376,29.028 C143.376,29.644 143.88,29.952 144.524,29.952 L146.232,29.952 L145.672,34.04 C145.588,34.572 145.532,34.908 145.532,35.216 C145.532,35.72 145.812,36.168 146.484,36.168 C147.212,36.168 147.464,35.804 147.548,35.16 L148.276,29.952 L151.608,29.952 L151.048,34.04 C150.964,34.572 150.908,34.908 150.908,35.216 C150.908,35.72 151.188,36.168 151.86,36.168 C152.588,36.168 152.84,35.804 152.924,35.16 L153.652,29.952 Z M151.86,28.104 L148.528,28.104 L149.116,23.96 L152.448,23.96 L151.86,28.104 Z M170.452,29.504 C171.516,29.504 171.824,29.056 171.824,28.188 C171.824,24.604 169.472,20.936 165.412,20.936 C161.24,20.936 158.72,24.52 158.72,28.552 C158.72,32.5 160.792,36.168 165.552,36.168 C168.464,36.168 171.516,34.32 171.516,33.116 C171.516,32.416 171.068,32.024 170.62,32.024 C169.696,32.024 168.856,34.04 165.58,34.04 C162.808,34.04 161.184,32.052 161.184,29.504 L170.452,29.504 Z M161.184,27.656 C161.268,25.388 162.36,22.952 165.412,23.064 C168.128,23.064 169.36,25.528 169.36,27.656 L161.184,27.656 Z M185.88,30.12 C185.88,27.852 184.704,25.948 182.464,25.276 C184.032,24.324 184.816,22.7 184.816,21.048 C184.816,18.248 182.828,15.896 179.636,15.896 C176.332,15.896 174.4,18.276 174.4,20.936 C174.4,21.58 174.82,22.084 175.52,22.084 C175.94,22.084 176.612,22.056 176.696,20.936 C176.836,19.424 177.564,18.024 179.524,18.024 C181.232,18.024 182.352,19.368 182.352,21.272 C182.352,23.092 181.54,24.044 179.552,24.492 C178.628,24.688 178.264,24.996 178.264,25.556 C178.264,26.2 178.796,26.62 179.776,26.62 C181.624,26.62 183.248,27.376 183.248,30.344 C183.248,32.388 181.68,34.04 179.468,34.04 C177.592,34.04 176.584,32.92 176.108,31.492 C175.828,30.624 175.464,30.204 174.736,30.204 C174.148,30.204 173.7,30.708 173.7,31.576 C173.7,33.06 175.38,36.168 179.524,36.168 C183.08,36.168 185.88,33.9 185.88,30.12 L185.88,30.12 Z M192.656,33.872 L199.348,24.968 C200.636,23.288 200.72,22 200.72,20.852 C200.72,18.276 198.648,15.896 195.344,15.896 C191.228,15.896 188.988,18.836 188.988,22.14 C188.988,23.176 189.408,23.652 190.192,23.652 C190.724,23.652 191.284,23.4 191.284,22.532 C191.284,20.04 192.544,18.024 194.924,18.024 C196.716,18.024 198.088,19.312 198.088,21.132 C198.088,22.336 197.472,23.568 196.632,24.66 L189.744,33.872 C189.324,34.46 189.212,34.684 189.212,34.992 C189.212,35.412 189.52,36 190.556,36 L200.216,36 C200.804,36 201.28,35.524 201.28,34.936 C201.28,34.348 200.804,33.872 200.216,33.872 L192.656,33.872 Z M215.896,30.12 C215.896,27.852 214.72,25.948 212.48,25.276 C214.048,24.324 214.832,22.7 214.832,21.048 C214.832,18.248 212.844,15.896 209.652,15.896 C206.348,15.896 204.416,18.276 204.416,20.936 C204.416,21.58 204.836,22.084 205.536,22.084 C205.956,22.084 206.628,22.056 206.712,20.936 C206.852,19.424 207.58,18.024 209.54,18.024 C211.248,18.024 212.368,19.368 212.368,21.272 C212.368,23.092 211.556,24.044 209.568,24.492 C208.644,24.688 208.28,24.996 208.28,25.556 C208.28,26.2 208.812,26.62 209.792,26.62 C211.64,26.62 213.264,27.376 213.264,30.344 C213.264,32.388 211.696,34.04 209.484,34.04 C207.608,34.04 206.6,32.92 206.124,31.492 C205.844,30.624 205.48,30.204 204.752,30.204 C204.164,30.204 203.716,30.708 203.716,31.576 C203.716,33.06 205.396,36.168 209.54,36.168 C213.096,36.168 215.896,33.9 215.896,30.12 L215.896,30.12 Z M222.168,34.852 C222.168,35.664 222.644,36.168 223.4,36.168 C224.156,36.168 224.632,35.664 224.632,34.852 L224.632,16.736 C224.632,16.12 224.352,16.064 223.876,16.064 L219.592,16.064 C219.004,16.064 218.528,16.54 218.528,17.128 C218.528,17.716 219.004,18.192 219.592,18.192 L222.168,18.192 L222.168,34.852 Z M239.052,28.552 C239.052,31.072 237.988,34.04 234.964,34.04 C231.94,34.04 230.876,31.072 230.876,28.552 C230.876,26.032 231.94,23.064 234.964,23.064 C237.988,23.064 239.052,26.032 239.052,28.552 L239.052,28.552 Z M238.8,34.852 C238.8,35.664 239.276,36.168 240.032,36.168 C240.788,36.168 241.264,35.664 241.264,34.852 L241.264,15.7 C241.264,14.888 240.788,14.384 240.032,14.384 C239.276,14.384 238.8,14.888 238.8,15.7 L238.8,22.952 L238.744,22.952 C238.1,22.028 236.728,20.936 234.768,20.936 C230.736,20.936 228.412,24.604 228.412,28.552 C228.412,32.5 230.736,36.168 234.768,36.168 C236.728,36.168 238.044,35.468 238.744,34.124 L238.8,34.124 L238.8,34.852 Z" id="Hex:-#e3231d" fill="#575756" transform="translate(161.744000, 25.360000) rotate(10.000000) translate(-161.744000, -25.360000) "></path>
                <path d="M59.852,104.984 C59.852,106.384 60.748,107.168 61.952,107.168 C63.156,107.168 64.052,106.384 64.052,104.984 L64.052,98.908 L64.108,98.908 L70.324,106.44 C70.772,106.972 71.444,107.168 71.948,107.168 C73.18,107.168 74.048,106.104 74.048,105.012 C74.048,104.62 73.88,104.2 73.488,103.78 L68.728,98.684 C71.584,98.236 73.908,96.472 73.908,93.392 C73.908,88.996 71.248,87.064 66.936,87.064 L62.008,87.064 C60.608,87.064 59.852,87.904 59.852,89.248 L59.852,104.984 Z M64.052,90.928 L66.936,90.928 C68.476,90.928 69.54,91.796 69.54,93.392 C69.54,94.96 68.476,95.884 66.936,95.884 L64.052,95.884 L64.052,90.928 Z M86.172,95.184 C85.108,95.184 84.212,95.912 84.212,97.088 C84.212,98.236 85.024,99.048 86.172,99.048 L89.028,99.048 C89.028,102.24 86.48,103.472 84.268,103.472 C80.712,103.472 79.004,100.448 79.004,97.032 C79.004,93.644 80.768,90.592 84.268,90.592 C87.936,90.592 88.328,92.636 90.232,92.636 C91.212,92.636 91.968,91.88 91.968,90.676 C91.968,88.716 88.496,86.728 84.268,86.728 C78.556,86.728 74.636,91.208 74.636,97.032 C74.636,102.828 78.584,107.336 84.268,107.336 C89.868,107.336 93.396,103.276 93.396,97.872 C93.396,96.08 92.696,95.184 90.932,95.184 L86.172,95.184 Z M95.132,104.872 C95.132,106.188 96.084,107 97.372,107 L103.14,107 C107.004,107 109.636,104.872 109.636,100.924 C109.636,98.488 107.76,96.5 105.38,96.164 L105.38,96.108 C107.172,95.268 107.984,93.952 107.984,91.992 C107.984,89.024 105.632,87.064 102.72,87.064 L97.344,87.064 C96.056,87.064 95.132,87.82 95.132,89.164 L95.132,104.872 Z M99.332,90.76 L101.516,90.76 C102.748,90.76 103.784,91.432 103.784,92.748 C103.784,94.148 102.888,94.96 101.516,94.96 L99.332,94.96 L99.332,90.76 Z M99.332,98.656 L102.3,98.656 C104.26,98.656 105.268,99.552 105.268,100.868 C105.268,102.436 104.148,103.304 102.636,103.304 L99.332,103.304 L99.332,98.656 Z M111.512,96.164 C111.512,97.368 112.492,98.348 113.696,98.348 C114.9,98.348 115.88,97.368 115.88,96.164 C115.88,94.96 114.9,93.98 113.696,93.98 C112.492,93.98 111.512,94.96 111.512,96.164 L111.512,96.164 Z M111.512,105.152 C111.512,106.356 112.492,107.336 113.696,107.336 C114.9,107.336 115.88,106.356 115.88,105.152 C115.88,103.948 114.9,102.968 113.696,102.968 C112.492,102.968 111.512,103.948 111.512,105.152 L111.512,105.152 Z M130.048,104.872 L136.74,95.968 C138.028,94.288 138.112,93 138.112,91.852 C138.112,89.276 136.04,86.896 132.736,86.896 C128.62,86.896 126.38,89.836 126.38,93.14 C126.38,94.176 126.8,94.652 127.584,94.652 C128.116,94.652 128.676,94.4 128.676,93.532 C128.676,91.04 129.936,89.024 132.316,89.024 C134.108,89.024 135.48,90.312 135.48,92.132 C135.48,93.336 134.864,94.568 134.024,95.66 L127.136,104.872 C126.716,105.46 126.604,105.684 126.604,105.992 C126.604,106.412 126.912,107 127.948,107 L137.608,107 C138.196,107 138.672,106.524 138.672,105.936 C138.672,105.348 138.196,104.872 137.608,104.872 L130.048,104.872 Z M145.056,104.872 L151.748,95.968 C153.036,94.288 153.12,93 153.12,91.852 C153.12,89.276 151.048,86.896 147.744,86.896 C143.628,86.896 141.388,89.836 141.388,93.14 C141.388,94.176 141.808,94.652 142.592,94.652 C143.124,94.652 143.684,94.4 143.684,93.532 C143.684,91.04 144.944,89.024 147.324,89.024 C149.116,89.024 150.488,90.312 150.488,92.132 C150.488,93.336 149.872,94.568 149.032,95.66 L142.144,104.872 C141.724,105.46 141.612,105.684 141.612,105.992 C141.612,106.412 141.92,107 142.956,107 L152.616,107 C153.204,107 153.68,106.524 153.68,105.936 C153.68,105.348 153.204,104.872 152.616,104.872 L145.056,104.872 Z M165.216,89.192 L165.216,89.248 L158.244,104.9 C157.936,105.628 157.852,106.02 157.852,106.216 C157.852,106.86 158.44,107.168 158.776,107.168 C159.308,107.168 159.924,107.056 160.26,106.272 L167.708,89.332 C168.016,88.632 168.184,88.24 168.184,87.848 C168.184,87.26 167.68,87.064 166.924,87.064 L156.816,87.064 C156.228,87.064 155.752,87.54 155.752,88.128 C155.752,88.716 156.228,89.192 156.816,89.192 L165.216,89.192 Z M169.892,108.428 C169.668,108.876 169.584,109.156 169.584,109.464 C169.584,110.08 170.116,110.528 170.704,110.528 C171.432,110.528 171.74,110.024 172.02,109.492 L173.588,106.412 C173.812,105.964 173.896,105.684 173.896,105.376 C173.896,104.76 173.364,104.312 172.776,104.312 C172.048,104.312 171.74,104.816 171.46,105.348 L169.892,108.428 Z M189.296,101.12 C189.296,98.852 188.12,96.948 185.88,96.276 C187.448,95.324 188.232,93.7 188.232,92.048 C188.232,89.248 186.244,86.896 183.052,86.896 C179.748,86.896 177.816,89.276 177.816,91.936 C177.816,92.58 178.236,93.084 178.936,93.084 C179.356,93.084 180.028,93.056 180.112,91.936 C180.252,90.424 180.98,89.024 182.94,89.024 C184.648,89.024 185.768,90.368 185.768,92.272 C185.768,94.092 184.956,95.044 182.968,95.492 C182.044,95.688 181.68,95.996 181.68,96.556 C181.68,97.2 182.212,97.62 183.192,97.62 C185.04,97.62 186.664,98.376 186.664,101.344 C186.664,103.388 185.096,105.04 182.884,105.04 C181.008,105.04 180,103.92 179.524,102.492 C179.244,101.624 178.88,101.204 178.152,101.204 C177.564,101.204 177.116,101.708 177.116,102.576 C177.116,104.06 178.796,107.168 182.94,107.168 C186.496,107.168 189.296,104.9 189.296,101.12 L189.296,101.12 Z M197.36,89.192 L203.044,89.192 C203.632,89.192 204.108,88.716 204.108,88.128 C204.108,87.54 203.632,87.064 203.044,87.064 L196.128,87.064 C195.54,87.064 195.288,87.204 195.204,87.708 L194.168,94.68 C194.084,95.296 193.972,96.024 193.972,96.332 C193.972,96.724 194.224,97.088 194.812,97.088 C195.512,97.088 196.38,96.332 198.2,96.332 C200.608,96.332 201.644,98.208 201.644,100.56 C201.644,102.884 200.216,104.872 197.836,104.872 C195.008,104.872 194.112,102.8 193.104,102.8 C192.488,102.8 192.208,103.36 192.208,103.864 C192.208,105.068 194.504,107.168 197.808,107.168 C201.84,107.168 204.276,104.368 204.276,100.084 C204.276,96.976 202.288,94.036 199.18,94.036 C198.256,94.036 197.36,94.176 196.548,94.596 L197.36,89.192 Z M206.908,108.428 C206.684,108.876 206.6,109.156 206.6,109.464 C206.6,110.08 207.132,110.528 207.72,110.528 C208.448,110.528 208.756,110.024 209.036,109.492 L210.604,106.412 C210.828,105.964 210.912,105.684 210.912,105.376 C210.912,104.76 210.38,104.312 209.792,104.312 C209.064,104.312 208.756,104.816 208.476,105.348 L206.908,108.428 Z M218.08,104.872 L224.772,95.968 C226.06,94.288 226.144,93 226.144,91.852 C226.144,89.276 224.072,86.896 220.768,86.896 C216.652,86.896 214.412,89.836 214.412,93.14 C214.412,94.176 214.832,94.652 215.616,94.652 C216.148,94.652 216.708,94.4 216.708,93.532 C216.708,91.04 217.968,89.024 220.348,89.024 C222.14,89.024 223.512,90.312 223.512,92.132 C223.512,93.336 222.896,94.568 222.056,95.66 L215.168,104.872 C214.748,105.46 214.636,105.684 214.636,105.992 C214.636,106.412 214.944,107 215.98,107 L225.64,107 C226.228,107 226.704,106.524 226.704,105.936 C226.704,105.348 226.228,104.872 225.64,104.872 L218.08,104.872 Z M235.552,86.896 C232.024,86.896 229.448,89.78 229.448,93.392 C229.448,96.864 231.24,99.944 234.488,99.944 C235.832,99.944 236.728,99.636 237.652,99.16 L237.708,99.16 C236.196,101.932 235.02,103.276 233.424,104.704 C232.724,105.32 232.444,105.628 232.444,106.02 C232.444,106.776 233.06,107.168 233.452,107.168 C233.788,107.168 234.096,107.028 234.6,106.608 C237.624,104.06 241.544,99.58 241.544,93.756 C241.544,89.78 239.024,86.896 235.552,86.896 L235.552,86.896 Z M239.08,93.504 C239.08,95.8 238.016,97.816 235.58,97.816 C233.144,97.816 232.08,96.136 232.08,93.504 C232.08,91.18 233.144,89.192 235.58,89.192 C238.016,89.192 239.08,91.18 239.08,93.504 L239.08,93.504 Z" id="RGB:-227,35,29" fill="#575756"></path>
                <path d="M8.24,156.728 C4.516,156.728 1.296,159.164 1.296,163.084 C1.296,169.58 10.648,167.592 10.648,170.896 C10.648,172.268 9.64,173.304 7.792,173.304 C5.972,173.304 4.404,172.212 3.088,172.212 C1.94,172.212 1.212,173.108 1.212,174.2 C1.212,176.832 5.86,177.336 8.016,177.336 C11.88,177.336 15.184,174.844 15.184,170.84 C15.184,163.616 5.832,165.464 5.832,162.58 C5.832,161.404 6.924,160.76 8.128,160.76 C9.808,160.76 10.704,161.6 11.852,161.6 C13,161.6 13.728,160.62 13.728,159.528 C13.728,157.316 9.808,156.728 8.24,156.728 L8.24,156.728 Z M30.64,164.568 C30.64,163.532 30.64,161.936 28.708,161.936 C27.728,161.936 26.888,162.636 26.776,163.616 C25.88,162.356 24.424,161.768 22.94,161.768 C19.244,161.768 16.276,165.156 16.276,169.58 C16.276,174.116 19.16,177.336 22.94,177.336 C24.48,177.336 25.74,176.692 26.776,175.46 C27.056,176.524 27.532,177.168 28.708,177.168 C30.64,177.168 30.64,175.572 30.64,174.536 L30.64,164.568 Z M20.308,169.58 C20.308,167.648 21.288,165.464 23.5,165.464 C25.628,165.464 26.608,167.648 26.608,169.58 C26.608,171.512 25.6,173.64 23.5,173.64 C21.316,173.64 20.308,171.512 20.308,169.58 L20.308,169.58 Z M43.072,164.68 C43.072,162.692 40.02,161.768 38.032,161.768 C34.84,161.768 32.572,163.672 32.572,166.472 C32.572,171.092 39.572,170.812 39.572,172.66 C39.572,173.416 39.208,173.808 37.976,173.808 C36.072,173.808 35.372,172.436 33.804,172.436 C32.684,172.436 32.068,173.612 32.068,174.228 C32.068,176.048 35.428,177.336 37.696,177.336 C41.168,177.336 43.436,175.292 43.436,172.604 C43.436,168.012 36.436,168.292 36.436,166.416 C36.436,165.632 37.08,165.296 37.808,165.296 C39.124,165.296 40.664,166.472 41.42,166.472 C42.372,166.472 43.072,165.604 43.072,164.68 L43.072,164.68 Z M55,164.68 C55,162.692 51.948,161.768 49.96,161.768 C46.768,161.768 44.5,163.672 44.5,166.472 C44.5,171.092 51.5,170.812 51.5,172.66 C51.5,173.416 51.136,173.808 49.904,173.808 C48,173.808 47.3,172.436 45.732,172.436 C44.612,172.436 43.996,173.612 43.996,174.228 C43.996,176.048 47.356,177.336 49.624,177.336 C53.096,177.336 55.364,175.292 55.364,172.604 C55.364,168.012 48.364,168.292 48.364,166.416 C48.364,165.632 49.008,165.296 49.736,165.296 C51.052,165.296 52.592,166.472 53.348,166.472 C54.3,166.472 55,165.604 55,164.68 L55,164.68 Z M57.212,166.164 C57.212,167.368 58.192,168.348 59.396,168.348 C60.6,168.348 61.58,167.368 61.58,166.164 C61.58,164.96 60.6,163.98 59.396,163.98 C58.192,163.98 57.212,164.96 57.212,166.164 L57.212,166.164 Z M57.212,175.152 C57.212,176.356 58.192,177.336 59.396,177.336 C60.6,177.336 61.58,176.356 61.58,175.152 C61.58,173.948 60.6,172.968 59.396,172.968 C58.192,172.968 57.212,173.948 57.212,175.152 L57.212,175.152 Z M76.756,164.708 C75.216,164.12 74.068,163.392 74.068,161.852 C74.068,160.312 75.188,159.22 76.756,159.024 L76.756,164.708 Z M76.756,175.04 C74.264,175.04 73.256,173.5 72.22,173.5 C71.576,173.5 71.24,174.088 71.24,174.676 C71.24,175.88 73.9,177.168 76.756,177.168 L76.756,178.484 C76.756,178.82 76.98,179.072 77.344,179.072 C77.708,179.072 77.932,178.82 77.932,178.484 L77.932,177.056 C81.544,176.608 83.532,173.864 83.532,170.868 C83.532,167.088 80.536,166.08 77.932,165.156 L77.932,159.024 C79.78,159.304 80.172,160.312 81.152,160.312 C81.768,160.312 82.216,159.808 82.216,159.22 C82.216,158.044 80.172,157.064 77.932,156.896 L77.932,155.58 C77.932,155.244 77.708,154.992 77.344,154.992 C76.98,154.992 76.756,155.244 76.756,155.58 L76.756,156.896 C73.396,157.204 71.436,159.808 71.436,162.02 C71.436,165.52 74.208,166.416 76.756,167.284 L76.756,175.04 Z M77.932,167.704 C79.556,168.32 80.9,169.132 80.9,170.98 C80.9,172.968 79.808,174.508 77.932,174.9 L77.932,167.704 Z M85.1,169.552 C85.1,173.5 87.284,177.168 91.82,177.168 C94.368,177.168 95.74,176.16 95.74,175.236 C95.74,174.564 95.348,174.2 94.788,174.2 C94.004,174.2 93.556,175.04 91.82,175.04 C88.768,175.04 87.564,172.072 87.564,169.552 C87.564,167.032 88.768,164.064 91.82,164.064 C93.5,164.064 93.864,164.848 94.816,164.848 C95.404,164.848 95.824,164.316 95.824,163.812 C95.824,162.804 94.34,161.936 91.82,161.936 C87.284,161.936 85.1,165.604 85.1,169.552 L85.1,169.552 Z M97.532,169.552 C97.532,173.5 99.884,177.168 104.084,177.168 C108.284,177.168 110.636,173.5 110.636,169.552 C110.636,165.604 108.284,161.936 104.084,161.936 C99.884,161.936 97.532,165.604 97.532,169.552 L97.532,169.552 Z M99.996,169.552 C99.996,167.032 101.06,164.064 104.084,164.064 C107.108,164.064 108.172,167.032 108.172,169.552 C108.172,172.072 107.108,175.04 104.084,175.04 C101.06,175.04 99.996,172.072 99.996,169.552 L99.996,169.552 Z M115.704,156.7 C115.704,155.888 115.228,155.384 114.472,155.384 C113.716,155.384 113.24,155.888 113.24,156.7 L113.24,175.852 C113.24,176.664 113.716,177.168 114.472,177.168 C115.228,177.168 115.704,176.664 115.704,175.852 L115.704,156.7 Z M118.308,169.552 C118.308,173.5 120.66,177.168 124.86,177.168 C129.06,177.168 131.412,173.5 131.412,169.552 C131.412,165.604 129.06,161.936 124.86,161.936 C120.66,161.936 118.308,165.604 118.308,169.552 L118.308,169.552 Z M120.772,169.552 C120.772,167.032 121.836,164.064 124.86,164.064 C127.884,164.064 128.948,167.032 128.948,169.552 C128.948,172.072 127.884,175.04 124.86,175.04 C121.836,175.04 120.772,172.072 120.772,169.552 L120.772,169.552 Z M134.016,175.852 C134.016,176.664 134.492,177.168 135.248,177.168 C136.004,177.168 136.48,176.664 136.48,175.852 L136.48,168.768 C136.48,165.884 138.272,164.792 139.728,164.54 C140.764,164.344 141.268,163.896 141.268,163.196 C141.268,162.496 140.764,161.936 139.896,161.936 C138.468,161.936 137.096,163.364 136.536,164.512 L136.48,164.512 L136.48,163.252 C136.48,162.44 136.004,161.936 135.248,161.936 C134.492,161.936 134.016,162.44 134.016,163.252 L134.016,175.852 Z M149.024,170.56 C149.612,170.56 150.088,170.084 150.088,169.496 C150.088,168.908 149.612,168.432 149.024,168.432 L143.256,168.432 C142.668,168.432 142.192,168.908 142.192,169.496 C142.192,170.084 142.668,170.56 143.256,170.56 L149.024,170.56 Z M152.692,175.852 C152.692,176.664 153.168,177.168 153.924,177.168 C154.68,177.168 155.156,176.664 155.156,175.852 L155.156,169.916 L161.372,176.412 C161.96,177 162.212,177.168 162.8,177.168 C163.332,177.168 163.836,176.748 163.836,176.188 C163.836,175.712 163.724,175.404 163.248,174.928 L156.752,168.516 L162.352,164.092 C162.828,163.728 162.968,163.392 162.968,163.028 C162.968,162.412 162.576,161.936 161.932,161.936 C161.512,161.936 161.036,162.244 160.532,162.692 L155.156,167.2 L155.156,156.7 C155.156,155.888 154.68,155.384 153.924,155.384 C153.168,155.384 152.692,155.888 152.692,156.7 L152.692,175.852 Z M176.492,170.504 C177.556,170.504 177.864,170.056 177.864,169.188 C177.864,165.604 175.512,161.936 171.452,161.936 C167.28,161.936 164.76,165.52 164.76,169.552 C164.76,173.5 166.832,177.168 171.592,177.168 C174.504,177.168 177.556,175.32 177.556,174.116 C177.556,173.416 177.108,173.024 176.66,173.024 C175.736,173.024 174.896,175.04 171.62,175.04 C168.848,175.04 167.224,173.052 167.224,170.504 L176.492,170.504 Z M167.224,168.656 C167.308,166.388 168.4,163.952 171.452,164.064 C174.168,164.064 175.4,166.528 175.4,168.656 L167.224,168.656 Z M181,162.104 L179.992,162.104 C179.18,162.104 178.76,162.496 178.76,163.168 C178.76,163.84 179.18,164.232 179.992,164.232 L181,164.232 L181,175.852 C181,176.664 181.476,177.168 182.232,177.168 C182.988,177.168 183.464,176.664 183.464,175.852 L183.464,164.232 L184.472,164.232 C185.284,164.232 185.704,163.84 185.704,163.168 C185.704,162.496 185.284,162.104 184.472,162.104 L183.464,162.104 L183.464,158.884 C183.464,158.072 182.988,157.568 182.232,157.568 C181.476,157.568 181,158.072 181,158.884 L181,162.104 Z M186.852,169.552 C186.852,173.5 189.036,177.168 193.572,177.168 C196.12,177.168 197.492,176.16 197.492,175.236 C197.492,174.564 197.1,174.2 196.54,174.2 C195.756,174.2 195.308,175.04 193.572,175.04 C190.52,175.04 189.316,172.072 189.316,169.552 C189.316,167.032 190.52,164.064 193.572,164.064 C195.252,164.064 195.616,164.848 196.568,164.848 C197.156,164.848 197.576,164.316 197.576,163.812 C197.576,162.804 196.092,161.936 193.572,161.936 C189.036,161.936 186.852,165.604 186.852,169.552 L186.852,169.552 Z M209.28,175.852 C209.28,176.664 209.756,177.168 210.512,177.168 C211.268,177.168 211.744,176.664 211.744,175.852 L211.744,167.592 C211.744,163.392 208.86,161.936 206.564,161.936 C205.08,161.936 203.54,162.496 202.448,163.896 L202.392,163.84 L202.392,156.7 C202.392,155.888 201.916,155.384 201.16,155.384 C200.404,155.384 199.928,155.888 199.928,156.7 L199.928,175.852 C199.928,176.664 200.404,177.168 201.16,177.168 C201.916,177.168 202.392,176.664 202.392,175.852 L202.392,167.732 C202.392,165.128 204.212,164.064 205.836,164.064 C207.46,164.064 209.28,165.128 209.28,167.732 L209.28,175.852 Z M214.992,171.232 C214.992,175.6 217.904,177.168 220.9,177.168 C223.896,177.168 226.808,175.6 226.808,171.232 L226.808,163.252 C226.808,162.44 226.332,161.936 225.576,161.936 C224.82,161.936 224.344,162.44 224.344,163.252 L224.344,171.148 C224.344,173.696 223.224,175.04 220.9,175.04 C218.576,175.04 217.456,173.696 217.456,171.148 L217.456,163.252 C217.456,162.44 216.98,161.936 216.224,161.936 C215.468,161.936 214.992,162.44 214.992,163.252 L214.992,171.232 Z M232.38,169.552 C232.38,167.032 233.444,164.064 236.468,164.064 C239.492,164.064 240.556,167.032 240.556,169.552 C240.556,172.072 239.492,175.04 236.468,175.04 C233.444,175.04 232.38,172.072 232.38,169.552 L232.38,169.552 Z M230.168,181.732 C230.168,182.544 230.644,183.048 231.4,183.048 C232.156,183.048 232.632,182.544 232.632,181.732 L232.632,175.152 L232.688,175.152 C233.332,176.076 234.704,177.168 236.664,177.168 C240.696,177.168 243.02,173.5 243.02,169.552 C243.02,165.604 240.696,161.936 236.664,161.936 C234.704,161.936 233.388,162.636 232.688,163.98 L232.632,163.98 L232.632,163.252 C232.632,162.44 232.156,161.936 231.4,161.936 C230.644,161.936 230.168,162.44 230.168,163.252 L230.168,181.732 Z" id="Sass:-$color-ketchup" fill="#575756" transform="translate(122.606000, 169.020000) rotate(-10.000000) translate(-122.606000, -169.020000) "></path>
            </g>
        </g>
    </g>
</svg>