<?xml version="1.0" encoding="UTF-8" standalone="no"?>
<svg width="398px" height="192px" viewBox="0 0 398 192" version="1.1" xmlns="http://www.w3.org/2000/svg" xmlns:xlink="http://www.w3.org/1999/xlink">
    <!-- Generator: Sketch 39.1 (31720) - http://www.bohemiancoding.com/sketch -->
    <title>colour-value-lime</title>
    <desc>Created with Sketch.</desc>
    <defs></defs>
    <g id="Templates" stroke="none" stroke-width="1" fill="none" fill-rule="evenodd">
        <g id="8-colour-messaging" transform="translate(-412.000000, -443.000000)">
            <g id="colour-value-lime" transform="translate(410.000000, 441.000000)">
                <path d="M309.499534,186.804151 C359.205161,186.804151 399.499534,146.509778 399.499534,96.8041507 C399.499534,47.0985232 359.205161,6.8041507 309.499534,6.8041507 C259.793906,6.8041507 219.499534,47.0985232 219.499534,96.8041507 C219.499534,146.509778 259.793906,186.804151 309.499534,186.804151 Z" id="Oval" fill="#85AB1B"></path>
                <path d="M38.5555338,33.7881507 C38.5555338,35.1881507 39.4515338,35.9721507 40.6555338,35.9721507 C41.8595338,35.9721507 42.7555338,35.1881507 42.7555338,33.7881507 L42.7555338,27.6841507 L51.5475338,27.6841507 L51.5475338,33.7881507 C51.5475338,35.1881507 52.4435338,35.9721507 53.6475338,35.9721507 C54.8515338,35.9721507 55.7475338,35.1881507 55.7475338,33.7881507 L55.7475338,17.8841507 C55.7475338,16.4841507 54.8515338,15.7001507 53.6475338,15.7001507 C52.4435338,15.7001507 51.5475338,16.4841507 51.5475338,17.8841507 L51.5475338,23.8201507 L42.7555338,23.8201507 L42.7555338,17.8841507 C42.7555338,16.4841507 41.8595338,15.7001507 40.6555338,15.7001507 C39.4515338,15.7001507 38.5555338,16.4841507 38.5555338,17.8841507 L38.5555338,33.7881507 Z M69.9995338,29.7001507 C71.2315338,29.7001507 71.7635338,29.1121507 71.7635338,27.9081507 C71.7635338,24.5481507 68.8795338,20.5721507 64.5115338,20.5721507 C60.2555338,20.5721507 57.2875338,24.2961507 57.2875338,28.3841507 C57.2875338,32.8361507 60.3115338,36.1401507 64.8475338,36.1401507 C67.8435338,36.1401507 71.4275338,34.4601507 71.4275338,32.7241507 C71.4275338,31.8561507 70.6435338,30.9881507 69.7755338,30.9881507 C68.7115338,30.9881507 67.2835338,32.6121507 65.2115338,32.6121507 C63.3355338,32.6121507 61.6835338,31.6881507 61.4035338,29.7001507 L69.9995338,29.7001507 Z M61.3195338,27.0121507 C61.5155338,25.3041507 62.7195338,23.9321507 64.5115338,23.9321507 C66.3875338,23.9321507 67.5075338,25.2481507 67.7315338,27.0121507 L61.3195338,27.0121507 Z M72.6035338,32.6401507 C72.2955338,32.9761507 72.0435338,33.5641507 72.0435338,34.0121507 C72.0435338,35.1881507 72.8555338,35.9721507 74.0315338,35.9721507 C74.9275338,35.9721507 75.2915338,35.5801507 75.7115338,35.0761507 L79.0435338,30.9881507 L82.3755338,35.0761507 C82.7955338,35.5801507 83.1595338,35.9721507 84.0555338,35.9721507 C85.2315338,35.9721507 86.0435338,35.1881507 86.0435338,34.0121507 C86.0435338,33.5641507 85.7915338,32.9761507 85.4835338,32.6401507 L81.3955338,27.9921507 L84.8115338,24.1561507 C85.1475338,23.7641507 85.4275338,23.2041507 85.4275338,22.7001507 C85.4275338,21.6361507 84.3915338,20.7401507 83.3555338,20.7401507 C82.7115338,20.7401507 82.2915338,21.0201507 81.8715338,21.5241507 L79.0435338,25.0521507 L76.2155338,21.5241507 C75.7955338,21.0201507 75.3755338,20.7401507 74.7315338,20.7401507 C73.6955338,20.7401507 72.6595338,21.6361507 72.6595338,22.7001507 C72.6595338,23.2041507 72.9395338,23.7641507 73.2755338,24.1561507 L76.6915338,27.9921507 L72.6035338,32.6401507 Z M87.6115338,24.9681507 C87.6115338,26.1721507 88.5915338,27.1521507 89.7955338,27.1521507 C90.9995338,27.1521507 91.9795338,26.1721507 91.9795338,24.9681507 C91.9795338,23.7641507 90.9995338,22.7841507 89.7955338,22.7841507 C88.5915338,22.7841507 87.6115338,23.7641507 87.6115338,24.9681507 L87.6115338,24.9681507 Z M87.6115338,33.9561507 C87.6115338,35.1601507 88.5915338,36.1401507 89.7955338,36.1401507 C90.9995338,36.1401507 91.9795338,35.1601507 91.9795338,33.9561507 C91.9795338,32.7521507 90.9995338,31.7721507 89.7955338,31.7721507 C88.5915338,31.7721507 87.6115338,32.7521507 87.6115338,33.9561507 L87.6115338,33.9561507 Z M111.719534,29.7561507 L113.679534,29.7561507 C114.323534,29.7561507 114.827534,29.4481507 114.827534,28.8321507 C114.827534,28.2161507 114.323534,27.9081507 113.679534,27.9081507 L111.971534,27.9081507 L112.559534,23.7641507 L114.519534,23.7641507 C115.163534,23.7641507 115.667534,23.4841507 115.667534,22.8401507 C115.667534,22.2241507 115.163534,21.9161507 114.519534,21.9161507 L112.811534,21.9161507 L113.371534,17.8281507 C113.455534,17.2961507 113.511534,16.9601507 113.511534,16.6521507 C113.511534,16.1481507 113.231534,15.7001507 112.559534,15.7001507 C111.831534,15.7001507 111.579534,16.0641507 111.495534,16.7081507 L110.767534,21.9161507 L107.435534,21.9161507 L107.995534,17.8281507 C108.079534,17.2961507 108.135534,16.9601507 108.135534,16.6521507 C108.135534,16.1481507 107.855534,15.7001507 107.183534,15.7001507 C106.455534,15.7001507 106.203534,16.0641507 106.119534,16.7081507 L105.391534,21.9161507 L103.431534,21.9161507 C102.787534,21.9161507 102.283534,22.2241507 102.283534,22.8401507 C102.283534,23.4561507 102.787534,23.7641507 103.431534,23.7641507 L105.139534,23.7641507 L104.551534,27.9081507 L102.591534,27.9081507 C101.947534,27.9081507 101.443534,28.1881507 101.443534,28.8321507 C101.443534,29.4481507 101.947534,29.7561507 102.591534,29.7561507 L104.299534,29.7561507 L103.739534,33.8441507 C103.655534,34.3761507 103.599534,34.7121507 103.599534,35.0201507 C103.599534,35.5241507 103.879534,35.9721507 104.551534,35.9721507 C105.279534,35.9721507 105.531534,35.6081507 105.615534,34.9641507 L106.343534,29.7561507 L109.675534,29.7561507 L109.115534,33.8441507 C109.031534,34.3761507 108.975534,34.7121507 108.975534,35.0201507 C108.975534,35.5241507 109.255534,35.9721507 109.927534,35.9721507 C110.655534,35.9721507 110.907534,35.6081507 110.991534,34.9641507 L111.719534,29.7561507 Z M109.927534,27.9081507 L106.595534,27.9081507 L107.183534,23.7641507 L110.515534,23.7641507 L109.927534,27.9081507 Z M118.467534,20.2641507 C118.467534,22.3921507 119.279534,23.5681507 121.071534,24.6881507 C118.747534,25.2201507 117.459534,27.3481507 117.459534,29.6721507 C117.459534,32.9201507 119.671534,35.9721507 123.563534,35.9721507 C127.455534,35.9721507 129.667534,32.9201507 129.667534,29.6721507 C129.667534,27.3481507 128.379534,25.2201507 126.055534,24.6881507 C127.847534,23.5681507 128.659534,22.3921507 128.659534,20.2641507 C128.659534,17.2121507 126.083534,15.7001507 123.563534,15.7001507 C121.043534,15.7001507 118.467534,17.2121507 118.467534,20.2641507 L118.467534,20.2641507 Z M120.763534,20.7401507 C120.763534,19.0601507 121.799534,17.8281507 123.563534,17.8281507 C125.327534,17.8281507 126.363534,19.0601507 126.363534,20.7401507 C126.363534,22.4481507 125.327534,23.6801507 123.563534,23.6801507 C121.799534,23.6801507 120.763534,22.4481507 120.763534,20.7401507 L120.763534,20.7401507 Z M120.091534,29.7841507 C120.091534,27.7401507 121.267534,25.8081507 123.563534,25.8081507 C125.859534,25.8081507 127.035534,27.7401507 127.035534,29.7841507 C127.035534,32.3601507 125.411534,33.8441507 123.563534,33.8441507 C121.715534,33.8441507 120.091534,32.3601507 120.091534,29.7841507 L120.091534,29.7841507 Z M138.515534,35.9721507 C142.043534,35.9721507 144.619534,33.0881507 144.619534,29.4761507 C144.619534,26.0041507 142.827534,22.9241507 139.579534,22.9241507 C138.235534,22.9241507 137.339534,23.2321507 136.415534,23.7081507 L136.359534,23.7081507 C137.871534,20.9361507 139.047534,19.5921507 140.643534,18.1641507 C141.343534,17.5481507 141.623534,17.2401507 141.623534,16.8481507 C141.623534,16.0921507 141.007534,15.7001507 140.615534,15.7001507 C140.279534,15.7001507 139.971534,15.8401507 139.467534,16.2601507 C136.443534,18.8081507 132.523534,23.2881507 132.523534,29.1121507 C132.523534,33.0881507 135.043534,35.9721507 138.515534,35.9721507 L138.515534,35.9721507 Z M134.987534,29.3641507 C134.987534,27.0681507 136.051534,25.0521507 138.487534,25.0521507 C140.923534,25.0521507 141.987534,26.7321507 141.987534,29.3641507 C141.987534,31.6881507 140.923534,33.6761507 138.487534,33.6761507 C136.051534,33.6761507 134.987534,31.6881507 134.987534,29.3641507 L134.987534,29.3641507 Z M160.019534,21.9441507 C160.019534,21.0761507 159.347534,20.7401507 158.871534,20.7401507 C158.367534,20.7401507 157.723534,21.0761507 157.723534,21.9441507 L157.723534,22.7281507 L157.667534,22.7281507 C156.519534,21.4681507 155.315534,20.7401507 153.607534,20.7401507 C149.407534,20.7401507 147.055534,24.4081507 147.055534,28.3561507 C147.055534,32.3041507 149.407534,35.9721507 153.607534,35.9721507 C155.203534,35.9721507 156.603534,35.2441507 157.667534,33.7321507 L157.723534,33.7321507 L157.723534,34.7681507 C157.723534,35.6361507 158.367534,35.9721507 158.871534,35.9721507 C159.347534,35.9721507 160.019534,35.6361507 160.019534,34.7681507 L160.019534,21.9441507 Z M149.519534,28.3561507 C149.519534,25.8361507 150.583534,22.8681507 153.607534,22.8681507 C156.631534,22.8681507 157.695534,25.8361507 157.695534,28.3561507 C157.695534,30.8761507 156.631534,33.8441507 153.607534,33.8441507 C150.583534,33.8441507 149.519534,30.8761507 149.519534,28.3561507 L149.519534,28.3561507 Z M162.623534,28.3561507 C162.623534,32.3041507 164.807534,35.9721507 169.343534,35.9721507 C171.891534,35.9721507 173.263534,34.9641507 173.263534,34.0401507 C173.263534,33.3681507 172.871534,33.0041507 172.311534,33.0041507 C171.527534,33.0041507 171.079534,33.8441507 169.343534,33.8441507 C166.291534,33.8441507 165.087534,30.8761507 165.087534,28.3561507 C165.087534,25.8361507 166.291534,22.8681507 169.343534,22.8681507 C171.023534,22.8681507 171.387534,23.6521507 172.339534,23.6521507 C172.927534,23.6521507 173.347534,23.1201507 173.347534,22.6161507 C173.347534,21.6081507 171.863534,20.7401507 169.343534,20.7401507 C164.807534,20.7401507 162.623534,24.4081507 162.623534,28.3561507 L162.623534,28.3561507 Z M178.667534,34.6561507 C178.667534,35.4681507 179.143534,35.9721507 179.899534,35.9721507 C180.655534,35.9721507 181.131534,35.4681507 181.131534,34.6561507 L181.131534,16.5401507 C181.131534,15.9241507 180.851534,15.8681507 180.375534,15.8681507 L176.091534,15.8681507 C175.503534,15.8681507 175.027534,16.3441507 175.027534,16.9321507 C175.027534,17.5201507 175.503534,17.9961507 176.091534,17.9961507 L178.667534,17.9961507 L178.667534,34.6561507 Z M187.879534,28.3561507 C187.879534,25.8361507 188.943534,22.8681507 191.967534,22.8681507 C194.991534,22.8681507 196.055534,25.8361507 196.055534,28.3561507 C196.055534,30.8761507 194.991534,33.8441507 191.967534,33.8441507 C188.943534,33.8441507 187.879534,30.8761507 187.879534,28.3561507 L187.879534,28.3561507 Z M185.667534,34.6561507 C185.667534,35.4681507 186.143534,35.9721507 186.899534,35.9721507 C187.655534,35.9721507 188.131534,35.4681507 188.131534,34.6561507 L188.131534,33.9281507 L188.187534,33.9281507 C188.887534,35.2721507 190.203534,35.9721507 192.163534,35.9721507 C196.195534,35.9721507 198.519534,32.3041507 198.519534,28.3561507 C198.519534,24.4081507 196.195534,20.7401507 192.163534,20.7401507 C190.203534,20.7401507 188.831534,21.8321507 188.187534,22.7561507 L188.131534,22.7561507 L188.131534,15.5041507 C188.131534,14.6921507 187.655534,14.1881507 186.899534,14.1881507 C186.143534,14.1881507 185.667534,14.6921507 185.667534,15.5041507 L185.667534,34.6561507 Z" id="Hex:-#86ac1b" fill="#575756" transform="translate(119.027534, 25.164151) rotate(10.000000) translate(-119.027534, -25.164151) "></path>
                <path d="M12.6555338,104.788151 C12.6555338,106.188151 13.5515338,106.972151 14.7555338,106.972151 C15.9595338,106.972151 16.8555338,106.188151 16.8555338,104.788151 L16.8555338,98.7121507 L16.9115338,98.7121507 L23.1275338,106.244151 C23.5755338,106.776151 24.2475338,106.972151 24.7515338,106.972151 C25.9835338,106.972151 26.8515338,105.908151 26.8515338,104.816151 C26.8515338,104.424151 26.6835338,104.004151 26.2915338,103.584151 L21.5315338,98.4881507 C24.3875338,98.0401507 26.7115338,96.2761507 26.7115338,93.1961507 C26.7115338,88.8001507 24.0515338,86.8681507 19.7395338,86.8681507 L14.8115338,86.8681507 C13.4115338,86.8681507 12.6555338,87.7081507 12.6555338,89.0521507 L12.6555338,104.788151 Z M16.8555338,90.7321507 L19.7395338,90.7321507 C21.2795338,90.7321507 22.3435338,91.6001507 22.3435338,93.1961507 C22.3435338,94.7641507 21.2795338,95.6881507 19.7395338,95.6881507 L16.8555338,95.6881507 L16.8555338,90.7321507 Z M38.9755338,94.9881507 C37.9115338,94.9881507 37.0155338,95.7161507 37.0155338,96.8921507 C37.0155338,98.0401507 37.8275338,98.8521507 38.9755338,98.8521507 L41.8315338,98.8521507 C41.8315338,102.044151 39.2835338,103.276151 37.0715338,103.276151 C33.5155338,103.276151 31.8075338,100.252151 31.8075338,96.8361507 C31.8075338,93.4481507 33.5715338,90.3961507 37.0715338,90.3961507 C40.7395338,90.3961507 41.1315338,92.4401507 43.0355338,92.4401507 C44.0155338,92.4401507 44.7715338,91.6841507 44.7715338,90.4801507 C44.7715338,88.5201507 41.2995338,86.5321507 37.0715338,86.5321507 C31.3595338,86.5321507 27.4395338,91.0121507 27.4395338,96.8361507 C27.4395338,102.632151 31.3875338,107.140151 37.0715338,107.140151 C42.6715338,107.140151 46.1995338,103.080151 46.1995338,97.6761507 C46.1995338,95.8841507 45.4995338,94.9881507 43.7355338,94.9881507 L38.9755338,94.9881507 Z M47.9355338,104.676151 C47.9355338,105.992151 48.8875338,106.804151 50.1755338,106.804151 L55.9435338,106.804151 C59.8075338,106.804151 62.4395338,104.676151 62.4395338,100.728151 C62.4395338,98.2921507 60.5635338,96.3041507 58.1835338,95.9681507 L58.1835338,95.9121507 C59.9755338,95.0721507 60.7875338,93.7561507 60.7875338,91.7961507 C60.7875338,88.8281507 58.4355338,86.8681507 55.5235338,86.8681507 L50.1475338,86.8681507 C48.8595338,86.8681507 47.9355338,87.6241507 47.9355338,88.9681507 L47.9355338,104.676151 Z M52.1355338,90.5641507 L54.3195338,90.5641507 C55.5515338,90.5641507 56.5875338,91.2361507 56.5875338,92.5521507 C56.5875338,93.9521507 55.6915338,94.7641507 54.3195338,94.7641507 L52.1355338,94.7641507 L52.1355338,90.5641507 Z M52.1355338,98.4601507 L55.1035338,98.4601507 C57.0635338,98.4601507 58.0715338,99.3561507 58.0715338,100.672151 C58.0715338,102.240151 56.9515338,103.108151 55.4395338,103.108151 L52.1355338,103.108151 L52.1355338,98.4601507 Z M64.3155338,95.9681507 C64.3155338,97.1721507 65.2955338,98.1521507 66.4995338,98.1521507 C67.7035338,98.1521507 68.6835338,97.1721507 68.6835338,95.9681507 C68.6835338,94.7641507 67.7035338,93.7841507 66.4995338,93.7841507 C65.2955338,93.7841507 64.3155338,94.7641507 64.3155338,95.9681507 L64.3155338,95.9681507 Z M64.3155338,104.956151 C64.3155338,106.160151 65.2955338,107.140151 66.4995338,107.140151 C67.7035338,107.140151 68.6835338,106.160151 68.6835338,104.956151 C68.6835338,103.752151 67.7035338,102.772151 66.4995338,102.772151 C65.2955338,102.772151 64.3155338,103.752151 64.3155338,104.956151 L64.3155338,104.956151 Z M82.3475338,105.656151 C82.3475338,106.468151 82.8235338,106.972151 83.5795338,106.972151 C84.3355338,106.972151 84.8115338,106.468151 84.8115338,105.656151 L84.8115338,87.5401507 C84.8115338,86.9241507 84.5315338,86.8681507 84.0555338,86.8681507 L79.7715338,86.8681507 C79.1835338,86.8681507 78.7075338,87.3441507 78.7075338,87.9321507 C78.7075338,88.5201507 79.1835338,88.9961507 79.7715338,88.9961507 L82.3475338,88.9961507 L82.3475338,105.656151 Z M100.939534,100.924151 C100.939534,98.6561507 99.7635338,96.7521507 97.5235338,96.0801507 C99.0915338,95.1281507 99.8755338,93.5041507 99.8755338,91.8521507 C99.8755338,89.0521507 97.8875338,86.7001507 94.6955338,86.7001507 C91.3915338,86.7001507 89.4595338,89.0801507 89.4595338,91.7401507 C89.4595338,92.3841507 89.8795338,92.8881507 90.5795338,92.8881507 C90.9995338,92.8881507 91.6715338,92.8601507 91.7555338,91.7401507 C91.8955338,90.2281507 92.6235338,88.8281507 94.5835338,88.8281507 C96.2915338,88.8281507 97.4115338,90.1721507 97.4115338,92.0761507 C97.4115338,93.8961507 96.5995338,94.8481507 94.6115338,95.2961507 C93.6875338,95.4921507 93.3235338,95.8001507 93.3235338,96.3601507 C93.3235338,97.0041507 93.8555338,97.4241507 94.8355338,97.4241507 C96.6835338,97.4241507 98.3075338,98.1801507 98.3075338,101.148151 C98.3075338,103.192151 96.7395338,104.844151 94.5275338,104.844151 C92.6515338,104.844151 91.6435338,103.724151 91.1675338,102.296151 C90.8875338,101.428151 90.5235338,101.008151 89.7955338,101.008151 C89.2075338,101.008151 88.7595338,101.512151 88.7595338,102.380151 C88.7595338,103.864151 90.4395338,106.972151 94.5835338,106.972151 C98.1395338,106.972151 100.939534,104.704151 100.939534,100.924151 L100.939534,100.924151 Z M111.971534,101.680151 L111.971534,105.656151 C111.971534,106.468151 112.447534,106.972151 113.203534,106.972151 C113.959534,106.972151 114.435534,106.468151 114.435534,105.656151 L114.435534,101.680151 L115.695534,101.680151 C116.283534,101.680151 116.759534,101.204151 116.759534,100.616151 C116.759534,100.028151 116.283534,99.5521507 115.695534,99.5521507 L114.435534,99.5521507 L114.435534,88.7441507 C114.435534,87.2881507 113.651534,86.7001507 112.559534,86.7001507 C111.691534,86.7001507 111.131534,86.9801507 110.627534,87.8201507 L103.571534,99.3841507 C103.207534,99.9721507 102.955534,100.448151 102.955534,100.812151 C102.955534,101.316151 103.179534,101.680151 104.019534,101.680151 L111.971534,101.680151 Z M106.035534,99.5521507 L111.915534,89.3321507 L111.971534,89.3321507 L111.971534,99.5521507 L106.035534,99.5521507 Z M118.551534,108.232151 C118.327534,108.680151 118.243534,108.960151 118.243534,109.268151 C118.243534,109.884151 118.775534,110.332151 119.363534,110.332151 C120.091534,110.332151 120.399534,109.828151 120.679534,109.296151 L122.247534,106.216151 C122.471534,105.768151 122.555534,105.488151 122.555534,105.180151 C122.555534,104.564151 122.023534,104.116151 121.435534,104.116151 C120.707534,104.116151 120.399534,104.620151 120.119534,105.152151 L118.551534,108.232151 Z M129.219534,105.656151 C129.219534,106.468151 129.695534,106.972151 130.451534,106.972151 C131.207534,106.972151 131.683534,106.468151 131.683534,105.656151 L131.683534,87.5401507 C131.683534,86.9241507 131.403534,86.8681507 130.927534,86.8681507 L126.643534,86.8681507 C126.055534,86.8681507 125.579534,87.3441507 125.579534,87.9321507 C125.579534,88.5201507 126.055534,88.9961507 126.643534,88.9961507 L129.219534,88.9961507 L129.219534,105.656151 Z M144.731534,88.9961507 L144.731534,89.0521507 L137.759534,104.704151 C137.451534,105.432151 137.367534,105.824151 137.367534,106.020151 C137.367534,106.664151 137.955534,106.972151 138.291534,106.972151 C138.823534,106.972151 139.439534,106.860151 139.775534,106.076151 L147.223534,89.1361507 C147.531534,88.4361507 147.699534,88.0441507 147.699534,87.6521507 C147.699534,87.0641507 147.195534,86.8681507 146.439534,86.8681507 L136.331534,86.8681507 C135.743534,86.8681507 135.267534,87.3441507 135.267534,87.9321507 C135.267534,88.5201507 135.743534,88.9961507 136.331534,88.9961507 L144.731534,88.9961507 Z M153.579534,104.676151 L160.271534,95.7721507 C161.559534,94.0921507 161.643534,92.8041507 161.643534,91.6561507 C161.643534,89.0801507 159.571534,86.7001507 156.267534,86.7001507 C152.151534,86.7001507 149.911534,89.6401507 149.911534,92.9441507 C149.911534,93.9801507 150.331534,94.4561507 151.115534,94.4561507 C151.647534,94.4561507 152.207534,94.2041507 152.207534,93.3361507 C152.207534,90.8441507 153.467534,88.8281507 155.847534,88.8281507 C157.639534,88.8281507 159.011534,90.1161507 159.011534,91.9361507 C159.011534,93.1401507 158.395534,94.3721507 157.555534,95.4641507 L150.667534,104.676151 C150.247534,105.264151 150.135534,105.488151 150.135534,105.796151 C150.135534,106.216151 150.443534,106.804151 151.479534,106.804151 L161.139534,106.804151 C161.727534,106.804151 162.203534,106.328151 162.203534,105.740151 C162.203534,105.152151 161.727534,104.676151 161.139534,104.676151 L153.579534,104.676151 Z M164.415534,108.232151 C164.191534,108.680151 164.107534,108.960151 164.107534,109.268151 C164.107534,109.884151 164.639534,110.332151 165.227534,110.332151 C165.955534,110.332151 166.263534,109.828151 166.543534,109.296151 L168.111534,106.216151 C168.335534,105.768151 168.419534,105.488151 168.419534,105.180151 C168.419534,104.564151 167.887534,104.116151 167.299534,104.116151 C166.571534,104.116151 166.263534,104.620151 165.983534,105.152151 L164.415534,108.232151 Z M175.587534,104.676151 L182.279534,95.7721507 C183.567534,94.0921507 183.651534,92.8041507 183.651534,91.6561507 C183.651534,89.0801507 181.579534,86.7001507 178.275534,86.7001507 C174.159534,86.7001507 171.919534,89.6401507 171.919534,92.9441507 C171.919534,93.9801507 172.339534,94.4561507 173.123534,94.4561507 C173.655534,94.4561507 174.215534,94.2041507 174.215534,93.3361507 C174.215534,90.8441507 175.475534,88.8281507 177.855534,88.8281507 C179.647534,88.8281507 181.019534,90.1161507 181.019534,91.9361507 C181.019534,93.1401507 180.403534,94.3721507 179.563534,95.4641507 L172.675534,104.676151 C172.255534,105.264151 172.143534,105.488151 172.143534,105.796151 C172.143534,106.216151 172.451534,106.804151 173.487534,106.804151 L183.147534,106.804151 C183.735534,106.804151 184.211534,106.328151 184.211534,105.740151 C184.211534,105.152151 183.735534,104.676151 183.147534,104.676151 L175.587534,104.676151 Z M195.747534,88.9961507 L195.747534,89.0521507 L188.775534,104.704151 C188.467534,105.432151 188.383534,105.824151 188.383534,106.020151 C188.383534,106.664151 188.971534,106.972151 189.307534,106.972151 C189.839534,106.972151 190.455534,106.860151 190.791534,106.076151 L198.239534,89.1361507 C198.547534,88.4361507 198.715534,88.0441507 198.715534,87.6521507 C198.715534,87.0641507 198.211534,86.8681507 197.455534,86.8681507 L187.347534,86.8681507 C186.759534,86.8681507 186.283534,87.3441507 186.283534,87.9321507 C186.283534,88.5201507 186.759534,88.9961507 187.347534,88.9961507 L195.747534,88.9961507 Z" id="RGB:-134,172,27" fill="#575756"></path>
                <path d="M8.33553379,156.532151 C4.61153379,156.532151 1.39153379,158.968151 1.39153379,162.888151 C1.39153379,169.384151 10.7435338,167.396151 10.7435338,170.700151 C10.7435338,172.072151 9.73553379,173.108151 7.88753379,173.108151 C6.06753379,173.108151 4.49953379,172.016151 3.18353379,172.016151 C2.03553379,172.016151 1.30753379,172.912151 1.30753379,174.004151 C1.30753379,176.636151 5.95553379,177.140151 8.11153379,177.140151 C11.9755338,177.140151 15.2795338,174.648151 15.2795338,170.644151 C15.2795338,163.420151 5.92753379,165.268151 5.92753379,162.384151 C5.92753379,161.208151 7.01953379,160.564151 8.22353379,160.564151 C9.90353379,160.564151 10.7995338,161.404151 11.9475338,161.404151 C13.0955338,161.404151 13.8235338,160.424151 13.8235338,159.332151 C13.8235338,157.120151 9.90353379,156.532151 8.33553379,156.532151 L8.33553379,156.532151 Z M30.7355338,164.372151 C30.7355338,163.336151 30.7355338,161.740151 28.8035338,161.740151 C27.8235338,161.740151 26.9835338,162.440151 26.8715338,163.420151 C25.9755338,162.160151 24.5195338,161.572151 23.0355338,161.572151 C19.3395338,161.572151 16.3715338,164.960151 16.3715338,169.384151 C16.3715338,173.920151 19.2555338,177.140151 23.0355338,177.140151 C24.5755338,177.140151 25.8355338,176.496151 26.8715338,175.264151 C27.1515338,176.328151 27.6275338,176.972151 28.8035338,176.972151 C30.7355338,176.972151 30.7355338,175.376151 30.7355338,174.340151 L30.7355338,164.372151 Z M20.4035338,169.384151 C20.4035338,167.452151 21.3835338,165.268151 23.5955338,165.268151 C25.7235338,165.268151 26.7035338,167.452151 26.7035338,169.384151 C26.7035338,171.316151 25.6955338,173.444151 23.5955338,173.444151 C21.4115338,173.444151 20.4035338,171.316151 20.4035338,169.384151 L20.4035338,169.384151 Z M43.1675338,164.484151 C43.1675338,162.496151 40.1155338,161.572151 38.1275338,161.572151 C34.9355338,161.572151 32.6675338,163.476151 32.6675338,166.276151 C32.6675338,170.896151 39.6675338,170.616151 39.6675338,172.464151 C39.6675338,173.220151 39.3035338,173.612151 38.0715338,173.612151 C36.1675338,173.612151 35.4675338,172.240151 33.8995338,172.240151 C32.7795338,172.240151 32.1635338,173.416151 32.1635338,174.032151 C32.1635338,175.852151 35.5235338,177.140151 37.7915338,177.140151 C41.2635338,177.140151 43.5315338,175.096151 43.5315338,172.408151 C43.5315338,167.816151 36.5315338,168.096151 36.5315338,166.220151 C36.5315338,165.436151 37.1755338,165.100151 37.9035338,165.100151 C39.2195338,165.100151 40.7595338,166.276151 41.5155338,166.276151 C42.4675338,166.276151 43.1675338,165.408151 43.1675338,164.484151 L43.1675338,164.484151 Z M55.0955338,164.484151 C55.0955338,162.496151 52.0435338,161.572151 50.0555338,161.572151 C46.8635338,161.572151 44.5955338,163.476151 44.5955338,166.276151 C44.5955338,170.896151 51.5955338,170.616151 51.5955338,172.464151 C51.5955338,173.220151 51.2315338,173.612151 49.9995338,173.612151 C48.0955338,173.612151 47.3955338,172.240151 45.8275338,172.240151 C44.7075338,172.240151 44.0915338,173.416151 44.0915338,174.032151 C44.0915338,175.852151 47.4515338,177.140151 49.7195338,177.140151 C53.1915338,177.140151 55.4595338,175.096151 55.4595338,172.408151 C55.4595338,167.816151 48.4595338,168.096151 48.4595338,166.220151 C48.4595338,165.436151 49.1035338,165.100151 49.8315338,165.100151 C51.1475338,165.100151 52.6875338,166.276151 53.4435338,166.276151 C54.3955338,166.276151 55.0955338,165.408151 55.0955338,164.484151 L55.0955338,164.484151 Z M57.3075338,165.968151 C57.3075338,167.172151 58.2875338,168.152151 59.4915338,168.152151 C60.6955338,168.152151 61.6755338,167.172151 61.6755338,165.968151 C61.6755338,164.764151 60.6955338,163.784151 59.4915338,163.784151 C58.2875338,163.784151 57.3075338,164.764151 57.3075338,165.968151 L57.3075338,165.968151 Z M57.3075338,174.956151 C57.3075338,176.160151 58.2875338,177.140151 59.4915338,177.140151 C60.6955338,177.140151 61.6755338,176.160151 61.6755338,174.956151 C61.6755338,173.752151 60.6955338,172.772151 59.4915338,172.772151 C58.2875338,172.772151 57.3075338,173.752151 57.3075338,174.956151 L57.3075338,174.956151 Z M76.8515338,164.512151 C75.3115338,163.924151 74.1635338,163.196151 74.1635338,161.656151 C74.1635338,160.116151 75.2835338,159.024151 76.8515338,158.828151 L76.8515338,164.512151 Z M76.8515338,174.844151 C74.3595338,174.844151 73.3515338,173.304151 72.3155338,173.304151 C71.6715338,173.304151 71.3355338,173.892151 71.3355338,174.480151 C71.3355338,175.684151 73.9955338,176.972151 76.8515338,176.972151 L76.8515338,178.288151 C76.8515338,178.624151 77.0755338,178.876151 77.4395338,178.876151 C77.8035338,178.876151 78.0275338,178.624151 78.0275338,178.288151 L78.0275338,176.860151 C81.6395338,176.412151 83.6275338,173.668151 83.6275338,170.672151 C83.6275338,166.892151 80.6315338,165.884151 78.0275338,164.960151 L78.0275338,158.828151 C79.8755338,159.108151 80.2675338,160.116151 81.2475338,160.116151 C81.8635338,160.116151 82.3115338,159.612151 82.3115338,159.024151 C82.3115338,157.848151 80.2675338,156.868151 78.0275338,156.700151 L78.0275338,155.384151 C78.0275338,155.048151 77.8035338,154.796151 77.4395338,154.796151 C77.0755338,154.796151 76.8515338,155.048151 76.8515338,155.384151 L76.8515338,156.700151 C73.4915338,157.008151 71.5315338,159.612151 71.5315338,161.824151 C71.5315338,165.324151 74.3035338,166.220151 76.8515338,167.088151 L76.8515338,174.844151 Z M78.0275338,167.508151 C79.6515338,168.124151 80.9955338,168.936151 80.9955338,170.784151 C80.9955338,172.772151 79.9035338,174.312151 78.0275338,174.704151 L78.0275338,167.508151 Z M85.1955338,169.356151 C85.1955338,173.304151 87.3795338,176.972151 91.9155338,176.972151 C94.4635338,176.972151 95.8355338,175.964151 95.8355338,175.040151 C95.8355338,174.368151 95.4435338,174.004151 94.8835338,174.004151 C94.0995338,174.004151 93.6515338,174.844151 91.9155338,174.844151 C88.8635338,174.844151 87.6595338,171.876151 87.6595338,169.356151 C87.6595338,166.836151 88.8635338,163.868151 91.9155338,163.868151 C93.5955338,163.868151 93.9595338,164.652151 94.9115338,164.652151 C95.4995338,164.652151 95.9195338,164.120151 95.9195338,163.616151 C95.9195338,162.608151 94.4355338,161.740151 91.9155338,161.740151 C87.3795338,161.740151 85.1955338,165.408151 85.1955338,169.356151 L85.1955338,169.356151 Z M97.6275338,169.356151 C97.6275338,173.304151 99.9795338,176.972151 104.179534,176.972151 C108.379534,176.972151 110.731534,173.304151 110.731534,169.356151 C110.731534,165.408151 108.379534,161.740151 104.179534,161.740151 C99.9795338,161.740151 97.6275338,165.408151 97.6275338,169.356151 L97.6275338,169.356151 Z M100.091534,169.356151 C100.091534,166.836151 101.155534,163.868151 104.179534,163.868151 C107.203534,163.868151 108.267534,166.836151 108.267534,169.356151 C108.267534,171.876151 107.203534,174.844151 104.179534,174.844151 C101.155534,174.844151 100.091534,171.876151 100.091534,169.356151 L100.091534,169.356151 Z M115.799534,156.504151 C115.799534,155.692151 115.323534,155.188151 114.567534,155.188151 C113.811534,155.188151 113.335534,155.692151 113.335534,156.504151 L113.335534,175.656151 C113.335534,176.468151 113.811534,176.972151 114.567534,176.972151 C115.323534,176.972151 115.799534,176.468151 115.799534,175.656151 L115.799534,156.504151 Z M118.403534,169.356151 C118.403534,173.304151 120.755534,176.972151 124.955534,176.972151 C129.155534,176.972151 131.507534,173.304151 131.507534,169.356151 C131.507534,165.408151 129.155534,161.740151 124.955534,161.740151 C120.755534,161.740151 118.403534,165.408151 118.403534,169.356151 L118.403534,169.356151 Z M120.867534,169.356151 C120.867534,166.836151 121.931534,163.868151 124.955534,163.868151 C127.979534,163.868151 129.043534,166.836151 129.043534,169.356151 C129.043534,171.876151 127.979534,174.844151 124.955534,174.844151 C121.931534,174.844151 120.867534,171.876151 120.867534,169.356151 L120.867534,169.356151 Z M134.111534,175.656151 C134.111534,176.468151 134.587534,176.972151 135.343534,176.972151 C136.099534,176.972151 136.575534,176.468151 136.575534,175.656151 L136.575534,168.572151 C136.575534,165.688151 138.367534,164.596151 139.823534,164.344151 C140.859534,164.148151 141.363534,163.700151 141.363534,163.000151 C141.363534,162.300151 140.859534,161.740151 139.991534,161.740151 C138.563534,161.740151 137.191534,163.168151 136.631534,164.316151 L136.575534,164.316151 L136.575534,163.056151 C136.575534,162.244151 136.099534,161.740151 135.343534,161.740151 C134.587534,161.740151 134.111534,162.244151 134.111534,163.056151 L134.111534,175.656151 Z M149.119534,170.364151 C149.707534,170.364151 150.183534,169.888151 150.183534,169.300151 C150.183534,168.712151 149.707534,168.236151 149.119534,168.236151 L143.351534,168.236151 C142.763534,168.236151 142.287534,168.712151 142.287534,169.300151 C142.287534,169.888151 142.763534,170.364151 143.351534,170.364151 L149.119534,170.364151 Z M155.251534,156.504151 C155.251534,155.692151 154.775534,155.188151 154.019534,155.188151 C153.263534,155.188151 152.787534,155.692151 152.787534,156.504151 L152.787534,175.656151 C152.787534,176.468151 153.263534,176.972151 154.019534,176.972151 C154.775534,176.972151 155.251534,176.468151 155.251534,175.656151 L155.251534,156.504151 Z M160.963534,163.056151 C160.963534,162.244151 160.487534,161.740151 159.731534,161.740151 C158.975534,161.740151 158.499534,162.244151 158.499534,163.056151 L158.499534,175.656151 C158.499534,176.468151 158.975534,176.972151 159.731534,176.972151 C160.487534,176.972151 160.963534,176.468151 160.963534,175.656151 L160.963534,163.056151 Z M158.219534,158.212151 C158.219534,159.052151 158.891534,159.724151 159.731534,159.724151 C160.571534,159.724151 161.243534,159.052151 161.243534,158.212151 C161.243534,157.372151 160.571534,156.700151 159.731534,156.700151 C158.891534,156.700151 158.219534,157.372151 158.219534,158.212151 L158.219534,158.212151 Z M173.031534,175.656151 C173.031534,176.468151 173.507534,176.972151 174.263534,176.972151 C175.019534,176.972151 175.495534,176.468151 175.495534,175.656151 L175.495534,167.312151 C175.495534,165.184151 176.671534,163.868151 178.659534,163.868151 C180.675534,163.868151 181.851534,165.184151 181.851534,167.312151 L181.851534,175.656151 C181.851534,176.468151 182.327534,176.972151 183.083534,176.972151 C183.839534,176.972151 184.315534,176.468151 184.315534,175.656151 L184.315534,167.396151 C184.315534,163.196151 181.431534,161.740151 179.135534,161.740151 C176.979534,161.740151 175.663534,162.692151 174.571534,164.260151 C173.451534,162.356151 171.939534,161.740151 170.483534,161.740151 C168.243534,161.740151 167.319534,162.804151 166.731534,163.560151 L166.675534,163.504151 L166.675534,163.056151 C166.675534,162.244151 166.199534,161.740151 165.443534,161.740151 C164.687534,161.740151 164.211534,162.244151 164.211534,163.056151 L164.211534,175.656151 C164.211534,176.468151 164.687534,176.972151 165.443534,176.972151 C166.199534,176.972151 166.675534,176.468151 166.675534,175.656151 L166.675534,167.312151 C166.675534,165.184151 167.851534,163.868151 169.839534,163.868151 C171.855534,163.868151 173.031534,165.184151 173.031534,167.312151 L173.031534,175.656151 Z M198.399534,170.308151 C199.463534,170.308151 199.771534,169.860151 199.771534,168.992151 C199.771534,165.408151 197.419534,161.740151 193.359534,161.740151 C189.187534,161.740151 186.667534,165.324151 186.667534,169.356151 C186.667534,173.304151 188.739534,176.972151 193.499534,176.972151 C196.411534,176.972151 199.463534,175.124151 199.463534,173.920151 C199.463534,173.220151 199.015534,172.828151 198.567534,172.828151 C197.643534,172.828151 196.803534,174.844151 193.527534,174.844151 C190.755534,174.844151 189.131534,172.856151 189.131534,170.308151 L198.399534,170.308151 Z M189.131534,168.460151 C189.215534,166.192151 190.307534,163.756151 193.359534,163.868151 C196.075534,163.868151 197.307534,166.332151 197.307534,168.460151 L189.131534,168.460151 Z" id="Sass:-$color-lime" fill="#575756" transform="translate(100.903534, 166.836151) rotate(-10.000000) translate(-100.903534, -166.836151) "></path>
            </g>
        </g>
    </g>
</svg>