<?xml version="1.0" encoding="UTF-8" standalone="no"?>
<svg width="180px" height="180px" viewBox="0 0 180 180" version="1.1" xmlns="http://www.w3.org/2000/svg" xmlns:xlink="http://www.w3.org/1999/xlink">
    <!-- Generator: Sketch 39.1 (31720) - http://www.bohemiancoding.com/sketch -->
    <title>colour-messaging-roundel-dont</title>
    <desc>Created with Sketch.</desc>
    <defs></defs>
    <g id="Templates" stroke="none" stroke-width="1" fill="none" fill-rule="evenodd">
        <g id="8-colour-messaging" transform="translate(-828.000000, -2074.000000)">
            <g id="colour-messaging-roundel-dont" transform="translate(828.000000, 2074.000000)">
                <g id="Group-2" fill="#E3231D">
                    <g id="Page-1">
                        <path d="M90,179.552239 C40.5420896,179.552239 0.447761194,139.45791 0.447761194,90 C0.447761194,40.5420896 40.5420896,0.447761194 90,0.447761194 C139.45791,0.447761194 179.552239,40.5420896 179.552239,90 C179.552239,139.45791 139.45791,179.552239 90,179.552239 Z" id="Stroke-1"></path>
                    </g>
                </g>
                <path d="M32.759716,98.898403 C32.759716,100.331239 33.6767309,101.133627 34.9089697,101.133627 C36.1412085,101.133627 37.0582234,100.331239 37.0582234,98.898403 L37.0582234,94.1987015 L40.239119,94.1987015 C44.1650891,94.1987015 47.4032981,91.5909403 47.4032981,87.4070597 C47.4032981,83.3091493 44.279716,80.5581045 40.0671787,80.5581045 L34.9949399,80.5581045 C33.562104,80.5581045 32.759716,81.4464627 32.759716,82.7933284 L32.759716,98.898403 Z M37.0582234,84.3407911 L39.9812085,84.3407911 C41.7865817,84.3407911 42.9328503,85.659 42.9328503,87.378403 C42.9328503,89.097806 41.7865817,90.416015 39.9812085,90.416015 L37.0582234,90.416015 L37.0582234,84.3407911 Z M57.8200145,97.3509403 C54.1806115,97.3509403 52.4325518,94.256015 52.4325518,90.7598955 C52.4325518,87.2924329 54.2379249,84.1688508 57.8200145,84.1688508 C61.402104,84.1688508 63.2074772,87.2924329 63.2074772,90.7598955 C63.2074772,94.256015 61.4594175,97.3509403 57.8200145,97.3509403 L57.8200145,97.3509403 Z M57.8200145,101.305567 C63.6946414,101.305567 67.6779249,96.6918358 67.6779249,90.7598955 C67.6779249,84.9425821 63.5800145,80.2142239 57.8200145,80.2142239 C51.9740443,80.2142239 47.962104,84.7992985 47.962104,90.7598955 C47.962104,96.6918358 52.0027011,101.305567 57.8200145,101.305567 L57.8200145,101.305567 Z M69.5262832,98.898403 C69.5262832,100.331239 70.4432981,101.133627 71.6755369,101.133627 C72.9077757,101.133627 73.8247906,100.331239 73.8247906,98.898403 L73.8247906,94.1987015 L77.0056861,94.1987015 C80.9316563,94.1987015 84.1698652,91.5909403 84.1698652,87.4070597 C84.1698652,83.3091493 81.0462832,80.5581045 76.8337458,80.5581045 L71.761507,80.5581045 C70.3286712,80.5581045 69.5262832,81.4464627 69.5262832,82.7933284 L69.5262832,98.898403 Z M73.8247906,84.3407911 L76.7477757,84.3407911 C78.5531488,84.3407911 79.6994175,85.659 79.6994175,87.378403 C79.6994175,89.097806 78.5531488,90.416015 76.7477757,90.416015 L73.8247906,90.416015 L73.8247906,84.3407911 Z M85.359119,92.8518358 C85.359119,97.7234776 89.2850891,101.305567 94.0707608,101.305567 C98.799119,101.305567 102.753746,97.6661642 102.753746,92.8518358 L102.753746,82.6213881 C102.753746,81.1885523 101.836731,80.3861642 100.604492,80.3861642 C99.3722533,80.3861642 98.4552384,81.1885523 98.4552384,82.6213881 L98.4552384,92.6225821 C98.4552384,95.1443732 96.678522,97.3509403 94.0707608,97.3509403 C91.3483727,97.3509403 89.6576264,95.259 89.6576264,92.6225821 L89.6576264,82.6213881 C89.6576264,81.1885523 88.7406115,80.3861642 87.5083727,80.3861642 C86.2761339,80.3861642 85.359119,81.1885523 85.359119,82.6213881 L85.359119,92.8518358 Z M105.232552,98.6118358 C105.232552,100.044672 106.063597,100.961687 107.467776,100.961687 L114.631955,100.961687 C115.89285,100.961687 116.637925,100.016015 116.695238,99.0703433 C116.723895,98.096015 116.093447,97.0070597 114.631955,97.0070597 L109.531059,97.0070597 L109.531059,82.6213881 C109.531059,81.1885523 108.614044,80.3861642 107.381806,80.3861642 C106.149567,80.3861642 105.232552,81.1885523 105.232552,82.6213881 L105.232552,98.6118358 Z M116.480313,98.1819851 C116.423,98.3252687 116.279716,98.6691493 116.279716,99.1276567 C116.279716,100.273925 117.254044,101.133627 118.400313,101.133627 C119.575238,101.133627 120.177029,100.503179 120.463597,99.6148209 L121.323298,96.9497463 L129.289865,96.9497463 L130.149567,99.6434776 C130.436134,100.503179 131.037925,101.133627 132.241507,101.133627 C133.301806,101.133627 134.21882,100.359896 134.21882,99.2422836 C134.21882,99.0416866 134.161507,98.6404926 133.989567,98.1819851 L128.37285,82.5927314 C127.885686,81.217209 126.825388,80.2142239 125.306582,80.2142239 C123.845089,80.2142239 122.727477,81.2745224 122.240313,82.5927314 L116.480313,98.1819851 Z M125.277925,84.6846717 L125.335238,84.6846717 L128.000313,92.9951194 L122.555537,92.9951194 L125.277925,84.6846717 Z M135.637328,98.898403 C135.637328,100.331239 136.554343,101.133627 137.786582,101.133627 C139.01882,101.133627 139.935835,100.331239 139.935835,98.898403 L139.935835,92.6798955 L139.993149,92.6798955 L146.35494,100.388552 C146.813447,100.93303 147.501209,101.133627 148.017029,101.133627 C149.277925,101.133627 150.166283,100.044672 150.166283,98.9270597 C150.166283,98.5258657 149.994343,98.096015 149.593149,97.6661642 L144.721507,92.4506418 C147.644492,91.9921344 150.023,90.1867612 150.023,87.0345224 C150.023,82.5354179 147.300612,80.5581045 142.887477,80.5581045 L137.843895,80.5581045 C136.411059,80.5581045 135.637328,81.417806 135.637328,82.7933284 L135.637328,98.898403 Z M139.935835,84.5127314 L142.887477,84.5127314 C144.463597,84.5127314 145.552552,85.4010896 145.552552,87.0345224 C145.552552,88.6392985 144.463597,89.5849702 142.887477,89.5849702 L139.935835,89.5849702 L139.935835,84.5127314 Z" id="POPULAR" fill="#FFFFFF" transform="translate(91.463000, 90.759896) rotate(-5.000000) translate(-91.463000, -90.759896) "></path>
                <path d="M26.9522605,120.343955 C26.9522605,117.177388 28.3027083,113.68485 32.0280814,113.68485 C35.7534545,113.68485 37.1039023,117.177388 37.1039023,120.343955 C37.1039023,123.510522 35.7534545,127.003059 32.0280814,127.003059 C28.3027083,127.003059 26.9522605,123.510522 26.9522605,120.343955 L26.9522605,120.343955 Z M24.7636038,120.343955 C24.7636038,124.651418 27.3015142,128.772612 32.0280814,128.772612 C36.7546486,128.772612 39.292559,124.651418 39.292559,120.343955 C39.292559,116.036492 36.7546486,111.915298 32.0280814,111.915298 C27.3015142,111.915298 24.7636038,116.036492 24.7636038,120.343955 L24.7636038,120.343955 Z M43.9609172,127.887835 C44.1704695,128.493209 44.3800217,128.772612 45.031962,128.772612 C45.6839023,128.772612 45.8934545,128.493209 46.1030068,127.887835 L49.6653948,117.899179 C49.8050963,117.526641 49.8749471,117.293806 49.8749471,117.06097 C49.8749471,116.455597 49.432559,116.106343 48.9436038,116.106343 C48.2683799,116.106343 48.0355441,116.432313 47.872559,116.897985 L45.0552456,125.466343 L45.0086784,125.466343 L42.191365,116.897985 C42.0283799,116.432313 41.7955441,116.106343 41.1203202,116.106343 C40.631365,116.106343 40.1889769,116.455597 40.1889769,117.06097 C40.1889769,117.293806 40.2588277,117.526641 40.3985292,117.899179 L43.9609172,127.887835 Z M60.410768,123.231119 C61.2955441,123.231119 61.5516635,122.858582 61.5516635,122.136791 C61.5516635,119.156492 59.5958426,116.106343 56.2197232,116.106343 C52.7504695,116.106343 50.6549471,119.086641 50.6549471,122.439477 C50.6549471,125.722462 52.3779322,128.772612 56.3361411,128.772612 C58.7576337,128.772612 61.2955441,127.235895 61.2955441,126.234701 C61.2955441,125.652612 60.9230068,125.326641 60.5504695,125.326641 C59.7821113,125.326641 59.0836038,127.003059 56.3594247,127.003059 C54.0543501,127.003059 52.7039023,125.349925 52.7039023,123.231119 L60.410768,123.231119 Z M52.7039023,121.694403 C52.7737531,119.808432 53.6818128,117.782761 56.2197232,117.875895 C58.4782307,117.875895 59.5027083,119.92485 59.5027083,121.694403 L52.7039023,121.694403 Z M63.5656934,127.678283 C63.5656934,128.353507 63.9615143,128.772612 64.590171,128.772612 C65.2188277,128.772612 65.6146486,128.353507 65.6146486,127.678283 L65.6146486,121.787537 C65.6146486,119.389328 67.1047978,118.481268 68.3155441,118.271716 C69.1770366,118.108731 69.5961411,117.736194 69.5961411,117.154104 C69.5961411,116.572015 69.1770366,116.106343 68.4552456,116.106343 C67.2677829,116.106343 66.1268874,117.293806 65.6612158,118.248432 L65.6146486,118.248432 L65.6146486,117.200671 C65.6146486,116.525447 65.2188277,116.106343 64.590171,116.106343 C63.9615143,116.106343 63.5656934,116.525447 63.5656934,117.200671 L63.5656934,127.678283 Z M80.7955441,113.824552 L85.5221113,113.824552 C86.0110665,113.824552 86.4068874,113.428731 86.4068874,112.939776 C86.4068874,112.450821 86.0110665,112.055 85.5221113,112.055 L79.7710665,112.055 C79.2821113,112.055 79.072559,112.171418 79.0027083,112.590522 L78.1412158,118.388134 C78.071365,118.900373 77.9782307,119.505746 77.9782307,119.761865 C77.9782307,120.087835 78.1877829,120.390522 78.6767381,120.390522 C79.2588277,120.390522 79.9806187,119.761865 81.4940516,119.761865 C83.4964396,119.761865 84.3579322,121.321865 84.3579322,123.277686 C84.3579322,125.210224 83.1704695,126.863358 81.191365,126.863358 C78.8397232,126.863358 78.0946486,125.140373 77.2564396,125.140373 C76.7442008,125.140373 76.511365,125.606044 76.511365,126.025149 C76.511365,127.026343 78.4206187,128.772612 81.1680814,128.772612 C84.5209173,128.772612 86.5465889,126.444253 86.5465889,122.881865 C86.5465889,120.297388 84.8934546,117.852612 82.308977,117.852612 C81.5406187,117.852612 80.7955441,117.96903 80.1203202,118.318283 L80.7955441,113.824552 Z M88.7934546,120.343955 C88.7934546,125.675895 91.2382307,128.772612 94.2650964,128.772612 C97.291962,128.772612 99.7367382,125.675895 99.7367382,120.343955 C99.7367382,115.012015 97.291962,111.915298 94.2650964,111.915298 C91.2382307,111.915298 88.7934546,115.012015 88.7934546,120.343955 L88.7934546,120.343955 Z M90.9821113,120.343955 C90.9821113,115.710522 92.448977,113.68485 94.2650964,113.68485 C96.0812158,113.68485 97.5480814,115.710522 97.5480814,120.343955 C97.5480814,124.977388 96.0812158,127.003059 94.2650964,127.003059 C92.448977,127.003059 90.9821113,124.977388 90.9821113,120.343955 L90.9821113,120.343955 Z M101.63435,119.59888 C101.63435,123.04485 108.246887,122.905149 108.246887,125.326641 C108.246887,126.16485 107.338828,127.003059 105.848678,127.003059 C103.613455,127.003059 102.86838,125.489627 101.96032,125.489627 C101.517932,125.489627 101.122111,125.862164 101.122111,126.42097 C101.122111,127.468731 103.171067,128.772612 105.778828,128.772612 C108.083902,128.772612 110.295843,127.538582 110.295843,124.954104 C110.295843,121.368432 103.683305,121.601268 103.683305,119.435895 C103.683305,118.388134 104.684499,117.875895 105.848678,117.875895 C107.804499,117.875895 108.153753,119.133209 109.038529,119.133209 C109.667186,119.133209 109.969872,118.737388 109.969872,118.295 C109.969872,117.014403 107.54838,116.106343 105.848678,116.106343 C103.77644,116.106343 101.63435,117.317089 101.63435,119.59888 L101.63435,119.59888 Z M120.237932,122.439477 L123.404499,122.439477 C126.431365,122.439477 128.713156,120.157686 128.713156,117.270522 C128.713156,114.383358 126.664201,112.055 123.334649,112.055 L119.283305,112.055 C118.514947,112.055 118.188977,112.543955 118.188977,113.172612 L118.188977,127.678283 C118.188977,128.353507 118.584798,128.772612 119.213455,128.772612 C119.842111,128.772612 120.237932,128.353507 120.237932,127.678283 L120.237932,122.439477 Z M120.237932,113.824552 L123.171664,113.824552 C125.732858,113.824552 126.664201,115.640671 126.664201,117.270522 C126.664201,119.156492 125.29047,120.669925 123.264798,120.669925 L120.237932,120.669925 L120.237932,113.824552 Z M132.38032,111.752313 C132.38032,111.077089 131.984499,110.657985 131.355843,110.657985 C130.727186,110.657985 130.331365,111.077089 130.331365,111.752313 L130.331365,127.678283 C130.331365,128.353507 130.727186,128.772612 131.355843,128.772612 C131.984499,128.772612 132.38032,128.353507 132.38032,127.678283 L132.38032,111.752313 Z M145.384201,117.107537 C145.384201,116.385746 144.825395,116.106343 144.429574,116.106343 C144.01047,116.106343 143.474947,116.385746 143.474947,117.107537 L143.474947,117.759477 L143.42838,117.759477 C142.473753,116.711716 141.472559,116.106343 140.052261,116.106343 C136.559723,116.106343 134.603902,119.156492 134.603902,122.439477 C134.603902,125.722462 136.559723,128.772612 140.052261,128.772612 C141.379425,128.772612 142.543604,128.167238 143.42838,126.909925 L143.474947,126.909925 L143.474947,127.771418 C143.474947,128.493209 144.01047,128.772612 144.429574,128.772612 C144.825395,128.772612 145.384201,128.493209 145.384201,127.771418 L145.384201,117.107537 Z M136.652858,122.439477 C136.652858,120.343955 137.537634,117.875895 140.052261,117.875895 C142.566887,117.875895 143.451664,120.343955 143.451664,122.439477 C143.451664,124.535 142.566887,127.003059 140.052261,127.003059 C137.537634,127.003059 136.652858,124.535 136.652858,122.439477 L136.652858,122.439477 Z M148.143305,127.678283 C148.143305,128.353507 148.539126,128.772612 149.167783,128.772612 C149.79644,128.772612 150.192261,128.353507 150.192261,127.678283 L150.192261,120.926044 C150.192261,118.760671 151.705693,117.875895 153.056141,117.875895 C154.406589,117.875895 155.920022,118.760671 155.920022,120.926044 L155.920022,127.678283 C155.920022,128.353507 156.315843,128.772612 156.944499,128.772612 C157.573156,128.772612 157.968977,128.353507 157.968977,127.678283 L157.968977,120.809627 C157.968977,117.317089 155.570768,116.106343 153.661514,116.106343 C152.427484,116.106343 151.146887,116.572015 150.238828,117.736194 L150.192261,117.689627 L150.192261,117.200671 C150.192261,116.525447 149.79644,116.106343 149.167783,116.106343 C148.539126,116.106343 148.143305,116.525447 148.143305,117.200671 L148.143305,127.678283 Z" id="Over-50s-Plan" fill="#FFFFFF" transform="translate(91.366290, 119.715298) rotate(-5.000000) translate(-91.366290, -119.715298) "></path>
                <path d="M20.9116892,65.8661458 C20.9116892,70.7377876 24.8376594,74.3198772 29.623331,74.3198772 C34.3516892,74.3198772 38.3063161,70.6804742 38.3063161,65.8661458 L38.3063161,55.6356981 C38.3063161,54.2028622 37.3893012,53.4004742 36.1570623,53.4004742 C34.9248235,53.4004742 34.0078086,54.2028622 34.0078086,55.6356981 L34.0078086,65.6368921 C34.0078086,68.1586831 32.2310922,70.3652503 29.623331,70.3652503 C26.9009429,70.3652503 25.2101967,68.27331 25.2101967,65.6368921 L25.2101967,55.6356981 C25.2101967,54.2028622 24.2931818,53.4004742 23.0609429,53.4004742 C21.8287041,53.4004742 20.9116892,54.2028622 20.9116892,55.6356981 L20.9116892,65.8661458 Z M40.7134803,72.0846533 C40.7134803,73.3455488 41.6304952,74.1479369 42.862734,74.1479369 C44.1522862,74.1479369 45.0119877,73.2022652 45.0119877,72.0846533 L45.0119877,64.7771906 L52.4340773,72.8010712 C53.2364653,73.6607727 53.7809429,74.1479369 54.6119877,74.1479369 C55.7869131,74.1479369 56.8472116,73.5174891 56.8472116,72.1706234 C56.8472116,71.3109219 56.3313907,70.6804742 55.6436295,69.992713 L49.023928,63.0864443 L54.4400474,57.7562951 C55.3857191,56.8106234 55.8442265,56.2088324 55.8442265,55.4637578 C55.8442265,54.2315189 54.8125847,53.4004742 53.7236295,53.4004742 C52.9212415,53.4004742 52.3767638,53.8589816 52.06154,54.2028622 L45.0119877,61.7109219 L45.0119877,55.5210712 C45.0119877,54.2028622 44.0949728,53.4004742 42.862734,53.4004742 C41.5731818,53.4004742 40.7134803,54.3461458 40.7134803,55.5210712 L40.7134803,72.0846533 Z M63.1803459,56.2661458 C63.3522862,55.8936085 63.5528832,55.5210712 63.5528832,55.1198772 C63.5528832,54.0882354 62.6072116,53.2285339 61.5755698,53.2285339 C61.1170623,53.2285339 60.2860176,53.5437578 59.9134803,54.2028622 L57.5349728,58.5013697 C57.3630325,58.873907 57.1910922,59.2464443 57.1910922,59.6476383 C57.1910922,60.6792801 58.1081071,61.5389816 59.1397489,61.5389816 C59.5982564,61.5389816 60.4293012,61.2237578 60.7731818,60.5646533 L63.1803459,56.2661458 Z M73.2388534,61.3670413 C73.2388534,59.3324145 70.1152713,58.3867428 68.0806444,58.3867428 C64.8137788,58.3867428 62.4925847,60.3353995 62.4925847,63.2010712 C62.4925847,67.9294294 69.6567638,67.6428622 69.6567638,69.5342055 C69.6567638,70.3079369 69.2842265,70.7091309 68.023331,70.7091309 C66.0746743,70.7091309 65.3582564,69.3049518 63.7534803,69.3049518 C62.6072116,69.3049518 61.9767638,70.5085339 61.9767638,71.1389816 C61.9767638,73.0016682 65.4155698,74.3198772 67.7367638,74.3198772 C71.2901967,74.3198772 73.6113907,72.2279369 73.6113907,69.4768921 C73.6113907,64.7771906 66.4472116,65.0637578 66.4472116,63.1437578 C66.4472116,62.3413697 67.1063161,61.9974891 67.8513907,61.9974891 C69.1982564,61.9974891 70.7743758,63.2010712 71.5481071,63.2010712 C72.5224355,63.2010712 73.2388534,62.312713 73.2388534,61.3670413 L73.2388534,61.3670413 Z M82.2943758,71.5974891 C82.2657191,71.7694294 82.2657191,71.9413697 82.2657191,72.0846533 C82.2657191,73.3455488 83.182734,74.1479369 84.3290026,74.1479369 C85.7904952,74.1479369 86.3636295,73.4888324 86.5642265,72.1419667 L88.2549728,60.4786831 L88.3122862,60.4786831 L91.7510922,72.4858473 C91.9516892,73.1736085 92.4961668,74.1479369 94.0436295,74.1479369 C95.5910922,74.1479369 96.1355698,73.1736085 96.3361668,72.4858473 L99.7749728,60.4786831 L99.8322862,60.4786831 L101.523032,72.1419667 C101.72363,73.4888324 102.296764,74.1479369 103.758256,74.1479369 C104.904525,74.1479369 105.82154,73.3455488 105.82154,72.0846533 C105.82154,71.9413697 105.82154,71.7694294 105.792883,71.5974891 L103.127809,55.6070413 C102.955868,54.5753995 101.838256,53.4004742 100.31945,53.4004742 C98.8866146,53.4004742 97.7690026,54.432116 97.4537788,55.4637578 L94.0722862,66.8118175 L94.0149728,66.8118175 L90.6334803,55.4637578 C90.3182564,54.432116 89.2006444,53.4004742 87.7678086,53.4004742 C86.2490026,53.4004742 85.1313907,54.5753995 84.9594504,55.6070413 L82.2943758,71.5974891 Z M116.854376,70.3652503 C113.214973,70.3652503 111.466913,67.2703249 111.466913,63.7742055 C111.466913,60.3067428 113.272286,57.1831607 116.854376,57.1831607 C120.436465,57.1831607 122.241838,60.3067428 122.241838,63.7742055 C122.241838,67.2703249 120.493779,70.3652503 116.854376,70.3652503 L116.854376,70.3652503 Z M116.854376,74.3198772 C122.729003,74.3198772 126.712286,69.7061458 126.712286,63.7742055 C126.712286,57.9568921 122.614376,53.2285339 116.854376,53.2285339 C111.008406,53.2285339 106.996465,57.8136085 106.996465,63.7742055 C106.996465,69.7061458 111.037062,74.3198772 116.854376,74.3198772 L116.854376,74.3198772 Z M134.936764,53.2285339 C131.125421,53.2285339 127.829898,55.7216682 127.829898,59.7336085 C127.829898,66.3819667 137.401241,64.3473398 137.401241,67.7288324 C137.401241,69.1330115 136.3696,70.19331 134.478256,70.19331 C132.61557,70.19331 131.010794,69.0756981 129.663928,69.0756981 C128.489003,69.0756981 127.743928,69.992713 127.743928,71.1103249 C127.743928,73.8040563 132.500943,74.3198772 134.70751,74.3198772 C138.662137,74.3198772 142.04363,71.7694294 142.04363,67.6715189 C142.04363,60.2780861 132.472286,62.1694294 132.472286,59.2177876 C132.472286,58.0142055 133.589898,57.355101 134.822137,57.355101 C136.54154,57.355101 137.458555,58.2148025 138.63348,58.2148025 C139.808406,58.2148025 140.55348,57.2118175 140.55348,56.0942055 C140.55348,53.8303249 136.54154,53.2285339 134.936764,53.2285339 L134.936764,53.2285339 Z M147.316465,71.912713 C147.316465,73.3455488 148.23348,74.1479369 149.465719,74.1479369 C150.697958,74.1479369 151.614973,73.3455488 151.614973,71.912713 L151.614973,57.5270413 L154.738555,57.5270413 C156.114077,57.5270413 156.687212,56.5240563 156.687212,55.5497279 C156.687212,54.5467428 155.970794,53.5724145 154.738555,53.5724145 L144.192883,53.5724145 C142.960644,53.5724145 142.244227,54.5467428 142.244227,55.5497279 C142.244227,56.5240563 142.817361,57.5270413 144.192883,57.5270413 L147.316465,57.5270413 L147.316465,71.912713 Z" id="UK’s-MOST" fill="#FFFFFF" transform="translate(88.799450, 63.774206) rotate(-5.000000) translate(-88.799450, -63.774206) "></path>
            </g>
        </g>
    </g>
</svg>