<?xml version="1.0" encoding="UTF-8" standalone="no"?>
<svg width="180px" height="180px" viewBox="0 0 180 180" version="1.1" xmlns="http://www.w3.org/2000/svg" xmlns:xlink="http://www.w3.org/1999/xlink">
    <!-- Generator: Sketch 39.1 (31720) - http://www.bohemiancoding.com/sketch -->
    <title>colour-messaging-roundel-do</title>
    <desc>Created with Sketch.</desc>
    <defs></defs>
    <g id="Templates" stroke="none" stroke-width="1" fill="none" fill-rule="evenodd">
        <g id="8-colour-messaging" transform="translate(-1028.000000, -2074.000000)">
            <g id="colour-messaging-roundel-do" transform="translate(1028.000000, 2074.000000)">
                <path d="M179.552239,90 C179.552239,139.45791 139.45791,179.552239 90,179.552239 C40.5420896,179.552239 0.447761194,139.45791 0.447761194,90 C0.447761194,40.5420896 40.5420896,0.447761194 90,0.447761194 C139.45791,0.447761194 179.552239,40.5420896 179.552239,90 L179.552239,90 Z" id="Stroke-1" fill="#E3231D"></path>
                <g id="Group-3" transform="translate(95.957163, 86.425205) rotate(-5.000000) translate(-95.957163, -86.425205) translate(41.457163, 37.425205)" fill="#FFFFFF">
                    <path d="M14.6831907,35.2350045 C19.6095701,29.0335623 28.5929677,21.0354405 28.5929677,12.9793614 C28.5929677,5.61877105 22.8551847,0.924221325 15.726424,0.924221325 C8.59766331,0.924221325 2.10643406,6.77791913 2.10643406,14.080552 C2.10643406,16.3408908 3.55536916,18.3114425 6.33732455,18.3114425 C11.9012353,18.3114425 8.71357812,8.92234308 15.3786796,8.92234308 C17.7549331,8.92234308 19.5516127,11.0088096 19.5516127,13.3850632 C19.5516127,15.4715297 18.5663368,17.2682093 17.5231035,18.7751018 C13.1183408,25.1504162 7.90217446,30.3665826 3.09170993,36.1043655 C2.51213589,36.7998544 1.75868964,37.8430877 1.75868964,39.0601932 C1.75868964,41.7262337 3.72924137,42.8853818 6.27936715,42.8853818 L25.6371401,42.8853818 C27.8395214,42.8853818 29.8100732,41.7262337 29.8100732,39.0601932 C29.8100732,36.3941526 27.8395214,35.2350045 25.2893957,35.2350045 L14.6831907,35.2350045 Z M46.0019229,9.61783192 L56.8979149,9.61783192 C57.9411481,9.61783192 60.9549331,9.2700875 60.9549331,5.27102662 C60.9549331,3.18456008 59.3900832,1.61971017 56.7240426,1.61971017 L42.7563083,1.61971017 C39.9743529,1.61971017 38.8731622,2.60498604 38.2356308,7.12566355 L36.7866957,19.3546758 C36.7287383,19.9922072 36.6128235,20.5717813 36.6128235,21.3252275 C36.6128235,22.3105034 37.7719715,24.0492255 40.0323103,24.0492255 C42.9881379,24.0492255 43.5097545,22.1366312 46.871284,22.1366312 C50.464643,22.1366312 52.4351948,24.5128847 52.4351948,27.990329 C52.4351948,31.6416454 50.3487282,35.5827489 46.2917099,35.5827489 C42.4085639,35.5827489 39.6266085,31.8734751 37.3083123,31.8734751 C35.1638884,31.8734751 33.3672088,33.6701546 33.3672088,35.8145785 C33.3672088,40.9148301 42.002862,43.5808707 46.1178377,43.5808707 C56.1444686,43.5808707 61.4765498,37.2055562 61.4765498,27.5266698 C61.4765498,20.7456535 56.492213,15.1817427 49.4793671,15.1817427 C48.030432,15.1817427 46.5235395,15.4715297 45.1325618,15.7613167 L46.0019229,9.61783192 Z M70.5758622,24.6650229 C69.3804907,24.6650229 68.6922466,23.6869917 68.6922466,22.5278437 C68.6922466,21.3686956 69.3804907,20.354441 70.5758622,20.354441 C71.7712337,20.354441 72.4594778,21.3686956 72.4594778,22.5278437 C72.4594778,23.6869917 71.7712337,24.6650229 70.5758622,24.6650229 L70.5758622,24.6650229 Z M70.5758622,28.3598074 C73.7997428,28.3598074 76.1542623,25.6792775 76.1542623,22.5278437 C76.1542623,19.3764098 73.7997428,16.6596565 70.5758622,16.6596565 C67.3519816,16.6596565 64.9974621,19.3764098 64.9974621,22.5278437 C64.9974621,25.6792775 67.3519816,28.3598074 70.5758622,28.3598074 L70.5758622,28.3598074 Z M83.3264911,43.3200623 C86.5503717,43.3200623 88.9048912,40.6395324 88.9048912,37.4880986 C88.9048912,34.3366647 86.5503717,31.6199114 83.3264911,31.6199114 C80.1026105,31.6199114 77.7480909,34.3366647 77.7480909,37.4880986 C77.7480909,40.6395324 80.1026105,43.3200623 83.3264911,43.3200623 L83.3264911,43.3200623 Z M83.3264911,39.6252778 C82.1311196,39.6252778 81.4428755,38.6472466 81.4428755,37.4880986 C81.4428755,36.3289505 82.1311196,35.3146959 83.3264911,35.3146959 C84.5218625,35.3146959 85.2101067,36.3289505 85.2101067,37.4880986 C85.2101067,38.6472466 84.5218625,39.6252778 83.3264911,39.6252778 L83.3264911,39.6252778 Z M69.2718206,40.2048519 C69.1269271,40.4946389 68.9095868,41.0017662 68.9095868,41.5451168 C68.9095868,42.6318182 70.0325115,43.5374026 70.9743194,43.5374026 C71.8436804,43.5374026 72.0610207,43.1027221 72.6043713,42.3420312 L84.7754262,19.5575267 C85.0652132,19.014176 85.0652132,18.7606124 85.0652132,18.4708254 C85.0652132,17.3479007 84.0509586,16.4423162 82.9280339,16.4423162 C82.0948962,16.4423162 81.7326625,16.6958799 81.2617586,17.6014643 L69.2718206,40.2048519 Z" id="25%"></path>
                    <path d="M9.27573939,63.0340164 C9.27573939,66.0985142 11.1013976,68.9456716 14.3615016,68.9456716 C17.6216056,68.9456716 19.4472638,66.0985142 19.4472638,63.0340164 C19.4472638,59.9695187 17.6216056,57.1223612 14.3615016,57.1223612 C11.1013976,57.1223612 9.27573939,59.9695187 9.27573939,63.0340164 L9.27573939,63.0340164 Z M11.1883337,63.0340164 C11.1883337,61.077954 12.0142267,58.7741472 14.3615016,58.7741472 C16.7087764,58.7741472 17.5346695,61.077954 17.5346695,63.0340164 C17.5346695,64.9900788 16.7087764,67.2938856 14.3615016,67.2938856 C12.0142267,67.2938856 11.1883337,64.9900788 11.1883337,63.0340164 L11.1883337,63.0340164 Z M23.9896753,58.9045514 L25.1850468,58.9045514 C25.8153336,58.9045514 26.1413439,58.600275 26.1413439,58.0786584 C26.1413439,57.5570417 25.8153336,57.2527654 25.1850468,57.2527654 L23.9896753,57.2527654 L23.9896753,54.4490759 C23.9896753,53.9709274 24.1852816,53.688385 24.7721003,53.688385 L25.2502489,53.688385 C25.9674717,53.688385 26.2934821,53.3841086 26.2934821,52.862492 C26.2934821,52.3408754 25.7066634,52.036599 25.2067808,52.036599 L24.6199621,52.036599 C23.2289844,52.036599 22.077081,52.862492 22.077081,54.5360121 L22.077081,57.2527654 L21.294656,57.2527654 C20.6643693,57.2527654 20.3383589,57.5570417 20.3383589,58.0786584 C20.3383589,58.600275 20.6643693,58.9045514 21.294656,58.9045514 L22.077081,58.9045514 L22.077081,67.9241724 C22.077081,68.5544591 22.4465594,68.9456716 23.0333782,68.9456716 C23.6201969,68.9456716 23.9896753,68.5544591 23.9896753,67.9241724 L23.9896753,58.9045514 Z M29.6187882,58.9045514 L30.8141596,58.9045514 C31.4444464,58.9045514 31.7704568,58.600275 31.7704568,58.0786584 C31.7704568,57.5570417 31.4444464,57.2527654 30.8141596,57.2527654 L29.6187882,57.2527654 L29.6187882,54.4490759 C29.6187882,53.9709274 29.8143944,53.688385 30.4012131,53.688385 L30.8793617,53.688385 C31.5965846,53.688385 31.922595,53.3841086 31.922595,52.862492 C31.922595,52.3408754 31.3357763,52.036599 30.8358937,52.036599 L30.249075,52.036599 C28.8580973,52.036599 27.7061939,52.862492 27.7061939,54.5360121 L27.7061939,57.2527654 L26.9237689,57.2527654 C26.2934821,57.2527654 25.9674717,57.5570417 25.9674717,58.0786584 C25.9674717,58.600275 26.2934821,58.9045514 26.9237689,58.9045514 L27.7061939,58.9045514 L27.7061939,67.9241724 C27.7061939,68.5544591 28.0756723,68.9456716 28.662491,68.9456716 C29.2493097,68.9456716 29.6187882,68.5544591 29.6187882,67.9241724 L29.6187882,58.9045514 Z M45.9193081,63.0340164 C45.9193081,64.9900788 45.0934151,67.2938856 42.7461402,67.2938856 C40.3988653,67.2938856 39.5729723,64.9900788 39.5729723,63.0340164 C39.5729723,61.077954 40.3988653,58.7741472 42.7461402,58.7741472 C45.0934151,58.7741472 45.9193081,61.077954 45.9193081,63.0340164 L45.9193081,63.0340164 Z M37.660378,63.0340164 C37.660378,66.0985142 39.4643022,68.9456716 42.594002,68.9456716 C44.1153839,68.9456716 45.1803512,68.0980446 45.6802338,67.3808217 L45.7237018,67.3808217 L45.7237018,72.4883179 C45.7237018,73.1186047 46.0931803,73.5098172 46.679999,73.5098172 C47.2668177,73.5098172 47.6362962,73.1186047 47.6362962,72.4883179 L47.6362962,58.1438605 C47.6362962,57.5135737 47.2668177,57.1223612 46.679999,57.1223612 C46.0931803,57.1223612 45.7237018,57.5135737 45.7237018,58.1438605 L45.7237018,58.7089451 L45.6802338,58.7089451 C45.1368831,57.6657119 44.1153839,57.1223612 42.594002,57.1223612 C39.4643022,57.1223612 37.660378,59.9695187 37.660378,63.0340164 L37.660378,63.0340164 Z M50.2443793,64.338058 C50.2443793,67.7285661 52.5047181,68.9456716 54.8302589,68.9456716 C57.1557998,68.9456716 59.4161385,67.7285661 59.4161385,64.338058 L59.4161385,58.1438605 C59.4161385,57.5135737 59.0466601,57.1223612 58.4598413,57.1223612 C57.8730226,57.1223612 57.5035442,57.5135737 57.5035442,58.1438605 L57.5035442,64.2728559 C57.5035442,66.2506523 56.6341831,67.2938856 54.8302589,67.2938856 C53.0263347,67.2938856 52.1569737,66.2506523 52.1569737,64.2728559 L52.1569737,58.1438605 C52.1569737,57.5135737 51.7874952,57.1223612 51.2006765,57.1223612 C50.6138578,57.1223612 50.2443793,57.5135737 50.2443793,58.1438605 L50.2443793,64.338058 Z M61.437403,63.0340164 C61.437403,66.0985142 63.2630612,68.9456716 66.5231652,68.9456716 C69.7832692,68.9456716 71.6089274,66.0985142 71.6089274,63.0340164 C71.6089274,59.9695187 69.7832692,57.1223612 66.5231652,57.1223612 C63.2630612,57.1223612 61.437403,59.9695187 61.437403,63.0340164 L61.437403,63.0340164 Z M63.3499973,63.0340164 C63.3499973,61.077954 64.1758903,58.7741472 66.5231652,58.7741472 C68.87044,58.7741472 69.696333,61.077954 69.696333,63.0340164 C69.696333,64.9900788 68.87044,67.2938856 66.5231652,67.2938856 C64.1758903,67.2938856 63.3499973,64.9900788 63.3499973,63.0340164 L63.3499973,63.0340164 Z M74.2387446,57.2527654 L73.4563196,57.2527654 C72.8260329,57.2527654 72.5000225,57.5570417 72.5000225,58.0786584 C72.5000225,58.600275 72.8260329,58.9045514 73.4563196,58.9045514 L74.2387446,58.9045514 L74.2387446,67.9241724 C74.2387446,68.5544591 74.608223,68.9456716 75.1950418,68.9456716 C75.7818605,68.9456716 76.1513389,68.5544591 76.1513389,67.9241724 L76.1513389,58.9045514 L76.9337639,58.9045514 C77.5640506,58.9045514 77.890061,58.600275 77.890061,58.0786584 C77.890061,57.5570417 77.5640506,57.2527654 76.9337639,57.2527654 L76.1513389,57.2527654 L76.1513389,54.7533523 C76.1513389,54.1230656 75.7818605,53.7318531 75.1950418,53.7318531 C74.608223,53.7318531 74.2387446,54.1230656 74.2387446,54.7533523 L74.2387446,57.2527654 Z M87.692107,63.7729733 C88.518,63.7729733 88.7570743,63.4252289 88.7570743,62.7514741 C88.7570743,59.9695187 86.9314161,57.1223612 83.7799822,57.1223612 C80.5416123,57.1223612 78.5855499,59.9043166 78.5855499,63.0340164 C78.5855499,66.0985142 80.1938678,68.9456716 83.8886524,68.9456716 C86.1489911,68.9456716 88.518,67.5112259 88.518,66.5766627 C88.518,66.0333121 88.1702556,65.7290357 87.8225111,65.7290357 C87.1052883,65.7290357 86.4532675,67.2938856 83.9103864,67.2938856 C81.7587178,67.2938856 80.4981442,65.7507697 80.4981442,63.7729733 L87.692107,63.7729733 Z M80.4981442,62.3385276 C80.5633463,60.5780714 81.4109733,58.6872111 83.7799822,58.7741472 C85.8881828,58.7741472 86.84448,60.6867416 86.84448,62.3385276 L80.4981442,62.3385276 Z" id="off-quote"></path>
                    <path d="M6.11749375,81.2129453 C3.22686823,81.2129453 0.727455182,83.1038057 0.727455182,86.1465694 C0.727455182,91.1888635 7.98662003,89.6457476 7.98662003,92.2103628 C7.98662003,93.2753301 7.20419508,94.079489 5.76974933,94.079489 C4.35703761,94.079489 3.13993212,93.231862 2.11843288,93.231862 C1.22733779,93.231862 0.662253102,93.9273509 0.662253102,94.7749779 C0.662253102,96.8179764 4.2701015,97.2091889 5.94362154,97.2091889 C8.9429172,97.2091889 11.5075323,95.2748605 11.5075323,92.1668947 C11.5075323,86.5595159 4.24836747,87.9939616 4.24836747,85.7553569 C4.24836747,84.8425278 5.09599451,84.3426452 6.03055765,84.3426452 C7.33459924,84.3426452 8.03008808,84.994666 8.92118317,84.994666 C9.81227826,84.994666 10.3773629,84.233975 10.3773629,83.386348 C10.3773629,81.6693599 7.33459924,81.2129453 6.11749375,81.2129453 L6.11749375,81.2129453 Z M12.7681059,90.797651 C12.7681059,94.4924355 15.7456675,97.2091889 19.3752499,97.2091889 C22.9613643,97.2091889 25.9606599,94.4489675 25.9606599,90.797651 L25.9606599,83.0386036 C25.9606599,81.9519023 25.2651711,81.3433495 24.330608,81.3433495 C23.3960448,81.3433495 22.700556,81.9519023 22.700556,83.0386036 L22.700556,90.6237788 C22.700556,92.5363732 21.3530463,94.2098932 19.3752499,94.2098932 C17.3105174,94.2098932 16.0282098,92.6233093 16.0282098,90.6237788 L16.0282098,83.0386036 C16.0282098,81.9519023 15.332721,81.3433495 14.3981578,81.3433495 C13.4635947,81.3433495 12.7681059,81.9519023 12.7681059,83.0386036 L12.7681059,90.797651 Z M27.655914,95.3835306 C27.655914,96.470232 28.3514029,97.0787847 29.285966,97.0787847 C30.2205291,97.0787847 30.916018,96.470232 30.916018,95.3835306 L30.916018,87.2767387 L30.959486,87.2767387 L37.8491724,96.3615618 C38.1534488,96.7527743 38.8054696,97.0787847 39.2184161,97.0787847 C40.1529792,97.0787847 40.8484681,96.470232 40.8484681,95.3835306 L40.8484681,83.0386036 C40.8484681,81.9519023 40.1529792,81.3433495 39.2184161,81.3433495 C38.283853,81.3433495 37.5883641,81.9519023 37.5883641,83.0386036 L37.5883641,91.2540656 L37.5448961,91.2540656 L30.6552097,82.0605724 C30.3726673,81.6693599 29.6989125,81.3433495 29.285966,81.3433495 C28.3514029,81.3433495 27.655914,81.9519023 27.655914,83.0386036 L27.655914,95.3835306 Z M44.7171248,95.3835306 C44.9344651,96.2963597 45.651688,97.0787847 46.8687934,97.0787847 C47.9337607,97.0787847 48.7596537,96.3832958 49.0204621,95.4922008 L51.5416091,87.1028665 L51.5850772,87.1028665 L54.1062243,95.4922008 C54.3670326,96.3832958 55.1929256,97.0787847 56.2578929,97.0787847 C57.4749984,97.0787847 58.1922212,96.2963597 58.4095615,95.3835306 L61.1697829,83.5167522 C61.2349849,83.2342098 61.256719,83.0820716 61.256719,82.7777953 C61.256719,82.0823064 60.6699003,81.3433495 59.7136031,81.3433495 C58.6703698,81.3433495 58.1704872,81.9519023 57.974881,82.9081994 L56.1274887,92.1451607 L56.0840207,92.1451607 L53.2585972,82.6256571 C53.0195229,81.8432321 52.3675021,81.3433495 51.5633432,81.3433495 C50.7591842,81.3433495 50.1071634,81.8432321 49.8680891,82.6256571 L47.0426656,92.1451607 L46.9991976,92.1451607 L45.1518053,82.9081994 C44.9561991,81.9519023 44.4563165,81.3433495 43.4130832,81.3433495 C42.4567861,81.3433495 41.8699673,82.0823064 41.8699673,82.7777953 C41.8699673,83.0820716 41.8917014,83.2342098 41.9569034,83.5167522 L44.7171248,95.3835306 Z M62.4086224,95.3183285 C62.4086224,96.2963597 63.1258453,96.9483805 64.0821424,96.9483805 L69.6895213,96.9483805 C70.7110205,96.9483805 71.2326371,96.1876896 71.2326371,95.4487327 C71.2326371,94.6880418 70.7327545,93.9490849 69.6895213,93.9490849 L65.6687264,93.9490849 L65.6687264,90.6455128 L69.2331067,90.6455128 C70.27634,90.6455128 70.8196906,89.8848219 70.8196906,89.145865 C70.8196906,88.3851741 70.298074,87.6462172 69.2331067,87.6462172 L65.6687264,87.6462172 L65.6687264,84.4730493 L69.493915,84.4730493 C70.5154143,84.4730493 71.0370309,83.7123584 71.0370309,82.9734015 C71.0370309,82.2127106 70.5371483,81.4737537 69.493915,81.4737537 L64.1038764,81.4737537 C62.951973,81.4737537 62.4086224,82.2779126 62.4086224,83.364614 L62.4086224,95.3183285 Z M72.4714766,95.2965945 C72.4714766,96.3180938 73.2104335,96.9483805 74.2101988,96.9483805 L78.6874082,96.9483805 C81.6867039,96.9483805 83.7297024,95.2965945 83.7297024,92.2320968 C83.7297024,90.3412365 82.2735226,88.7981206 80.4261303,88.5373123 L80.4261303,88.4938442 C81.817108,87.8418234 82.4473948,86.8203242 82.4473948,85.2989423 C82.4473948,82.9951355 80.6217366,81.4737537 78.3613978,81.4737537 L74.1884647,81.4737537 C73.1886995,81.4737537 72.4714766,82.0605724 72.4714766,83.1038057 L72.4714766,95.2965945 Z M75.7315806,84.3426452 L77.4268347,84.3426452 C78.3831319,84.3426452 79.1872908,84.8642618 79.1872908,85.885761 C79.1872908,86.9724624 78.491802,87.6027491 77.4268347,87.6027491 L75.7315806,87.6027491 L75.7315806,84.3426452 Z M75.7315806,90.4716406 L78.0353874,90.4716406 C79.5567693,90.4716406 80.3391942,91.1671295 80.3391942,92.1886287 C80.3391942,93.4057342 79.4698332,94.079489 78.2961957,94.079489 L75.7315806,94.079489 L75.7315806,90.4716406 Z M89.7934958,94.079489 C91.640888,91.7539482 95.0096621,88.7546525 95.0096621,85.7336229 C95.0096621,82.9734015 92.8579935,81.2129453 90.1847082,81.2129453 C87.511423,81.2129453 85.077212,83.408082 85.077212,86.1465694 C85.077212,86.9941964 85.6205627,87.7331533 86.6637959,87.7331533 C88.7502625,87.7331533 87.554891,84.212241 90.0543041,84.212241 C90.9453992,84.212241 91.619154,84.994666 91.619154,85.885761 C91.619154,86.668186 91.2496755,87.3419408 90.8584631,87.9070255 C89.206677,90.2977684 87.2506147,92.2538308 85.4466905,94.4054994 C85.2293502,94.6663078 84.9468079,95.0575202 84.9468079,95.5139348 C84.9468079,96.5137 85.6857648,96.9483805 86.6420619,96.9483805 L93.9012268,96.9483805 C94.7271198,96.9483805 95.4660767,96.5137 95.4660767,95.5139348 C95.4660767,94.5141696 94.7271198,94.079489 93.7708226,94.079489 L89.7934958,94.079489 Z M102.681773,94.2533612 C100.464903,94.2533612 100.312765,90.754183 100.312765,89.2110671 C100.312765,87.5592811 100.464903,84.168773 102.681773,84.168773 C104.898644,84.168773 105.050782,87.5592811 105.050782,89.2110671 C105.050782,90.754183 104.898644,94.2533612 102.681773,94.2533612 L102.681773,94.2533612 Z M102.681773,97.2091889 C107.072047,97.2091889 108.44129,92.7537134 108.44129,89.2110671 C108.44129,85.6684208 107.072047,81.2129453 102.681773,81.2129453 C98.2915001,81.2129453 96.9222565,85.6684208 96.9222565,89.2110671 C96.9222565,92.7537134 98.2915001,97.2091889 102.681773,97.2091889 L102.681773,97.2091889 Z" id="SUNWEB20"></path>
                </g>
            </g>
        </g>
    </g>
</svg>