<?xml version="1.0" encoding="UTF-8" standalone="no"?>
<svg width="375px" height="359px" viewBox="0 0 375 359" version="1.1" xmlns="http://www.w3.org/2000/svg" xmlns:xlink="http://www.w3.org/1999/xlink">
    <!-- Generator: Sketch 39.1 (31720) - http://www.bohemiancoding.com/sketch -->
    <title>08-roundels.svg</title>
    <desc>Created with Sketch.</desc>
    <defs></defs>
    <g id="Page-1" stroke="none" stroke-width="1" fill="none" fill-rule="evenodd">
        <g id="08-roundels.svg">
            <g id="roundel-ketchup-one">
                <path d="M269.328358,135 C269.328358,209.186866 209.186866,269.328358 135,269.328358 C60.8131343,269.328358 0.671641791,209.186866 0.671641791,135 C0.671641791,60.8131343 60.8131343,0.671641791 135,0.671641791 C209.186866,0.671641791 269.328358,60.8131343 269.328358,135 L269.328358,135 Z" id="Stroke-1" fill="#E3231D"></path>
                <g id="Group-3" transform="translate(143.935745, 129.637807) rotate(-5.000000) translate(-143.935745, -129.637807) translate(62.185745, 56.137807)" fill="#FFFFFF">
                    <path d="M22.0247861,52.8525067 C29.4143551,43.5503434 42.8894515,31.5531608 42.8894515,19.469042 C42.8894515,8.42815657 34.282777,1.38633199 23.589636,1.38633199 C12.896495,1.38633199 3.15965109,10.1668787 3.15965109,21.120828 C3.15965109,24.5113362 5.33305374,27.4671638 9.50598683,27.4671638 C17.851853,27.4671638 13.0703672,13.3835146 23.0680194,13.3835146 C26.6323997,13.3835146 29.327419,16.5132144 29.327419,20.0775948 C29.327419,23.2072946 27.8495052,25.9023139 26.2846553,28.1626526 C19.6775112,37.7256243 11.8532617,45.5498738 4.63756489,54.1565483 C3.76820383,55.1997816 2.63803446,56.7646315 2.63803446,58.5902897 C2.63803446,62.5893506 5.59386206,64.3280727 9.41905072,64.3280727 L38.4557101,64.3280727 C41.7592822,64.3280727 44.7151098,62.5893506 44.7151098,58.5902897 C44.7151098,54.5912289 41.7592822,52.8525067 37.9340935,52.8525067 L22.0247861,52.8525067 Z M69.0028844,14.4267479 L85.3468723,14.4267479 C86.9117222,14.4267479 91.4323997,13.9051312 91.4323997,7.90653994 C91.4323997,4.77684012 89.0851248,2.42956526 85.086064,2.42956526 L64.1344624,2.42956526 C59.9615293,2.42956526 58.3097433,3.90747906 57.3534462,10.6884953 L55.1800435,29.0320137 C55.0931074,29.9883109 54.9192352,30.8576719 54.9192352,31.9878413 C54.9192352,33.4657551 56.6579573,36.0738383 60.0484654,36.0738383 C64.4822069,36.0738383 65.2646318,33.2049468 70.306926,33.2049468 C75.6969645,33.2049468 78.6527921,36.7693271 78.6527921,41.9854935 C78.6527921,47.4624682 75.5230923,53.3741234 69.4375649,53.3741234 C63.6128458,53.3741234 59.4399127,47.8102126 55.9624685,47.8102126 C52.7458325,47.8102126 50.0508133,50.5052319 50.0508133,53.7218678 C50.0508133,61.3722451 63.0042931,65.371306 69.1767566,65.371306 C84.2167029,65.371306 92.2148247,55.8083343 92.2148247,41.2900046 C92.2148247,31.1184802 84.7383195,22.7726141 74.2190507,22.7726141 C72.0456481,22.7726141 69.7853093,23.2072946 67.6988428,23.6419751 L69.0028844,14.4267479 Z M105.863793,36.9975344 C104.070736,36.9975344 103.03837,35.5304876 103.03837,33.7917655 C103.03837,32.0530434 104.070736,30.5316615 105.863793,30.5316615 C107.65685,30.5316615 108.689217,32.0530434 108.689217,33.7917655 C108.689217,35.5304876 107.65685,36.9975344 105.863793,36.9975344 L105.863793,36.9975344 Z M105.863793,42.5397112 C110.699614,42.5397112 114.231394,38.5189163 114.231394,33.7917655 C114.231394,29.0646147 110.699614,24.9894848 105.863793,24.9894848 C101.027972,24.9894848 97.4961931,29.0646147 97.4961931,33.7917655 C97.4961931,38.5189163 101.027972,42.5397112 105.863793,42.5397112 L105.863793,42.5397112 Z M124.989737,64.9800935 C129.825558,64.9800935 133.357337,60.9592986 133.357337,56.2321479 C133.357337,51.5049971 129.825558,47.4298671 124.989737,47.4298671 C120.153916,47.4298671 116.622136,51.5049971 116.622136,56.2321479 C116.622136,60.9592986 120.153916,64.9800935 124.989737,64.9800935 L124.989737,64.9800935 Z M124.989737,59.4379168 C123.196679,59.4379168 122.164313,57.97087 122.164313,56.2321479 C122.164313,54.4934257 123.196679,52.9720439 124.989737,52.9720439 C126.782794,52.9720439 127.81516,54.4934257 127.81516,56.2321479 C127.81516,57.97087 126.782794,59.4379168 124.989737,59.4379168 L124.989737,59.4379168 Z M103.907731,60.3072778 C103.690391,60.7419584 103.36438,61.5026493 103.36438,62.3176753 C103.36438,63.9477273 105.048767,65.3061039 106.461479,65.3061039 C107.765521,65.3061039 108.091531,64.6540831 108.906557,63.5130467 L127.163139,29.3362901 C127.59782,28.5212641 127.59782,28.1409186 127.59782,27.7062381 C127.59782,26.021851 126.076438,24.6634744 124.392051,24.6634744 C123.142344,24.6634744 122.598994,25.0438198 121.892638,26.4021965 L103.907731,60.3072778 Z" id="25%"></path>
                    <path d="M13.9136091,94.5510246 C13.9136091,99.1477712 16.6520964,103.418507 21.5422524,103.418507 C26.4324083,103.418507 29.1708957,99.1477712 29.1708957,94.5510246 C29.1708957,89.954278 26.4324083,85.6835418 21.5422524,85.6835418 C16.6520964,85.6835418 13.9136091,89.954278 13.9136091,94.5510246 L13.9136091,94.5510246 Z M16.7825006,94.5510246 C16.7825006,91.616931 18.0213401,88.1612208 21.5422524,88.1612208 C25.0631647,88.1612208 26.3020042,91.616931 26.3020042,94.5510246 C26.3020042,97.4851182 25.0631647,100.940828 21.5422524,100.940828 C18.0213401,100.940828 16.7825006,97.4851182 16.7825006,94.5510246 L16.7825006,94.5510246 Z M35.984513,88.3568271 L37.7775702,88.3568271 C38.7230003,88.3568271 39.2120159,87.9004125 39.2120159,87.1179876 C39.2120159,86.3355626 38.7230003,85.879148 37.7775702,85.879148 L35.984513,85.879148 L35.984513,81.6736139 C35.984513,80.956391 36.2779223,80.5325775 37.1581504,80.5325775 L37.8753733,80.5325775 C38.9512076,80.5325775 39.4402232,80.076163 39.4402232,79.293738 C39.4402232,78.5113131 38.5599951,78.0548985 37.8101712,78.0548985 L36.9299431,78.0548985 C34.8434766,78.0548985 33.1156215,79.293738 33.1156215,81.8040181 L33.1156215,85.879148 L31.9419841,85.879148 C30.9965539,85.879148 30.5075383,86.3355626 30.5075383,87.1179876 C30.5075383,87.9004125 30.9965539,88.3568271 31.9419841,88.3568271 L33.1156215,88.3568271 L33.1156215,101.886259 C33.1156215,102.831689 33.6698392,103.418507 34.5500672,103.418507 C35.4302953,103.418507 35.984513,102.831689 35.984513,101.886259 L35.984513,88.3568271 Z M44.4281823,88.3568271 L46.2212395,88.3568271 C47.1666696,88.3568271 47.6556852,87.9004125 47.6556852,87.1179876 C47.6556852,86.3355626 47.1666696,85.879148 46.2212395,85.879148 L44.4281823,85.879148 L44.4281823,81.6736139 C44.4281823,80.956391 44.7215916,80.5325775 45.6018197,80.5325775 L46.3190426,80.5325775 C47.3948769,80.5325775 47.8838925,80.076163 47.8838925,79.293738 C47.8838925,78.5113131 47.0036644,78.0548985 46.2538405,78.0548985 L45.3736124,78.0548985 C43.2871459,78.0548985 41.5592908,79.293738 41.5592908,81.8040181 L41.5592908,85.879148 L40.3856534,85.879148 C39.4402232,85.879148 38.9512076,86.3355626 38.9512076,87.1179876 C38.9512076,87.9004125 39.4402232,88.3568271 40.3856534,88.3568271 L41.5592908,88.3568271 L41.5592908,101.886259 C41.5592908,102.831689 42.1135085,103.418507 42.9937365,103.418507 C43.8739646,103.418507 44.4281823,102.831689 44.4281823,101.886259 L44.4281823,88.3568271 Z M68.8789621,94.5510246 C68.8789621,97.4851182 67.6401226,100.940828 64.1192103,100.940828 C60.598298,100.940828 59.3594585,97.4851182 59.3594585,94.5510246 C59.3594585,91.616931 60.598298,88.1612208 64.1192103,88.1612208 C67.6401226,88.1612208 68.8789621,91.616931 68.8789621,94.5510246 L68.8789621,94.5510246 Z M56.490567,94.5510246 C56.490567,99.1477712 59.1964533,103.418507 63.891003,103.418507 C66.1730758,103.418507 67.7705267,102.147067 68.5203507,101.071233 L68.5855527,101.071233 L68.5855527,108.732477 C68.5855527,109.677907 69.1397704,110.264726 70.0199985,110.264726 C70.9002266,110.264726 71.4544442,109.677907 71.4544442,108.732477 L71.4544442,87.2157907 C71.4544442,86.2703605 70.9002266,85.6835418 70.0199985,85.6835418 C69.1397704,85.6835418 68.5855527,86.2703605 68.5855527,87.2157907 L68.5855527,88.0634177 L68.5203507,88.0634177 C67.7053247,86.4985678 66.1730758,85.6835418 63.891003,85.6835418 C59.1964533,85.6835418 56.490567,89.954278 56.490567,94.5510246 L56.490567,94.5510246 Z M75.366569,96.507087 C75.366569,101.592849 78.7570771,103.418507 82.2453884,103.418507 C85.7336996,103.418507 89.1242078,101.592849 89.1242078,96.507087 L89.1242078,87.2157907 C89.1242078,86.2703605 88.5699901,85.6835418 87.689762,85.6835418 C86.809534,85.6835418 86.2553163,86.2703605 86.2553163,87.2157907 L86.2553163,96.4092839 C86.2553163,99.3759785 84.9512747,100.940828 82.2453884,100.940828 C79.5395021,100.940828 78.2354605,99.3759785 78.2354605,96.4092839 L78.2354605,87.2157907 C78.2354605,86.2703605 77.6812428,85.6835418 76.8010147,85.6835418 C75.9207867,85.6835418 75.366569,86.2703605 75.366569,87.2157907 L75.366569,96.507087 Z M92.1561045,94.5510246 C92.1561045,99.1477712 94.8945918,103.418507 99.7847478,103.418507 C104.674904,103.418507 107.413391,99.1477712 107.413391,94.5510246 C107.413391,89.954278 104.674904,85.6835418 99.7847478,85.6835418 C94.8945918,85.6835418 92.1561045,89.954278 92.1561045,94.5510246 L92.1561045,94.5510246 Z M95.024996,94.5510246 C95.024996,91.616931 96.2638355,88.1612208 99.7847478,88.1612208 C103.30566,88.1612208 104.5445,91.616931 104.5445,94.5510246 C104.5445,97.4851182 103.30566,100.940828 99.7847478,100.940828 C96.2638355,100.940828 95.024996,97.4851182 95.024996,94.5510246 L95.024996,94.5510246 Z M111.358117,85.879148 L110.184479,85.879148 C109.239049,85.879148 108.750034,86.3355626 108.750034,87.1179876 C108.750034,87.9004125 109.239049,88.3568271 110.184479,88.3568271 L111.358117,88.3568271 L111.358117,101.886259 C111.358117,102.831689 111.912335,103.418507 112.792563,103.418507 C113.672791,103.418507 114.227008,102.831689 114.227008,101.886259 L114.227008,88.3568271 L115.400646,88.3568271 C116.346076,88.3568271 116.835092,87.9004125 116.835092,87.1179876 C116.835092,86.3355626 116.346076,85.879148 115.400646,85.879148 L114.227008,85.879148 L114.227008,82.1300285 C114.227008,81.1845983 113.672791,80.5977796 112.792563,80.5977796 C111.912335,80.5977796 111.358117,81.1845983 111.358117,82.1300285 L111.358117,85.879148 Z M131.53816,95.65946 C132.777,95.65946 133.135611,95.1378433 133.135611,94.1272111 C133.135611,89.954278 130.397124,85.6835418 125.669973,85.6835418 C120.812418,85.6835418 117.878325,89.8564749 117.878325,94.5510246 C117.878325,99.1477712 120.290802,103.418507 125.832979,103.418507 C129.223487,103.418507 132.777,101.266839 132.777,99.8649941 C132.777,99.0499681 132.255383,98.5935535 131.733767,98.5935535 C130.657932,98.5935535 129.679901,100.940828 125.86558,100.940828 C122.638077,100.940828 120.747216,98.6261546 120.747216,95.65946 L131.53816,95.65946 Z M120.747216,93.5077913 C120.845019,90.8671071 122.11646,88.0308167 125.669973,88.1612208 C128.832274,88.1612208 130.26672,91.0301123 130.26672,93.5077913 L120.747216,93.5077913 Z" id="off-quote"></path>
                    <path d="M9.17624063,121.819418 C4.84030234,121.819418 1.09118277,124.655708 1.09118277,129.219854 C1.09118277,136.783295 11.97993,134.468621 11.97993,138.315544 C11.97993,139.912995 10.8062926,141.119234 8.65462399,141.119234 C6.53555641,141.119234 4.70989818,139.847793 3.17764932,139.847793 C1.84100669,139.847793 0.993379653,140.891026 0.993379653,142.162467 C0.993379653,145.226965 6.40515225,145.813783 8.91543231,145.813783 C13.4143758,145.813783 17.2612985,142.912291 17.2612985,138.250342 C17.2612985,129.839274 6.37255121,131.990942 6.37255121,128.633035 C6.37255121,127.263792 7.64399176,126.513968 9.04583647,126.513968 C11.0018989,126.513968 12.0451321,127.491999 13.3817748,127.491999 C14.7184174,127.491999 15.5660444,126.350963 15.5660444,125.079522 C15.5660444,122.50404 11.0018989,121.819418 9.17624063,121.819418 L9.17624063,121.819418 Z M19.1521588,136.196477 C19.1521588,141.738653 23.6185012,145.813783 29.0628749,145.813783 C34.4420464,145.813783 38.9409899,141.673451 38.9409899,136.196477 L38.9409899,124.557905 C38.9409899,122.927853 37.8977566,122.015024 36.4959119,122.015024 C35.0940672,122.015024 34.050834,122.927853 34.050834,124.557905 L34.050834,135.935668 C34.050834,138.80456 32.0295695,141.31484 29.0628749,141.31484 C25.9657761,141.31484 24.0423148,138.934964 24.0423148,135.935668 L24.0423148,124.557905 C24.0423148,122.927853 22.9990815,122.015024 21.5972368,122.015024 C20.1953921,122.015024 19.1521588,122.927853 19.1521588,124.557905 L19.1521588,136.196477 Z M41.483871,143.075296 C41.483871,144.705348 42.5271043,145.618177 43.928949,145.618177 C45.3307937,145.618177 46.374027,144.705348 46.374027,143.075296 L46.374027,130.915108 L46.4392291,130.915108 L56.7737587,144.542343 C57.2301732,145.129161 58.2082044,145.618177 58.8276242,145.618177 C60.2294689,145.618177 61.2727021,144.705348 61.2727021,143.075296 L61.2727021,124.557905 C61.2727021,122.927853 60.2294689,122.015024 58.8276242,122.015024 C57.4257795,122.015024 56.3825462,122.927853 56.3825462,124.557905 L56.3825462,136.881098 L56.3173441,136.881098 L45.9828145,123.090859 C45.559001,122.50404 44.5483688,122.015024 43.928949,122.015024 C42.5271043,122.015024 41.483871,122.927853 41.483871,124.557905 L41.483871,143.075296 Z M67.0756872,143.075296 C67.4016976,144.44454 68.4775319,145.618177 70.3031902,145.618177 C71.9006411,145.618177 73.1394806,144.574944 73.5306931,143.238301 L77.3124137,130.6543 L77.3776158,130.6543 L81.1593364,143.238301 C81.5505489,144.574944 82.7893884,145.618177 84.3868393,145.618177 C86.2124975,145.618177 87.2883319,144.44454 87.6143423,143.075296 L91.7546743,125.275128 C91.8524774,124.851315 91.8850785,124.623107 91.8850785,124.166693 C91.8850785,123.12346 91.0048504,122.015024 89.5704046,122.015024 C88.0055547,122.015024 87.2557308,122.927853 86.9623215,124.362299 L84.1912331,138.217741 L84.126031,138.217741 L79.8878958,123.938486 C79.5292844,122.764848 78.5512532,122.015024 77.3450147,122.015024 C76.1387763,122.015024 75.1607451,122.764848 74.8021336,123.938486 L70.5639985,138.217741 L70.4987964,138.217741 L67.727708,124.362299 C67.4342987,122.927853 66.6844747,122.015024 65.1196248,122.015024 C63.6851791,122.015024 62.804951,123.12346 62.804951,124.166693 C62.804951,124.623107 62.837552,124.851315 62.9353552,125.275128 L67.0756872,143.075296 Z M93.6129336,142.977493 C93.6129336,144.44454 94.6887679,145.422571 96.1232136,145.422571 L104.534282,145.422571 C106.066531,145.422571 106.848956,144.281534 106.848956,143.173099 C106.848956,142.032063 106.099132,140.923627 104.534282,140.923627 L98.5030895,140.923627 L98.5030895,135.968269 L103.84966,135.968269 C105.41451,135.968269 106.229536,134.827233 106.229536,133.718798 C106.229536,132.577761 105.447111,131.469326 103.84966,131.469326 L98.5030895,131.469326 L98.5030895,126.709574 L104.240873,126.709574 C105.773121,126.709574 106.555546,125.568538 106.555546,124.460102 C106.555546,123.319066 105.805722,122.210631 104.240873,122.210631 L96.1558147,122.210631 C94.4279596,122.210631 93.6129336,123.416869 93.6129336,125.046921 L93.6129336,142.977493 Z M108.707215,142.944892 C108.707215,144.477141 109.81565,145.422571 111.315298,145.422571 L118.031112,145.422571 C122.530056,145.422571 125.594554,142.944892 125.594554,138.348145 C125.594554,135.511855 123.410284,133.197181 120.639196,132.805968 L120.639196,132.740766 C122.725662,131.762735 123.671092,130.230486 123.671092,127.948413 C123.671092,124.492703 120.932605,122.210631 117.542097,122.210631 L111.282697,122.210631 C109.783049,122.210631 108.707215,123.090859 108.707215,124.655708 L108.707215,142.944892 Z M113.597371,126.513968 L116.140252,126.513968 C117.574698,126.513968 118.780936,127.296393 118.780936,128.828642 C118.780936,130.458694 117.737703,131.404124 116.140252,131.404124 L113.597371,131.404124 L113.597371,126.513968 Z M113.597371,135.707461 L117.053081,135.707461 C119.335154,135.707461 120.508791,136.750694 120.508791,138.282943 C120.508791,140.108601 119.20475,141.119234 117.444294,141.119234 L113.597371,141.119234 L113.597371,135.707461 Z M134.690244,141.119234 C137.461332,137.630922 142.514493,133.131979 142.514493,128.600434 C142.514493,124.460102 139.28699,121.819418 135.277062,121.819418 C131.267134,121.819418 127.615818,125.112123 127.615818,129.219854 C127.615818,130.491295 128.430844,131.59973 129.995694,131.59973 C133.125394,131.59973 131.332337,126.318362 135.081456,126.318362 C136.418099,126.318362 137.428731,127.491999 137.428731,128.828642 C137.428731,130.002279 136.874513,131.012911 136.287695,131.860538 C133.810016,135.446653 130.875922,138.380746 128.170036,141.608249 C127.844025,141.999462 127.420212,142.58628 127.420212,143.270902 C127.420212,144.77055 128.528647,145.422571 129.963093,145.422571 L140.85184,145.422571 C142.09068,145.422571 143.199115,144.77055 143.199115,143.270902 C143.199115,141.771254 142.09068,141.119234 140.656234,141.119234 L134.690244,141.119234 Z M154.02266,141.380042 C150.697354,141.380042 150.469147,136.131274 150.469147,133.816601 C150.469147,131.338922 150.697354,126.253159 154.02266,126.253159 C157.347966,126.253159 157.576174,131.338922 157.576174,133.816601 C157.576174,136.131274 157.347966,141.380042 154.02266,141.380042 L154.02266,141.380042 Z M154.02266,145.813783 C160.60807,145.813783 162.661936,139.13057 162.661936,133.816601 C162.661936,128.502631 160.60807,121.819418 154.02266,121.819418 C147.43725,121.819418 145.383385,128.502631 145.383385,133.816601 C145.383385,139.13057 147.43725,145.813783 154.02266,145.813783 L154.02266,145.813783 Z" id="SUNWEB20"></path>
                </g>
            </g>
            <g id="Page-1" transform="translate(195.000000, 179.000000)" fill="#FFEE00">
                <path d="M179.552239,90 C179.552239,139.45791 139.45791,179.552239 90,179.552239 C40.5420896,179.552239 0.447761194,139.45791 0.447761194,90 C0.447761194,40.5420896 40.5420896,0.447761194 90,0.447761194 C139.45791,0.447761194 179.552239,40.5420896 179.552239,90 L179.552239,90 Z" id="Stroke-1"></path>
            </g>
            <g id="Page-1" transform="translate(195.000000, 179.000000)" fill="#FFEE00">
                <path d="M179.552239,90 C179.552239,139.45791 139.45791,179.552239 90,179.552239 C40.5420896,179.552239 0.447761194,139.45791 0.447761194,90 C0.447761194,40.5420896 40.5420896,0.447761194 90,0.447761194 C139.45791,0.447761194 179.552239,40.5420896 179.552239,90 L179.552239,90 Z" id="Stroke-1"></path>
            </g>
            <path d="M255.24254,269.169829 L253.764928,266.608635 C252.878361,265.131023 252.484331,263.259381 252.484331,261.38774 C252.484331,256.462366 257.015674,253.802665 261.941048,253.802665 C272.185824,253.802665 271.890301,264.145949 278.588809,264.145949 C283.021645,264.145949 286.272391,261.190725 286.272391,256.659381 C286.272391,246.907143 275.141048,239.61759 261.350003,239.61759 C247.952988,239.61759 236.526122,247.00565 236.526122,258.728038 C236.526122,261.486247 237.806719,266.707143 239.087316,269.169829 L237.018659,269.169829 C232.881346,269.169829 229.926122,271.731023 229.926122,275.966844 C229.926122,280.202665 232.881346,282.763859 237.018659,282.763859 L242.141048,282.763859 C242.141048,294.978784 233.570898,299.214605 233.570898,303.253411 C233.570898,307.981769 236.427615,310.936993 241.25448,310.936993 L279.869406,310.936993 C284.006719,310.936993 286.961943,308.375799 286.961943,304.139978 C286.961943,299.904157 284.006719,297.342963 279.869406,297.342963 L252.484331,297.342963 C255.63657,293.008635 257.508212,288.083262 257.508212,282.763859 L270.215674,282.763859 C274.352988,282.763859 277.308212,280.202665 277.308212,275.966844 C277.308212,271.731023 274.352988,269.169829 270.215674,269.169829 L255.24254,269.169829 Z M316.272391,295.471322 L316.272391,303.844456 C316.272391,309.065352 318.341048,311.528038 323.364928,311.528038 C328.388809,311.528038 330.457465,309.065352 330.457465,303.844456 L330.457465,295.471322 L332.132092,295.471322 C335.973883,295.471322 339.027615,292.910128 339.027615,288.969829 C339.027615,285.029531 335.973883,282.468337 332.132092,282.468337 L330.457465,282.468337 L330.457465,252.226546 C330.457465,243.262366 324.84254,239.61759 319.129107,239.61759 C314.006719,239.61759 311.24851,241.390725 309.081346,245.331023 L287.015674,285.325053 C286.42463,286.310128 285.63657,287.492217 285.63657,289.659381 C285.63657,292.220575 287.705227,295.471322 292.532092,295.471322 L316.272391,295.471322 Z M316.272391,282.468337 L302.776868,282.468337 L316.075376,254.984755 L316.272391,254.984755 L316.272391,282.468337 Z" id="£4" fill="#E3231D" transform="translate(284.476868, 275.572814) rotate(-5.000000) translate(-284.476868, -275.572814) "></path>
            <path d="M227.397547,223.885686 L231.373666,223.885686 C231.91098,223.885686 232.297845,223.606283 232.297845,223.004492 C232.297845,222.402701 231.91098,222.123298 231.373666,222.123298 L227.397547,222.123298 L227.397547,217.115537 L231.889487,217.115537 C232.426801,217.115537 232.813666,216.836134 232.813666,216.234343 C232.813666,215.632552 232.426801,215.353149 231.889487,215.353149 L226.516353,215.353149 C225.807099,215.353149 225.506204,215.804492 225.506204,216.38479 L225.506204,229.774641 C225.506204,230.397925 225.871577,230.78479 226.451875,230.78479 C227.032174,230.78479 227.397547,230.397925 227.397547,229.774641 L227.397547,223.885686 Z M233.358144,229.774641 C233.358144,230.397925 233.723517,230.78479 234.303816,230.78479 C234.884114,230.78479 235.249487,230.397925 235.249487,229.774641 L235.249487,224.337029 C235.249487,222.123298 236.62501,221.285089 237.742622,221.091656 C238.537845,220.941208 238.924711,220.597328 238.924711,220.060014 C238.924711,219.522701 238.537845,219.09285 237.871577,219.09285 C236.775457,219.09285 235.722323,220.188969 235.292472,221.070163 L235.249487,221.070163 L235.249487,220.102999 C235.249487,219.479716 234.884114,219.09285 234.303816,219.09285 C233.723517,219.09285 233.358144,219.479716 233.358144,220.102999 L233.358144,229.774641 Z M238.738442,224.93882 C238.738442,227.969268 240.543816,230.78479 243.767696,230.78479 C246.991577,230.78479 248.79695,227.969268 248.79695,224.93882 C248.79695,221.908372 246.991577,219.09285 243.767696,219.09285 C240.543816,219.09285 238.738442,221.908372 238.738442,224.93882 L238.738442,224.93882 Z M240.629786,224.93882 C240.629786,223.004492 241.446502,220.726283 243.767696,220.726283 C246.08889,220.726283 246.905607,223.004492 246.905607,224.93882 C246.905607,226.873149 246.08889,229.151358 243.767696,229.151358 C241.446502,229.151358 240.629786,226.873149 240.629786,224.93882 L240.629786,224.93882 Z M256.670383,229.774641 C256.670383,230.397925 257.035756,230.78479 257.616054,230.78479 C258.196353,230.78479 258.561726,230.397925 258.561726,229.774641 L258.561726,223.369865 C258.561726,221.736432 259.464413,220.726283 260.990383,220.726283 C262.537845,220.726283 263.440532,221.736432 263.440532,223.369865 L263.440532,229.774641 C263.440532,230.397925 263.805905,230.78479 264.386204,230.78479 C264.966502,230.78479 265.331875,230.397925 265.331875,229.774641 L265.331875,223.434343 C265.331875,220.210462 263.118144,219.09285 261.355756,219.09285 C259.70083,219.09285 258.690681,219.823596 257.852472,221.027178 C256.992771,219.565686 255.832174,219.09285 254.714562,219.09285 C252.995159,219.09285 252.285905,219.909566 251.834562,220.489865 L251.791577,220.44688 L251.791577,220.102999 C251.791577,219.479716 251.426204,219.09285 250.845905,219.09285 C250.265607,219.09285 249.900233,219.479716 249.900233,220.102999 L249.900233,229.774641 C249.900233,230.397925 250.265607,230.78479 250.845905,230.78479 C251.426204,230.78479 251.791577,230.397925 251.791577,229.774641 L251.791577,223.369865 C251.791577,221.736432 252.694263,220.726283 254.220233,220.726283 C255.767696,220.726283 256.670383,221.736432 256.670383,223.369865 L256.670383,229.774641 Z M273.298442,215.073746 C273.298442,214.450462 272.933069,214.063596 272.352771,214.063596 C271.772472,214.063596 271.407099,214.450462 271.407099,215.073746 L271.407099,229.774641 C271.407099,230.397925 271.772472,230.78479 272.352771,230.78479 C272.933069,230.78479 273.298442,230.397925 273.298442,229.774641 L273.298442,215.073746 Z M283.213666,225.669566 C284.030383,225.669566 284.266801,225.325686 284.266801,224.659417 C284.266801,221.908372 282.461427,219.09285 279.34501,219.09285 C276.142622,219.09285 274.208293,221.843895 274.208293,224.93882 C274.208293,227.969268 275.798741,230.78479 279.452472,230.78479 C281.687696,230.78479 284.030383,229.366283 284.030383,228.442104 C284.030383,227.90479 283.686502,227.603895 283.342622,227.603895 C282.633368,227.603895 281.988592,229.151358 279.473965,229.151358 C277.346204,229.151358 276.099636,227.625387 276.099636,225.669566 L283.213666,225.669566 Z M276.099636,224.251059 C276.164114,222.510163 277.002323,220.640313 279.34501,220.726283 C281.429786,220.726283 282.375457,222.617626 282.375457,224.251059 L276.099636,224.251059 Z M284.918741,222.316731 C284.918741,225.497626 291.022622,225.368671 291.022622,227.603895 C291.022622,228.377626 290.184413,229.151358 288.80889,229.151358 C286.745607,229.151358 286.057845,227.754343 285.219636,227.754343 C284.811278,227.754343 284.445905,228.098223 284.445905,228.614044 C284.445905,229.581208 286.337248,230.78479 288.744413,230.78479 C290.872174,230.78479 292.913965,229.645686 292.913965,227.260014 C292.913965,223.950163 286.810084,224.165089 286.810084,222.166283 C286.810084,221.199119 287.734263,220.726283 288.80889,220.726283 C290.614263,220.726283 290.936651,221.88688 291.753368,221.88688 C292.333666,221.88688 292.613069,221.521507 292.613069,221.113149 C292.613069,219.931059 290.377845,219.09285 288.80889,219.09285 C286.896054,219.09285 284.918741,220.210462 284.918741,222.316731 L284.918741,222.316731 Z M293.565905,222.316731 C293.565905,225.497626 299.669786,225.368671 299.669786,227.603895 C299.669786,228.377626 298.831577,229.151358 297.456054,229.151358 C295.392771,229.151358 294.70501,227.754343 293.866801,227.754343 C293.458442,227.754343 293.093069,228.098223 293.093069,228.614044 C293.093069,229.581208 294.984413,230.78479 297.391577,230.78479 C299.519338,230.78479 301.561129,229.645686 301.561129,227.260014 C301.561129,223.950163 295.457248,224.165089 295.457248,222.166283 C295.457248,221.199119 296.381427,220.726283 297.456054,220.726283 C299.261427,220.726283 299.583816,221.88688 300.400532,221.88688 C300.98083,221.88688 301.260233,221.521507 301.260233,221.113149 C301.260233,219.931059 299.02501,219.09285 297.456054,219.09285 C295.543219,219.09285 293.565905,220.210462 293.565905,222.316731 L293.565905,222.316731 Z M307.550383,219.221805 L306.776651,219.221805 C306.153368,219.221805 305.83098,219.522701 305.83098,220.038522 C305.83098,220.554343 306.153368,220.855238 306.776651,220.855238 L307.550383,220.855238 L307.550383,229.774641 C307.550383,230.397925 307.915756,230.78479 308.496054,230.78479 C309.076353,230.78479 309.441726,230.397925 309.441726,229.774641 L309.441726,220.855238 L310.215457,220.855238 C310.838741,220.855238 311.161129,220.554343 311.161129,220.038522 C311.161129,219.522701 310.838741,219.221805 310.215457,219.221805 L309.441726,219.221805 L309.441726,216.750163 C309.441726,216.12688 309.076353,215.740014 308.496054,215.740014 C307.915756,215.740014 307.550383,216.12688 307.550383,216.750163 L307.550383,219.221805 Z M318.819636,229.774641 C318.819636,230.397925 319.18501,230.78479 319.765308,230.78479 C320.345607,230.78479 320.71098,230.397925 320.71098,229.774641 L320.71098,223.434343 C320.71098,220.210462 318.497248,219.09285 316.73486,219.09285 C315.595756,219.09285 314.413666,219.522701 313.575457,220.597328 L313.532472,220.554343 L313.532472,215.073746 C313.532472,214.450462 313.167099,214.063596 312.586801,214.063596 C312.006502,214.063596 311.641129,214.450462 311.641129,215.073746 L311.641129,229.774641 C311.641129,230.397925 312.006502,230.78479 312.586801,230.78479 C313.167099,230.78479 313.532472,230.397925 313.532472,229.774641 L313.532472,223.541805 C313.532472,221.542999 314.929487,220.726283 316.176054,220.726283 C317.422622,220.726283 318.819636,221.542999 318.819636,223.541805 L318.819636,229.774641 Z M331.765308,220.017029 C331.765308,219.35076 331.249487,219.09285 330.884114,219.09285 C330.497248,219.09285 330.00292,219.35076 330.00292,220.017029 L330.00292,220.61882 L329.959935,220.61882 C329.078741,219.651656 328.154562,219.09285 326.843517,219.09285 C323.619636,219.09285 321.814263,221.908372 321.814263,224.93882 C321.814263,227.969268 323.619636,230.78479 326.843517,230.78479 C328.068592,230.78479 329.143219,230.225984 329.959935,229.065387 L330.00292,229.065387 L330.00292,229.860611 C330.00292,230.52688 330.497248,230.78479 330.884114,230.78479 C331.249487,230.78479 331.765308,230.52688 331.765308,229.860611 L331.765308,220.017029 Z M323.705607,224.93882 C323.705607,223.004492 324.522323,220.726283 326.843517,220.726283 C329.164711,220.726283 329.981427,223.004492 329.981427,224.93882 C329.981427,226.873149 329.164711,229.151358 326.843517,229.151358 C324.522323,229.151358 323.705607,226.873149 323.705607,224.93882 L323.705607,224.93882 Z M333.36292,229.774641 C333.36292,230.397925 333.728293,230.78479 334.308592,230.78479 C334.88889,230.78479 335.254263,230.397925 335.254263,229.774641 L335.254263,223.541805 C335.254263,221.542999 336.651278,220.726283 337.897845,220.726283 C339.144413,220.726283 340.541427,221.542999 340.541427,223.541805 L340.541427,229.774641 C340.541427,230.397925 340.906801,230.78479 341.487099,230.78479 C342.067398,230.78479 342.432771,230.397925 342.432771,229.774641 L342.432771,223.434343 C342.432771,220.210462 340.219039,219.09285 338.456651,219.09285 C337.317547,219.09285 336.135457,219.522701 335.297248,220.597328 L335.254263,220.554343 L335.254263,220.102999 C335.254263,219.479716 334.88889,219.09285 334.308592,219.09285 C333.728293,219.09285 333.36292,219.479716 333.36292,220.102999 L333.36292,229.774641 Z" id="From-less-than" fill="#1A3053" transform="translate(283.969487, 222.424193) rotate(-5.000000) translate(-283.969487, -222.424193) "></path>
        </g>
    </g>
</svg>