<?xml version="1.0" encoding="UTF-8" standalone="no"?>
<svg width="449px" height="197px" viewBox="0 0 449 197" version="1.1" xmlns="http://www.w3.org/2000/svg" xmlns:xlink="http://www.w3.org/1999/xlink">
    <!-- Generator: Sketch 39.1 (31720) - http://www.bohemiancoding.com/sketch -->
    <title>10-charcoal-hex</title>
    <desc>Created with Sketch.</desc>
    <defs></defs>
    <g id="Templates" stroke="none" stroke-width="1" fill="none" fill-rule="evenodd">
        <g id="Desktop-HD-Copy" transform="translate(-522.000000, -420.000000)" fill="#575756">
            <g id="10-charcoal-hex" transform="translate(520.000000, 420.000000)">
                <circle id="colour-brand-circle-sunshine" cx="360.499534" cy="95.8041507" r="90"></circle>
                <path d="M84.9635338,32.7881507 C84.9635338,34.1881507 85.8595338,34.9721507 87.0635338,34.9721507 C88.2675338,34.9721507 89.1635338,34.1881507 89.1635338,32.7881507 L89.1635338,26.6841507 L97.9555338,26.6841507 L97.9555338,32.7881507 C97.9555338,34.1881507 98.8515338,34.9721507 100.055534,34.9721507 C101.259534,34.9721507 102.155534,34.1881507 102.155534,32.7881507 L102.155534,16.8841507 C102.155534,15.4841507 101.259534,14.7001507 100.055534,14.7001507 C98.8515338,14.7001507 97.9555338,15.4841507 97.9555338,16.8841507 L97.9555338,22.8201507 L89.1635338,22.8201507 L89.1635338,16.8841507 C89.1635338,15.4841507 88.2675338,14.7001507 87.0635338,14.7001507 C85.8595338,14.7001507 84.9635338,15.4841507 84.9635338,16.8841507 L84.9635338,32.7881507 Z M116.407534,28.7001507 C117.639534,28.7001507 118.171534,28.1121507 118.171534,26.9081507 C118.171534,23.5481507 115.287534,19.5721507 110.919534,19.5721507 C106.663534,19.5721507 103.695534,23.2961507 103.695534,27.3841507 C103.695534,31.8361507 106.719534,35.1401507 111.255534,35.1401507 C114.251534,35.1401507 117.835534,33.4601507 117.835534,31.7241507 C117.835534,30.8561507 117.051534,29.9881507 116.183534,29.9881507 C115.119534,29.9881507 113.691534,31.6121507 111.619534,31.6121507 C109.743534,31.6121507 108.091534,30.6881507 107.811534,28.7001507 L116.407534,28.7001507 Z M107.727534,26.0121507 C107.923534,24.3041507 109.127534,22.9321507 110.919534,22.9321507 C112.795534,22.9321507 113.915534,24.2481507 114.139534,26.0121507 L107.727534,26.0121507 Z M119.011534,31.6401507 C118.703534,31.9761507 118.451534,32.5641507 118.451534,33.0121507 C118.451534,34.1881507 119.263534,34.9721507 120.439534,34.9721507 C121.335534,34.9721507 121.699534,34.5801507 122.119534,34.0761507 L125.451534,29.9881507 L128.783534,34.0761507 C129.203534,34.5801507 129.567534,34.9721507 130.463534,34.9721507 C131.639534,34.9721507 132.451534,34.1881507 132.451534,33.0121507 C132.451534,32.5641507 132.199534,31.9761507 131.891534,31.6401507 L127.803534,26.9921507 L131.219534,23.1561507 C131.555534,22.7641507 131.835534,22.2041507 131.835534,21.7001507 C131.835534,20.6361507 130.799534,19.7401507 129.763534,19.7401507 C129.119534,19.7401507 128.699534,20.0201507 128.279534,20.5241507 L125.451534,24.0521507 L122.623534,20.5241507 C122.203534,20.0201507 121.783534,19.7401507 121.139534,19.7401507 C120.103534,19.7401507 119.067534,20.6361507 119.067534,21.7001507 C119.067534,22.2041507 119.347534,22.7641507 119.683534,23.1561507 L123.099534,26.9921507 L119.011534,31.6401507 Z M134.019534,23.9681507 C134.019534,25.1721507 134.999534,26.1521507 136.203534,26.1521507 C137.407534,26.1521507 138.387534,25.1721507 138.387534,23.9681507 C138.387534,22.7641507 137.407534,21.7841507 136.203534,21.7841507 C134.999534,21.7841507 134.019534,22.7641507 134.019534,23.9681507 L134.019534,23.9681507 Z M134.019534,32.9561507 C134.019534,34.1601507 134.999534,35.1401507 136.203534,35.1401507 C137.407534,35.1401507 138.387534,34.1601507 138.387534,32.9561507 C138.387534,31.7521507 137.407534,30.7721507 136.203534,30.7721507 C134.999534,30.7721507 134.019534,31.7521507 134.019534,32.9561507 L134.019534,32.9561507 Z M158.127534,28.7561507 L160.087534,28.7561507 C160.731534,28.7561507 161.235534,28.4481507 161.235534,27.8321507 C161.235534,27.2161507 160.731534,26.9081507 160.087534,26.9081507 L158.379534,26.9081507 L158.967534,22.7641507 L160.927534,22.7641507 C161.571534,22.7641507 162.075534,22.4841507 162.075534,21.8401507 C162.075534,21.2241507 161.571534,20.9161507 160.927534,20.9161507 L159.219534,20.9161507 L159.779534,16.8281507 C159.863534,16.2961507 159.919534,15.9601507 159.919534,15.6521507 C159.919534,15.1481507 159.639534,14.7001507 158.967534,14.7001507 C158.239534,14.7001507 157.987534,15.0641507 157.903534,15.7081507 L157.175534,20.9161507 L153.843534,20.9161507 L154.403534,16.8281507 C154.487534,16.2961507 154.543534,15.9601507 154.543534,15.6521507 C154.543534,15.1481507 154.263534,14.7001507 153.591534,14.7001507 C152.863534,14.7001507 152.611534,15.0641507 152.527534,15.7081507 L151.799534,20.9161507 L149.839534,20.9161507 C149.195534,20.9161507 148.691534,21.2241507 148.691534,21.8401507 C148.691534,22.4561507 149.195534,22.7641507 149.839534,22.7641507 L151.547534,22.7641507 L150.959534,26.9081507 L148.999534,26.9081507 C148.355534,26.9081507 147.851534,27.1881507 147.851534,27.8321507 C147.851534,28.4481507 148.355534,28.7561507 148.999534,28.7561507 L150.707534,28.7561507 L150.147534,32.8441507 C150.063534,33.3761507 150.007534,33.7121507 150.007534,34.0201507 C150.007534,34.5241507 150.287534,34.9721507 150.959534,34.9721507 C151.687534,34.9721507 151.939534,34.6081507 152.023534,33.9641507 L152.751534,28.7561507 L156.083534,28.7561507 L155.523534,32.8441507 C155.439534,33.3761507 155.383534,33.7121507 155.383534,34.0201507 C155.383534,34.5241507 155.663534,34.9721507 156.335534,34.9721507 C157.063534,34.9721507 157.315534,34.6081507 157.399534,33.9641507 L158.127534,28.7561507 Z M156.335534,26.9081507 L153.003534,26.9081507 L153.591534,22.7641507 L156.923534,22.7641507 L156.335534,26.9081507 Z M168.851534,16.9961507 L174.535534,16.9961507 C175.123534,16.9961507 175.599534,16.5201507 175.599534,15.9321507 C175.599534,15.3441507 175.123534,14.8681507 174.535534,14.8681507 L167.619534,14.8681507 C167.031534,14.8681507 166.779534,15.0081507 166.695534,15.5121507 L165.659534,22.4841507 C165.575534,23.1001507 165.463534,23.8281507 165.463534,24.1361507 C165.463534,24.5281507 165.715534,24.8921507 166.303534,24.8921507 C167.003534,24.8921507 167.871534,24.1361507 169.691534,24.1361507 C172.099534,24.1361507 173.135534,26.0121507 173.135534,28.3641507 C173.135534,30.6881507 171.707534,32.6761507 169.327534,32.6761507 C166.499534,32.6761507 165.603534,30.6041507 164.595534,30.6041507 C163.979534,30.6041507 163.699534,31.1641507 163.699534,31.6681507 C163.699534,32.8721507 165.995534,34.9721507 169.299534,34.9721507 C173.331534,34.9721507 175.767534,32.1721507 175.767534,27.8881507 C175.767534,24.7801507 173.779534,21.8401507 170.671534,21.8401507 C169.747534,21.8401507 168.851534,21.9801507 168.039534,22.4001507 L168.851534,16.9961507 Z M187.723534,16.9961507 L187.723534,17.0521507 L180.751534,32.7041507 C180.443534,33.4321507 180.359534,33.8241507 180.359534,34.0201507 C180.359534,34.6641507 180.947534,34.9721507 181.283534,34.9721507 C181.815534,34.9721507 182.431534,34.8601507 182.767534,34.0761507 L190.215534,17.1361507 C190.523534,16.4361507 190.691534,16.0441507 190.691534,15.6521507 C190.691534,15.0641507 190.187534,14.8681507 189.431534,14.8681507 L179.323534,14.8681507 C178.735534,14.8681507 178.259534,15.3441507 178.259534,15.9321507 C178.259534,16.5201507 178.735534,16.9961507 179.323534,16.9961507 L187.723534,16.9961507 Z M197.859534,16.9961507 L203.543534,16.9961507 C204.131534,16.9961507 204.607534,16.5201507 204.607534,15.9321507 C204.607534,15.3441507 204.131534,14.8681507 203.543534,14.8681507 L196.627534,14.8681507 C196.039534,14.8681507 195.787534,15.0081507 195.703534,15.5121507 L194.667534,22.4841507 C194.583534,23.1001507 194.471534,23.8281507 194.471534,24.1361507 C194.471534,24.5281507 194.723534,24.8921507 195.311534,24.8921507 C196.011534,24.8921507 196.879534,24.1361507 198.699534,24.1361507 C201.107534,24.1361507 202.143534,26.0121507 202.143534,28.3641507 C202.143534,30.6881507 200.715534,32.6761507 198.335534,32.6761507 C195.507534,32.6761507 194.611534,30.6041507 193.603534,30.6041507 C192.987534,30.6041507 192.707534,31.1641507 192.707534,31.6681507 C192.707534,32.8721507 195.003534,34.9721507 198.307534,34.9721507 C202.339534,34.9721507 204.775534,32.1721507 204.775534,27.8881507 C204.775534,24.7801507 202.787534,21.8401507 199.679534,21.8401507 C198.755534,21.8401507 197.859534,21.9801507 197.047534,22.4001507 L197.859534,16.9961507 Z M216.731534,16.9961507 L216.731534,17.0521507 L209.759534,32.7041507 C209.451534,33.4321507 209.367534,33.8241507 209.367534,34.0201507 C209.367534,34.6641507 209.955534,34.9721507 210.291534,34.9721507 C210.823534,34.9721507 211.439534,34.8601507 211.775534,34.0761507 L219.223534,17.1361507 C219.531534,16.4361507 219.699534,16.0441507 219.699534,15.6521507 C219.699534,15.0641507 219.195534,14.8681507 218.439534,14.8681507 L208.331534,14.8681507 C207.743534,14.8681507 207.267534,15.3441507 207.267534,15.9321507 C207.267534,16.5201507 207.743534,16.9961507 208.331534,16.9961507 L216.731534,16.9961507 Z M226.867534,16.9961507 L232.551534,16.9961507 C233.139534,16.9961507 233.615534,16.5201507 233.615534,15.9321507 C233.615534,15.3441507 233.139534,14.8681507 232.551534,14.8681507 L225.635534,14.8681507 C225.047534,14.8681507 224.795534,15.0081507 224.711534,15.5121507 L223.675534,22.4841507 C223.591534,23.1001507 223.479534,23.8281507 223.479534,24.1361507 C223.479534,24.5281507 223.731534,24.8921507 224.319534,24.8921507 C225.019534,24.8921507 225.887534,24.1361507 227.707534,24.1361507 C230.115534,24.1361507 231.151534,26.0121507 231.151534,28.3641507 C231.151534,30.6881507 229.723534,32.6761507 227.343534,32.6761507 C224.515534,32.6761507 223.619534,30.6041507 222.611534,30.6041507 C221.995534,30.6041507 221.715534,31.1641507 221.715534,31.6681507 C221.715534,32.8721507 224.011534,34.9721507 227.315534,34.9721507 C231.347534,34.9721507 233.783534,32.1721507 233.783534,27.8881507 C233.783534,24.7801507 231.795534,21.8401507 228.687534,21.8401507 C227.763534,21.8401507 226.867534,21.9801507 226.055534,22.4001507 L226.867534,16.9961507 Z M242.939534,34.9721507 C246.467534,34.9721507 249.043534,32.0881507 249.043534,28.4761507 C249.043534,25.0041507 247.251534,21.9241507 244.003534,21.9241507 C242.659534,21.9241507 241.763534,22.2321507 240.839534,22.7081507 L240.783534,22.7081507 C242.295534,19.9361507 243.471534,18.5921507 245.067534,17.1641507 C245.767534,16.5481507 246.047534,16.2401507 246.047534,15.8481507 C246.047534,15.0921507 245.431534,14.7001507 245.039534,14.7001507 C244.703534,14.7001507 244.395534,14.8401507 243.891534,15.2601507 C240.867534,17.8081507 236.947534,22.2881507 236.947534,28.1121507 C236.947534,32.0881507 239.467534,34.9721507 242.939534,34.9721507 L242.939534,34.9721507 Z M239.411534,28.3641507 C239.411534,26.0681507 240.475534,24.0521507 242.911534,24.0521507 C245.347534,24.0521507 246.411534,25.7321507 246.411534,28.3641507 C246.411534,30.6881507 245.347534,32.6761507 242.911534,32.6761507 C240.475534,32.6761507 239.411534,30.6881507 239.411534,28.3641507 L239.411534,28.3641507 Z" id="Hex:-#575756" transform="translate(167.731534, 24.920151) rotate(10.000000) translate(-167.731534, -24.920151) "></path>
                <path d="M83.3675338,103.788151 C83.3675338,105.188151 84.2635338,105.972151 85.4675338,105.972151 C86.6715338,105.972151 87.5675338,105.188151 87.5675338,103.788151 L87.5675338,97.7121507 L87.6235338,97.7121507 L93.8395338,105.244151 C94.2875338,105.776151 94.9595338,105.972151 95.4635338,105.972151 C96.6955338,105.972151 97.5635338,104.908151 97.5635338,103.816151 C97.5635338,103.424151 97.3955338,103.004151 97.0035338,102.584151 L92.2435338,97.4881507 C95.0995338,97.0401507 97.4235338,95.2761507 97.4235338,92.1961507 C97.4235338,87.8001507 94.7635338,85.8681507 90.4515338,85.8681507 L85.5235338,85.8681507 C84.1235338,85.8681507 83.3675338,86.7081507 83.3675338,88.0521507 L83.3675338,103.788151 Z M87.5675338,89.7321507 L90.4515338,89.7321507 C91.9915338,89.7321507 93.0555338,90.6001507 93.0555338,92.1961507 C93.0555338,93.7641507 91.9915338,94.6881507 90.4515338,94.6881507 L87.5675338,94.6881507 L87.5675338,89.7321507 Z M109.687534,93.9881507 C108.623534,93.9881507 107.727534,94.7161507 107.727534,95.8921507 C107.727534,97.0401507 108.539534,97.8521507 109.687534,97.8521507 L112.543534,97.8521507 C112.543534,101.044151 109.995534,102.276151 107.783534,102.276151 C104.227534,102.276151 102.519534,99.2521507 102.519534,95.8361507 C102.519534,92.4481507 104.283534,89.3961507 107.783534,89.3961507 C111.451534,89.3961507 111.843534,91.4401507 113.747534,91.4401507 C114.727534,91.4401507 115.483534,90.6841507 115.483534,89.4801507 C115.483534,87.5201507 112.011534,85.5321507 107.783534,85.5321507 C102.071534,85.5321507 98.1515338,90.0121507 98.1515338,95.8361507 C98.1515338,101.632151 102.099534,106.140151 107.783534,106.140151 C113.383534,106.140151 116.911534,102.080151 116.911534,96.6761507 C116.911534,94.8841507 116.211534,93.9881507 114.447534,93.9881507 L109.687534,93.9881507 Z M118.647534,103.676151 C118.647534,104.992151 119.599534,105.804151 120.887534,105.804151 L126.655534,105.804151 C130.519534,105.804151 133.151534,103.676151 133.151534,99.7281507 C133.151534,97.2921507 131.275534,95.3041507 128.895534,94.9681507 L128.895534,94.9121507 C130.687534,94.0721507 131.499534,92.7561507 131.499534,90.7961507 C131.499534,87.8281507 129.147534,85.8681507 126.235534,85.8681507 L120.859534,85.8681507 C119.571534,85.8681507 118.647534,86.6241507 118.647534,87.9681507 L118.647534,103.676151 Z M122.847534,89.5641507 L125.031534,89.5641507 C126.263534,89.5641507 127.299534,90.2361507 127.299534,91.5521507 C127.299534,92.9521507 126.403534,93.7641507 125.031534,93.7641507 L122.847534,93.7641507 L122.847534,89.5641507 Z M122.847534,97.4601507 L125.815534,97.4601507 C127.775534,97.4601507 128.783534,98.3561507 128.783534,99.6721507 C128.783534,101.240151 127.663534,102.108151 126.151534,102.108151 L122.847534,102.108151 L122.847534,97.4601507 Z M135.027534,94.9681507 C135.027534,96.1721507 136.007534,97.1521507 137.211534,97.1521507 C138.415534,97.1521507 139.395534,96.1721507 139.395534,94.9681507 C139.395534,93.7641507 138.415534,92.7841507 137.211534,92.7841507 C136.007534,92.7841507 135.027534,93.7641507 135.027534,94.9681507 L135.027534,94.9681507 Z M135.027534,103.956151 C135.027534,105.160151 136.007534,106.140151 137.211534,106.140151 C138.415534,106.140151 139.395534,105.160151 139.395534,103.956151 C139.395534,102.752151 138.415534,101.772151 137.211534,101.772151 C136.007534,101.772151 135.027534,102.752151 135.027534,103.956151 L135.027534,103.956151 Z M150.875534,90.2641507 C150.875534,92.3921507 151.687534,93.5681507 153.479534,94.6881507 C151.155534,95.2201507 149.867534,97.3481507 149.867534,99.6721507 C149.867534,102.920151 152.079534,105.972151 155.971534,105.972151 C159.863534,105.972151 162.075534,102.920151 162.075534,99.6721507 C162.075534,97.3481507 160.787534,95.2201507 158.463534,94.6881507 C160.255534,93.5681507 161.067534,92.3921507 161.067534,90.2641507 C161.067534,87.2121507 158.491534,85.7001507 155.971534,85.7001507 C153.451534,85.7001507 150.875534,87.2121507 150.875534,90.2641507 L150.875534,90.2641507 Z M153.171534,90.7401507 C153.171534,89.0601507 154.207534,87.8281507 155.971534,87.8281507 C157.735534,87.8281507 158.771534,89.0601507 158.771534,90.7401507 C158.771534,92.4481507 157.735534,93.6801507 155.971534,93.6801507 C154.207534,93.6801507 153.171534,92.4481507 153.171534,90.7401507 L153.171534,90.7401507 Z M152.499534,99.7841507 C152.499534,97.7401507 153.675534,95.8081507 155.971534,95.8081507 C158.267534,95.8081507 159.443534,97.7401507 159.443534,99.7841507 C159.443534,102.360151 157.819534,103.844151 155.971534,103.844151 C154.123534,103.844151 152.499534,102.360151 152.499534,99.7841507 L152.499534,99.7841507 Z M173.723534,87.9961507 L173.723534,88.0521507 L166.751534,103.704151 C166.443534,104.432151 166.359534,104.824151 166.359534,105.020151 C166.359534,105.664151 166.947534,105.972151 167.283534,105.972151 C167.815534,105.972151 168.431534,105.860151 168.767534,105.076151 L176.215534,88.1361507 C176.523534,87.4361507 176.691534,87.0441507 176.691534,86.6521507 C176.691534,86.0641507 176.187534,85.8681507 175.431534,85.8681507 L165.323534,85.8681507 C164.735534,85.8681507 164.259534,86.3441507 164.259534,86.9321507 C164.259534,87.5201507 164.735534,87.9961507 165.323534,87.9961507 L173.723534,87.9961507 Z M178.399534,107.232151 C178.175534,107.680151 178.091534,107.960151 178.091534,108.268151 C178.091534,108.884151 178.623534,109.332151 179.211534,109.332151 C179.939534,109.332151 180.247534,108.828151 180.527534,108.296151 L182.095534,105.216151 C182.319534,104.768151 182.403534,104.488151 182.403534,104.180151 C182.403534,103.564151 181.871534,103.116151 181.283534,103.116151 C180.555534,103.116151 180.247534,103.620151 179.967534,104.152151 L178.399534,107.232151 Z M186.883534,90.2641507 C186.883534,92.3921507 187.695534,93.5681507 189.487534,94.6881507 C187.163534,95.2201507 185.875534,97.3481507 185.875534,99.6721507 C185.875534,102.920151 188.087534,105.972151 191.979534,105.972151 C195.871534,105.972151 198.083534,102.920151 198.083534,99.6721507 C198.083534,97.3481507 196.795534,95.2201507 194.471534,94.6881507 C196.263534,93.5681507 197.075534,92.3921507 197.075534,90.2641507 C197.075534,87.2121507 194.499534,85.7001507 191.979534,85.7001507 C189.459534,85.7001507 186.883534,87.2121507 186.883534,90.2641507 L186.883534,90.2641507 Z M189.179534,90.7401507 C189.179534,89.0601507 190.215534,87.8281507 191.979534,87.8281507 C193.743534,87.8281507 194.779534,89.0601507 194.779534,90.7401507 C194.779534,92.4481507 193.743534,93.6801507 191.979534,93.6801507 C190.215534,93.6801507 189.179534,92.4481507 189.179534,90.7401507 L189.179534,90.7401507 Z M188.507534,99.7841507 C188.507534,97.7401507 189.683534,95.8081507 191.979534,95.8081507 C194.275534,95.8081507 195.451534,97.7401507 195.451534,99.7841507 C195.451534,102.360151 193.827534,103.844151 191.979534,103.844151 C190.131534,103.844151 188.507534,102.360151 188.507534,99.7841507 L188.507534,99.7841507 Z M209.731534,87.9961507 L209.731534,88.0521507 L202.759534,103.704151 C202.451534,104.432151 202.367534,104.824151 202.367534,105.020151 C202.367534,105.664151 202.955534,105.972151 203.291534,105.972151 C203.823534,105.972151 204.439534,105.860151 204.775534,105.076151 L212.223534,88.1361507 C212.531534,87.4361507 212.699534,87.0441507 212.699534,86.6521507 C212.699534,86.0641507 212.195534,85.8681507 211.439534,85.8681507 L201.331534,85.8681507 C200.743534,85.8681507 200.267534,86.3441507 200.267534,86.9321507 C200.267534,87.5201507 200.743534,87.9961507 201.331534,87.9961507 L209.731534,87.9961507 Z M214.407534,107.232151 C214.183534,107.680151 214.099534,107.960151 214.099534,108.268151 C214.099534,108.884151 214.631534,109.332151 215.219534,109.332151 C215.947534,109.332151 216.255534,108.828151 216.535534,108.296151 L218.103534,105.216151 C218.327534,104.768151 218.411534,104.488151 218.411534,104.180151 C218.411534,103.564151 217.879534,103.116151 217.291534,103.116151 C216.563534,103.116151 216.255534,103.620151 215.975534,104.152151 L214.407534,107.232151 Z M222.891534,90.2641507 C222.891534,92.3921507 223.703534,93.5681507 225.495534,94.6881507 C223.171534,95.2201507 221.883534,97.3481507 221.883534,99.6721507 C221.883534,102.920151 224.095534,105.972151 227.987534,105.972151 C231.879534,105.972151 234.091534,102.920151 234.091534,99.6721507 C234.091534,97.3481507 232.803534,95.2201507 230.479534,94.6881507 C232.271534,93.5681507 233.083534,92.3921507 233.083534,90.2641507 C233.083534,87.2121507 230.507534,85.7001507 227.987534,85.7001507 C225.467534,85.7001507 222.891534,87.2121507 222.891534,90.2641507 L222.891534,90.2641507 Z M225.187534,90.7401507 C225.187534,89.0601507 226.223534,87.8281507 227.987534,87.8281507 C229.751534,87.8281507 230.787534,89.0601507 230.787534,90.7401507 C230.787534,92.4481507 229.751534,93.6801507 227.987534,93.6801507 C226.223534,93.6801507 225.187534,92.4481507 225.187534,90.7401507 L225.187534,90.7401507 Z M224.515534,99.7841507 C224.515534,97.7401507 225.691534,95.8081507 227.987534,95.8081507 C230.283534,95.8081507 231.459534,97.7401507 231.459534,99.7841507 C231.459534,102.360151 229.835534,103.844151 227.987534,103.844151 C226.139534,103.844151 224.515534,102.360151 224.515534,99.7841507 L224.515534,99.7841507 Z M242.939534,105.972151 C246.467534,105.972151 249.043534,103.088151 249.043534,99.4761507 C249.043534,96.0041507 247.251534,92.9241507 244.003534,92.9241507 C242.659534,92.9241507 241.763534,93.2321507 240.839534,93.7081507 L240.783534,93.7081507 C242.295534,90.9361507 243.471534,89.5921507 245.067534,88.1641507 C245.767534,87.5481507 246.047534,87.2401507 246.047534,86.8481507 C246.047534,86.0921507 245.431534,85.7001507 245.039534,85.7001507 C244.703534,85.7001507 244.395534,85.8401507 243.891534,86.2601507 C240.867534,88.8081507 236.947534,93.2881507 236.947534,99.1121507 C236.947534,103.088151 239.467534,105.972151 242.939534,105.972151 L242.939534,105.972151 Z M239.411534,99.3641507 C239.411534,97.0681507 240.475534,95.0521507 242.911534,95.0521507 C245.347534,95.0521507 246.411534,96.7321507 246.411534,99.3641507 C246.411534,101.688151 245.347534,103.676151 242.911534,103.676151 C240.475534,103.676151 239.411534,101.688151 239.411534,99.3641507 L239.411534,99.3641507 Z" id="RGB:-87,87,86"></path>
                <path d="M8.01153379,155.532151 C4.28753379,155.532151 1.06753379,157.968151 1.06753379,161.888151 C1.06753379,168.384151 10.4195338,166.396151 10.4195338,169.700151 C10.4195338,171.072151 9.41153379,172.108151 7.56353379,172.108151 C5.74353379,172.108151 4.17553379,171.016151 2.85953379,171.016151 C1.71153379,171.016151 0.983533795,171.912151 0.983533795,173.004151 C0.983533795,175.636151 5.63153379,176.140151 7.78753379,176.140151 C11.6515338,176.140151 14.9555338,173.648151 14.9555338,169.644151 C14.9555338,162.420151 5.60353379,164.268151 5.60353379,161.384151 C5.60353379,160.208151 6.69553379,159.564151 7.89953379,159.564151 C9.57953379,159.564151 10.4755338,160.404151 11.6235338,160.404151 C12.7715338,160.404151 13.4995338,159.424151 13.4995338,158.332151 C13.4995338,156.120151 9.57953379,155.532151 8.01153379,155.532151 L8.01153379,155.532151 Z M30.4115338,163.372151 C30.4115338,162.336151 30.4115338,160.740151 28.4795338,160.740151 C27.4995338,160.740151 26.6595338,161.440151 26.5475338,162.420151 C25.6515338,161.160151 24.1955338,160.572151 22.7115338,160.572151 C19.0155338,160.572151 16.0475338,163.960151 16.0475338,168.384151 C16.0475338,172.920151 18.9315338,176.140151 22.7115338,176.140151 C24.2515338,176.140151 25.5115338,175.496151 26.5475338,174.264151 C26.8275338,175.328151 27.3035338,175.972151 28.4795338,175.972151 C30.4115338,175.972151 30.4115338,174.376151 30.4115338,173.340151 L30.4115338,163.372151 Z M20.0795338,168.384151 C20.0795338,166.452151 21.0595338,164.268151 23.2715338,164.268151 C25.3995338,164.268151 26.3795338,166.452151 26.3795338,168.384151 C26.3795338,170.316151 25.3715338,172.444151 23.2715338,172.444151 C21.0875338,172.444151 20.0795338,170.316151 20.0795338,168.384151 L20.0795338,168.384151 Z M42.8435338,163.484151 C42.8435338,161.496151 39.7915338,160.572151 37.8035338,160.572151 C34.6115338,160.572151 32.3435338,162.476151 32.3435338,165.276151 C32.3435338,169.896151 39.3435338,169.616151 39.3435338,171.464151 C39.3435338,172.220151 38.9795338,172.612151 37.7475338,172.612151 C35.8435338,172.612151 35.1435338,171.240151 33.5755338,171.240151 C32.4555338,171.240151 31.8395338,172.416151 31.8395338,173.032151 C31.8395338,174.852151 35.1995338,176.140151 37.4675338,176.140151 C40.9395338,176.140151 43.2075338,174.096151 43.2075338,171.408151 C43.2075338,166.816151 36.2075338,167.096151 36.2075338,165.220151 C36.2075338,164.436151 36.8515338,164.100151 37.5795338,164.100151 C38.8955338,164.100151 40.4355338,165.276151 41.1915338,165.276151 C42.1435338,165.276151 42.8435338,164.408151 42.8435338,163.484151 L42.8435338,163.484151 Z M54.7715338,163.484151 C54.7715338,161.496151 51.7195338,160.572151 49.7315338,160.572151 C46.5395338,160.572151 44.2715338,162.476151 44.2715338,165.276151 C44.2715338,169.896151 51.2715338,169.616151 51.2715338,171.464151 C51.2715338,172.220151 50.9075338,172.612151 49.6755338,172.612151 C47.7715338,172.612151 47.0715338,171.240151 45.5035338,171.240151 C44.3835338,171.240151 43.7675338,172.416151 43.7675338,173.032151 C43.7675338,174.852151 47.1275338,176.140151 49.3955338,176.140151 C52.8675338,176.140151 55.1355338,174.096151 55.1355338,171.408151 C55.1355338,166.816151 48.1355338,167.096151 48.1355338,165.220151 C48.1355338,164.436151 48.7795338,164.100151 49.5075338,164.100151 C50.8235338,164.100151 52.3635338,165.276151 53.1195338,165.276151 C54.0715338,165.276151 54.7715338,164.408151 54.7715338,163.484151 L54.7715338,163.484151 Z M56.9835338,164.968151 C56.9835338,166.172151 57.9635338,167.152151 59.1675338,167.152151 C60.3715338,167.152151 61.3515338,166.172151 61.3515338,164.968151 C61.3515338,163.764151 60.3715338,162.784151 59.1675338,162.784151 C57.9635338,162.784151 56.9835338,163.764151 56.9835338,164.968151 L56.9835338,164.968151 Z M56.9835338,173.956151 C56.9835338,175.160151 57.9635338,176.140151 59.1675338,176.140151 C60.3715338,176.140151 61.3515338,175.160151 61.3515338,173.956151 C61.3515338,172.752151 60.3715338,171.772151 59.1675338,171.772151 C57.9635338,171.772151 56.9835338,172.752151 56.9835338,173.956151 L56.9835338,173.956151 Z M76.5275338,163.512151 C74.9875338,162.924151 73.8395338,162.196151 73.8395338,160.656151 C73.8395338,159.116151 74.9595338,158.024151 76.5275338,157.828151 L76.5275338,163.512151 Z M76.5275338,173.844151 C74.0355338,173.844151 73.0275338,172.304151 71.9915338,172.304151 C71.3475338,172.304151 71.0115338,172.892151 71.0115338,173.480151 C71.0115338,174.684151 73.6715338,175.972151 76.5275338,175.972151 L76.5275338,177.288151 C76.5275338,177.624151 76.7515338,177.876151 77.1155338,177.876151 C77.4795338,177.876151 77.7035338,177.624151 77.7035338,177.288151 L77.7035338,175.860151 C81.3155338,175.412151 83.3035338,172.668151 83.3035338,169.672151 C83.3035338,165.892151 80.3075338,164.884151 77.7035338,163.960151 L77.7035338,157.828151 C79.5515338,158.108151 79.9435338,159.116151 80.9235338,159.116151 C81.5395338,159.116151 81.9875338,158.612151 81.9875338,158.024151 C81.9875338,156.848151 79.9435338,155.868151 77.7035338,155.700151 L77.7035338,154.384151 C77.7035338,154.048151 77.4795338,153.796151 77.1155338,153.796151 C76.7515338,153.796151 76.5275338,154.048151 76.5275338,154.384151 L76.5275338,155.700151 C73.1675338,156.008151 71.2075338,158.612151 71.2075338,160.824151 C71.2075338,164.324151 73.9795338,165.220151 76.5275338,166.088151 L76.5275338,173.844151 Z M77.7035338,166.508151 C79.3275338,167.124151 80.6715338,167.936151 80.6715338,169.784151 C80.6715338,171.772151 79.5795338,173.312151 77.7035338,173.704151 L77.7035338,166.508151 Z M84.8715338,168.356151 C84.8715338,172.304151 87.0555338,175.972151 91.5915338,175.972151 C94.1395338,175.972151 95.5115338,174.964151 95.5115338,174.040151 C95.5115338,173.368151 95.1195338,173.004151 94.5595338,173.004151 C93.7755338,173.004151 93.3275338,173.844151 91.5915338,173.844151 C88.5395338,173.844151 87.3355338,170.876151 87.3355338,168.356151 C87.3355338,165.836151 88.5395338,162.868151 91.5915338,162.868151 C93.2715338,162.868151 93.6355338,163.652151 94.5875338,163.652151 C95.1755338,163.652151 95.5955338,163.120151 95.5955338,162.616151 C95.5955338,161.608151 94.1115338,160.740151 91.5915338,160.740151 C87.0555338,160.740151 84.8715338,164.408151 84.8715338,168.356151 L84.8715338,168.356151 Z M97.3035338,168.356151 C97.3035338,172.304151 99.6555338,175.972151 103.855534,175.972151 C108.055534,175.972151 110.407534,172.304151 110.407534,168.356151 C110.407534,164.408151 108.055534,160.740151 103.855534,160.740151 C99.6555338,160.740151 97.3035338,164.408151 97.3035338,168.356151 L97.3035338,168.356151 Z M99.7675338,168.356151 C99.7675338,165.836151 100.831534,162.868151 103.855534,162.868151 C106.879534,162.868151 107.943534,165.836151 107.943534,168.356151 C107.943534,170.876151 106.879534,173.844151 103.855534,173.844151 C100.831534,173.844151 99.7675338,170.876151 99.7675338,168.356151 L99.7675338,168.356151 Z M115.475534,155.504151 C115.475534,154.692151 114.999534,154.188151 114.243534,154.188151 C113.487534,154.188151 113.011534,154.692151 113.011534,155.504151 L113.011534,174.656151 C113.011534,175.468151 113.487534,175.972151 114.243534,175.972151 C114.999534,175.972151 115.475534,175.468151 115.475534,174.656151 L115.475534,155.504151 Z M118.079534,168.356151 C118.079534,172.304151 120.431534,175.972151 124.631534,175.972151 C128.831534,175.972151 131.183534,172.304151 131.183534,168.356151 C131.183534,164.408151 128.831534,160.740151 124.631534,160.740151 C120.431534,160.740151 118.079534,164.408151 118.079534,168.356151 L118.079534,168.356151 Z M120.543534,168.356151 C120.543534,165.836151 121.607534,162.868151 124.631534,162.868151 C127.655534,162.868151 128.719534,165.836151 128.719534,168.356151 C128.719534,170.876151 127.655534,173.844151 124.631534,173.844151 C121.607534,173.844151 120.543534,170.876151 120.543534,168.356151 L120.543534,168.356151 Z M133.787534,174.656151 C133.787534,175.468151 134.263534,175.972151 135.019534,175.972151 C135.775534,175.972151 136.251534,175.468151 136.251534,174.656151 L136.251534,167.572151 C136.251534,164.688151 138.043534,163.596151 139.499534,163.344151 C140.535534,163.148151 141.039534,162.700151 141.039534,162.000151 C141.039534,161.300151 140.535534,160.740151 139.667534,160.740151 C138.239534,160.740151 136.867534,162.168151 136.307534,163.316151 L136.251534,163.316151 L136.251534,162.056151 C136.251534,161.244151 135.775534,160.740151 135.019534,160.740151 C134.263534,160.740151 133.787534,161.244151 133.787534,162.056151 L133.787534,174.656151 Z M148.795534,169.364151 C149.383534,169.364151 149.859534,168.888151 149.859534,168.300151 C149.859534,167.712151 149.383534,167.236151 148.795534,167.236151 L143.027534,167.236151 C142.439534,167.236151 141.963534,167.712151 141.963534,168.300151 C141.963534,168.888151 142.439534,169.364151 143.027534,169.364151 L148.795534,169.364151 Z M151.819534,168.356151 C151.819534,172.304151 154.003534,175.972151 158.539534,175.972151 C161.087534,175.972151 162.459534,174.964151 162.459534,174.040151 C162.459534,173.368151 162.067534,173.004151 161.507534,173.004151 C160.723534,173.004151 160.275534,173.844151 158.539534,173.844151 C155.487534,173.844151 154.283534,170.876151 154.283534,168.356151 C154.283534,165.836151 155.487534,162.868151 158.539534,162.868151 C160.219534,162.868151 160.583534,163.652151 161.535534,163.652151 C162.123534,163.652151 162.543534,163.120151 162.543534,162.616151 C162.543534,161.608151 161.059534,160.740151 158.539534,160.740151 C154.003534,160.740151 151.819534,164.408151 151.819534,168.356151 L151.819534,168.356151 Z M174.247534,174.656151 C174.247534,175.468151 174.723534,175.972151 175.479534,175.972151 C176.235534,175.972151 176.711534,175.468151 176.711534,174.656151 L176.711534,166.396151 C176.711534,162.196151 173.827534,160.740151 171.531534,160.740151 C170.047534,160.740151 168.507534,161.300151 167.415534,162.700151 L167.359534,162.644151 L167.359534,155.504151 C167.359534,154.692151 166.883534,154.188151 166.127534,154.188151 C165.371534,154.188151 164.895534,154.692151 164.895534,155.504151 L164.895534,174.656151 C164.895534,175.468151 165.371534,175.972151 166.127534,175.972151 C166.883534,175.972151 167.359534,175.468151 167.359534,174.656151 L167.359534,166.536151 C167.359534,163.932151 169.179534,162.868151 170.803534,162.868151 C172.427534,162.868151 174.247534,163.932151 174.247534,166.536151 L174.247534,174.656151 Z M192.279534,161.944151 C192.279534,161.076151 191.607534,160.740151 191.131534,160.740151 C190.627534,160.740151 189.983534,161.076151 189.983534,161.944151 L189.983534,162.728151 L189.927534,162.728151 C188.779534,161.468151 187.575534,160.740151 185.867534,160.740151 C181.667534,160.740151 179.315534,164.408151 179.315534,168.356151 C179.315534,172.304151 181.667534,175.972151 185.867534,175.972151 C187.463534,175.972151 188.863534,175.244151 189.927534,173.732151 L189.983534,173.732151 L189.983534,174.768151 C189.983534,175.636151 190.627534,175.972151 191.131534,175.972151 C191.607534,175.972151 192.279534,175.636151 192.279534,174.768151 L192.279534,161.944151 Z M181.779534,168.356151 C181.779534,165.836151 182.843534,162.868151 185.867534,162.868151 C188.891534,162.868151 189.955534,165.836151 189.955534,168.356151 C189.955534,170.876151 188.891534,173.844151 185.867534,173.844151 C182.843534,173.844151 181.779534,170.876151 181.779534,168.356151 L181.779534,168.356151 Z M195.527534,174.656151 C195.527534,175.468151 196.003534,175.972151 196.759534,175.972151 C197.515534,175.972151 197.991534,175.468151 197.991534,174.656151 L197.991534,167.572151 C197.991534,164.688151 199.783534,163.596151 201.239534,163.344151 C202.275534,163.148151 202.779534,162.700151 202.779534,162.000151 C202.779534,161.300151 202.275534,160.740151 201.407534,160.740151 C199.979534,160.740151 198.607534,162.168151 198.047534,163.316151 L197.991534,163.316151 L197.991534,162.056151 C197.991534,161.244151 197.515534,160.740151 196.759534,160.740151 C196.003534,160.740151 195.527534,161.244151 195.527534,162.056151 L195.527534,174.656151 Z M203.703534,168.356151 C203.703534,172.304151 205.887534,175.972151 210.423534,175.972151 C212.971534,175.972151 214.343534,174.964151 214.343534,174.040151 C214.343534,173.368151 213.951534,173.004151 213.391534,173.004151 C212.607534,173.004151 212.159534,173.844151 210.423534,173.844151 C207.371534,173.844151 206.167534,170.876151 206.167534,168.356151 C206.167534,165.836151 207.371534,162.868151 210.423534,162.868151 C212.103534,162.868151 212.467534,163.652151 213.419534,163.652151 C214.007534,163.652151 214.427534,163.120151 214.427534,162.616151 C214.427534,161.608151 212.943534,160.740151 210.423534,160.740151 C205.887534,160.740151 203.703534,164.408151 203.703534,168.356151 L203.703534,168.356151 Z M216.135534,168.356151 C216.135534,172.304151 218.487534,175.972151 222.687534,175.972151 C226.887534,175.972151 229.239534,172.304151 229.239534,168.356151 C229.239534,164.408151 226.887534,160.740151 222.687534,160.740151 C218.487534,160.740151 216.135534,164.408151 216.135534,168.356151 L216.135534,168.356151 Z M218.599534,168.356151 C218.599534,165.836151 219.663534,162.868151 222.687534,162.868151 C225.711534,162.868151 226.775534,165.836151 226.775534,168.356151 C226.775534,170.876151 225.711534,173.844151 222.687534,173.844151 C219.663534,173.844151 218.599534,170.876151 218.599534,168.356151 L218.599534,168.356151 Z M244.163534,161.944151 C244.163534,161.076151 243.491534,160.740151 243.015534,160.740151 C242.511534,160.740151 241.867534,161.076151 241.867534,161.944151 L241.867534,162.728151 L241.811534,162.728151 C240.663534,161.468151 239.459534,160.740151 237.751534,160.740151 C233.551534,160.740151 231.199534,164.408151 231.199534,168.356151 C231.199534,172.304151 233.551534,175.972151 237.751534,175.972151 C239.347534,175.972151 240.747534,175.244151 241.811534,173.732151 L241.867534,173.732151 L241.867534,174.768151 C241.867534,175.636151 242.511534,175.972151 243.015534,175.972151 C243.491534,175.972151 244.163534,175.636151 244.163534,174.768151 L244.163534,161.944151 Z M233.663534,168.356151 C233.663534,165.836151 234.727534,162.868151 237.751534,162.868151 C240.775534,162.868151 241.839534,165.836151 241.839534,168.356151 C241.839534,170.876151 240.775534,173.844151 237.751534,173.844151 C234.727534,173.844151 233.663534,170.876151 233.663534,168.356151 L233.663534,168.356151 Z M249.875534,155.504151 C249.875534,154.692151 249.399534,154.188151 248.643534,154.188151 C247.887534,154.188151 247.411534,154.692151 247.411534,155.504151 L247.411534,174.656151 C247.411534,175.468151 247.887534,175.972151 248.643534,175.972151 C249.399534,175.972151 249.875534,175.468151 249.875534,174.656151 L249.875534,155.504151 Z" id="Sass:-$color-charcoa" transform="translate(126.241534, 165.836151) rotate(-10.000000) translate(-126.241534, -165.836151) "></path>
            </g>
        </g>
    </g>
</svg>