<?xml version="1.0" encoding="UTF-8" standalone="no"?>
<svg width="24px" height="28px" viewBox="0 0 24 28" version="1.1" xmlns="http://www.w3.org/2000/svg" xmlns:xlink="http://www.w3.org/1999/xlink">
    <!-- Generator: Sketch 39.1 (31720) - http://www.bohemiancoding.com/sketch -->
    <title>11-icon-calculator</title>
    <desc>Created with Sketch.</desc>
    <defs></defs>
    <g id="1" stroke="none" stroke-width="1" fill="none" fill-rule="evenodd">
        <g id="19-life-insurance-large" transform="translate(-959.000000, -1221.000000)">
            <g id="11-icon-calculator" transform="translate(959.000000, 1221.000000)">
                <g id="Group" transform="translate(0.340000, 0.800000)">
                    <path d="M23.3654477,3.3275 C23.3654477,1.48988812 21.8746366,0 20.0358862,0 L3.38807857,0 C1.54932822,0 0.0585170438,1.48988812 0.0585170438,3.3275 L0.0585170438,23.2925 C0.0585170438,25.1301119 1.54932822,26.62 3.38807857,26.62 L20.0358862,26.62 C21.8746366,26.62 23.3654477,25.1301119 23.3654477,23.2925 L23.3654477,3.3275 Z" id="Fill-2390" fill="#0299DA"></path>
                    <path d="M6.30144491,18.7690965 C6.30144491,18.9704103 6.13829639,19.1330418 5.93727412,19.1330418 L3.75224936,19.1330418 C3.55122709,19.1330418 3.38807857,18.9704103 3.38807857,18.7690965 L3.38807857,16.5854246 C3.38807857,16.3845268 3.55122709,16.2214793 3.75224936,16.2214793 L5.93727412,16.2214793 C6.13829639,16.2214793 6.30144491,16.3845268 6.30144491,16.5854246 L6.30144491,18.7690965 Z" id="Fill-2391" fill="#7FCFEE"></path>
                    <path d="M6.30144491,23.7603465 C6.30144491,23.9616602 6.13829639,24.1242918 5.93727412,24.1242918 L3.75224936,24.1242918 C3.55122709,24.1242918 3.38807857,23.9616602 3.38807857,23.7603465 L3.38807857,21.5766746 C3.38807857,21.3757768 3.55122709,21.2127293 3.75224936,21.2127293 L5.93727412,21.2127293 C6.13829639,21.2127293 6.30144491,21.3757768 6.30144491,21.5766746 L6.30144491,23.7603465 Z" id="Fill-2392" fill="#7FCFEE"></path>
                    <path d="M10.879592,13.7778465 C10.879592,13.9791603 10.7164435,14.1417918 10.5154212,14.1417918 L8.33039646,14.1417918 C8.12937419,14.1417918 7.96622567,13.9791603 7.96622567,13.7778465 L7.96622567,11.5941746 C7.96622567,11.3932768 8.12937419,11.2302293 8.33039646,11.2302293 L10.5154212,11.2302293 C10.7164435,11.2302293 10.879592,11.3932768 10.879592,11.5941746 L10.879592,13.7778465 Z" id="Fill-2393" fill="#7FCFEE"></path>
                    <path d="M10.879592,18.7690965 C10.879592,18.9704103 10.7164435,19.1330418 10.5154212,19.1330418 L8.33039646,19.1330418 C8.12937419,19.1330418 7.96622567,18.9704103 7.96622567,18.7690965 L7.96622567,16.5854246 C7.96622567,16.3845268 8.12937419,16.2214793 8.33039646,16.2214793 L10.5154212,16.2214793 C10.7164435,16.2214793 10.879592,16.3845268 10.879592,16.5854246 L10.879592,18.7690965 Z" id="Fill-2394" fill="#81D2EB"></path>
                    <path d="M10.879592,23.7603465 C10.879592,23.9616602 10.7164435,24.1242918 10.5154212,24.1242918 L8.33039646,24.1242918 C8.12937419,24.1242918 7.96622567,23.9616602 7.96622567,23.7603465 L7.96622567,21.5766746 C7.96622567,21.3757768 8.12937419,21.2127293 8.33039646,21.2127293 L10.5154212,21.2127293 C10.7164435,21.2127293 10.879592,21.3757768 10.879592,21.5766746 L10.879592,23.7603465 Z" id="Fill-2395" fill="#7FCFEE"></path>
                    <path d="M15.4577391,13.7778465 C15.4577391,13.9791603 15.2945906,14.1417918 15.0935683,14.1417918 L12.9085436,14.1417918 C12.7075213,14.1417918 12.5443728,13.9791603 12.5443728,13.7778465 L12.5443728,11.5941746 C12.5443728,11.3932768 12.7075213,11.2302293 12.9085436,11.2302293 L15.0935683,11.2302293 C15.2945906,11.2302293 15.4577391,11.3932768 15.4577391,11.5941746 L15.4577391,13.7778465 Z" id="Fill-2396" fill="#7FCFEE"></path>
                    <path d="M20.0358862,13.7778465 C20.0358862,13.9791603 19.8727377,14.1417918 19.6717154,14.1417918 L17.4866907,14.1417918 C17.2856684,14.1417918 17.1225199,13.9791603 17.1225199,13.7778465 L17.1225199,11.5941746 C17.1225199,11.3932768 17.2856684,11.2302293 17.4866907,11.2302293 L19.6717154,11.2302293 C19.8727377,11.2302293 20.0358862,11.3932768 20.0358862,11.5941746 L20.0358862,13.7778465 Z" id="Fill-2397" fill="#FFED00"></path>
                    <path d="M15.4577391,18.7690965 C15.4577391,18.9704103 15.2945906,19.1330418 15.0935683,19.1330418 L12.9085436,19.1330418 C12.7075213,19.1330418 12.5443728,18.9704103 12.5443728,18.7690965 L12.5443728,16.5854246 C12.5443728,16.3845268 12.7075213,16.2214793 12.9085436,16.2214793 L15.0935683,16.2214793 C15.2945906,16.2214793 15.4577391,16.3845268 15.4577391,16.5854246 L15.4577391,18.7690965 Z" id="Fill-2398" fill="#81D2EB"></path>
                    <path d="M15.4577391,23.7603465 C15.4577391,23.9616602 15.2945906,24.1242918 15.0935683,24.1242918 L12.9085436,24.1242918 C12.7075213,24.1242918 12.5443728,23.9616602 12.5443728,23.7603465 L12.5443728,21.5766746 C12.5443728,21.3757768 12.7075213,21.2127293 12.9085436,21.2127293 L15.0935683,21.2127293 C15.2945906,21.2127293 15.4577391,21.3757768 15.4577391,21.5766746 L15.4577391,23.7603465 Z" id="Fill-2399" fill="#7FCFEE"></path>
                    <path d="M20.0358862,23.7603465 C20.0358862,23.9616602 19.8727377,24.1242918 19.6717154,24.1242918 L17.4866907,24.1242918 C17.2856684,24.1242918 17.1225199,23.9616602 17.1225199,23.7603465 L17.1225199,16.6374168 C17.1225199,16.436519 17.2856684,16.2734715 17.4866907,16.2734715 L19.6717154,16.2734715 C19.8727377,16.2734715 20.0358862,16.436519 20.0358862,16.6374168 L20.0358862,23.7603465 Z" id="Fill-2400" fill="#1C6C8C"></path>
                    <path d="M6.30144491,13.7778465 C6.30144491,13.9791603 6.13829639,14.1417918 5.93727412,14.1417918 L3.75224936,14.1417918 C3.55122709,14.1417918 3.38807857,13.9791603 3.38807857,13.7778465 L3.38807857,11.5941746 C3.38807857,11.3932768 3.55122709,11.2302293 3.75224936,11.2302293 L5.93727412,11.2302293 C6.13829639,11.2302293 6.30144491,11.3932768 6.30144491,11.5941746 L6.30144491,13.7778465 Z" id="Fill-2401" fill="#7FCFEE"></path>
                    <path d="M20.0358862,4.159375 L20.0358862,7.486875 C20.0358862,8.40609688 19.2908968,9.150625 18.3711054,9.150625 L5.05285934,9.150625 C4.13306796,9.150625 3.38807857,8.40609688 3.38807857,7.486875 L3.38807857,4.159375 C3.38807857,3.24015313 4.13306796,2.495625 5.05285934,2.495625 L18.3711054,2.495625 C19.2908968,2.495625 20.0358862,3.24015313 20.0358862,4.159375" id="Fill-2402" fill="#7FCFEE"></path>
                    <path d="M5.05285934,2.495625 C4.13306796,2.495625 3.38807857,3.24015313 3.38807857,4.159375 L3.38807857,7.486875 C3.38807857,8.40609688 4.13306796,9.150625 5.05285934,9.150625 L8.45483883,9.150625 L15.1139619,2.495625 L5.05285934,2.495625 Z" id="Fill-2403" fill="#F2F9F6"></path>
                </g>
            </g>
        </g>
    </g>
</svg>