<?xml version="1.0" encoding="utf-8"?>
<!-- Generator: Adobe Illustrator 20.0.0, SVG Export Plug-In . SVG Version: 6.00 Build 0)  -->
<svg version="1.1" id="Layer_1" xmlns="http://www.w3.org/2000/svg" xmlns:xlink="http://www.w3.org/1999/xlink" x="0px" y="0px"
	 viewBox="0 0 24 29" style="enable-background:new 0 0 24 29;" xml:space="preserve">
<style type="text/css">
	.st0{fill:#C6CDD2;}
	.st1{fill:#8E9AAD;}
	.st2{fill:#1D3661;}
	.st3{fill:#FFFFFF;stroke:#86786F;}
	.st4{fill:#86786F;}
</style>
<title>11-icon-library</title>
<desc>Created with Sketch.</desc>
<g id="_x31_">
	<g id="_x31_9-life-insurance-large" transform="translate(-959.000000, -1096.000000)">
		<g id="_x31_1-icon-library" transform="translate(960.000000, 1097.000000)">
			<g id="Group-6">
				<g id="Group" transform="translate(0.078571, 0.308571)">
					<path id="Fill-7961" class="st0" d="M16.1,0H1C0.5,0,0.1,0.4,0.1,0.9v25.7h21.4V5.2L16.1,0z"/>
					<polygon id="Fill-7962" class="st1" points="16.1,0 16.1,5.2 21.5,5.2 					"/>
					<path id="Fill-7963" class="st2" d="M12.6,6.5c0,0.2-0.2,0.4-0.4,0.4h-8C3.9,7,3.7,6.8,3.7,6.5s0.2-0.4,0.4-0.4h8
						C12.4,6.1,12.6,6.3,12.6,6.5"/>
					<path id="Fill-7964" class="st2" d="M17.9,10c0,0.2-0.2,0.4-0.4,0.4H4.1c-0.2,0-0.4-0.2-0.4-0.4s0.2-0.4,0.4-0.4h13.4
						C17.7,9.6,17.9,9.8,17.9,10"/>
					<path id="Fill-7965" class="st2" d="M17.9,13.5c0,0.2-0.2,0.4-0.4,0.4H4.1c-0.2,0-0.4-0.2-0.4-0.4s0.2-0.4,0.4-0.4h13.4
						C17.7,13.1,17.9,13.3,17.9,13.5"/>
					<path id="Fill-7966" class="st2" d="M17.9,17c0,0.2-0.2,0.4-0.4,0.4H4.1c-0.2,0-0.4-0.2-0.4-0.4c0-0.2,0.2-0.4,0.4-0.4h13.4
						C17.7,16.6,17.9,16.8,17.9,17"/>
					<path id="Fill-7969" class="st2" d="M12.2,19.9l0.8,2.8c0.1,0.3-0.2,0.5-0.4,0.4l-2.8-0.8c0.2-0.6,0.5-1.1,0.9-1.5
						C11.1,20.4,11.6,20.1,12.2,19.9"/>
				</g>
				<path id="Fill-7961_1_" class="st3" d="M16.2,0.3H1.1c-0.5,0-0.9,0.4-0.9,0.9v25.7h21.4V5.5L16.2,0.3z"/>
				<polygon id="Fill-7962_1_" class="st4" points="16.2,0.3 16.2,5.5 21.6,5.5 				"/>
				<path id="Fill-7963_1_" class="st4" d="M12.7,6.9c0,0.2-0.2,0.4-0.4,0.4h-8C4,7.3,3.8,7.1,3.8,6.9S4,6.4,4.2,6.4h8
					C12.5,6.4,12.7,6.6,12.7,6.9"/>
				<path id="Fill-7964_1_" class="st4" d="M18,10.3c0,0.2-0.2,0.4-0.4,0.4H4.2c-0.2,0-0.4-0.2-0.4-0.4S4,9.9,4.2,9.9h13.4
					C17.8,9.9,18,10.1,18,10.3"/>
				<path id="Fill-7965_1_" class="st4" d="M18,13.8c0,0.2-0.2,0.4-0.4,0.4H4.2c-0.2,0-0.4-0.2-0.4-0.4s0.2-0.4,0.4-0.4h13.4
					C17.8,13.4,18,13.6,18,13.8"/>
				<path id="Fill-7966_1_" class="st4" d="M18,17.3c0,0.2-0.2,0.4-0.4,0.4H4.2c-0.2,0-0.4-0.2-0.4-0.4s0.2-0.4,0.4-0.4h13.4
					C17.8,16.9,18,17.1,18,17.3"/>
			</g>
		</g>
	</g>
</g>
</svg>
