<?xml version="1.0" encoding="UTF-8" standalone="no"?>
<svg width="728px" height="103px" viewBox="0 0 728 103" version="1.1" xmlns="http://www.w3.org/2000/svg" xmlns:xlink="http://www.w3.org/1999/xlink">
    <!-- Generator: Sketch 39.1 (31720) - http://www.bohemiancoding.com/sketch -->
    <title>12-advertising-reverse</title>
    <desc>Created with Sketch.</desc>
    <defs>
        <linearGradient x1="50%" y1="25.200182%" x2="50%" y2="68.2533688%" id="linearGradient-1">
            <stop stop-color="#86AC1B" offset="0%"></stop>
            <stop stop-color="#738F22" offset="100%"></stop>
        </linearGradient>
        <rect id="path-2" x="0" y="0" width="159.930847" height="42.7083333" rx="16"></rect>
        <filter x="-50%" y="-50%" width="200%" height="200%" filterUnits="objectBoundingBox" id="filter-3">
            <feMorphology radius="7" operator="dilate" in="SourceAlpha" result="shadowSpreadOuter1"></feMorphology>
            <feOffset dx="0" dy="0" in="shadowSpreadOuter1" result="shadowOffsetOuter1"></feOffset>
            <feComposite in="shadowOffsetOuter1" in2="SourceAlpha" operator="out" result="shadowOffsetOuter1"></feComposite>
            <feColorMatrix values="0 0 0 0 0.949019608   0 0 0 0 0.949019608   0 0 0 0 0.956862745  0 0 0 0.25 0" type="matrix" in="shadowOffsetOuter1"></feColorMatrix>
        </filter>
        <mask id="mask-4" maskContentUnits="userSpaceOnUse" maskUnits="objectBoundingBox" x="-4.5" y="-4.5" width="168.930847" height="51.7083333">
            <rect x="-4.5" y="-4.5" width="168.930847" height="51.7083333" fill="white"></rect>
            <use xlink:href="#path-2" fill="black"></use>
        </mask>
    </defs>
    <g id="Templates" stroke="none" stroke-width="1" fill="none" fill-rule="evenodd">
        <g id="12-buttons" transform="translate(-681.000000, -3441.000000)">
            <g id="12-advertising-reverse" transform="translate(681.000000, 3442.000000)">
                <rect id="Rectangle" fill="#009FE4" x="0" y="5" width="728" height="90"></rect>
                <g id="Group-7" transform="translate(376.000000, 29.000000)">
                    <g id="Rectangle-1">
                        <use fill="black" fill-opacity="1" filter="url(#filter-3)" xlink:href="#path-2"></use>
                        <use fill="url(#linearGradient-1)" fill-rule="evenodd" xlink:href="#path-2"></use>
                        <use stroke="#607328" mask="url(#mask-4)" stroke-width="9" xlink:href="#path-2"></use>
                        <use stroke="#A5C155" stroke-width="3" xlink:href="#path-2"></use>
                    </g>
                    <path d="M34.7314235,20.8185556 C33.9334235,20.8185556 33.2614235,21.3645556 33.2614235,22.2465556 C33.2614235,23.1075556 33.8704235,23.7165556 34.7314235,23.7165556 L36.8734235,23.7165556 C36.8734235,26.1105556 34.9624235,27.0345556 33.3034235,27.0345556 C30.6364235,27.0345556 29.3554235,24.7665556 29.3554235,22.2045556 C29.3554235,19.6635556 30.6784235,17.3745556 33.3034235,17.3745556 C36.0544235,17.3745556 36.3484235,18.9075556 37.7764235,18.9075556 C38.5114235,18.9075556 39.0784235,18.3405556 39.0784235,17.4375556 C39.0784235,15.9675556 36.4744235,14.4765556 33.3034235,14.4765556 C29.0194235,14.4765556 26.0794235,17.8365556 26.0794235,22.2045556 C26.0794235,26.5515556 29.0404235,29.9325556 33.3034235,29.9325556 C37.5034235,29.9325556 40.1494235,26.8875556 40.1494235,22.8345556 C40.1494235,21.4905556 39.6244235,20.8185556 38.3014235,20.8185556 L34.7314235,20.8185556 Z M50.2504235,25.1025556 C51.1744235,25.1025556 51.5734235,24.6615556 51.5734235,23.7585556 C51.5734235,21.2385556 49.4104235,18.2565556 46.1344235,18.2565556 C42.9424235,18.2565556 40.7164235,21.0495556 40.7164235,24.1155556 C40.7164235,27.4545556 42.9844235,29.9325556 46.3864235,29.9325556 C48.6334235,29.9325556 51.3214235,28.6725556 51.3214235,27.3705556 C51.3214235,26.7195556 50.7334235,26.0685556 50.0824235,26.0685556 C49.2844235,26.0685556 48.2134235,27.2865556 46.6594235,27.2865556 C45.2524235,27.2865556 44.0134235,26.5935556 43.8034235,25.1025556 L50.2504235,25.1025556 Z M43.7404235,23.0865556 C43.8874235,21.8055556 44.7904235,20.7765556 46.1344235,20.7765556 C47.5414235,20.7765556 48.3814235,21.7635556 48.5494235,23.0865556 L43.7404235,23.0865556 Z M53.3794235,28.1265556 C53.3794235,29.1345556 54.0094235,29.8065556 54.8914235,29.8065556 C55.7734235,29.8065556 56.4034235,29.1345556 56.4034235,28.1265556 L56.4034235,21.1545556 L57.2644235,21.1545556 C58.0414235,21.1545556 58.7134235,20.7765556 58.7134235,19.8315556 C58.7134235,18.8655556 58.0414235,18.5085556 57.2644235,18.5085556 L56.4034235,18.5085556 L56.4034235,16.7025556 C56.4034235,15.6945556 55.7734235,15.0225556 54.8914235,15.0225556 C54.0094235,15.0225556 53.3794235,15.6945556 53.3794235,16.7025556 L53.3794235,18.5085556 L52.7074235,18.5085556 C51.9514235,18.5085556 51.3844235,19.0755556 51.3844235,19.8315556 C51.3844235,20.6505556 51.8884235,21.1545556 52.7074235,21.1545556 L53.3794235,21.1545556 L53.3794235,28.1265556 Z M74.8204235,20.3565556 C74.8204235,19.5795556 74.8204235,18.3825556 73.3714235,18.3825556 C72.6364235,18.3825556 72.0064235,18.9075556 71.9224235,19.6425556 C71.2504235,18.6975556 70.1584235,18.2565556 69.0454235,18.2565556 C66.2734235,18.2565556 64.0474235,20.7975556 64.0474235,24.1155556 C64.0474235,27.5175556 66.2104235,29.9325556 69.0454235,29.9325556 C70.2004235,29.9325556 71.1454235,29.4495556 71.9224235,28.5255556 C72.1324235,29.3235556 72.4894235,29.8065556 73.3714235,29.8065556 C74.8204235,29.8065556 74.8204235,28.6095556 74.8204235,27.8325556 L74.8204235,20.3565556 Z M67.0714235,24.1155556 C67.0714235,22.6665556 67.8064235,21.0285556 69.4654235,21.0285556 C71.0614235,21.0285556 71.7964235,22.6665556 71.7964235,24.1155556 C71.7964235,25.5645556 71.0404235,27.1605556 69.4654235,27.1605556 C67.8274235,27.1605556 67.0714235,25.5645556 67.0714235,24.1155556 L67.0714235,24.1155556 Z M92.5024235,20.0625556 C92.5024235,19.0545556 91.8724235,18.3825556 90.9904235,18.3825556 C90.1504235,18.3825556 89.6674235,18.8445556 89.4784235,19.6425556 C88.9114235,18.7185556 87.7354235,18.2565556 86.6014235,18.2565556 C83.3464235,18.2565556 81.7294235,21.3015556 81.7294235,24.2415556 C81.7294235,27.0975556 83.6614235,29.9325556 86.7064235,29.9325556 C87.6514235,29.9325556 88.6804235,29.5755556 89.4784235,28.8825556 L89.4784235,32.5785556 C89.4784235,33.5865556 90.1084235,34.2585556 90.9904235,34.2585556 C91.8724235,34.2585556 92.5024235,33.5865556 92.5024235,32.5785556 L92.5024235,20.0625556 Z M89.4784235,24.0105556 C89.4784235,25.4805556 88.7644235,27.1605556 87.1054235,27.1605556 C85.5304235,27.1605556 84.7534235,25.5225556 84.7534235,24.1155556 C84.7534235,22.6875556 85.5304235,21.0285556 87.1054235,21.0285556 C88.7224235,21.0285556 89.4784235,22.5405556 89.4784235,24.0105556 L89.4784235,24.0105556 Z M94.2244235,25.5225556 C94.2244235,28.2105556 96.0094235,29.9325556 99.2014235,29.9325556 C102.393423,29.9325556 104.178423,28.2105556 104.178423,25.5225556 L104.178423,20.0625556 C104.178423,19.0545556 103.548423,18.3825556 102.666423,18.3825556 C101.784423,18.3825556 101.154423,19.0545556 101.154423,20.0625556 L101.154423,25.4595556 C101.154423,26.7195556 100.209423,27.4125556 99.2014235,27.4125556 C98.1934235,27.4125556 97.2484235,26.7195556 97.2484235,25.4595556 L97.2484235,20.0625556 C97.2484235,19.0545556 96.6184235,18.3825556 95.7364235,18.3825556 C94.8544235,18.3825556 94.2244235,19.0545556 94.2244235,20.0625556 L94.2244235,25.5225556 Z M110.877423,18.2565556 C107.685423,18.2565556 105.459423,21.0495556 105.459423,24.1155556 C105.459423,27.2655556 107.622423,29.9325556 110.877423,29.9325556 C114.132423,29.9325556 116.295423,27.2655556 116.295423,24.1155556 C116.295423,21.0495556 114.069423,18.2565556 110.877423,18.2565556 L110.877423,18.2565556 Z M110.877423,21.0285556 C112.536423,21.0285556 113.271423,22.6665556 113.271423,24.1155556 C113.271423,25.5645556 112.515423,27.1605556 110.877423,27.1605556 C109.239423,27.1605556 108.483423,25.5645556 108.483423,24.1155556 C108.483423,22.6665556 109.218423,21.0285556 110.877423,21.0285556 L110.877423,21.0285556 Z M118.311423,28.1265556 C118.311423,29.1345556 118.941423,29.8065556 119.823423,29.8065556 C120.705423,29.8065556 121.335423,29.1345556 121.335423,28.1265556 L121.335423,21.1545556 L122.196423,21.1545556 C122.973423,21.1545556 123.645423,20.7765556 123.645423,19.8315556 C123.645423,18.8655556 122.973423,18.5085556 122.196423,18.5085556 L121.335423,18.5085556 L121.335423,16.7025556 C121.335423,15.6945556 120.705423,15.0225556 119.823423,15.0225556 C118.941423,15.0225556 118.311423,15.6945556 118.311423,16.7025556 L118.311423,18.5085556 L117.639423,18.5085556 C116.883423,18.5085556 116.316423,19.0755556 116.316423,19.8315556 C116.316423,20.6505556 116.820423,21.1545556 117.639423,21.1545556 L118.311423,21.1545556 L118.311423,28.1265556 Z M132.675423,25.1025556 C133.599423,25.1025556 133.998423,24.6615556 133.998423,23.7585556 C133.998423,21.2385556 131.835423,18.2565556 128.559423,18.2565556 C125.367423,18.2565556 123.141423,21.0495556 123.141423,24.1155556 C123.141423,27.4545556 125.409423,29.9325556 128.811423,29.9325556 C131.058423,29.9325556 133.746423,28.6725556 133.746423,27.3705556 C133.746423,26.7195556 133.158423,26.0685556 132.507423,26.0685556 C131.709423,26.0685556 130.638423,27.2865556 129.084423,27.2865556 C127.677423,27.2865556 126.438423,26.5935556 126.228423,25.1025556 L132.675423,25.1025556 Z M126.165423,23.0865556 C126.312423,21.8055556 127.215423,20.7765556 128.559423,20.7765556 C129.966423,20.7765556 130.806423,21.7635556 130.974423,23.0865556 L126.165423,23.0865556 Z" id="Get-a-quote" fill="#607328"></path>
                    <path d="M34.7314235,18.8185556 C33.9334235,18.8185556 33.2614235,19.3645556 33.2614235,20.2465556 C33.2614235,21.1075556 33.8704235,21.7165556 34.7314235,21.7165556 L36.8734235,21.7165556 C36.8734235,24.1105556 34.9624235,25.0345556 33.3034235,25.0345556 C30.6364235,25.0345556 29.3554235,22.7665556 29.3554235,20.2045556 C29.3554235,17.6635556 30.6784235,15.3745556 33.3034235,15.3745556 C36.0544235,15.3745556 36.3484235,16.9075556 37.7764235,16.9075556 C38.5114235,16.9075556 39.0784235,16.3405556 39.0784235,15.4375556 C39.0784235,13.9675556 36.4744235,12.4765556 33.3034235,12.4765556 C29.0194235,12.4765556 26.0794235,15.8365556 26.0794235,20.2045556 C26.0794235,24.5515556 29.0404235,27.9325556 33.3034235,27.9325556 C37.5034235,27.9325556 40.1494235,24.8875556 40.1494235,20.8345556 C40.1494235,19.4905556 39.6244235,18.8185556 38.3014235,18.8185556 L34.7314235,18.8185556 Z M50.2504235,23.1025556 C51.1744235,23.1025556 51.5734235,22.6615556 51.5734235,21.7585556 C51.5734235,19.2385556 49.4104235,16.2565556 46.1344235,16.2565556 C42.9424235,16.2565556 40.7164235,19.0495556 40.7164235,22.1155556 C40.7164235,25.4545556 42.9844235,27.9325556 46.3864235,27.9325556 C48.6334235,27.9325556 51.3214235,26.6725556 51.3214235,25.3705556 C51.3214235,24.7195556 50.7334235,24.0685556 50.0824235,24.0685556 C49.2844235,24.0685556 48.2134235,25.2865556 46.6594235,25.2865556 C45.2524235,25.2865556 44.0134235,24.5935556 43.8034235,23.1025556 L50.2504235,23.1025556 Z M43.7404235,21.0865556 C43.8874235,19.8055556 44.7904235,18.7765556 46.1344235,18.7765556 C47.5414235,18.7765556 48.3814235,19.7635556 48.5494235,21.0865556 L43.7404235,21.0865556 Z M53.3794235,26.1265556 C53.3794235,27.1345556 54.0094235,27.8065556 54.8914235,27.8065556 C55.7734235,27.8065556 56.4034235,27.1345556 56.4034235,26.1265556 L56.4034235,19.1545556 L57.2644235,19.1545556 C58.0414235,19.1545556 58.7134235,18.7765556 58.7134235,17.8315556 C58.7134235,16.8655556 58.0414235,16.5085556 57.2644235,16.5085556 L56.4034235,16.5085556 L56.4034235,14.7025556 C56.4034235,13.6945556 55.7734235,13.0225556 54.8914235,13.0225556 C54.0094235,13.0225556 53.3794235,13.6945556 53.3794235,14.7025556 L53.3794235,16.5085556 L52.7074235,16.5085556 C51.9514235,16.5085556 51.3844235,17.0755556 51.3844235,17.8315556 C51.3844235,18.6505556 51.8884235,19.1545556 52.7074235,19.1545556 L53.3794235,19.1545556 L53.3794235,26.1265556 Z M74.8204235,18.3565556 C74.8204235,17.5795556 74.8204235,16.3825556 73.3714235,16.3825556 C72.6364235,16.3825556 72.0064235,16.9075556 71.9224235,17.6425556 C71.2504235,16.6975556 70.1584235,16.2565556 69.0454235,16.2565556 C66.2734235,16.2565556 64.0474235,18.7975556 64.0474235,22.1155556 C64.0474235,25.5175556 66.2104235,27.9325556 69.0454235,27.9325556 C70.2004235,27.9325556 71.1454235,27.4495556 71.9224235,26.5255556 C72.1324235,27.3235556 72.4894235,27.8065556 73.3714235,27.8065556 C74.8204235,27.8065556 74.8204235,26.6095556 74.8204235,25.8325556 L74.8204235,18.3565556 Z M67.0714235,22.1155556 C67.0714235,20.6665556 67.8064235,19.0285556 69.4654235,19.0285556 C71.0614235,19.0285556 71.7964235,20.6665556 71.7964235,22.1155556 C71.7964235,23.5645556 71.0404235,25.1605556 69.4654235,25.1605556 C67.8274235,25.1605556 67.0714235,23.5645556 67.0714235,22.1155556 L67.0714235,22.1155556 Z M92.5024235,18.0625556 C92.5024235,17.0545556 91.8724235,16.3825556 90.9904235,16.3825556 C90.1504235,16.3825556 89.6674235,16.8445556 89.4784235,17.6425556 C88.9114235,16.7185556 87.7354235,16.2565556 86.6014235,16.2565556 C83.3464235,16.2565556 81.7294235,19.3015556 81.7294235,22.2415556 C81.7294235,25.0975556 83.6614235,27.9325556 86.7064235,27.9325556 C87.6514235,27.9325556 88.6804235,27.5755556 89.4784235,26.8825556 L89.4784235,30.5785556 C89.4784235,31.5865556 90.1084235,32.2585556 90.9904235,32.2585556 C91.8724235,32.2585556 92.5024235,31.5865556 92.5024235,30.5785556 L92.5024235,18.0625556 Z M89.4784235,22.0105556 C89.4784235,23.4805556 88.7644235,25.1605556 87.1054235,25.1605556 C85.5304235,25.1605556 84.7534235,23.5225556 84.7534235,22.1155556 C84.7534235,20.6875556 85.5304235,19.0285556 87.1054235,19.0285556 C88.7224235,19.0285556 89.4784235,20.5405556 89.4784235,22.0105556 L89.4784235,22.0105556 Z M94.2244235,23.5225556 C94.2244235,26.2105556 96.0094235,27.9325556 99.2014235,27.9325556 C102.393423,27.9325556 104.178423,26.2105556 104.178423,23.5225556 L104.178423,18.0625556 C104.178423,17.0545556 103.548423,16.3825556 102.666423,16.3825556 C101.784423,16.3825556 101.154423,17.0545556 101.154423,18.0625556 L101.154423,23.4595556 C101.154423,24.7195556 100.209423,25.4125556 99.2014235,25.4125556 C98.1934235,25.4125556 97.2484235,24.7195556 97.2484235,23.4595556 L97.2484235,18.0625556 C97.2484235,17.0545556 96.6184235,16.3825556 95.7364235,16.3825556 C94.8544235,16.3825556 94.2244235,17.0545556 94.2244235,18.0625556 L94.2244235,23.5225556 Z M110.877423,16.2565556 C107.685423,16.2565556 105.459423,19.0495556 105.459423,22.1155556 C105.459423,25.2655556 107.622423,27.9325556 110.877423,27.9325556 C114.132423,27.9325556 116.295423,25.2655556 116.295423,22.1155556 C116.295423,19.0495556 114.069423,16.2565556 110.877423,16.2565556 L110.877423,16.2565556 Z M110.877423,19.0285556 C112.536423,19.0285556 113.271423,20.6665556 113.271423,22.1155556 C113.271423,23.5645556 112.515423,25.1605556 110.877423,25.1605556 C109.239423,25.1605556 108.483423,23.5645556 108.483423,22.1155556 C108.483423,20.6665556 109.218423,19.0285556 110.877423,19.0285556 L110.877423,19.0285556 Z M118.311423,26.1265556 C118.311423,27.1345556 118.941423,27.8065556 119.823423,27.8065556 C120.705423,27.8065556 121.335423,27.1345556 121.335423,26.1265556 L121.335423,19.1545556 L122.196423,19.1545556 C122.973423,19.1545556 123.645423,18.7765556 123.645423,17.8315556 C123.645423,16.8655556 122.973423,16.5085556 122.196423,16.5085556 L121.335423,16.5085556 L121.335423,14.7025556 C121.335423,13.6945556 120.705423,13.0225556 119.823423,13.0225556 C118.941423,13.0225556 118.311423,13.6945556 118.311423,14.7025556 L118.311423,16.5085556 L117.639423,16.5085556 C116.883423,16.5085556 116.316423,17.0755556 116.316423,17.8315556 C116.316423,18.6505556 116.820423,19.1545556 117.639423,19.1545556 L118.311423,19.1545556 L118.311423,26.1265556 Z M132.675423,23.1025556 C133.599423,23.1025556 133.998423,22.6615556 133.998423,21.7585556 C133.998423,19.2385556 131.835423,16.2565556 128.559423,16.2565556 C125.367423,16.2565556 123.141423,19.0495556 123.141423,22.1155556 C123.141423,25.4545556 125.409423,27.9325556 128.811423,27.9325556 C131.058423,27.9325556 133.746423,26.6725556 133.746423,25.3705556 C133.746423,24.7195556 133.158423,24.0685556 132.507423,24.0685556 C131.709423,24.0685556 130.638423,25.2865556 129.084423,25.2865556 C127.677423,25.2865556 126.438423,24.5935556 126.228423,23.1025556 L132.675423,23.1025556 Z M126.165423,21.0865556 C126.312423,19.8055556 127.215423,18.7765556 128.559423,18.7765556 C129.966423,18.7765556 130.806423,19.7635556 130.974423,21.0865556 L126.165423,21.0865556 Z" id="Get-a-quote" fill="#FFFFFF"></path>
                </g>
                <path d="M547,0.5 L547,100.5" id="Line" stroke="#79C8EB" stroke-width="2" stroke-linecap="square" stroke-dasharray="8,8,8,8"></path>
                <path d="M364,0.5 L364,100.5" id="Line" stroke="#79C8EB" stroke-width="2" stroke-linecap="square" stroke-dasharray="8,8,8,8"></path>
                <path d="M182,0.5 L182,100.5" id="Line" stroke="#79C8EB" stroke-width="2" stroke-linecap="square" stroke-dasharray="8,8,8,8"></path>
            </g>
        </g>
    </g>
</svg>