<?xml version="1.0" encoding="UTF-8" standalone="no"?>
<svg width="160px" height="162px" viewBox="0 0 160 162" version="1.1" xmlns="http://www.w3.org/2000/svg" xmlns:xlink="http://www.w3.org/1999/xlink">
    <!-- Generator: Sketch 39.1 (31720) - http://www.bohemiancoding.com/sketch -->
    <title>bubble-base-colour-ketchup</title>
    <desc>Created with Sketch.</desc>
    <defs></defs>
    <g id="Templates" stroke="none" stroke-width="1" fill="none" fill-rule="evenodd">
        <g id="13-bubbles-(2)" transform="translate(-1029.000000, -1478.000000)">
            <g id="bubble-base-colour-ketchup" transform="translate(1029.000000, 1478.000000)">
                <path d="M58,116 L139.998895,116 C151.054862,116 160,107.042503 160,95.9928696 L160,20.0071304 C160,8.95770226 151.0452,0 139.998895,0 L0,0 L0,115 L0,147.999395 C0,162.360254 8.23316635,165.766834 18.3892917,155.610708 L58,116 Z" id="Combined-Shape" fill="#DE2927"></path>
                <path d="M2.132,67.152 C2.132,69.648 3.692,71.312 5.876,71.312 C8.06,71.312 9.62,69.648 9.62,67.152 L9.62,54.1 C9.62,51.188 11.336,48.952 14.404,48.952 C17.108,48.952 19.292,50.616 19.292,54.1 L19.292,67.152 C19.292,69.648 20.852,71.312 23.036,71.312 C25.22,71.312 26.78,69.648 26.78,67.152 L26.78,52.8 C26.78,46.456 22.412,42.712 16.536,42.712 C14.196,42.712 11.284,43.388 9.724,45.312 L9.62,45.312 L9.62,35.12 C9.62,32.624 8.06,30.96 5.876,30.96 C3.692,30.96 2.132,32.624 2.132,35.12 L2.132,67.152 Z M63.804,48.12 C63.804,44.428 58.136,42.712 54.444,42.712 C48.516,42.712 44.304,46.248 44.304,51.448 C44.304,60.028 57.304,59.508 57.304,62.94 C57.304,64.344 56.628,65.072 54.34,65.072 C50.804,65.072 49.504,62.524 46.592,62.524 C44.512,62.524 43.368,64.708 43.368,65.852 C43.368,69.232 49.608,71.624 53.82,71.624 C60.268,71.624 64.48,67.828 64.48,62.836 C64.48,54.308 51.48,54.828 51.48,51.344 C51.48,49.888 52.676,49.264 54.028,49.264 C56.472,49.264 59.332,51.448 60.736,51.448 C62.504,51.448 63.804,49.836 63.804,48.12 L63.804,48.12 Z M67.132,60.704 C67.132,67.36 71.552,71.624 79.456,71.624 C87.36,71.624 91.78,67.36 91.78,60.704 L91.78,47.184 C91.78,44.688 90.22,43.024 88.036,43.024 C85.852,43.024 84.292,44.688 84.292,47.184 L84.292,60.548 C84.292,63.668 81.952,65.384 79.456,65.384 C76.96,65.384 74.62,63.668 74.62,60.548 L74.62,47.184 C74.62,44.688 73.06,43.024 70.876,43.024 C68.692,43.024 67.132,44.688 67.132,47.184 L67.132,60.704 Z M96.044,67.152 C96.044,69.648 97.604,71.312 99.788,71.312 C101.972,71.312 103.532,69.648 103.532,67.152 L103.532,54.1 C103.532,51.084 104.884,48.952 107.952,48.952 C110.656,48.952 112.32,51.084 112.32,54.1 L112.32,67.152 C112.32,69.648 113.88,71.312 116.064,71.312 C118.248,71.312 119.808,69.648 119.808,67.152 L119.808,54.1 C119.808,51.084 121.472,48.952 124.228,48.952 C126.932,48.952 128.596,51.084 128.596,54.1 L128.596,67.152 C128.596,69.648 130.156,71.312 132.34,71.312 C134.524,71.312 136.084,69.648 136.084,67.152 L136.084,52.8 C136.084,46.248 131.924,42.712 125.84,42.712 C123.292,42.712 120.016,44.116 117.936,46.508 C115.96,44.012 113.308,42.712 110.188,42.712 C107.432,42.712 105.04,43.856 103.22,45.832 C102.96,44.064 101.712,43.024 99.788,43.024 C97.604,43.024 96.044,44.688 96.044,47.184 L96.044,67.152 Z" id="h-sum" fill="#FFFFFF"></path>
            </g>
        </g>
    </g>
</svg>