<?xml version="1.0" encoding="UTF-8" standalone="no"?>
<svg width="160px" height="162px" viewBox="0 0 160 162" version="1.1" xmlns="http://www.w3.org/2000/svg" xmlns:xlink="http://www.w3.org/1999/xlink">
    <!-- Generator: Sketch 39.1 (31720) - http://www.bohemiancoding.com/sketch -->
    <title>bubble-text-ketchup</title>
    <desc>Created with Sketch.</desc>
    <defs></defs>
    <g id="Templates" stroke="none" stroke-width="1" fill="none" fill-rule="evenodd">
        <g id="13-bubbles-(2)" transform="translate(-1028.000000, -2179.000000)">
            <g id="bubble-text-ketchup" transform="translate(1028.000000, 2179.000000)">
                <path d="M58,116 L139.998895,116 C151.054862,116 160,107.042503 160,95.9928696 L160,20.0071304 C160,8.95770226 151.0452,0 139.998895,0 L0,0 L0,115 L0,147.999395 C0,162.360254 8.23316635,165.766834 18.3892917,155.610708 L58,116 Z" id="Combined-Shape" fill="#FFED00"></path>
                <path d="M54.144,48.952 L53.364,47.6 C52.896,46.82 52.688,45.832 52.688,44.844 C52.688,42.244 55.08,40.84 57.68,40.84 C63.088,40.84 62.932,46.3 66.468,46.3 C68.808,46.3 70.524,44.74 70.524,42.348 C70.524,37.2 64.648,33.352 57.368,33.352 C50.296,33.352 44.264,37.252 44.264,43.44 C44.264,44.896 44.94,47.652 45.616,48.952 L44.524,48.952 C42.34,48.952 40.78,50.304 40.78,52.54 C40.78,54.776 42.34,56.128 44.524,56.128 L47.228,56.128 C47.228,62.576 42.704,64.812 42.704,66.944 C42.704,69.44 44.212,71 46.76,71 L67.144,71 C69.328,71 70.888,69.648 70.888,67.412 C70.888,65.176 69.328,63.824 67.144,63.824 L52.688,63.824 C54.352,61.536 55.34,58.936 55.34,56.128 L62.048,56.128 C64.232,56.128 65.792,54.776 65.792,52.54 C65.792,50.304 64.232,48.952 62.048,48.952 L54.144,48.952 Z M88.724,62.836 L88.724,67.256 C88.724,70.012 89.816,71.312 92.468,71.312 C95.12,71.312 96.212,70.012 96.212,67.256 L96.212,62.836 L97.096,62.836 C99.124,62.836 100.736,61.484 100.736,59.404 C100.736,57.324 99.124,55.972 97.096,55.972 L96.212,55.972 L96.212,40.008 C96.212,35.276 93.248,33.352 90.232,33.352 C87.528,33.352 86.072,34.288 84.928,36.368 L73.28,57.48 C72.968,58 72.552,58.624 72.552,59.768 C72.552,61.12 73.644,62.836 76.192,62.836 L88.724,62.836 Z M88.724,55.972 L81.6,55.972 L88.62,41.464 L88.724,41.464 L88.724,55.972 Z" id="y-£4" fill="#DE2927"></path>
                <path d="M9.528,68.816 L6.252,76.928 C5.992,77.604 5.784,78.384 5.784,79.112 C5.784,80.724 7.136,82.336 9.684,82.336 C11.452,82.336 12.596,80.932 13.22,79.372 L25.752,48.172 C26.012,47.6 26.116,47.028 26.116,46.248 C26.116,44.376 24.14,43.024 22.58,43.024 C20.76,43.024 19.46,44.012 18.836,45.676 L13.324,59.768 L8.176,45.676 C7.552,44.012 6.252,43.024 4.432,43.024 C2.872,43.024 0.896,44.376 0.896,46.248 C0.896,47.028 1.052,47.6 1.26,48.172 L9.528,68.816 Z" id="Path" fill="#1D3661"></path>
            </g>
        </g>
    </g>
</svg>