<?xml version="1.0" encoding="UTF-8" standalone="no"?>
<svg width="160px" height="162px" viewBox="0 0 160 162" version="1.1" xmlns="http://www.w3.org/2000/svg" xmlns:xlink="http://www.w3.org/1999/xlink">
    <!-- Generator: Sketch 39.1 (31720) - http://www.bohemiancoding.com/sketch -->
    <title>bubble-base-colour-midnight</title>
    <desc>Created with Sketch.</desc>
    <defs></defs>
    <g id="Templates" stroke="none" stroke-width="1" fill="none" fill-rule="evenodd">
        <g id="13-bubbles-(2)" transform="translate(-828.000000, -1478.000000)">
            <g id="bubble-base-colour-midnight" transform="translate(828.000000, 1478.000000)">
                <path d="M58,116 L139.998895,116 C151.054862,116 160,107.042503 160,95.9928696 L160,20.0071304 C160,8.95770226 151.0452,0 139.998895,0 L0,0 L0,115 L0,147.999395 C0,162.360254 8.23316635,165.766834 18.3892917,155.610708 L58,116 Z" id="Combined-Shape" fill="#1D3661"></path>
                <path d="M3.132,67.152 C3.132,69.648 4.692,71.312 6.876,71.312 C9.06,71.312 10.62,69.648 10.62,67.152 L10.62,54.1 C10.62,51.188 12.336,48.952 15.404,48.952 C18.108,48.952 20.292,50.616 20.292,54.1 L20.292,67.152 C20.292,69.648 21.852,71.312 24.036,71.312 C26.22,71.312 27.78,69.648 27.78,67.152 L27.78,52.8 C27.78,46.456 23.412,42.712 17.536,42.712 C15.196,42.712 12.284,43.388 10.724,45.312 L10.62,45.312 L10.62,35.12 C10.62,32.624 9.06,30.96 6.876,30.96 C4.692,30.96 3.132,32.624 3.132,35.12 L3.132,67.152 Z M64.804,48.12 C64.804,44.428 59.136,42.712 55.444,42.712 C49.516,42.712 45.304,46.248 45.304,51.448 C45.304,60.028 58.304,59.508 58.304,62.94 C58.304,64.344 57.628,65.072 55.34,65.072 C51.804,65.072 50.504,62.524 47.592,62.524 C45.512,62.524 44.368,64.708 44.368,65.852 C44.368,69.232 50.608,71.624 54.82,71.624 C61.268,71.624 65.48,67.828 65.48,62.836 C65.48,54.308 52.48,54.828 52.48,51.344 C52.48,49.888 53.676,49.264 55.028,49.264 C57.472,49.264 60.332,51.448 61.736,51.448 C63.504,51.448 64.804,49.836 64.804,48.12 L64.804,48.12 Z M68.132,60.704 C68.132,67.36 72.552,71.624 80.456,71.624 C88.36,71.624 92.78,67.36 92.78,60.704 L92.78,47.184 C92.78,44.688 91.22,43.024 89.036,43.024 C86.852,43.024 85.292,44.688 85.292,47.184 L85.292,60.548 C85.292,63.668 82.952,65.384 80.456,65.384 C77.96,65.384 75.62,63.668 75.62,60.548 L75.62,47.184 C75.62,44.688 74.06,43.024 71.876,43.024 C69.692,43.024 68.132,44.688 68.132,47.184 L68.132,60.704 Z M97.044,67.152 C97.044,69.648 98.604,71.312 100.788,71.312 C102.972,71.312 104.532,69.648 104.532,67.152 L104.532,54.1 C104.532,51.084 105.884,48.952 108.952,48.952 C111.656,48.952 113.32,51.084 113.32,54.1 L113.32,67.152 C113.32,69.648 114.88,71.312 117.064,71.312 C119.248,71.312 120.808,69.648 120.808,67.152 L120.808,54.1 C120.808,51.084 122.472,48.952 125.228,48.952 C127.932,48.952 129.596,51.084 129.596,54.1 L129.596,67.152 C129.596,69.648 131.156,71.312 133.34,71.312 C135.524,71.312 137.084,69.648 137.084,67.152 L137.084,52.8 C137.084,46.248 132.924,42.712 126.84,42.712 C124.292,42.712 121.016,44.116 118.936,46.508 C116.96,44.012 114.308,42.712 111.188,42.712 C108.432,42.712 106.04,43.856 104.22,45.832 C103.96,44.064 102.712,43.024 100.788,43.024 C98.604,43.024 97.044,44.688 97.044,47.184 L97.044,67.152 Z" id="h-sum" fill="#FFFFFF"></path>
            </g>
        </g>
    </g>
</svg>