<?xml version="1.0" encoding="UTF-8" standalone="no"?>
<svg width="582px" height="206px" viewBox="0 0 582 206" version="1.1" xmlns="http://www.w3.org/2000/svg" xmlns:xlink="http://www.w3.org/1999/xlink">
    <!-- Generator: Sketch 39.1 (31720) - http://www.bohemiancoding.com/sketch -->
    <title>Group 2</title>
    <desc>Created with Sketch.</desc>
    <defs>
        <path d="M200,0.540517653 L260,0.540517653 L218.389292,42.1512259 C208.233166,52.3073513 200,48.9007713 200,34.5399132 L200,0.540517653 Z" id="path-1"></path>
        <mask id="mask-2" maskContentUnits="userSpaceOnUse" maskUnits="objectBoundingBox" x="0" y="0" width="60" height="47.4594823" fill="white">
            <use xlink:href="#path-1"></use>
        </mask>
    </defs>
    <g id="Templates" stroke="none" stroke-width="1" fill="none" fill-rule="evenodd">
        <g id="13-bubbles-(2)" transform="translate(-825.000000, -934.000000)">
            <g id="Group-2" transform="translate(825.000000, 934.000000)">
                <rect id="Rectangle-2" fill="#9B9B9B" x="0" y="44" width="582" height="116" rx="8"></rect>
                <path d="M28.716,92.912 C28.716,90.988 28.716,88.024 25.128,88.024 C23.308,88.024 21.748,89.324 21.54,91.144 C19.876,88.804 17.172,87.712 14.416,87.712 C7.552,87.712 2.04,94.004 2.04,102.22 C2.04,110.644 7.396,116.624 14.416,116.624 C17.276,116.624 19.616,115.428 21.54,113.14 C22.06,115.116 22.944,116.312 25.128,116.312 C28.716,116.312 28.716,113.348 28.716,111.424 L28.716,92.912 Z M9.528,102.22 C9.528,98.632 11.348,94.576 15.456,94.576 C19.408,94.576 21.228,98.632 21.228,102.22 C21.228,105.808 19.356,109.76 15.456,109.76 C11.4,109.76 9.528,105.808 9.528,102.22 L9.528,102.22 Z M39.376,113.816 L36.1,121.928 C35.84,122.604 35.632,123.384 35.632,124.112 C35.632,125.724 36.984,127.336 39.532,127.336 C41.3,127.336 42.444,125.932 43.068,124.372 L55.6,93.172 C55.86,92.6 55.964,92.028 55.964,91.248 C55.964,89.376 53.988,88.024 52.428,88.024 C50.608,88.024 49.308,89.012 48.684,90.676 L43.172,104.768 L38.024,90.676 C37.4,89.012 36.1,88.024 34.28,88.024 C32.72,88.024 30.744,89.376 30.744,91.248 C30.744,92.028 30.9,92.6 31.108,93.172 L39.376,113.816 Z M73.748,112.152 C73.748,114.648 75.308,116.312 77.492,116.312 C79.676,116.312 81.236,114.648 81.236,112.152 L81.236,94.888 L83.368,94.888 C85.292,94.888 86.956,93.952 86.956,91.612 C86.956,89.22 85.292,88.336 83.368,88.336 L81.236,88.336 L81.236,83.864 C81.236,81.368 79.676,79.704 77.492,79.704 C75.308,79.704 73.748,81.368 73.748,83.864 L73.748,88.336 L72.084,88.336 C70.212,88.336 68.808,89.74 68.808,91.612 C68.808,93.64 70.056,94.888 72.084,94.888 L73.748,94.888 L73.748,112.152 Z M99.644,87.712 C91.74,87.712 86.228,94.628 86.228,102.22 C86.228,110.02 91.584,116.624 99.644,116.624 C107.704,116.624 113.06,110.02 113.06,102.22 C113.06,94.628 107.548,87.712 99.644,87.712 L99.644,87.712 Z M99.644,94.576 C103.752,94.576 105.572,98.632 105.572,102.22 C105.572,105.808 103.7,109.76 99.644,109.76 C95.588,109.76 93.716,105.808 93.716,102.22 C93.716,98.632 95.536,94.576 99.644,94.576 L99.644,94.576 Z M130.064,112.152 C130.064,114.648 131.624,116.312 133.808,116.312 C135.992,116.312 137.552,114.648 137.552,112.152 L137.552,80.12 C137.552,77.624 135.992,75.96 133.808,75.96 C131.624,75.96 130.064,77.624 130.064,80.12 L130.064,112.152 Z M163.708,104.664 C165.996,104.664 166.984,103.572 166.984,101.336 C166.984,95.096 161.628,87.712 153.516,87.712 C145.612,87.712 140.1,94.628 140.1,102.22 C140.1,110.488 145.716,116.624 154.14,116.624 C159.704,116.624 166.36,113.504 166.36,110.28 C166.36,108.668 164.904,107.056 163.292,107.056 C161.316,107.056 158.664,110.072 154.816,110.072 C151.332,110.072 148.264,108.356 147.744,104.664 L163.708,104.664 Z M147.588,99.672 C147.952,96.5 150.188,93.952 153.516,93.952 C157,93.952 159.08,96.396 159.496,99.672 L147.588,99.672 Z M195.22,92.912 C195.22,90.988 195.22,88.024 191.632,88.024 C189.812,88.024 188.252,89.324 188.044,91.144 C186.38,88.804 183.676,87.712 180.92,87.712 C174.056,87.712 168.544,94.004 168.544,102.22 C168.544,110.644 173.9,116.624 180.92,116.624 C183.78,116.624 186.12,115.428 188.044,113.14 C188.564,115.116 189.448,116.312 191.632,116.312 C195.22,116.312 195.22,113.348 195.22,111.424 L195.22,92.912 Z M176.032,102.22 C176.032,98.632 177.852,94.576 181.96,94.576 C185.912,94.576 187.732,98.632 187.732,102.22 C187.732,105.808 185.86,109.76 181.96,109.76 C177.904,109.76 176.032,105.808 176.032,102.22 L176.032,102.22 Z M205.308,113.192 C206.036,115.116 206.816,116.312 209.364,116.312 C211.912,116.312 212.692,115.116 213.42,113.192 L220.96,93.848 C221.324,92.912 221.428,92.34 221.428,91.664 C221.428,89.272 219.556,88.024 217.528,88.024 C215.448,88.024 214.564,89.532 214.2,90.676 L209.416,105.444 L209.312,105.444 L204.528,90.676 C204.164,89.532 203.28,88.024 201.2,88.024 C199.172,88.024 197.3,89.272 197.3,91.664 C197.3,92.34 197.404,92.912 197.768,93.848 L205.308,113.192 Z M245.504,104.664 C247.792,104.664 248.78,103.572 248.78,101.336 C248.78,95.096 243.424,87.712 235.312,87.712 C227.408,87.712 221.896,94.628 221.896,102.22 C221.896,110.488 227.512,116.624 235.936,116.624 C241.5,116.624 248.156,113.504 248.156,110.28 C248.156,108.668 246.7,107.056 245.088,107.056 C243.112,107.056 240.46,110.072 236.612,110.072 C233.128,110.072 230.06,108.356 229.54,104.664 L245.504,104.664 Z M229.384,99.672 C229.748,96.5 231.984,93.952 235.312,93.952 C238.796,93.952 240.876,96.396 241.292,99.672 L229.384,99.672 Z M290.952,92.912 C290.952,90.988 290.952,88.024 287.364,88.024 C285.544,88.024 283.984,89.324 283.776,91.144 C282.112,88.804 279.408,87.712 276.652,87.712 C269.788,87.712 264.276,94.004 264.276,102.22 C264.276,110.644 269.632,116.624 276.652,116.624 C279.512,116.624 281.852,115.428 283.776,113.14 C284.296,115.116 285.18,116.312 287.364,116.312 C290.952,116.312 290.952,113.348 290.952,111.424 L290.952,92.912 Z M271.764,102.22 C271.764,98.632 273.584,94.576 277.692,94.576 C281.644,94.576 283.464,98.632 283.464,102.22 C283.464,105.808 281.592,109.76 277.692,109.76 C273.636,109.76 271.764,105.808 271.764,102.22 L271.764,102.22 Z M330.628,92.444 C330.628,88.804 324.44,87.712 321.476,87.712 C313.572,87.712 308.06,94.628 308.06,102.22 C308.06,110.02 313.416,116.624 321.476,116.624 C324.18,116.624 330.628,115.324 330.628,111.476 C330.628,109.708 329.172,108.2 327.404,108.2 C326.52,108.2 323.712,109.76 321.84,109.76 C317.784,109.76 315.548,105.912 315.548,102.22 C315.548,98.372 317.576,94.576 321.84,94.576 C324.232,94.576 325.896,96.032 327.768,96.032 C329.536,96.032 330.628,94.004 330.628,92.444 L330.628,92.444 Z M358.812,92.912 C358.812,90.988 358.812,88.024 355.224,88.024 C353.404,88.024 351.844,89.324 351.636,91.144 C349.972,88.804 347.268,87.712 344.512,87.712 C337.648,87.712 332.136,94.004 332.136,102.22 C332.136,110.644 337.492,116.624 344.512,116.624 C347.372,116.624 349.712,115.428 351.636,113.14 C352.156,115.116 353.04,116.312 355.224,116.312 C358.812,116.312 358.812,113.348 358.812,111.424 L358.812,92.912 Z M339.624,102.22 C339.624,98.632 341.444,94.576 345.552,94.576 C349.504,94.576 351.324,98.632 351.324,102.22 C351.324,105.808 349.452,109.76 345.552,109.76 C341.496,109.76 339.624,105.808 339.624,102.22 L339.624,102.22 Z M381.9,93.12 C381.9,89.428 376.232,87.712 372.54,87.712 C366.612,87.712 362.4,91.248 362.4,96.448 C362.4,105.028 375.4,104.508 375.4,107.94 C375.4,109.344 374.724,110.072 372.436,110.072 C368.9,110.072 367.6,107.524 364.688,107.524 C362.608,107.524 361.464,109.708 361.464,110.852 C361.464,114.232 367.704,116.624 371.916,116.624 C378.364,116.624 382.576,112.828 382.576,107.836 C382.576,99.308 369.576,99.828 369.576,96.344 C369.576,94.888 370.772,94.264 372.124,94.264 C374.568,94.264 377.428,96.448 378.832,96.448 C380.6,96.448 381.9,94.836 381.9,93.12 L381.9,93.12 Z M385.228,112.152 C385.228,114.648 386.788,116.312 388.972,116.312 C391.156,116.312 392.716,114.648 392.716,112.152 L392.716,99.1 C392.716,96.188 394.432,93.952 397.5,93.952 C400.204,93.952 402.388,95.616 402.388,99.1 L402.388,112.152 C402.388,114.648 403.948,116.312 406.132,116.312 C408.316,116.312 409.876,114.648 409.876,112.152 L409.876,97.8 C409.876,91.456 405.508,87.712 399.632,87.712 C397.292,87.712 394.38,88.388 392.82,90.312 L392.716,90.312 L392.716,80.12 C392.716,77.624 391.156,75.96 388.972,75.96 C386.788,75.96 385.228,77.624 385.228,80.12 L385.228,112.152 Z M446.9,93.12 C446.9,89.428 441.232,87.712 437.54,87.712 C431.612,87.712 427.4,91.248 427.4,96.448 C427.4,105.028 440.4,104.508 440.4,107.94 C440.4,109.344 439.724,110.072 437.436,110.072 C433.9,110.072 432.6,107.524 429.688,107.524 C427.608,107.524 426.464,109.708 426.464,110.852 C426.464,114.232 432.704,116.624 436.916,116.624 C443.364,116.624 447.576,112.828 447.576,107.836 C447.576,99.308 434.576,99.828 434.576,96.344 C434.576,94.888 435.772,94.264 437.124,94.264 C439.568,94.264 442.428,96.448 443.832,96.448 C445.6,96.448 446.9,94.836 446.9,93.12 L446.9,93.12 Z M450.228,105.704 C450.228,112.36 454.648,116.624 462.552,116.624 C470.456,116.624 474.876,112.36 474.876,105.704 L474.876,92.184 C474.876,89.688 473.316,88.024 471.132,88.024 C468.948,88.024 467.388,89.688 467.388,92.184 L467.388,105.548 C467.388,108.668 465.048,110.384 462.552,110.384 C460.056,110.384 457.716,108.668 457.716,105.548 L457.716,92.184 C457.716,89.688 456.156,88.024 453.972,88.024 C451.788,88.024 450.228,89.688 450.228,92.184 L450.228,105.704 Z M479.14,112.152 C479.14,114.648 480.7,116.312 482.884,116.312 C485.068,116.312 486.628,114.648 486.628,112.152 L486.628,99.1 C486.628,96.084 487.98,93.952 491.048,93.952 C493.752,93.952 495.416,96.084 495.416,99.1 L495.416,112.152 C495.416,114.648 496.976,116.312 499.16,116.312 C501.344,116.312 502.904,114.648 502.904,112.152 L502.904,99.1 C502.904,96.084 504.568,93.952 507.324,93.952 C510.028,93.952 511.692,96.084 511.692,99.1 L511.692,112.152 C511.692,114.648 513.252,116.312 515.436,116.312 C517.62,116.312 519.18,114.648 519.18,112.152 L519.18,97.8 C519.18,91.248 515.02,87.712 508.936,87.712 C506.388,87.712 503.112,89.116 501.032,91.508 C499.056,89.012 496.404,87.712 493.284,87.712 C490.528,87.712 488.136,88.856 486.316,90.832 C486.056,89.064 484.808,88.024 482.884,88.024 C480.7,88.024 479.14,89.688 479.14,92.184 L479.14,112.152 Z" id="ay-to-leave-a-cash-s" fill="#FFFFFF"></path>
                <path d="M200,158 L260,158 L218.389292,199.610708 C208.233166,209.766834 200,206.360254 200,191.999395 L200,158 Z" id="Rectangle-4" fill="#9B9B9B"></path>
                <use id="Rectangle-4" stroke="#9B9B9B" mask="url(#mask-2)" stroke-width="6" stroke-dasharray="6,7" transform="translate(230.000000, 24.270259) scale(1, -1) translate(-230.000000, -24.270259) " xlink:href="#path-1"></use>
            </g>
        </g>
    </g>
</svg>