<?xml version="1.0" encoding="UTF-8" standalone="no"?>
<svg width="180px" height="180px" viewBox="0 0 180 180" version="1.1" xmlns="http://www.w3.org/2000/svg" xmlns:xlink="http://www.w3.org/1999/xlink">
    <!-- Generator: Sketch 39.1 (31720) - http://www.bohemiancoding.com/sketch -->
    <title>roundel-example-nine</title>
    <desc>Created with Sketch.</desc>
    <defs></defs>
    <g id="Templates" stroke="none" stroke-width="1" fill="none" fill-rule="evenodd">
        <g id="14-roundels" transform="translate(-1230.000000, -2074.000000)">
            <g id="roundel-example-nine" transform="translate(1320.000000, 2164.000000) rotate(-5.000000) translate(-1320.000000, -2164.000000) translate(1230.000000, 2074.000000)">
                <path d="M179.552239,90 C179.552239,139.45791 139.45791,179.552239 90,179.552239 C40.5420896,179.552239 0.447761194,139.45791 0.447761194,90 C0.447761194,40.5420896 40.5420896,0.447761194 90,0.447761194 C139.45791,0.447761194 179.552239,40.5420896 179.552239,90 L179.552239,90 Z" id="Stroke-1" fill="#9B9B9B"></path>
                <path d="M60.4262687,70.3450746 C65.2979104,64.2125373 74.1814925,56.3032836 74.1814925,48.3367164 C74.1814925,41.0579104 68.5074627,36.4155224 61.4579104,36.4155224 C54.4083582,36.4155224 47.9892537,42.2041791 47.9892537,49.4256716 C47.9892537,51.6608955 49.4220896,53.6095522 52.1731343,53.6095522 C57.6752239,53.6095522 54.5229851,44.3247761 61.1140299,44.3247761 C63.4638806,44.3247761 65.240597,46.3880597 65.240597,48.7379104 C65.240597,50.801194 64.2662687,52.5779104 63.2346269,54.0680597 C58.878806,60.3725373 53.720597,65.5307463 48.9635821,71.2047761 C48.3904478,71.8925373 47.6453731,72.9241791 47.6453731,74.1277612 C47.6453731,76.7641791 49.5940299,77.9104478 52.1158209,77.9104478 L71.2585075,77.9104478 C73.4364179,77.9104478 75.3850746,76.7641791 75.3850746,74.1277612 C75.3850746,71.4913433 73.4364179,70.3450746 70.9146269,70.3450746 L60.4262687,70.3450746 Z M91.3970149,45.0125373 L102.17194,45.0125373 C103.203582,45.0125373 106.183881,44.6686567 106.183881,40.7140299 C106.183881,38.6507463 104.636418,37.1032836 102,37.1032836 L88.1874627,37.1032836 C85.4364179,37.1032836 84.3474627,38.0776119 83.7170149,42.5480597 L82.2841791,54.641194 C82.2268657,55.2716418 82.1122388,55.8447761 82.1122388,56.5898507 C82.1122388,57.5641791 83.2585075,59.2835821 85.4937313,59.2835821 C88.4167164,59.2835821 88.9325373,57.3922388 92.2567164,57.3922388 C95.8101493,57.3922388 97.758806,59.7420896 97.758806,63.1808955 C97.758806,66.7916418 95.6955224,70.6889552 91.6835821,70.6889552 C87.8435821,70.6889552 85.0925373,67.0208955 82.8,67.0208955 C80.679403,67.0208955 78.9026866,68.7976119 78.9026866,70.918209 C78.9026866,75.961791 87.4423881,78.598209 91.5116418,78.598209 C101.426866,78.598209 106.699701,72.2937313 106.699701,62.7223881 C106.699701,56.0167164 101.770746,50.5146269 94.8358209,50.5146269 C93.4029851,50.5146269 91.9128358,50.801194 90.5373134,51.0877612 L91.3970149,45.0125373 Z M115.69791,59.8925373 C114.515821,59.8925373 113.835224,58.9253731 113.835224,57.7791045 C113.835224,56.6328358 114.515821,55.6298507 115.69791,55.6298507 C116.88,55.6298507 117.560597,56.6328358 117.560597,57.7791045 C117.560597,58.9253731 116.88,59.8925373 115.69791,59.8925373 L115.69791,59.8925373 Z M115.69791,63.5462687 C118.88597,63.5462687 121.214328,60.8955224 121.214328,57.7791045 C121.214328,54.6626866 118.88597,51.9761194 115.69791,51.9761194 C112.509851,51.9761194 110.181493,54.6626866 110.181493,57.7791045 C110.181493,60.8955224 112.509851,63.5462687 115.69791,63.5462687 L115.69791,63.5462687 Z M128.306866,78.3402985 C131.494925,78.3402985 133.823284,75.6895522 133.823284,72.5731343 C133.823284,69.4567164 131.494925,66.7701493 128.306866,66.7701493 C125.118806,66.7701493 122.790448,69.4567164 122.790448,72.5731343 C122.790448,75.6895522 125.118806,78.3402985 128.306866,78.3402985 L128.306866,78.3402985 Z M128.306866,74.6865672 C127.124776,74.6865672 126.444179,73.719403 126.444179,72.5731343 C126.444179,71.4268657 127.124776,70.4238806 128.306866,70.4238806 C129.488955,70.4238806 130.169552,71.4268657 130.169552,72.5731343 C130.169552,73.719403 129.488955,74.6865672 128.306866,74.6865672 L128.306866,74.6865672 Z M114.408358,75.2597015 C114.265075,75.5462687 114.050149,76.0477612 114.050149,76.5850746 C114.050149,77.6597015 115.160597,78.5552239 116.09194,78.5552239 C116.951642,78.5552239 117.166567,78.1253731 117.703881,77.3731343 L129.739701,54.841791 C130.026269,54.3044776 130.026269,54.0537313 130.026269,53.7671642 C130.026269,52.6567164 129.023284,51.761194 127.912836,51.761194 C127.088955,51.761194 126.730746,52.0119403 126.265075,52.9074627 L114.408358,75.2597015 Z" id="25%" fill="#FFFFFF"></path>
                <path d="M50.7976119,98.1635821 C50.7976119,101.19403 52.6029851,104.009552 55.8268657,104.009552 C59.0507463,104.009552 60.8561194,101.19403 60.8561194,98.1635821 C60.8561194,95.1331343 59.0507463,92.3176119 55.8268657,92.3176119 C52.6029851,92.3176119 50.7976119,95.1331343 50.7976119,98.1635821 L50.7976119,98.1635821 Z M52.6889552,98.1635821 C52.6889552,96.2292537 53.5056716,93.9510448 55.8268657,93.9510448 C58.1480597,93.9510448 58.9647761,96.2292537 58.9647761,98.1635821 C58.9647761,100.09791 58.1480597,102.376119 55.8268657,102.376119 C53.5056716,102.376119 52.6889552,100.09791 52.6889552,98.1635821 L52.6889552,98.1635821 Z M65.3480597,94.08 L66.5301493,94.08 C67.1534328,94.08 67.4758209,93.7791045 67.4758209,93.2632836 C67.4758209,92.7474627 67.1534328,92.4465672 66.5301493,92.4465672 L65.3480597,92.4465672 L65.3480597,89.6740299 C65.3480597,89.201194 65.5414925,88.921791 66.121791,88.921791 L66.5946269,88.921791 C67.3038806,88.921791 67.6262687,88.6208955 67.6262687,88.1050746 C67.6262687,87.5892537 67.0459701,87.2883582 66.5516418,87.2883582 L65.9713433,87.2883582 C64.5958209,87.2883582 63.4567164,88.1050746 63.4567164,89.76 L63.4567164,92.4465672 L62.6829851,92.4465672 C62.0597015,92.4465672 61.7373134,92.7474627 61.7373134,93.2632836 C61.7373134,93.7791045 62.0597015,94.08 62.6829851,94.08 L63.4567164,94.08 L63.4567164,102.999403 C63.4567164,103.622687 63.8220896,104.009552 64.4023881,104.009552 C64.9826866,104.009552 65.3480597,103.622687 65.3480597,102.999403 L65.3480597,94.08 Z M70.9146269,94.08 L72.0967164,94.08 C72.72,94.08 73.0423881,93.7791045 73.0423881,93.2632836 C73.0423881,92.7474627 72.72,92.4465672 72.0967164,92.4465672 L70.9146269,92.4465672 L70.9146269,89.6740299 C70.9146269,89.201194 71.1080597,88.921791 71.6883582,88.921791 L72.161194,88.921791 C72.8704478,88.921791 73.1928358,88.6208955 73.1928358,88.1050746 C73.1928358,87.5892537 72.6125373,87.2883582 72.118209,87.2883582 L71.5379104,87.2883582 C70.1623881,87.2883582 69.0232836,88.1050746 69.0232836,89.76 L69.0232836,92.4465672 L68.2495522,92.4465672 C67.6262687,92.4465672 67.3038806,92.7474627 67.3038806,93.2632836 C67.3038806,93.7791045 67.6262687,94.08 68.2495522,94.08 L69.0232836,94.08 L69.0232836,102.999403 C69.0232836,103.622687 69.3886567,104.009552 69.9689552,104.009552 C70.5492537,104.009552 70.9146269,103.622687 70.9146269,102.999403 L70.9146269,94.08 Z M87.0340299,98.1635821 C87.0340299,100.09791 86.2173134,102.376119 83.8961194,102.376119 C81.5749254,102.376119 80.758209,100.09791 80.758209,98.1635821 C80.758209,96.2292537 81.5749254,93.9510448 83.8961194,93.9510448 C86.2173134,93.9510448 87.0340299,96.2292537 87.0340299,98.1635821 L87.0340299,98.1635821 Z M78.8668657,98.1635821 C78.8668657,101.19403 80.6507463,104.009552 83.7456716,104.009552 C85.2501493,104.009552 86.3032836,103.171343 86.7976119,102.46209 L86.840597,102.46209 L86.840597,107.512836 C86.840597,108.136119 87.2059701,108.522985 87.7862687,108.522985 C88.3665672,108.522985 88.7319403,108.136119 88.7319403,107.512836 L88.7319403,93.3277612 C88.7319403,92.7044776 88.3665672,92.3176119 87.7862687,92.3176119 C87.2059701,92.3176119 86.840597,92.7044776 86.840597,93.3277612 L86.840597,93.8865672 L86.7976119,93.8865672 C86.2602985,92.8549254 85.2501493,92.3176119 83.7456716,92.3176119 C80.6507463,92.3176119 78.8668657,95.1331343 78.8668657,98.1635821 L78.8668657,98.1635821 Z M91.3110448,99.4531343 C91.3110448,102.80597 93.5462687,104.009552 95.8459701,104.009552 C98.1456716,104.009552 100.380896,102.80597 100.380896,99.4531343 L100.380896,93.3277612 C100.380896,92.7044776 100.015522,92.3176119 99.4352239,92.3176119 C98.8549254,92.3176119 98.4895522,92.7044776 98.4895522,93.3277612 L98.4895522,99.3886567 C98.4895522,101.344478 97.6298507,102.376119 95.8459701,102.376119 C94.0620896,102.376119 93.2023881,101.344478 93.2023881,99.3886567 L93.2023881,93.3277612 C93.2023881,92.7044776 92.8370149,92.3176119 92.2567164,92.3176119 C91.6764179,92.3176119 91.3110448,92.7044776 91.3110448,93.3277612 L91.3110448,99.4531343 Z M102.379701,98.1635821 C102.379701,101.19403 104.185075,104.009552 107.408955,104.009552 C110.632836,104.009552 112.438209,101.19403 112.438209,98.1635821 C112.438209,95.1331343 110.632836,92.3176119 107.408955,92.3176119 C104.185075,92.3176119 102.379701,95.1331343 102.379701,98.1635821 L102.379701,98.1635821 Z M104.271045,98.1635821 C104.271045,96.2292537 105.087761,93.9510448 107.408955,93.9510448 C109.730149,93.9510448 110.546866,96.2292537 110.546866,98.1635821 C110.546866,100.09791 109.730149,102.376119 107.408955,102.376119 C105.087761,102.376119 104.271045,100.09791 104.271045,98.1635821 L104.271045,98.1635821 Z M115.038806,92.4465672 L114.265075,92.4465672 C113.641791,92.4465672 113.319403,92.7474627 113.319403,93.2632836 C113.319403,93.7791045 113.641791,94.08 114.265075,94.08 L115.038806,94.08 L115.038806,102.999403 C115.038806,103.622687 115.404179,104.009552 115.984478,104.009552 C116.564776,104.009552 116.930149,103.622687 116.930149,102.999403 L116.930149,94.08 L117.703881,94.08 C118.327164,94.08 118.649552,93.7791045 118.649552,93.2632836 C118.649552,92.7474627 118.327164,92.4465672 117.703881,92.4465672 L116.930149,92.4465672 L116.930149,89.9749254 C116.930149,89.3516418 116.564776,88.9647761 115.984478,88.9647761 C115.404179,88.9647761 115.038806,89.3516418 115.038806,89.9749254 L115.038806,92.4465672 Z M128.342687,98.8943284 C129.159403,98.8943284 129.395821,98.5504478 129.395821,97.8841791 C129.395821,95.1331343 127.590448,92.3176119 124.47403,92.3176119 C121.271642,92.3176119 119.337313,95.0686567 119.337313,98.1635821 C119.337313,101.19403 120.927761,104.009552 124.581493,104.009552 C126.816716,104.009552 129.159403,102.591045 129.159403,101.666866 C129.159403,101.129552 128.815522,100.828657 128.471642,100.828657 C127.762388,100.828657 127.117612,102.376119 124.602985,102.376119 C122.475224,102.376119 121.228657,100.850149 121.228657,98.8943284 L128.342687,98.8943284 Z M121.228657,97.4758209 C121.293134,95.7349254 122.131343,93.8650746 124.47403,93.9510448 C126.558806,93.9510448 127.504478,95.8423881 127.504478,97.4758209 L121.228657,97.4758209 Z" id="off-quote" fill="#FFFFFF"></path>
                <path d="M44.9516418,115.185672 C42.0931343,115.185672 39.6214925,117.055522 39.6214925,120.064478 C39.6214925,125.050746 46.8,123.524776 46.8,126.060896 C46.8,127.11403 46.0262687,127.909254 44.6077612,127.909254 C43.2107463,127.909254 42.0071642,127.071045 40.9970149,127.071045 C40.1158209,127.071045 39.5570149,127.758806 39.5570149,128.597015 C39.5570149,130.617313 43.1247761,131.004179 44.7797015,131.004179 C47.7456716,131.004179 50.281791,129.091343 50.281791,126.01791 C50.281791,120.472836 43.1032836,121.891343 43.1032836,119.677612 C43.1032836,118.774925 43.9414925,118.280597 44.8656716,118.280597 C46.1552239,118.280597 46.8429851,118.925373 47.7241791,118.925373 C48.6053731,118.925373 49.1641791,118.173134 49.1641791,117.334925 C49.1641791,115.637015 46.1552239,115.185672 44.9516418,115.185672 L44.9516418,115.185672 Z M51.5283582,124.663881 C51.5283582,128.317612 54.4728358,131.004179 58.0620896,131.004179 C61.6083582,131.004179 64.5743284,128.274627 64.5743284,124.663881 L64.5743284,116.991045 C64.5743284,115.916418 63.8865672,115.314627 62.9623881,115.314627 C62.038209,115.314627 61.3504478,115.916418 61.3504478,116.991045 L61.3504478,124.49194 C61.3504478,126.383284 60.0179104,128.038209 58.0620896,128.038209 C56.0202985,128.038209 54.7522388,126.469254 54.7522388,124.49194 L54.7522388,116.991045 C54.7522388,115.916418 54.0644776,115.314627 53.1402985,115.314627 C52.2161194,115.314627 51.5283582,115.916418 51.5283582,116.991045 L51.5283582,124.663881 Z M66.2507463,129.198806 C66.2507463,130.273433 66.9385075,130.875224 67.8626866,130.875224 C68.7868657,130.875224 69.4746269,130.273433 69.4746269,129.198806 L69.4746269,121.18209 L69.5176119,121.18209 L76.3307463,130.16597 C76.6316418,130.552836 77.2764179,130.875224 77.6847761,130.875224 C78.6089552,130.875224 79.2967164,130.273433 79.2967164,129.198806 L79.2967164,116.991045 C79.2967164,115.916418 78.6089552,115.314627 77.6847761,115.314627 C76.760597,115.314627 76.0728358,115.916418 76.0728358,116.991045 L76.0728358,125.115224 L76.0298507,125.115224 L69.2167164,116.023881 C68.9373134,115.637015 68.2710448,115.314627 67.8626866,115.314627 C66.9385075,115.314627 66.2507463,115.916418 66.2507463,116.991045 L66.2507463,129.198806 Z M83.1223881,129.198806 C83.3373134,130.101493 84.0465672,130.875224 85.2501493,130.875224 C86.3032836,130.875224 87.12,130.187463 87.3779104,129.306269 L89.8710448,121.010149 L89.9140299,121.010149 L92.4071642,129.306269 C92.6650746,130.187463 93.481791,130.875224 94.5349254,130.875224 C95.7385075,130.875224 96.4477612,130.101493 96.6626866,129.198806 L99.3922388,117.463881 C99.4567164,117.184478 99.478209,117.03403 99.478209,116.733134 C99.478209,116.045373 98.8979104,115.314627 97.9522388,115.314627 C96.920597,115.314627 96.4262687,115.916418 96.2328358,116.86209 L94.4059701,125.996418 L94.3629851,125.996418 L91.5689552,116.582687 C91.3325373,115.808955 90.6877612,115.314627 89.8925373,115.314627 C89.0973134,115.314627 88.4525373,115.808955 88.2161194,116.582687 L85.4220896,125.996418 L85.3791045,125.996418 L83.5522388,116.86209 C83.358806,115.916418 82.8644776,115.314627 81.8328358,115.314627 C80.8871642,115.314627 80.3068657,116.045373 80.3068657,116.733134 C80.3068657,117.03403 80.3283582,117.184478 80.3928358,117.463881 L83.1223881,129.198806 Z M100.617313,129.134328 C100.617313,130.101493 101.326567,130.746269 102.272239,130.746269 L107.817313,130.746269 C108.827463,130.746269 109.343284,129.99403 109.343284,129.263284 C109.343284,128.511045 108.848955,127.780299 107.817313,127.780299 L103.841194,127.780299 L103.841194,124.513433 L107.36597,124.513433 C108.397612,124.513433 108.934925,123.761194 108.934925,123.030448 C108.934925,122.278209 108.419104,121.547463 107.36597,121.547463 L103.841194,121.547463 L103.841194,118.409552 L107.623881,118.409552 C108.63403,118.409552 109.149851,117.657313 109.149851,116.926567 C109.149851,116.174328 108.655522,115.443582 107.623881,115.443582 L102.293731,115.443582 C101.154627,115.443582 100.617313,116.238806 100.617313,117.313433 L100.617313,129.134328 Z M110.568358,129.112836 C110.568358,130.122985 111.299104,130.746269 112.287761,130.746269 L116.715224,130.746269 C119.681194,130.746269 121.701493,129.112836 121.701493,126.082388 C121.701493,124.212537 120.261493,122.686567 118.434627,122.428657 L118.434627,122.385672 C119.810149,121.740896 120.433433,120.730746 120.433433,119.226269 C120.433433,116.94806 118.62806,115.443582 116.392836,115.443582 L112.266269,115.443582 C111.277612,115.443582 110.568358,116.023881 110.568358,117.055522 L110.568358,129.112836 Z M113.792239,118.280597 L115.468657,118.280597 C116.414328,118.280597 117.209552,118.796418 117.209552,119.806567 C117.209552,120.881194 116.521791,121.504478 115.468657,121.504478 L113.792239,121.504478 L113.792239,118.280597 Z M113.792239,124.341493 L116.070448,124.341493 C117.574925,124.341493 118.348657,125.029254 118.348657,126.039403 C118.348657,127.242985 117.488955,127.909254 116.328358,127.909254 L113.792239,127.909254 L113.792239,124.341493 Z M127.69791,127.909254 C129.524776,125.609552 132.856119,122.643582 132.856119,119.656119 C132.856119,116.926567 130.728358,115.185672 128.084776,115.185672 C125.441194,115.185672 123.03403,117.356418 123.03403,120.064478 C123.03403,120.902687 123.571343,121.633433 124.602985,121.633433 C126.666269,121.633433 125.484179,118.151642 127.955821,118.151642 C128.837015,118.151642 129.503284,118.925373 129.503284,119.806567 C129.503284,120.580299 129.13791,121.246567 128.751045,121.805373 C127.117612,124.169552 125.183284,126.103881 123.399403,128.231642 C123.184478,128.489552 122.905075,128.876418 122.905075,129.327761 C122.905075,130.316418 123.635821,130.746269 124.581493,130.746269 L131.76,130.746269 C132.576716,130.746269 133.307463,130.316418 133.307463,129.327761 C133.307463,128.339104 132.576716,127.909254 131.631045,127.909254 L127.69791,127.909254 Z M140.442985,128.081194 C138.250746,128.081194 138.100299,124.620896 138.100299,123.094925 C138.100299,121.461493 138.250746,118.108657 140.442985,118.108657 C142.635224,118.108657 142.785672,121.461493 142.785672,123.094925 C142.785672,124.620896 142.635224,128.081194 140.442985,128.081194 L140.442985,128.081194 Z M140.442985,131.004179 C144.784478,131.004179 146.138507,126.598209 146.138507,123.094925 C146.138507,119.591642 144.784478,115.185672 140.442985,115.185672 C136.101493,115.185672 134.747463,119.591642 134.747463,123.094925 C134.747463,126.598209 136.101493,131.004179 140.442985,131.004179 L140.442985,131.004179 Z" id="SUNWEB20" fill="#FFFFFF"></path>
            </g>
        </g>
    </g>
</svg>