<?xml version="1.0" encoding="UTF-8" standalone="no"?>
<svg width="180px" height="180px" viewBox="0 0 180 180" version="1.1" xmlns="http://www.w3.org/2000/svg" xmlns:xlink="http://www.w3.org/1999/xlink">
    <!-- Generator: Sketch 39.1 (31720) - http://www.bohemiancoding.com/sketch -->
    <title>roundel-example-four</title>
    <desc>Created with Sketch.</desc>
    <defs></defs>
    <g id="Templates" stroke="none" stroke-width="1" fill="none" fill-rule="evenodd">
        <g id="14-roundels" transform="translate(-228.000000, -2074.000000)">
            <g id="roundel-example-four" transform="translate(318.000000, 2164.000000) rotate(-5.000000) translate(-318.000000, -2164.000000) translate(228.000000, 2074.000000)">
                <path d="M179.552239,90 C179.552239,139.45791 139.45791,179.552239 90,179.552239 C40.5420896,179.552239 0.447761194,139.45791 0.447761194,90 C0.447761194,40.5420896 40.5420896,0.447761194 90,0.447761194 C139.45791,0.447761194 179.552239,40.5420896 179.552239,90 L179.552239,90 Z" id="Stroke-1" fill="#9B9B9B"></path>
                <path d="M34.6602985,101.545075 C34.6602985,104.410746 36.4943284,106.015522 38.958806,106.015522 C41.4232836,106.015522 43.2573134,104.410746 43.2573134,101.545075 L43.2573134,80.1671642 L43.3719403,80.1671642 L61.5402985,104.124179 C62.3426866,105.155821 64.0620896,106.015522 65.1510448,106.015522 C67.6155224,106.015522 69.4495522,104.410746 69.4495522,101.545075 L69.4495522,68.9910448 C69.4495522,66.1253731 67.6155224,64.520597 65.1510448,64.520597 C62.6865672,64.520597 60.8525373,66.1253731 60.8525373,68.9910448 L60.8525373,90.6555224 L60.7379104,90.6555224 L42.5695522,66.4119403 C41.8244776,65.3802985 40.0477612,64.520597 38.958806,64.520597 C36.4943284,64.520597 34.6602985,66.1253731 34.6602985,68.9910448 L34.6602985,101.545075 Z M73.3683582,101.373134 C73.3683582,103.952239 75.2597015,105.671642 77.7814925,105.671642 L92.5683582,105.671642 C95.2620896,105.671642 96.6376119,103.665672 96.6376119,101.717015 C96.6376119,99.7110448 95.319403,97.7623881 92.5683582,97.7623881 L81.9653731,97.7623881 L81.9653731,89.0507463 L91.3647761,89.0507463 C94.1158209,89.0507463 95.5486567,87.0447761 95.5486567,85.0961194 C95.5486567,83.0901493 94.1731343,81.1414925 91.3647761,81.1414925 L81.9653731,81.1414925 L81.9653731,72.7737313 L92.0525373,72.7737313 C94.7462687,72.7737313 96.121791,70.7677612 96.121791,68.8191045 C96.121791,66.8131343 94.8035821,64.8644776 92.0525373,64.8644776 L77.838806,64.8644776 C74.801194,64.8644776 73.3683582,66.9850746 73.3683582,69.8507463 L73.3683582,101.373134 Z M104.396418,101.545075 C104.969552,103.952239 106.860896,106.015522 110.070448,106.015522 C112.878806,106.015522 115.056716,104.181493 115.744478,101.831642 L122.392836,79.7086567 L122.507463,79.7086567 L129.155821,101.831642 C129.843582,104.181493 132.021493,106.015522 134.829851,106.015522 C138.039403,106.015522 139.930746,103.952239 140.503881,101.545075 L147.782687,70.2519403 C147.954627,69.5068657 148.01194,69.1056716 148.01194,68.3032836 C148.01194,66.4692537 146.464478,64.520597 143.942687,64.520597 C141.191642,64.520597 139.873433,66.1253731 139.357612,68.6471642 L134.48597,93.0053731 L134.371343,93.0053731 L126.920597,67.9020896 C126.290149,65.838806 124.570746,64.520597 122.450149,64.520597 C120.329552,64.520597 118.610149,65.838806 117.979701,67.9020896 L110.528955,93.0053731 L110.414328,93.0053731 L105.542687,68.6471642 C105.026866,66.1253731 103.708657,64.520597 100.957612,64.520597 C98.4358209,64.520597 96.8883582,66.4692537 96.8883582,68.3032836 C96.8883582,69.1056716 96.9456716,69.5068657 97.1176119,70.2519403 L104.396418,101.545075 Z" id="NEW" fill="#FFFFFF"></path>
            </g>
        </g>
    </g>
</svg>