<?xml version="1.0" encoding="UTF-8" standalone="no"?>
<svg width="180px" height="180px" viewBox="0 0 180 180" version="1.1" xmlns="http://www.w3.org/2000/svg" xmlns:xlink="http://www.w3.org/1999/xlink">
    <!-- Generator: Sketch 39.1 (31720) - http://www.bohemiancoding.com/sketch -->
    <title>roundel-inaccessible-ketchup-one</title>
    <desc>Created with Sketch.</desc>
    <defs></defs>
    <g id="Templates" stroke="none" stroke-width="1" fill="none" fill-rule="evenodd">
        <g id="14-roundels" transform="translate(-629.000000, -4974.000000)">
            <g id="roundel-inaccessible-ketchup-one" transform="translate(629.000000, 4973.895334)">
                <path d="M179.552239,90.0193032 C179.552239,139.487821 139.45791,179.590749 90,179.590749 C40.5420896,179.590749 0.447761194,139.487821 0.447761194,90.0193032 C0.447761194,40.550785 40.5420896,0.44785723 90,0.44785723 C139.45791,0.44785723 179.552239,40.550785 179.552239,90.0193032 L179.552239,90.0193032 Z" id="Stroke-1" fill="#E3231D"></path>
                <path d="M60.5258333,91.110478 L59.0482213,88.5487346 C58.1616542,87.0708058 57.7676243,85.1987626 57.7676243,83.3267193 C57.7676243,78.4002898 62.2989676,75.7400179 67.2243407,75.7400179 C77.4691169,75.7400179 77.1735945,86.0855199 83.8721019,86.0855199 C88.3049378,86.0855199 91.555684,83.1296622 91.555684,78.597347 C91.555684,68.8430165 80.4243407,61.5519008 66.633296,61.5519008 C53.236281,61.5519008 41.8094154,68.9415451 41.8094154,80.6664474 C41.8094154,83.4252479 43.0900124,88.6472632 44.3706094,91.110478 L42.3019527,91.110478 C38.1646393,91.110478 35.2094154,93.6722213 35.2094154,97.9089507 C35.2094154,102.14568 38.1646393,104.707423 42.3019527,104.707423 L47.4243407,104.707423 C47.4243407,116.924969 38.8541915,121.161698 38.8541915,125.20137 C38.8541915,129.930743 41.7109079,132.8866 46.5377736,132.8866 L85.152699,132.8866 C89.2900124,132.8866 92.2452363,130.324857 92.2452363,126.088128 C92.2452363,121.851398 89.2900124,119.289655 85.152699,119.289655 L57.7676243,119.289655 C60.9198631,114.954397 62.7915049,110.027967 62.7915049,104.707423 L75.4989676,104.707423 C79.636281,104.707423 82.5915049,102.14568 82.5915049,97.9089507 C82.5915049,93.6722213 79.636281,91.110478 75.4989676,91.110478 L60.5258333,91.110478 Z M121.555684,117.417612 L121.555684,125.792542 C121.555684,131.014557 123.624341,133.477772 128.648221,133.477772 C133.672102,133.477772 135.740759,131.014557 135.740759,125.792542 L135.740759,117.417612 L137.415386,117.417612 C141.257177,117.417612 144.310908,114.855868 144.310908,110.914725 C144.310908,106.973581 141.257177,104.411838 137.415386,104.411838 L135.740759,104.411838 L135.740759,74.1635604 C135.740759,65.1974587 130.125833,61.5519008 124.4124,61.5519008 C119.290012,61.5519008 116.531803,63.3254155 114.364639,67.2665591 L92.2989676,107.269167 C91.7079228,108.254453 90.9198631,109.436796 90.9198631,111.604425 C90.9198631,114.166168 92.9885198,117.417612 97.8153855,117.417612 L121.555684,117.417612 Z M121.555684,104.411838 L108.060162,104.411838 L121.358669,76.9223609 L121.555684,76.9223609 L121.555684,104.411838 Z" id="£4" fill="#575756" transform="translate(89.760162, 97.514836) rotate(-5.000000) translate(-89.760162, -97.514836) "></path>
                <path d="M32.5052796,45.945164 L36.481399,45.945164 C37.0187124,45.945164 37.4055781,45.6657011 37.4055781,45.063781 C37.4055781,44.4618609 37.0187124,44.182398 36.481399,44.182398 L32.5052796,44.182398 L32.5052796,39.1735627 L36.9972199,39.1735627 C37.5345333,39.1735627 37.921399,38.8940998 37.921399,38.2921797 C37.921399,37.6902596 37.5345333,37.4107967 36.9972199,37.4107967 L31.6240855,37.4107967 C30.9148318,37.4107967 30.6139363,37.8622367 30.6139363,38.4426597 L30.6139363,51.8353823 C30.6139363,52.4587996 30.9793094,52.8457482 31.5596079,52.8457482 C32.1399064,52.8457482 32.5052796,52.4587996 32.5052796,51.8353823 L32.5052796,45.945164 Z M38.4658766,51.8353823 C38.4658766,52.4587996 38.8312497,52.8457482 39.4115482,52.8457482 C39.9918467,52.8457482 40.3572199,52.4587996 40.3572199,51.8353823 L40.3572199,46.3966041 C40.3572199,44.182398 41.7327422,43.3440092 42.8503542,43.1505349 C43.6455781,43.0000549 44.0324437,42.6561005 44.0324437,42.1186719 C44.0324437,41.5812432 43.6455781,41.1513002 42.9793094,41.1513002 C41.88319,41.1513002 40.8300557,42.2476547 40.4002049,43.1290378 L40.3572199,43.1290378 L40.3572199,42.1616661 C40.3572199,41.5382489 39.9918467,41.1513002 39.4115482,41.1513002 C38.8312497,41.1513002 38.4658766,41.5382489 38.4658766,42.1616661 L38.4658766,51.8353823 Z M43.8461751,46.9985242 C43.8461751,50.029622 45.6515482,52.8457482 48.8754288,52.8457482 C52.0993094,52.8457482 53.9046825,50.029622 53.9046825,46.9985242 C53.9046825,43.9674265 52.0993094,41.1513002 48.8754288,41.1513002 C45.6515482,41.1513002 43.8461751,43.9674265 43.8461751,46.9985242 L43.8461751,46.9985242 Z M45.7375184,46.9985242 C45.7375184,45.063781 46.5542348,42.7850834 48.8754288,42.7850834 C51.1966228,42.7850834 52.0133393,45.063781 52.0133393,46.9985242 C52.0133393,48.9332675 51.1966228,51.211965 48.8754288,51.211965 C46.5542348,51.211965 45.7375184,48.9332675 45.7375184,46.9985242 L45.7375184,46.9985242 Z M61.7781154,51.8353823 C61.7781154,52.4587996 62.1434885,52.8457482 62.723787,52.8457482 C63.3040855,52.8457482 63.6694587,52.4587996 63.6694587,51.8353823 L63.6694587,45.4292325 C63.6694587,43.7954493 64.5721452,42.7850834 66.0981154,42.7850834 C67.6455781,42.7850834 68.5482646,43.7954493 68.5482646,45.4292325 L68.5482646,51.8353823 C68.5482646,52.4587996 68.9136378,52.8457482 69.4939363,52.8457482 C70.0742348,52.8457482 70.4396079,52.4587996 70.4396079,51.8353823 L70.4396079,45.4937239 C70.4396079,42.2691519 68.2258766,41.1513002 66.4634885,41.1513002 C64.8085631,41.1513002 63.7984139,41.8822032 62.9602049,43.0860435 C62.1005034,41.6242375 60.9399064,41.1513002 59.8222945,41.1513002 C58.1028915,41.1513002 57.3936378,41.9681918 56.9422945,42.5486148 L56.8993094,42.5056205 L56.8993094,42.1616661 C56.8993094,41.5382489 56.5339363,41.1513002 55.9536378,41.1513002 C55.3733393,41.1513002 55.0079661,41.5382489 55.0079661,42.1616661 L55.0079661,51.8353823 C55.0079661,52.4587996 55.3733393,52.8457482 55.9536378,52.8457482 C56.5339363,52.8457482 56.8993094,52.4587996 56.8993094,51.8353823 L56.8993094,45.4292325 C56.8993094,43.7954493 57.801996,42.7850834 59.3279661,42.7850834 C60.8754288,42.7850834 61.7781154,43.7954493 61.7781154,45.4292325 L61.7781154,51.8353823 Z M78.4061751,37.1313337 C78.4061751,36.5079165 78.0408019,36.1209678 77.4605034,36.1209678 C76.8802049,36.1209678 76.5148318,36.5079165 76.5148318,37.1313337 L76.5148318,51.8353823 C76.5148318,52.4587996 76.8802049,52.8457482 77.4605034,52.8457482 C78.0408019,52.8457482 78.4061751,52.4587996 78.4061751,51.8353823 L78.4061751,37.1313337 Z M88.321399,47.7294272 C89.1381154,47.7294272 89.3745333,47.3854729 89.3745333,46.7190613 C89.3745333,43.9674265 87.5691602,41.1513002 84.4527422,41.1513002 C81.2503542,41.1513002 79.3160258,43.9029351 79.3160258,46.9985242 C79.3160258,50.029622 80.9064736,52.8457482 84.5602049,52.8457482 C86.7954288,52.8457482 89.1381154,51.4269365 89.1381154,50.5025592 C89.1381154,49.9651305 88.7942348,49.6641705 88.4503542,49.6641705 C87.7411005,49.6641705 87.0963243,51.211965 84.5816975,51.211965 C82.4539363,51.211965 81.2073691,49.6856676 81.2073691,47.7294272 L88.321399,47.7294272 Z M81.2073691,46.3106155 C81.2718467,44.5693466 82.1100557,42.6990948 84.4527422,42.7850834 C86.5375184,42.7850834 87.48319,44.6768324 87.48319,46.3106155 L81.2073691,46.3106155 Z M90.0264736,44.3758723 C90.0264736,47.5574501 96.1303542,47.4284672 96.1303542,49.6641705 C96.1303542,50.4380678 95.2921452,51.211965 93.9166228,51.211965 C91.8533393,51.211965 91.1655781,49.8146505 90.3273691,49.8146505 C89.9190109,49.8146505 89.5536378,50.1586048 89.5536378,50.6745364 C89.5536378,51.641908 91.4449811,52.8457482 93.8521452,52.8457482 C95.9799064,52.8457482 98.0216975,51.7063994 98.0216975,49.3202161 C98.0216975,46.0096555 91.9178169,46.2246269 91.9178169,44.2253923 C91.9178169,43.2580206 92.841996,42.7850834 93.9166228,42.7850834 C95.721996,42.7850834 96.044384,43.9459294 96.8611005,43.9459294 C97.441399,43.9459294 97.7208019,43.5804779 97.7208019,43.1720321 C97.7208019,41.989689 95.4855781,41.1513002 93.9166228,41.1513002 C92.003787,41.1513002 90.0264736,42.2691519 90.0264736,44.3758723 L90.0264736,44.3758723 Z M98.6736378,44.3758723 C98.6736378,47.5574501 104.777518,47.4284672 104.777518,49.6641705 C104.777518,50.4380678 103.939309,51.211965 102.563787,51.211965 C100.500503,51.211965 99.8127422,49.8146505 98.9745333,49.8146505 C98.5661751,49.8146505 98.2008019,50.1586048 98.2008019,50.6745364 C98.2008019,51.641908 100.092145,52.8457482 102.499309,52.8457482 C104.627071,52.8457482 106.668862,51.7063994 106.668862,49.3202161 C106.668862,46.0096555 100.564981,46.2246269 100.564981,44.2253923 C100.564981,43.2580206 101.48916,42.7850834 102.563787,42.7850834 C104.36916,42.7850834 104.691548,43.9459294 105.508265,43.9459294 C106.088563,43.9459294 106.367966,43.5804779 106.367966,43.1720321 C106.367966,41.989689 104.132742,41.1513002 102.563787,41.1513002 C100.650951,41.1513002 98.6736378,42.2691519 98.6736378,44.3758723 L98.6736378,44.3758723 Z M112.658115,41.2802831 L111.884384,41.2802831 C111.2611,41.2802831 110.938712,41.5812432 110.938712,42.0971747 C110.938712,42.6131062 111.2611,42.9140663 111.884384,42.9140663 L112.658115,42.9140663 L112.658115,51.8353823 C112.658115,52.4587996 113.023489,52.8457482 113.603787,52.8457482 C114.184086,52.8457482 114.549459,52.4587996 114.549459,51.8353823 L114.549459,42.9140663 L115.32319,42.9140663 C115.946474,42.9140663 116.268862,42.6131062 116.268862,42.0971747 C116.268862,41.5812432 115.946474,41.2802831 115.32319,41.2802831 L114.549459,41.2802831 L114.549459,38.8081112 C114.549459,38.1846939 114.184086,37.7977453 113.603787,37.7977453 C113.023489,37.7977453 112.658115,38.1846939 112.658115,38.8081112 L112.658115,41.2802831 Z M123.927369,51.8353823 C123.927369,52.4587996 124.292742,52.8457482 124.873041,52.8457482 C125.453339,52.8457482 125.818712,52.4587996 125.818712,51.8353823 L125.818712,45.4937239 C125.818712,42.2691519 123.604981,41.1513002 121.842593,41.1513002 C120.703489,41.1513002 119.521399,41.5812432 118.68319,42.6561005 L118.640205,42.6131062 L118.640205,37.1313337 C118.640205,36.5079165 118.274832,36.1209678 117.694533,36.1209678 C117.114235,36.1209678 116.748862,36.5079165 116.748862,37.1313337 L116.748862,51.8353823 C116.748862,52.4587996 117.114235,52.8457482 117.694533,52.8457482 C118.274832,52.8457482 118.640205,52.4587996 118.640205,51.8353823 L118.640205,45.6012097 C118.640205,43.601975 120.03722,42.7850834 121.283787,42.7850834 C122.530354,42.7850834 123.927369,43.601975 123.927369,45.6012097 L123.927369,51.8353823 Z M136.873041,42.0756776 C136.873041,41.409266 136.35722,41.1513002 135.991847,41.1513002 C135.604981,41.1513002 135.110653,41.409266 135.110653,42.0756776 L135.110653,42.6775977 L135.067668,42.6775977 C134.186474,41.7102261 133.262294,41.1513002 131.95125,41.1513002 C128.727369,41.1513002 126.921996,43.9674265 126.921996,46.9985242 C126.921996,50.029622 128.727369,52.8457482 131.95125,52.8457482 C133.176324,52.8457482 134.250951,52.2868224 135.067668,51.1259765 L135.110653,51.1259765 L135.110653,51.9213709 C135.110653,52.5877825 135.604981,52.8457482 135.991847,52.8457482 C136.35722,52.8457482 136.873041,52.5877825 136.873041,51.9213709 L136.873041,42.0756776 Z M128.813339,46.9985242 C128.813339,45.063781 129.630056,42.7850834 131.95125,42.7850834 C134.272444,42.7850834 135.08916,45.063781 135.08916,46.9985242 C135.08916,48.9332675 134.272444,51.211965 131.95125,51.211965 C129.630056,51.211965 128.813339,48.9332675 128.813339,46.9985242 L128.813339,46.9985242 Z M138.470653,51.8353823 C138.470653,52.4587996 138.836026,52.8457482 139.416324,52.8457482 C139.996623,52.8457482 140.361996,52.4587996 140.361996,51.8353823 L140.361996,45.6012097 C140.361996,43.601975 141.759011,42.7850834 143.005578,42.7850834 C144.252145,42.7850834 145.64916,43.601975 145.64916,45.6012097 L145.64916,51.8353823 C145.64916,52.4587996 146.014533,52.8457482 146.594832,52.8457482 C147.17513,52.8457482 147.540503,52.4587996 147.540503,51.8353823 L147.540503,45.4937239 C147.540503,42.2691519 145.326772,41.1513002 143.564384,41.1513002 C142.42528,41.1513002 141.24319,41.5812432 140.404981,42.6561005 L140.361996,42.6131062 L140.361996,42.1616661 C140.361996,41.5382489 139.996623,41.1513002 139.416324,41.1513002 C138.836026,41.1513002 138.470653,41.5382489 138.470653,42.1616661 L138.470653,51.8353823 Z" id="From-less-than" fill="#575756" transform="translate(89.077220, 44.483358) rotate(-5.000000) translate(-89.077220, -44.483358) "></path>
                <path d="M67.0198138,147.64878 C67.0198138,146.982368 66.5039929,146.724402 66.1386198,146.724402 C65.7517541,146.724402 65.2574257,146.982368 65.2574257,147.64878 L65.2574257,148.2507 L65.2144407,148.2507 C64.3332466,147.283328 63.4090675,146.724402 62.0980228,146.724402 C58.8741422,146.724402 57.068769,149.540529 57.068769,152.571626 C57.068769,155.602724 58.8741422,158.41885 62.0980228,158.41885 C63.3230974,158.41885 64.3977242,157.859924 65.2144407,156.699078 L65.2574257,156.699078 L65.2574257,157.494473 C65.2574257,158.160884 65.7517541,158.41885 66.1386198,158.41885 C66.5039929,158.41885 67.0198138,158.160884 67.0198138,157.494473 L67.0198138,147.64878 Z M58.9601123,152.571626 C58.9601123,150.636883 59.7768287,148.358185 62.0980228,148.358185 C64.4192168,148.358185 65.2359332,150.636883 65.2359332,152.571626 C65.2359332,154.506369 64.4192168,156.785067 62.0980228,156.785067 C59.7768287,156.785067 58.9601123,154.506369 58.9601123,152.571626 L58.9601123,152.571626 Z M81.6562317,157.408484 C81.6562317,158.031902 82.0216048,158.41885 82.6019033,158.41885 C83.1822019,158.41885 83.547575,158.031902 83.547575,157.408484 L83.547575,151.002335 C83.547575,149.368551 84.4502616,148.358185 85.9762317,148.358185 C87.5236944,148.358185 88.426381,149.368551 88.426381,151.002335 L88.426381,157.408484 C88.426381,158.031902 88.7917541,158.41885 89.3720526,158.41885 C89.9523511,158.41885 90.3177242,158.031902 90.3177242,157.408484 L90.3177242,151.066826 C90.3177242,147.842254 88.1039929,146.724402 86.3416048,146.724402 C84.6866795,146.724402 83.6765302,147.455305 82.8383213,148.659145 C81.9786198,147.197339 80.8180228,146.724402 79.7004108,146.724402 C77.9810078,146.724402 77.2717541,147.541294 76.8204108,148.121717 L76.7774257,148.078723 L76.7774257,147.734768 C76.7774257,147.111351 76.4120526,146.724402 75.8317541,146.724402 C75.2514556,146.724402 74.8860825,147.111351 74.8860825,147.734768 L74.8860825,157.408484 C74.8860825,158.031902 75.2514556,158.41885 75.8317541,158.41885 C76.4120526,158.41885 76.7774257,158.031902 76.7774257,157.408484 L76.7774257,151.002335 C76.7774257,149.368551 77.6801123,148.358185 79.2060825,148.358185 C80.7535451,148.358185 81.6562317,149.368551 81.6562317,151.002335 L81.6562317,157.408484 Z M92.3165302,152.571626 C92.3165302,155.602724 94.1219033,158.41885 97.3457839,158.41885 C100.569665,158.41885 102.375038,155.602724 102.375038,152.571626 C102.375038,149.540529 100.569665,146.724402 97.3457839,146.724402 C94.1219033,146.724402 92.3165302,149.540529 92.3165302,152.571626 L92.3165302,152.571626 Z M94.2078735,152.571626 C94.2078735,150.636883 95.0245899,148.358185 97.3457839,148.358185 C99.666978,148.358185 100.483694,150.636883 100.483694,152.571626 C100.483694,154.506369 99.666978,156.785067 97.3457839,156.785067 C95.0245899,156.785067 94.2078735,154.506369 94.2078735,152.571626 L94.2078735,152.571626 Z M104.373844,157.408484 C104.373844,158.031902 104.739217,158.41885 105.319515,158.41885 C105.899814,158.41885 106.265187,158.031902 106.265187,157.408484 L106.265187,151.174312 C106.265187,149.175077 107.662202,148.358185 108.908769,148.358185 C110.155336,148.358185 111.552351,149.175077 111.552351,151.174312 L111.552351,157.408484 C111.552351,158.031902 111.917724,158.41885 112.498023,158.41885 C113.078321,158.41885 113.443694,158.031902 113.443694,157.408484 L113.443694,151.066826 C113.443694,147.842254 111.229963,146.724402 109.467575,146.724402 C108.328471,146.724402 107.146381,147.154345 106.308172,148.229203 L106.265187,148.186208 L106.265187,147.734768 C106.265187,147.111351 105.899814,146.724402 105.319515,146.724402 C104.739217,146.724402 104.373844,147.111351 104.373844,147.734768 L104.373844,157.408484 Z M116.53862,146.853385 L115.764888,146.853385 C115.141605,146.853385 114.819217,147.154345 114.819217,147.670277 C114.819217,148.186208 115.141605,148.487168 115.764888,148.487168 L116.53862,148.487168 L116.53862,157.408484 C116.53862,158.031902 116.903993,158.41885 117.484291,158.41885 C118.06459,158.41885 118.429963,158.031902 118.429963,157.408484 L118.429963,148.487168 L119.203694,148.487168 C119.826978,148.487168 120.149366,148.186208 120.149366,147.670277 C120.149366,147.154345 119.826978,146.853385 119.203694,146.853385 L118.429963,146.853385 L118.429963,144.381213 C118.429963,143.757796 118.06459,143.370847 117.484291,143.370847 C116.903993,143.370847 116.53862,143.757796 116.53862,144.381213 L116.53862,146.853385 Z M128.703396,157.408484 C128.703396,158.031902 129.068769,158.41885 129.649068,158.41885 C130.229366,158.41885 130.594739,158.031902 130.594739,157.408484 L130.594739,151.066826 C130.594739,147.842254 128.381008,146.724402 126.61862,146.724402 C125.479515,146.724402 124.297426,147.154345 123.459217,148.229203 L123.416232,148.186208 L123.416232,142.704436 C123.416232,142.081018 123.050859,141.69407 122.47056,141.69407 C121.890262,141.69407 121.524888,142.081018 121.524888,142.704436 L121.524888,157.408484 C121.524888,158.031902 121.890262,158.41885 122.47056,158.41885 C123.050859,158.41885 123.416232,158.031902 123.416232,157.408484 L123.416232,151.174312 C123.416232,149.175077 124.813247,148.358185 126.059814,148.358185 C127.306381,148.358185 128.703396,149.175077 128.703396,151.174312 L128.703396,157.408484 Z" id="a-month" fill="#575756" transform="translate(93.831754, 150.056460) rotate(-5.000000) translate(-93.831754, -150.056460) "></path>
            </g>
        </g>
    </g>
</svg>