<?xml version="1.0" encoding="UTF-8" standalone="no"?>
<svg width="180px" height="180px" viewBox="0 0 180 180" version="1.1" xmlns="http://www.w3.org/2000/svg" xmlns:xlink="http://www.w3.org/1999/xlink">
    <!-- Generator: Sketch 39.1 (31720) - http://www.bohemiancoding.com/sketch -->
    <title>roundel-example-five</title>
    <desc>Created with Sketch.</desc>
    <defs></defs>
    <g id="Templates" stroke="none" stroke-width="1" fill="none" fill-rule="evenodd">
        <g id="14-roundels" transform="translate(-428.000000, -2074.000000)">
            <g id="roundel-example-five" transform="translate(518.000000, 2164.000000) rotate(-5.000000) translate(-518.000000, -2164.000000) translate(428.000000, 2074.000000)">
                <path d="M179.552239,90 C179.552239,139.45791 139.45791,179.552239 90,179.552239 C40.5420896,179.552239 0.447761194,139.45791 0.447761194,90 C0.447761194,40.5420896 40.5420896,0.447761194 90,0.447761194 C139.45791,0.447761194 179.552239,40.5420896 179.552239,90 L179.552239,90 Z" id="Stroke-1" fill="#9B9B9B"></path>
                <path d="M29.3516418,87.1808955 C31.7158209,87.1808955 33.2632836,88.7713433 33.2632836,91.479403 C33.2632836,93.6716418 31.801791,95.7779104 29.3516418,95.7779104 C26.7295522,95.7779104 25.44,93.6716418 25.44,91.479403 C25.44,89.0722388 26.8585075,87.1808955 29.3516418,87.1808955 L29.3516418,87.1808955 Z M29.3516418,101.709851 C35.1116418,101.709851 39.9689552,97.8841791 39.9689552,91.9092537 C39.9689552,88.599403 38.2925373,85.9343284 35.3695522,84.4728358 C37.4758209,83.1402985 38.679403,80.7331343 38.679403,78.3259701 C38.679403,73.2537313 34.3379104,70.0728358 29.3516418,70.0728358 C24.2364179,70.0728358 20.0668657,73.2967164 20.0668657,78.3259701 C20.0668657,81.0340299 21.3134328,83.0113433 23.3337313,84.4728358 C20.6256716,85.9343284 18.7343284,88.4704478 18.7343284,91.9092537 C18.7343284,97.6692537 23.4197015,101.709851 29.3516418,101.709851 L29.3516418,101.709851 Z M29.3516418,75.7468657 C31.3719403,75.7468657 32.4895522,77.1653731 32.4895522,79.0137313 C32.4895522,80.9480597 31.3289552,82.280597 29.3516418,82.280597 C27.3743284,82.280597 26.2567164,80.9480597 26.2567164,79.0137313 C26.2567164,77.1653731 27.3313433,75.7468657 29.3516418,75.7468657 L29.3516418,75.7468657 Z M53.1295522,87.1808955 C55.4937313,87.1808955 57.041194,88.7713433 57.041194,91.479403 C57.041194,93.6716418 55.5797015,95.7779104 53.1295522,95.7779104 C50.5074627,95.7779104 49.2179104,93.6716418 49.2179104,91.479403 C49.2179104,89.0722388 50.6364179,87.1808955 53.1295522,87.1808955 L53.1295522,87.1808955 Z M53.1295522,101.709851 C58.8895522,101.709851 63.7468657,97.8841791 63.7468657,91.9092537 C63.7468657,88.599403 62.0704478,85.9343284 59.1474627,84.4728358 C61.2537313,83.1402985 62.4573134,80.7331343 62.4573134,78.3259701 C62.4573134,73.2537313 58.1158209,70.0728358 53.1295522,70.0728358 C48.0143284,70.0728358 43.8447761,73.2967164 43.8447761,78.3259701 C43.8447761,81.0340299 45.0913433,83.0113433 47.1116418,84.4728358 C44.4035821,85.9343284 42.5122388,88.4704478 42.5122388,91.9092537 C42.5122388,97.6692537 47.1976119,101.709851 53.1295522,101.709851 L53.1295522,101.709851 Z M53.1295522,75.7468657 C55.1498507,75.7468657 56.2674627,77.1653731 56.2674627,79.0137313 C56.2674627,80.9480597 55.1068657,82.280597 53.1295522,82.280597 C51.1522388,82.280597 50.0346269,80.9480597 50.0346269,79.0137313 C50.0346269,77.1653731 51.1092537,75.7468657 53.1295522,75.7468657 L53.1295522,75.7468657 Z M76.9074627,95.8638806 C72.5229851,95.8638806 72.2220896,88.9432836 72.2220896,85.8913433 C72.2220896,82.6244776 72.5229851,75.918806 76.9074627,75.918806 C81.2919403,75.918806 81.5928358,82.6244776 81.5928358,85.8913433 C81.5928358,88.9432836 81.2919403,95.8638806 76.9074627,95.8638806 L76.9074627,95.8638806 Z M76.9074627,101.709851 C85.5904478,101.709851 88.2985075,92.8979104 88.2985075,85.8913433 C88.2985075,78.8847761 85.5904478,70.0728358 76.9074627,70.0728358 C68.2244776,70.0728358 65.5164179,78.8847761 65.5164179,85.8913433 C65.5164179,92.8979104 68.2244776,101.709851 76.9074627,101.709851 L76.9074627,101.709851 Z M96.9026866,99.0447761 C97.160597,98.4859701 97.4614925,97.9271642 97.4614925,97.3253731 C97.4614925,95.7779104 96.0429851,94.4883582 94.4955224,94.4883582 C93.8077612,94.4883582 92.561194,94.961194 92.0023881,95.9498507 L88.4346269,102.397612 C88.1767164,102.956418 87.918806,103.515224 87.918806,104.117015 C87.918806,105.664478 89.2943284,106.95403 90.841791,106.95403 C91.5295522,106.95403 92.7761194,106.481194 93.2919403,105.492537 L96.9026866,99.0447761 Z M111.309851,95.8638806 C106.925373,95.8638806 106.624478,88.9432836 106.624478,85.8913433 C106.624478,82.6244776 106.925373,75.918806 111.309851,75.918806 C115.694328,75.918806 115.995224,82.6244776 115.995224,85.8913433 C115.995224,88.9432836 115.694328,95.8638806 111.309851,95.8638806 L111.309851,95.8638806 Z M111.309851,101.709851 C119.992836,101.709851 122.700896,92.8979104 122.700896,85.8913433 C122.700896,78.8847761 119.992836,70.0728358 111.309851,70.0728358 C102.626866,70.0728358 99.918806,78.8847761 99.918806,85.8913433 C99.918806,92.8979104 102.626866,101.709851 111.309851,101.709851 L111.309851,101.709851 Z M135.087761,95.8638806 C130.703284,95.8638806 130.402388,88.9432836 130.402388,85.8913433 C130.402388,82.6244776 130.703284,75.918806 135.087761,75.918806 C139.472239,75.918806 139.773134,82.6244776 139.773134,85.8913433 C139.773134,88.9432836 139.472239,95.8638806 135.087761,95.8638806 L135.087761,95.8638806 Z M135.087761,101.709851 C143.770746,101.709851 146.478806,92.8979104 146.478806,85.8913433 C146.478806,78.8847761 143.770746,70.0728358 135.087761,70.0728358 C126.404776,70.0728358 123.696716,78.8847761 123.696716,85.8913433 C123.696716,92.8979104 126.404776,101.709851 135.087761,101.709851 L135.087761,101.709851 Z M158.865672,95.8638806 C154.481194,95.8638806 154.180299,88.9432836 154.180299,85.8913433 C154.180299,82.6244776 154.481194,75.918806 158.865672,75.918806 C163.250149,75.918806 163.551045,82.6244776 163.551045,85.8913433 C163.551045,88.9432836 163.250149,95.8638806 158.865672,95.8638806 L158.865672,95.8638806 Z M158.865672,101.709851 C167.548657,101.709851 170.256716,92.8979104 170.256716,85.8913433 C170.256716,78.8847761 167.548657,70.0728358 158.865672,70.0728358 C150.182687,70.0728358 147.474627,78.8847761 147.474627,85.8913433 C147.474627,92.8979104 150.182687,101.709851 158.865672,101.709851 L158.865672,101.709851 Z" id="880,000" fill="#FFFFFF"></path>
                <path d="M47.6111927,43.4364179 L47.6541778,43.4364179 L51.3079091,55.7731343 C51.5013419,56.3964179 51.8452225,56.5468657 52.2750733,56.5468657 C52.704924,56.5468657 53.0488046,56.3964179 53.2422375,55.7731343 L56.8959688,43.4364179 L56.9389539,43.4364179 L58.7228345,55.7301493 C58.8088046,56.3964179 59.2386554,56.5468657 59.7329837,56.5468657 C60.3132822,56.5468657 60.6141778,56.16 60.6141778,55.5797015 C60.6141778,55.3647761 60.5711927,55.0853731 60.5067151,54.72 L58.421939,42.4262687 C58.2285061,41.3516418 57.6267151,40.9862687 56.9389539,40.9862687 C56.1867151,40.9862687 55.7783569,41.2656716 55.5634315,41.9749254 L52.2965658,53.1725373 L52.2535807,53.1725373 L48.9867151,41.9749254 C48.7717897,41.2656716 48.3634315,40.9862687 47.6111927,40.9862687 C46.9234315,40.9862687 46.3216404,41.3516418 46.1282076,42.4262687 L44.0434315,54.72 C43.9789539,55.0853731 43.9359688,55.3647761 43.9359688,55.5797015 C43.9359688,56.16 44.2368643,56.5468657 44.8171628,56.5468657 C45.3114912,56.5468657 45.7413419,56.3964179 45.8273121,55.7301493 L47.6111927,43.4364179 Z M61.9897001,50.7008955 C61.9897001,53.7313433 63.7950733,56.5468657 67.0189539,56.5468657 C70.2428345,56.5468657 72.0482076,53.7313433 72.0482076,50.7008955 C72.0482076,47.6704478 70.2428345,44.8549254 67.0189539,44.8549254 C63.7950733,44.8549254 61.9897001,47.6704478 61.9897001,50.7008955 L61.9897001,50.7008955 Z M63.8810434,50.7008955 C63.8810434,48.7665672 64.6977598,46.4883582 67.0189539,46.4883582 C69.3401479,46.4883582 70.1568643,48.7665672 70.1568643,50.7008955 C70.1568643,52.6352239 69.3401479,54.9134328 67.0189539,54.9134328 C64.6977598,54.9134328 63.8810434,52.6352239 63.8810434,50.7008955 L63.8810434,50.7008955 Z M74.0470136,55.5367164 C74.0470136,56.16 74.4123867,56.5468657 74.9926852,56.5468657 C75.5729837,56.5468657 75.9383569,56.16 75.9383569,55.5367164 L75.9383569,50.0991045 C75.9383569,47.8853731 77.3138793,47.0471642 78.4314912,46.8537313 C79.2267151,46.7032836 79.6135807,46.359403 79.6135807,45.8220896 C79.6135807,45.2847761 79.2267151,44.8549254 78.5604464,44.8549254 C77.464327,44.8549254 76.4111927,45.9510448 75.9813419,46.8322388 L75.9383569,46.8322388 L75.9383569,45.8650746 C75.9383569,45.241791 75.5729837,44.8549254 74.9926852,44.8549254 C74.4123867,44.8549254 74.0470136,45.241791 74.0470136,45.8650746 L74.0470136,55.5367164 Z M89.1347748,51.4316418 C89.9514912,51.4316418 90.1879091,51.0877612 90.1879091,50.4214925 C90.1879091,47.6704478 88.382536,44.8549254 85.2661181,44.8549254 C82.06373,44.8549254 80.1294016,47.6059701 80.1294016,50.7008955 C80.1294016,53.7313433 81.7198494,56.5468657 85.3735807,56.5468657 C87.6088046,56.5468657 89.9514912,55.1283582 89.9514912,54.2041791 C89.9514912,53.6668657 89.6076106,53.3659701 89.26373,53.3659701 C88.5544763,53.3659701 87.9097001,54.9134328 85.3950733,54.9134328 C83.2673121,54.9134328 82.0207449,53.3874627 82.0207449,51.4316418 L89.1347748,51.4316418 Z M82.0207449,50.0131343 C82.0852225,48.2722388 82.9234315,46.4023881 85.2661181,46.4883582 C87.3508942,46.4883582 88.2965658,48.3797015 88.2965658,50.0131343 L82.0207449,50.0131343 Z M97.9682076,44.9838806 L97.1944763,44.9838806 C96.5711927,44.9838806 96.2488046,45.2847761 96.2488046,45.800597 C96.2488046,46.3164179 96.5711927,46.6173134 97.1944763,46.6173134 L97.9682076,46.6173134 L97.9682076,55.5367164 C97.9682076,56.16 98.3335807,56.5468657 98.9138793,56.5468657 C99.4941778,56.5468657 99.8595509,56.16 99.8595509,55.5367164 L99.8595509,46.6173134 L100.633282,46.6173134 C101.256566,46.6173134 101.578954,46.3164179 101.578954,45.800597 C101.578954,45.2847761 101.256566,44.9838806 100.633282,44.9838806 L99.8595509,44.9838806 L99.8595509,42.5122388 C99.8595509,41.8889552 99.4941778,41.5020896 98.9138793,41.5020896 C98.3335807,41.5020896 97.9682076,41.8889552 97.9682076,42.5122388 L97.9682076,44.9838806 Z M110.132984,55.5367164 C110.132984,56.16 110.498357,56.5468657 111.078655,56.5468657 C111.658954,56.5468657 112.024327,56.16 112.024327,55.5367164 L112.024327,49.1964179 C112.024327,45.9725373 109.810596,44.8549254 108.048208,44.8549254 C106.909103,44.8549254 105.727014,45.2847761 104.888805,46.359403 L104.84582,46.3164179 L104.84582,40.8358209 C104.84582,40.2125373 104.480446,39.8256716 103.900148,39.8256716 C103.319849,39.8256716 102.954476,40.2125373 102.954476,40.8358209 L102.954476,55.5367164 C102.954476,56.16 103.319849,56.5468657 103.900148,56.5468657 C104.480446,56.5468657 104.84582,56.16 104.84582,55.5367164 L104.84582,49.3038806 C104.84582,47.3050746 106.242834,46.4883582 107.489402,46.4883582 C108.735969,46.4883582 110.132984,47.3050746 110.132984,49.3038806 L110.132984,55.5367164 Z M123.974178,45.7791045 C123.974178,45.1128358 123.458357,44.8549254 123.092984,44.8549254 C122.706118,44.8549254 122.21179,45.1128358 122.21179,45.7791045 L122.21179,46.3808955 L122.168805,46.3808955 C121.287611,45.4137313 120.363431,44.8549254 119.052387,44.8549254 C115.828506,44.8549254 114.023133,47.6704478 114.023133,50.7008955 C114.023133,53.7313433 115.828506,56.5468657 119.052387,56.5468657 C120.277461,56.5468657 121.352088,55.9880597 122.168805,54.8274627 L122.21179,54.8274627 L122.21179,55.6226866 C122.21179,56.2889552 122.706118,56.5468657 123.092984,56.5468657 C123.458357,56.5468657 123.974178,56.2889552 123.974178,55.6226866 L123.974178,45.7791045 Z M115.914476,50.7008955 C115.914476,48.7665672 116.731193,46.4883582 119.052387,46.4883582 C121.373581,46.4883582 122.190297,48.7665672 122.190297,50.7008955 C122.190297,52.6352239 121.373581,54.9134328 119.052387,54.9134328 C116.731193,54.9134328 115.914476,52.6352239 115.914476,50.7008955 L115.914476,50.7008955 Z M126.467312,55.5367164 C126.467312,56.16 126.832685,56.5468657 127.412984,56.5468657 C127.993282,56.5468657 128.358655,56.16 128.358655,55.5367164 L128.358655,49.3038806 C128.358655,47.3050746 129.75567,46.4883582 131.002237,46.4883582 C132.248805,46.4883582 133.64582,47.3050746 133.64582,49.3038806 L133.64582,55.5367164 C133.64582,56.16 134.011193,56.5468657 134.591491,56.5468657 C135.17179,56.5468657 135.537163,56.16 135.537163,55.5367164 L135.537163,49.1964179 C135.537163,45.9725373 133.323431,44.8549254 131.561043,44.8549254 C130.421939,44.8549254 129.239849,45.2847761 128.40164,46.359403 L128.358655,46.3164179 L128.358655,45.8650746 C128.358655,45.241791 127.993282,44.8549254 127.412984,44.8549254 C126.832685,44.8549254 126.467312,45.241791 126.467312,45.8650746 L126.467312,55.5367164 Z" id="More-than" fill="#FFFFFF"></path>
                <path d="M31.1856716,124.133731 C31.1856716,122.199403 32.0023881,119.921194 34.3235821,119.921194 C36.6447761,119.921194 37.4614925,122.199403 37.4614925,124.133731 C37.4614925,126.06806 36.6447761,128.346269 34.3235821,128.346269 C32.0023881,128.346269 31.1856716,126.06806 31.1856716,124.133731 L31.1856716,124.133731 Z M29.4877612,133.482985 C29.4877612,134.106269 29.8531343,134.493134 30.4334328,134.493134 C31.0137313,134.493134 31.3791045,134.106269 31.3791045,133.482985 L31.3791045,128.432239 L31.4220896,128.432239 C31.9164179,129.141493 32.9695522,129.979701 34.4740299,129.979701 C37.5689552,129.979701 39.3528358,127.164179 39.3528358,124.133731 C39.3528358,121.103284 37.5689552,118.287761 34.4740299,118.287761 C32.9695522,118.287761 31.959403,118.825075 31.4220896,119.856716 L31.3791045,119.856716 L31.3791045,119.29791 C31.3791045,118.674627 31.0137313,118.287761 30.4334328,118.287761 C29.8531343,118.287761 29.4877612,118.674627 29.4877612,119.29791 L29.4877612,133.482985 Z M40.8573134,124.133731 C40.8573134,127.164179 42.6626866,129.979701 45.8865672,129.979701 C49.1104478,129.979701 50.9158209,127.164179 50.9158209,124.133731 C50.9158209,121.103284 49.1104478,118.287761 45.8865672,118.287761 C42.6626866,118.287761 40.8573134,121.103284 40.8573134,124.133731 L40.8573134,124.133731 Z M42.7486567,124.133731 C42.7486567,122.199403 43.5653731,119.921194 45.8865672,119.921194 C48.2077612,119.921194 49.0244776,122.199403 49.0244776,124.133731 C49.0244776,126.06806 48.2077612,128.346269 45.8865672,128.346269 C43.5653731,128.346269 42.7486567,126.06806 42.7486567,124.133731 L42.7486567,124.133731 Z M54.8059701,114.268657 C54.8059701,113.645373 54.440597,113.258507 53.8602985,113.258507 C53.28,113.258507 52.9146269,113.645373 52.9146269,114.268657 L52.9146269,128.969552 C52.9146269,129.592836 53.28,129.979701 53.8602985,129.979701 C54.440597,129.979701 54.8059701,129.592836 54.8059701,128.969552 L54.8059701,114.268657 Z M59.1904478,119.29791 C59.1904478,118.674627 58.8250746,118.287761 58.2447761,118.287761 C57.6644776,118.287761 57.2991045,118.674627 57.2991045,119.29791 L57.2991045,128.969552 C57.2991045,129.592836 57.6644776,129.979701 58.2447761,129.979701 C58.8250746,129.979701 59.1904478,129.592836 59.1904478,128.969552 L59.1904478,119.29791 Z M57.0841791,115.579701 C57.0841791,116.224478 57.6,116.740299 58.2447761,116.740299 C58.8895522,116.740299 59.4053731,116.224478 59.4053731,115.579701 C59.4053731,114.934925 58.8895522,114.419104 58.2447761,114.419104 C57.6,114.419104 57.0841791,114.934925 57.0841791,115.579701 L57.0841791,115.579701 Z M61.1892537,124.133731 C61.1892537,127.164179 62.8656716,129.979701 66.3474627,129.979701 C68.3032836,129.979701 69.3564179,129.20597 69.3564179,128.496716 C69.3564179,127.980896 69.0555224,127.701493 68.6256716,127.701493 C68.0238806,127.701493 67.68,128.346269 66.3474627,128.346269 C64.0047761,128.346269 63.080597,126.06806 63.080597,124.133731 C63.080597,122.199403 64.0047761,119.921194 66.3474627,119.921194 C67.6370149,119.921194 67.9164179,120.522985 68.6471642,120.522985 C69.0985075,120.522985 69.4208955,120.114627 69.4208955,119.727761 C69.4208955,118.95403 68.281791,118.287761 66.3474627,118.287761 C62.8656716,118.287761 61.1892537,121.103284 61.1892537,124.133731 L61.1892537,124.133731 Z M73.8268657,129.442388 L72.6232836,132.644776 C72.3868657,133.289552 72.3438806,133.482985 72.3438806,133.69791 C72.3438806,134.170746 72.7737313,134.493134 73.2035821,134.493134 C73.6764179,134.493134 73.9773134,134.192239 74.1277612,133.783881 L78.8991045,120.136119 C79.1140299,119.491343 79.1570149,119.29791 79.1570149,119.082985 C79.1570149,118.610149 78.7271642,118.287761 78.2973134,118.287761 C77.8244776,118.287761 77.5235821,118.588657 77.3946269,118.997015 L74.8155224,126.841791 L74.7725373,126.841791 L72.1504478,118.997015 C72.0214925,118.588657 71.6776119,118.287761 71.2047761,118.287761 C70.7749254,118.287761 70.3450746,118.610149 70.3450746,119.082985 C70.3450746,119.29791 70.3880597,119.491343 70.6029851,120.136119 L73.8268657,129.442388 Z M93.320597,128.969552 C93.320597,129.592836 93.6859701,129.979701 94.2662687,129.979701 C94.8465672,129.979701 95.2119403,129.592836 95.2119403,128.969552 L95.2119403,122.629254 C95.2119403,119.405373 92.998209,118.287761 91.2358209,118.287761 C90.0967164,118.287761 88.9146269,118.717612 88.0764179,119.792239 L88.0334328,119.749254 L88.0334328,114.268657 C88.0334328,113.645373 87.6680597,113.258507 87.0877612,113.258507 C86.5074627,113.258507 86.1420896,113.645373 86.1420896,114.268657 L86.1420896,128.969552 C86.1420896,129.592836 86.5074627,129.979701 87.0877612,129.979701 C87.6680597,129.979701 88.0334328,129.592836 88.0334328,128.969552 L88.0334328,122.736716 C88.0334328,120.73791 89.4304478,119.921194 90.6770149,119.921194 C91.9235821,119.921194 93.320597,120.73791 93.320597,122.736716 L93.320597,128.969552 Z M97.2107463,124.133731 C97.2107463,127.164179 99.0161194,129.979701 102.24,129.979701 C105.463881,129.979701 107.269254,127.164179 107.269254,124.133731 C107.269254,121.103284 105.463881,118.287761 102.24,118.287761 C99.0161194,118.287761 97.2107463,121.103284 97.2107463,124.133731 L97.2107463,124.133731 Z M99.1020896,124.133731 C99.1020896,122.199403 99.918806,119.921194 102.24,119.921194 C104.561194,119.921194 105.37791,122.199403 105.37791,124.133731 C105.37791,126.06806 104.561194,128.346269 102.24,128.346269 C99.918806,128.346269 99.1020896,126.06806 99.1020896,124.133731 L99.1020896,124.133731 Z M111.159403,114.268657 C111.159403,113.645373 110.79403,113.258507 110.213731,113.258507 C109.633433,113.258507 109.26806,113.645373 109.26806,114.268657 L109.26806,128.969552 C109.26806,129.592836 109.633433,129.979701 110.213731,129.979701 C110.79403,129.979701 111.159403,129.592836 111.159403,128.969552 L111.159403,114.268657 Z M121.325373,124.133731 C121.325373,126.06806 120.508657,128.346269 118.187463,128.346269 C115.866269,128.346269 115.049552,126.06806 115.049552,124.133731 C115.049552,122.199403 115.866269,119.921194 118.187463,119.921194 C120.508657,119.921194 121.325373,122.199403 121.325373,124.133731 L121.325373,124.133731 Z M121.13194,128.969552 C121.13194,129.592836 121.497313,129.979701 122.077612,129.979701 C122.65791,129.979701 123.023284,129.592836 123.023284,128.969552 L123.023284,114.268657 C123.023284,113.645373 122.65791,113.258507 122.077612,113.258507 C121.497313,113.258507 121.13194,113.645373 121.13194,114.268657 L121.13194,119.835224 L121.088955,119.835224 C120.594627,119.12597 119.541493,118.287761 118.037015,118.287761 C114.94209,118.287761 113.158209,121.103284 113.158209,124.133731 C113.158209,127.164179 114.94209,129.979701 118.037015,129.979701 C119.541493,129.979701 120.551642,129.442388 121.088955,128.410746 L121.13194,128.410746 L121.13194,128.969552 Z M133.92,124.864478 C134.736716,124.864478 134.973134,124.520597 134.973134,123.854328 C134.973134,121.103284 133.167761,118.287761 130.051343,118.287761 C126.848955,118.287761 124.914627,121.038806 124.914627,124.133731 C124.914627,127.164179 126.505075,129.979701 130.158806,129.979701 C132.39403,129.979701 134.736716,128.561194 134.736716,127.637015 C134.736716,127.099701 134.392836,126.798806 134.048955,126.798806 C133.339701,126.798806 132.694925,128.346269 130.180299,128.346269 C128.052537,128.346269 126.80597,126.820299 126.80597,124.864478 L133.92,124.864478 Z M126.80597,123.44597 C126.870448,121.705075 127.708657,119.835224 130.051343,119.921194 C132.136119,119.921194 133.081791,121.812537 133.081791,123.44597 L126.80597,123.44597 Z M136.778507,128.969552 C136.778507,129.592836 137.143881,129.979701 137.724179,129.979701 C138.304478,129.979701 138.669851,129.592836 138.669851,128.969552 L138.669851,123.53194 C138.669851,121.318209 140.045373,120.48 141.162985,120.286567 C141.958209,120.136119 142.345075,119.792239 142.345075,119.254925 C142.345075,118.717612 141.958209,118.287761 141.29194,118.287761 C140.195821,118.287761 139.142687,119.383881 138.712836,120.265075 L138.669851,120.265075 L138.669851,119.29791 C138.669851,118.674627 138.304478,118.287761 137.724179,118.287761 C137.143881,118.287761 136.778507,118.674627 136.778507,119.29791 L136.778507,128.969552 Z M143.290746,121.511642 C143.290746,124.692537 149.394627,124.563582 149.394627,126.798806 C149.394627,127.572537 148.556418,128.346269 147.180896,128.346269 C145.117612,128.346269 144.429851,126.949254 143.591642,126.949254 C143.183284,126.949254 142.81791,127.293134 142.81791,127.808955 C142.81791,128.776119 144.709254,129.979701 147.116418,129.979701 C149.244179,129.979701 151.28597,128.840597 151.28597,126.454925 C151.28597,123.145075 145.18209,123.36 145.18209,121.361194 C145.18209,120.39403 146.106269,119.921194 147.180896,119.921194 C148.986269,119.921194 149.308657,121.081791 150.125373,121.081791 C150.705672,121.081791 150.985075,120.716418 150.985075,120.30806 C150.985075,119.12597 148.749851,118.287761 147.180896,118.287761 C145.26806,118.287761 143.290746,119.405373 143.290746,121.511642 L143.290746,121.511642 Z" id="policy-holders" fill="#FFFFFF"></path>
            </g>
        </g>
    </g>
</svg>