<?xml version="1.0" encoding="UTF-8" standalone="no"?>
<svg width="182px" height="182px" viewBox="0 0 182 182" version="1.1" xmlns="http://www.w3.org/2000/svg" xmlns:xlink="http://www.w3.org/1999/xlink">
    <!-- Generator: Sketch 39.1 (31720) - http://www.bohemiancoding.com/sketch -->
    <title>roundel-grid-final</title>
    <desc>Created with Sketch.</desc>
    <defs></defs>
    <g id="Templates" stroke="none" stroke-width="1" fill="none" fill-rule="evenodd">
        <g id="14-roundels" transform="translate(-828.000000, -1439.000000)">
            <g id="roundel-grid-final" transform="translate(829.000000, 1440.000000)">
                <path d="M179.552239,90 C179.552239,139.45791 139.45791,179.552239 90,179.552239 C40.5420896,179.552239 0.447761194,139.45791 0.447761194,90 C0.447761194,40.5420896 40.5420896,0.447761194 90,0.447761194 C139.45791,0.447761194 179.552239,40.5420896 179.552239,90 L179.552239,90 Z" id="Stroke-1" stroke="#9B9B9B"></path>
                <path d="M167.910448,90 C167.910448,133.028955 133.028955,167.910448 90,167.910448 C46.9710448,167.910448 12.0895522,133.028955 12.0895522,90 C12.0895522,46.9710448 46.9710448,12.0895522 90,12.0895522 C133.028955,12.0895522 167.910448,46.9710448 167.910448,90 L167.910448,90 Z" id="Stroke-3" stroke="#9B9B9B"></path>
                <path d="M95.0429552,6.11937313 C95.0429552,8.90444776 92.7853433,11.1620597 90.0002687,11.1620597 C87.215194,11.1620597 84.9566866,8.90444776 84.9566866,6.11937313 C84.9566866,3.33429851 87.215194,1.07668657 90.0002687,1.07668657 C92.7853433,1.07668657 95.0429552,3.33429851 95.0429552,6.11937313 L95.0429552,6.11937313 Z" id="Stroke-5" fill="#9B9B9B"></path>
            </g>
        </g>
    </g>
</svg>