<?xml version="1.0" encoding="UTF-8" standalone="no"?>
<svg width="306px" height="116px" viewBox="0 0 306 116" version="1.1" xmlns="http://www.w3.org/2000/svg" xmlns:xlink="http://www.w3.org/1999/xlink">
    <!-- Generator: Sketch 39.1 (31720) - http://www.bohemiancoding.com/sketch -->
    <title>roundel-responsive-medium</title>
    <desc>Created with Sketch.</desc>
    <defs></defs>
    <g id="Templates" stroke="none" stroke-width="1" fill="none" fill-rule="evenodd">
        <g id="14-roundels" transform="translate(-829.000000, -4677.000000)">
            <g id="roundel-responsive-medium" transform="translate(829.000000, 4677.000000)">
                <path d="M115.742857,57.8857143 C115.742857,89.8390571 89.8390571,115.742857 57.8857143,115.742857 C25.9323714,115.742857 0.0285714286,89.8390571 0.0285714286,57.8857143 C0.0285714286,25.9323714 25.9323714,0.0285714286 57.8857143,0.0285714286 C89.8390571,0.0285714286 115.742857,25.9323714 115.742857,57.8857143 L115.742857,57.8857143 Z" id="Stroke-1" fill="#1D3661"></path>
                <path d="M38.6813824,52.6291737 L37.6411804,50.8157882 C37.0170591,49.7696042 36.7396719,48.4444379 36.7396719,47.1192715 C36.7396719,43.6319917 39.9296249,41.7488606 43.396965,41.7488606 C50.6090326,41.7488606 50.4009922,49.0721483 55.1165748,49.0721483 C58.237181,49.0721483 60.5256255,46.9797803 60.5256255,43.7714829 C60.5256255,36.8666688 52.6894367,31.7054946 42.9808842,31.7054946 C33.549719,31.7054946 25.5054898,36.9364144 25.5054898,45.2361404 C25.5054898,47.1890171 26.4069982,50.8855338 27.3085067,52.6291737 L25.8522238,52.6291737 C22.939658,52.6291737 20.8592539,54.4425592 20.8592539,57.4416199 C20.8592539,60.4406805 22.939658,62.2540661 25.8522238,62.2540661 L29.4582576,62.2540661 C29.4582576,70.9025201 23.4250857,73.9015807 23.4250857,76.7611502 C23.4250857,80.1089389 25.436143,82.2013068 28.8341363,82.2013068 L56.0180833,82.2013068 C58.930649,82.2013068 61.0110531,80.3879212 61.0110531,77.3888606 C61.0110531,74.3897999 58.930649,72.5764144 56.0180833,72.5764144 L36.7396719,72.5764144 C38.9587696,69.5076081 40.2763589,66.0203283 40.2763589,62.2540661 L49.2220965,62.2540661 C52.1346623,62.2540661 54.2150664,60.4406805 54.2150664,57.4416199 C54.2150664,54.4425592 52.1346623,52.6291737 49.2220965,52.6291737 L38.6813824,52.6291737 Z M81.6448792,71.2512481 L81.6448792,77.1796238 C81.6448792,80.8761404 83.1011621,82.6197803 86.6378491,82.6197803 C90.174536,82.6197803 91.6308189,80.8761404 91.6308189,77.1796238 L91.6308189,71.2512481 L92.8097146,71.2512481 C95.5142399,71.2512481 97.6639908,69.4378625 97.6639908,66.6480387 C97.6639908,63.8582148 95.5142399,62.0448293 92.8097146,62.0448293 L91.6308189,62.0448293 L91.6308189,40.632931 C91.6308189,34.2860817 87.6780511,31.7054946 83.6559365,31.7054946 C80.0499027,31.7054946 78.1081922,32.9609154 76.5825626,35.7507393 L61.0488786,64.0674516 C60.6327978,64.7649076 60.0780234,65.6018547 60.0780234,67.1362578 C60.0780234,68.9496434 61.5343062,71.2512481 64.9322996,71.2512481 L81.6448792,71.2512481 Z M81.6448792,62.0448293 L72.1443672,62.0448293 L81.5061856,42.5858077 L81.6448792,42.5858077 L81.6448792,62.0448293 Z" id="£4" fill="#FFEE00" transform="translate(59.261622, 57.162637) rotate(-5.000000) translate(-59.261622, -57.162637) "></path>
                <path d="M138.088,33.18 L143.268,33.18 C143.968,33.18 144.472,32.816 144.472,32.032 C144.472,31.248 143.968,30.884 143.268,30.884 L138.088,30.884 L138.088,24.36 L143.94,24.36 C144.64,24.36 145.144,23.996 145.144,23.212 C145.144,22.428 144.64,22.064 143.94,22.064 L136.94,22.064 C136.016,22.064 135.624,22.652 135.624,23.408 L135.624,40.852 C135.624,41.664 136.1,42.168 136.856,42.168 C137.612,42.168 138.088,41.664 138.088,40.852 L138.088,33.18 Z M147.02,40.852 C147.02,41.664 147.496,42.168 148.252,42.168 C149.008,42.168 149.484,41.664 149.484,40.852 L149.484,33.768 C149.484,30.884 151.276,29.792 152.732,29.54 C153.768,29.344 154.272,28.896 154.272,28.196 C154.272,27.496 153.768,26.936 152.9,26.936 C151.472,26.936 150.1,28.364 149.54,29.512 L149.484,29.512 L149.484,28.252 C149.484,27.44 149.008,26.936 148.252,26.936 C147.496,26.936 147.02,27.44 147.02,28.252 L147.02,40.852 Z M155.196,34.552 C155.196,38.5 157.548,42.168 161.748,42.168 C165.948,42.168 168.3,38.5 168.3,34.552 C168.3,30.604 165.948,26.936 161.748,26.936 C157.548,26.936 155.196,30.604 155.196,34.552 L155.196,34.552 Z M157.66,34.552 C157.66,32.032 158.724,29.064 161.748,29.064 C164.772,29.064 165.836,32.032 165.836,34.552 C165.836,37.072 164.772,40.04 161.748,40.04 C158.724,40.04 157.66,37.072 157.66,34.552 L157.66,34.552 Z M179.724,40.852 C179.724,41.664 180.2,42.168 180.956,42.168 C181.712,42.168 182.188,41.664 182.188,40.852 L182.188,32.508 C182.188,30.38 183.364,29.064 185.352,29.064 C187.368,29.064 188.544,30.38 188.544,32.508 L188.544,40.852 C188.544,41.664 189.02,42.168 189.776,42.168 C190.532,42.168 191.008,41.664 191.008,40.852 L191.008,32.592 C191.008,28.392 188.124,26.936 185.828,26.936 C183.672,26.936 182.356,27.888 181.264,29.456 C180.144,27.552 178.632,26.936 177.176,26.936 C174.936,26.936 174.012,28 173.424,28.756 L173.368,28.7 L173.368,28.252 C173.368,27.44 172.892,26.936 172.136,26.936 C171.38,26.936 170.904,27.44 170.904,28.252 L170.904,40.852 C170.904,41.664 171.38,42.168 172.136,42.168 C172.892,42.168 173.368,41.664 173.368,40.852 L173.368,32.508 C173.368,30.38 174.544,29.064 176.532,29.064 C178.548,29.064 179.724,30.38 179.724,32.508 L179.724,40.852 Z M203.72,21.7 C203.72,20.888 203.244,20.384 202.488,20.384 C201.732,20.384 201.256,20.888 201.256,21.7 L201.256,40.852 C201.256,41.664 201.732,42.168 202.488,42.168 C203.244,42.168 203.72,41.664 203.72,40.852 L203.72,21.7 Z M217.804,35.504 C218.868,35.504 219.176,35.056 219.176,34.188 C219.176,30.604 216.824,26.936 212.764,26.936 C208.592,26.936 206.072,30.52 206.072,34.552 C206.072,38.5 208.144,42.168 212.904,42.168 C215.816,42.168 218.868,40.32 218.868,39.116 C218.868,38.416 218.42,38.024 217.972,38.024 C217.048,38.024 216.208,40.04 212.932,40.04 C210.16,40.04 208.536,38.052 208.536,35.504 L217.804,35.504 Z M208.536,33.656 C208.62,31.388 209.712,28.952 212.764,29.064 C215.48,29.064 216.712,31.528 216.712,33.656 L208.536,33.656 Z M221.192,31.136 C221.192,35.28 229.144,35.112 229.144,38.024 C229.144,39.032 228.052,40.04 226.26,40.04 C223.572,40.04 222.676,38.22 221.584,38.22 C221.052,38.22 220.576,38.668 220.576,39.34 C220.576,40.6 223.04,42.168 226.176,42.168 C228.948,42.168 231.608,40.684 231.608,37.576 C231.608,33.264 223.656,33.544 223.656,30.94 C223.656,29.68 224.86,29.064 226.26,29.064 C228.612,29.064 229.032,30.576 230.096,30.576 C230.852,30.576 231.216,30.1 231.216,29.568 C231.216,28.028 228.304,26.936 226.26,26.936 C223.768,26.936 221.192,28.392 221.192,31.136 L221.192,31.136 Z M233.624,31.136 C233.624,35.28 241.576,35.112 241.576,38.024 C241.576,39.032 240.484,40.04 238.692,40.04 C236.004,40.04 235.108,38.22 234.016,38.22 C233.484,38.22 233.008,38.668 233.008,39.34 C233.008,40.6 235.472,42.168 238.608,42.168 C241.38,42.168 244.04,40.684 244.04,37.576 C244.04,33.264 236.088,33.544 236.088,30.94 C236.088,29.68 237.292,29.064 238.692,29.064 C241.044,29.064 241.464,30.576 242.528,30.576 C243.284,30.576 243.648,30.1 243.648,29.568 C243.648,28.028 240.736,26.936 238.692,26.936 C236.2,26.936 233.624,28.392 233.624,31.136 L233.624,31.136 Z M254.176,27.104 L253.168,27.104 C252.356,27.104 251.936,27.496 251.936,28.168 C251.936,28.84 252.356,29.232 253.168,29.232 L254.176,29.232 L254.176,40.852 C254.176,41.664 254.652,42.168 255.408,42.168 C256.164,42.168 256.64,41.664 256.64,40.852 L256.64,29.232 L257.648,29.232 C258.46,29.232 258.88,28.84 258.88,28.168 C258.88,27.496 258.46,27.104 257.648,27.104 L256.64,27.104 L256.64,23.884 C256.64,23.072 256.164,22.568 255.408,22.568 C254.652,22.568 254.176,23.072 254.176,23.884 L254.176,27.104 Z M270.024,40.852 C270.024,41.664 270.5,42.168 271.256,42.168 C272.012,42.168 272.488,41.664 272.488,40.852 L272.488,32.592 C272.488,28.392 269.604,26.936 267.308,26.936 C265.824,26.936 264.284,27.496 263.192,28.896 L263.136,28.84 L263.136,21.7 C263.136,20.888 262.66,20.384 261.904,20.384 C261.148,20.384 260.672,20.888 260.672,21.7 L260.672,40.852 C260.672,41.664 261.148,42.168 261.904,42.168 C262.66,42.168 263.136,41.664 263.136,40.852 L263.136,32.732 C263.136,30.128 264.956,29.064 266.58,29.064 C268.204,29.064 270.024,30.128 270.024,32.732 L270.024,40.852 Z M288.056,28.14 C288.056,27.272 287.384,26.936 286.908,26.936 C286.404,26.936 285.76,27.272 285.76,28.14 L285.76,28.924 L285.704,28.924 C284.556,27.664 283.352,26.936 281.644,26.936 C277.444,26.936 275.092,30.604 275.092,34.552 C275.092,38.5 277.444,42.168 281.644,42.168 C283.24,42.168 284.64,41.44 285.704,39.928 L285.76,39.928 L285.76,40.964 C285.76,41.832 286.404,42.168 286.908,42.168 C287.384,42.168 288.056,41.832 288.056,40.964 L288.056,28.14 Z M277.556,34.552 C277.556,32.032 278.62,29.064 281.644,29.064 C284.668,29.064 285.732,32.032 285.732,34.552 C285.732,37.072 284.668,40.04 281.644,40.04 C278.62,40.04 277.556,37.072 277.556,34.552 L277.556,34.552 Z M291.304,40.852 C291.304,41.664 291.78,42.168 292.536,42.168 C293.292,42.168 293.768,41.664 293.768,40.852 L293.768,32.732 C293.768,30.128 295.588,29.064 297.212,29.064 C298.836,29.064 300.656,30.128 300.656,32.732 L300.656,40.852 C300.656,41.664 301.132,42.168 301.888,42.168 C302.644,42.168 303.12,41.664 303.12,40.852 L303.12,32.592 C303.12,28.392 300.236,26.936 297.94,26.936 C296.456,26.936 294.916,27.496 293.824,28.896 L293.768,28.84 L293.768,28.252 C293.768,27.44 293.292,26.936 292.536,26.936 C291.78,26.936 291.304,27.44 291.304,28.252 L291.304,40.852 Z" id="From-less-than" fill="#1D3661"></path>
                <path d="M157.584,63.688 C157.584,61.912 157.584,59.176 154.272,59.176 C152.592,59.176 151.152,60.376 150.96,62.056 C149.424,59.896 146.928,58.888 144.384,58.888 C138.048,58.888 132.96,64.696 132.96,72.28 C132.96,80.056 137.904,85.576 144.384,85.576 C147.024,85.576 149.184,84.472 150.96,82.36 C151.44,84.184 152.256,85.288 154.272,85.288 C157.584,85.288 157.584,82.552 157.584,80.776 L157.584,63.688 Z M139.872,72.28 C139.872,68.968 141.552,65.224 145.344,65.224 C148.992,65.224 150.672,68.968 150.672,72.28 C150.672,75.592 148.944,79.24 145.344,79.24 C141.6,79.24 139.872,75.592 139.872,72.28 L139.872,72.28 Z M174.384,81.448 C174.384,83.752 175.824,85.288 177.84,85.288 C179.856,85.288 181.296,83.752 181.296,81.448 L181.296,69.4 C181.296,66.616 182.544,64.648 185.376,64.648 C187.872,64.648 189.408,66.616 189.408,69.4 L189.408,81.448 C189.408,83.752 190.848,85.288 192.864,85.288 C194.88,85.288 196.32,83.752 196.32,81.448 L196.32,69.4 C196.32,66.616 197.856,64.648 200.4,64.648 C202.896,64.648 204.432,66.616 204.432,69.4 L204.432,81.448 C204.432,83.752 205.872,85.288 207.888,85.288 C209.904,85.288 211.344,83.752 211.344,81.448 L211.344,68.2 C211.344,62.152 207.504,58.888 201.888,58.888 C199.536,58.888 196.512,60.184 194.592,62.392 C192.768,60.088 190.32,58.888 187.44,58.888 C184.896,58.888 182.688,59.944 181.008,61.768 C180.768,60.136 179.616,59.176 177.84,59.176 C175.824,59.176 174.384,60.712 174.384,63.016 L174.384,81.448 Z M226.656,58.888 C219.36,58.888 214.272,65.272 214.272,72.28 C214.272,79.48 219.216,85.576 226.656,85.576 C234.096,85.576 239.04,79.48 239.04,72.28 C239.04,65.272 233.952,58.888 226.656,58.888 L226.656,58.888 Z M226.656,65.224 C230.448,65.224 232.128,68.968 232.128,72.28 C232.128,75.592 230.4,79.24 226.656,79.24 C222.912,79.24 221.184,75.592 221.184,72.28 C221.184,68.968 222.864,65.224 226.656,65.224 L226.656,65.224 Z M241.968,81.448 C241.968,83.752 243.408,85.288 245.424,85.288 C247.44,85.288 248.88,83.752 248.88,81.448 L248.88,69.4 C248.88,66.712 250.464,64.648 253.296,64.648 C255.792,64.648 257.808,66.184 257.808,69.4 L257.808,81.448 C257.808,83.752 259.248,85.288 261.264,85.288 C263.28,85.288 264.72,83.752 264.72,81.448 L264.72,68.2 C264.72,62.344 260.688,58.888 255.264,58.888 C252,58.888 249.936,59.848 248.592,61.72 C248.352,60.136 247.2,59.176 245.424,59.176 C243.408,59.176 241.968,60.712 241.968,63.016 L241.968,81.448 Z M270.336,81.448 C270.336,83.752 271.776,85.288 273.792,85.288 C275.808,85.288 277.248,83.752 277.248,81.448 L277.248,65.512 L279.216,65.512 C280.992,65.512 282.528,64.648 282.528,62.488 C282.528,60.28 280.992,59.464 279.216,59.464 L277.248,59.464 L277.248,55.336 C277.248,53.032 275.808,51.496 273.792,51.496 C271.776,51.496 270.336,53.032 270.336,55.336 L270.336,59.464 L268.8,59.464 C267.072,59.464 265.776,60.76 265.776,62.488 C265.776,64.36 266.928,65.512 268.8,65.512 L270.336,65.512 L270.336,81.448 Z M282.864,81.448 C282.864,83.752 284.304,85.288 286.32,85.288 C288.336,85.288 289.776,83.752 289.776,81.448 L289.776,69.4 C289.776,66.712 291.36,64.648 294.192,64.648 C296.688,64.648 298.704,66.184 298.704,69.4 L298.704,81.448 C298.704,83.752 300.144,85.288 302.16,85.288 C304.176,85.288 305.616,83.752 305.616,81.448 L305.616,68.2 C305.616,62.344 301.584,58.888 296.16,58.888 C294,58.888 291.312,59.512 289.872,61.288 L289.776,61.288 L289.776,51.88 C289.776,49.576 288.336,48.04 286.32,48.04 C284.304,48.04 282.864,49.576 282.864,51.88 L282.864,81.448 Z" id="a-month" fill="#1D3661"></path>
            </g>
        </g>
    </g>
</svg>