<?xml version="1.0" encoding="UTF-8" standalone="no"?>
<svg width="180px" height="180px" viewBox="0 0 180 180" version="1.1" xmlns="http://www.w3.org/2000/svg" xmlns:xlink="http://www.w3.org/1999/xlink">
    <!-- Generator: Sketch 39.1 (31720) - http://www.bohemiancoding.com/sketch -->
    <title>roundel-example-one</title>
    <desc>Created with Sketch.</desc>
    <defs></defs>
    <g id="Templates" stroke="none" stroke-width="1" fill="none" fill-rule="evenodd">
        <g id="14-roundels" transform="translate(-828.000000, -1875.000000)">
            <g id="roundel-example-one" transform="translate(828.000000, 1875.000000)">
                <path d="M179.552239,90 C179.552239,139.45791 139.45791,179.552239 90,179.552239 C40.5420896,179.552239 0.447761194,139.45791 0.447761194,90 C0.447761194,40.5420896 40.5420896,0.447761194 90,0.447761194 C139.45791,0.447761194 179.552239,40.5420896 179.552239,90 L179.552239,90 Z" id="Stroke-1" fill="#9B9B9B"></path>
                <path d="M32.759716,99.7939254 C32.759716,101.226761 33.6767309,102.029149 34.9089697,102.029149 C36.1412085,102.029149 37.0582234,101.226761 37.0582234,99.7939254 L37.0582234,95.0942239 L40.239119,95.0942239 C44.1650891,95.0942239 47.4032981,92.4864627 47.4032981,88.3025821 C47.4032981,84.2046717 44.279716,81.4536269 40.0671787,81.4536269 L34.9949399,81.4536269 C33.562104,81.4536269 32.759716,82.3419851 32.759716,83.6888508 L32.759716,99.7939254 Z M37.0582234,85.2363135 L39.9812085,85.2363135 C41.7865817,85.2363135 42.9328503,86.5545224 42.9328503,88.2739254 C42.9328503,89.9933284 41.7865817,91.3115373 39.9812085,91.3115373 L37.0582234,91.3115373 L37.0582234,85.2363135 Z M57.8200145,98.2464627 C54.1806115,98.2464627 52.4325518,95.1515373 52.4325518,91.6554179 C52.4325518,88.1879553 54.2379249,85.0643732 57.8200145,85.0643732 C61.402104,85.0643732 63.2074772,88.1879553 63.2074772,91.6554179 C63.2074772,95.1515373 61.4594175,98.2464627 57.8200145,98.2464627 L57.8200145,98.2464627 Z M57.8200145,102.20109 C63.6946414,102.20109 67.6779249,97.5873582 67.6779249,91.6554179 C67.6779249,85.8381045 63.5800145,81.1097463 57.8200145,81.1097463 C51.9740443,81.1097463 47.962104,85.6948209 47.962104,91.6554179 C47.962104,97.5873582 52.0027011,102.20109 57.8200145,102.20109 L57.8200145,102.20109 Z M69.5262832,99.7939254 C69.5262832,101.226761 70.4432981,102.029149 71.6755369,102.029149 C72.9077757,102.029149 73.8247906,101.226761 73.8247906,99.7939254 L73.8247906,95.0942239 L77.0056861,95.0942239 C80.9316563,95.0942239 84.1698652,92.4864627 84.1698652,88.3025821 C84.1698652,84.2046717 81.0462832,81.4536269 76.8337458,81.4536269 L71.761507,81.4536269 C70.3286712,81.4536269 69.5262832,82.3419851 69.5262832,83.6888508 L69.5262832,99.7939254 Z M73.8247906,85.2363135 L76.7477757,85.2363135 C78.5531488,85.2363135 79.6994175,86.5545224 79.6994175,88.2739254 C79.6994175,89.9933284 78.5531488,91.3115373 76.7477757,91.3115373 L73.8247906,91.3115373 L73.8247906,85.2363135 Z M85.359119,93.7473582 C85.359119,98.619 89.2850891,102.20109 94.0707608,102.20109 C98.799119,102.20109 102.753746,98.5616866 102.753746,93.7473582 L102.753746,83.5169105 C102.753746,82.0840747 101.836731,81.2816866 100.604492,81.2816866 C99.3722533,81.2816866 98.4552384,82.0840747 98.4552384,83.5169105 L98.4552384,93.5181045 C98.4552384,96.0398955 96.678522,98.2464627 94.0707608,98.2464627 C91.3483727,98.2464627 89.6576264,96.1545224 89.6576264,93.5181045 L89.6576264,83.5169105 C89.6576264,82.0840747 88.7406115,81.2816866 87.5083727,81.2816866 C86.2761339,81.2816866 85.359119,82.0840747 85.359119,83.5169105 L85.359119,93.7473582 Z M105.232552,99.5073582 C105.232552,100.940194 106.063597,101.857209 107.467776,101.857209 L114.631955,101.857209 C115.89285,101.857209 116.637925,100.911537 116.695238,99.9658657 C116.723895,98.9915373 116.093447,97.9025821 114.631955,97.9025821 L109.531059,97.9025821 L109.531059,83.5169105 C109.531059,82.0840747 108.614044,81.2816866 107.381806,81.2816866 C106.149567,81.2816866 105.232552,82.0840747 105.232552,83.5169105 L105.232552,99.5073582 Z M116.480313,99.0775075 C116.423,99.2207911 116.279716,99.5646717 116.279716,100.023179 C116.279716,101.169448 117.254044,102.029149 118.400313,102.029149 C119.575238,102.029149 120.177029,101.398702 120.463597,100.510343 L121.323298,97.8452687 L129.289865,97.8452687 L130.149567,100.539 C130.436134,101.398702 131.037925,102.029149 132.241507,102.029149 C133.301806,102.029149 134.21882,101.255418 134.21882,100.137806 C134.21882,99.937209 134.161507,99.536015 133.989567,99.0775075 L128.37285,83.4882538 C127.885686,82.1127314 126.825388,81.1097463 125.306582,81.1097463 C123.845089,81.1097463 122.727477,82.1700448 122.240313,83.4882538 L116.480313,99.0775075 Z M125.277925,85.5801941 L125.335238,85.5801941 L128.000313,93.8906418 L122.555537,93.8906418 L125.277925,85.5801941 Z M135.637328,99.7939254 C135.637328,101.226761 136.554343,102.029149 137.786582,102.029149 C139.01882,102.029149 139.935835,101.226761 139.935835,99.7939254 L139.935835,93.5754179 L139.993149,93.5754179 L146.35494,101.284075 C146.813447,101.828552 147.501209,102.029149 148.017029,102.029149 C149.277925,102.029149 150.166283,100.940194 150.166283,99.8225821 C150.166283,99.4213881 149.994343,98.9915373 149.593149,98.5616866 L144.721507,93.3461642 C147.644492,92.8876567 150.023,91.0822836 150.023,87.9300448 C150.023,83.4309403 147.300612,81.4536269 142.887477,81.4536269 L137.843895,81.4536269 C136.411059,81.4536269 135.637328,82.3133284 135.637328,83.6888508 L135.637328,99.7939254 Z M139.935835,85.4082538 L142.887477,85.4082538 C144.463597,85.4082538 145.552552,86.296612 145.552552,87.9300448 C145.552552,89.5348209 144.463597,90.4804926 142.887477,90.4804926 L139.935835,90.4804926 L139.935835,85.4082538 Z" id="POPULAR" fill="#FFFFFF" transform="translate(91.463000, 91.655418) rotate(-5.000000) translate(-91.463000, -91.655418) "></path>
                <path d="M26.9522605,121.239477 C26.9522605,118.07291 28.3027083,114.580373 32.0280814,114.580373 C35.7534545,114.580373 37.1039023,118.07291 37.1039023,121.239477 C37.1039023,124.406044 35.7534545,127.898582 32.0280814,127.898582 C28.3027083,127.898582 26.9522605,124.406044 26.9522605,121.239477 L26.9522605,121.239477 Z M24.7636038,121.239477 C24.7636038,125.54694 27.3015142,129.668134 32.0280814,129.668134 C36.7546486,129.668134 39.292559,125.54694 39.292559,121.239477 C39.292559,116.932015 36.7546486,112.810821 32.0280814,112.810821 C27.3015142,112.810821 24.7636038,116.932015 24.7636038,121.239477 L24.7636038,121.239477 Z M43.9609172,128.783358 C44.1704695,129.388731 44.3800217,129.668134 45.031962,129.668134 C45.6839023,129.668134 45.8934545,129.388731 46.1030068,128.783358 L49.6653948,118.794701 C49.8050963,118.422164 49.8749471,118.189328 49.8749471,117.956492 C49.8749471,117.351119 49.432559,117.001865 48.9436038,117.001865 C48.2683799,117.001865 48.0355441,117.327835 47.872559,117.793507 L45.0552456,126.361865 L45.0086784,126.361865 L42.191365,117.793507 C42.0283799,117.327835 41.7955441,117.001865 41.1203202,117.001865 C40.631365,117.001865 40.1889769,117.351119 40.1889769,117.956492 C40.1889769,118.189328 40.2588277,118.422164 40.3985292,118.794701 L43.9609172,128.783358 Z M60.410768,124.126641 C61.2955441,124.126641 61.5516635,123.754104 61.5516635,123.032313 C61.5516635,120.052015 59.5958426,117.001865 56.2197232,117.001865 C52.7504695,117.001865 50.6549471,119.982164 50.6549471,123.335 C50.6549471,126.617985 52.3779322,129.668134 56.3361411,129.668134 C58.7576337,129.668134 61.2955441,128.131418 61.2955441,127.130224 C61.2955441,126.548134 60.9230068,126.222164 60.5504695,126.222164 C59.7821113,126.222164 59.0836038,127.898582 56.3594247,127.898582 C54.0543501,127.898582 52.7039023,126.245447 52.7039023,124.126641 L60.410768,124.126641 Z M52.7039023,122.589925 C52.7737531,120.703955 53.6818128,118.678283 56.2197232,118.771418 C58.4782307,118.771418 59.5027083,120.820373 59.5027083,122.589925 L52.7039023,122.589925 Z M63.5656934,128.573806 C63.5656934,129.24903 63.9615143,129.668134 64.590171,129.668134 C65.2188277,129.668134 65.6146486,129.24903 65.6146486,128.573806 L65.6146486,122.683059 C65.6146486,120.28485 67.1047978,119.376791 68.3155441,119.167238 C69.1770366,119.004253 69.5961411,118.631716 69.5961411,118.049627 C69.5961411,117.467537 69.1770366,117.001865 68.4552456,117.001865 C67.2677829,117.001865 66.1268874,118.189328 65.6612158,119.143955 L65.6146486,119.143955 L65.6146486,118.096194 C65.6146486,117.42097 65.2188277,117.001865 64.590171,117.001865 C63.9615143,117.001865 63.5656934,117.42097 63.5656934,118.096194 L63.5656934,128.573806 Z M80.7955441,114.720074 L85.5221113,114.720074 C86.0110665,114.720074 86.4068874,114.324253 86.4068874,113.835298 C86.4068874,113.346343 86.0110665,112.950522 85.5221113,112.950522 L79.7710665,112.950522 C79.2821113,112.950522 79.072559,113.06694 79.0027083,113.486044 L78.1412158,119.283656 C78.071365,119.795895 77.9782307,120.401268 77.9782307,120.657388 C77.9782307,120.983358 78.1877829,121.286044 78.6767381,121.286044 C79.2588277,121.286044 79.9806187,120.657388 81.4940516,120.657388 C83.4964396,120.657388 84.3579322,122.217388 84.3579322,124.173209 C84.3579322,126.105746 83.1704695,127.75888 81.191365,127.75888 C78.8397232,127.75888 78.0946486,126.035895 77.2564396,126.035895 C76.7442008,126.035895 76.511365,126.501567 76.511365,126.920671 C76.511365,127.921865 78.4206187,129.668134 81.1680814,129.668134 C84.5209173,129.668134 86.5465889,127.339776 86.5465889,123.777388 C86.5465889,121.19291 84.8934546,118.748134 82.308977,118.748134 C81.5406187,118.748134 80.7955441,118.864552 80.1203202,119.213806 L80.7955441,114.720074 Z M88.7934546,121.239477 C88.7934546,126.571418 91.2382307,129.668134 94.2650964,129.668134 C97.291962,129.668134 99.7367382,126.571418 99.7367382,121.239477 C99.7367382,115.907537 97.291962,112.810821 94.2650964,112.810821 C91.2382307,112.810821 88.7934546,115.907537 88.7934546,121.239477 L88.7934546,121.239477 Z M90.9821113,121.239477 C90.9821113,116.606044 92.448977,114.580373 94.2650964,114.580373 C96.0812158,114.580373 97.5480814,116.606044 97.5480814,121.239477 C97.5480814,125.87291 96.0812158,127.898582 94.2650964,127.898582 C92.448977,127.898582 90.9821113,125.87291 90.9821113,121.239477 L90.9821113,121.239477 Z M101.63435,120.494403 C101.63435,123.940373 108.246887,123.800671 108.246887,126.222164 C108.246887,127.060373 107.338828,127.898582 105.848678,127.898582 C103.613455,127.898582 102.86838,126.385149 101.96032,126.385149 C101.517932,126.385149 101.122111,126.757686 101.122111,127.316492 C101.122111,128.364253 103.171067,129.668134 105.778828,129.668134 C108.083902,129.668134 110.295843,128.434104 110.295843,125.849627 C110.295843,122.263955 103.683305,122.496791 103.683305,120.331418 C103.683305,119.283656 104.684499,118.771418 105.848678,118.771418 C107.804499,118.771418 108.153753,120.028731 109.038529,120.028731 C109.667186,120.028731 109.969872,119.63291 109.969872,119.190522 C109.969872,117.909925 107.54838,117.001865 105.848678,117.001865 C103.77644,117.001865 101.63435,118.212612 101.63435,120.494403 L101.63435,120.494403 Z M120.237932,123.335 L123.404499,123.335 C126.431365,123.335 128.713156,121.053209 128.713156,118.166044 C128.713156,115.27888 126.664201,112.950522 123.334649,112.950522 L119.283305,112.950522 C118.514947,112.950522 118.188977,113.439477 118.188977,114.068134 L118.188977,128.573806 C118.188977,129.24903 118.584798,129.668134 119.213455,129.668134 C119.842111,129.668134 120.237932,129.24903 120.237932,128.573806 L120.237932,123.335 Z M120.237932,114.720074 L123.171664,114.720074 C125.732858,114.720074 126.664201,116.536194 126.664201,118.166044 C126.664201,120.052015 125.29047,121.565447 123.264798,121.565447 L120.237932,121.565447 L120.237932,114.720074 Z M132.38032,112.647835 C132.38032,111.972612 131.984499,111.553507 131.355843,111.553507 C130.727186,111.553507 130.331365,111.972612 130.331365,112.647835 L130.331365,128.573806 C130.331365,129.24903 130.727186,129.668134 131.355843,129.668134 C131.984499,129.668134 132.38032,129.24903 132.38032,128.573806 L132.38032,112.647835 Z M145.384201,118.003059 C145.384201,117.281268 144.825395,117.001865 144.429574,117.001865 C144.01047,117.001865 143.474947,117.281268 143.474947,118.003059 L143.474947,118.655 L143.42838,118.655 C142.473753,117.607238 141.472559,117.001865 140.052261,117.001865 C136.559723,117.001865 134.603902,120.052015 134.603902,123.335 C134.603902,126.617985 136.559723,129.668134 140.052261,129.668134 C141.379425,129.668134 142.543604,129.062761 143.42838,127.805447 L143.474947,127.805447 L143.474947,128.66694 C143.474947,129.388731 144.01047,129.668134 144.429574,129.668134 C144.825395,129.668134 145.384201,129.388731 145.384201,128.66694 L145.384201,118.003059 Z M136.652858,123.335 C136.652858,121.239477 137.537634,118.771418 140.052261,118.771418 C142.566887,118.771418 143.451664,121.239477 143.451664,123.335 C143.451664,125.430522 142.566887,127.898582 140.052261,127.898582 C137.537634,127.898582 136.652858,125.430522 136.652858,123.335 L136.652858,123.335 Z M148.143305,128.573806 C148.143305,129.24903 148.539126,129.668134 149.167783,129.668134 C149.79644,129.668134 150.192261,129.24903 150.192261,128.573806 L150.192261,121.821567 C150.192261,119.656194 151.705693,118.771418 153.056141,118.771418 C154.406589,118.771418 155.920022,119.656194 155.920022,121.821567 L155.920022,128.573806 C155.920022,129.24903 156.315843,129.668134 156.944499,129.668134 C157.573156,129.668134 157.968977,129.24903 157.968977,128.573806 L157.968977,121.705149 C157.968977,118.212612 155.570768,117.001865 153.661514,117.001865 C152.427484,117.001865 151.146887,117.467537 150.238828,118.631716 L150.192261,118.585149 L150.192261,118.096194 C150.192261,117.42097 149.79644,117.001865 149.167783,117.001865 C148.539126,117.001865 148.143305,117.42097 148.143305,118.096194 L148.143305,128.573806 Z" id="Over-50s-Plan" fill="#FFFFFF" transform="translate(91.366290, 120.610821) rotate(-5.000000) translate(-91.366290, -120.610821) "></path>
                <path d="M20.9116892,66.7616682 C20.9116892,71.63331 24.8376594,75.2153995 29.623331,75.2153995 C34.3516892,75.2153995 38.3063161,71.5759966 38.3063161,66.7616682 L38.3063161,56.5312204 C38.3063161,55.0983846 37.3893012,54.2959966 36.1570623,54.2959966 C34.9248235,54.2959966 34.0078086,55.0983846 34.0078086,56.5312204 L34.0078086,66.5324145 C34.0078086,69.0542055 32.2310922,71.2607727 29.623331,71.2607727 C26.9009429,71.2607727 25.2101967,69.1688324 25.2101967,66.5324145 L25.2101967,56.5312204 C25.2101967,55.0983846 24.2931818,54.2959966 23.0609429,54.2959966 C21.8287041,54.2959966 20.9116892,55.0983846 20.9116892,56.5312204 L20.9116892,66.7616682 Z M40.7134803,72.9801757 C40.7134803,74.2410712 41.6304952,75.0434592 42.862734,75.0434592 C44.1522862,75.0434592 45.0119877,74.0977876 45.0119877,72.9801757 L45.0119877,65.672713 L52.4340773,73.6965936 C53.2364653,74.5562951 53.7809429,75.0434592 54.6119877,75.0434592 C55.7869131,75.0434592 56.8472116,74.4130115 56.8472116,73.0661458 C56.8472116,72.2064443 56.3313907,71.5759966 55.6436295,70.8882354 L49.023928,63.9819667 L54.4400474,58.6518175 C55.3857191,57.7061458 55.8442265,57.1043548 55.8442265,56.3592801 C55.8442265,55.1270413 54.8125847,54.2959966 53.7236295,54.2959966 C52.9212415,54.2959966 52.3767638,54.754504 52.06154,55.0983846 L45.0119877,62.6064443 L45.0119877,56.4165936 C45.0119877,55.0983846 44.0949728,54.2959966 42.862734,54.2959966 C41.5731818,54.2959966 40.7134803,55.2416682 40.7134803,56.4165936 L40.7134803,72.9801757 Z M63.1803459,57.1616682 C63.3522862,56.7891309 63.5528832,56.4165936 63.5528832,56.0153995 C63.5528832,54.9837578 62.6072116,54.1240563 61.5755698,54.1240563 C61.1170623,54.1240563 60.2860176,54.4392801 59.9134803,55.0983846 L57.5349728,59.3968921 C57.3630325,59.7694294 57.1910922,60.1419667 57.1910922,60.5431607 C57.1910922,61.5748025 58.1081071,62.434504 59.1397489,62.434504 C59.5982564,62.434504 60.4293012,62.1192801 60.7731818,61.4601757 L63.1803459,57.1616682 Z M73.2388534,62.2625637 C73.2388534,60.2279369 70.1152713,59.2822652 68.0806444,59.2822652 C64.8137788,59.2822652 62.4925847,61.2309219 62.4925847,64.0965936 C62.4925847,68.8249518 69.6567638,68.5383846 69.6567638,70.4297279 C69.6567638,71.2034592 69.2842265,71.6046533 68.023331,71.6046533 C66.0746743,71.6046533 65.3582564,70.2004742 63.7534803,70.2004742 C62.6072116,70.2004742 61.9767638,71.4040563 61.9767638,72.034504 C61.9767638,73.8971906 65.4155698,75.2153995 67.7367638,75.2153995 C71.2901967,75.2153995 73.6113907,73.1234592 73.6113907,70.3724145 C73.6113907,65.672713 66.4472116,65.9592801 66.4472116,64.0392801 C66.4472116,63.2368921 67.1063161,62.8930115 67.8513907,62.8930115 C69.1982564,62.8930115 70.7743758,64.0965936 71.5481071,64.0965936 C72.5224355,64.0965936 73.2388534,63.2082354 73.2388534,62.2625637 L73.2388534,62.2625637 Z M82.2943758,72.4930115 C82.2657191,72.6649518 82.2657191,72.8368921 82.2657191,72.9801757 C82.2657191,74.2410712 83.182734,75.0434592 84.3290026,75.0434592 C85.7904952,75.0434592 86.3636295,74.3843548 86.5642265,73.0374891 L88.2549728,61.3742055 L88.3122862,61.3742055 L91.7510922,73.3813697 C91.9516892,74.0691309 92.4961668,75.0434592 94.0436295,75.0434592 C95.5910922,75.0434592 96.1355698,74.0691309 96.3361668,73.3813697 L99.7749728,61.3742055 L99.8322862,61.3742055 L101.523032,73.0374891 C101.72363,74.3843548 102.296764,75.0434592 103.758256,75.0434592 C104.904525,75.0434592 105.82154,74.2410712 105.82154,72.9801757 C105.82154,72.8368921 105.82154,72.6649518 105.792883,72.4930115 L103.127809,56.5025637 C102.955868,55.4709219 101.838256,54.2959966 100.31945,54.2959966 C98.8866146,54.2959966 97.7690026,55.3276383 97.4537788,56.3592801 L94.0722862,67.7073398 L94.0149728,67.7073398 L90.6334803,56.3592801 C90.3182564,55.3276383 89.2006444,54.2959966 87.7678086,54.2959966 C86.2490026,54.2959966 85.1313907,55.4709219 84.9594504,56.5025637 L82.2943758,72.4930115 Z M116.854376,71.2607727 C113.214973,71.2607727 111.466913,68.1658473 111.466913,64.6697279 C111.466913,61.2022652 113.272286,58.0786831 116.854376,58.0786831 C120.436465,58.0786831 122.241838,61.2022652 122.241838,64.6697279 C122.241838,68.1658473 120.493779,71.2607727 116.854376,71.2607727 L116.854376,71.2607727 Z M116.854376,75.2153995 C122.729003,75.2153995 126.712286,70.6016682 126.712286,64.6697279 C126.712286,58.8524145 122.614376,54.1240563 116.854376,54.1240563 C111.008406,54.1240563 106.996465,58.7091309 106.996465,64.6697279 C106.996465,70.6016682 111.037062,75.2153995 116.854376,75.2153995 L116.854376,75.2153995 Z M134.936764,54.1240563 C131.125421,54.1240563 127.829898,56.6171906 127.829898,60.6291309 C127.829898,67.2774891 137.401241,65.2428622 137.401241,68.6243548 C137.401241,70.0285339 136.3696,71.0888324 134.478256,71.0888324 C132.61557,71.0888324 131.010794,69.9712204 129.663928,69.9712204 C128.489003,69.9712204 127.743928,70.8882354 127.743928,72.0058473 C127.743928,74.6995786 132.500943,75.2153995 134.70751,75.2153995 C138.662137,75.2153995 142.04363,72.6649518 142.04363,68.5670413 C142.04363,61.1736085 132.472286,63.0649518 132.472286,60.11331 C132.472286,58.9097279 133.589898,58.2506234 134.822137,58.2506234 C136.54154,58.2506234 137.458555,59.1103249 138.63348,59.1103249 C139.808406,59.1103249 140.55348,58.1073398 140.55348,56.9897279 C140.55348,54.7258473 136.54154,54.1240563 134.936764,54.1240563 L134.936764,54.1240563 Z M147.316465,72.8082354 C147.316465,74.2410712 148.23348,75.0434592 149.465719,75.0434592 C150.697958,75.0434592 151.614973,74.2410712 151.614973,72.8082354 L151.614973,58.4225637 L154.738555,58.4225637 C156.114077,58.4225637 156.687212,57.4195786 156.687212,56.4452503 C156.687212,55.4422652 155.970794,54.4679369 154.738555,54.4679369 L144.192883,54.4679369 C142.960644,54.4679369 142.244227,55.4422652 142.244227,56.4452503 C142.244227,57.4195786 142.817361,58.4225637 144.192883,58.4225637 L147.316465,58.4225637 L147.316465,72.8082354 Z" id="UK’s-MOST" fill="#FFFFFF" transform="translate(88.799450, 64.669728) rotate(-5.000000) translate(-88.799450, -64.669728) "></path>
            </g>
        </g>
    </g>
</svg>