<?xml version="1.0" encoding="UTF-8" standalone="no"?>
<svg width="380px" height="380px" viewBox="0 0 380 380" version="1.1" xmlns="http://www.w3.org/2000/svg" xmlns:xlink="http://www.w3.org/1999/xlink">
    <!-- Generator: Sketch 39.1 (31720) - http://www.bohemiancoding.com/sketch -->
    <title>roundel-grid-start</title>
    <desc>Created with Sketch.</desc>
    <defs></defs>
    <g id="Templates" stroke="none" stroke-width="1" fill="none" fill-rule="evenodd">
        <g id="14-roundels" transform="translate(-220.000000, -1241.000000)" stroke="#9B9B9B">
            <g id="roundel-grid-start" transform="translate(221.000000, 1242.000000)">
                <path d="M189,377.99416 C84.6223055,377.99416 0.0058403634,293.377694 0.0058403634,189 C0.0058403634,84.6223055 84.6223055,0.0058403634 189,0.0058403634 C293.377694,0.0058403634 377.99416,84.6223055 377.99416,189 C377.99416,293.377694 293.377694,377.99416 189,377.99416 Z" id="Stroke-1"></path>
                <path d="M330.74562,189 C330.74562,267.283271 267.283271,330.74562 189,330.74562 C110.716729,330.74562 47.2543803,267.283271 47.2543803,189 C47.2543803,110.716729 110.716729,47.2543803 189,47.2543803 C267.283271,47.2543803 330.74562,110.716729 330.74562,189 L330.74562,189 Z" id="Stroke-3"></path>
                <path d="M295.309215,189 C295.309215,247.712926 247.712926,295.309215 189,295.309215 C130.287074,295.309215 82.6907852,247.712926 82.6907852,189 C82.6907852,130.287074 130.287074,82.6907852 189,82.6907852 C247.712926,82.6907852 295.309215,130.287074 295.309215,189 L295.309215,189 Z" id="Stroke-5"></path>
                <path d="M268.731911,189 C268.731911,233.035639 233.034694,268.732856 188.999055,268.732856 C144.965306,268.732856 109.268089,233.035639 109.268089,189 C109.268089,144.964361 144.965306,109.267144 188.999055,109.267144 C233.034694,109.267144 268.731911,144.964361 268.731911,189 L268.731911,189 Z" id="Stroke-7"></path>
                <path d="M248.798886,189 C248.798886,222.026729 222.025973,248.799642 188.999244,248.799642 C155.974405,248.799642 129.201492,222.026729 129.201492,189 C129.201492,155.973271 155.974405,129.200358 188.999244,129.200358 C222.025973,129.200358 248.798886,155.973271 248.798886,189 L248.798886,189 Z" id="Stroke-9"></path>
                <path d="M233.849259,189 C233.849259,213.769575 213.77052,233.848314 189.000945,233.848314 C164.23137,233.848314 144.150741,213.769575 144.150741,189 C144.150741,164.230425 164.23137,144.151686 189.000945,144.151686 C213.77052,144.151686 233.849259,164.230425 233.849259,189 L233.849259,189 Z" id="Stroke-11"></path>
                <path d="M222.636992,189 C222.636992,207.576236 207.577937,222.637181 188.999811,222.637181 C170.423575,222.637181 155.36263,207.576236 155.36263,189 C155.36263,170.423764 170.423575,155.362819 188.999811,155.362819 C207.577937,155.362819 222.636992,170.423764 222.636992,189 L222.636992,189 Z" id="Stroke-13"></path>
                <path d="M214.227696,189 C214.227696,202.932649 202.933405,214.22694 189.000756,214.22694 C175.068107,214.22694 163.771926,202.932649 163.771926,189 C163.771926,175.067351 175.068107,163.77306 189.000756,163.77306 C202.933405,163.77306 214.227696,175.067351 214.227696,189 L214.227696,189 Z" id="Stroke-15"></path>
                <path d="M207.920772,189 C207.920772,199.449487 199.450054,207.920205 189.000567,207.920205 C178.55108,207.920205 170.078472,199.449487 170.078472,189 C170.078472,178.550513 178.55108,170.079795 189.000567,170.079795 C199.450054,170.079795 207.920772,178.550513 207.920772,189 L207.920772,189 Z" id="Stroke-17"></path>
                <path d="M203.190626,189 C203.190626,196.837588 196.836643,203.189682 189.000945,203.189682 C181.163357,203.189682 174.809374,196.837588 174.809374,189 C174.809374,181.162412 181.163357,174.810318 189.000945,174.810318 C196.836643,174.810318 203.190626,181.162412 203.190626,189 L203.190626,189 Z" id="Stroke-19"></path>
                <path d="M199.642828,189 C199.642828,194.877718 194.878285,199.642261 189.000567,199.642261 C183.122849,199.642261 178.356416,194.877718 178.356416,189 C178.356416,183.122282 183.122849,178.357739 189.000567,178.357739 C194.878285,178.357739 199.642828,183.122282 199.642828,189 L199.642828,189 Z" id="Stroke-21"></path>
            </g>
        </g>
    </g>
</svg>