<?xml version="1.0" encoding="UTF-8" standalone="no"?>
<svg width="180px" height="180px" viewBox="0 0 180 180" version="1.1" xmlns="http://www.w3.org/2000/svg" xmlns:xlink="http://www.w3.org/1999/xlink">
    <!-- Generator: Sketch 39.1 (31720) - http://www.bohemiancoding.com/sketch -->
    <title>roundel-sunshine-three</title>
    <desc>Created with Sketch.</desc>
    <defs></defs>
    <g id="Templates" stroke="none" stroke-width="1" fill="none" fill-rule="evenodd">
        <g id="14-roundels" transform="translate(-1030.000000, -3713.000000)">
            <g id="roundel-sunshine-three" transform="translate(1030.000000, 3713.000000)">
                <path d="M179.552239,90 C179.552239,139.45791 139.45791,179.552239 90,179.552239 C40.5420896,179.552239 0.447761194,139.45791 0.447761194,90 C0.447761194,40.5420896 40.5420896,0.447761194 90,0.447761194 C139.45791,0.447761194 179.552239,40.5420896 179.552239,90 L179.552239,90 Z" id="Stroke-1" fill="#FFEE00"></path>
                <path d="M60.5258333,91.0909408 L59.0482213,88.5297468 C58.1616542,87.0521348 57.7676243,85.1804931 57.7676243,83.3088513 C57.7676243,78.3834781 62.2989676,75.7237766 67.2243407,75.7237766 C77.4691169,75.7237766 77.1735945,86.0670602 83.8721019,86.0670602 C88.3049378,86.0670602 91.555684,83.1118363 91.555684,78.5804931 C91.555684,68.8282542 80.4243407,61.538702 66.633296,61.538702 C53.236281,61.538702 41.8094154,68.9267617 41.8094154,80.6491498 C41.8094154,83.4073587 43.0900124,88.6282542 44.3706094,91.0909408 L42.3019527,91.0909408 C38.1646393,91.0909408 35.2094154,93.6521348 35.2094154,97.8879557 C35.2094154,102.123777 38.1646393,104.684971 42.3019527,104.684971 L47.4243407,104.684971 C47.4243407,116.899896 38.8541915,121.135717 38.8541915,125.174523 C38.8541915,129.902881 41.7109079,132.858105 46.5377736,132.858105 L85.152699,132.858105 C89.2900124,132.858105 92.2452363,130.296911 92.2452363,126.06109 C92.2452363,121.825269 89.2900124,119.264075 85.152699,119.264075 L57.7676243,119.264075 C60.9198631,114.929747 62.7915049,110.004374 62.7915049,104.684971 L75.4989676,104.684971 C79.636281,104.684971 82.5915049,102.123777 82.5915049,97.8879557 C82.5915049,93.6521348 79.636281,91.0909408 75.4989676,91.0909408 L60.5258333,91.0909408 Z M121.555684,117.392433 L121.555684,125.765568 C121.555684,130.986463 123.624341,133.44915 128.648221,133.44915 C133.672102,133.44915 135.740759,130.986463 135.740759,125.765568 L135.740759,117.392433 L137.415386,117.392433 C141.257177,117.392433 144.310908,114.831239 144.310908,110.890941 C144.310908,106.950642 141.257177,104.389448 137.415386,104.389448 L135.740759,104.389448 L135.740759,74.1476572 C135.740759,65.1834781 130.125833,61.538702 124.4124,61.538702 C119.290012,61.538702 116.531803,63.3118363 114.364639,67.2521348 L92.2989676,107.246165 C91.7079228,108.231239 90.9198631,109.413329 90.9198631,111.580493 C90.9198631,114.141687 92.9885198,117.392433 97.8153855,117.392433 L121.555684,117.392433 Z M121.555684,104.389448 L108.060162,104.389448 L121.358669,76.9058662 L121.555684,76.9058662 L121.555684,104.389448 Z" id="£4" fill="#E3231D" transform="translate(89.760162, 97.493926) rotate(-5.000000) translate(-89.760162, -97.493926) "></path>
                <path d="M32.5086873,45.8572619 L36.4848067,45.8572619 C37.0221201,45.8572619 37.4089858,45.5778589 37.4089858,44.9760679 C37.4089858,44.3742768 37.0221201,44.0948738 36.4848067,44.0948738 L32.5086873,44.0948738 L32.5086873,39.0871127 L37.0006276,39.0871127 C37.537941,39.0871127 37.9248067,38.8077097 37.9248067,38.2059186 C37.9248067,37.6041276 37.537941,37.3247246 37.0006276,37.3247246 L31.6274933,37.3247246 C30.9182395,37.3247246 30.617344,37.7760679 30.617344,38.3563664 L30.617344,51.7462171 C30.617344,52.3695007 30.9827171,52.7563664 31.5630157,52.7563664 C32.1433142,52.7563664 32.5086873,52.3695007 32.5086873,51.7462171 L32.5086873,45.8572619 Z M38.4692843,51.7462171 C38.4692843,52.3695007 38.8346574,52.7563664 39.4149559,52.7563664 C39.9952545,52.7563664 40.3606276,52.3695007 40.3606276,51.7462171 L40.3606276,46.3086052 C40.3606276,44.0948738 41.73615,43.2566649 42.8537619,43.0632321 C43.6489858,42.9127843 44.0358515,42.5689037 44.0358515,42.0315903 C44.0358515,41.4942768 43.6489858,41.0644261 42.9827171,41.0644261 C41.8865977,41.0644261 40.8334634,42.1605455 40.4036127,43.0417395 L40.3606276,43.0417395 L40.3606276,42.0745753 C40.3606276,41.4512918 39.9952545,41.0644261 39.4149559,41.0644261 C38.8346574,41.0644261 38.4692843,41.4512918 38.4692843,42.0745753 L38.4692843,51.7462171 Z M43.8495828,46.9103962 C43.8495828,49.940844 45.6549559,52.7563664 48.8788365,52.7563664 C52.1027171,52.7563664 53.9080903,49.940844 53.9080903,46.9103962 C53.9080903,43.8799485 52.1027171,41.0644261 48.8788365,41.0644261 C45.6549559,41.0644261 43.8495828,43.8799485 43.8495828,46.9103962 L43.8495828,46.9103962 Z M45.7409261,46.9103962 C45.7409261,44.9760679 46.5576425,42.6978589 48.8788365,42.6978589 C51.2000306,42.6978589 52.016747,44.9760679 52.016747,46.9103962 C52.016747,48.8447246 51.2000306,51.1229335 48.8788365,51.1229335 C46.5576425,51.1229335 45.7409261,48.8447246 45.7409261,46.9103962 L45.7409261,46.9103962 Z M61.7815231,51.7462171 C61.7815231,52.3695007 62.1468962,52.7563664 62.7271948,52.7563664 C63.3074933,52.7563664 63.6728664,52.3695007 63.6728664,51.7462171 L63.6728664,45.341441 C63.6728664,43.7080082 64.575553,42.6978589 66.1015231,42.6978589 C67.6489858,42.6978589 68.5516724,43.7080082 68.5516724,45.341441 L68.5516724,51.7462171 C68.5516724,52.3695007 68.9170455,52.7563664 69.497344,52.7563664 C70.0776425,52.7563664 70.4430157,52.3695007 70.4430157,51.7462171 L70.4430157,45.4059186 C70.4430157,42.182038 68.2292843,41.0644261 66.4668962,41.0644261 C64.8119709,41.0644261 63.8018216,41.7951724 62.9636127,42.9987544 C62.1039112,41.5372619 60.9433142,41.0644261 59.8257022,41.0644261 C58.1062992,41.0644261 57.3970455,41.8811425 56.9457022,42.461441 L56.9027171,42.4184559 L56.9027171,42.0745753 C56.9027171,41.4512918 56.537344,41.0644261 55.9570455,41.0644261 C55.376747,41.0644261 55.0113739,41.4512918 55.0113739,42.0745753 L55.0113739,51.7462171 C55.0113739,52.3695007 55.376747,52.7563664 55.9570455,52.7563664 C56.537344,52.7563664 56.9027171,52.3695007 56.9027171,51.7462171 L56.9027171,45.341441 C56.9027171,43.7080082 57.8054037,42.6978589 59.3313739,42.6978589 C60.8788365,42.6978589 61.7815231,43.7080082 61.7815231,45.341441 L61.7815231,51.7462171 Z M78.4095828,37.0453216 C78.4095828,36.422038 78.0442097,36.0351724 77.4639112,36.0351724 C76.8836127,36.0351724 76.5182395,36.422038 76.5182395,37.0453216 L76.5182395,51.7462171 C76.5182395,52.3695007 76.8836127,52.7563664 77.4639112,52.7563664 C78.0442097,52.7563664 78.4095828,52.3695007 78.4095828,51.7462171 L78.4095828,37.0453216 Z M88.3248067,47.6411425 C89.1415231,47.6411425 89.377941,47.2972619 89.377941,46.6309932 C89.377941,43.8799485 87.5725679,41.0644261 84.45615,41.0644261 C81.2537619,41.0644261 79.3194336,43.8154709 79.3194336,46.9103962 C79.3194336,49.940844 80.9098813,52.7563664 84.5636127,52.7563664 C86.7988365,52.7563664 89.1415231,51.3378589 89.1415231,50.4136798 C89.1415231,49.8763664 88.7976425,49.5754709 88.4537619,49.5754709 C87.7445082,49.5754709 87.0997321,51.1229335 84.5851052,51.1229335 C82.457344,51.1229335 81.2107768,49.5969634 81.2107768,47.6411425 L88.3248067,47.6411425 Z M81.2107768,46.222635 C81.2752545,44.4817395 82.1134634,42.6118888 84.45615,42.6978589 C86.5409261,42.6978589 87.4865977,44.5892022 87.4865977,46.222635 L81.2107768,46.222635 Z M90.0298813,44.2883067 C90.0298813,47.4692022 96.1337619,47.340247 96.1337619,49.5754709 C96.1337619,50.3492022 95.295553,51.1229335 93.9200306,51.1229335 C91.856747,51.1229335 91.1689858,49.7259186 90.3307768,49.7259186 C89.9224186,49.7259186 89.5570455,50.0697992 89.5570455,50.5856201 C89.5570455,51.5527843 91.4483888,52.7563664 93.855553,52.7563664 C95.9833142,52.7563664 98.0251052,51.6172619 98.0251052,49.2315903 C98.0251052,45.9217395 91.9212246,46.1366649 91.9212246,44.1378589 C91.9212246,43.1706947 92.8454037,42.6978589 93.9200306,42.6978589 C95.7254037,42.6978589 96.0477918,43.8584559 96.8645082,43.8584559 C97.4448067,43.8584559 97.7242097,43.4930828 97.7242097,43.0847246 C97.7242097,41.902635 95.4889858,41.0644261 93.9200306,41.0644261 C92.0071948,41.0644261 90.0298813,42.182038 90.0298813,44.2883067 L90.0298813,44.2883067 Z M98.6770455,44.2883067 C98.6770455,47.4692022 104.780926,47.340247 104.780926,49.5754709 C104.780926,50.3492022 103.942717,51.1229335 102.567195,51.1229335 C100.503911,51.1229335 99.81615,49.7259186 98.977941,49.7259186 C98.5695828,49.7259186 98.2042097,50.0697992 98.2042097,50.5856201 C98.2042097,51.5527843 100.095553,52.7563664 102.502717,52.7563664 C104.630478,52.7563664 106.672269,51.6172619 106.672269,49.2315903 C106.672269,45.9217395 100.568389,46.1366649 100.568389,44.1378589 C100.568389,43.1706947 101.492568,42.6978589 102.567195,42.6978589 C104.372568,42.6978589 104.694956,43.8584559 105.511672,43.8584559 C106.091971,43.8584559 106.371374,43.4930828 106.371374,43.0847246 C106.371374,41.902635 104.13615,41.0644261 102.567195,41.0644261 C100.654359,41.0644261 98.6770455,42.182038 98.6770455,44.2883067 L98.6770455,44.2883067 Z M112.661523,41.1933813 L111.887792,41.1933813 C111.264508,41.1933813 110.94212,41.4942768 110.94212,42.0100977 C110.94212,42.5259186 111.264508,42.8268141 111.887792,42.8268141 L112.661523,42.8268141 L112.661523,51.7462171 C112.661523,52.3695007 113.026896,52.7563664 113.607195,52.7563664 C114.187493,52.7563664 114.552866,52.3695007 114.552866,51.7462171 L114.552866,42.8268141 L115.326598,42.8268141 C115.949881,42.8268141 116.272269,42.5259186 116.272269,42.0100977 C116.272269,41.4942768 115.949881,41.1933813 115.326598,41.1933813 L114.552866,41.1933813 L114.552866,38.7217395 C114.552866,38.0984559 114.187493,37.7115903 113.607195,37.7115903 C113.026896,37.7115903 112.661523,38.0984559 112.661523,38.7217395 L112.661523,41.1933813 Z M123.930777,51.7462171 C123.930777,52.3695007 124.29615,52.7563664 124.876448,52.7563664 C125.456747,52.7563664 125.82212,52.3695007 125.82212,51.7462171 L125.82212,45.4059186 C125.82212,42.182038 123.608389,41.0644261 121.846001,41.0644261 C120.706896,41.0644261 119.524807,41.4942768 118.686598,42.5689037 L118.643613,42.5259186 L118.643613,37.0453216 C118.643613,36.422038 118.27824,36.0351724 117.697941,36.0351724 C117.117643,36.0351724 116.752269,36.422038 116.752269,37.0453216 L116.752269,51.7462171 C116.752269,52.3695007 117.117643,52.7563664 117.697941,52.7563664 C118.27824,52.7563664 118.643613,52.3695007 118.643613,51.7462171 L118.643613,45.5133813 C118.643613,43.5145753 120.040628,42.6978589 121.287195,42.6978589 C122.533762,42.6978589 123.930777,43.5145753 123.930777,45.5133813 L123.930777,51.7462171 Z M136.876448,41.9886052 C136.876448,41.3223365 136.360628,41.0644261 135.995254,41.0644261 C135.608389,41.0644261 135.11406,41.3223365 135.11406,41.9886052 L135.11406,42.5903962 L135.071075,42.5903962 C134.189881,41.6232321 133.265702,41.0644261 131.954657,41.0644261 C128.730777,41.0644261 126.925404,43.8799485 126.925404,46.9103962 C126.925404,49.940844 128.730777,52.7563664 131.954657,52.7563664 C133.179732,52.7563664 134.254359,52.1975604 135.071075,51.0369634 L135.11406,51.0369634 L135.11406,51.8321873 C135.11406,52.4984559 135.608389,52.7563664 135.995254,52.7563664 C136.360628,52.7563664 136.876448,52.4984559 136.876448,51.8321873 L136.876448,41.9886052 Z M128.816747,46.9103962 C128.816747,44.9760679 129.633463,42.6978589 131.954657,42.6978589 C134.275851,42.6978589 135.092568,44.9760679 135.092568,46.9103962 C135.092568,48.8447246 134.275851,51.1229335 131.954657,51.1229335 C129.633463,51.1229335 128.816747,48.8447246 128.816747,46.9103962 L128.816747,46.9103962 Z M138.47406,51.7462171 C138.47406,52.3695007 138.839434,52.7563664 139.419732,52.7563664 C140.000031,52.7563664 140.365404,52.3695007 140.365404,51.7462171 L140.365404,45.5133813 C140.365404,43.5145753 141.762419,42.6978589 143.008986,42.6978589 C144.255553,42.6978589 145.652568,43.5145753 145.652568,45.5133813 L145.652568,51.7462171 C145.652568,52.3695007 146.017941,52.7563664 146.59824,52.7563664 C147.178538,52.7563664 147.543911,52.3695007 147.543911,51.7462171 L147.543911,45.4059186 C147.543911,42.182038 145.33018,41.0644261 143.567792,41.0644261 C142.428687,41.0644261 141.246598,41.4942768 140.408389,42.5689037 L140.365404,42.5259186 L140.365404,42.0745753 C140.365404,41.4512918 140.000031,41.0644261 139.419732,41.0644261 C138.839434,41.0644261 138.47406,41.4512918 138.47406,42.0745753 L138.47406,51.7462171 Z" id="From-less-than" fill="#1A3053" transform="translate(89.080628, 44.395769) rotate(-5.000000) translate(-89.080628, -44.395769) "></path>
                <path d="M67.0198138,146.721596 C67.0198138,146.055328 66.5039929,145.797417 66.1386198,145.797417 C65.7517541,145.797417 65.2574257,146.055328 65.2574257,146.721596 L65.2574257,147.323387 L65.2144407,147.323387 C64.3332466,146.356223 63.4090675,145.797417 62.0980228,145.797417 C58.8741422,145.797417 57.068769,148.61294 57.068769,151.643387 C57.068769,154.673835 58.8741422,157.489357 62.0980228,157.489357 C63.3230974,157.489357 64.3977242,156.930551 65.2144407,155.769954 L65.2574257,155.769954 L65.2574257,156.565178 C65.2574257,157.231447 65.7517541,157.489357 66.1386198,157.489357 C66.5039929,157.489357 67.0198138,157.231447 67.0198138,156.565178 L67.0198138,146.721596 Z M58.9601123,151.643387 C58.9601123,149.709059 59.7768287,147.43085 62.0980228,147.43085 C64.4192168,147.43085 65.2359332,149.709059 65.2359332,151.643387 C65.2359332,153.577716 64.4192168,155.855925 62.0980228,155.855925 C59.7768287,155.855925 58.9601123,153.577716 58.9601123,151.643387 L58.9601123,151.643387 Z M81.6562317,156.479208 C81.6562317,157.102492 82.0216048,157.489357 82.6019033,157.489357 C83.1822019,157.489357 83.547575,157.102492 83.547575,156.479208 L83.547575,150.074432 C83.547575,148.440999 84.4502616,147.43085 85.9762317,147.43085 C87.5236944,147.43085 88.426381,148.440999 88.426381,150.074432 L88.426381,156.479208 C88.426381,157.102492 88.7917541,157.489357 89.3720526,157.489357 C89.9523511,157.489357 90.3177242,157.102492 90.3177242,156.479208 L90.3177242,150.13891 C90.3177242,146.915029 88.1039929,145.797417 86.3416048,145.797417 C84.6866795,145.797417 83.6765302,146.528163 82.8383213,147.731746 C81.9786198,146.270253 80.8180228,145.797417 79.7004108,145.797417 C77.9810078,145.797417 77.2717541,146.614134 76.8204108,147.194432 L76.7774257,147.151447 L76.7774257,146.807566 C76.7774257,146.184283 76.4120526,145.797417 75.8317541,145.797417 C75.2514556,145.797417 74.8860825,146.184283 74.8860825,146.807566 L74.8860825,156.479208 C74.8860825,157.102492 75.2514556,157.489357 75.8317541,157.489357 C76.4120526,157.489357 76.7774257,157.102492 76.7774257,156.479208 L76.7774257,150.074432 C76.7774257,148.440999 77.6801123,147.43085 79.2060825,147.43085 C80.7535451,147.43085 81.6562317,148.440999 81.6562317,150.074432 L81.6562317,156.479208 Z M92.3165302,151.643387 C92.3165302,154.673835 94.1219033,157.489357 97.3457839,157.489357 C100.569665,157.489357 102.375038,154.673835 102.375038,151.643387 C102.375038,148.61294 100.569665,145.797417 97.3457839,145.797417 C94.1219033,145.797417 92.3165302,148.61294 92.3165302,151.643387 L92.3165302,151.643387 Z M94.2078735,151.643387 C94.2078735,149.709059 95.0245899,147.43085 97.3457839,147.43085 C99.666978,147.43085 100.483694,149.709059 100.483694,151.643387 C100.483694,153.577716 99.666978,155.855925 97.3457839,155.855925 C95.0245899,155.855925 94.2078735,153.577716 94.2078735,151.643387 L94.2078735,151.643387 Z M104.373844,156.479208 C104.373844,157.102492 104.739217,157.489357 105.319515,157.489357 C105.899814,157.489357 106.265187,157.102492 106.265187,156.479208 L106.265187,150.246372 C106.265187,148.247566 107.662202,147.43085 108.908769,147.43085 C110.155336,147.43085 111.552351,148.247566 111.552351,150.246372 L111.552351,156.479208 C111.552351,157.102492 111.917724,157.489357 112.498023,157.489357 C113.078321,157.489357 113.443694,157.102492 113.443694,156.479208 L113.443694,150.13891 C113.443694,146.915029 111.229963,145.797417 109.467575,145.797417 C108.328471,145.797417 107.146381,146.227268 106.308172,147.301895 L106.265187,147.25891 L106.265187,146.807566 C106.265187,146.184283 105.899814,145.797417 105.319515,145.797417 C104.739217,145.797417 104.373844,146.184283 104.373844,146.807566 L104.373844,156.479208 Z M116.53862,145.926372 L115.764888,145.926372 C115.141605,145.926372 114.819217,146.227268 114.819217,146.743089 C114.819217,147.25891 115.141605,147.559805 115.764888,147.559805 L116.53862,147.559805 L116.53862,156.479208 C116.53862,157.102492 116.903993,157.489357 117.484291,157.489357 C118.06459,157.489357 118.429963,157.102492 118.429963,156.479208 L118.429963,147.559805 L119.203694,147.559805 C119.826978,147.559805 120.149366,147.25891 120.149366,146.743089 C120.149366,146.227268 119.826978,145.926372 119.203694,145.926372 L118.429963,145.926372 L118.429963,143.454731 C118.429963,142.831447 118.06459,142.444581 117.484291,142.444581 C116.903993,142.444581 116.53862,142.831447 116.53862,143.454731 L116.53862,145.926372 Z M128.703396,156.479208 C128.703396,157.102492 129.068769,157.489357 129.649068,157.489357 C130.229366,157.489357 130.594739,157.102492 130.594739,156.479208 L130.594739,150.13891 C130.594739,146.915029 128.381008,145.797417 126.61862,145.797417 C125.479515,145.797417 124.297426,146.227268 123.459217,147.301895 L123.416232,147.25891 L123.416232,141.778313 C123.416232,141.155029 123.050859,140.768163 122.47056,140.768163 C121.890262,140.768163 121.524888,141.155029 121.524888,141.778313 L121.524888,156.479208 C121.524888,157.102492 121.890262,157.489357 122.47056,157.489357 C123.050859,157.489357 123.416232,157.102492 123.416232,156.479208 L123.416232,150.246372 C123.416232,148.247566 124.813247,147.43085 126.059814,147.43085 C127.306381,147.43085 128.703396,148.247566 128.703396,150.246372 L128.703396,156.479208 Z" id="a-month" fill="#1A3053" transform="translate(93.831754, 149.128760) rotate(-5.000000) translate(-93.831754, -149.128760) "></path>
            </g>
        </g>
    </g>
</svg>