<?xml version="1.0" encoding="UTF-8" standalone="no"?>
<svg width="180px" height="180px" viewBox="0 0 180 180" version="1.1" xmlns="http://www.w3.org/2000/svg" xmlns:xlink="http://www.w3.org/1999/xlink">
    <!-- Generator: Sketch 39.1 (31720) - http://www.bohemiancoding.com/sketch -->
    <title>roundel-inaccessible-ketchup-three</title>
    <desc>Created with Sketch.</desc>
    <defs></defs>
    <g id="Templates" stroke="none" stroke-width="1" fill="none" fill-rule="evenodd">
        <g id="14-roundels" transform="translate(-629.000000, -5370.000000)">
            <g id="roundel-inaccessible-ketchup-three" transform="translate(629.000000, 5369.980268)">
                <path d="M179.552239,90 C179.552239,139.45791 139.45791,179.552239 90,179.552239 C40.5420896,179.552239 0.447761194,139.45791 0.447761194,90 C0.447761194,40.5420896 40.5420896,0.447761194 90,0.447761194 C139.45791,0.447761194 179.552239,40.5420896 179.552239,90 L179.552239,90 Z" id="Stroke-1" fill="#E3231D"></path>
                <path d="M60.5258333,91.0909408 L59.0482213,88.5297468 C58.1616542,87.0521348 57.7676243,85.1804931 57.7676243,83.3088513 C57.7676243,78.3834781 62.2989676,75.7237766 67.2243407,75.7237766 C77.4691169,75.7237766 77.1735945,86.0670602 83.8721019,86.0670602 C88.3049378,86.0670602 91.555684,83.1118363 91.555684,78.5804931 C91.555684,68.8282542 80.4243407,61.538702 66.633296,61.538702 C53.236281,61.538702 41.8094154,68.9267617 41.8094154,80.6491498 C41.8094154,83.4073587 43.0900124,88.6282542 44.3706094,91.0909408 L42.3019527,91.0909408 C38.1646393,91.0909408 35.2094154,93.6521348 35.2094154,97.8879557 C35.2094154,102.123777 38.1646393,104.684971 42.3019527,104.684971 L47.4243407,104.684971 C47.4243407,116.899896 38.8541915,121.135717 38.8541915,125.174523 C38.8541915,129.902881 41.7109079,132.858105 46.5377736,132.858105 L85.152699,132.858105 C89.2900124,132.858105 92.2452363,130.296911 92.2452363,126.06109 C92.2452363,121.825269 89.2900124,119.264075 85.152699,119.264075 L57.7676243,119.264075 C60.9198631,114.929747 62.7915049,110.004374 62.7915049,104.684971 L75.4989676,104.684971 C79.636281,104.684971 82.5915049,102.123777 82.5915049,97.8879557 C82.5915049,93.6521348 79.636281,91.0909408 75.4989676,91.0909408 L60.5258333,91.0909408 Z M121.555684,117.392433 L121.555684,125.765568 C121.555684,130.986463 123.624341,133.44915 128.648221,133.44915 C133.672102,133.44915 135.740759,130.986463 135.740759,125.765568 L135.740759,117.392433 L137.415386,117.392433 C141.257177,117.392433 144.310908,114.831239 144.310908,110.890941 C144.310908,106.950642 141.257177,104.389448 137.415386,104.389448 L135.740759,104.389448 L135.740759,74.1476572 C135.740759,65.1834781 130.125833,61.538702 124.4124,61.538702 C119.290012,61.538702 116.531803,63.3118363 114.364639,67.2521348 L92.2989676,107.246165 C91.7079228,108.231239 90.9198631,109.413329 90.9198631,111.580493 C90.9198631,114.141687 92.9885198,117.392433 97.8153855,117.392433 L121.555684,117.392433 Z M121.555684,104.389448 L108.060162,104.389448 L121.358669,76.9058662 L121.555684,76.9058662 L121.555684,104.389448 Z" id="£4" fill="#009FE3" transform="translate(89.760162, 97.493926) rotate(-5.000000) translate(-89.760162, -97.493926) "></path>
                <path d="M32.5052796,45.9353118 L36.481399,45.9353118 C37.0187124,45.9353118 37.4055781,45.6559088 37.4055781,45.0541178 C37.4055781,44.4523268 37.0187124,44.1729238 36.481399,44.1729238 L32.5052796,44.1729238 L32.5052796,39.1651626 L36.9972199,39.1651626 C37.5345333,39.1651626 37.921399,38.8857596 37.921399,38.2839685 C37.921399,37.6821775 37.5345333,37.4027745 36.9972199,37.4027745 L31.6240855,37.4027745 C30.9148318,37.4027745 30.6139363,37.8541178 30.6139363,38.4344163 L30.6139363,51.824267 C30.6139363,52.4475506 30.9793094,52.8344163 31.5596079,52.8344163 C32.1399064,52.8344163 32.5052796,52.4475506 32.5052796,51.824267 L32.5052796,45.9353118 Z M38.4658766,51.824267 C38.4658766,52.4475506 38.8312497,52.8344163 39.4115482,52.8344163 C39.9918467,52.8344163 40.3572199,52.4475506 40.3572199,51.824267 L40.3572199,46.3866551 C40.3572199,44.1729238 41.7327422,43.3347148 42.8503542,43.141282 C43.6455781,42.9908342 44.0324437,42.6469536 44.0324437,42.1096402 C44.0324437,41.5723268 43.6455781,41.142476 42.9793094,41.142476 C41.88319,41.142476 40.8300557,42.2385954 40.4002049,43.1197894 L40.3572199,43.1197894 L40.3572199,42.1526253 C40.3572199,41.5293417 39.9918467,41.142476 39.4115482,41.142476 C38.8312497,41.142476 38.4658766,41.5293417 38.4658766,42.1526253 L38.4658766,51.824267 Z M43.8461751,46.9884462 C43.8461751,50.0188939 45.6515482,52.8344163 48.8754288,52.8344163 C52.0993094,52.8344163 53.9046825,50.0188939 53.9046825,46.9884462 C53.9046825,43.9579984 52.0993094,41.142476 48.8754288,41.142476 C45.6515482,41.142476 43.8461751,43.9579984 43.8461751,46.9884462 L43.8461751,46.9884462 Z M45.7375184,46.9884462 C45.7375184,45.0541178 46.5542348,42.7759088 48.8754288,42.7759088 C51.1966228,42.7759088 52.0133393,45.0541178 52.0133393,46.9884462 C52.0133393,48.9227745 51.1966228,51.2009835 48.8754288,51.2009835 C46.5542348,51.2009835 45.7375184,48.9227745 45.7375184,46.9884462 L45.7375184,46.9884462 Z M61.7781154,51.824267 C61.7781154,52.4475506 62.1434885,52.8344163 62.723787,52.8344163 C63.3040855,52.8344163 63.6694587,52.4475506 63.6694587,51.824267 L63.6694587,45.4194909 C63.6694587,43.7860581 64.5721452,42.7759088 66.0981154,42.7759088 C67.6455781,42.7759088 68.5482646,43.7860581 68.5482646,45.4194909 L68.5482646,51.824267 C68.5482646,52.4475506 68.9136378,52.8344163 69.4939363,52.8344163 C70.0742348,52.8344163 70.4396079,52.4475506 70.4396079,51.824267 L70.4396079,45.4839685 C70.4396079,42.2600879 68.2258766,41.142476 66.4634885,41.142476 C64.8085631,41.142476 63.7984139,41.8732223 62.9602049,43.0768044 C62.1005034,41.6153118 60.9399064,41.142476 59.8222945,41.142476 C58.1028915,41.142476 57.3936378,41.9591924 56.9422945,42.5394909 L56.8993094,42.4965059 L56.8993094,42.1526253 C56.8993094,41.5293417 56.5339363,41.142476 55.9536378,41.142476 C55.3733393,41.142476 55.0079661,41.5293417 55.0079661,42.1526253 L55.0079661,51.824267 C55.0079661,52.4475506 55.3733393,52.8344163 55.9536378,52.8344163 C56.5339363,52.8344163 56.8993094,52.4475506 56.8993094,51.824267 L56.8993094,45.4194909 C56.8993094,43.7860581 57.801996,42.7759088 59.3279661,42.7759088 C60.8754288,42.7759088 61.7781154,43.7860581 61.7781154,45.4194909 L61.7781154,51.824267 Z M78.4061751,37.1233715 C78.4061751,36.5000879 78.0408019,36.1132223 77.4605034,36.1132223 C76.8802049,36.1132223 76.5148318,36.5000879 76.5148318,37.1233715 L76.5148318,51.824267 C76.5148318,52.4475506 76.8802049,52.8344163 77.4605034,52.8344163 C78.0408019,52.8344163 78.4061751,52.4475506 78.4061751,51.824267 L78.4061751,37.1233715 Z M88.321399,47.7191924 C89.1381154,47.7191924 89.3745333,47.3753118 89.3745333,46.7090432 C89.3745333,43.9579984 87.5691602,41.142476 84.4527422,41.142476 C81.2503542,41.142476 79.3160258,43.8935208 79.3160258,46.9884462 C79.3160258,50.0188939 80.9064736,52.8344163 84.5602049,52.8344163 C86.7954288,52.8344163 89.1381154,51.4159088 89.1381154,50.4917297 C89.1381154,49.9544163 88.7942348,49.6535208 88.4503542,49.6535208 C87.7411005,49.6535208 87.0963243,51.2009835 84.5816975,51.2009835 C82.4539363,51.2009835 81.2073691,49.6750133 81.2073691,47.7191924 L88.321399,47.7191924 Z M81.2073691,46.300685 C81.2718467,44.5597894 82.1100557,42.6899387 84.4527422,42.7759088 C86.5375184,42.7759088 87.48319,44.6672521 87.48319,46.300685 L81.2073691,46.300685 Z M90.0264736,44.3663566 C90.0264736,47.5472521 96.1303542,47.4182969 96.1303542,49.6535208 C96.1303542,50.4272521 95.2921452,51.2009835 93.9166228,51.2009835 C91.8533393,51.2009835 91.1655781,49.8039685 90.3273691,49.8039685 C89.9190109,49.8039685 89.5536378,50.1478491 89.5536378,50.66367 C89.5536378,51.6308342 91.4449811,52.8344163 93.8521452,52.8344163 C95.9799064,52.8344163 98.0216975,51.6953118 98.0216975,49.3096402 C98.0216975,45.9997894 91.9178169,46.2147148 91.9178169,44.2159088 C91.9178169,43.2487447 92.841996,42.7759088 93.9166228,42.7759088 C95.721996,42.7759088 96.044384,43.9365059 96.8611005,43.9365059 C97.441399,43.9365059 97.7208019,43.5711327 97.7208019,43.1627745 C97.7208019,41.980685 95.4855781,41.142476 93.9166228,41.142476 C92.003787,41.142476 90.0264736,42.2600879 90.0264736,44.3663566 L90.0264736,44.3663566 Z M98.6736378,44.3663566 C98.6736378,47.5472521 104.777518,47.4182969 104.777518,49.6535208 C104.777518,50.4272521 103.939309,51.2009835 102.563787,51.2009835 C100.500503,51.2009835 99.8127422,49.8039685 98.9745333,49.8039685 C98.5661751,49.8039685 98.2008019,50.1478491 98.2008019,50.66367 C98.2008019,51.6308342 100.092145,52.8344163 102.499309,52.8344163 C104.627071,52.8344163 106.668862,51.6953118 106.668862,49.3096402 C106.668862,45.9997894 100.564981,46.2147148 100.564981,44.2159088 C100.564981,43.2487447 101.48916,42.7759088 102.563787,42.7759088 C104.36916,42.7759088 104.691548,43.9365059 105.508265,43.9365059 C106.088563,43.9365059 106.367966,43.5711327 106.367966,43.1627745 C106.367966,41.980685 104.132742,41.142476 102.563787,41.142476 C100.650951,41.142476 98.6736378,42.2600879 98.6736378,44.3663566 L98.6736378,44.3663566 Z M112.658115,41.2714312 L111.884384,41.2714312 C111.2611,41.2714312 110.938712,41.5723268 110.938712,42.0881476 C110.938712,42.6039685 111.2611,42.9048641 111.884384,42.9048641 L112.658115,42.9048641 L112.658115,51.824267 C112.658115,52.4475506 113.023489,52.8344163 113.603787,52.8344163 C114.184086,52.8344163 114.549459,52.4475506 114.549459,51.824267 L114.549459,42.9048641 L115.32319,42.9048641 C115.946474,42.9048641 116.268862,42.6039685 116.268862,42.0881476 C116.268862,41.5723268 115.946474,41.2714312 115.32319,41.2714312 L114.549459,41.2714312 L114.549459,38.7997894 C114.549459,38.1765059 114.184086,37.7896402 113.603787,37.7896402 C113.023489,37.7896402 112.658115,38.1765059 112.658115,38.7997894 L112.658115,41.2714312 Z M123.927369,51.824267 C123.927369,52.4475506 124.292742,52.8344163 124.873041,52.8344163 C125.453339,52.8344163 125.818712,52.4475506 125.818712,51.824267 L125.818712,45.4839685 C125.818712,42.2600879 123.604981,41.142476 121.842593,41.142476 C120.703489,41.142476 119.521399,41.5723268 118.68319,42.6469536 L118.640205,42.6039685 L118.640205,37.1233715 C118.640205,36.5000879 118.274832,36.1132223 117.694533,36.1132223 C117.114235,36.1132223 116.748862,36.5000879 116.748862,37.1233715 L116.748862,51.824267 C116.748862,52.4475506 117.114235,52.8344163 117.694533,52.8344163 C118.274832,52.8344163 118.640205,52.4475506 118.640205,51.824267 L118.640205,45.5914312 C118.640205,43.5926253 120.03722,42.7759088 121.283787,42.7759088 C122.530354,42.7759088 123.927369,43.5926253 123.927369,45.5914312 L123.927369,51.824267 Z M136.873041,42.0666551 C136.873041,41.4003865 136.35722,41.142476 135.991847,41.142476 C135.604981,41.142476 135.110653,41.4003865 135.110653,42.0666551 L135.110653,42.6684462 L135.067668,42.6684462 C134.186474,41.701282 133.262294,41.142476 131.95125,41.142476 C128.727369,41.142476 126.921996,43.9579984 126.921996,46.9884462 C126.921996,50.0188939 128.727369,52.8344163 131.95125,52.8344163 C133.176324,52.8344163 134.250951,52.2756103 135.067668,51.1150133 L135.110653,51.1150133 L135.110653,51.9102372 C135.110653,52.5765059 135.604981,52.8344163 135.991847,52.8344163 C136.35722,52.8344163 136.873041,52.5765059 136.873041,51.9102372 L136.873041,42.0666551 Z M128.813339,46.9884462 C128.813339,45.0541178 129.630056,42.7759088 131.95125,42.7759088 C134.272444,42.7759088 135.08916,45.0541178 135.08916,46.9884462 C135.08916,48.9227745 134.272444,51.2009835 131.95125,51.2009835 C129.630056,51.2009835 128.813339,48.9227745 128.813339,46.9884462 L128.813339,46.9884462 Z M138.470653,51.824267 C138.470653,52.4475506 138.836026,52.8344163 139.416324,52.8344163 C139.996623,52.8344163 140.361996,52.4475506 140.361996,51.824267 L140.361996,45.5914312 C140.361996,43.5926253 141.759011,42.7759088 143.005578,42.7759088 C144.252145,42.7759088 145.64916,43.5926253 145.64916,45.5914312 L145.64916,51.824267 C145.64916,52.4475506 146.014533,52.8344163 146.594832,52.8344163 C147.17513,52.8344163 147.540503,52.4475506 147.540503,51.824267 L147.540503,45.4839685 C147.540503,42.2600879 145.326772,41.142476 143.564384,41.142476 C142.42528,41.142476 141.24319,41.5723268 140.404981,42.6469536 L140.361996,42.6039685 L140.361996,42.1526253 C140.361996,41.5293417 139.996623,41.142476 139.416324,41.142476 C138.836026,41.142476 138.470653,41.5293417 138.470653,42.1526253 L138.470653,51.824267 Z" id="From-less-than" fill="#009FE3" transform="translate(89.077220, 44.473819) rotate(-5.000000) translate(-89.077220, -44.473819) "></path>
                <path d="M67.0198138,147.617119 C67.0198138,146.95085 66.5039929,146.69294 66.1386198,146.69294 C65.7517541,146.69294 65.2574257,146.95085 65.2574257,147.617119 L65.2574257,148.21891 L65.2144407,148.21891 C64.3332466,147.251746 63.4090675,146.69294 62.0980228,146.69294 C58.8741422,146.69294 57.068769,149.508462 57.068769,152.53891 C57.068769,155.569357 58.8741422,158.38488 62.0980228,158.38488 C63.3230974,158.38488 64.3977242,157.826074 65.2144407,156.665477 L65.2574257,156.665477 L65.2574257,157.460701 C65.2574257,158.126969 65.7517541,158.38488 66.1386198,158.38488 C66.5039929,158.38488 67.0198138,158.126969 67.0198138,157.460701 L67.0198138,147.617119 Z M58.9601123,152.53891 C58.9601123,150.604581 59.7768287,148.326372 62.0980228,148.326372 C64.4192168,148.326372 65.2359332,150.604581 65.2359332,152.53891 C65.2359332,154.473238 64.4192168,156.751447 62.0980228,156.751447 C59.7768287,156.751447 58.9601123,154.473238 58.9601123,152.53891 L58.9601123,152.53891 Z M81.6562317,157.374731 C81.6562317,157.998014 82.0216048,158.38488 82.6019033,158.38488 C83.1822019,158.38488 83.547575,157.998014 83.547575,157.374731 L83.547575,150.969954 C83.547575,149.336522 84.4502616,148.326372 85.9762317,148.326372 C87.5236944,148.326372 88.426381,149.336522 88.426381,150.969954 L88.426381,157.374731 C88.426381,157.998014 88.7917541,158.38488 89.3720526,158.38488 C89.9523511,158.38488 90.3177242,157.998014 90.3177242,157.374731 L90.3177242,151.034432 C90.3177242,147.810551 88.1039929,146.69294 86.3416048,146.69294 C84.6866795,146.69294 83.6765302,147.423686 82.8383213,148.627268 C81.9786198,147.165775 80.8180228,146.69294 79.7004108,146.69294 C77.9810078,146.69294 77.2717541,147.509656 76.8204108,148.089954 L76.7774257,148.046969 L76.7774257,147.703089 C76.7774257,147.079805 76.4120526,146.69294 75.8317541,146.69294 C75.2514556,146.69294 74.8860825,147.079805 74.8860825,147.703089 L74.8860825,157.374731 C74.8860825,157.998014 75.2514556,158.38488 75.8317541,158.38488 C76.4120526,158.38488 76.7774257,157.998014 76.7774257,157.374731 L76.7774257,150.969954 C76.7774257,149.336522 77.6801123,148.326372 79.2060825,148.326372 C80.7535451,148.326372 81.6562317,149.336522 81.6562317,150.969954 L81.6562317,157.374731 Z M92.3165302,152.53891 C92.3165302,155.569357 94.1219033,158.38488 97.3457839,158.38488 C100.569665,158.38488 102.375038,155.569357 102.375038,152.53891 C102.375038,149.508462 100.569665,146.69294 97.3457839,146.69294 C94.1219033,146.69294 92.3165302,149.508462 92.3165302,152.53891 L92.3165302,152.53891 Z M94.2078735,152.53891 C94.2078735,150.604581 95.0245899,148.326372 97.3457839,148.326372 C99.666978,148.326372 100.483694,150.604581 100.483694,152.53891 C100.483694,154.473238 99.666978,156.751447 97.3457839,156.751447 C95.0245899,156.751447 94.2078735,154.473238 94.2078735,152.53891 L94.2078735,152.53891 Z M104.373844,157.374731 C104.373844,157.998014 104.739217,158.38488 105.319515,158.38488 C105.899814,158.38488 106.265187,157.998014 106.265187,157.374731 L106.265187,151.141895 C106.265187,149.143089 107.662202,148.326372 108.908769,148.326372 C110.155336,148.326372 111.552351,149.143089 111.552351,151.141895 L111.552351,157.374731 C111.552351,157.998014 111.917724,158.38488 112.498023,158.38488 C113.078321,158.38488 113.443694,157.998014 113.443694,157.374731 L113.443694,151.034432 C113.443694,147.810551 111.229963,146.69294 109.467575,146.69294 C108.328471,146.69294 107.146381,147.12279 106.308172,148.197417 L106.265187,148.154432 L106.265187,147.703089 C106.265187,147.079805 105.899814,146.69294 105.319515,146.69294 C104.739217,146.69294 104.373844,147.079805 104.373844,147.703089 L104.373844,157.374731 Z M116.53862,146.821895 L115.764888,146.821895 C115.141605,146.821895 114.819217,147.12279 114.819217,147.638611 C114.819217,148.154432 115.141605,148.455328 115.764888,148.455328 L116.53862,148.455328 L116.53862,157.374731 C116.53862,157.998014 116.903993,158.38488 117.484291,158.38488 C118.06459,158.38488 118.429963,157.998014 118.429963,157.374731 L118.429963,148.455328 L119.203694,148.455328 C119.826978,148.455328 120.149366,148.154432 120.149366,147.638611 C120.149366,147.12279 119.826978,146.821895 119.203694,146.821895 L118.429963,146.821895 L118.429963,144.350253 C118.429963,143.726969 118.06459,143.340104 117.484291,143.340104 C116.903993,143.340104 116.53862,143.726969 116.53862,144.350253 L116.53862,146.821895 Z M128.703396,157.374731 C128.703396,157.998014 129.068769,158.38488 129.649068,158.38488 C130.229366,158.38488 130.594739,157.998014 130.594739,157.374731 L130.594739,151.034432 C130.594739,147.810551 128.381008,146.69294 126.61862,146.69294 C125.479515,146.69294 124.297426,147.12279 123.459217,148.197417 L123.416232,148.154432 L123.416232,142.673835 C123.416232,142.050551 123.050859,141.663686 122.47056,141.663686 C121.890262,141.663686 121.524888,142.050551 121.524888,142.673835 L121.524888,157.374731 C121.524888,157.998014 121.890262,158.38488 122.47056,158.38488 C123.050859,158.38488 123.416232,157.998014 123.416232,157.374731 L123.416232,151.141895 C123.416232,149.143089 124.813247,148.326372 126.059814,148.326372 C127.306381,148.326372 128.703396,149.143089 128.703396,151.141895 L128.703396,157.374731 Z" id="a-month" fill="#009FE3" transform="translate(93.831754, 150.024283) rotate(-5.000000) translate(-93.831754, -150.024283) "></path>
            </g>
        </g>
    </g>
</svg>