<?xml version="1.0" encoding="UTF-8" standalone="no"?>
<svg width="180px" height="180px" viewBox="0 0 180 180" version="1.1" xmlns="http://www.w3.org/2000/svg" xmlns:xlink="http://www.w3.org/1999/xlink">
    <!-- Generator: Sketch 39.1 (31720) - http://www.bohemiancoding.com/sketch -->
    <title>roundel-example-two</title>
    <desc>Created with Sketch.</desc>
    <defs></defs>
    <g id="Templates" stroke="none" stroke-width="1" fill="none" fill-rule="evenodd">
        <g id="14-roundels" transform="translate(-1027.000000, -1875.000000)">
            <g id="roundel-example-two" transform="translate(1027.000000, 1875.000000)">
                <path d="M179.552239,90 C179.552239,139.45791 139.45791,179.552239 90,179.552239 C40.5420896,179.552239 0.447761194,139.45791 0.447761194,90 C0.447761194,40.5420896 40.5420896,0.447761194 90,0.447761194 C139.45791,0.447761194 179.552239,40.5420896 179.552239,90 L179.552239,90 Z" id="Stroke-1" fill="#9B9B9B"></path>
                <path d="M59.5258333,90.0909408 L58.0482213,87.5297468 C57.1616542,86.0521348 56.7676243,84.1804931 56.7676243,82.3088513 C56.7676243,77.3834781 61.2989676,74.7237766 66.2243407,74.7237766 C76.4691169,74.7237766 76.1735945,85.0670602 82.8721019,85.0670602 C87.3049378,85.0670602 90.555684,82.1118363 90.555684,77.5804931 C90.555684,67.8282542 79.4243407,60.538702 65.633296,60.538702 C52.236281,60.538702 40.8094154,67.9267617 40.8094154,79.6491498 C40.8094154,82.4073587 42.0900124,87.6282542 43.3706094,90.0909408 L41.3019527,90.0909408 C37.1646393,90.0909408 34.2094154,92.6521348 34.2094154,96.8879557 C34.2094154,101.123777 37.1646393,103.684971 41.3019527,103.684971 L46.4243407,103.684971 C46.4243407,115.899896 37.8541915,120.135717 37.8541915,124.174523 C37.8541915,128.902881 40.7109079,131.858105 45.5377736,131.858105 L84.152699,131.858105 C88.2900124,131.858105 91.2452363,129.296911 91.2452363,125.06109 C91.2452363,120.825269 88.2900124,118.264075 84.152699,118.264075 L56.7676243,118.264075 C59.9198631,113.929747 61.7915049,109.004374 61.7915049,103.684971 L74.4989676,103.684971 C78.636281,103.684971 81.5915049,101.123777 81.5915049,96.8879557 C81.5915049,92.6521348 78.636281,90.0909408 74.4989676,90.0909408 L59.5258333,90.0909408 Z M120.555684,116.392433 L120.555684,124.765568 C120.555684,129.986463 122.624341,132.44915 127.648221,132.44915 C132.672102,132.44915 134.740759,129.986463 134.740759,124.765568 L134.740759,116.392433 L136.415386,116.392433 C140.257177,116.392433 143.310908,113.831239 143.310908,109.890941 C143.310908,105.950642 140.257177,103.389448 136.415386,103.389448 L134.740759,103.389448 L134.740759,73.1476572 C134.740759,64.1834781 129.125833,60.538702 123.4124,60.538702 C118.290012,60.538702 115.531803,62.3118363 113.364639,66.2521348 L91.2989676,106.246165 C90.7079228,107.231239 89.9198631,108.413329 89.9198631,110.580493 C89.9198631,113.141687 91.9885198,116.392433 96.8153855,116.392433 L120.555684,116.392433 Z M120.555684,103.389448 L107.060162,103.389448 L120.358669,75.9058662 L120.555684,75.9058662 L120.555684,103.389448 Z" id="£4" fill="#FFFFFF" transform="translate(88.760162, 96.493926) rotate(-5.000000) translate(-88.760162, -96.493926) "></path>
                <path d="M31.5086873,44.8572619 L35.4848067,44.8572619 C36.0221201,44.8572619 36.4089858,44.5778589 36.4089858,43.9760679 C36.4089858,43.3742768 36.0221201,43.0948738 35.4848067,43.0948738 L31.5086873,43.0948738 L31.5086873,38.0871127 L36.0006276,38.0871127 C36.537941,38.0871127 36.9248067,37.8077097 36.9248067,37.2059186 C36.9248067,36.6041276 36.537941,36.3247246 36.0006276,36.3247246 L30.6274933,36.3247246 C29.9182395,36.3247246 29.617344,36.7760679 29.617344,37.3563664 L29.617344,50.7462171 C29.617344,51.3695007 29.9827171,51.7563664 30.5630157,51.7563664 C31.1433142,51.7563664 31.5086873,51.3695007 31.5086873,50.7462171 L31.5086873,44.8572619 Z M37.4692843,50.7462171 C37.4692843,51.3695007 37.8346574,51.7563664 38.4149559,51.7563664 C38.9952545,51.7563664 39.3606276,51.3695007 39.3606276,50.7462171 L39.3606276,45.3086052 C39.3606276,43.0948738 40.73615,42.2566649 41.8537619,42.0632321 C42.6489858,41.9127843 43.0358515,41.5689037 43.0358515,41.0315903 C43.0358515,40.4942768 42.6489858,40.0644261 41.9827171,40.0644261 C40.8865977,40.0644261 39.8334634,41.1605455 39.4036127,42.0417395 L39.3606276,42.0417395 L39.3606276,41.0745753 C39.3606276,40.4512918 38.9952545,40.0644261 38.4149559,40.0644261 C37.8346574,40.0644261 37.4692843,40.4512918 37.4692843,41.0745753 L37.4692843,50.7462171 Z M42.8495828,45.9103962 C42.8495828,48.940844 44.6549559,51.7563664 47.8788365,51.7563664 C51.1027171,51.7563664 52.9080903,48.940844 52.9080903,45.9103962 C52.9080903,42.8799485 51.1027171,40.0644261 47.8788365,40.0644261 C44.6549559,40.0644261 42.8495828,42.8799485 42.8495828,45.9103962 L42.8495828,45.9103962 Z M44.7409261,45.9103962 C44.7409261,43.9760679 45.5576425,41.6978589 47.8788365,41.6978589 C50.2000306,41.6978589 51.016747,43.9760679 51.016747,45.9103962 C51.016747,47.8447246 50.2000306,50.1229335 47.8788365,50.1229335 C45.5576425,50.1229335 44.7409261,47.8447246 44.7409261,45.9103962 L44.7409261,45.9103962 Z M60.7815231,50.7462171 C60.7815231,51.3695007 61.1468962,51.7563664 61.7271948,51.7563664 C62.3074933,51.7563664 62.6728664,51.3695007 62.6728664,50.7462171 L62.6728664,44.341441 C62.6728664,42.7080082 63.575553,41.6978589 65.1015231,41.6978589 C66.6489858,41.6978589 67.5516724,42.7080082 67.5516724,44.341441 L67.5516724,50.7462171 C67.5516724,51.3695007 67.9170455,51.7563664 68.497344,51.7563664 C69.0776425,51.7563664 69.4430157,51.3695007 69.4430157,50.7462171 L69.4430157,44.4059186 C69.4430157,41.182038 67.2292843,40.0644261 65.4668962,40.0644261 C63.8119709,40.0644261 62.8018216,40.7951724 61.9636127,41.9987544 C61.1039112,40.5372619 59.9433142,40.0644261 58.8257022,40.0644261 C57.1062992,40.0644261 56.3970455,40.8811425 55.9457022,41.461441 L55.9027171,41.4184559 L55.9027171,41.0745753 C55.9027171,40.4512918 55.537344,40.0644261 54.9570455,40.0644261 C54.376747,40.0644261 54.0113739,40.4512918 54.0113739,41.0745753 L54.0113739,50.7462171 C54.0113739,51.3695007 54.376747,51.7563664 54.9570455,51.7563664 C55.537344,51.7563664 55.9027171,51.3695007 55.9027171,50.7462171 L55.9027171,44.341441 C55.9027171,42.7080082 56.8054037,41.6978589 58.3313739,41.6978589 C59.8788365,41.6978589 60.7815231,42.7080082 60.7815231,44.341441 L60.7815231,50.7462171 Z M77.4095828,36.0453216 C77.4095828,35.422038 77.0442097,35.0351724 76.4639112,35.0351724 C75.8836127,35.0351724 75.5182395,35.422038 75.5182395,36.0453216 L75.5182395,50.7462171 C75.5182395,51.3695007 75.8836127,51.7563664 76.4639112,51.7563664 C77.0442097,51.7563664 77.4095828,51.3695007 77.4095828,50.7462171 L77.4095828,36.0453216 Z M87.3248067,46.6411425 C88.1415231,46.6411425 88.377941,46.2972619 88.377941,45.6309932 C88.377941,42.8799485 86.5725679,40.0644261 83.45615,40.0644261 C80.2537619,40.0644261 78.3194336,42.8154709 78.3194336,45.9103962 C78.3194336,48.940844 79.9098813,51.7563664 83.5636127,51.7563664 C85.7988365,51.7563664 88.1415231,50.3378589 88.1415231,49.4136798 C88.1415231,48.8763664 87.7976425,48.5754709 87.4537619,48.5754709 C86.7445082,48.5754709 86.0997321,50.1229335 83.5851052,50.1229335 C81.457344,50.1229335 80.2107768,48.5969634 80.2107768,46.6411425 L87.3248067,46.6411425 Z M80.2107768,45.222635 C80.2752545,43.4817395 81.1134634,41.6118888 83.45615,41.6978589 C85.5409261,41.6978589 86.4865977,43.5892022 86.4865977,45.222635 L80.2107768,45.222635 Z M89.0298813,43.2883067 C89.0298813,46.4692022 95.1337619,46.340247 95.1337619,48.5754709 C95.1337619,49.3492022 94.295553,50.1229335 92.9200306,50.1229335 C90.856747,50.1229335 90.1689858,48.7259186 89.3307768,48.7259186 C88.9224186,48.7259186 88.5570455,49.0697992 88.5570455,49.5856201 C88.5570455,50.5527843 90.4483888,51.7563664 92.855553,51.7563664 C94.9833142,51.7563664 97.0251052,50.6172619 97.0251052,48.2315903 C97.0251052,44.9217395 90.9212246,45.1366649 90.9212246,43.1378589 C90.9212246,42.1706947 91.8454037,41.6978589 92.9200306,41.6978589 C94.7254037,41.6978589 95.0477918,42.8584559 95.8645082,42.8584559 C96.4448067,42.8584559 96.7242097,42.4930828 96.7242097,42.0847246 C96.7242097,40.902635 94.4889858,40.0644261 92.9200306,40.0644261 C91.0071948,40.0644261 89.0298813,41.182038 89.0298813,43.2883067 L89.0298813,43.2883067 Z M97.6770455,43.2883067 C97.6770455,46.4692022 103.780926,46.340247 103.780926,48.5754709 C103.780926,49.3492022 102.942717,50.1229335 101.567195,50.1229335 C99.5039112,50.1229335 98.81615,48.7259186 97.977941,48.7259186 C97.5695828,48.7259186 97.2042097,49.0697992 97.2042097,49.5856201 C97.2042097,50.5527843 99.095553,51.7563664 101.502717,51.7563664 C103.630478,51.7563664 105.672269,50.6172619 105.672269,48.2315903 C105.672269,44.9217395 99.5683888,45.1366649 99.5683888,43.1378589 C99.5683888,42.1706947 100.492568,41.6978589 101.567195,41.6978589 C103.372568,41.6978589 103.694956,42.8584559 104.511672,42.8584559 C105.091971,42.8584559 105.371374,42.4930828 105.371374,42.0847246 C105.371374,40.902635 103.13615,40.0644261 101.567195,40.0644261 C99.6543589,40.0644261 97.6770455,41.182038 97.6770455,43.2883067 L97.6770455,43.2883067 Z M111.661523,40.1933813 L110.887792,40.1933813 C110.264508,40.1933813 109.94212,40.4942768 109.94212,41.0100977 C109.94212,41.5259186 110.264508,41.8268141 110.887792,41.8268141 L111.661523,41.8268141 L111.661523,50.7462171 C111.661523,51.3695007 112.026896,51.7563664 112.607195,51.7563664 C113.187493,51.7563664 113.552866,51.3695007 113.552866,50.7462171 L113.552866,41.8268141 L114.326598,41.8268141 C114.949881,41.8268141 115.272269,41.5259186 115.272269,41.0100977 C115.272269,40.4942768 114.949881,40.1933813 114.326598,40.1933813 L113.552866,40.1933813 L113.552866,37.7217395 C113.552866,37.0984559 113.187493,36.7115903 112.607195,36.7115903 C112.026896,36.7115903 111.661523,37.0984559 111.661523,37.7217395 L111.661523,40.1933813 Z M122.930777,50.7462171 C122.930777,51.3695007 123.29615,51.7563664 123.876448,51.7563664 C124.456747,51.7563664 124.82212,51.3695007 124.82212,50.7462171 L124.82212,44.4059186 C124.82212,41.182038 122.608389,40.0644261 120.846001,40.0644261 C119.706896,40.0644261 118.524807,40.4942768 117.686598,41.5689037 L117.643613,41.5259186 L117.643613,36.0453216 C117.643613,35.422038 117.27824,35.0351724 116.697941,35.0351724 C116.117643,35.0351724 115.752269,35.422038 115.752269,36.0453216 L115.752269,50.7462171 C115.752269,51.3695007 116.117643,51.7563664 116.697941,51.7563664 C117.27824,51.7563664 117.643613,51.3695007 117.643613,50.7462171 L117.643613,44.5133813 C117.643613,42.5145753 119.040628,41.6978589 120.287195,41.6978589 C121.533762,41.6978589 122.930777,42.5145753 122.930777,44.5133813 L122.930777,50.7462171 Z M135.876448,40.9886052 C135.876448,40.3223365 135.360628,40.0644261 134.995254,40.0644261 C134.608389,40.0644261 134.11406,40.3223365 134.11406,40.9886052 L134.11406,41.5903962 L134.071075,41.5903962 C133.189881,40.6232321 132.265702,40.0644261 130.954657,40.0644261 C127.730777,40.0644261 125.925404,42.8799485 125.925404,45.9103962 C125.925404,48.940844 127.730777,51.7563664 130.954657,51.7563664 C132.179732,51.7563664 133.254359,51.1975604 134.071075,50.0369634 L134.11406,50.0369634 L134.11406,50.8321873 C134.11406,51.4984559 134.608389,51.7563664 134.995254,51.7563664 C135.360628,51.7563664 135.876448,51.4984559 135.876448,50.8321873 L135.876448,40.9886052 Z M127.816747,45.9103962 C127.816747,43.9760679 128.633463,41.6978589 130.954657,41.6978589 C133.275851,41.6978589 134.092568,43.9760679 134.092568,45.9103962 C134.092568,47.8447246 133.275851,50.1229335 130.954657,50.1229335 C128.633463,50.1229335 127.816747,47.8447246 127.816747,45.9103962 L127.816747,45.9103962 Z M137.47406,50.7462171 C137.47406,51.3695007 137.839434,51.7563664 138.419732,51.7563664 C139.000031,51.7563664 139.365404,51.3695007 139.365404,50.7462171 L139.365404,44.5133813 C139.365404,42.5145753 140.762419,41.6978589 142.008986,41.6978589 C143.255553,41.6978589 144.652568,42.5145753 144.652568,44.5133813 L144.652568,50.7462171 C144.652568,51.3695007 145.017941,51.7563664 145.59824,51.7563664 C146.178538,51.7563664 146.543911,51.3695007 146.543911,50.7462171 L146.543911,44.4059186 C146.543911,41.182038 144.33018,40.0644261 142.567792,40.0644261 C141.428687,40.0644261 140.246598,40.4942768 139.408389,41.5689037 L139.365404,41.5259186 L139.365404,41.0745753 C139.365404,40.4512918 139.000031,40.0644261 138.419732,40.0644261 C137.839434,40.0644261 137.47406,40.4512918 137.47406,41.0745753 L137.47406,50.7462171 Z" id="From-less-than" fill="#FFFFFF" transform="translate(88.080628, 43.395769) rotate(-5.000000) translate(-88.080628, -43.395769) "></path>
                <path d="M66.0198138,145.721596 C66.0198138,145.055328 65.5039929,144.797417 65.1386198,144.797417 C64.7517541,144.797417 64.2574257,145.055328 64.2574257,145.721596 L64.2574257,146.323387 L64.2144407,146.323387 C63.3332466,145.356223 62.4090675,144.797417 61.0980228,144.797417 C57.8741422,144.797417 56.068769,147.61294 56.068769,150.643387 C56.068769,153.673835 57.8741422,156.489357 61.0980228,156.489357 C62.3230974,156.489357 63.3977242,155.930551 64.2144407,154.769954 L64.2574257,154.769954 L64.2574257,155.565178 C64.2574257,156.231447 64.7517541,156.489357 65.1386198,156.489357 C65.5039929,156.489357 66.0198138,156.231447 66.0198138,155.565178 L66.0198138,145.721596 Z M57.9601123,150.643387 C57.9601123,148.709059 58.7768287,146.43085 61.0980228,146.43085 C63.4192168,146.43085 64.2359332,148.709059 64.2359332,150.643387 C64.2359332,152.577716 63.4192168,154.855925 61.0980228,154.855925 C58.7768287,154.855925 57.9601123,152.577716 57.9601123,150.643387 L57.9601123,150.643387 Z M80.6562317,155.479208 C80.6562317,156.102492 81.0216048,156.489357 81.6019033,156.489357 C82.1822019,156.489357 82.547575,156.102492 82.547575,155.479208 L82.547575,149.074432 C82.547575,147.440999 83.4502616,146.43085 84.9762317,146.43085 C86.5236944,146.43085 87.426381,147.440999 87.426381,149.074432 L87.426381,155.479208 C87.426381,156.102492 87.7917541,156.489357 88.3720526,156.489357 C88.9523511,156.489357 89.3177242,156.102492 89.3177242,155.479208 L89.3177242,149.13891 C89.3177242,145.915029 87.1039929,144.797417 85.3416048,144.797417 C83.6866795,144.797417 82.6765302,145.528163 81.8383213,146.731746 C80.9786198,145.270253 79.8180228,144.797417 78.7004108,144.797417 C76.9810078,144.797417 76.2717541,145.614134 75.8204108,146.194432 L75.7774257,146.151447 L75.7774257,145.807566 C75.7774257,145.184283 75.4120526,144.797417 74.8317541,144.797417 C74.2514556,144.797417 73.8860825,145.184283 73.8860825,145.807566 L73.8860825,155.479208 C73.8860825,156.102492 74.2514556,156.489357 74.8317541,156.489357 C75.4120526,156.489357 75.7774257,156.102492 75.7774257,155.479208 L75.7774257,149.074432 C75.7774257,147.440999 76.6801123,146.43085 78.2060825,146.43085 C79.7535451,146.43085 80.6562317,147.440999 80.6562317,149.074432 L80.6562317,155.479208 Z M91.3165302,150.643387 C91.3165302,153.673835 93.1219033,156.489357 96.3457839,156.489357 C99.5696645,156.489357 101.375038,153.673835 101.375038,150.643387 C101.375038,147.61294 99.5696645,144.797417 96.3457839,144.797417 C93.1219033,144.797417 91.3165302,147.61294 91.3165302,150.643387 L91.3165302,150.643387 Z M93.2078735,150.643387 C93.2078735,148.709059 94.0245899,146.43085 96.3457839,146.43085 C98.666978,146.43085 99.4836944,148.709059 99.4836944,150.643387 C99.4836944,152.577716 98.666978,154.855925 96.3457839,154.855925 C94.0245899,154.855925 93.2078735,152.577716 93.2078735,150.643387 L93.2078735,150.643387 Z M103.373844,155.479208 C103.373844,156.102492 103.739217,156.489357 104.319515,156.489357 C104.899814,156.489357 105.265187,156.102492 105.265187,155.479208 L105.265187,149.246372 C105.265187,147.247566 106.662202,146.43085 107.908769,146.43085 C109.155336,146.43085 110.552351,147.247566 110.552351,149.246372 L110.552351,155.479208 C110.552351,156.102492 110.917724,156.489357 111.498023,156.489357 C112.078321,156.489357 112.443694,156.102492 112.443694,155.479208 L112.443694,149.13891 C112.443694,145.915029 110.229963,144.797417 108.467575,144.797417 C107.328471,144.797417 106.146381,145.227268 105.308172,146.301895 L105.265187,146.25891 L105.265187,145.807566 C105.265187,145.184283 104.899814,144.797417 104.319515,144.797417 C103.739217,144.797417 103.373844,145.184283 103.373844,145.807566 L103.373844,155.479208 Z M115.53862,144.926372 L114.764888,144.926372 C114.141605,144.926372 113.819217,145.227268 113.819217,145.743089 C113.819217,146.25891 114.141605,146.559805 114.764888,146.559805 L115.53862,146.559805 L115.53862,155.479208 C115.53862,156.102492 115.903993,156.489357 116.484291,156.489357 C117.06459,156.489357 117.429963,156.102492 117.429963,155.479208 L117.429963,146.559805 L118.203694,146.559805 C118.826978,146.559805 119.149366,146.25891 119.149366,145.743089 C119.149366,145.227268 118.826978,144.926372 118.203694,144.926372 L117.429963,144.926372 L117.429963,142.454731 C117.429963,141.831447 117.06459,141.444581 116.484291,141.444581 C115.903993,141.444581 115.53862,141.831447 115.53862,142.454731 L115.53862,144.926372 Z M127.703396,155.479208 C127.703396,156.102492 128.068769,156.489357 128.649068,156.489357 C129.229366,156.489357 129.594739,156.102492 129.594739,155.479208 L129.594739,149.13891 C129.594739,145.915029 127.381008,144.797417 125.61862,144.797417 C124.479515,144.797417 123.297426,145.227268 122.459217,146.301895 L122.416232,146.25891 L122.416232,140.778313 C122.416232,140.155029 122.050859,139.768163 121.47056,139.768163 C120.890262,139.768163 120.524888,140.155029 120.524888,140.778313 L120.524888,155.479208 C120.524888,156.102492 120.890262,156.489357 121.47056,156.489357 C122.050859,156.489357 122.416232,156.102492 122.416232,155.479208 L122.416232,149.246372 C122.416232,147.247566 123.813247,146.43085 125.059814,146.43085 C126.306381,146.43085 127.703396,147.247566 127.703396,149.246372 L127.703396,155.479208 Z" id="a-month" fill="#FFFFFF" transform="translate(92.831754, 148.128760) rotate(-5.000000) translate(-92.831754, -148.128760) "></path>
            </g>
        </g>
    </g>
</svg>