<?xml version="1.0" encoding="UTF-8" standalone="no"?>
<svg width="182px" height="182px" viewBox="0 0 182 182" version="1.1" xmlns="http://www.w3.org/2000/svg" xmlns:xlink="http://www.w3.org/1999/xlink">
    <!-- Generator: Sketch 39.1 (31720) - http://www.bohemiancoding.com/sketch -->
    <title>roundel-demo-one</title>
    <desc>Created with Sketch.</desc>
    <defs></defs>
    <g id="Templates" stroke="none" stroke-width="1" fill="none" fill-rule="evenodd">
        <g id="14-roundels" transform="translate(-1029.000000, -1439.000000)">
            <g id="roundel-demo-one" transform="translate(1030.000000, 1440.000000)">
                <g id="Page-1" stroke="#9B9B9B">
                    <path d="M179.552239,90 C179.552239,139.45791 139.45791,179.552239 90,179.552239 C40.5420896,179.552239 0.447761194,139.45791 0.447761194,90 C0.447761194,40.5420896 40.5420896,0.447761194 90,0.447761194 C139.45791,0.447761194 179.552239,40.5420896 179.552239,90 L179.552239,90 Z" id="Stroke-1"></path>
                    <path d="M168.34809,90 C168.34809,133.028955 133.466597,167.910448 90.4376418,167.910448 C47.4086866,167.910448 12.527194,133.028955 12.527194,90 C12.527194,46.9710448 47.4086866,12.0895522 90.4376418,12.0895522 C133.466597,12.0895522 168.34809,46.9710448 168.34809,90 L168.34809,90 Z" id="Stroke-11"></path>
                </g>
                <g id="Group-7" transform="translate(19.000000, 44.000000)" fill="#9B9B9B">
                    <path d="M0.327911466,76.3920649 C0.327911466,80.3401781 2.85004164,82.5511215 6.23915407,82.5511215 C9.6282665,82.5511215 12.1503967,80.3401781 12.1503967,76.3920649 L12.1503967,59.1782913 L24.3669647,59.1782913 C28.15016,59.1782913 30.0417576,56.414612 30.0417576,53.6509328 C30.0417576,50.9662158 28.15016,48.2814988 24.3669647,48.2814988 L12.1503967,48.2814988 L12.1503967,36.7530083 L26.6526452,36.7530083 C30.1993908,36.7530083 31.9333553,33.989329 31.9333553,31.304612 C31.9333553,28.5409328 30.1205742,25.8562158 26.6526452,25.8562158 L6.47560377,25.8562158 C2.53477537,25.8562158 0.327911466,28.7778196 0.327911466,32.0152724 L0.327911466,76.3920649 Z M33.609064,76.3920649 C33.609064,80.3401781 36.1311942,82.5511215 39.5203066,82.5511215 C42.909419,82.5511215 45.4315492,80.3401781 45.4315492,76.3920649 L45.4315492,59.2572535 L45.5891824,59.2572535 L63.0864605,80.4981026 C64.3475256,81.9983856 66.2391232,82.5511215 67.6578214,82.5511215 C71.1257504,82.5511215 73.569064,79.5505554 73.569064,76.4710271 C73.569064,75.3655554 73.0961646,74.1811215 71.9927327,72.9966875 L58.5939161,58.6255554 C66.633206,57.3621592 73.1749812,52.3875366 73.1749812,43.7016875 C73.1749812,31.304612 65.6874072,25.8562158 53.5496557,25.8562158 L39.6779398,25.8562158 C35.7371114,25.8562158 33.609064,28.2250837 33.609064,32.0152724 L33.609064,76.3920649 Z M45.4315492,36.7530083 L53.5496557,36.7530083 C57.884567,36.7530083 60.8795966,39.2008384 60.8795966,43.7016875 C60.8795966,48.1235743 57.884567,50.729329 53.5496557,50.729329 L45.4315492,50.729329 L45.4315492,36.7530083 Z M75.7176722,76.1551781 C75.7176722,79.70848 78.3186189,82.0773479 81.7865479,82.0773479 L102.121222,82.0773479 C105.825601,82.0773479 107.717199,79.3136686 107.717199,76.6289517 C107.717199,73.8652724 105.904418,71.1805554 102.121222,71.1805554 L87.5401574,71.1805554 L87.5401574,59.1782913 L100.466075,59.1782913 C104.24927,59.1782913 106.219684,56.414612 106.219684,53.729895 C106.219684,50.9662158 104.328086,48.2814988 100.466075,48.2814988 L87.5401574,48.2814988 L87.5401574,36.7530083 L101.411873,36.7530083 C105.116252,36.7530083 107.00785,33.989329 107.00785,31.304612 C107.00785,28.5409328 105.195069,25.8562158 101.411873,25.8562158 L81.8653645,25.8562158 C77.6880864,25.8562158 75.7176722,28.7778196 75.7176722,32.7259328 L75.7176722,76.1551781 Z M110.49634,76.1551781 C110.49634,79.70848 113.097286,82.0773479 116.565215,82.0773479 L136.89989,82.0773479 C140.604269,82.0773479 142.495866,79.3136686 142.495866,76.6289517 C142.495866,73.8652724 140.683085,71.1805554 136.89989,71.1805554 L122.318825,71.1805554 L122.318825,59.1782913 L135.244742,59.1782913 C139.027937,59.1782913 140.998351,56.414612 140.998351,53.729895 C140.998351,50.9662158 139.106754,48.2814988 135.244742,48.2814988 L122.318825,48.2814988 L122.318825,36.7530083 L136.190541,36.7530083 C139.894919,36.7530083 141.786517,33.989329 141.786517,31.304612 C141.786517,28.5409328 139.973736,25.8562158 136.190541,25.8562158 L116.644032,25.8562158 C112.466754,25.8562158 110.49634,28.7778196 110.49634,32.7259328 L110.49634,76.1551781 Z" id="FREE"></path>
                    <path d="M21.9438806,10.2939496 L25.8321646,10.2939496 C26.3576084,10.2939496 26.735928,10.0202137 26.735928,9.43062884 C26.735928,8.84104393 26.3576084,8.56730808 25.8321646,8.56730808 L21.9438806,8.56730808 L21.9438806,3.66111941 L26.3365907,3.66111941 C26.8620345,3.66111941 27.240354,3.38738356 27.240354,2.79779865 C27.240354,2.20821375 26.8620345,1.9344779 26.3365907,1.9344779 L21.0821528,1.9344779 C20.388567,1.9344779 20.0943185,2.37666658 20.0943185,2.94519488 L20.0943185,16.063459 C20.0943185,16.6741005 20.4516203,17.0531194 21.0190996,17.0531194 C21.5865789,17.0531194 21.9438806,16.6741005 21.9438806,16.063459 L21.9438806,10.2939496 Z M30.4981055,6.58798733 C30.4981055,5.97734582 30.1408037,5.59832695 29.5733244,5.59832695 C29.0058451,5.59832695 28.6485433,5.97734582 28.6485433,6.58798733 L28.6485433,16.063459 C28.6485433,16.6741005 29.0058451,17.0531194 29.5733244,17.0531194 C30.1408037,17.0531194 30.4981055,16.6741005 30.4981055,16.063459 L30.4981055,6.58798733 Z M28.4383658,2.94519488 C28.4383658,3.57689299 28.9427919,4.08225148 29.5733244,4.08225148 C30.203857,4.08225148 30.708283,3.57689299 30.708283,2.94519488 C30.708283,2.31349676 30.203857,1.80813827 29.5733244,1.80813827 C28.9427919,1.80813827 28.4383658,2.31349676 28.4383658,2.94519488 L28.4383658,2.94519488 Z M32.9361646,16.063459 C32.9361646,16.6741005 33.2934664,17.0531194 33.8609457,17.0531194 C34.428425,17.0531194 34.7857268,16.6741005 34.7857268,16.063459 L34.7857268,10.7361383 C34.7857268,8.56730808 36.1308629,7.74610054 37.223786,7.5565911 C38.0014428,7.40919488 38.3797623,7.07228922 38.3797623,6.54587412 C38.3797623,6.01945903 38.0014428,5.59832695 37.3498925,5.59832695 C36.2779871,5.59832695 35.2481173,6.67221375 34.8277623,7.5355345 L34.7857268,7.5355345 L34.7857268,6.58798733 C34.7857268,5.97734582 34.428425,5.59832695 33.8609457,5.59832695 C33.2934664,5.59832695 32.9361646,5.97734582 32.9361646,6.58798733 L32.9361646,16.063459 Z M39.3045433,8.75681752 C39.3045433,11.8731949 45.2735848,11.7468553 45.2735848,13.936742 C45.2735848,14.6947798 44.4538925,15.4528175 43.1087564,15.4528175 C41.0910522,15.4528175 40.4184842,14.0841383 39.5987919,14.0841383 C39.1994546,14.0841383 38.8421528,14.4210439 38.8421528,14.9264024 C38.8421528,15.8739496 40.6917149,17.0531194 43.0457031,17.0531194 C45.1264605,17.0531194 47.1231469,15.9371194 47.1231469,13.5998364 C47.1231469,10.3571194 41.1541055,10.5676854 41.1541055,8.60942129 C41.1541055,7.66187412 42.0578688,7.19862884 43.1087564,7.19862884 C44.8742475,7.19862884 45.1895138,8.33568544 45.9881883,8.33568544 C46.5556676,8.33568544 46.8288984,7.97772318 46.8288984,7.57764771 C46.8288984,6.4195345 44.6430522,5.59832695 43.1087564,5.59832695 C41.2381765,5.59832695 39.3045433,6.69327035 39.3045433,8.75681752 L39.3045433,8.75681752 Z M49.4771351,5.72466658 L48.720496,5.72466658 C48.1109812,5.72466658 47.7957149,6.01945903 47.7957149,6.52481752 C47.7957149,7.03017601 48.1109812,7.32496846 48.720496,7.32496846 L49.4771351,7.32496846 L49.4771351,16.063459 C49.4771351,16.6741005 49.8344368,17.0531194 50.4019161,17.0531194 C50.9693954,17.0531194 51.3266972,16.6741005 51.3266972,16.063459 L51.3266972,7.32496846 L52.0833362,7.32496846 C52.692851,7.32496846 53.0081173,7.03017601 53.0081173,6.52481752 C53.0081173,6.01945903 52.692851,5.72466658 52.0833362,5.72466658 L51.3266972,5.72466658 L51.3266972,3.30315714 C51.3266972,2.69251563 50.9693954,2.31349676 50.4019161,2.31349676 C49.8344368,2.31349676 49.4771351,2.69251563 49.4771351,3.30315714 L49.4771351,5.72466658 Z M66.228283,16.063459 C66.228283,16.6741005 66.5855848,17.0531194 67.1530641,17.0531194 C67.7205433,17.0531194 68.0778451,16.6741005 68.0778451,16.063459 L68.0778451,9.7885911 C68.0778451,8.18828922 68.9605907,7.19862884 70.452851,7.19862884 C71.9661291,7.19862884 72.8488747,8.18828922 72.8488747,9.7885911 L72.8488747,16.063459 C72.8488747,16.6741005 73.2061765,17.0531194 73.7736558,17.0531194 C74.3411351,17.0531194 74.6984368,16.6741005 74.6984368,16.063459 L74.6984368,9.85176092 C74.6984368,6.69327035 72.5336084,5.59832695 70.8101528,5.59832695 C69.191786,5.59832695 68.2039516,6.31425148 67.3842593,7.49342129 C66.5435493,6.06157224 65.4085907,5.59832695 64.3156676,5.59832695 C62.6342475,5.59832695 61.9406617,6.3984779 61.4992889,6.9670062 L61.4572534,6.92489299 L61.4572534,6.58798733 C61.4572534,5.97734582 61.0999516,5.59832695 60.5324723,5.59832695 C59.9649931,5.59832695 59.6076913,5.97734582 59.6076913,6.58798733 L59.6076913,16.063459 C59.6076913,16.6741005 59.9649931,17.0531194 60.5324723,17.0531194 C61.0999516,17.0531194 61.4572534,16.6741005 61.4572534,16.063459 L61.4572534,9.7885911 C61.4572534,8.18828922 62.339999,7.19862884 63.8322593,7.19862884 C65.3455374,7.19862884 66.228283,8.18828922 66.228283,9.7885911 L66.228283,16.063459 Z M76.6530877,11.3257232 C76.6530877,14.2947043 78.4185789,17.0531194 81.5712416,17.0531194 C84.7239043,17.0531194 86.4893954,14.2947043 86.4893954,11.3257232 C86.4893954,8.35674205 84.7239043,5.59832695 81.5712416,5.59832695 C78.4185789,5.59832695 76.6530877,8.35674205 76.6530877,11.3257232 L76.6530877,11.3257232 Z M78.5026499,11.3257232 C78.5026499,9.43062884 79.3013244,7.19862884 81.5712416,7.19862884 C83.8411587,7.19862884 84.6398333,9.43062884 84.6398333,11.3257232 C84.6398333,13.2208175 83.8411587,15.4528175 81.5712416,15.4528175 C79.3013244,15.4528175 78.5026499,13.2208175 78.5026499,11.3257232 L78.5026499,11.3257232 Z M88.4440463,16.063459 C88.4440463,16.6741005 88.8013481,17.0531194 89.3688274,17.0531194 C89.9363067,17.0531194 90.2936084,16.6741005 90.2936084,16.063459 L90.2936084,9.95704393 C90.2936084,7.99877978 91.6597623,7.19862884 92.8787919,7.19862884 C94.0978215,7.19862884 95.4639753,7.99877978 95.4639753,9.95704393 L95.4639753,16.063459 C95.4639753,16.6741005 95.8212771,17.0531194 96.3887564,17.0531194 C96.9562357,17.0531194 97.3135374,16.6741005 97.3135374,16.063459 L97.3135374,9.85176092 C97.3135374,6.69327035 95.148709,5.59832695 93.4252534,5.59832695 C92.3113126,5.59832695 91.1553362,6.01945903 90.3356439,7.07228922 L90.2936084,7.03017601 L90.2936084,6.58798733 C90.2936084,5.97734582 89.9363067,5.59832695 89.3688274,5.59832695 C88.8013481,5.59832695 88.4440463,5.97734582 88.4440463,6.58798733 L88.4440463,16.063459 Z M100.340094,5.72466658 L99.5834546,5.72466658 C98.9739398,5.72466658 98.6586735,6.01945903 98.6586735,6.52481752 C98.6586735,7.03017601 98.9739398,7.32496846 99.5834546,7.32496846 L100.340094,7.32496846 L100.340094,16.063459 C100.340094,16.6741005 100.697395,17.0531194 101.264875,17.0531194 C101.832354,17.0531194 102.189656,16.6741005 102.189656,16.063459 L102.189656,7.32496846 L102.946295,7.32496846 C103.55581,7.32496846 103.871076,7.03017601 103.871076,6.52481752 C103.871076,6.01945903 103.55581,5.72466658 102.946295,5.72466658 L102.189656,5.72466658 L102.189656,3.30315714 C102.189656,2.69251563 101.832354,2.31349676 101.264875,2.31349676 C100.697395,2.31349676 100.340094,2.69251563 100.340094,3.30315714 L100.340094,5.72466658 Z M112.236141,16.063459 C112.236141,16.6741005 112.593443,17.0531194 113.160922,17.0531194 C113.728401,17.0531194 114.085703,16.6741005 114.085703,16.063459 L114.085703,9.85176092 C114.085703,6.69327035 111.920875,5.59832695 110.197419,5.59832695 C109.083478,5.59832695 107.927502,6.01945903 107.10781,7.07228922 L107.065774,7.03017601 L107.065774,1.66074205 C107.065774,1.05010054 106.708472,0.67108167 106.140993,0.67108167 C105.573514,0.67108167 105.216212,1.05010054 105.216212,1.66074205 L105.216212,16.063459 C105.216212,16.6741005 105.573514,17.0531194 106.140993,17.0531194 C106.708472,17.0531194 107.065774,16.6741005 107.065774,16.063459 L107.065774,9.95704393 C107.065774,7.99877978 108.431928,7.19862884 109.650958,7.19862884 C110.869987,7.19862884 112.236141,7.99877978 112.236141,9.95704393 L112.236141,16.063459 Z" id="First-month"></path>
                </g>
            </g>
        </g>
    </g>
</svg>