<?xml version="1.0" encoding="UTF-8" standalone="no"?>
<svg width="180px" height="180px" viewBox="0 0 180 180" version="1.1" xmlns="http://www.w3.org/2000/svg" xmlns:xlink="http://www.w3.org/1999/xlink">
    <!-- Generator: Sketch 39.1 (31720) - http://www.bohemiancoding.com/sketch -->
    <title>roundel-example-seven</title>
    <desc>Created with Sketch.</desc>
    <defs></defs>
    <g id="Templates" stroke="none" stroke-width="1" fill="none" fill-rule="evenodd">
        <g id="14-roundels" transform="translate(-828.000000, -2074.000000)">
            <g id="roundel-example-seven" transform="translate(918.000000, 2164.000000) rotate(-5.000000) translate(-918.000000, -2164.000000) translate(828.000000, 2074.000000)">
                <path d="M179.552239,90 C179.552239,139.45791 139.45791,179.552239 90,179.552239 C40.5420896,179.552239 0.447761194,139.45791 0.447761194,90 C0.447761194,40.5420896 40.5420896,0.447761194 90,0.447761194 C139.45791,0.447761194 179.552239,40.5420896 179.552239,90 L179.552239,90 Z" id="Stroke-1" fill="#9B9B9B"></path>
                <path d="M36.0429851,101.545075 C36.0429851,104.410746 37.8770149,106.015522 40.3414925,106.015522 C42.8059701,106.015522 44.64,104.410746 44.64,101.545075 L44.64,89.0507463 L53.5235821,89.0507463 C56.2746269,89.0507463 57.6501493,87.0447761 57.6501493,85.038806 C57.6501493,83.0901493 56.2746269,81.1414925 53.5235821,81.1414925 L44.64,81.1414925 L44.64,72.7737313 L55.1856716,72.7737313 C57.7647761,72.7737313 59.0256716,70.7677612 59.0256716,68.8191045 C59.0256716,66.8131343 57.7074627,64.8644776 55.1856716,64.8644776 L40.5134328,64.8644776 C37.6477612,64.8644776 36.0429851,66.9850746 36.0429851,69.3349254 L36.0429851,101.545075 Z M62.3856716,101.545075 C62.3856716,104.410746 64.2197015,106.015522 66.6841791,106.015522 C69.1486567,106.015522 70.9826866,104.410746 70.9826866,101.545075 L70.9826866,89.1080597 L71.0973134,89.1080597 L83.8208955,104.525373 C84.7379104,105.614328 86.1134328,106.015522 87.1450746,106.015522 C89.6668657,106.015522 91.4435821,103.837612 91.4435821,101.602388 C91.4435821,100.8 91.0997015,99.9402985 90.2973134,99.080597 L80.5540299,88.6495522 C86.4,87.7325373 91.1570149,84.121791 91.1570149,77.8173134 C91.1570149,68.8191045 85.7122388,64.8644776 76.8859701,64.8644776 L66.798806,64.8644776 C63.9331343,64.8644776 62.3856716,66.5838806 62.3856716,69.3349254 L62.3856716,101.545075 Z M70.9826866,72.7737313 L76.8859701,72.7737313 C80.038209,72.7737313 82.2161194,74.5504478 82.2161194,77.8173134 C82.2161194,81.0268657 80.038209,82.918209 76.8859701,82.918209 L70.9826866,82.918209 L70.9826866,72.7737313 Z M95.1474627,101.373134 C95.1474627,103.952239 97.038806,105.671642 99.560597,105.671642 L114.347463,105.671642 C117.041194,105.671642 118.416716,103.665672 118.416716,101.717015 C118.416716,99.7110448 117.098507,97.7623881 114.347463,97.7623881 L103.744478,97.7623881 L103.744478,89.0507463 L113.143881,89.0507463 C115.894925,89.0507463 117.327761,87.0447761 117.327761,85.0961194 C117.327761,83.0901493 115.952239,81.1414925 113.143881,81.1414925 L103.744478,81.1414925 L103.744478,72.7737313 L113.831642,72.7737313 C116.525373,72.7737313 117.900896,70.7677612 117.900896,68.8191045 C117.900896,66.8131343 116.582687,64.8644776 113.831642,64.8644776 L99.6179104,64.8644776 C96.5802985,64.8644776 95.1474627,66.9850746 95.1474627,69.8507463 L95.1474627,101.373134 Z M122.579104,101.373134 C122.579104,103.952239 124.470448,105.671642 126.992239,105.671642 L141.779104,105.671642 C144.472836,105.671642 145.848358,103.665672 145.848358,101.717015 C145.848358,99.7110448 144.530149,97.7623881 141.779104,97.7623881 L131.176119,97.7623881 L131.176119,89.0507463 L140.575522,89.0507463 C143.326567,89.0507463 144.759403,87.0447761 144.759403,85.0961194 C144.759403,83.0901493 143.383881,81.1414925 140.575522,81.1414925 L131.176119,81.1414925 L131.176119,72.7737313 L141.263284,72.7737313 C143.957015,72.7737313 145.332537,70.7677612 145.332537,68.8191045 C145.332537,66.8131343 144.014328,64.8644776 141.263284,64.8644776 L127.049552,64.8644776 C124.01194,64.8644776 122.579104,66.9850746 122.579104,69.8507463 L122.579104,101.373134 Z" id="FREE" fill="#FFFFFF"></path>
                <path d="M43.8822375,44.2746269 L47.8583569,44.2746269 C48.3956703,44.2746269 48.782536,43.9952239 48.782536,43.3934328 C48.782536,42.7916418 48.3956703,42.5122388 47.8583569,42.5122388 L43.8822375,42.5122388 L43.8822375,37.5044776 L48.3741778,37.5044776 C48.9114912,37.5044776 49.2983569,37.2250746 49.2983569,36.6232836 C49.2983569,36.0214925 48.9114912,35.7420896 48.3741778,35.7420896 L43.0010434,35.7420896 C42.2917897,35.7420896 41.9908942,36.1934328 41.9908942,36.7737313 L41.9908942,50.1635821 C41.9908942,50.7868657 42.3562673,51.1737313 42.9365658,51.1737313 C43.5168643,51.1737313 43.8822375,50.7868657 43.8822375,50.1635821 L43.8822375,44.2746269 Z M52.6297001,40.4919403 C52.6297001,39.8686567 52.264327,39.481791 51.6840285,39.481791 C51.10373,39.481791 50.7383569,39.8686567 50.7383569,40.4919403 L50.7383569,50.1635821 C50.7383569,50.7868657 51.10373,51.1737313 51.6840285,51.1737313 C52.264327,51.1737313 52.6297001,50.7868657 52.6297001,50.1635821 L52.6297001,40.4919403 Z M50.5234315,36.7737313 C50.5234315,37.4185075 51.0392524,37.9343284 51.6840285,37.9343284 C52.3288046,37.9343284 52.8446255,37.4185075 52.8446255,36.7737313 C52.8446255,36.1289552 52.3288046,35.6131343 51.6840285,35.6131343 C51.0392524,35.6131343 50.5234315,36.1289552 50.5234315,36.7737313 L50.5234315,36.7737313 Z M55.1228345,50.1635821 C55.1228345,50.7868657 55.4882076,51.1737313 56.0685061,51.1737313 C56.6488046,51.1737313 57.0141778,50.7868657 57.0141778,50.1635821 L57.0141778,44.7259701 C57.0141778,42.5122388 58.3897001,41.6740299 59.5073121,41.480597 C60.302536,41.3301493 60.6894016,40.9862687 60.6894016,40.4489552 C60.6894016,39.9116418 60.302536,39.481791 59.6362673,39.481791 C58.5401479,39.481791 57.4870136,40.5779104 57.0571628,41.4591045 L57.0141778,41.4591045 L57.0141778,40.4919403 C57.0141778,39.8686567 56.6488046,39.481791 56.0685061,39.481791 C55.4882076,39.481791 55.1228345,39.8686567 55.1228345,40.4919403 L55.1228345,50.1635821 Z M61.6350733,42.7056716 C61.6350733,45.8865672 67.7389539,45.7576119 67.7389539,47.9928358 C67.7389539,48.7665672 66.9007449,49.5402985 65.5252225,49.5402985 C63.461939,49.5402985 62.7741778,48.1432836 61.9359688,48.1432836 C61.5276106,48.1432836 61.1622375,48.4871642 61.1622375,49.0029851 C61.1622375,49.9701493 63.0535807,51.1737313 65.4607449,51.1737313 C67.5885061,51.1737313 69.6302972,50.0346269 69.6302972,47.6489552 C69.6302972,44.3391045 63.5264166,44.5540299 63.5264166,42.5552239 C63.5264166,41.5880597 64.4505957,41.1152239 65.5252225,41.1152239 C67.3305957,41.1152239 67.6529837,42.2758209 68.4697001,42.2758209 C69.0499987,42.2758209 69.3294016,41.9104478 69.3294016,41.5020896 C69.3294016,40.32 67.0941778,39.481791 65.5252225,39.481791 C63.6123867,39.481791 61.6350733,40.599403 61.6350733,42.7056716 L61.6350733,42.7056716 Z M72.0374613,39.6107463 L71.26373,39.6107463 C70.6404464,39.6107463 70.3180584,39.9116418 70.3180584,40.4274627 C70.3180584,40.9432836 70.6404464,41.2441791 71.26373,41.2441791 L72.0374613,41.2441791 L72.0374613,50.1635821 C72.0374613,50.7868657 72.4028345,51.1737313 72.983133,51.1737313 C73.5634315,51.1737313 73.9288046,50.7868657 73.9288046,50.1635821 L73.9288046,41.2441791 L74.702536,41.2441791 C75.3258196,41.2441791 75.6482076,40.9432836 75.6482076,40.4274627 C75.6482076,39.9116418 75.3258196,39.6107463 74.702536,39.6107463 L73.9288046,39.6107463 L73.9288046,37.1391045 C73.9288046,36.5158209 73.5634315,36.1289552 72.983133,36.1289552 C72.4028345,36.1289552 72.0374613,36.5158209 72.0374613,37.1391045 L72.0374613,39.6107463 Z M89.1670136,50.1635821 C89.1670136,50.7868657 89.5323867,51.1737313 90.1126852,51.1737313 C90.6929837,51.1737313 91.0583569,50.7868657 91.0583569,50.1635821 L91.0583569,43.758806 C91.0583569,42.1253731 91.9610434,41.1152239 93.4870136,41.1152239 C95.0344763,41.1152239 95.9371628,42.1253731 95.9371628,43.758806 L95.9371628,50.1635821 C95.9371628,50.7868657 96.302536,51.1737313 96.8828345,51.1737313 C97.463133,51.1737313 97.8285061,50.7868657 97.8285061,50.1635821 L97.8285061,43.8232836 C97.8285061,40.599403 95.6147748,39.481791 93.8523867,39.481791 C92.1974613,39.481791 91.1873121,40.2125373 90.3491031,41.4161194 C89.4894016,39.9546269 88.3288046,39.481791 87.2111927,39.481791 C85.4917897,39.481791 84.782536,40.2985075 84.3311927,40.878806 L84.2882076,40.8358209 L84.2882076,40.4919403 C84.2882076,39.8686567 83.9228345,39.481791 83.342536,39.481791 C82.7622375,39.481791 82.3968643,39.8686567 82.3968643,40.4919403 L82.3968643,50.1635821 C82.3968643,50.7868657 82.7622375,51.1737313 83.342536,51.1737313 C83.9228345,51.1737313 84.2882076,50.7868657 84.2882076,50.1635821 L84.2882076,43.758806 C84.2882076,42.1253731 85.1908942,41.1152239 86.7168643,41.1152239 C88.264327,41.1152239 89.1670136,42.1253731 89.1670136,43.758806 L89.1670136,50.1635821 Z M99.8273121,45.3277612 C99.8273121,48.358209 101.632685,51.1737313 104.856566,51.1737313 C108.080446,51.1737313 109.88582,48.358209 109.88582,45.3277612 C109.88582,42.2973134 108.080446,39.481791 104.856566,39.481791 C101.632685,39.481791 99.8273121,42.2973134 99.8273121,45.3277612 L99.8273121,45.3277612 Z M101.718655,45.3277612 C101.718655,43.3934328 102.535372,41.1152239 104.856566,41.1152239 C107.17776,41.1152239 107.994476,43.3934328 107.994476,45.3277612 C107.994476,47.2620896 107.17776,49.5402985 104.856566,49.5402985 C102.535372,49.5402985 101.718655,47.2620896 101.718655,45.3277612 L101.718655,45.3277612 Z M111.884626,50.1635821 C111.884626,50.7868657 112.249999,51.1737313 112.830297,51.1737313 C113.410596,51.1737313 113.775969,50.7868657 113.775969,50.1635821 L113.775969,43.9307463 C113.775969,41.9319403 115.172984,41.1152239 116.419551,41.1152239 C117.666118,41.1152239 119.063133,41.9319403 119.063133,43.9307463 L119.063133,50.1635821 C119.063133,50.7868657 119.428506,51.1737313 120.008805,51.1737313 C120.589103,51.1737313 120.954476,50.7868657 120.954476,50.1635821 L120.954476,43.8232836 C120.954476,40.599403 118.740745,39.481791 116.978357,39.481791 C115.839252,39.481791 114.657163,39.9116418 113.818954,40.9862687 L113.775969,40.9432836 L113.775969,40.4919403 C113.775969,39.8686567 113.410596,39.481791 112.830297,39.481791 C112.249999,39.481791 111.884626,39.8686567 111.884626,40.4919403 L111.884626,50.1635821 Z M124.049402,39.6107463 L123.27567,39.6107463 C122.652387,39.6107463 122.329999,39.9116418 122.329999,40.4274627 C122.329999,40.9432836 122.652387,41.2441791 123.27567,41.2441791 L124.049402,41.2441791 L124.049402,50.1635821 C124.049402,50.7868657 124.414775,51.1737313 124.995073,51.1737313 C125.575372,51.1737313 125.940745,50.7868657 125.940745,50.1635821 L125.940745,41.2441791 L126.714476,41.2441791 C127.33776,41.2441791 127.660148,40.9432836 127.660148,40.4274627 C127.660148,39.9116418 127.33776,39.6107463 126.714476,39.6107463 L125.940745,39.6107463 L125.940745,37.1391045 C125.940745,36.5158209 125.575372,36.1289552 124.995073,36.1289552 C124.414775,36.1289552 124.049402,36.5158209 124.049402,37.1391045 L124.049402,39.6107463 Z M136.214178,50.1635821 C136.214178,50.7868657 136.579551,51.1737313 137.159849,51.1737313 C137.740148,51.1737313 138.105521,50.7868657 138.105521,50.1635821 L138.105521,43.8232836 C138.105521,40.599403 135.89179,39.481791 134.129402,39.481791 C132.990297,39.481791 131.808208,39.9116418 130.969999,40.9862687 L130.927014,40.9432836 L130.927014,35.4626866 C130.927014,34.839403 130.56164,34.4525373 129.981342,34.4525373 C129.401043,34.4525373 129.03567,34.839403 129.03567,35.4626866 L129.03567,50.1635821 C129.03567,50.7868657 129.401043,51.1737313 129.981342,51.1737313 C130.56164,51.1737313 130.927014,50.7868657 130.927014,50.1635821 L130.927014,43.9307463 C130.927014,41.9319403 132.324029,41.1152239 133.570596,41.1152239 C134.817163,41.1152239 136.214178,41.9319403 136.214178,43.9307463 L136.214178,50.1635821 Z" id="First-month" fill="#FFFFFF"></path>
                <path d="M52.6316418,128.611343 C52.6316418,126.677015 53.4483582,124.398806 55.7695522,124.398806 C58.0907463,124.398806 58.9074627,126.677015 58.9074627,128.611343 C58.9074627,130.545672 58.0907463,132.823881 55.7695522,132.823881 C53.4483582,132.823881 52.6316418,130.545672 52.6316418,128.611343 L52.6316418,128.611343 Z M50.9337313,137.960597 C50.9337313,138.583881 51.2991045,138.970746 51.879403,138.970746 C52.4597015,138.970746 52.8250746,138.583881 52.8250746,137.960597 L52.8250746,132.909851 L52.8680597,132.909851 C53.3623881,133.619104 54.4155224,134.457313 55.92,134.457313 C59.0149254,134.457313 60.798806,131.641791 60.798806,128.611343 C60.798806,125.580896 59.0149254,122.765373 55.92,122.765373 C54.4155224,122.765373 53.4053731,123.302687 52.8680597,124.334328 L52.8250746,124.334328 L52.8250746,123.775522 C52.8250746,123.152239 52.4597015,122.765373 51.879403,122.765373 C51.2991045,122.765373 50.9337313,123.152239 50.9337313,123.775522 L50.9337313,137.960597 Z M62.7976119,133.447164 C62.7976119,134.070448 63.1629851,134.457313 63.7432836,134.457313 C64.3235821,134.457313 64.6889552,134.070448 64.6889552,133.447164 L64.6889552,128.009552 C64.6889552,125.795821 66.0644776,124.957612 67.1820896,124.764179 C67.9773134,124.613731 68.3641791,124.269851 68.3641791,123.732537 C68.3641791,123.195224 67.9773134,122.765373 67.3110448,122.765373 C66.2149254,122.765373 65.161791,123.861493 64.7319403,124.742687 L64.6889552,124.742687 L64.6889552,123.775522 C64.6889552,123.152239 64.3235821,122.765373 63.7432836,122.765373 C63.1629851,122.765373 62.7976119,123.152239 62.7976119,123.775522 L62.7976119,133.447164 Z M77.8853731,129.34209 C78.7020896,129.34209 78.9385075,128.998209 78.9385075,128.33194 C78.9385075,125.580896 77.1331343,122.765373 74.0167164,122.765373 C70.8143284,122.765373 68.88,125.516418 68.88,128.611343 C68.88,131.641791 70.4704478,134.457313 74.1241791,134.457313 C76.359403,134.457313 78.7020896,133.038806 78.7020896,132.114627 C78.7020896,131.577313 78.358209,131.276418 78.0143284,131.276418 C77.3050746,131.276418 76.6602985,132.823881 74.1456716,132.823881 C72.0179104,132.823881 70.7713433,131.29791 70.7713433,129.34209 L77.8853731,129.34209 Z M70.7713433,127.923582 C70.8358209,126.182687 71.6740299,124.312836 74.0167164,124.398806 C76.1014925,124.398806 77.0471642,126.290149 77.0471642,127.923582 L70.7713433,127.923582 Z M87.5140299,133.447164 C87.5140299,134.070448 87.879403,134.457313 88.4597015,134.457313 C89.04,134.457313 89.4053731,134.070448 89.4053731,133.447164 L89.4053731,127.042388 C89.4053731,125.408955 90.3080597,124.398806 91.8340299,124.398806 C93.3814925,124.398806 94.2841791,125.408955 94.2841791,127.042388 L94.2841791,133.447164 C94.2841791,134.070448 94.6495522,134.457313 95.2298507,134.457313 C95.8101493,134.457313 96.1755224,134.070448 96.1755224,133.447164 L96.1755224,127.106866 C96.1755224,123.882985 93.961791,122.765373 92.199403,122.765373 C90.5444776,122.765373 89.5343284,123.496119 88.6961194,124.699701 C87.8364179,123.238209 86.6758209,122.765373 85.558209,122.765373 C83.838806,122.765373 83.1295522,123.58209 82.678209,124.162388 L82.6352239,124.119403 L82.6352239,123.775522 C82.6352239,123.152239 82.2698507,122.765373 81.6895522,122.765373 C81.1092537,122.765373 80.7438806,123.152239 80.7438806,123.775522 L80.7438806,133.447164 C80.7438806,134.070448 81.1092537,134.457313 81.6895522,134.457313 C82.2698507,134.457313 82.6352239,134.070448 82.6352239,133.447164 L82.6352239,127.042388 C82.6352239,125.408955 83.5379104,124.398806 85.0638806,124.398806 C86.6113433,124.398806 87.5140299,125.408955 87.5140299,127.042388 L87.5140299,133.447164 Z M100.56,123.775522 C100.56,123.152239 100.194627,122.765373 99.6143284,122.765373 C99.0340299,122.765373 98.6686567,123.152239 98.6686567,123.775522 L98.6686567,133.447164 C98.6686567,134.070448 99.0340299,134.457313 99.6143284,134.457313 C100.194627,134.457313 100.56,134.070448 100.56,133.447164 L100.56,123.775522 Z M98.4537313,120.057313 C98.4537313,120.70209 98.9695522,121.21791 99.6143284,121.21791 C100.259104,121.21791 100.774925,120.70209 100.774925,120.057313 C100.774925,119.412537 100.259104,118.896716 99.6143284,118.896716 C98.9695522,118.896716 98.4537313,119.412537 98.4537313,120.057313 L98.4537313,120.057313 Z M103.053134,129.900896 C103.053134,133.253731 105.288358,134.457313 107.58806,134.457313 C109.887761,134.457313 112.122985,133.253731 112.122985,129.900896 L112.122985,123.775522 C112.122985,123.152239 111.757612,122.765373 111.177313,122.765373 C110.597015,122.765373 110.231642,123.152239 110.231642,123.775522 L110.231642,129.836418 C110.231642,131.792239 109.37194,132.823881 107.58806,132.823881 C105.804179,132.823881 104.944478,131.792239 104.944478,129.836418 L104.944478,123.775522 C104.944478,123.152239 104.579104,122.765373 103.998806,122.765373 C103.418507,122.765373 103.053134,123.152239 103.053134,123.775522 L103.053134,129.900896 Z M121.386269,133.447164 C121.386269,134.070448 121.751642,134.457313 122.33194,134.457313 C122.912239,134.457313 123.277612,134.070448 123.277612,133.447164 L123.277612,127.042388 C123.277612,125.408955 124.180299,124.398806 125.706269,124.398806 C127.253731,124.398806 128.156418,125.408955 128.156418,127.042388 L128.156418,133.447164 C128.156418,134.070448 128.521791,134.457313 129.10209,134.457313 C129.682388,134.457313 130.047761,134.070448 130.047761,133.447164 L130.047761,127.106866 C130.047761,123.882985 127.83403,122.765373 126.071642,122.765373 C124.416716,122.765373 123.406567,123.496119 122.568358,124.699701 C121.708657,123.238209 120.54806,122.765373 119.430448,122.765373 C117.711045,122.765373 117.001791,123.58209 116.550448,124.162388 L116.507463,124.119403 L116.507463,123.775522 C116.507463,123.152239 116.14209,122.765373 115.561791,122.765373 C114.981493,122.765373 114.616119,123.152239 114.616119,123.775522 L114.616119,133.447164 C114.616119,134.070448 114.981493,134.457313 115.561791,134.457313 C116.14209,134.457313 116.507463,134.070448 116.507463,133.447164 L116.507463,127.042388 C116.507463,125.408955 117.410149,124.398806 118.936119,124.398806 C120.483582,124.398806 121.386269,125.408955 121.386269,127.042388 L121.386269,133.447164 Z" id="premium" fill="#FFFFFF"></path>
            </g>
        </g>
    </g>
</svg>