<?xml version="1.0" encoding="UTF-8" standalone="no"?>
<svg width="180px" height="180px" viewBox="0 0 180 180" version="1.1" xmlns="http://www.w3.org/2000/svg" xmlns:xlink="http://www.w3.org/1999/xlink">
    <!-- Generator: Sketch 39.1 (31720) - http://www.bohemiancoding.com/sketch -->
    <title>roundel-example-eight</title>
    <desc>Created with Sketch.</desc>
    <defs></defs>
    <g id="Templates" stroke="none" stroke-width="1" fill="none" fill-rule="evenodd">
        <g id="14-roundels" transform="translate(-1029.000000, -2074.000000)">
            <g id="roundel-example-eight" transform="translate(1119.000000, 2164.000000) rotate(-5.000000) translate(-1119.000000, -2164.000000) translate(1029.000000, 2074.000000)">
                <path d="M179.552239,90 C179.552239,139.45791 139.45791,179.552239 90,179.552239 C40.5420896,179.552239 0.447761194,139.45791 0.447761194,90 C0.447761194,40.5420896 40.5420896,0.447761194 90,0.447761194 C139.45791,0.447761194 179.552239,40.5420896 179.552239,90 L179.552239,90 Z" id="Stroke-1" fill="#9B9B9B"></path>
                <path d="M23.8567164,96.680597 C19.3074627,96.680597 17.1223881,92.8119403 17.1223881,88.441791 C17.1223881,84.1074627 19.3791045,80.2029851 23.8567164,80.2029851 C28.3343284,80.2029851 30.5910448,84.1074627 30.5910448,88.441791 C30.5910448,92.8119403 28.4059701,96.680597 23.8567164,96.680597 L23.8567164,96.680597 Z M23.8567164,101.623881 C31.2,101.623881 36.1791045,95.8567164 36.1791045,88.441791 C36.1791045,81.1701493 31.0567164,75.2597015 23.8567164,75.2597015 C16.5492537,75.2597015 11.5343284,80.9910448 11.5343284,88.441791 C11.5343284,95.8567164 16.5850746,101.623881 23.8567164,101.623881 L23.8567164,101.623881 Z M44.7402985,99.3313433 C45.2059701,100.477612 45.8149254,101.408955 47.3910448,101.408955 C48.9671642,101.408955 49.5761194,100.477612 50.041791,99.3313433 L57.8865672,79.3791045 C58.0656716,78.9134328 58.1373134,78.5552239 58.1373134,78.0537313 C58.1373134,76.5492537 56.8119403,75.4746269 55.3791045,75.4746269 C54.161194,75.4746269 53.4089552,76.2626866 52.9432836,77.2298507 L47.3910448,92.1313433 L41.838806,77.2298507 C41.3731343,76.2626866 40.6208955,75.4746269 39.4029851,75.4746269 C37.9701493,75.4746269 36.6447761,76.5492537 36.6447761,78.0537313 C36.6447761,78.5552239 36.7164179,78.9134328 36.8955224,79.3791045 L44.7402985,99.3313433 Z M59.6059701,98.5074627 C59.6059701,100.119403 60.7880597,101.19403 62.3641791,101.19403 L71.6059701,101.19403 C73.2895522,101.19403 74.1492537,99.9402985 74.1492537,98.7223881 C74.1492537,97.4686567 73.3253731,96.2507463 71.6059701,96.2507463 L64.9791045,96.2507463 L64.9791045,90.8059701 L70.8537313,90.8059701 C72.5731343,90.8059701 73.4686567,89.5522388 73.4686567,88.3343284 C73.4686567,87.080597 72.6089552,85.8626866 70.8537313,85.8626866 L64.9791045,85.8626866 L64.9791045,80.6328358 L71.2835821,80.6328358 C72.9671642,80.6328358 73.8268657,79.3791045 73.8268657,78.161194 C73.8268657,76.9074627 73.0029851,75.6895522 71.2835821,75.6895522 L62.4,75.6895522 C60.5014925,75.6895522 59.6059701,77.0149254 59.6059701,78.8059701 L59.6059701,98.5074627 Z M76.1910448,98.6149254 C76.1910448,100.40597 77.3373134,101.408955 78.8776119,101.408955 C80.4179104,101.408955 81.5641791,100.40597 81.5641791,98.6149254 L81.5641791,90.841791 L81.6358209,90.841791 L89.5880597,100.477612 C90.161194,101.158209 91.0208955,101.408955 91.6656716,101.408955 C93.241791,101.408955 94.3522388,100.047761 94.3522388,98.6507463 C94.3522388,98.1492537 94.1373134,97.6119403 93.6358209,97.0746269 L87.5462687,90.5552239 C91.2,89.9820896 94.1731343,87.7253731 94.1731343,83.7850746 C94.1731343,78.161194 90.7701493,75.6895522 85.2537313,75.6895522 L78.9492537,75.6895522 C77.158209,75.6895522 76.1910448,76.7641791 76.1910448,78.4835821 L76.1910448,98.6149254 Z M81.5641791,80.6328358 L85.2537313,80.6328358 C87.2238806,80.6328358 88.5850746,81.7432836 88.5850746,83.7850746 C88.5850746,85.7910448 87.2238806,86.9731343 85.2537313,86.9731343 L81.5641791,86.9731343 L81.5641791,80.6328358 Z M113.050746,80.6328358 L119.785075,80.6328358 C120.429851,80.6328358 122.292537,80.4179104 122.292537,77.9462687 C122.292537,76.6567164 121.325373,75.6895522 119.677612,75.6895522 L111.044776,75.6895522 C109.325373,75.6895522 108.644776,76.2985075 108.250746,79.0925373 L107.355224,86.6507463 C107.319403,87.0447761 107.247761,87.4029851 107.247761,87.8686567 C107.247761,88.4776119 107.964179,89.5522388 109.361194,89.5522388 C111.18806,89.5522388 111.510448,88.3701493 113.58806,88.3701493 C115.808955,88.3701493 117.026866,89.838806 117.026866,91.9880597 C117.026866,94.2447761 115.737313,96.680597 113.229851,96.680597 C110.829851,96.680597 109.110448,94.3880597 107.677612,94.3880597 C106.352239,94.3880597 105.241791,95.4985075 105.241791,96.8238806 C105.241791,99.9761194 110.579104,101.623881 113.122388,101.623881 C119.319403,101.623881 122.614925,97.6835821 122.614925,91.7014925 C122.614925,87.5104478 119.534328,84.0716418 115.2,84.0716418 C114.304478,84.0716418 113.373134,84.2507463 112.513433,84.4298507 L113.050746,80.6328358 Z M134.937313,96.7522388 C131.283582,96.7522388 131.032836,90.9850746 131.032836,88.441791 C131.032836,85.719403 131.283582,80.1313433 134.937313,80.1313433 C138.591045,80.1313433 138.841791,85.719403 138.841791,88.441791 C138.841791,90.9850746 138.591045,96.7522388 134.937313,96.7522388 L134.937313,96.7522388 Z M134.937313,101.623881 C142.173134,101.623881 144.429851,94.280597 144.429851,88.441791 C144.429851,82.6029851 142.173134,75.2597015 134.937313,75.2597015 C127.701493,75.2597015 125.444776,82.6029851 125.444776,88.441791 C125.444776,94.280597 127.701493,101.623881 134.937313,101.623881 L134.937313,101.623881 Z M159.653731,85.4328358 C159.653731,82.8895522 155.749254,81.7074627 153.20597,81.7074627 C149.122388,81.7074627 146.220896,84.1432836 146.220896,87.7253731 C146.220896,93.6358209 155.176119,93.2776119 155.176119,95.641791 C155.176119,96.6089552 154.710448,97.1104478 153.134328,97.1104478 C150.698507,97.1104478 149.802985,95.3552239 147.797015,95.3552239 C146.364179,95.3552239 145.576119,96.8597015 145.576119,97.6477612 C145.576119,99.9761194 149.874627,101.623881 152.776119,101.623881 C157.21791,101.623881 160.119403,99.0089552 160.119403,95.5701493 C160.119403,89.6955224 151.164179,90.0537313 151.164179,87.6537313 C151.164179,86.6507463 151.98806,86.2208955 152.919403,86.2208955 C154.602985,86.2208955 156.573134,87.7253731 157.540299,87.7253731 C158.758209,87.7253731 159.653731,86.6149254 159.653731,85.4328358 L159.653731,85.4328358 Z M168.286567,79.0567164 C168.501493,78.5910448 168.752239,78.1253731 168.752239,77.6238806 C168.752239,76.3343284 167.570149,75.2597015 166.280597,75.2597015 C165.707463,75.2597015 164.668657,75.6537313 164.202985,76.4776119 L161.229851,81.8507463 C161.014925,82.3164179 160.8,82.7820896 160.8,83.2835821 C160.8,84.5731343 161.946269,85.6477612 163.235821,85.6477612 C163.808955,85.6477612 164.847761,85.2537313 165.277612,84.4298507 L168.286567,79.0567164 Z" id="OVER-50s’" fill="#FFFFFF"></path>
                <path d="M35.7374613,54.558806 C35.7374613,58.4274627 38.2198494,59.201194 40.1864166,59.201194 C42.1529837,59.201194 44.6353718,58.4274627 44.6353718,54.558806 L44.6353718,48.2883582 C44.6353718,47.8208955 44.3613419,47.5307463 43.9261181,47.5307463 C43.4908942,47.5307463 43.2168643,47.8208955 43.2168643,48.2883582 L43.2168643,55.1068657 C43.2168643,56.9122388 41.9917897,57.9761194 40.1864166,57.9761194 C38.3810434,57.9761194 37.1559688,56.9122388 37.1559688,55.1068657 L37.1559688,48.2883582 C37.1559688,47.8208955 36.881939,47.5307463 36.4467151,47.5307463 C36.0114912,47.5307463 35.7374613,47.8208955 35.7374613,48.2883582 L35.7374613,54.558806 Z M47.2520882,53.64 L52.60373,58.8949254 C52.8938793,59.1689552 53.0873121,59.201194 53.2968643,59.201194 C53.68373,59.201194 53.9899987,58.9110448 53.9899987,58.5725373 C53.9899987,58.3629851 53.925521,58.201791 53.6998494,57.9922388 L48.5577598,53.0274627 L53.2646255,48.7880597 C53.4258196,48.6429851 53.5547748,48.5140299 53.5547748,48.1432836 C53.5547748,47.7725373 53.2968643,47.5307463 52.9422375,47.5307463 C52.6520882,47.5307463 52.4264166,47.7402985 52.1685061,47.9820896 L47.2520882,52.479403 L47.2520882,48.2883582 C47.2520882,47.8208955 46.9780584,47.5307463 46.5428345,47.5307463 C46.1076106,47.5307463 45.8335807,47.8208955 45.8335807,48.2883582 L45.8335807,58.4435821 C45.8335807,58.9110448 46.1076106,59.201194 46.5428345,59.201194 C46.9780584,59.201194 47.2520882,58.9110448 47.2520882,58.4435821 L47.2520882,53.64 Z M54.0598494,49.9002985 C53.9308942,50.158209 53.882536,50.319403 53.882536,50.4967164 C53.882536,50.8513433 54.1888046,51.1092537 54.5273121,51.1092537 C54.9464166,51.1092537 55.12373,50.8191045 55.284924,50.5128358 L56.1876106,48.7397015 C56.3165658,48.481791 56.364924,48.320597 56.364924,48.1432836 C56.364924,47.7886567 56.0586554,47.5307463 55.7201479,47.5307463 C55.3010434,47.5307463 55.12373,47.8208955 54.962536,48.1271642 L54.0598494,49.9002985 Z M55.9511927,52.8501493 C55.9511927,55.2358209 60.5291031,55.1391045 60.5291031,56.8155224 C60.5291031,57.3958209 59.9004464,57.9761194 58.8688046,57.9761194 C57.3213419,57.9761194 56.805521,56.9283582 56.1768643,56.9283582 C55.8705957,56.9283582 55.5965658,57.1862687 55.5965658,57.5731343 C55.5965658,58.2985075 57.0150733,59.201194 58.8204464,59.201194 C60.4162673,59.201194 61.9476106,58.3468657 61.9476106,56.5576119 C61.9476106,54.0752239 57.3697001,54.2364179 57.3697001,52.7373134 C57.3697001,52.0119403 58.0628345,51.6573134 58.8688046,51.6573134 C60.2228345,51.6573134 60.4646255,52.5277612 61.0771628,52.5277612 C61.5123867,52.5277612 61.721939,52.2537313 61.721939,51.9474627 C61.721939,51.0608955 60.045521,50.4322388 58.8688046,50.4322388 C57.4341778,50.4322388 55.9511927,51.2704478 55.9511927,52.8501493 L55.9511927,52.8501493 Z M71.0658196,58.4435821 C71.0658196,58.9110448 71.3398494,59.201194 71.7750733,59.201194 C72.2102972,59.201194 72.484327,58.9110448 72.484327,58.4435821 L72.484327,53.64 C72.484327,52.4149254 73.1613419,51.6573134 74.3058196,51.6573134 C75.4664166,51.6573134 76.1434315,52.4149254 76.1434315,53.64 L76.1434315,58.4435821 C76.1434315,58.9110448 76.4174613,59.201194 76.8526852,59.201194 C77.2879091,59.201194 77.561939,58.9110448 77.561939,58.4435821 L77.561939,53.6883582 C77.561939,51.2704478 75.9016404,50.4322388 74.5798494,50.4322388 C73.3386554,50.4322388 72.5810434,50.9802985 71.9523867,51.8829851 C71.3076106,50.7868657 70.4371628,50.4322388 69.5989539,50.4322388 C68.3094016,50.4322388 67.7774613,51.0447761 67.4389539,51.48 L67.4067151,51.4477612 L67.4067151,51.1898507 C67.4067151,50.7223881 67.1326852,50.4322388 66.6974613,50.4322388 C66.2622375,50.4322388 65.9882076,50.7223881 65.9882076,51.1898507 L65.9882076,58.4435821 C65.9882076,58.9110448 66.2622375,59.201194 66.6974613,59.201194 C67.1326852,59.201194 67.4067151,58.9110448 67.4067151,58.4435821 L67.4067151,53.64 C67.4067151,52.4149254 68.08373,51.6573134 69.2282076,51.6573134 C70.3888046,51.6573134 71.0658196,52.4149254 71.0658196,53.64 L71.0658196,58.4435821 Z M78.3894016,54.8167164 C78.3894016,57.0895522 79.7434315,59.201194 82.1613419,59.201194 C84.5792524,59.201194 85.9332822,57.0895522 85.9332822,54.8167164 C85.9332822,52.5438806 84.5792524,50.4322388 82.1613419,50.4322388 C79.7434315,50.4322388 78.3894016,52.5438806 78.3894016,54.8167164 L78.3894016,54.8167164 Z M79.8079091,54.8167164 C79.8079091,53.3659701 80.4204464,51.6573134 82.1613419,51.6573134 C83.9022375,51.6573134 84.5147748,53.3659701 84.5147748,54.8167164 C84.5147748,56.2674627 83.9022375,57.9761194 82.1613419,57.9761194 C80.4204464,57.9761194 79.8079091,56.2674627 79.8079091,54.8167164 L79.8079091,54.8167164 Z M86.5673121,52.8501493 C86.5673121,55.2358209 91.1452225,55.1391045 91.1452225,56.8155224 C91.1452225,57.3958209 90.5165658,57.9761194 89.484924,57.9761194 C87.9374613,57.9761194 87.4216404,56.9283582 86.7929837,56.9283582 C86.4867151,56.9283582 86.2126852,57.1862687 86.2126852,57.5731343 C86.2126852,58.2985075 87.6311927,59.201194 89.4365658,59.201194 C91.0323867,59.201194 92.56373,58.3468657 92.56373,56.5576119 C92.56373,54.0752239 87.9858196,54.2364179 87.9858196,52.7373134 C87.9858196,52.0119403 88.6789539,51.6573134 89.484924,51.6573134 C90.8389539,51.6573134 91.0807449,52.5277612 91.6932822,52.5277612 C92.1285061,52.5277612 92.3380584,52.2537313 92.3380584,51.9474627 C92.3380584,51.0608955 90.6616404,50.4322388 89.484924,50.4322388 C88.0502972,50.4322388 86.5673121,51.2704478 86.5673121,52.8501493 L86.5673121,52.8501493 Z M93.6974613,50.5289552 L93.1171628,50.5289552 C92.6497001,50.5289552 92.4079091,50.7546269 92.4079091,51.1414925 C92.4079091,51.5283582 92.6497001,51.7540299 93.1171628,51.7540299 L93.6974613,51.7540299 L93.6974613,58.4435821 C93.6974613,58.9110448 93.9714912,59.201194 94.4067151,59.201194 C94.841939,59.201194 95.1159688,58.9110448 95.1159688,58.4435821 L95.1159688,51.7540299 L95.6962673,51.7540299 C96.16373,51.7540299 96.405521,51.5283582 96.405521,51.1414925 C96.405521,50.7546269 96.16373,50.5289552 95.6962673,50.5289552 L95.1159688,50.5289552 L95.1159688,48.6752239 C95.1159688,48.2077612 94.841939,47.9176119 94.4067151,47.9176119 C93.9714912,47.9176119 93.6974613,48.2077612 93.6974613,48.6752239 L93.6974613,50.5289552 Z M101.46164,54.8167164 C101.46164,53.3659701 102.074178,51.6573134 103.815073,51.6573134 C105.555969,51.6573134 106.168506,53.3659701 106.168506,54.8167164 C106.168506,56.2674627 105.555969,57.9761194 103.815073,57.9761194 C102.074178,57.9761194 101.46164,56.2674627 101.46164,54.8167164 L101.46164,54.8167164 Z M100.188208,61.8286567 C100.188208,62.2961194 100.462237,62.5862687 100.897461,62.5862687 C101.332685,62.5862687 101.606715,62.2961194 101.606715,61.8286567 L101.606715,58.040597 L101.638954,58.040597 C102.0097,58.5725373 102.799551,59.201194 103.927909,59.201194 C106.249103,59.201194 107.587014,57.0895522 107.587014,54.8167164 C107.587014,52.5438806 106.249103,50.4322388 103.927909,50.4322388 C102.799551,50.4322388 102.041939,50.8352239 101.638954,51.6089552 L101.606715,51.6089552 L101.606715,51.1898507 C101.606715,50.7223881 101.332685,50.4322388 100.897461,50.4322388 C100.462237,50.4322388 100.188208,50.7223881 100.188208,51.1898507 L100.188208,61.8286567 Z M108.04373,54.8167164 C108.04373,57.0895522 109.39776,59.201194 111.81567,59.201194 C114.233581,59.201194 115.587611,57.0895522 115.587611,54.8167164 C115.587611,52.5438806 114.233581,50.4322388 111.81567,50.4322388 C109.39776,50.4322388 108.04373,52.5438806 108.04373,54.8167164 L108.04373,54.8167164 Z M109.462237,54.8167164 C109.462237,53.3659701 110.074775,51.6573134 111.81567,51.6573134 C113.556566,51.6573134 114.169103,53.3659701 114.169103,54.8167164 C114.169103,56.2674627 113.556566,57.9761194 111.81567,57.9761194 C110.074775,57.9761194 109.462237,56.2674627 109.462237,54.8167164 L109.462237,54.8167164 Z M117.752984,54.8167164 C117.752984,53.3659701 118.365521,51.6573134 120.106417,51.6573134 C121.847312,51.6573134 122.459849,53.3659701 122.459849,54.8167164 C122.459849,56.2674627 121.847312,57.9761194 120.106417,57.9761194 C118.365521,57.9761194 117.752984,56.2674627 117.752984,54.8167164 L117.752984,54.8167164 Z M116.479551,61.8286567 C116.479551,62.2961194 116.753581,62.5862687 117.188805,62.5862687 C117.624029,62.5862687 117.898058,62.2961194 117.898058,61.8286567 L117.898058,58.040597 L117.930297,58.040597 C118.301043,58.5725373 119.090894,59.201194 120.219252,59.201194 C122.540446,59.201194 123.878357,57.0895522 123.878357,54.8167164 C123.878357,52.5438806 122.540446,50.4322388 120.219252,50.4322388 C119.090894,50.4322388 118.333282,50.8352239 117.930297,51.6089552 L117.898058,51.6089552 L117.898058,51.1898507 C117.898058,50.7223881 117.624029,50.4322388 117.188805,50.4322388 C116.753581,50.4322388 116.479551,50.7223881 116.479551,51.1898507 L116.479551,61.8286567 Z M124.70582,55.7838806 C124.70582,58.2985075 126.382237,59.201194 128.107014,59.201194 C129.83179,59.201194 131.508208,58.2985075 131.508208,55.7838806 L131.508208,51.1898507 C131.508208,50.7223881 131.234178,50.4322388 130.798954,50.4322388 C130.36373,50.4322388 130.0897,50.7223881 130.0897,51.1898507 L130.0897,55.7355224 C130.0897,57.2023881 129.444924,57.9761194 128.107014,57.9761194 C126.769103,57.9761194 126.124327,57.2023881 126.124327,55.7355224 L126.124327,51.1898507 C126.124327,50.7223881 125.850297,50.4322388 125.415073,50.4322388 C124.979849,50.4322388 124.70582,50.7223881 124.70582,51.1898507 L124.70582,55.7838806 Z M134.124924,47.4179104 C134.124924,46.9504478 133.850894,46.6602985 133.41567,46.6602985 C132.980446,46.6602985 132.706417,46.9504478 132.706417,47.4179104 L132.706417,58.4435821 C132.706417,58.9110448 132.980446,59.201194 133.41567,59.201194 C133.850894,59.201194 134.124924,58.9110448 134.124924,58.4435821 L134.124924,47.4179104 Z M142.41567,51.1253731 C142.41567,50.6256716 142.028805,50.4322388 141.754775,50.4322388 C141.464626,50.4322388 141.093879,50.6256716 141.093879,51.1253731 L141.093879,51.5767164 L141.06164,51.5767164 C140.400745,50.8513433 139.707611,50.4322388 138.724327,50.4322388 C136.306417,50.4322388 134.952387,52.5438806 134.952387,54.8167164 C134.952387,57.0895522 136.306417,59.201194 138.724327,59.201194 C139.643133,59.201194 140.449103,58.7820896 141.06164,57.9116418 L141.093879,57.9116418 L141.093879,58.5080597 C141.093879,59.0077612 141.464626,59.201194 141.754775,59.201194 C142.028805,59.201194 142.41567,59.0077612 142.41567,58.5080597 L142.41567,51.1253731 Z M136.370894,54.8167164 C136.370894,53.3659701 136.983431,51.6573134 138.724327,51.6573134 C140.465223,51.6573134 141.07776,53.3659701 141.07776,54.8167164 C141.07776,56.2674627 140.465223,57.9761194 138.724327,57.9761194 C136.983431,57.9761194 136.370894,56.2674627 136.370894,54.8167164 L136.370894,54.8167164 Z M143.613879,58.4435821 C143.613879,58.9110448 143.887909,59.201194 144.323133,59.201194 C144.758357,59.201194 145.032387,58.9110448 145.032387,58.4435821 L145.032387,54.3653731 C145.032387,52.7050746 146.064029,52.0764179 146.902237,51.9313433 C147.498655,51.8185075 147.788805,51.560597 147.788805,51.1576119 C147.788805,50.7546269 147.498655,50.4322388 146.998954,50.4322388 C146.176864,50.4322388 145.387014,51.2543284 145.064626,51.9152239 L145.032387,51.9152239 L145.032387,51.1898507 C145.032387,50.7223881 144.758357,50.4322388 144.323133,50.4322388 C143.887909,50.4322388 143.613879,50.7223881 143.613879,51.1898507 L143.613879,58.4435821 Z" id="UK’s-most-popular" fill="#FFFFFF"></path>
                <path d="M33.6680597,114.268657 C33.6680597,113.645373 33.3026866,113.258507 32.7223881,113.258507 C32.1420896,113.258507 31.7767164,113.645373 31.7767164,114.268657 L31.7767164,128.969552 C31.7767164,129.592836 32.1420896,129.979701 32.7223881,129.979701 C33.3026866,129.979701 33.6680597,129.592836 33.6680597,128.969552 L33.6680597,114.268657 Z M38.0525373,119.29791 C38.0525373,118.674627 37.6871642,118.287761 37.1068657,118.287761 C36.5265672,118.287761 36.161194,118.674627 36.161194,119.29791 L36.161194,128.969552 C36.161194,129.592836 36.5265672,129.979701 37.1068657,129.979701 C37.6871642,129.979701 38.0525373,129.592836 38.0525373,128.969552 L38.0525373,119.29791 Z M35.9462687,115.579701 C35.9462687,116.224478 36.4620896,116.740299 37.1068657,116.740299 C37.7516418,116.740299 38.2674627,116.224478 38.2674627,115.579701 C38.2674627,114.934925 37.7516418,114.419104 37.1068657,114.419104 C36.4620896,114.419104 35.9462687,114.934925 35.9462687,115.579701 L35.9462687,115.579701 Z M43.038806,120.050149 L44.2208955,120.050149 C44.8441791,120.050149 45.1665672,119.749254 45.1665672,119.233433 C45.1665672,118.717612 44.8441791,118.416716 44.2208955,118.416716 L43.038806,118.416716 L43.038806,115.644179 C43.038806,115.171343 43.2322388,114.89194 43.8125373,114.89194 L44.2853731,114.89194 C44.9946269,114.89194 45.3170149,114.591045 45.3170149,114.075224 C45.3170149,113.559403 44.7367164,113.258507 44.2423881,113.258507 L43.6620896,113.258507 C42.2865672,113.258507 41.1474627,114.075224 41.1474627,115.730149 L41.1474627,118.416716 L40.3737313,118.416716 C39.7504478,118.416716 39.4280597,118.717612 39.4280597,119.233433 C39.4280597,119.749254 39.7504478,120.050149 40.3737313,120.050149 L41.1474627,120.050149 L41.1474627,128.969552 C41.1474627,129.592836 41.5128358,129.979701 42.0931343,129.979701 C42.6734328,129.979701 43.038806,129.592836 43.038806,128.969552 L43.038806,120.050149 Z M54.4298507,124.864478 C55.2465672,124.864478 55.4829851,124.520597 55.4829851,123.854328 C55.4829851,121.103284 53.6776119,118.287761 50.561194,118.287761 C47.358806,118.287761 45.4244776,121.038806 45.4244776,124.133731 C45.4244776,127.164179 47.0149254,129.979701 50.6686567,129.979701 C52.9038806,129.979701 55.2465672,128.561194 55.2465672,127.637015 C55.2465672,127.099701 54.9026866,126.798806 54.558806,126.798806 C53.8495522,126.798806 53.2047761,128.346269 50.6901493,128.346269 C48.5623881,128.346269 47.3158209,126.820299 47.3158209,124.864478 L54.4298507,124.864478 Z M47.3158209,123.44597 C47.3802985,121.705075 48.2185075,119.835224 50.561194,119.921194 C52.6459701,119.921194 53.5916418,121.812537 53.5916418,123.44597 L47.3158209,123.44597 Z M64.5528358,119.29791 C64.5528358,118.674627 64.1874627,118.287761 63.6071642,118.287761 C63.0268657,118.287761 62.6614925,118.674627 62.6614925,119.29791 L62.6614925,128.969552 C62.6614925,129.592836 63.0268657,129.979701 63.6071642,129.979701 C64.1874627,129.979701 64.5528358,129.592836 64.5528358,128.969552 L64.5528358,119.29791 Z M62.4465672,115.579701 C62.4465672,116.224478 62.9623881,116.740299 63.6071642,116.740299 C64.2519403,116.740299 64.7677612,116.224478 64.7677612,115.579701 C64.7677612,114.934925 64.2519403,114.419104 63.6071642,114.419104 C62.9623881,114.419104 62.4465672,114.934925 62.4465672,115.579701 L62.4465672,115.579701 Z M67.0459701,128.969552 C67.0459701,129.592836 67.4113433,129.979701 67.9916418,129.979701 C68.5719403,129.979701 68.9373134,129.592836 68.9373134,128.969552 L68.9373134,122.736716 C68.9373134,120.73791 70.3343284,119.921194 71.5808955,119.921194 C72.8274627,119.921194 74.2244776,120.73791 74.2244776,122.736716 L74.2244776,128.969552 C74.2244776,129.592836 74.5898507,129.979701 75.1701493,129.979701 C75.7504478,129.979701 76.1158209,129.592836 76.1158209,128.969552 L76.1158209,122.629254 C76.1158209,119.405373 73.9020896,118.287761 72.1397015,118.287761 C71.000597,118.287761 69.8185075,118.717612 68.9802985,119.792239 L68.9373134,119.749254 L68.9373134,119.29791 C68.9373134,118.674627 68.5719403,118.287761 67.9916418,118.287761 C67.4113433,118.287761 67.0459701,118.674627 67.0459701,119.29791 L67.0459701,128.969552 Z M78.3510448,121.511642 C78.3510448,124.692537 84.4549254,124.563582 84.4549254,126.798806 C84.4549254,127.572537 83.6167164,128.346269 82.241194,128.346269 C80.1779104,128.346269 79.4901493,126.949254 78.6519403,126.949254 C78.2435821,126.949254 77.878209,127.293134 77.878209,127.808955 C77.878209,128.776119 79.7695522,129.979701 82.1767164,129.979701 C84.3044776,129.979701 86.3462687,128.840597 86.3462687,126.454925 C86.3462687,123.145075 80.2423881,123.36 80.2423881,121.361194 C80.2423881,120.39403 81.1665672,119.921194 82.241194,119.921194 C84.0465672,119.921194 84.3689552,121.081791 85.1856716,121.081791 C85.7659701,121.081791 86.0453731,120.716418 86.0453731,120.30806 C86.0453731,119.12597 83.8101493,118.287761 82.241194,118.287761 C80.3283582,118.287761 78.3510448,119.405373 78.3510448,121.511642 L78.3510448,121.511642 Z M88.1516418,125.423284 C88.1516418,128.776119 90.3868657,129.979701 92.6865672,129.979701 C94.9862687,129.979701 97.2214925,128.776119 97.2214925,125.423284 L97.2214925,119.29791 C97.2214925,118.674627 96.8561194,118.287761 96.2758209,118.287761 C95.6955224,118.287761 95.3301493,118.674627 95.3301493,119.29791 L95.3301493,125.358806 C95.3301493,127.314627 94.4704478,128.346269 92.6865672,128.346269 C90.9026866,128.346269 90.0429851,127.314627 90.0429851,125.358806 L90.0429851,119.29791 C90.0429851,118.674627 89.6776119,118.287761 89.0973134,118.287761 C88.5170149,118.287761 88.1516418,118.674627 88.1516418,119.29791 L88.1516418,125.423284 Z M99.7146269,128.969552 C99.7146269,129.592836 100.08,129.979701 100.660299,129.979701 C101.240597,129.979701 101.60597,129.592836 101.60597,128.969552 L101.60597,123.53194 C101.60597,121.318209 102.981493,120.48 104.099104,120.286567 C104.894328,120.136119 105.281194,119.792239 105.281194,119.254925 C105.281194,118.717612 104.894328,118.287761 104.22806,118.287761 C103.13194,118.287761 102.078806,119.383881 101.648955,120.265075 L101.60597,120.265075 L101.60597,119.29791 C101.60597,118.674627 101.240597,118.287761 100.660299,118.287761 C100.08,118.287761 99.7146269,118.674627 99.7146269,119.29791 L99.7146269,128.969552 Z M115.941493,119.21194 C115.941493,118.545672 115.425672,118.287761 115.060299,118.287761 C114.673433,118.287761 114.179104,118.545672 114.179104,119.21194 L114.179104,119.813731 L114.136119,119.813731 C113.254925,118.846567 112.330746,118.287761 111.019701,118.287761 C107.795821,118.287761 105.990448,121.103284 105.990448,124.133731 C105.990448,127.164179 107.795821,129.979701 111.019701,129.979701 C112.244776,129.979701 113.319403,129.420896 114.136119,128.260299 L114.179104,128.260299 L114.179104,129.055522 C114.179104,129.721791 114.673433,129.979701 115.060299,129.979701 C115.425672,129.979701 115.941493,129.721791 115.941493,129.055522 L115.941493,119.21194 Z M107.881791,124.133731 C107.881791,122.199403 108.698507,119.921194 111.019701,119.921194 C113.340896,119.921194 114.157612,122.199403 114.157612,124.133731 C114.157612,126.06806 113.340896,128.346269 111.019701,128.346269 C108.698507,128.346269 107.881791,126.06806 107.881791,124.133731 L107.881791,124.133731 Z M118.434627,128.969552 C118.434627,129.592836 118.8,129.979701 119.380299,129.979701 C119.960597,129.979701 120.32597,129.592836 120.32597,128.969552 L120.32597,122.736716 C120.32597,120.73791 121.722985,119.921194 122.969552,119.921194 C124.216119,119.921194 125.613134,120.73791 125.613134,122.736716 L125.613134,128.969552 C125.613134,129.592836 125.978507,129.979701 126.558806,129.979701 C127.139104,129.979701 127.504478,129.592836 127.504478,128.969552 L127.504478,122.629254 C127.504478,119.405373 125.290746,118.287761 123.528358,118.287761 C122.389254,118.287761 121.207164,118.717612 120.368955,119.792239 L120.32597,119.749254 L120.32597,119.29791 C120.32597,118.674627 119.960597,118.287761 119.380299,118.287761 C118.8,118.287761 118.434627,118.674627 118.434627,119.29791 L118.434627,128.969552 Z M129.503284,124.133731 C129.503284,127.164179 131.179701,129.979701 134.661493,129.979701 C136.617313,129.979701 137.670448,129.20597 137.670448,128.496716 C137.670448,127.980896 137.369552,127.701493 136.939701,127.701493 C136.33791,127.701493 135.99403,128.346269 134.661493,128.346269 C132.318806,128.346269 131.394627,126.06806 131.394627,124.133731 C131.394627,122.199403 132.318806,119.921194 134.661493,119.921194 C135.951045,119.921194 136.230448,120.522985 136.961194,120.522985 C137.412537,120.522985 137.734925,120.114627 137.734925,119.727761 C137.734925,118.95403 136.595821,118.287761 134.661493,118.287761 C131.179701,118.287761 129.503284,121.103284 129.503284,124.133731 L129.503284,124.133731 Z M147.85791,124.864478 C148.674627,124.864478 148.911045,124.520597 148.911045,123.854328 C148.911045,121.103284 147.105672,118.287761 143.989254,118.287761 C140.786866,118.287761 138.852537,121.038806 138.852537,124.133731 C138.852537,127.164179 140.442985,129.979701 144.096716,129.979701 C146.33194,129.979701 148.674627,128.561194 148.674627,127.637015 C148.674627,127.099701 148.330746,126.798806 147.986866,126.798806 C147.277612,126.798806 146.632836,128.346269 144.118209,128.346269 C141.990448,128.346269 140.743881,126.820299 140.743881,124.864478 L147.85791,124.864478 Z M140.743881,123.44597 C140.808358,121.705075 141.646567,119.835224 143.989254,119.921194 C146.07403,119.921194 147.019701,121.812537 147.019701,123.44597 L140.743881,123.44597 Z" id="life-insurance" fill="#FFFFFF"></path>
            </g>
        </g>
    </g>
</svg>