<?xml version="1.0" encoding="UTF-8" standalone="no"?>
<svg width="180px" height="180px" viewBox="0 0 180 180" version="1.1" xmlns="http://www.w3.org/2000/svg" xmlns:xlink="http://www.w3.org/1999/xlink">
    <!-- Generator: Sketch 39.1 (31720) - http://www.bohemiancoding.com/sketch -->
    <title>roundel-example-three</title>
    <desc>Created with Sketch.</desc>
    <defs></defs>
    <g id="Templates" stroke="none" stroke-width="1" fill="none" fill-rule="evenodd">
        <g id="14-roundels" transform="translate(-1228.000000, -1875.000000)">
            <g id="roundel-example-three" transform="translate(1228.000000, 1875.000000)">
                <path d="M179.552239,90 C179.552239,139.45791 139.45791,179.552239 90,179.552239 C40.5420896,179.552239 0.447761194,139.45791 0.447761194,90 C0.447761194,40.5420896 40.5420896,0.447761194 90,0.447761194 C139.45791,0.447761194 179.552239,40.5420896 179.552239,90 L179.552239,90 Z" id="Stroke-1" fill="#9B9B9B"></path>
                <path d="M19.3279115,117.392065 C19.3279115,121.340178 21.8500416,123.551121 25.2391541,123.551121 C28.6282665,123.551121 31.1503967,121.340178 31.1503967,117.392065 L31.1503967,100.178291 L43.3669647,100.178291 C47.15016,100.178291 49.0417576,97.414612 49.0417576,94.6509328 C49.0417576,91.9662158 47.15016,89.2814988 43.3669647,89.2814988 L31.1503967,89.2814988 L31.1503967,77.7530083 L45.6526452,77.7530083 C49.1993908,77.7530083 50.9333553,74.989329 50.9333553,72.304612 C50.9333553,69.5409328 49.1205742,66.8562158 45.6526452,66.8562158 L25.4756038,66.8562158 C21.5347754,66.8562158 19.3279115,69.7778196 19.3279115,73.0152724 L19.3279115,117.392065 Z M52.609064,117.392065 C52.609064,121.340178 55.1311942,123.551121 58.5203066,123.551121 C61.909419,123.551121 64.4315492,121.340178 64.4315492,117.392065 L64.4315492,100.257254 L64.5891824,100.257254 L82.0864605,121.498103 C83.3475256,122.998386 85.2391232,123.551121 86.6578214,123.551121 C90.1257504,123.551121 92.569064,120.550555 92.569064,117.471027 C92.569064,116.365555 92.0961646,115.181121 90.9927327,113.996688 L77.5939161,99.6255554 C85.633206,98.3621592 92.1749812,93.3875366 92.1749812,84.7016875 C92.1749812,72.304612 84.6874072,66.8562158 72.5496557,66.8562158 L58.6779398,66.8562158 C54.7371114,66.8562158 52.609064,69.2250837 52.609064,73.0152724 L52.609064,117.392065 Z M64.4315492,77.7530083 L72.5496557,77.7530083 C76.884567,77.7530083 79.8795966,80.2008384 79.8795966,84.7016875 C79.8795966,89.1235743 76.884567,91.729329 72.5496557,91.729329 L64.4315492,91.729329 L64.4315492,77.7530083 Z M94.7176722,117.155178 C94.7176722,120.70848 97.3186189,123.077348 100.786548,123.077348 L121.121222,123.077348 C124.825601,123.077348 126.717199,120.313669 126.717199,117.628952 C126.717199,114.865272 124.904418,112.180555 121.121222,112.180555 L106.540157,112.180555 L106.540157,100.178291 L119.466075,100.178291 C123.24927,100.178291 125.219684,97.414612 125.219684,94.729895 C125.219684,91.9662158 123.328086,89.2814988 119.466075,89.2814988 L106.540157,89.2814988 L106.540157,77.7530083 L120.411873,77.7530083 C124.116252,77.7530083 126.00785,74.989329 126.00785,72.304612 C126.00785,69.5409328 124.195069,66.8562158 120.411873,66.8562158 L100.865364,66.8562158 C96.6880864,66.8562158 94.7176722,69.7778196 94.7176722,73.7259328 L94.7176722,117.155178 Z M129.49634,117.155178 C129.49634,120.70848 132.097286,123.077348 135.565215,123.077348 L155.89989,123.077348 C159.604269,123.077348 161.495866,120.313669 161.495866,117.628952 C161.495866,114.865272 159.683085,112.180555 155.89989,112.180555 L141.318825,112.180555 L141.318825,100.178291 L154.244742,100.178291 C158.027937,100.178291 159.998351,97.414612 159.998351,94.729895 C159.998351,91.9662158 158.106754,89.2814988 154.244742,89.2814988 L141.318825,89.2814988 L141.318825,77.7530083 L155.190541,77.7530083 C158.894919,77.7530083 160.786517,74.989329 160.786517,72.304612 C160.786517,69.5409328 158.973736,66.8562158 155.190541,66.8562158 L135.644032,66.8562158 C131.466754,66.8562158 129.49634,69.7778196 129.49634,73.7259328 L129.49634,117.155178 Z" id="FREE" fill="#FFFFFF" transform="translate(90.411889, 95.203669) rotate(-5.000000) translate(-90.411889, -95.203669) "></path>
                <path d="M40.9438806,51.2939496 L44.8321646,51.2939496 C45.3576084,51.2939496 45.735928,51.0202137 45.735928,50.4306288 C45.735928,49.8410439 45.3576084,49.5673081 44.8321646,49.5673081 L40.9438806,49.5673081 L40.9438806,44.6611194 L45.3365907,44.6611194 C45.8620345,44.6611194 46.240354,44.3873836 46.240354,43.7977987 C46.240354,43.2082137 45.8620345,42.9344779 45.3365907,42.9344779 L40.0821528,42.9344779 C39.388567,42.9344779 39.0943185,43.3766666 39.0943185,43.9451949 L39.0943185,57.063459 C39.0943185,57.6741005 39.4516203,58.0531194 40.0190996,58.0531194 C40.5865789,58.0531194 40.9438806,57.6741005 40.9438806,57.063459 L40.9438806,51.2939496 Z M49.4981055,47.5879873 C49.4981055,46.9773458 49.1408037,46.598327 48.5733244,46.598327 C48.0058451,46.598327 47.6485433,46.9773458 47.6485433,47.5879873 L47.6485433,57.063459 C47.6485433,57.6741005 48.0058451,58.0531194 48.5733244,58.0531194 C49.1408037,58.0531194 49.4981055,57.6741005 49.4981055,57.063459 L49.4981055,47.5879873 Z M47.4383658,43.9451949 C47.4383658,44.576893 47.9427919,45.0822515 48.5733244,45.0822515 C49.203857,45.0822515 49.708283,44.576893 49.708283,43.9451949 C49.708283,43.3134968 49.203857,42.8081383 48.5733244,42.8081383 C47.9427919,42.8081383 47.4383658,43.3134968 47.4383658,43.9451949 L47.4383658,43.9451949 Z M51.9361646,57.063459 C51.9361646,57.6741005 52.2934664,58.0531194 52.8609457,58.0531194 C53.428425,58.0531194 53.7857268,57.6741005 53.7857268,57.063459 L53.7857268,51.7361383 C53.7857268,49.5673081 55.1308629,48.7461005 56.223786,48.5565911 C57.0014428,48.4091949 57.3797623,48.0722892 57.3797623,47.5458741 C57.3797623,47.019459 57.0014428,46.598327 56.3498925,46.598327 C55.2779871,46.598327 54.2481173,47.6722137 53.8277623,48.5355345 L53.7857268,48.5355345 L53.7857268,47.5879873 C53.7857268,46.9773458 53.428425,46.598327 52.8609457,46.598327 C52.2934664,46.598327 51.9361646,46.9773458 51.9361646,47.5879873 L51.9361646,57.063459 Z M58.3045433,49.7568175 C58.3045433,52.8731949 64.2735848,52.7468553 64.2735848,54.936742 C64.2735848,55.6947798 63.4538925,56.4528175 62.1087564,56.4528175 C60.0910522,56.4528175 59.4184842,55.0841383 58.5987919,55.0841383 C58.1994546,55.0841383 57.8421528,55.4210439 57.8421528,55.9264024 C57.8421528,56.8739496 59.6917149,58.0531194 62.0457031,58.0531194 C64.1264605,58.0531194 66.1231469,56.9371194 66.1231469,54.5998364 C66.1231469,51.3571194 60.1541055,51.5676854 60.1541055,49.6094213 C60.1541055,48.6618741 61.0578688,48.1986288 62.1087564,48.1986288 C63.8742475,48.1986288 64.1895138,49.3356854 64.9881883,49.3356854 C65.5556676,49.3356854 65.8288984,48.9777232 65.8288984,48.5776477 C65.8288984,47.4195345 63.6430522,46.598327 62.1087564,46.598327 C60.2381765,46.598327 58.3045433,47.6932703 58.3045433,49.7568175 L58.3045433,49.7568175 Z M68.4771351,46.7246666 L67.720496,46.7246666 C67.1109812,46.7246666 66.7957149,47.019459 66.7957149,47.5248175 C66.7957149,48.030176 67.1109812,48.3249685 67.720496,48.3249685 L68.4771351,48.3249685 L68.4771351,57.063459 C68.4771351,57.6741005 68.8344368,58.0531194 69.4019161,58.0531194 C69.9693954,58.0531194 70.3266972,57.6741005 70.3266972,57.063459 L70.3266972,48.3249685 L71.0833362,48.3249685 C71.692851,48.3249685 72.0081173,48.030176 72.0081173,47.5248175 C72.0081173,47.019459 71.692851,46.7246666 71.0833362,46.7246666 L70.3266972,46.7246666 L70.3266972,44.3031571 C70.3266972,43.6925156 69.9693954,43.3134968 69.4019161,43.3134968 C68.8344368,43.3134968 68.4771351,43.6925156 68.4771351,44.3031571 L68.4771351,46.7246666 Z M85.228283,57.063459 C85.228283,57.6741005 85.5855848,58.0531194 86.1530641,58.0531194 C86.7205433,58.0531194 87.0778451,57.6741005 87.0778451,57.063459 L87.0778451,50.7885911 C87.0778451,49.1882892 87.9605907,48.1986288 89.452851,48.1986288 C90.9661291,48.1986288 91.8488747,49.1882892 91.8488747,50.7885911 L91.8488747,57.063459 C91.8488747,57.6741005 92.2061765,58.0531194 92.7736558,58.0531194 C93.3411351,58.0531194 93.6984368,57.6741005 93.6984368,57.063459 L93.6984368,50.8517609 C93.6984368,47.6932703 91.5336084,46.598327 89.8101528,46.598327 C88.191786,46.598327 87.2039516,47.3142515 86.3842593,48.4934213 C85.5435493,47.0615722 84.4085907,46.598327 83.3156676,46.598327 C81.6342475,46.598327 80.9406617,47.3984779 80.4992889,47.9670062 L80.4572534,47.924893 L80.4572534,47.5879873 C80.4572534,46.9773458 80.0999516,46.598327 79.5324723,46.598327 C78.9649931,46.598327 78.6076913,46.9773458 78.6076913,47.5879873 L78.6076913,57.063459 C78.6076913,57.6741005 78.9649931,58.0531194 79.5324723,58.0531194 C80.0999516,58.0531194 80.4572534,57.6741005 80.4572534,57.063459 L80.4572534,50.7885911 C80.4572534,49.1882892 81.339999,48.1986288 82.8322593,48.1986288 C84.3455374,48.1986288 85.228283,49.1882892 85.228283,50.7885911 L85.228283,57.063459 Z M95.6530877,52.3257232 C95.6530877,55.2947043 97.4185789,58.0531194 100.571242,58.0531194 C103.723904,58.0531194 105.489395,55.2947043 105.489395,52.3257232 C105.489395,49.356742 103.723904,46.598327 100.571242,46.598327 C97.4185789,46.598327 95.6530877,49.356742 95.6530877,52.3257232 L95.6530877,52.3257232 Z M97.5026499,52.3257232 C97.5026499,50.4306288 98.3013244,48.1986288 100.571242,48.1986288 C102.841159,48.1986288 103.639833,50.4306288 103.639833,52.3257232 C103.639833,54.2208175 102.841159,56.4528175 100.571242,56.4528175 C98.3013244,56.4528175 97.5026499,54.2208175 97.5026499,52.3257232 L97.5026499,52.3257232 Z M107.444046,57.063459 C107.444046,57.6741005 107.801348,58.0531194 108.368827,58.0531194 C108.936307,58.0531194 109.293608,57.6741005 109.293608,57.063459 L109.293608,50.9570439 C109.293608,48.9987798 110.659762,48.1986288 111.878792,48.1986288 C113.097821,48.1986288 114.463975,48.9987798 114.463975,50.9570439 L114.463975,57.063459 C114.463975,57.6741005 114.821277,58.0531194 115.388756,58.0531194 C115.956236,58.0531194 116.313537,57.6741005 116.313537,57.063459 L116.313537,50.8517609 C116.313537,47.6932703 114.148709,46.598327 112.425253,46.598327 C111.311313,46.598327 110.155336,47.019459 109.335644,48.0722892 L109.293608,48.030176 L109.293608,47.5879873 C109.293608,46.9773458 108.936307,46.598327 108.368827,46.598327 C107.801348,46.598327 107.444046,46.9773458 107.444046,47.5879873 L107.444046,57.063459 Z M119.340094,46.7246666 L118.583455,46.7246666 C117.97394,46.7246666 117.658674,47.019459 117.658674,47.5248175 C117.658674,48.030176 117.97394,48.3249685 118.583455,48.3249685 L119.340094,48.3249685 L119.340094,57.063459 C119.340094,57.6741005 119.697395,58.0531194 120.264875,58.0531194 C120.832354,58.0531194 121.189656,57.6741005 121.189656,57.063459 L121.189656,48.3249685 L121.946295,48.3249685 C122.55581,48.3249685 122.871076,48.030176 122.871076,47.5248175 C122.871076,47.019459 122.55581,46.7246666 121.946295,46.7246666 L121.189656,46.7246666 L121.189656,44.3031571 C121.189656,43.6925156 120.832354,43.3134968 120.264875,43.3134968 C119.697395,43.3134968 119.340094,43.6925156 119.340094,44.3031571 L119.340094,46.7246666 Z M131.236141,57.063459 C131.236141,57.6741005 131.593443,58.0531194 132.160922,58.0531194 C132.728401,58.0531194 133.085703,57.6741005 133.085703,57.063459 L133.085703,50.8517609 C133.085703,47.6932703 130.920875,46.598327 129.197419,46.598327 C128.083478,46.598327 126.927502,47.019459 126.10781,48.0722892 L126.065774,48.030176 L126.065774,42.660742 C126.065774,42.0501005 125.708472,41.6710817 125.140993,41.6710817 C124.573514,41.6710817 124.216212,42.0501005 124.216212,42.660742 L124.216212,57.063459 C124.216212,57.6741005 124.573514,58.0531194 125.140993,58.0531194 C125.708472,58.0531194 126.065774,57.6741005 126.065774,57.063459 L126.065774,50.9570439 C126.065774,48.9987798 127.431928,48.1986288 128.650958,48.1986288 C129.869987,48.1986288 131.236141,48.9987798 131.236141,50.9570439 L131.236141,57.063459 Z" id="First-month" fill="#FFFFFF" transform="translate(86.090011, 49.862101) rotate(-5.000000) translate(-86.090011, -49.862101) "></path>
            </g>
        </g>
    </g>
</svg>