<?xml version="1.0" encoding="UTF-8" standalone="no"?>
<svg width="380px" height="380px" viewBox="0 0 380 380" version="1.1" xmlns="http://www.w3.org/2000/svg" xmlns:xlink="http://www.w3.org/1999/xlink">
    <!-- Generator: Sketch 39.1 (31720) - http://www.bohemiancoding.com/sketch -->
    <title>roundel-sunshine-three-large</title>
    <desc>Created with Sketch.</desc>
    <defs></defs>
    <g id="Templates" stroke="none" stroke-width="1" fill="none" fill-rule="evenodd">
        <g id="14-roundels" transform="translate(-238.000000, -2583.000000)">
            <g id="roundel-sunshine-three-large" transform="translate(238.000000, 2583.000000)">
                <path d="M379.054726,190 C379.054726,294.411144 294.411144,379.054726 190,379.054726 C85.5888557,379.054726 0.945273632,294.411144 0.945273632,190 C0.945273632,85.5888557 85.5888557,0.945273632 190,0.945273632 C294.411144,0.945273632 379.054726,85.5888557 379.054726,190 L379.054726,190 Z" id="Stroke-1" fill="#FFEE00"></path>
                <path d="M127.776759,192.303097 L124.657356,186.896132 C122.785714,183.776729 121.953874,179.825485 121.953874,175.874242 C121.953874,165.476232 131.520043,159.861306 141.918053,159.861306 C163.545913,159.861306 162.922033,181.697127 177.063326,181.697127 C186.421535,181.697127 193.284222,175.458321 193.284222,165.892152 C193.284222,145.304092 169.784719,129.915038 140.670291,129.915038 C112.387704,129.915038 88.2643213,145.512052 88.2643213,170.259316 C88.2643213,176.082202 90.9678039,187.104092 93.6712865,192.303097 L89.3041223,192.303097 C80.569794,192.303097 74.330988,197.710062 74.330988,206.652351 C74.330988,215.59464 80.569794,221.001605 89.3041223,221.001605 L100.118053,221.001605 C100.118053,246.788669 82.0255154,255.730958 82.0255154,264.257326 C82.0255154,274.239416 88.0563611,280.478222 98.2464109,280.478222 L179.766809,280.478222 C188.501137,280.478222 194.739943,275.071256 194.739943,266.128968 C194.739943,257.186679 188.501137,251.779714 179.766809,251.779714 L121.953874,251.779714 C128.6086,242.629465 132.559844,232.231455 132.559844,221.001605 L159.386709,221.001605 C168.121038,221.001605 174.359844,215.59464 174.359844,206.652351 C174.359844,197.710062 168.121038,192.303097 159.386709,192.303097 L127.776759,192.303097 Z M256.617555,247.82847 L256.617555,265.505087 C256.617555,276.526978 260.984719,281.725983 271.590689,281.725983 C282.19666,281.725983 286.563824,276.526978 286.563824,265.505087 L286.563824,247.82847 L290.099147,247.82847 C298.209595,247.82847 304.656361,242.421505 304.656361,234.103097 C304.656361,225.784689 298.209595,220.377724 290.099147,220.377724 L286.563824,220.377724 L286.563824,156.533943 C286.563824,137.609565 274.710092,129.915038 262.648401,129.915038 C251.834471,129.915038 246.011585,133.658321 241.436461,141.976729 L194.853376,226.40857 C193.605615,228.488172 191.941933,230.983694 191.941933,235.558819 C191.941933,240.965784 196.309097,247.82847 206.499147,247.82847 L256.617555,247.82847 Z M256.617555,220.377724 L228.127008,220.377724 L256.201635,162.356829 L256.617555,162.356829 L256.617555,220.377724 Z" id="£4" fill="#E3231D" transform="translate(189.493675, 205.820510) rotate(-5.000000) translate(-189.493675, -205.820510) "></path>
                <path d="M68.629451,96.8097751 L77.0234808,96.8097751 C78.1578092,96.8097751 78.9745256,96.2199244 78.9745256,94.9494766 C78.9745256,93.6790289 78.1578092,93.0891781 77.0234808,93.0891781 L68.629451,93.0891781 L68.629451,82.5172378 L78.112436,82.5172378 C79.2467644,82.5172378 80.0634808,81.9273871 80.0634808,80.6569393 C80.0634808,79.3864916 79.2467644,78.7966408 78.112436,78.7966408 L66.7691524,78.7966408 C65.271839,78.7966408 64.6366151,79.7494766 64.6366151,80.9745513 L64.6366151,109.242014 C64.6366151,110.557835 65.4079584,111.374551 66.633033,111.374551 C67.8581077,111.374551 68.629451,110.557835 68.629451,109.242014 L68.629451,96.8097751 Z M81.2129335,109.242014 C81.2129335,110.557835 81.9842768,111.374551 83.2093514,111.374551 C84.4344261,111.374551 85.2057694,110.557835 85.2057694,109.242014 L85.2057694,97.762611 C85.2057694,93.0891781 88.10965,91.3196259 90.4690529,90.9112677 C92.1478589,90.5936557 92.9645753,89.8676856 92.9645753,88.7333572 C92.9645753,87.5990289 92.1478589,86.6915662 90.7412917,86.6915662 C88.4272619,86.6915662 86.2039783,89.005596 85.2965156,90.8658945 L85.2057694,90.8658945 L85.2057694,88.8241035 C85.2057694,87.5082826 84.4344261,86.6915662 83.2093514,86.6915662 C81.9842768,86.6915662 81.2129335,87.5082826 81.2129335,88.8241035 L81.2129335,109.242014 Z M92.5713415,99.0330587 C92.5713415,105.430671 96.3826848,111.374551 103.188655,111.374551 C109.994625,111.374551 113.805968,105.430671 113.805968,99.0330587 C113.805968,92.6354468 109.994625,86.6915662 103.188655,86.6915662 C96.3826848,86.6915662 92.5713415,92.6354468 92.5713415,99.0330587 L92.5713415,99.0330587 Z M96.5641773,99.0330587 C96.5641773,94.9494766 98.2883564,90.1399244 103.188655,90.1399244 C108.088953,90.1399244 109.813133,94.9494766 109.813133,99.0330587 C109.813133,103.116641 108.088953,107.926193 103.188655,107.926193 C98.2883564,107.926193 96.5641773,103.116641 96.5641773,99.0330587 L96.5641773,99.0330587 Z M130.42766,109.242014 C130.42766,110.557835 131.199003,111.374551 132.424078,111.374551 C133.649152,111.374551 134.420496,110.557835 134.420496,109.242014 L134.420496,95.7208199 C134.420496,92.2724617 136.326167,90.1399244 139.54766,90.1399244 C142.814526,90.1399244 144.720197,92.2724617 144.720197,95.7208199 L144.720197,109.242014 C144.720197,110.557835 145.491541,111.374551 146.716615,111.374551 C147.94169,111.374551 148.713033,110.557835 148.713033,109.242014 L148.713033,95.8569393 C148.713033,89.0509692 144.0396,86.6915662 140.319003,86.6915662 C136.825272,86.6915662 134.692735,88.2342527 132.923182,90.7751483 C131.108257,87.6897751 128.658108,86.6915662 126.298705,86.6915662 C122.668854,86.6915662 121.171541,88.4157453 120.218705,89.6408199 L120.127958,89.5500736 L120.127958,88.8241035 C120.127958,87.5082826 119.356615,86.6915662 118.131541,86.6915662 C116.906466,86.6915662 116.135123,87.5082826 116.135123,88.8241035 L116.135123,109.242014 C116.135123,110.557835 116.906466,111.374551 118.131541,111.374551 C119.356615,111.374551 120.127958,110.557835 120.127958,109.242014 L120.127958,95.7208199 C120.127958,92.2724617 122.03363,90.1399244 125.255123,90.1399244 C128.521988,90.1399244 130.42766,92.2724617 130.42766,95.7208199 L130.42766,109.242014 Z M165.531341,78.2067901 C165.531341,76.8909692 164.759998,76.0742527 163.534924,76.0742527 C162.309849,76.0742527 161.538506,76.8909692 161.538506,78.2067901 L161.538506,109.242014 C161.538506,110.557835 162.309849,111.374551 163.534924,111.374551 C164.759998,111.374551 165.531341,110.557835 165.531341,109.242014 L165.531341,78.2067901 Z M186.463481,100.575745 C188.18766,100.575745 188.686764,99.8497751 188.686764,98.443208 C188.686764,92.6354468 184.875421,86.6915662 178.296317,86.6915662 C171.53572,86.6915662 167.452138,92.4993274 167.452138,99.0330587 C167.452138,105.430671 170.809749,111.374551 178.523182,111.374551 C183.241988,111.374551 188.18766,108.379924 188.18766,106.42888 C188.18766,105.294551 187.46169,104.659327 186.73572,104.659327 C185.238406,104.659327 183.877212,107.926193 178.568555,107.926193 C174.076615,107.926193 171.444973,104.704701 171.444973,100.575745 L186.463481,100.575745 Z M171.444973,97.5811184 C171.581093,93.9058945 173.350645,89.9584319 178.296317,90.1399244 C182.697511,90.1399244 184.693929,94.1327602 184.693929,97.5811184 L171.444973,97.5811184 Z M190.063083,93.4975363 C190.063083,100.21276 202.949053,99.9405214 202.949053,104.659327 C202.949053,106.29276 201.179501,107.926193 198.27562,107.926193 C193.919799,107.926193 192.467859,104.976939 190.698307,104.976939 C189.836217,104.976939 189.064874,105.702909 189.064874,106.791865 C189.064874,108.833656 193.05771,111.374551 198.139501,111.374551 C202.631441,111.374551 206.941889,108.969775 206.941889,103.933357 C206.941889,96.9458945 194.055919,97.3996259 194.055919,93.1799244 C194.055919,91.1381333 196.006963,90.1399244 198.27562,90.1399244 C202.086963,90.1399244 202.76756,92.5900736 204.49174,92.5900736 C205.716814,92.5900736 206.306665,91.8187304 206.306665,90.9566408 C206.306665,88.4611184 201.587859,86.6915662 198.27562,86.6915662 C194.237411,86.6915662 190.063083,89.0509692 190.063083,93.4975363 L190.063083,93.4975363 Z M208.318207,93.4975363 C208.318207,100.21276 221.204177,99.9405214 221.204177,104.659327 C221.204177,106.29276 219.434625,107.926193 216.530744,107.926193 C212.174924,107.926193 210.722983,104.976939 208.953431,104.976939 C208.091341,104.976939 207.319998,105.702909 207.319998,106.791865 C207.319998,108.833656 211.312834,111.374551 216.394625,111.374551 C220.886565,111.374551 225.197013,108.969775 225.197013,103.933357 C225.197013,96.9458945 212.311043,97.3996259 212.311043,93.1799244 C212.311043,91.1381333 214.262088,90.1399244 216.530744,90.1399244 C220.342088,90.1399244 221.022685,92.5900736 222.746864,92.5900736 C223.971939,92.5900736 224.561789,91.8187304 224.561789,90.9566408 C224.561789,88.4611184 219.842983,86.6915662 216.530744,86.6915662 C212.492536,86.6915662 208.318207,89.0509692 208.318207,93.4975363 L208.318207,93.4975363 Z M237.840993,86.963805 L236.20756,86.963805 C234.89174,86.963805 234.211142,87.5990289 234.211142,88.6879841 C234.211142,89.7769393 234.89174,90.4121632 236.20756,90.4121632 L237.840993,90.4121632 L237.840993,109.242014 C237.840993,110.557835 238.612337,111.374551 239.837411,111.374551 C241.062486,111.374551 241.833829,110.557835 241.833829,109.242014 L241.833829,90.4121632 L243.467262,90.4121632 C244.783083,90.4121632 245.46368,89.7769393 245.46368,88.6879841 C245.46368,87.5990289 244.783083,86.963805 243.467262,86.963805 L241.833829,86.963805 L241.833829,81.7458945 C241.833829,80.4300736 241.062486,79.6133572 239.837411,79.6133572 C238.612337,79.6133572 237.840993,80.4300736 237.840993,81.7458945 L237.840993,86.963805 Z M261.63164,109.242014 C261.63164,110.557835 262.402983,111.374551 263.628058,111.374551 C264.853133,111.374551 265.624476,110.557835 265.624476,109.242014 L265.624476,95.8569393 C265.624476,89.0509692 260.951043,86.6915662 257.230446,86.6915662 C254.82567,86.6915662 252.330147,87.5990289 250.560595,89.8676856 L250.469849,89.7769393 L250.469849,78.2067901 C250.469849,76.8909692 249.698506,76.0742527 248.473431,76.0742527 C247.248356,76.0742527 246.477013,76.8909692 246.477013,78.2067901 L246.477013,109.242014 C246.477013,110.557835 247.248356,111.374551 248.473431,111.374551 C249.698506,111.374551 250.469849,110.557835 250.469849,109.242014 L250.469849,96.083805 C250.469849,91.8641035 253.419103,90.1399244 256.050744,90.1399244 C258.682386,90.1399244 261.63164,91.8641035 261.63164,96.083805 L261.63164,109.242014 Z M288.961391,88.642611 C288.961391,87.2360438 287.872436,86.6915662 287.101093,86.6915662 C286.284376,86.6915662 285.240794,87.2360438 285.240794,88.642611 L285.240794,89.9130587 L285.150048,89.9130587 C283.289749,87.8712677 281.338705,86.6915662 278.570943,86.6915662 C271.764973,86.6915662 267.95363,92.6354468 267.95363,99.0330587 C267.95363,105.430671 271.764973,111.374551 278.570943,111.374551 C281.157212,111.374551 283.425869,110.19485 285.150048,107.744701 L285.240794,107.744701 L285.240794,109.423506 C285.240794,110.830074 286.284376,111.374551 287.101093,111.374551 C287.872436,111.374551 288.961391,110.830074 288.961391,109.423506 L288.961391,88.642611 Z M271.946466,99.0330587 C271.946466,94.9494766 273.670645,90.1399244 278.570943,90.1399244 C283.471242,90.1399244 285.195421,94.9494766 285.195421,99.0330587 C285.195421,103.116641 283.471242,107.926193 278.570943,107.926193 C273.670645,107.926193 271.946466,103.116641 271.946466,99.0330587 L271.946466,99.0330587 Z M292.334128,109.242014 C292.334128,110.557835 293.105471,111.374551 294.330545,111.374551 C295.55562,111.374551 296.326963,110.557835 296.326963,109.242014 L296.326963,96.083805 C296.326963,91.8641035 299.276217,90.1399244 301.907859,90.1399244 C304.539501,90.1399244 307.488754,91.8641035 307.488754,96.083805 L307.488754,109.242014 C307.488754,110.557835 308.260098,111.374551 309.485172,111.374551 C310.710247,111.374551 311.48159,110.557835 311.48159,109.242014 L311.48159,95.8569393 C311.48159,89.0509692 306.808157,86.6915662 303.08756,86.6915662 C300.682784,86.6915662 298.187262,87.5990289 296.41771,89.8676856 L296.326963,89.7769393 L296.326963,88.8241035 C296.326963,87.5082826 295.55562,86.6915662 294.330545,86.6915662 C293.105471,86.6915662 292.334128,87.5082826 292.334128,88.8241035 L292.334128,109.242014 Z" id="From-less-than" fill="#1A3053" transform="translate(188.059103, 93.724402) rotate(-5.000000) translate(-188.059103, -93.724402) "></path>
                <path d="M141.486274,309.745592 C141.486274,308.339025 140.397318,307.794547 139.625975,307.794547 C138.809259,307.794547 137.765677,308.339025 137.765677,309.745592 L137.765677,311.01604 L137.67493,311.01604 C135.814632,308.974249 133.863587,307.794547 131.095826,307.794547 C124.289856,307.794547 120.478512,313.738428 120.478512,320.13604 C120.478512,326.533652 124.289856,332.477532 131.095826,332.477532 C133.682094,332.477532 135.950751,331.297831 137.67493,328.847682 L137.765677,328.847682 L137.765677,330.526488 C137.765677,331.933055 138.809259,332.477532 139.625975,332.477532 C140.397318,332.477532 141.486274,331.933055 141.486274,330.526488 L141.486274,309.745592 Z M124.471348,320.13604 C124.471348,316.052458 126.195527,311.242906 131.095826,311.242906 C135.996124,311.242906 137.720303,316.052458 137.720303,320.13604 C137.720303,324.219622 135.996124,329.029174 131.095826,329.029174 C126.195527,329.029174 124.471348,324.219622 124.471348,320.13604 L124.471348,320.13604 Z M172.385378,330.344995 C172.385378,331.660816 173.156721,332.477532 174.381796,332.477532 C175.606871,332.477532 176.378214,331.660816 176.378214,330.344995 L176.378214,316.823801 C176.378214,313.375443 178.283886,311.242906 181.505378,311.242906 C184.772244,311.242906 186.677915,313.375443 186.677915,316.823801 L186.677915,330.344995 C186.677915,331.660816 187.449259,332.477532 188.674333,332.477532 C189.899408,332.477532 190.670751,331.660816 190.670751,330.344995 L190.670751,316.95992 C190.670751,310.15395 185.997318,307.794547 182.276721,307.794547 C178.78299,307.794547 176.650453,309.337234 174.8809,311.878129 C173.065975,308.792756 170.615826,307.794547 168.256423,307.794547 C164.626572,307.794547 163.129259,309.518726 162.176423,310.743801 L162.085677,310.653055 L162.085677,309.927085 C162.085677,308.611264 161.314333,307.794547 160.089259,307.794547 C158.864184,307.794547 158.092841,308.611264 158.092841,309.927085 L158.092841,330.344995 C158.092841,331.660816 158.864184,332.477532 160.089259,332.477532 C161.314333,332.477532 162.085677,331.660816 162.085677,330.344995 L162.085677,316.823801 C162.085677,313.375443 163.991348,311.242906 167.212841,311.242906 C170.479706,311.242906 172.385378,313.375443 172.385378,316.823801 L172.385378,330.344995 Z M194.890453,320.13604 C194.890453,326.533652 198.701796,332.477532 205.507766,332.477532 C212.313736,332.477532 216.12508,326.533652 216.12508,320.13604 C216.12508,313.738428 212.313736,307.794547 205.507766,307.794547 C198.701796,307.794547 194.890453,313.738428 194.890453,320.13604 L194.890453,320.13604 Z M198.883288,320.13604 C198.883288,316.052458 200.607468,311.242906 205.507766,311.242906 C210.408065,311.242906 212.132244,316.052458 212.132244,320.13604 C212.132244,324.219622 210.408065,329.029174 205.507766,329.029174 C200.607468,329.029174 198.883288,324.219622 198.883288,320.13604 L198.883288,320.13604 Z M220.344781,330.344995 C220.344781,331.660816 221.116124,332.477532 222.341199,332.477532 C223.566274,332.477532 224.337617,331.660816 224.337617,330.344995 L224.337617,317.186786 C224.337617,312.967085 227.286871,311.242906 229.918512,311.242906 C232.550154,311.242906 235.499408,312.967085 235.499408,317.186786 L235.499408,330.344995 C235.499408,331.660816 236.270751,332.477532 237.495826,332.477532 C238.7209,332.477532 239.492244,331.660816 239.492244,330.344995 L239.492244,316.95992 C239.492244,310.15395 234.818811,307.794547 231.098214,307.794547 C228.693438,307.794547 226.197915,308.70201 224.428363,310.970667 L224.337617,310.87992 L224.337617,309.927085 C224.337617,308.611264 223.566274,307.794547 222.341199,307.794547 C221.116124,307.794547 220.344781,308.611264 220.344781,309.927085 L220.344781,330.344995 Z M246.025975,308.066786 L244.392542,308.066786 C243.076721,308.066786 242.396124,308.70201 242.396124,309.790965 C242.396124,310.87992 243.076721,311.515144 244.392542,311.515144 L246.025975,311.515144 L246.025975,330.344995 C246.025975,331.660816 246.797318,332.477532 248.022393,332.477532 C249.247468,332.477532 250.018811,331.660816 250.018811,330.344995 L250.018811,311.515144 L251.652244,311.515144 C252.968065,311.515144 253.648662,310.87992 253.648662,309.790965 C253.648662,308.70201 252.968065,308.066786 251.652244,308.066786 L250.018811,308.066786 L250.018811,302.848876 C250.018811,301.533055 249.247468,300.716338 248.022393,300.716338 C246.797318,300.716338 246.025975,301.533055 246.025975,302.848876 L246.025975,308.066786 Z M271.707169,330.344995 C271.707169,331.660816 272.478512,332.477532 273.703587,332.477532 C274.928662,332.477532 275.700005,331.660816 275.700005,330.344995 L275.700005,316.95992 C275.700005,310.15395 271.026572,307.794547 267.305975,307.794547 C264.901199,307.794547 262.405677,308.70201 260.636124,310.970667 L260.545378,310.87992 L260.545378,299.309771 C260.545378,297.99395 259.774035,297.177234 258.54896,297.177234 C257.323886,297.177234 256.552542,297.99395 256.552542,299.309771 L256.552542,330.344995 C256.552542,331.660816 257.323886,332.477532 258.54896,332.477532 C259.774035,332.477532 260.545378,331.660816 260.545378,330.344995 L260.545378,317.186786 C260.545378,312.967085 263.494632,311.242906 266.126274,311.242906 C268.757915,311.242906 271.707169,312.967085 271.707169,317.186786 L271.707169,330.344995 Z" id="a-month" fill="#1A3053" transform="translate(198.089259, 314.827383) rotate(-5.000000) translate(-198.089259, -314.827383) "></path>
            </g>
        </g>
    </g>
</svg>