<?xml version="1.0" encoding="UTF-8" standalone="no"?>
<svg width="180px" height="180px" viewBox="0 0 180 180" version="1.1" xmlns="http://www.w3.org/2000/svg" xmlns:xlink="http://www.w3.org/1999/xlink">
    <!-- Generator: Sketch 39.1 (31720) - http://www.bohemiancoding.com/sketch -->
    <title>roundel-responsive-large</title>
    <desc>Created with Sketch.</desc>
    <defs></defs>
    <g id="Templates" stroke="none" stroke-width="1" fill="none" fill-rule="evenodd">
        <g id="14-roundels" transform="translate(-1230.000000, -4621.000000)">
            <g id="roundel-responsive-large" transform="translate(1230.000000, 4621.000000)">
                <path d="M179.552239,90 C179.552239,139.45791 139.45791,179.552239 90,179.552239 C40.5420896,179.552239 0.447761194,139.45791 0.447761194,90 C0.447761194,40.5420896 40.5420896,0.447761194 90,0.447761194 C139.45791,0.447761194 179.552239,40.5420896 179.552239,90 L179.552239,90 Z" id="Stroke-1" fill="#1D3661"></path>
                <path d="M60.5258333,91.0909408 L59.0482213,88.5297468 C58.1616542,87.0521348 57.7676243,85.1804931 57.7676243,83.3088513 C57.7676243,78.3834781 62.2989676,75.7237766 67.2243407,75.7237766 C77.4691169,75.7237766 77.1735945,86.0670602 83.8721019,86.0670602 C88.3049378,86.0670602 91.555684,83.1118363 91.555684,78.5804931 C91.555684,68.8282542 80.4243407,61.538702 66.633296,61.538702 C53.236281,61.538702 41.8094154,68.9267617 41.8094154,80.6491498 C41.8094154,83.4073587 43.0900124,88.6282542 44.3706094,91.0909408 L42.3019527,91.0909408 C38.1646393,91.0909408 35.2094154,93.6521348 35.2094154,97.8879557 C35.2094154,102.123777 38.1646393,104.684971 42.3019527,104.684971 L47.4243407,104.684971 C47.4243407,116.899896 38.8541915,121.135717 38.8541915,125.174523 C38.8541915,129.902881 41.7109079,132.858105 46.5377736,132.858105 L85.152699,132.858105 C89.2900124,132.858105 92.2452363,130.296911 92.2452363,126.06109 C92.2452363,121.825269 89.2900124,119.264075 85.152699,119.264075 L57.7676243,119.264075 C60.9198631,114.929747 62.7915049,110.004374 62.7915049,104.684971 L75.4989676,104.684971 C79.636281,104.684971 82.5915049,102.123777 82.5915049,97.8879557 C82.5915049,93.6521348 79.636281,91.0909408 75.4989676,91.0909408 L60.5258333,91.0909408 Z M121.555684,117.392433 L121.555684,125.765568 C121.555684,130.986463 123.624341,133.44915 128.648221,133.44915 C133.672102,133.44915 135.740759,130.986463 135.740759,125.765568 L135.740759,117.392433 L137.415386,117.392433 C141.257177,117.392433 144.310908,114.831239 144.310908,110.890941 C144.310908,106.950642 141.257177,104.389448 137.415386,104.389448 L135.740759,104.389448 L135.740759,74.1476572 C135.740759,65.1834781 130.125833,61.538702 124.4124,61.538702 C119.290012,61.538702 116.531803,63.3118363 114.364639,67.2521348 L92.2989676,107.246165 C91.7079228,108.231239 90.9198631,109.413329 90.9198631,111.580493 C90.9198631,114.141687 92.9885198,117.392433 97.8153855,117.392433 L121.555684,117.392433 Z M121.555684,104.389448 L108.060162,104.389448 L121.358669,76.9058662 L121.555684,76.9058662 L121.555684,104.389448 Z" id="£4" fill="#FFEE00" transform="translate(89.760162, 97.493926) rotate(-5.000000) translate(-89.760162, -97.493926) "></path>
                <path d="M32.5052796,45.0397894 L36.481399,45.0397894 C37.0187124,45.0397894 37.4055781,44.7603865 37.4055781,44.1585954 C37.4055781,43.5568044 37.0187124,43.2774014 36.481399,43.2774014 L32.5052796,43.2774014 L32.5052796,38.2696402 L36.9972199,38.2696402 C37.5345333,38.2696402 37.921399,37.9902372 37.921399,37.3884462 C37.921399,36.7866551 37.5345333,36.5072521 36.9972199,36.5072521 L31.6240855,36.5072521 C30.9148318,36.5072521 30.6139363,36.9585954 30.6139363,37.5388939 L30.6139363,50.9287447 C30.6139363,51.5520282 30.9793094,51.9388939 31.5596079,51.9388939 C32.1399064,51.9388939 32.5052796,51.5520282 32.5052796,50.9287447 L32.5052796,45.0397894 Z M38.4658766,50.9287447 C38.4658766,51.5520282 38.8312497,51.9388939 39.4115482,51.9388939 C39.9918467,51.9388939 40.3572199,51.5520282 40.3572199,50.9287447 L40.3572199,45.4911327 C40.3572199,43.2774014 41.7327422,42.4391924 42.8503542,42.2457596 C43.6455781,42.0953118 44.0324437,41.7514312 44.0324437,41.2141178 C44.0324437,40.6768044 43.6455781,40.2469536 42.9793094,40.2469536 C41.88319,40.2469536 40.8300557,41.343073 40.4002049,42.224267 L40.3572199,42.224267 L40.3572199,41.2571029 C40.3572199,40.6338193 39.9918467,40.2469536 39.4115482,40.2469536 C38.8312497,40.2469536 38.4658766,40.6338193 38.4658766,41.2571029 L38.4658766,50.9287447 Z M43.8461751,46.0929238 C43.8461751,49.1233715 45.6515482,51.9388939 48.8754288,51.9388939 C52.0993094,51.9388939 53.9046825,49.1233715 53.9046825,46.0929238 C53.9046825,43.062476 52.0993094,40.2469536 48.8754288,40.2469536 C45.6515482,40.2469536 43.8461751,43.062476 43.8461751,46.0929238 L43.8461751,46.0929238 Z M45.7375184,46.0929238 C45.7375184,44.1585954 46.5542348,41.8803865 48.8754288,41.8803865 C51.1966228,41.8803865 52.0133393,44.1585954 52.0133393,46.0929238 C52.0133393,48.0272521 51.1966228,50.3054611 48.8754288,50.3054611 C46.5542348,50.3054611 45.7375184,48.0272521 45.7375184,46.0929238 L45.7375184,46.0929238 Z M61.7781154,50.9287447 C61.7781154,51.5520282 62.1434885,51.9388939 62.723787,51.9388939 C63.3040855,51.9388939 63.6694587,51.5520282 63.6694587,50.9287447 L63.6694587,44.5239685 C63.6694587,42.8905357 64.5721452,41.8803865 66.0981154,41.8803865 C67.6455781,41.8803865 68.5482646,42.8905357 68.5482646,44.5239685 L68.5482646,50.9287447 C68.5482646,51.5520282 68.9136378,51.9388939 69.4939363,51.9388939 C70.0742348,51.9388939 70.4396079,51.5520282 70.4396079,50.9287447 L70.4396079,44.5884462 C70.4396079,41.3645656 68.2258766,40.2469536 66.4634885,40.2469536 C64.8085631,40.2469536 63.7984139,40.9776999 62.9602049,42.181282 C62.1005034,40.7197894 60.9399064,40.2469536 59.8222945,40.2469536 C58.1028915,40.2469536 57.3936378,41.06367 56.9422945,41.6439685 L56.8993094,41.6009835 L56.8993094,41.2571029 C56.8993094,40.6338193 56.5339363,40.2469536 55.9536378,40.2469536 C55.3733393,40.2469536 55.0079661,40.6338193 55.0079661,41.2571029 L55.0079661,50.9287447 C55.0079661,51.5520282 55.3733393,51.9388939 55.9536378,51.9388939 C56.5339363,51.9388939 56.8993094,51.5520282 56.8993094,50.9287447 L56.8993094,44.5239685 C56.8993094,42.8905357 57.801996,41.8803865 59.3279661,41.8803865 C60.8754288,41.8803865 61.7781154,42.8905357 61.7781154,44.5239685 L61.7781154,50.9287447 Z M78.4061751,36.2278491 C78.4061751,35.6045656 78.0408019,35.2176999 77.4605034,35.2176999 C76.8802049,35.2176999 76.5148318,35.6045656 76.5148318,36.2278491 L76.5148318,50.9287447 C76.5148318,51.5520282 76.8802049,51.9388939 77.4605034,51.9388939 C78.0408019,51.9388939 78.4061751,51.5520282 78.4061751,50.9287447 L78.4061751,36.2278491 Z M88.321399,46.82367 C89.1381154,46.82367 89.3745333,46.4797894 89.3745333,45.8135208 C89.3745333,43.062476 87.5691602,40.2469536 84.4527422,40.2469536 C81.2503542,40.2469536 79.3160258,42.9979984 79.3160258,46.0929238 C79.3160258,49.1233715 80.9064736,51.9388939 84.5602049,51.9388939 C86.7954288,51.9388939 89.1381154,50.5203865 89.1381154,49.5962073 C89.1381154,49.0588939 88.7942348,48.7579984 88.4503542,48.7579984 C87.7411005,48.7579984 87.0963243,50.3054611 84.5816975,50.3054611 C82.4539363,50.3054611 81.2073691,48.7794909 81.2073691,46.82367 L88.321399,46.82367 Z M81.2073691,45.4051626 C81.2718467,43.664267 82.1100557,41.7944163 84.4527422,41.8803865 C86.5375184,41.8803865 87.48319,43.7717297 87.48319,45.4051626 L81.2073691,45.4051626 Z M90.0264736,43.4708342 C90.0264736,46.6517297 96.1303542,46.5227745 96.1303542,48.7579984 C96.1303542,49.5317297 95.2921452,50.3054611 93.9166228,50.3054611 C91.8533393,50.3054611 91.1655781,48.9084462 90.3273691,48.9084462 C89.9190109,48.9084462 89.5536378,49.2523268 89.5536378,49.7681476 C89.5536378,50.7353118 91.4449811,51.9388939 93.8521452,51.9388939 C95.9799064,51.9388939 98.0216975,50.7997894 98.0216975,48.4141178 C98.0216975,45.104267 91.9178169,45.3191924 91.9178169,43.3203865 C91.9178169,42.3532223 92.841996,41.8803865 93.9166228,41.8803865 C95.721996,41.8803865 96.044384,43.0409835 96.8611005,43.0409835 C97.441399,43.0409835 97.7208019,42.6756103 97.7208019,42.2672521 C97.7208019,41.0851626 95.4855781,40.2469536 93.9166228,40.2469536 C92.003787,40.2469536 90.0264736,41.3645656 90.0264736,43.4708342 L90.0264736,43.4708342 Z M98.6736378,43.4708342 C98.6736378,46.6517297 104.777518,46.5227745 104.777518,48.7579984 C104.777518,49.5317297 103.939309,50.3054611 102.563787,50.3054611 C100.500503,50.3054611 99.8127422,48.9084462 98.9745333,48.9084462 C98.5661751,48.9084462 98.2008019,49.2523268 98.2008019,49.7681476 C98.2008019,50.7353118 100.092145,51.9388939 102.499309,51.9388939 C104.627071,51.9388939 106.668862,50.7997894 106.668862,48.4141178 C106.668862,45.104267 100.564981,45.3191924 100.564981,43.3203865 C100.564981,42.3532223 101.48916,41.8803865 102.563787,41.8803865 C104.36916,41.8803865 104.691548,43.0409835 105.508265,43.0409835 C106.088563,43.0409835 106.367966,42.6756103 106.367966,42.2672521 C106.367966,41.0851626 104.132742,40.2469536 102.563787,40.2469536 C100.650951,40.2469536 98.6736378,41.3645656 98.6736378,43.4708342 L98.6736378,43.4708342 Z M112.658115,40.3759088 L111.884384,40.3759088 C111.2611,40.3759088 110.938712,40.6768044 110.938712,41.1926253 C110.938712,41.7084462 111.2611,42.0093417 111.884384,42.0093417 L112.658115,42.0093417 L112.658115,50.9287447 C112.658115,51.5520282 113.023489,51.9388939 113.603787,51.9388939 C114.184086,51.9388939 114.549459,51.5520282 114.549459,50.9287447 L114.549459,42.0093417 L115.32319,42.0093417 C115.946474,42.0093417 116.268862,41.7084462 116.268862,41.1926253 C116.268862,40.6768044 115.946474,40.3759088 115.32319,40.3759088 L114.549459,40.3759088 L114.549459,37.904267 C114.549459,37.2809835 114.184086,36.8941178 113.603787,36.8941178 C113.023489,36.8941178 112.658115,37.2809835 112.658115,37.904267 L112.658115,40.3759088 Z M123.927369,50.9287447 C123.927369,51.5520282 124.292742,51.9388939 124.873041,51.9388939 C125.453339,51.9388939 125.818712,51.5520282 125.818712,50.9287447 L125.818712,44.5884462 C125.818712,41.3645656 123.604981,40.2469536 121.842593,40.2469536 C120.703489,40.2469536 119.521399,40.6768044 118.68319,41.7514312 L118.640205,41.7084462 L118.640205,36.2278491 C118.640205,35.6045656 118.274832,35.2176999 117.694533,35.2176999 C117.114235,35.2176999 116.748862,35.6045656 116.748862,36.2278491 L116.748862,50.9287447 C116.748862,51.5520282 117.114235,51.9388939 117.694533,51.9388939 C118.274832,51.9388939 118.640205,51.5520282 118.640205,50.9287447 L118.640205,44.6959088 C118.640205,42.6971029 120.03722,41.8803865 121.283787,41.8803865 C122.530354,41.8803865 123.927369,42.6971029 123.927369,44.6959088 L123.927369,50.9287447 Z M136.873041,41.1711327 C136.873041,40.5048641 136.35722,40.2469536 135.991847,40.2469536 C135.604981,40.2469536 135.110653,40.5048641 135.110653,41.1711327 L135.110653,41.7729238 L135.067668,41.7729238 C134.186474,40.8057596 133.262294,40.2469536 131.95125,40.2469536 C128.727369,40.2469536 126.921996,43.062476 126.921996,46.0929238 C126.921996,49.1233715 128.727369,51.9388939 131.95125,51.9388939 C133.176324,51.9388939 134.250951,51.3800879 135.067668,50.2194909 L135.110653,50.2194909 L135.110653,51.0147148 C135.110653,51.6809835 135.604981,51.9388939 135.991847,51.9388939 C136.35722,51.9388939 136.873041,51.6809835 136.873041,51.0147148 L136.873041,41.1711327 Z M128.813339,46.0929238 C128.813339,44.1585954 129.630056,41.8803865 131.95125,41.8803865 C134.272444,41.8803865 135.08916,44.1585954 135.08916,46.0929238 C135.08916,48.0272521 134.272444,50.3054611 131.95125,50.3054611 C129.630056,50.3054611 128.813339,48.0272521 128.813339,46.0929238 L128.813339,46.0929238 Z M138.470653,50.9287447 C138.470653,51.5520282 138.836026,51.9388939 139.416324,51.9388939 C139.996623,51.9388939 140.361996,51.5520282 140.361996,50.9287447 L140.361996,44.6959088 C140.361996,42.6971029 141.759011,41.8803865 143.005578,41.8803865 C144.252145,41.8803865 145.64916,42.6971029 145.64916,44.6959088 L145.64916,50.9287447 C145.64916,51.5520282 146.014533,51.9388939 146.594832,51.9388939 C147.17513,51.9388939 147.540503,51.5520282 147.540503,50.9287447 L147.540503,44.5884462 C147.540503,41.3645656 145.326772,40.2469536 143.564384,40.2469536 C142.42528,40.2469536 141.24319,40.6768044 140.404981,41.7514312 L140.361996,41.7084462 L140.361996,41.2571029 C140.361996,40.6338193 139.996623,40.2469536 139.416324,40.2469536 C138.836026,40.2469536 138.470653,40.6338193 138.470653,41.2571029 L138.470653,50.9287447 Z" id="From-less-than" fill="#FFFFFF" transform="translate(89.077220, 43.578297) rotate(-5.000000) translate(-89.077220, -43.578297) "></path>
                <path d="M67.0198138,147.617119 C67.0198138,146.95085 66.5039929,146.69294 66.1386198,146.69294 C65.7517541,146.69294 65.2574257,146.95085 65.2574257,147.617119 L65.2574257,148.21891 L65.2144407,148.21891 C64.3332466,147.251746 63.4090675,146.69294 62.0980228,146.69294 C58.8741422,146.69294 57.068769,149.508462 57.068769,152.53891 C57.068769,155.569357 58.8741422,158.38488 62.0980228,158.38488 C63.3230974,158.38488 64.3977242,157.826074 65.2144407,156.665477 L65.2574257,156.665477 L65.2574257,157.460701 C65.2574257,158.126969 65.7517541,158.38488 66.1386198,158.38488 C66.5039929,158.38488 67.0198138,158.126969 67.0198138,157.460701 L67.0198138,147.617119 Z M58.9601123,152.53891 C58.9601123,150.604581 59.7768287,148.326372 62.0980228,148.326372 C64.4192168,148.326372 65.2359332,150.604581 65.2359332,152.53891 C65.2359332,154.473238 64.4192168,156.751447 62.0980228,156.751447 C59.7768287,156.751447 58.9601123,154.473238 58.9601123,152.53891 L58.9601123,152.53891 Z M81.6562317,157.374731 C81.6562317,157.998014 82.0216048,158.38488 82.6019033,158.38488 C83.1822019,158.38488 83.547575,157.998014 83.547575,157.374731 L83.547575,150.969954 C83.547575,149.336522 84.4502616,148.326372 85.9762317,148.326372 C87.5236944,148.326372 88.426381,149.336522 88.426381,150.969954 L88.426381,157.374731 C88.426381,157.998014 88.7917541,158.38488 89.3720526,158.38488 C89.9523511,158.38488 90.3177242,157.998014 90.3177242,157.374731 L90.3177242,151.034432 C90.3177242,147.810551 88.1039929,146.69294 86.3416048,146.69294 C84.6866795,146.69294 83.6765302,147.423686 82.8383213,148.627268 C81.9786198,147.165775 80.8180228,146.69294 79.7004108,146.69294 C77.9810078,146.69294 77.2717541,147.509656 76.8204108,148.089954 L76.7774257,148.046969 L76.7774257,147.703089 C76.7774257,147.079805 76.4120526,146.69294 75.8317541,146.69294 C75.2514556,146.69294 74.8860825,147.079805 74.8860825,147.703089 L74.8860825,157.374731 C74.8860825,157.998014 75.2514556,158.38488 75.8317541,158.38488 C76.4120526,158.38488 76.7774257,157.998014 76.7774257,157.374731 L76.7774257,150.969954 C76.7774257,149.336522 77.6801123,148.326372 79.2060825,148.326372 C80.7535451,148.326372 81.6562317,149.336522 81.6562317,150.969954 L81.6562317,157.374731 Z M92.3165302,152.53891 C92.3165302,155.569357 94.1219033,158.38488 97.3457839,158.38488 C100.569665,158.38488 102.375038,155.569357 102.375038,152.53891 C102.375038,149.508462 100.569665,146.69294 97.3457839,146.69294 C94.1219033,146.69294 92.3165302,149.508462 92.3165302,152.53891 L92.3165302,152.53891 Z M94.2078735,152.53891 C94.2078735,150.604581 95.0245899,148.326372 97.3457839,148.326372 C99.666978,148.326372 100.483694,150.604581 100.483694,152.53891 C100.483694,154.473238 99.666978,156.751447 97.3457839,156.751447 C95.0245899,156.751447 94.2078735,154.473238 94.2078735,152.53891 L94.2078735,152.53891 Z M104.373844,157.374731 C104.373844,157.998014 104.739217,158.38488 105.319515,158.38488 C105.899814,158.38488 106.265187,157.998014 106.265187,157.374731 L106.265187,151.141895 C106.265187,149.143089 107.662202,148.326372 108.908769,148.326372 C110.155336,148.326372 111.552351,149.143089 111.552351,151.141895 L111.552351,157.374731 C111.552351,157.998014 111.917724,158.38488 112.498023,158.38488 C113.078321,158.38488 113.443694,157.998014 113.443694,157.374731 L113.443694,151.034432 C113.443694,147.810551 111.229963,146.69294 109.467575,146.69294 C108.328471,146.69294 107.146381,147.12279 106.308172,148.197417 L106.265187,148.154432 L106.265187,147.703089 C106.265187,147.079805 105.899814,146.69294 105.319515,146.69294 C104.739217,146.69294 104.373844,147.079805 104.373844,147.703089 L104.373844,157.374731 Z M116.53862,146.821895 L115.764888,146.821895 C115.141605,146.821895 114.819217,147.12279 114.819217,147.638611 C114.819217,148.154432 115.141605,148.455328 115.764888,148.455328 L116.53862,148.455328 L116.53862,157.374731 C116.53862,157.998014 116.903993,158.38488 117.484291,158.38488 C118.06459,158.38488 118.429963,157.998014 118.429963,157.374731 L118.429963,148.455328 L119.203694,148.455328 C119.826978,148.455328 120.149366,148.154432 120.149366,147.638611 C120.149366,147.12279 119.826978,146.821895 119.203694,146.821895 L118.429963,146.821895 L118.429963,144.350253 C118.429963,143.726969 118.06459,143.340104 117.484291,143.340104 C116.903993,143.340104 116.53862,143.726969 116.53862,144.350253 L116.53862,146.821895 Z M128.703396,157.374731 C128.703396,157.998014 129.068769,158.38488 129.649068,158.38488 C130.229366,158.38488 130.594739,157.998014 130.594739,157.374731 L130.594739,151.034432 C130.594739,147.810551 128.381008,146.69294 126.61862,146.69294 C125.479515,146.69294 124.297426,147.12279 123.459217,148.197417 L123.416232,148.154432 L123.416232,142.673835 C123.416232,142.050551 123.050859,141.663686 122.47056,141.663686 C121.890262,141.663686 121.524888,142.050551 121.524888,142.673835 L121.524888,157.374731 C121.524888,157.998014 121.890262,158.38488 122.47056,158.38488 C123.050859,158.38488 123.416232,157.998014 123.416232,157.374731 L123.416232,151.141895 C123.416232,149.143089 124.813247,148.326372 126.059814,148.326372 C127.306381,148.326372 128.703396,149.143089 128.703396,151.141895 L128.703396,157.374731 Z" id="a-month" fill="#FFFFFF" transform="translate(93.831754, 150.024283) rotate(-5.000000) translate(-93.831754, -150.024283) "></path>
            </g>
        </g>
    </g>
</svg>