<?xml version="1.0" encoding="UTF-8" standalone="no"?>
<svg width="160px" height="76px" viewBox="0 0 160 76" version="1.1" xmlns="http://www.w3.org/2000/svg" xmlns:xlink="http://www.w3.org/1999/xlink">
    <!-- Generator: Sketch 39.1 (31720) - http://www.bohemiancoding.com/sketch -->
    <title>roundel-responsive-small</title>
    <desc>Created with Sketch.</desc>
    <defs></defs>
    <g id="Templates" stroke="none" stroke-width="1" fill="none" fill-rule="evenodd">
        <g id="14-roundels" transform="translate(-628.000000, -4717.000000)">
            <g id="roundel-responsive-small" transform="translate(628.000000, 4717.000000)">
                <path d="M27.4666358,34.9729816 L26.8400479,33.87396 C26.4640951,33.2399092 26.297005,32.436778 26.297005,31.6336469 C26.297005,29.520144 28.2185413,28.3788524 30.3071676,28.3788524 C34.6515105,28.3788524 34.5261929,32.8172086 37.3667248,32.8172086 C39.2464885,32.8172086 40.6249819,31.5491068 40.6249819,29.6046841 C40.6249819,25.4199483 35.9046863,22.291964 30.0565325,22.291964 C24.3754687,22.291964 19.5298556,25.4622184 19.5298556,30.4923553 C19.5298556,31.675917 20.0728984,33.9162301 20.6159413,34.9729816 L19.7387182,34.9729816 C17.984272,34.9729816 16.7310962,36.0720031 16.7310962,37.8896156 C16.7310962,39.7072281 17.984272,40.8062497 19.7387182,40.8062497 L21.9108896,40.8062497 C21.9108896,46.0477369 18.2766797,47.8653495 18.2766797,49.5984219 C18.2766797,51.6273847 19.488083,52.8954865 21.5349369,52.8954865 L37.9097676,52.8954865 C39.6642138,52.8954865 40.9173896,51.7964649 40.9173896,49.9788524 C40.9173896,48.1612399 39.6642138,47.0622184 37.9097676,47.0622184 L26.297005,47.0622184 C27.6337259,45.2023358 28.4274039,43.0888328 28.4274039,40.8062497 L33.8160599,40.8062497 C35.5705061,40.8062497 36.8236819,39.7072281 36.8236819,37.8896156 C36.8236819,36.0720031 35.5705061,34.9729816 33.8160599,34.9729816 L27.4666358,34.9729816 Z M53.3466153,46.2590872 L53.3466153,49.8520422 C53.3466153,52.0923553 54.2238383,53.1491068 56.3542372,53.1491068 C58.4846361,53.1491068 59.3618592,52.0923553 59.3618592,49.8520422 L59.3618592,46.2590872 L60.0719922,46.2590872 C61.7011208,46.2590872 62.9960691,45.1600657 62.9960691,43.4692634 C62.9960691,41.778461 61.7011208,40.6794395 60.0719922,40.6794395 L59.3618592,40.6794395 L59.3618592,27.7025315 C59.3618592,23.8559561 56.9808252,22.291964 54.5580186,22.291964 C52.3858471,22.291964 51.2162164,23.052825 50.2972208,24.7436274 L40.9401746,41.9052712 C40.6895395,42.3279718 40.3553592,42.8352125 40.3553592,43.7651538 C40.3553592,44.8641753 41.2325823,46.2590872 43.2794362,46.2590872 L53.3466153,46.2590872 Z M53.3466153,40.6794395 L47.623779,40.6794395 L53.2630702,28.8860931 L53.3466153,28.8860931 L53.3466153,40.6794395 Z" id="£4" fill="#FFFFFF" transform="translate(39.863583, 37.720535) rotate(-5.000000) translate(-39.863583, -37.720535) "></path>
                <path d="M81.6126877,27.4376 L84.0118456,27.4376 C84.3360561,27.4376 84.5694877,27.26912 84.5694877,26.90624 C84.5694877,26.54336 84.3360561,26.37488 84.0118456,26.37488 L81.6126877,26.37488 L81.6126877,23.3552 L84.3230877,23.3552 C84.6472982,23.3552 84.8807298,23.18672 84.8807298,22.82384 C84.8807298,22.46096 84.6472982,22.29248 84.3230877,22.29248 L81.0809825,22.29248 C80.6530246,22.29248 80.4714667,22.56464 80.4714667,22.91456 L80.4714667,30.98864 C80.4714667,31.36448 80.6919298,31.59776 81.0420772,31.59776 C81.3922246,31.59776 81.6126877,31.36448 81.6126877,30.98864 L81.6126877,27.4376 Z M85.749614,30.98864 C85.749614,31.36448 85.9700772,31.59776 86.3202246,31.59776 C86.6703719,31.59776 86.8908351,31.36448 86.8908351,30.98864 L86.8908351,27.70976 C86.8908351,26.37488 87.720814,25.86944 88.3951719,25.7528 C88.8750035,25.66208 89.1084351,25.45472 89.1084351,25.13072 C89.1084351,24.80672 88.8750035,24.54752 88.4729825,24.54752 C87.811593,24.54752 87.1761404,25.20848 86.9167719,25.73984 L86.8908351,25.73984 L86.8908351,25.15664 C86.8908351,24.7808 86.6703719,24.54752 86.3202246,24.54752 C85.9700772,24.54752 85.749614,24.7808 85.749614,25.15664 L85.749614,30.98864 Z M89.536393,28.07264 C89.536393,29.9 90.6257404,31.59776 92.5710035,31.59776 C94.5162667,31.59776 95.605614,29.9 95.605614,28.07264 C95.605614,26.24528 94.5162667,24.54752 92.5710035,24.54752 C90.6257404,24.54752 89.536393,26.24528 89.536393,28.07264 L89.536393,28.07264 Z M90.677614,28.07264 C90.677614,26.90624 91.170414,25.53248 92.5710035,25.53248 C93.971593,25.53248 94.464393,26.90624 94.464393,28.07264 C94.464393,29.23904 93.971593,30.6128 92.5710035,30.6128 C91.170414,30.6128 90.677614,29.23904 90.677614,28.07264 L90.677614,28.07264 Z M100.89673,30.98864 C100.89673,31.36448 101.117193,31.59776 101.46734,31.59776 C101.817488,31.59776 102.037951,31.36448 102.037951,30.98864 L102.037951,27.12656 C102.037951,26.1416 102.582625,25.53248 103.503382,25.53248 C104.437109,25.53248 104.981782,26.1416 104.981782,27.12656 L104.981782,30.98864 C104.981782,31.36448 105.202246,31.59776 105.552393,31.59776 C105.90254,31.59776 106.123004,31.36448 106.123004,30.98864 L106.123004,27.16544 C106.123004,25.22144 104.787256,24.54752 103.723846,24.54752 C102.725277,24.54752 102.115761,24.98816 101.609993,25.71392 C101.091256,24.83264 100.390961,24.54752 99.7166035,24.54752 C98.6791298,24.54752 98.2511719,25.04 97.9788351,25.38992 L97.9528982,25.364 L97.9528982,25.15664 C97.9528982,24.7808 97.7324351,24.54752 97.3822877,24.54752 C97.0321404,24.54752 96.8116772,24.7808 96.8116772,25.15664 L96.8116772,30.98864 C96.8116772,31.36448 97.0321404,31.59776 97.3822877,31.59776 C97.7324351,31.59776 97.9528982,31.36448 97.9528982,30.98864 L97.9528982,27.12656 C97.9528982,26.1416 98.4975719,25.53248 99.4183298,25.53248 C100.352056,25.53248 100.89673,26.1416 100.89673,27.12656 L100.89673,30.98864 Z M112.010667,22.124 C112.010667,21.74816 111.790204,21.51488 111.440056,21.51488 C111.089909,21.51488 110.869446,21.74816 110.869446,22.124 L110.869446,30.98864 C110.869446,31.36448 111.089909,31.59776 111.440056,31.59776 C111.790204,31.59776 112.010667,31.36448 112.010667,30.98864 L112.010667,22.124 Z M118.533782,28.51328 C119.026582,28.51328 119.169235,28.30592 119.169235,27.90416 C119.169235,26.24528 118.079888,24.54752 116.199467,24.54752 C114.267172,24.54752 113.100014,26.2064 113.100014,28.07264 C113.100014,29.9 114.059677,31.59776 116.264309,31.59776 C117.613025,31.59776 119.026582,30.7424 119.026582,30.18512 C119.026582,29.86112 118.819088,29.67968 118.611593,29.67968 C118.183635,29.67968 117.794582,30.6128 116.277277,30.6128 C114.993404,30.6128 114.241235,29.69264 114.241235,28.51328 L118.533782,28.51328 Z M114.241235,27.65792 C114.28014,26.60816 114.785909,25.48064 116.199467,25.53248 C117.457404,25.53248 118.028014,26.67296 118.028014,27.65792 L114.241235,27.65792 Z M120.102961,26.49152 C120.102961,28.4096 123.785993,28.33184 123.785993,29.67968 C123.785993,30.14624 123.280225,30.6128 122.450246,30.6128 C121.205277,30.6128 120.790288,29.7704 120.284519,29.7704 C120.038119,29.7704 119.817656,29.97776 119.817656,30.2888 C119.817656,30.872 120.958877,31.59776 122.41134,31.59776 C123.695214,31.59776 124.927214,30.91088 124.927214,29.47232 C124.927214,27.47648 121.244182,27.60608 121.244182,26.4008 C121.244182,25.8176 121.801825,25.53248 122.450246,25.53248 C123.539593,25.53248 123.734119,26.23232 124.226919,26.23232 C124.577067,26.23232 124.745656,26.012 124.745656,25.76576 C124.745656,25.05296 123.39694,24.54752 122.450246,24.54752 C121.296056,24.54752 120.102961,25.22144 120.102961,26.49152 L120.102961,26.49152 Z M125.86094,26.49152 C125.86094,28.4096 129.543972,28.33184 129.543972,29.67968 C129.543972,30.14624 129.038204,30.6128 128.208225,30.6128 C126.963256,30.6128 126.548267,29.7704 126.042498,29.7704 C125.796098,29.7704 125.575635,29.97776 125.575635,30.2888 C125.575635,30.872 126.716856,31.59776 128.169319,31.59776 C129.453193,31.59776 130.685193,30.91088 130.685193,29.47232 C130.685193,27.47648 127.002161,27.60608 127.002161,26.4008 C127.002161,25.8176 127.559804,25.53248 128.208225,25.53248 C129.297572,25.53248 129.492098,26.23232 129.984898,26.23232 C130.335046,26.23232 130.503635,26.012 130.503635,25.76576 C130.503635,25.05296 129.154919,24.54752 128.208225,24.54752 C127.054035,24.54752 125.86094,25.22144 125.86094,26.49152 L125.86094,26.49152 Z M135.379761,24.62528 L134.912898,24.62528 C134.536814,24.62528 134.342288,24.80672 134.342288,25.11776 C134.342288,25.4288 134.536814,25.61024 134.912898,25.61024 L135.379761,25.61024 L135.379761,30.98864 C135.379761,31.36448 135.600225,31.59776 135.950372,31.59776 C136.300519,31.59776 136.520982,31.36448 136.520982,30.98864 L136.520982,25.61024 L136.987846,25.61024 C137.36393,25.61024 137.558456,25.4288 137.558456,25.11776 C137.558456,24.80672 137.36393,24.62528 136.987846,24.62528 L136.520982,24.62528 L136.520982,23.13488 C136.520982,22.75904 136.300519,22.52576 135.950372,22.52576 C135.600225,22.52576 135.379761,22.75904 135.379761,23.13488 L135.379761,24.62528 Z M142.719888,30.98864 C142.719888,31.36448 142.940351,31.59776 143.290498,31.59776 C143.640646,31.59776 143.861109,31.36448 143.861109,30.98864 L143.861109,27.16544 C143.861109,25.22144 142.525361,24.54752 141.461951,24.54752 C140.774625,24.54752 140.061361,24.80672 139.555593,25.45472 L139.529656,25.4288 L139.529656,22.124 C139.529656,21.74816 139.309193,21.51488 138.959046,21.51488 C138.608898,21.51488 138.388435,21.74816 138.388435,22.124 L138.388435,30.98864 C138.388435,31.36448 138.608898,31.59776 138.959046,31.59776 C139.309193,31.59776 139.529656,31.36448 139.529656,30.98864 L139.529656,27.23024 C139.529656,26.02496 140.372604,25.53248 141.124772,25.53248 C141.87694,25.53248 142.719888,26.02496 142.719888,27.23024 L142.719888,30.98864 Z M151.071551,25.1048 C151.071551,24.70304 150.760309,24.54752 150.539846,24.54752 C150.306414,24.54752 150.00814,24.70304 150.00814,25.1048 L150.00814,25.46768 L149.982204,25.46768 C149.450498,24.88448 148.892856,24.54752 148.101782,24.54752 C146.156519,24.54752 145.067172,26.24528 145.067172,28.07264 C145.067172,29.9 146.156519,31.59776 148.101782,31.59776 C148.840982,31.59776 149.489404,31.2608 149.982204,30.56096 L150.00814,30.56096 L150.00814,31.04048 C150.00814,31.44224 150.306414,31.59776 150.539846,31.59776 C150.760309,31.59776 151.071551,31.44224 151.071551,31.04048 L151.071551,25.1048 Z M146.208393,28.07264 C146.208393,26.90624 146.701193,25.53248 148.101782,25.53248 C149.502372,25.53248 149.995172,26.90624 149.995172,28.07264 C149.995172,29.23904 149.502372,30.6128 148.101782,30.6128 C146.701193,30.6128 146.208393,29.23904 146.208393,28.07264 L146.208393,28.07264 Z M152.575888,30.98864 C152.575888,31.36448 152.796351,31.59776 153.146498,31.59776 C153.496646,31.59776 153.717109,31.36448 153.717109,30.98864 L153.717109,27.23024 C153.717109,26.02496 154.560056,25.53248 155.312225,25.53248 C156.064393,25.53248 156.90734,26.02496 156.90734,27.23024 L156.90734,30.98864 C156.90734,31.36448 157.127804,31.59776 157.477951,31.59776 C157.828098,31.59776 158.048561,31.36448 158.048561,30.98864 L158.048561,27.16544 C158.048561,25.22144 156.712814,24.54752 155.649404,24.54752 C154.962077,24.54752 154.248814,24.80672 153.743046,25.45472 L153.717109,25.4288 L153.717109,25.15664 C153.717109,24.7808 153.496646,24.54752 153.146498,24.54752 C152.796351,24.54752 152.575888,24.7808 152.575888,25.15664 L152.575888,30.98864 Z" id="From-less-than" fill="#1D3661"></path>
                <path d="M90.951186,43.2555886 C90.951186,42.4335543 90.951186,41.1671771 89.417207,41.1671771 C88.6391018,41.1671771 87.9721544,41.7226057 87.8832281,42.5002057 C87.1718175,41.5004343 86.0157754,41.0338743 84.8375018,41.0338743 C81.9029333,41.0338743 79.546386,43.7221486 79.546386,47.2324571 C79.546386,50.8316343 81.8362386,53.3866057 84.8375018,53.3866057 C86.0602386,53.3866057 87.0606596,52.8756114 87.8832281,51.8980571 C88.1055439,52.7423086 88.4834807,53.2533029 89.417207,53.2533029 C90.951186,53.2533029 90.951186,51.9869257 90.951186,51.1648914 L90.951186,43.2555886 Z M82.7477333,47.2324571 C82.7477333,45.6994743 83.5258386,43.9665371 85.2821333,43.9665371 C86.9717333,43.9665371 87.7498386,45.6994743 87.7498386,47.2324571 C87.7498386,48.76544 86.9495018,50.4539429 85.2821333,50.4539429 C83.5480702,50.4539429 82.7477333,48.76544 82.7477333,47.2324571 L82.7477333,47.2324571 Z M98.7322386,51.4759314 C98.7322386,52.5423543 99.399186,53.2533029 100.332912,53.2533029 C101.266639,53.2533029 101.933586,52.5423543 101.933586,51.4759314 L101.933586,45.8994286 C101.933586,44.6108343 102.511607,43.6999314 103.82327,43.6999314 C104.979312,43.6999314 105.690723,44.6108343 105.690723,45.8994286 L105.690723,51.4759314 C105.690723,52.5423543 106.35767,53.2533029 107.291396,53.2533029 C108.225123,53.2533029 108.89207,52.5423543 108.89207,51.4759314 L108.89207,45.8994286 C108.89207,44.6108343 109.603481,43.6999314 110.781754,43.6999314 C111.937796,43.6999314 112.649207,44.6108343 112.649207,45.8994286 L112.649207,51.4759314 C112.649207,52.5423543 113.316154,53.2533029 114.249881,53.2533029 C115.183607,53.2533029 115.850554,52.5423543 115.850554,51.4759314 L115.850554,45.344 C115.850554,42.54464 114.072028,41.0338743 111.470933,41.0338743 C110.381586,41.0338743 108.980996,41.6337371 108.091733,42.6557257 C107.246933,41.5893029 106.113123,41.0338743 104.779228,41.0338743 C103.600954,41.0338743 102.578302,41.5226514 101.800196,42.3669029 C101.689039,41.61152 101.155481,41.1671771 100.332912,41.1671771 C99.399186,41.1671771 98.7322386,41.8781257 98.7322386,42.9445486 L98.7322386,51.4759314 Z M122.942428,41.0338743 C119.563228,41.0338743 117.206681,43.9887543 117.206681,47.2324571 C117.206681,50.5650286 119.496533,53.3866057 122.942428,53.3866057 C126.388323,53.3866057 128.678175,50.5650286 128.678175,47.2324571 C128.678175,43.9887543 126.321628,41.0338743 122.942428,41.0338743 L122.942428,41.0338743 Z M122.942428,43.9665371 C124.698723,43.9665371 125.476828,45.6994743 125.476828,47.2324571 C125.476828,48.76544 124.676491,50.4539429 122.942428,50.4539429 C121.208365,50.4539429 120.408028,48.76544 120.408028,47.2324571 C120.408028,45.6994743 121.186133,43.9665371 122.942428,43.9665371 L122.942428,43.9665371 Z M130.034302,51.4759314 C130.034302,52.5423543 130.701249,53.2533029 131.634975,53.2533029 C132.568702,53.2533029 133.235649,52.5423543 133.235649,51.4759314 L133.235649,45.8994286 C133.235649,44.6552686 133.969291,43.6999314 135.280954,43.6999314 C136.436996,43.6999314 137.370723,44.41088 137.370723,45.8994286 L137.370723,51.4759314 C137.370723,52.5423543 138.03767,53.2533029 138.971396,53.2533029 C139.905123,53.2533029 140.57207,52.5423543 140.57207,51.4759314 L140.57207,45.344 C140.57207,42.6335086 138.704618,41.0338743 136.192449,41.0338743 C134.680702,41.0338743 133.724744,41.4782171 133.10226,42.3446857 C132.991102,41.61152 132.457544,41.1671771 131.634975,41.1671771 C130.701249,41.1671771 130.034302,41.8781257 130.034302,42.9445486 L130.034302,51.4759314 Z M143.173165,51.4759314 C143.173165,52.5423543 143.840112,53.2533029 144.773839,53.2533029 C145.707565,53.2533029 146.374512,52.5423543 146.374512,51.4759314 L146.374512,44.09984 L147.286007,44.09984 C148.108575,44.09984 148.819986,43.6999314 148.819986,42.70016 C148.819986,41.6781714 148.108575,41.30048 147.286007,41.30048 L146.374512,41.30048 L146.374512,39.3898057 C146.374512,38.3233829 145.707565,37.6124343 144.773839,37.6124343 C143.840112,37.6124343 143.173165,38.3233829 143.173165,39.3898057 L143.173165,41.30048 L142.461754,41.30048 C141.661418,41.30048 141.061165,41.9003429 141.061165,42.70016 C141.061165,43.5666286 141.594723,44.09984 142.461754,44.09984 L143.173165,44.09984 L143.173165,51.4759314 Z M148.975607,51.4759314 C148.975607,52.5423543 149.642554,53.2533029 150.576281,53.2533029 C151.510007,53.2533029 152.176954,52.5423543 152.176954,51.4759314 L152.176954,45.8994286 C152.176954,44.6552686 152.910596,43.6999314 154.22226,43.6999314 C155.378302,43.6999314 156.312028,44.41088 156.312028,45.8994286 L156.312028,51.4759314 C156.312028,52.5423543 156.978975,53.2533029 157.912702,53.2533029 C158.846428,53.2533029 159.513375,52.5423543 159.513375,51.4759314 L159.513375,45.344 C159.513375,42.6335086 157.645923,41.0338743 155.133754,41.0338743 C154.133333,41.0338743 152.888365,41.3226971 152.221418,42.1447314 L152.176954,42.1447314 L152.176954,37.7901714 C152.176954,36.7237486 151.510007,36.0128 150.576281,36.0128 C149.642554,36.0128 148.975607,36.7237486 148.975607,37.7901714 L148.975607,51.4759314 Z" id="a-month" fill="#1D3661"></path>
                <path d="M38,76 C58.9868205,76 76,58.9868205 76,38 C76,17.0131795 58.9868205,0 38,0 C17.0131795,0 0,17.0131795 0,38 C0,58.9868205 17.0131795,76 38,76 Z" id="Oval-2" fill="#1D3661"></path>
                <path d="M23.3553971,34.2279449 L22.6571061,33.0106134 C22.2381315,32.3083068 22.0519206,31.4187184 22.0519206,30.52913 C22.0519206,28.188108 24.1933462,26.923956 26.5209827,26.923956 C31.3624667,26.923956 31.2228085,31.8401024 34.3883941,31.8401024 C36.483267,31.8401024 38.0195071,30.4354891 38.0195071,28.2817488 C38.0195071,23.6465251 32.7590486,20.1818124 26.2416663,20.1818124 C19.910495,20.1818124 14.5103783,23.6933456 14.5103783,29.2649781 C14.5103783,30.5759505 15.1155638,33.0574339 15.7207493,34.2279449 L14.743142,34.2279449 C12.7879273,34.2279449 11.3913454,35.4452764 11.3913454,37.4585554 C11.3913454,39.4718344 12.7879273,40.6891658 14.743142,40.6891658 L17.1638839,40.6891658 C17.1638839,46.4949006 13.1137964,48.5081796 13.1137964,50.4278177 C13.1137964,52.6751989 14.4638256,54.0798121 16.7449094,54.0798121 L34.9935796,54.0798121 C36.9487943,54.0798121 38.3453762,52.8624807 38.3453762,50.8492017 C38.3453762,48.8359227 36.9487943,47.6185912 34.9935796,47.6185912 L22.0519206,47.6185912 C23.541608,45.5584918 24.4261099,43.2174697 24.4261099,40.6891658 L30.4314121,40.6891658 C32.3866267,40.6891658 33.7832086,39.4718344 33.7832086,37.4585554 C33.7832086,35.4452764 32.3866267,34.2279449 30.4314121,34.2279449 L23.3553971,34.2279449 Z M52.1969295,46.7290028 L52.1969295,50.7087403 C52.1969295,53.1902237 53.1745368,54.3607348 55.548726,54.3607348 C57.9229153,54.3607348 58.9005226,53.1902237 58.9005226,50.7087403 L58.9005226,46.7290028 L59.691919,46.7290028 C61.5074755,46.7290028 62.9506101,45.5116713 62.9506101,43.6388537 C62.9506101,41.766036 61.5074755,40.5487045 59.691919,40.5487045 L58.9005226,40.5487045 L58.9005226,26.174829 C58.9005226,21.9141688 56.247017,20.1818124 53.5469586,20.1818124 C51.1262167,20.1818124 49.8227402,21.0245804 48.7985801,22.8973981 L38.3707686,41.9064973 C38.0914522,42.3747017 37.7190304,42.936547 37.7190304,43.9665968 C37.7190304,45.1839282 38.6966377,46.7290028 40.9777215,46.7290028 L52.1969295,46.7290028 Z M52.1969295,40.5487045 L45.8192054,40.5487045 L52.103824,27.4858013 L52.1969295,27.4858013 L52.1969295,40.5487045 Z" id="£4" fill="#FFEE00" transform="translate(37.170978, 37.271274) rotate(-5.000000) translate(-37.170978, -37.271274) "></path>
            </g>
        </g>
    </g>
</svg>