<?xml version="1.0" encoding="UTF-8" standalone="no"?>
<svg width="180px" height="180px" viewBox="0 0 180 180" version="1.1" xmlns="http://www.w3.org/2000/svg" xmlns:xlink="http://www.w3.org/1999/xlink">
    <!-- Generator: Sketch 39.1 (31720) - http://www.bohemiancoding.com/sketch -->
    <title>roundel-example-six</title>
    <desc>Created with Sketch.</desc>
    <defs></defs>
    <g id="Templates" stroke="none" stroke-width="1" fill="none" fill-rule="evenodd">
        <g id="14-roundels" transform="translate(-628.000000, -2074.000000)">
            <g id="roundel-example-six" transform="translate(718.000000, 2164.000000) rotate(-5.000000) translate(-718.000000, -2164.000000) translate(628.000000, 2074.000000)">
                <path d="M179.552239,89.8007463 C179.552239,139.258657 139.45791,179.352985 90,179.352985 C40.5420896,179.352985 0.447761194,139.258657 0.447761194,89.8007463 C0.447761194,40.3428358 40.5420896,0.248507463 90,0.248507463 C139.45791,0.248507463 179.552239,40.3428358 179.552239,89.8007463 L179.552239,89.8007463 Z" id="Stroke-1" fill="#9B9B9B"></path>
                <path d="M57.1132836,86.0059701 L56.5759701,85.0746269 C56.2535821,84.5373134 56.1102985,83.8567164 56.1102985,83.1761194 C56.1102985,81.3850746 57.7580597,80.4179104 59.5491045,80.4179104 C63.2744776,80.4179104 63.1670149,84.1791045 65.6028358,84.1791045 C67.2147761,84.1791045 68.3968657,83.1044776 68.3968657,81.4567164 C68.3968657,77.9104478 64.3491045,75.2597015 59.3341791,75.2597015 C54.4625373,75.2597015 50.3073134,77.9462687 50.3073134,82.2089552 C50.3073134,83.2119403 50.7729851,85.1104478 51.2386567,86.0059701 L50.4864179,86.0059701 C48.9819403,86.0059701 47.9073134,86.9373134 47.9073134,88.4776119 C47.9073134,90.0179104 48.9819403,90.9492537 50.4864179,90.9492537 L52.3491045,90.9492537 C52.3491045,95.3910448 49.2326866,96.9313433 49.2326866,98.4 C49.2326866,100.119403 50.2714925,101.19403 52.0267164,101.19403 L66.0685075,101.19403 C67.5729851,101.19403 68.6476119,100.262687 68.6476119,98.7223881 C68.6476119,97.1820896 67.5729851,96.2507463 66.0685075,96.2507463 L56.1102985,96.2507463 C57.2565672,94.6746269 57.9371642,92.8835821 57.9371642,90.9492537 L62.5580597,90.9492537 C64.0625373,90.9492537 65.1371642,90.0179104 65.1371642,88.4776119 C65.1371642,86.9373134 64.0625373,86.0059701 62.5580597,86.0059701 L57.1132836,86.0059701 Z M85.11,101.881791 C93.5923881,101.881791 99.4956716,95.118806 99.4956716,87.6680597 C99.4956716,80.9050746 94.3947761,74.8298507 87.5171642,74.8298507 C86.2562687,74.8298507 84.9380597,75.0591045 83.9064179,75.5176119 L83.791791,75.4029851 C85.6831343,72.7092537 89.4085075,69.041194 91.7010448,66.2328358 C92.388806,65.3731343 92.9046269,64.6853731 92.9046269,63.8829851 C92.9046269,61.8197015 90.4401493,59.6991045 88.8353731,59.6991045 C88.3768657,59.6991045 87.7464179,59.6991045 87.1159701,60.1002985 C86.428209,60.558806 85.7404478,61.0173134 85.2819403,61.4758209 C79.4932836,66.8632836 70.7243284,79.0137313 70.7243284,87.6680597 C70.7243284,95.2907463 76.2837313,101.881791 85.11,101.881791 L85.11,101.881791 Z M85.11,81.7074627 C88.7207463,81.7074627 90.5547761,84.6304478 90.5547761,87.6680597 C90.5547761,90.9922388 88.3768657,93.6286567 85.11,93.6286567 C81.671194,93.6286567 79.6652239,90.8776119 79.6652239,87.6680597 C79.6652239,84.2865672 81.8431343,81.7074627 85.11,81.7074627 L85.11,81.7074627 Z M117.112388,94.0871642 C111.266418,94.0871642 110.865224,84.8597015 110.865224,80.7904478 C110.865224,76.4346269 111.266418,67.4937313 117.112388,67.4937313 C122.958358,67.4937313 123.359552,76.4346269 123.359552,80.7904478 C123.359552,84.8597015 122.958358,94.0871642 117.112388,94.0871642 L117.112388,94.0871642 Z M117.112388,101.881791 C128.689701,101.881791 132.300448,90.1325373 132.300448,80.7904478 C132.300448,71.4483582 128.689701,59.6991045 117.112388,59.6991045 C105.535075,59.6991045 101.924328,71.4483582 101.924328,80.7904478 C101.924328,90.1325373 105.535075,101.881791 117.112388,101.881791 L117.112388,101.881791 Z" id="£60" fill="#FFFFFF"></path>
                <path d="M36.4907463,128.991045 C36.7486567,129.721791 37.0495522,129.979701 37.5868657,129.979701 C38.1026866,129.979701 38.4250746,129.721791 38.6614925,128.991045 L41.1116418,121.275224 L41.1546269,121.275224 L43.6047761,128.991045 C43.841194,129.721791 44.1635821,129.979701 44.679403,129.979701 C45.2167164,129.979701 45.5176119,129.721791 45.7755224,128.991045 L48.9134328,119.856716 C48.999403,119.577313 49.0638806,119.319403 49.0638806,119.12597 C49.0638806,118.760597 48.8059701,118.287761 48.161194,118.287761 C47.7528358,118.287761 47.3659701,118.438209 47.1080597,119.254925 L44.679403,127.056716 L44.6364179,127.056716 L42.2507463,119.534328 C41.9928358,118.717612 41.8208955,118.287761 41.1331343,118.287761 C40.4453731,118.287761 40.2734328,118.717612 40.0155224,119.534328 L37.6298507,127.056716 L37.5868657,127.056716 L35.158209,119.254925 C34.9002985,118.438209 34.5134328,118.287761 34.1050746,118.287761 C33.4602985,118.287761 33.2023881,118.760597 33.2023881,119.12597 C33.2023881,119.319403 33.2668657,119.577313 33.3528358,119.856716 L36.4907463,128.991045 Z M58.6710448,124.864478 C59.4877612,124.864478 59.7241791,124.520597 59.7241791,123.854328 C59.7241791,121.103284 57.918806,118.287761 54.8023881,118.287761 C51.6,118.287761 49.6656716,121.038806 49.6656716,124.133731 C49.6656716,127.164179 51.2561194,129.979701 54.9098507,129.979701 C57.1450746,129.979701 59.4877612,128.561194 59.4877612,127.637015 C59.4877612,127.099701 59.1438806,126.798806 58.8,126.798806 C58.0907463,126.798806 57.4459701,128.346269 54.9313433,128.346269 C52.8035821,128.346269 51.5570149,126.820299 51.5570149,124.864478 L58.6710448,124.864478 Z M51.5570149,123.44597 C51.6214925,121.705075 52.4597015,119.835224 54.8023881,119.921194 C56.8871642,119.921194 57.8328358,121.812537 57.8328358,123.44597 L51.5570149,123.44597 Z M63.4208955,114.268657 C63.4208955,113.645373 63.0555224,113.258507 62.4752239,113.258507 C61.8949254,113.258507 61.5295522,113.645373 61.5295522,114.268657 L61.5295522,128.969552 C61.5295522,129.592836 61.8949254,129.979701 62.4752239,129.979701 C63.0555224,129.979701 63.4208955,129.592836 63.4208955,128.969552 L63.4208955,114.268657 Z M65.4197015,124.133731 C65.4197015,127.164179 67.0961194,129.979701 70.5779104,129.979701 C72.5337313,129.979701 73.5868657,129.20597 73.5868657,128.496716 C73.5868657,127.980896 73.2859701,127.701493 72.8561194,127.701493 C72.2543284,127.701493 71.9104478,128.346269 70.5779104,128.346269 C68.2352239,128.346269 67.3110448,126.06806 67.3110448,124.133731 C67.3110448,122.199403 68.2352239,119.921194 70.5779104,119.921194 C71.8674627,119.921194 72.1468657,120.522985 72.8776119,120.522985 C73.3289552,120.522985 73.6513433,120.114627 73.6513433,119.727761 C73.6513433,118.95403 72.5122388,118.287761 70.5779104,118.287761 C67.0961194,118.287761 65.4197015,121.103284 65.4197015,124.133731 L65.4197015,124.133731 Z M74.9623881,124.133731 C74.9623881,127.164179 76.7677612,129.979701 79.9916418,129.979701 C83.2155224,129.979701 85.0208955,127.164179 85.0208955,124.133731 C85.0208955,121.103284 83.2155224,118.287761 79.9916418,118.287761 C76.7677612,118.287761 74.9623881,121.103284 74.9623881,124.133731 L74.9623881,124.133731 Z M76.8537313,124.133731 C76.8537313,122.199403 77.6704478,119.921194 79.9916418,119.921194 C82.3128358,119.921194 83.1295522,122.199403 83.1295522,124.133731 C83.1295522,126.06806 82.3128358,128.346269 79.9916418,128.346269 C77.6704478,128.346269 76.8537313,126.06806 76.8537313,124.133731 L76.8537313,124.133731 Z M93.7898507,128.969552 C93.7898507,129.592836 94.1552239,129.979701 94.7355224,129.979701 C95.3158209,129.979701 95.681194,129.592836 95.681194,128.969552 L95.681194,122.564776 C95.681194,120.931343 96.5838806,119.921194 98.1098507,119.921194 C99.6573134,119.921194 100.56,120.931343 100.56,122.564776 L100.56,128.969552 C100.56,129.592836 100.925373,129.979701 101.505672,129.979701 C102.08597,129.979701 102.451343,129.592836 102.451343,128.969552 L102.451343,122.629254 C102.451343,119.405373 100.237612,118.287761 98.4752239,118.287761 C96.8202985,118.287761 95.8101493,119.018507 94.9719403,120.22209 C94.1122388,118.760597 92.9516418,118.287761 91.8340299,118.287761 C90.1146269,118.287761 89.4053731,119.104478 88.9540299,119.684776 L88.9110448,119.641791 L88.9110448,119.29791 C88.9110448,118.674627 88.5456716,118.287761 87.9653731,118.287761 C87.3850746,118.287761 87.0197015,118.674627 87.0197015,119.29791 L87.0197015,128.969552 C87.0197015,129.592836 87.3850746,129.979701 87.9653731,129.979701 C88.5456716,129.979701 88.9110448,129.592836 88.9110448,128.969552 L88.9110448,122.564776 C88.9110448,120.931343 89.8137313,119.921194 91.3397015,119.921194 C92.8871642,119.921194 93.7898507,120.931343 93.7898507,122.564776 L93.7898507,128.969552 Z M113.26209,124.864478 C114.078806,124.864478 114.315224,124.520597 114.315224,123.854328 C114.315224,121.103284 112.509851,118.287761 109.393433,118.287761 C106.191045,118.287761 104.256716,121.038806 104.256716,124.133731 C104.256716,127.164179 105.847164,129.979701 109.500896,129.979701 C111.736119,129.979701 114.078806,128.561194 114.078806,127.637015 C114.078806,127.099701 113.734925,126.798806 113.391045,126.798806 C112.681791,126.798806 112.037015,128.346269 109.522388,128.346269 C107.394627,128.346269 106.14806,126.820299 106.14806,124.864478 L113.26209,124.864478 Z M106.14806,123.44597 C106.212537,121.705075 107.050746,119.835224 109.393433,119.921194 C111.478209,119.921194 112.423881,121.812537 112.423881,123.44597 L106.14806,123.44597 Z M130.864478,119.21194 C130.864478,118.545672 130.348657,118.287761 129.983284,118.287761 C129.467463,118.287761 128.973134,118.545672 128.973134,119.21194 L128.973134,119.727761 L128.930149,119.727761 C128.435821,119.04 127.253731,118.287761 126.028657,118.287761 C122.804776,118.287761 120.999403,121.103284 120.999403,124.133731 C120.999403,127.164179 122.804776,129.979701 126.028657,129.979701 C127.318209,129.979701 128.349851,129.334925 128.930149,128.346269 L128.973134,128.346269 L128.973134,129.334925 C128.973134,130.968358 128.263881,132.859701 125.856716,132.859701 C123.814925,132.859701 122.976716,131.527164 122.117015,131.527164 C121.515224,131.527164 121.321791,132.021493 121.321791,132.408358 C121.321791,133.375522 123.750448,134.493134 125.706269,134.493134 C128.801194,134.493134 130.864478,132.429851 130.864478,129.03403 L130.864478,119.21194 Z M122.890746,124.133731 C122.890746,122.199403 123.707463,119.921194 126.028657,119.921194 C128.349851,119.921194 129.166567,122.199403 129.166567,124.133731 C129.166567,126.06806 128.349851,128.346269 126.028657,128.346269 C123.707463,128.346269 122.890746,126.06806 122.890746,124.133731 L122.890746,124.133731 Z M135.334925,119.29791 C135.334925,118.674627 134.969552,118.287761 134.389254,118.287761 C133.808955,118.287761 133.443582,118.674627 133.443582,119.29791 L133.443582,128.969552 C133.443582,129.592836 133.808955,129.979701 134.389254,129.979701 C134.969552,129.979701 135.334925,129.592836 135.334925,128.969552 L135.334925,119.29791 Z M133.228657,115.579701 C133.228657,116.224478 133.744478,116.740299 134.389254,116.740299 C135.03403,116.740299 135.549851,116.224478 135.549851,115.579701 C135.549851,114.934925 135.03403,114.419104 134.389254,114.419104 C133.744478,114.419104 133.228657,114.934925 133.228657,115.579701 L133.228657,115.579701 Z M140.321194,120.050149 L141.503284,120.050149 C142.126567,120.050149 142.448955,119.749254 142.448955,119.233433 C142.448955,118.717612 142.126567,118.416716 141.503284,118.416716 L140.321194,118.416716 L140.321194,115.644179 C140.321194,115.171343 140.514627,114.89194 141.094925,114.89194 L141.567761,114.89194 C142.277015,114.89194 142.599403,114.591045 142.599403,114.075224 C142.599403,113.559403 142.019104,113.258507 141.524776,113.258507 L140.944478,113.258507 C139.568955,113.258507 138.429851,114.075224 138.429851,115.730149 L138.429851,118.416716 L137.656119,118.416716 C137.032836,118.416716 136.710448,118.717612 136.710448,119.233433 C136.710448,119.749254 137.032836,120.050149 137.656119,120.050149 L138.429851,120.050149 L138.429851,128.969552 C138.429851,129.592836 138.795224,129.979701 139.375522,129.979701 C139.955821,129.979701 140.321194,129.592836 140.321194,128.969552 L140.321194,120.050149 Z M143.996418,118.416716 L143.222687,118.416716 C142.599403,118.416716 142.277015,118.717612 142.277015,119.233433 C142.277015,119.749254 142.599403,120.050149 143.222687,120.050149 L143.996418,120.050149 L143.996418,128.969552 C143.996418,129.592836 144.361791,129.979701 144.94209,129.979701 C145.522388,129.979701 145.887761,129.592836 145.887761,128.969552 L145.887761,120.050149 L146.661493,120.050149 C147.284776,120.050149 147.607164,119.749254 147.607164,119.233433 C147.607164,118.717612 147.284776,118.416716 146.661493,118.416716 L145.887761,118.416716 L145.887761,115.945075 C145.887761,115.321791 145.522388,114.934925 144.94209,114.934925 C144.361791,114.934925 143.996418,115.321791 143.996418,115.945075 L143.996418,118.416716 Z" id="welcome-gift" fill="#FFFFFF"></path>
                <path d="M73.6923867,40.6925373 L77.6685061,40.6925373 C78.2058196,40.6925373 78.5926852,40.4131343 78.5926852,39.8113433 C78.5926852,39.2095522 78.2058196,38.9301493 77.6685061,38.9301493 L73.6923867,38.9301493 L73.6923867,33.9223881 L78.184327,33.9223881 C78.7216404,33.9223881 79.1085061,33.6429851 79.1085061,33.041194 C79.1085061,32.439403 78.7216404,32.16 78.184327,32.16 L72.8111927,32.16 C72.101939,32.16 71.8010434,32.6113433 71.8010434,33.1916418 L71.8010434,46.5814925 C71.8010434,47.2047761 72.1664166,47.5916418 72.7467151,47.5916418 C73.3270136,47.5916418 73.6923867,47.2047761 73.6923867,46.5814925 L73.6923867,40.6925373 Z M82.4398494,40.7570149 L88.2858196,47.161791 C88.5007449,47.398209 88.7586554,47.5916418 89.145521,47.5916418 C89.6183569,47.5916418 90.0052225,47.2692537 90.0052225,46.8608955 C90.0052225,46.5170149 89.8977598,46.280597 89.6398494,46.001194 L84.7610434,40.6495522 L85.5777598,40.6280597 C87.8559688,40.5420896 89.7473121,39.3814925 89.7473121,36.2865672 C89.7473121,33.7934328 87.4691031,32.16 85.061939,32.16 L81.5586554,32.16 C80.8494016,32.16 80.5485061,32.6113433 80.5485061,33.1916418 L80.5485061,46.5814925 C80.5485061,47.2047761 80.9138793,47.5916418 81.4941778,47.5916418 C82.0744763,47.5916418 82.4398494,47.2047761 82.4398494,46.5814925 L82.4398494,40.7570149 Z M82.4398494,33.7934328 L84.9759688,33.7934328 C86.7383569,33.7934328 87.8559688,34.9970149 87.8559688,36.4155224 C87.8559688,38.3928358 86.9962673,39.2310448 85.0189539,39.2310448 L82.4398494,39.2310448 L82.4398494,33.7934328 Z M93.5944763,40.6925373 L97.742536,40.6925373 C98.2798494,40.6925373 98.6667151,40.4131343 98.6667151,39.8113433 C98.6667151,39.2095522 98.2798494,38.9301493 97.742536,38.9301493 L93.5944763,38.9301493 L93.5944763,33.9223881 L98.1508942,33.9223881 C98.6882076,33.9223881 99.0750733,33.6429851 99.0750733,33.041194 C99.0750733,32.439403 98.6882076,32.16 98.1508942,32.16 L92.7132822,32.16 C92.0040285,32.16 91.703133,32.6113433 91.703133,33.1916418 L91.703133,46.4310448 C91.703133,47.0113433 92.0040285,47.4626866 92.7132822,47.4626866 L98.1508942,47.4626866 C98.6882076,47.4626866 99.0750733,47.1832836 99.0750733,46.5814925 C99.0750733,45.9797015 98.6882076,45.7002985 98.1508942,45.7002985 L93.5944763,45.7002985 L93.5944763,40.6925373 Z M103.137163,40.6925373 L107.285223,40.6925373 C107.822536,40.6925373 108.209402,40.4131343 108.209402,39.8113433 C108.209402,39.2095522 107.822536,38.9301493 107.285223,38.9301493 L103.137163,38.9301493 L103.137163,33.9223881 L107.693581,33.9223881 C108.230894,33.9223881 108.61776,33.6429851 108.61776,33.041194 C108.61776,32.439403 108.230894,32.16 107.693581,32.16 L102.255969,32.16 C101.546715,32.16 101.24582,32.6113433 101.24582,33.1916418 L101.24582,46.4310448 C101.24582,47.0113433 101.546715,47.4626866 102.255969,47.4626866 L107.693581,47.4626866 C108.230894,47.4626866 108.61776,47.1832836 108.61776,46.5814925 C108.61776,45.9797015 108.230894,45.7002985 107.693581,45.7002985 L103.137163,45.7002985 L103.137163,40.6925373 Z" id="FREE" fill="#FFFFFF"></path>
            </g>
        </g>
    </g>
</svg>