<?xml version="1.0" encoding="UTF-8" standalone="no"?>
<svg width="180px" height="180px" viewBox="0 0 180 180" version="1.1" xmlns="http://www.w3.org/2000/svg" xmlns:xlink="http://www.w3.org/1999/xlink">
    <!-- Generator: Sketch 39.1 (31720) - http://www.bohemiancoding.com/sketch -->
    <title>roundel-inaccessible-midnight-three</title>
    <desc>Created with Sketch.</desc>
    <defs></defs>
    <g id="Templates" stroke="none" stroke-width="1" fill="none" fill-rule="evenodd">
        <g id="14-roundels" transform="translate(-1029.000000, -5370.000000)">
            <g id="roundel-inaccessible-midnight-three" transform="translate(1029.085792, 5369.980268)">
                <path d="M90,179.552239 C40.5420896,179.552239 0.447761194,139.45791 0.447761194,90 C0.447761194,40.5420896 40.5420896,0.447761194 90,0.447761194 C139.45791,0.447761194 179.552239,40.5420896 179.552239,90 C179.552239,139.45791 139.45791,179.552239 90,179.552239 Z" id="Stroke-1" fill="#1D3661"></path>
                <path d="M60.5224255,90.2734683 L59.0448136,87.7122743 C58.1582464,86.2346624 57.7642166,84.3630206 57.7642166,82.4913788 C57.7642166,77.5660057 62.2955599,74.9063042 67.220933,74.9063042 C77.4657091,74.9063042 77.1701867,85.2495877 83.8686942,85.2495877 C88.30153,85.2495877 91.5522763,82.2943639 91.5522763,77.7630206 C91.5522763,68.0107818 80.420933,60.7212295 66.6298882,60.7212295 C53.2328733,60.7212295 41.8060076,68.1092892 41.8060076,79.8316773 C41.8060076,82.5898863 43.0866047,87.8107818 44.3672017,90.2734683 L42.298545,90.2734683 C38.1612315,90.2734683 35.2060076,92.8346624 35.2060076,97.0704833 C35.2060076,101.306304 38.1612315,103.867498 42.298545,103.867498 L47.420933,103.867498 C47.420933,116.082424 38.8507838,120.318244 38.8507838,124.35705 C38.8507838,129.085409 41.7075002,132.040633 46.5343658,132.040633 L85.1492912,132.040633 C89.2866047,132.040633 92.2418285,129.479438 92.2418285,125.243618 C92.2418285,121.007797 89.2866047,118.446603 85.1492912,118.446603 L57.7642166,118.446603 C60.9164554,114.112274 62.7880972,109.186901 62.7880972,103.867498 L75.4955599,103.867498 C79.6328733,103.867498 82.5880972,101.306304 82.5880972,97.0704833 C82.5880972,92.8346624 79.6328733,90.2734683 75.4955599,90.2734683 L60.5224255,90.2734683 Z M121.552276,116.574961 L121.552276,124.948095 C121.552276,130.168991 123.620933,132.631677 128.644814,132.631677 C133.668694,132.631677 135.737351,130.168991 135.737351,124.948095 L135.737351,116.574961 L137.411978,116.574961 C141.253769,116.574961 144.3075,114.013767 144.3075,110.073468 C144.3075,106.13317 141.253769,103.571976 137.411978,103.571976 L135.737351,103.571976 L135.737351,73.3301848 C135.737351,64.3660057 130.122426,60.7212295 124.408993,60.7212295 C119.286605,60.7212295 116.528396,62.4943639 114.361232,66.4346624 L92.2955599,106.428692 C91.7045151,107.413767 90.9164554,108.595856 90.9164554,110.763021 C90.9164554,113.324215 92.9851121,116.574961 97.8119778,116.574961 L121.552276,116.574961 Z M121.552276,103.571976 L108.056754,103.571976 L121.355261,76.0883937 L121.552276,76.0883937 L121.552276,103.571976 Z" id="£4" fill="#009FE3" transform="translate(89.756754, 96.676453) rotate(-5.000000) translate(-89.756754, -96.676453) "></path>
                <path d="M32.5052796,45.0397894 L36.481399,45.0397894 C37.0187124,45.0397894 37.4055781,44.7603865 37.4055781,44.1585954 C37.4055781,43.5568044 37.0187124,43.2774014 36.481399,43.2774014 L32.5052796,43.2774014 L32.5052796,38.2696402 L36.9972199,38.2696402 C37.5345333,38.2696402 37.921399,37.9902372 37.921399,37.3884462 C37.921399,36.7866551 37.5345333,36.5072521 36.9972199,36.5072521 L31.6240855,36.5072521 C30.9148318,36.5072521 30.6139363,36.9585954 30.6139363,37.5388939 L30.6139363,50.9287447 C30.6139363,51.5520282 30.9793094,51.9388939 31.5596079,51.9388939 C32.1399064,51.9388939 32.5052796,51.5520282 32.5052796,50.9287447 L32.5052796,45.0397894 Z M38.4658766,50.9287447 C38.4658766,51.5520282 38.8312497,51.9388939 39.4115482,51.9388939 C39.9918467,51.9388939 40.3572199,51.5520282 40.3572199,50.9287447 L40.3572199,45.4911327 C40.3572199,43.2774014 41.7327422,42.4391924 42.8503542,42.2457596 C43.6455781,42.0953118 44.0324437,41.7514312 44.0324437,41.2141178 C44.0324437,40.6768044 43.6455781,40.2469536 42.9793094,40.2469536 C41.88319,40.2469536 40.8300557,41.343073 40.4002049,42.224267 L40.3572199,42.224267 L40.3572199,41.2571029 C40.3572199,40.6338193 39.9918467,40.2469536 39.4115482,40.2469536 C38.8312497,40.2469536 38.4658766,40.6338193 38.4658766,41.2571029 L38.4658766,50.9287447 Z M43.8461751,46.0929238 C43.8461751,49.1233715 45.6515482,51.9388939 48.8754288,51.9388939 C52.0993094,51.9388939 53.9046825,49.1233715 53.9046825,46.0929238 C53.9046825,43.062476 52.0993094,40.2469536 48.8754288,40.2469536 C45.6515482,40.2469536 43.8461751,43.062476 43.8461751,46.0929238 L43.8461751,46.0929238 Z M45.7375184,46.0929238 C45.7375184,44.1585954 46.5542348,41.8803865 48.8754288,41.8803865 C51.1966228,41.8803865 52.0133393,44.1585954 52.0133393,46.0929238 C52.0133393,48.0272521 51.1966228,50.3054611 48.8754288,50.3054611 C46.5542348,50.3054611 45.7375184,48.0272521 45.7375184,46.0929238 L45.7375184,46.0929238 Z M61.7781154,50.9287447 C61.7781154,51.5520282 62.1434885,51.9388939 62.723787,51.9388939 C63.3040855,51.9388939 63.6694587,51.5520282 63.6694587,50.9287447 L63.6694587,44.5239685 C63.6694587,42.8905357 64.5721452,41.8803865 66.0981154,41.8803865 C67.6455781,41.8803865 68.5482646,42.8905357 68.5482646,44.5239685 L68.5482646,50.9287447 C68.5482646,51.5520282 68.9136378,51.9388939 69.4939363,51.9388939 C70.0742348,51.9388939 70.4396079,51.5520282 70.4396079,50.9287447 L70.4396079,44.5884462 C70.4396079,41.3645656 68.2258766,40.2469536 66.4634885,40.2469536 C64.8085631,40.2469536 63.7984139,40.9776999 62.9602049,42.181282 C62.1005034,40.7197894 60.9399064,40.2469536 59.8222945,40.2469536 C58.1028915,40.2469536 57.3936378,41.06367 56.9422945,41.6439685 L56.8993094,41.6009835 L56.8993094,41.2571029 C56.8993094,40.6338193 56.5339363,40.2469536 55.9536378,40.2469536 C55.3733393,40.2469536 55.0079661,40.6338193 55.0079661,41.2571029 L55.0079661,50.9287447 C55.0079661,51.5520282 55.3733393,51.9388939 55.9536378,51.9388939 C56.5339363,51.9388939 56.8993094,51.5520282 56.8993094,50.9287447 L56.8993094,44.5239685 C56.8993094,42.8905357 57.801996,41.8803865 59.3279661,41.8803865 C60.8754288,41.8803865 61.7781154,42.8905357 61.7781154,44.5239685 L61.7781154,50.9287447 Z M78.4061751,36.2278491 C78.4061751,35.6045656 78.0408019,35.2176999 77.4605034,35.2176999 C76.8802049,35.2176999 76.5148318,35.6045656 76.5148318,36.2278491 L76.5148318,50.9287447 C76.5148318,51.5520282 76.8802049,51.9388939 77.4605034,51.9388939 C78.0408019,51.9388939 78.4061751,51.5520282 78.4061751,50.9287447 L78.4061751,36.2278491 Z M88.321399,46.82367 C89.1381154,46.82367 89.3745333,46.4797894 89.3745333,45.8135208 C89.3745333,43.062476 87.5691602,40.2469536 84.4527422,40.2469536 C81.2503542,40.2469536 79.3160258,42.9979984 79.3160258,46.0929238 C79.3160258,49.1233715 80.9064736,51.9388939 84.5602049,51.9388939 C86.7954288,51.9388939 89.1381154,50.5203865 89.1381154,49.5962073 C89.1381154,49.0588939 88.7942348,48.7579984 88.4503542,48.7579984 C87.7411005,48.7579984 87.0963243,50.3054611 84.5816975,50.3054611 C82.4539363,50.3054611 81.2073691,48.7794909 81.2073691,46.82367 L88.321399,46.82367 Z M81.2073691,45.4051626 C81.2718467,43.664267 82.1100557,41.7944163 84.4527422,41.8803865 C86.5375184,41.8803865 87.48319,43.7717297 87.48319,45.4051626 L81.2073691,45.4051626 Z M90.0264736,43.4708342 C90.0264736,46.6517297 96.1303542,46.5227745 96.1303542,48.7579984 C96.1303542,49.5317297 95.2921452,50.3054611 93.9166228,50.3054611 C91.8533393,50.3054611 91.1655781,48.9084462 90.3273691,48.9084462 C89.9190109,48.9084462 89.5536378,49.2523268 89.5536378,49.7681476 C89.5536378,50.7353118 91.4449811,51.9388939 93.8521452,51.9388939 C95.9799064,51.9388939 98.0216975,50.7997894 98.0216975,48.4141178 C98.0216975,45.104267 91.9178169,45.3191924 91.9178169,43.3203865 C91.9178169,42.3532223 92.841996,41.8803865 93.9166228,41.8803865 C95.721996,41.8803865 96.044384,43.0409835 96.8611005,43.0409835 C97.441399,43.0409835 97.7208019,42.6756103 97.7208019,42.2672521 C97.7208019,41.0851626 95.4855781,40.2469536 93.9166228,40.2469536 C92.003787,40.2469536 90.0264736,41.3645656 90.0264736,43.4708342 L90.0264736,43.4708342 Z M98.6736378,43.4708342 C98.6736378,46.6517297 104.777518,46.5227745 104.777518,48.7579984 C104.777518,49.5317297 103.939309,50.3054611 102.563787,50.3054611 C100.500503,50.3054611 99.8127422,48.9084462 98.9745333,48.9084462 C98.5661751,48.9084462 98.2008019,49.2523268 98.2008019,49.7681476 C98.2008019,50.7353118 100.092145,51.9388939 102.499309,51.9388939 C104.627071,51.9388939 106.668862,50.7997894 106.668862,48.4141178 C106.668862,45.104267 100.564981,45.3191924 100.564981,43.3203865 C100.564981,42.3532223 101.48916,41.8803865 102.563787,41.8803865 C104.36916,41.8803865 104.691548,43.0409835 105.508265,43.0409835 C106.088563,43.0409835 106.367966,42.6756103 106.367966,42.2672521 C106.367966,41.0851626 104.132742,40.2469536 102.563787,40.2469536 C100.650951,40.2469536 98.6736378,41.3645656 98.6736378,43.4708342 L98.6736378,43.4708342 Z M112.658115,40.3759088 L111.884384,40.3759088 C111.2611,40.3759088 110.938712,40.6768044 110.938712,41.1926253 C110.938712,41.7084462 111.2611,42.0093417 111.884384,42.0093417 L112.658115,42.0093417 L112.658115,50.9287447 C112.658115,51.5520282 113.023489,51.9388939 113.603787,51.9388939 C114.184086,51.9388939 114.549459,51.5520282 114.549459,50.9287447 L114.549459,42.0093417 L115.32319,42.0093417 C115.946474,42.0093417 116.268862,41.7084462 116.268862,41.1926253 C116.268862,40.6768044 115.946474,40.3759088 115.32319,40.3759088 L114.549459,40.3759088 L114.549459,37.904267 C114.549459,37.2809835 114.184086,36.8941178 113.603787,36.8941178 C113.023489,36.8941178 112.658115,37.2809835 112.658115,37.904267 L112.658115,40.3759088 Z M123.927369,50.9287447 C123.927369,51.5520282 124.292742,51.9388939 124.873041,51.9388939 C125.453339,51.9388939 125.818712,51.5520282 125.818712,50.9287447 L125.818712,44.5884462 C125.818712,41.3645656 123.604981,40.2469536 121.842593,40.2469536 C120.703489,40.2469536 119.521399,40.6768044 118.68319,41.7514312 L118.640205,41.7084462 L118.640205,36.2278491 C118.640205,35.6045656 118.274832,35.2176999 117.694533,35.2176999 C117.114235,35.2176999 116.748862,35.6045656 116.748862,36.2278491 L116.748862,50.9287447 C116.748862,51.5520282 117.114235,51.9388939 117.694533,51.9388939 C118.274832,51.9388939 118.640205,51.5520282 118.640205,50.9287447 L118.640205,44.6959088 C118.640205,42.6971029 120.03722,41.8803865 121.283787,41.8803865 C122.530354,41.8803865 123.927369,42.6971029 123.927369,44.6959088 L123.927369,50.9287447 Z M136.873041,41.1711327 C136.873041,40.5048641 136.35722,40.2469536 135.991847,40.2469536 C135.604981,40.2469536 135.110653,40.5048641 135.110653,41.1711327 L135.110653,41.7729238 L135.067668,41.7729238 C134.186474,40.8057596 133.262294,40.2469536 131.95125,40.2469536 C128.727369,40.2469536 126.921996,43.062476 126.921996,46.0929238 C126.921996,49.1233715 128.727369,51.9388939 131.95125,51.9388939 C133.176324,51.9388939 134.250951,51.3800879 135.067668,50.2194909 L135.110653,50.2194909 L135.110653,51.0147148 C135.110653,51.6809835 135.604981,51.9388939 135.991847,51.9388939 C136.35722,51.9388939 136.873041,51.6809835 136.873041,51.0147148 L136.873041,41.1711327 Z M128.813339,46.0929238 C128.813339,44.1585954 129.630056,41.8803865 131.95125,41.8803865 C134.272444,41.8803865 135.08916,44.1585954 135.08916,46.0929238 C135.08916,48.0272521 134.272444,50.3054611 131.95125,50.3054611 C129.630056,50.3054611 128.813339,48.0272521 128.813339,46.0929238 L128.813339,46.0929238 Z M138.470653,50.9287447 C138.470653,51.5520282 138.836026,51.9388939 139.416324,51.9388939 C139.996623,51.9388939 140.361996,51.5520282 140.361996,50.9287447 L140.361996,44.6959088 C140.361996,42.6971029 141.759011,41.8803865 143.005578,41.8803865 C144.252145,41.8803865 145.64916,42.6971029 145.64916,44.6959088 L145.64916,50.9287447 C145.64916,51.5520282 146.014533,51.9388939 146.594832,51.9388939 C147.17513,51.9388939 147.540503,51.5520282 147.540503,50.9287447 L147.540503,44.5884462 C147.540503,41.3645656 145.326772,40.2469536 143.564384,40.2469536 C142.42528,40.2469536 141.24319,40.6768044 140.404981,41.7514312 L140.361996,41.7084462 L140.361996,41.2571029 C140.361996,40.6338193 139.996623,40.2469536 139.416324,40.2469536 C138.836026,40.2469536 138.470653,40.6338193 138.470653,41.2571029 L138.470653,50.9287447 Z" id="From-less-than" fill="#009FE3" transform="translate(89.077220, 43.578297) rotate(-5.000000) translate(-89.077220, -43.578297) "></path>
                <path d="M67.0164061,146.799646 C67.0164061,146.133378 66.5005852,145.875467 66.135212,145.875467 C65.7483464,145.875467 65.254018,146.133378 65.254018,146.799646 L65.254018,147.401437 L65.2110329,147.401437 C64.3298389,146.434273 63.4056598,145.875467 62.094615,145.875467 C58.8707344,145.875467 57.0653613,148.690989 57.0653613,151.721437 C57.0653613,154.751885 58.8707344,157.567407 62.094615,157.567407 C63.3196896,157.567407 64.3943165,157.008601 65.2110329,155.848004 L65.254018,155.848004 L65.254018,156.643228 C65.254018,157.309497 65.7483464,157.567407 66.135212,157.567407 C66.5005852,157.567407 67.0164061,157.309497 67.0164061,156.643228 L67.0164061,146.799646 Z M58.9567046,151.721437 C58.9567046,149.787109 59.773421,147.5089 62.094615,147.5089 C64.415809,147.5089 65.2325255,149.787109 65.2325255,151.721437 C65.2325255,153.655766 64.415809,155.933975 62.094615,155.933975 C59.773421,155.933975 58.9567046,153.655766 58.9567046,151.721437 L58.9567046,151.721437 Z M81.652824,156.557258 C81.652824,157.180542 82.0181971,157.567407 82.5984956,157.567407 C83.1787941,157.567407 83.5441673,157.180542 83.5441673,156.557258 L83.5441673,150.152482 C83.5441673,148.519049 84.4468538,147.5089 85.972824,147.5089 C87.5202867,147.5089 88.4229732,148.519049 88.4229732,150.152482 L88.4229732,156.557258 C88.4229732,157.180542 88.7883464,157.567407 89.3686449,157.567407 C89.9489434,157.567407 90.3143165,157.180542 90.3143165,156.557258 L90.3143165,150.21696 C90.3143165,146.993079 88.1005852,145.875467 86.3381971,145.875467 C84.6832717,145.875467 83.6731225,146.606213 82.8349135,147.809795 C81.975212,146.348303 80.814615,145.875467 79.6970031,145.875467 C77.9776001,145.875467 77.2683464,146.692184 76.8170031,147.272482 L76.774018,147.229497 L76.774018,146.885616 C76.774018,146.262333 76.4086449,145.875467 75.8283464,145.875467 C75.2480479,145.875467 74.8826747,146.262333 74.8826747,146.885616 L74.8826747,156.557258 C74.8826747,157.180542 75.2480479,157.567407 75.8283464,157.567407 C76.4086449,157.567407 76.774018,157.180542 76.774018,156.557258 L76.774018,150.152482 C76.774018,148.519049 77.6767046,147.5089 79.2026747,147.5089 C80.7501374,147.5089 81.652824,148.519049 81.652824,150.152482 L81.652824,156.557258 Z M92.3131225,151.721437 C92.3131225,154.751885 94.1184956,157.567407 97.3423762,157.567407 C100.566257,157.567407 102.37163,154.751885 102.37163,151.721437 C102.37163,148.690989 100.566257,145.875467 97.3423762,145.875467 C94.1184956,145.875467 92.3131225,148.690989 92.3131225,151.721437 L92.3131225,151.721437 Z M94.2044658,151.721437 C94.2044658,149.787109 95.0211822,147.5089 97.3423762,147.5089 C99.6635702,147.5089 100.480287,149.787109 100.480287,151.721437 C100.480287,153.655766 99.6635702,155.933975 97.3423762,155.933975 C95.0211822,155.933975 94.2044658,153.655766 94.2044658,151.721437 L94.2044658,151.721437 Z M104.370436,156.557258 C104.370436,157.180542 104.735809,157.567407 105.316108,157.567407 C105.896406,157.567407 106.261779,157.180542 106.261779,156.557258 L106.261779,150.324422 C106.261779,148.325616 107.658794,147.5089 108.905361,147.5089 C110.151928,147.5089 111.548943,148.325616 111.548943,150.324422 L111.548943,156.557258 C111.548943,157.180542 111.914317,157.567407 112.494615,157.567407 C113.074914,157.567407 113.440287,157.180542 113.440287,156.557258 L113.440287,150.21696 C113.440287,146.993079 111.226555,145.875467 109.464167,145.875467 C108.325063,145.875467 107.142973,146.305318 106.304764,147.379945 L106.261779,147.33696 L106.261779,146.885616 C106.261779,146.262333 105.896406,145.875467 105.316108,145.875467 C104.735809,145.875467 104.370436,146.262333 104.370436,146.885616 L104.370436,156.557258 Z M116.535212,146.004422 L115.761481,146.004422 C115.138197,146.004422 114.815809,146.305318 114.815809,146.821139 C114.815809,147.33696 115.138197,147.637855 115.761481,147.637855 L116.535212,147.637855 L116.535212,156.557258 C116.535212,157.180542 116.900585,157.567407 117.480884,157.567407 C118.061182,157.567407 118.426555,157.180542 118.426555,156.557258 L118.426555,147.637855 L119.200287,147.637855 C119.82357,147.637855 120.145958,147.33696 120.145958,146.821139 C120.145958,146.305318 119.82357,146.004422 119.200287,146.004422 L118.426555,146.004422 L118.426555,143.532781 C118.426555,142.909497 118.061182,142.522631 117.480884,142.522631 C116.900585,142.522631 116.535212,142.909497 116.535212,143.532781 L116.535212,146.004422 Z M128.699988,156.557258 C128.699988,157.180542 129.065361,157.567407 129.64566,157.567407 C130.225958,157.567407 130.591331,157.180542 130.591331,156.557258 L130.591331,150.21696 C130.591331,146.993079 128.3776,145.875467 126.615212,145.875467 C125.476108,145.875467 124.294018,146.305318 123.455809,147.379945 L123.412824,147.33696 L123.412824,141.856363 C123.412824,141.233079 123.047451,140.846213 122.467152,140.846213 C121.886854,140.846213 121.521481,141.233079 121.521481,141.856363 L121.521481,156.557258 C121.521481,157.180542 121.886854,157.567407 122.467152,157.567407 C123.047451,157.567407 123.412824,157.180542 123.412824,156.557258 L123.412824,150.324422 C123.412824,148.325616 124.809839,147.5089 126.056406,147.5089 C127.302973,147.5089 128.699988,148.325616 128.699988,150.324422 L128.699988,156.557258 Z" id="a-month" fill="#009FE3" transform="translate(93.828346, 149.206810) rotate(-5.000000) translate(-93.828346, -149.206810) "></path>
            </g>
        </g>
    </g>
</svg>