<?xml version="1.0" encoding="UTF-8" standalone="no"?>
<svg width="180px" height="180px" viewBox="0 0 180 180" version="1.1" xmlns="http://www.w3.org/2000/svg" xmlns:xlink="http://www.w3.org/1999/xlink">
    <!-- Generator: Sketch 39.1 (31720) - http://www.bohemiancoding.com/sketch -->
    <title>roundel-inaccessible-sunshine-one</title>
    <desc>Created with Sketch.</desc>
    <defs></defs>
    <g id="Templates" stroke="none" stroke-width="1" fill="none" fill-rule="evenodd">
        <g id="14-roundels" transform="translate(-829.000000, -4974.000000)">
            <g id="roundel-inaccessible-sunshine-one" transform="translate(829.042896, 4973.895334)">
                <path d="M179.552239,90 C179.552239,139.45791 139.45791,179.552239 90,179.552239 C40.5420896,179.552239 0.447761194,139.45791 0.447761194,90 C0.447761194,40.5420896 40.5420896,0.447761194 90,0.447761194 C139.45791,0.447761194 179.552239,40.5420896 179.552239,90 L179.552239,90 Z" id="Stroke-1" fill="#FFED00"></path>
                <path d="M59.6269032,90.2734683 L58.1492912,87.7122743 C57.2627241,86.2346624 56.8686942,84.3630206 56.8686942,82.4913788 C56.8686942,77.5660057 61.4000375,74.9063042 66.3254106,74.9063042 C76.5701867,74.9063042 76.2746644,85.2495877 82.9731718,85.2495877 C87.4060076,85.2495877 90.6567539,82.2943639 90.6567539,77.7630206 C90.6567539,68.0107818 79.5254106,60.7212295 65.7343658,60.7212295 C52.3373509,60.7212295 40.9104852,68.1092892 40.9104852,79.8316773 C40.9104852,82.5898863 42.1910823,87.8107818 43.4716793,90.2734683 L41.4030226,90.2734683 C37.2657091,90.2734683 34.3104852,92.8346624 34.3104852,97.0704833 C34.3104852,101.306304 37.2657091,103.867498 41.4030226,103.867498 L46.5254106,103.867498 C46.5254106,116.082424 37.9552614,120.318244 37.9552614,124.35705 C37.9552614,129.085409 40.8119778,132.040633 45.6388435,132.040633 L84.2537688,132.040633 C88.3910823,132.040633 91.3463061,129.479438 91.3463061,125.243618 C91.3463061,121.007797 88.3910823,118.446603 84.2537688,118.446603 L56.8686942,118.446603 C60.020933,114.112274 61.8925748,109.186901 61.8925748,103.867498 L74.6000375,103.867498 C78.7373509,103.867498 81.6925748,101.306304 81.6925748,97.0704833 C81.6925748,92.8346624 78.7373509,90.2734683 74.6000375,90.2734683 L59.6269032,90.2734683 Z M120.656754,116.574961 L120.656754,124.948095 C120.656754,130.168991 122.725411,132.631677 127.749291,132.631677 C132.773172,132.631677 134.841829,130.168991 134.841829,124.948095 L134.841829,116.574961 L136.516455,116.574961 C140.358246,116.574961 143.411978,114.013767 143.411978,110.073468 C143.411978,106.13317 140.358246,103.571976 136.516455,103.571976 L134.841829,103.571976 L134.841829,73.3301848 C134.841829,64.3660057 129.226903,60.7212295 123.51347,60.7212295 C118.391082,60.7212295 115.632873,62.4943639 113.465709,66.4346624 L91.4000375,106.428692 C90.8089927,107.413767 90.020933,108.595856 90.020933,110.763021 C90.020933,113.324215 92.0895897,116.574961 96.9164554,116.574961 L120.656754,116.574961 Z M120.656754,103.571976 L107.161232,103.571976 L120.459739,76.0883937 L120.656754,76.0883937 L120.656754,103.571976 Z" id="£4" fill="#FFFFFF" transform="translate(88.861232, 96.676453) rotate(-5.000000) translate(-88.861232, -96.676453) "></path>
                <path d="M31.6097572,45.0397894 L35.5858766,45.0397894 C36.12319,45.0397894 36.5100557,44.7603865 36.5100557,44.1585954 C36.5100557,43.5568044 36.12319,43.2774014 35.5858766,43.2774014 L31.6097572,43.2774014 L31.6097572,38.2696402 L36.1016975,38.2696402 C36.6390109,38.2696402 37.0258766,37.9902372 37.0258766,37.3884462 C37.0258766,36.7866551 36.6390109,36.5072521 36.1016975,36.5072521 L30.7285631,36.5072521 C30.0193094,36.5072521 29.7184139,36.9585954 29.7184139,37.5388939 L29.7184139,50.9287447 C29.7184139,51.5520282 30.083787,51.9388939 30.6640855,51.9388939 C31.244384,51.9388939 31.6097572,51.5520282 31.6097572,50.9287447 L31.6097572,45.0397894 Z M37.5703542,50.9287447 C37.5703542,51.5520282 37.9357273,51.9388939 38.5160258,51.9388939 C39.0963243,51.9388939 39.4616975,51.5520282 39.4616975,50.9287447 L39.4616975,45.4911327 C39.4616975,43.2774014 40.8372199,42.4391924 41.9548318,42.2457596 C42.7500557,42.0953118 43.1369214,41.7514312 43.1369214,41.2141178 C43.1369214,40.6768044 42.7500557,40.2469536 42.083787,40.2469536 C40.9876676,40.2469536 39.9345333,41.343073 39.5046825,42.224267 L39.4616975,42.224267 L39.4616975,41.2571029 C39.4616975,40.6338193 39.0963243,40.2469536 38.5160258,40.2469536 C37.9357273,40.2469536 37.5703542,40.6338193 37.5703542,41.2571029 L37.5703542,50.9287447 Z M42.9506527,46.0929238 C42.9506527,49.1233715 44.7560258,51.9388939 47.9799064,51.9388939 C51.203787,51.9388939 53.0091602,49.1233715 53.0091602,46.0929238 C53.0091602,43.062476 51.203787,40.2469536 47.9799064,40.2469536 C44.7560258,40.2469536 42.9506527,43.062476 42.9506527,46.0929238 L42.9506527,46.0929238 Z M44.841996,46.0929238 C44.841996,44.1585954 45.6587124,41.8803865 47.9799064,41.8803865 C50.3011005,41.8803865 51.1178169,44.1585954 51.1178169,46.0929238 C51.1178169,48.0272521 50.3011005,50.3054611 47.9799064,50.3054611 C45.6587124,50.3054611 44.841996,48.0272521 44.841996,46.0929238 L44.841996,46.0929238 Z M60.882593,50.9287447 C60.882593,51.5520282 61.2479661,51.9388939 61.8282646,51.9388939 C62.4085631,51.9388939 62.7739363,51.5520282 62.7739363,50.9287447 L62.7739363,44.5239685 C62.7739363,42.8905357 63.6766228,41.8803865 65.202593,41.8803865 C66.7500557,41.8803865 67.6527422,42.8905357 67.6527422,44.5239685 L67.6527422,50.9287447 C67.6527422,51.5520282 68.0181154,51.9388939 68.5984139,51.9388939 C69.1787124,51.9388939 69.5440855,51.5520282 69.5440855,50.9287447 L69.5440855,44.5884462 C69.5440855,41.3645656 67.3303542,40.2469536 65.5679661,40.2469536 C63.9130408,40.2469536 62.9028915,40.9776999 62.0646825,42.181282 C61.2049811,40.7197894 60.044384,40.2469536 58.9267721,40.2469536 C57.2073691,40.2469536 56.4981154,41.06367 56.0467721,41.6439685 L56.003787,41.6009835 L56.003787,41.2571029 C56.003787,40.6338193 55.6384139,40.2469536 55.0581154,40.2469536 C54.4778169,40.2469536 54.1124437,40.6338193 54.1124437,41.2571029 L54.1124437,50.9287447 C54.1124437,51.5520282 54.4778169,51.9388939 55.0581154,51.9388939 C55.6384139,51.9388939 56.003787,51.5520282 56.003787,50.9287447 L56.003787,44.5239685 C56.003787,42.8905357 56.9064736,41.8803865 58.4324437,41.8803865 C59.9799064,41.8803865 60.882593,42.8905357 60.882593,44.5239685 L60.882593,50.9287447 Z M77.5106527,36.2278491 C77.5106527,35.6045656 77.1452796,35.2176999 76.5649811,35.2176999 C75.9846825,35.2176999 75.6193094,35.6045656 75.6193094,36.2278491 L75.6193094,50.9287447 C75.6193094,51.5520282 75.9846825,51.9388939 76.5649811,51.9388939 C77.1452796,51.9388939 77.5106527,51.5520282 77.5106527,50.9287447 L77.5106527,36.2278491 Z M87.4258766,46.82367 C88.242593,46.82367 88.4790109,46.4797894 88.4790109,45.8135208 C88.4790109,43.062476 86.6736378,40.2469536 83.5572199,40.2469536 C80.3548318,40.2469536 78.4205034,42.9979984 78.4205034,46.0929238 C78.4205034,49.1233715 80.0109512,51.9388939 83.6646825,51.9388939 C85.8999064,51.9388939 88.242593,50.5203865 88.242593,49.5962073 C88.242593,49.0588939 87.8987124,48.7579984 87.5548318,48.7579984 C86.8455781,48.7579984 86.2008019,50.3054611 83.6861751,50.3054611 C81.5584139,50.3054611 80.3118467,48.7794909 80.3118467,46.82367 L87.4258766,46.82367 Z M80.3118467,45.4051626 C80.3763243,43.664267 81.2145333,41.7944163 83.5572199,41.8803865 C85.641996,41.8803865 86.5876676,43.7717297 86.5876676,45.4051626 L80.3118467,45.4051626 Z M89.1309512,43.4708342 C89.1309512,46.6517297 95.2348318,46.5227745 95.2348318,48.7579984 C95.2348318,49.5317297 94.3966228,50.3054611 93.0211005,50.3054611 C90.9578169,50.3054611 90.2700557,48.9084462 89.4318467,48.9084462 C89.0234885,48.9084462 88.6581154,49.2523268 88.6581154,49.7681476 C88.6581154,50.7353118 90.5494587,51.9388939 92.9566228,51.9388939 C95.084384,51.9388939 97.1261751,50.7997894 97.1261751,48.4141178 C97.1261751,45.104267 91.0222945,45.3191924 91.0222945,43.3203865 C91.0222945,42.3532223 91.9464736,41.8803865 93.0211005,41.8803865 C94.8264736,41.8803865 95.1488616,43.0409835 95.9655781,43.0409835 C96.5458766,43.0409835 96.8252796,42.6756103 96.8252796,42.2672521 C96.8252796,41.0851626 94.5900557,40.2469536 93.0211005,40.2469536 C91.1082646,40.2469536 89.1309512,41.3645656 89.1309512,43.4708342 L89.1309512,43.4708342 Z M97.7781154,43.4708342 C97.7781154,46.6517297 103.881996,46.5227745 103.881996,48.7579984 C103.881996,49.5317297 103.043787,50.3054611 101.668265,50.3054611 C99.6049811,50.3054611 98.9172199,48.9084462 98.0790109,48.9084462 C97.6706527,48.9084462 97.3052796,49.2523268 97.3052796,49.7681476 C97.3052796,50.7353118 99.1966228,51.9388939 101.603787,51.9388939 C103.731548,51.9388939 105.773339,50.7997894 105.773339,48.4141178 C105.773339,45.104267 99.6694587,45.3191924 99.6694587,43.3203865 C99.6694587,42.3532223 100.593638,41.8803865 101.668265,41.8803865 C103.473638,41.8803865 103.796026,43.0409835 104.612742,43.0409835 C105.193041,43.0409835 105.472444,42.6756103 105.472444,42.2672521 C105.472444,41.0851626 103.23722,40.2469536 101.668265,40.2469536 C99.7554288,40.2469536 97.7781154,41.3645656 97.7781154,43.4708342 L97.7781154,43.4708342 Z M111.762593,40.3759088 L110.988862,40.3759088 C110.365578,40.3759088 110.04319,40.6768044 110.04319,41.1926253 C110.04319,41.7084462 110.365578,42.0093417 110.988862,42.0093417 L111.762593,42.0093417 L111.762593,50.9287447 C111.762593,51.5520282 112.127966,51.9388939 112.708265,51.9388939 C113.288563,51.9388939 113.653936,51.5520282 113.653936,50.9287447 L113.653936,42.0093417 L114.427668,42.0093417 C115.050951,42.0093417 115.373339,41.7084462 115.373339,41.1926253 C115.373339,40.6768044 115.050951,40.3759088 114.427668,40.3759088 L113.653936,40.3759088 L113.653936,37.904267 C113.653936,37.2809835 113.288563,36.8941178 112.708265,36.8941178 C112.127966,36.8941178 111.762593,37.2809835 111.762593,37.904267 L111.762593,40.3759088 Z M123.031847,50.9287447 C123.031847,51.5520282 123.39722,51.9388939 123.977518,51.9388939 C124.557817,51.9388939 124.92319,51.5520282 124.92319,50.9287447 L124.92319,44.5884462 C124.92319,41.3645656 122.709459,40.2469536 120.947071,40.2469536 C119.807966,40.2469536 118.625877,40.6768044 117.787668,41.7514312 L117.744683,41.7084462 L117.744683,36.2278491 C117.744683,35.6045656 117.379309,35.2176999 116.799011,35.2176999 C116.218712,35.2176999 115.853339,35.6045656 115.853339,36.2278491 L115.853339,50.9287447 C115.853339,51.5520282 116.218712,51.9388939 116.799011,51.9388939 C117.379309,51.9388939 117.744683,51.5520282 117.744683,50.9287447 L117.744683,44.6959088 C117.744683,42.6971029 119.141697,41.8803865 120.388265,41.8803865 C121.634832,41.8803865 123.031847,42.6971029 123.031847,44.6959088 L123.031847,50.9287447 Z M135.977518,41.1711327 C135.977518,40.5048641 135.461697,40.2469536 135.096324,40.2469536 C134.709459,40.2469536 134.21513,40.5048641 134.21513,41.1711327 L134.21513,41.7729238 L134.172145,41.7729238 C133.290951,40.8057596 132.366772,40.2469536 131.055727,40.2469536 C127.831847,40.2469536 126.026474,43.062476 126.026474,46.0929238 C126.026474,49.1233715 127.831847,51.9388939 131.055727,51.9388939 C132.280802,51.9388939 133.355429,51.3800879 134.172145,50.2194909 L134.21513,50.2194909 L134.21513,51.0147148 C134.21513,51.6809835 134.709459,51.9388939 135.096324,51.9388939 C135.461697,51.9388939 135.977518,51.6809835 135.977518,51.0147148 L135.977518,41.1711327 Z M127.917817,46.0929238 C127.917817,44.1585954 128.734533,41.8803865 131.055727,41.8803865 C133.376921,41.8803865 134.193638,44.1585954 134.193638,46.0929238 C134.193638,48.0272521 133.376921,50.3054611 131.055727,50.3054611 C128.734533,50.3054611 127.917817,48.0272521 127.917817,46.0929238 L127.917817,46.0929238 Z M137.57513,50.9287447 C137.57513,51.5520282 137.940503,51.9388939 138.520802,51.9388939 C139.1011,51.9388939 139.466474,51.5520282 139.466474,50.9287447 L139.466474,44.6959088 C139.466474,42.6971029 140.863489,41.8803865 142.110056,41.8803865 C143.356623,41.8803865 144.753638,42.6971029 144.753638,44.6959088 L144.753638,50.9287447 C144.753638,51.5520282 145.119011,51.9388939 145.699309,51.9388939 C146.279608,51.9388939 146.644981,51.5520282 146.644981,50.9287447 L146.644981,44.5884462 C146.644981,41.3645656 144.43125,40.2469536 142.668862,40.2469536 C141.529757,40.2469536 140.347668,40.6768044 139.509459,41.7514312 L139.466474,41.7084462 L139.466474,41.2571029 C139.466474,40.6338193 139.1011,40.2469536 138.520802,40.2469536 C137.940503,40.2469536 137.57513,40.6338193 137.57513,41.2571029 L137.57513,50.9287447 Z" id="From-less-than" fill="#FFFFFF" transform="translate(88.181697, 43.578297) rotate(-5.000000) translate(-88.181697, -43.578297) "></path>
                <path d="M66.1208837,146.799646 C66.1208837,146.133378 65.6050628,145.875467 65.2396896,145.875467 C64.852824,145.875467 64.3584956,146.133378 64.3584956,146.799646 L64.3584956,147.401437 L64.3155105,147.401437 C63.4343165,146.434273 62.5101374,145.875467 61.1990926,145.875467 C57.975212,145.875467 56.1698389,148.690989 56.1698389,151.721437 C56.1698389,154.751885 57.975212,157.567407 61.1990926,157.567407 C62.4241673,157.567407 63.4987941,157.008601 64.3155105,155.848004 L64.3584956,155.848004 L64.3584956,156.643228 C64.3584956,157.309497 64.852824,157.567407 65.2396896,157.567407 C65.6050628,157.567407 66.1208837,157.309497 66.1208837,156.643228 L66.1208837,146.799646 Z M58.0611822,151.721437 C58.0611822,149.787109 58.8778986,147.5089 61.1990926,147.5089 C63.5202867,147.5089 64.3370031,149.787109 64.3370031,151.721437 C64.3370031,153.655766 63.5202867,155.933975 61.1990926,155.933975 C58.8778986,155.933975 58.0611822,153.655766 58.0611822,151.721437 L58.0611822,151.721437 Z M80.7573016,156.557258 C80.7573016,157.180542 81.1226747,157.567407 81.7029732,157.567407 C82.2832717,157.567407 82.6486449,157.180542 82.6486449,156.557258 L82.6486449,150.152482 C82.6486449,148.519049 83.5513314,147.5089 85.0773016,147.5089 C86.6247643,147.5089 87.5274508,148.519049 87.5274508,150.152482 L87.5274508,156.557258 C87.5274508,157.180542 87.892824,157.567407 88.4731225,157.567407 C89.053421,157.567407 89.4187941,157.180542 89.4187941,156.557258 L89.4187941,150.21696 C89.4187941,146.993079 87.2050628,145.875467 85.4426747,145.875467 C83.7877493,145.875467 82.7776001,146.606213 81.9393911,147.809795 C81.0796896,146.348303 79.9190926,145.875467 78.8014807,145.875467 C77.0820777,145.875467 76.372824,146.692184 75.9214807,147.272482 L75.8784956,147.229497 L75.8784956,146.885616 C75.8784956,146.262333 75.5131225,145.875467 74.932824,145.875467 C74.3525255,145.875467 73.9871523,146.262333 73.9871523,146.885616 L73.9871523,156.557258 C73.9871523,157.180542 74.3525255,157.567407 74.932824,157.567407 C75.5131225,157.567407 75.8784956,157.180542 75.8784956,156.557258 L75.8784956,150.152482 C75.8784956,148.519049 76.7811822,147.5089 78.3071523,147.5089 C79.854615,147.5089 80.7573016,148.519049 80.7573016,150.152482 L80.7573016,156.557258 Z M91.4176001,151.721437 C91.4176001,154.751885 93.2229732,157.567407 96.4468538,157.567407 C99.6707344,157.567407 101.476108,154.751885 101.476108,151.721437 C101.476108,148.690989 99.6707344,145.875467 96.4468538,145.875467 C93.2229732,145.875467 91.4176001,148.690989 91.4176001,151.721437 L91.4176001,151.721437 Z M93.3089434,151.721437 C93.3089434,149.787109 94.1256598,147.5089 96.4468538,147.5089 C98.7680479,147.5089 99.5847643,149.787109 99.5847643,151.721437 C99.5847643,153.655766 98.7680479,155.933975 96.4468538,155.933975 C94.1256598,155.933975 93.3089434,153.655766 93.3089434,151.721437 L93.3089434,151.721437 Z M103.474914,156.557258 C103.474914,157.180542 103.840287,157.567407 104.420585,157.567407 C105.000884,157.567407 105.366257,157.180542 105.366257,156.557258 L105.366257,150.324422 C105.366257,148.325616 106.763272,147.5089 108.009839,147.5089 C109.256406,147.5089 110.653421,148.325616 110.653421,150.324422 L110.653421,156.557258 C110.653421,157.180542 111.018794,157.567407 111.599093,157.567407 C112.179391,157.567407 112.544764,157.180542 112.544764,156.557258 L112.544764,150.21696 C112.544764,146.993079 110.331033,145.875467 108.568645,145.875467 C107.42954,145.875467 106.247451,146.305318 105.409242,147.379945 L105.366257,147.33696 L105.366257,146.885616 C105.366257,146.262333 105.000884,145.875467 104.420585,145.875467 C103.840287,145.875467 103.474914,146.262333 103.474914,146.885616 L103.474914,156.557258 Z M115.63969,146.004422 L114.865958,146.004422 C114.242675,146.004422 113.920287,146.305318 113.920287,146.821139 C113.920287,147.33696 114.242675,147.637855 114.865958,147.637855 L115.63969,147.637855 L115.63969,156.557258 C115.63969,157.180542 116.005063,157.567407 116.585361,157.567407 C117.16566,157.567407 117.531033,157.180542 117.531033,156.557258 L117.531033,147.637855 L118.304764,147.637855 C118.928048,147.637855 119.250436,147.33696 119.250436,146.821139 C119.250436,146.305318 118.928048,146.004422 118.304764,146.004422 L117.531033,146.004422 L117.531033,143.532781 C117.531033,142.909497 117.16566,142.522631 116.585361,142.522631 C116.005063,142.522631 115.63969,142.909497 115.63969,143.532781 L115.63969,146.004422 Z M127.804466,156.557258 C127.804466,157.180542 128.169839,157.567407 128.750137,157.567407 C129.330436,157.567407 129.695809,157.180542 129.695809,156.557258 L129.695809,150.21696 C129.695809,146.993079 127.482078,145.875467 125.71969,145.875467 C124.580585,145.875467 123.398496,146.305318 122.560287,147.379945 L122.517302,147.33696 L122.517302,141.856363 C122.517302,141.233079 122.151928,140.846213 121.57163,140.846213 C120.991331,140.846213 120.625958,141.233079 120.625958,141.856363 L120.625958,156.557258 C120.625958,157.180542 120.991331,157.567407 121.57163,157.567407 C122.151928,157.567407 122.517302,157.180542 122.517302,156.557258 L122.517302,150.324422 C122.517302,148.325616 123.914317,147.5089 125.160884,147.5089 C126.407451,147.5089 127.804466,148.325616 127.804466,150.324422 L127.804466,156.557258 Z" id="a-month" fill="#FFFFFF" transform="translate(92.932824, 149.206810) rotate(-5.000000) translate(-92.932824, -149.206810) "></path>
            </g>
        </g>
    </g>
</svg>