<?xml version="1.0" encoding="UTF-8" standalone="no"?>
<svg width="180px" height="180px" viewBox="0 0 180 180" version="1.1" xmlns="http://www.w3.org/2000/svg" xmlns:xlink="http://www.w3.org/1999/xlink">
    <!-- Generator: Sketch 39.1 (31720) - http://www.bohemiancoding.com/sketch -->
    <title>roundel-inaccessible-midnight-one</title>
    <desc>Created with Sketch.</desc>
    <defs></defs>
    <g id="Templates" stroke="none" stroke-width="1" fill="none" fill-rule="evenodd">
        <g id="14-roundels" transform="translate(-1029.000000, -4974.000000)">
            <g id="roundel-inaccessible-midnight-one" transform="translate(1029.085792, 4973.895334)">
                <path d="M179.552239,90.0193032 C179.552239,139.487821 139.45791,179.590749 90,179.590749 C40.5420896,179.590749 0.447761194,139.487821 0.447761194,90.0193032 C0.447761194,40.550785 40.5420896,0.44785723 90,0.44785723 C139.45791,0.44785723 179.552239,40.550785 179.552239,90.0193032 L179.552239,90.0193032 Z" id="Stroke-1" fill="#1D3661"></path>
                <path d="M60.5224255,90.2928302 L59.0448136,87.7310868 C58.1582464,86.253158 57.7642166,84.3811148 57.7642166,82.5090715 C57.7642166,77.582642 62.2955599,74.9223701 67.220933,74.9223701 C77.4657091,74.9223701 77.1701867,85.2678721 83.8686942,85.2678721 C88.30153,85.2678721 91.5522763,82.3120144 91.5522763,77.7796992 C91.5522763,68.0253687 80.420933,60.734253 66.6298882,60.734253 C53.2328733,60.734253 41.8060076,68.1238973 41.8060076,79.8487996 C41.8060076,82.6076001 43.0866047,87.8296154 44.3672017,90.2928302 L42.298545,90.2928302 C38.1612315,90.2928302 35.2060076,92.8545735 35.2060076,97.0913029 C35.2060076,101.328032 38.1612315,103.889776 42.298545,103.889776 L47.420933,103.889776 C47.420933,116.107321 38.8507838,120.34405 38.8507838,124.383723 C38.8507838,129.113095 41.7075002,132.068953 46.5343658,132.068953 L85.1492912,132.068953 C89.2866047,132.068953 92.2418285,129.507209 92.2418285,125.27048 C92.2418285,121.03375 89.2866047,118.472007 85.1492912,118.472007 L57.7642166,118.472007 C60.9164554,114.136749 62.7880972,109.21032 62.7880972,103.889776 L75.4955599,103.889776 C79.6328733,103.889776 82.5880972,101.328032 82.5880972,97.0913029 C82.5880972,92.8545735 79.6328733,90.2928302 75.4955599,90.2928302 L60.5224255,90.2928302 Z M121.552276,116.599964 L121.552276,124.974894 C121.552276,130.196909 123.620933,132.660124 128.644814,132.660124 C133.668694,132.660124 135.737351,130.196909 135.737351,124.974894 L135.737351,116.599964 L137.411978,116.599964 C141.253769,116.599964 144.3075,114.038221 144.3075,110.097077 C144.3075,106.155933 141.253769,103.59419 137.411978,103.59419 L135.737351,103.59419 L135.737351,73.3459126 C135.737351,64.3798109 130.122426,60.734253 124.408993,60.734253 C119.286605,60.734253 116.528396,62.5077677 114.361232,66.4489113 L92.2955599,106.451519 C91.7045151,107.436805 90.9164554,108.619148 90.9164554,110.786777 C90.9164554,113.34852 92.9851121,116.599964 97.8119778,116.599964 L121.552276,116.599964 Z M121.552276,103.59419 L108.056754,103.59419 L121.355261,76.1047131 L121.552276,76.1047131 L121.552276,103.59419 Z" id="£4" fill="#575756" transform="translate(89.756754, 96.697189) rotate(-5.000000) translate(-89.756754, -96.697189) "></path>
                <path d="M32.5052796,45.0494496 L36.481399,45.0494496 C37.0187124,45.0494496 37.4055781,44.7699867 37.4055781,44.1680665 C37.4055781,43.5661464 37.0187124,43.2866835 36.481399,43.2866835 L32.5052796,43.2866835 L32.5052796,38.2778483 L36.9972199,38.2778483 C37.5345333,38.2778483 37.921399,37.9983853 37.921399,37.3964652 C37.921399,36.7945451 37.5345333,36.5150822 36.9972199,36.5150822 L31.6240855,36.5150822 C30.9148318,36.5150822 30.6139363,36.9665223 30.6139363,37.5469453 L30.6139363,50.9396679 C30.6139363,51.5630851 30.9793094,51.9500338 31.5596079,51.9500338 C32.1399064,51.9500338 32.5052796,51.5630851 32.5052796,50.9396679 L32.5052796,45.0494496 Z M38.4658766,50.9396679 C38.4658766,51.5630851 38.8312497,51.9500338 39.4115482,51.9500338 C39.9918467,51.9500338 40.3572199,51.5630851 40.3572199,50.9396679 L40.3572199,45.5008897 C40.3572199,43.2866835 41.7327422,42.4482948 42.8503542,42.2548205 C43.6455781,42.1043404 44.0324437,41.7603861 44.0324437,41.2229574 C44.0324437,40.6855287 43.6455781,40.2555858 42.9793094,40.2555858 C41.88319,40.2555858 40.8300557,41.3519403 40.4002049,42.2333233 L40.3572199,42.2333233 L40.3572199,41.2659517 C40.3572199,40.6425344 39.9918467,40.2555858 39.4115482,40.2555858 C38.8312497,40.2555858 38.4658766,40.6425344 38.4658766,41.2659517 L38.4658766,50.9396679 Z M43.8461751,46.1028098 C43.8461751,49.1339075 45.6515482,51.9500338 48.8754288,51.9500338 C52.0993094,51.9500338 53.9046825,49.1339075 53.9046825,46.1028098 C53.9046825,43.071712 52.0993094,40.2555858 48.8754288,40.2555858 C45.6515482,40.2555858 43.8461751,43.071712 43.8461751,46.1028098 L43.8461751,46.1028098 Z M45.7375184,46.1028098 C45.7375184,44.1680665 46.5542348,41.889369 48.8754288,41.889369 C51.1966228,41.889369 52.0133393,44.1680665 52.0133393,46.1028098 C52.0133393,48.037553 51.1966228,50.3162506 48.8754288,50.3162506 C46.5542348,50.3162506 45.7375184,48.037553 45.7375184,46.1028098 L45.7375184,46.1028098 Z M61.7781154,50.9396679 C61.7781154,51.5630851 62.1434885,51.9500338 62.723787,51.9500338 C63.3040855,51.9500338 63.6694587,51.5630851 63.6694587,50.9396679 L63.6694587,44.533518 C63.6694587,42.8997349 64.5721452,41.889369 66.0981154,41.889369 C67.6455781,41.889369 68.5482646,42.8997349 68.5482646,44.533518 L68.5482646,50.9396679 C68.5482646,51.5630851 68.9136378,51.9500338 69.4939363,51.9500338 C70.0742348,51.9500338 70.4396079,51.5630851 70.4396079,50.9396679 L70.4396079,44.5980095 C70.4396079,41.3734374 68.2258766,40.2555858 66.4634885,40.2555858 C64.8085631,40.2555858 63.7984139,40.9864888 62.9602049,42.190329 C62.1005034,40.728523 60.9399064,40.2555858 59.8222945,40.2555858 C58.1028915,40.2555858 57.3936378,41.0724774 56.9422945,41.6529003 L56.8993094,41.609906 L56.8993094,41.2659517 C56.8993094,40.6425344 56.5339363,40.2555858 55.9536378,40.2555858 C55.3733393,40.2555858 55.0079661,40.6425344 55.0079661,41.2659517 L55.0079661,50.9396679 C55.0079661,51.5630851 55.3733393,51.9500338 55.9536378,51.9500338 C56.5339363,51.9500338 56.8993094,51.5630851 56.8993094,50.9396679 L56.8993094,44.533518 C56.8993094,42.8997349 57.801996,41.889369 59.3279661,41.889369 C60.8754288,41.889369 61.7781154,42.8997349 61.7781154,44.533518 L61.7781154,50.9396679 Z M78.4061751,36.2356193 C78.4061751,35.612202 78.0408019,35.2252534 77.4605034,35.2252534 C76.8802049,35.2252534 76.5148318,35.612202 76.5148318,36.2356193 L76.5148318,50.9396679 C76.5148318,51.5630851 76.8802049,51.9500338 77.4605034,51.9500338 C78.0408019,51.9500338 78.4061751,51.5630851 78.4061751,50.9396679 L78.4061751,36.2356193 Z M88.321399,46.8337128 C89.1381154,46.8337128 89.3745333,46.4897584 89.3745333,45.8233469 C89.3745333,43.071712 87.5691602,40.2555858 84.4527422,40.2555858 C81.2503542,40.2555858 79.3160258,43.0072206 79.3160258,46.1028098 C79.3160258,49.1339075 80.9064736,51.9500338 84.5602049,51.9500338 C86.7954288,51.9500338 89.1381154,50.5312221 89.1381154,49.6068447 C89.1381154,49.0694161 88.7942348,48.768456 88.4503542,48.768456 C87.7411005,48.768456 87.0963243,50.3162506 84.5816975,50.3162506 C82.4539363,50.3162506 81.2073691,48.7899531 81.2073691,46.8337128 L88.321399,46.8337128 Z M81.2073691,45.4149011 C81.2718467,43.6736322 82.1100557,41.8033804 84.4527422,41.889369 C86.5375184,41.889369 87.48319,43.7811179 87.48319,45.4149011 L81.2073691,45.4149011 Z M90.0264736,43.4801578 C90.0264736,46.6617356 96.1303542,46.5327527 96.1303542,48.768456 C96.1303542,49.5423533 95.2921452,50.3162506 93.9166228,50.3162506 C91.8533393,50.3162506 91.1655781,48.918936 90.3273691,48.918936 C89.9190109,48.918936 89.5536378,49.2628904 89.5536378,49.7788219 C89.5536378,50.7461935 91.4449811,51.9500338 93.8521452,51.9500338 C95.9799064,51.9500338 98.0216975,50.810685 98.0216975,48.4245017 C98.0216975,45.113941 91.9178169,45.3289125 91.9178169,43.3296778 C91.9178169,42.3623062 92.841996,41.889369 93.9166228,41.889369 C95.721996,41.889369 96.044384,43.0502149 96.8611005,43.0502149 C97.441399,43.0502149 97.7208019,42.6847634 97.7208019,42.2763176 C97.7208019,41.0939745 95.4855781,40.2555858 93.9166228,40.2555858 C92.003787,40.2555858 90.0264736,41.3734374 90.0264736,43.4801578 L90.0264736,43.4801578 Z M98.6736378,43.4801578 C98.6736378,46.6617356 104.777518,46.5327527 104.777518,48.768456 C104.777518,49.5423533 103.939309,50.3162506 102.563787,50.3162506 C100.500503,50.3162506 99.8127422,48.918936 98.9745333,48.918936 C98.5661751,48.918936 98.2008019,49.2628904 98.2008019,49.7788219 C98.2008019,50.7461935 100.092145,51.9500338 102.499309,51.9500338 C104.627071,51.9500338 106.668862,50.810685 106.668862,48.4245017 C106.668862,45.113941 100.564981,45.3289125 100.564981,43.3296778 C100.564981,42.3623062 101.48916,41.889369 102.563787,41.889369 C104.36916,41.889369 104.691548,43.0502149 105.508265,43.0502149 C106.088563,43.0502149 106.367966,42.6847634 106.367966,42.2763176 C106.367966,41.0939745 104.132742,40.2555858 102.563787,40.2555858 C100.650951,40.2555858 98.6736378,41.3734374 98.6736378,43.4801578 L98.6736378,43.4801578 Z M112.658115,40.3845687 L111.884384,40.3845687 C111.2611,40.3845687 110.938712,40.6855287 110.938712,41.2014602 C110.938712,41.7173918 111.2611,42.0183518 111.884384,42.0183518 L112.658115,42.0183518 L112.658115,50.9396679 C112.658115,51.5630851 113.023489,51.9500338 113.603787,51.9500338 C114.184086,51.9500338 114.549459,51.5630851 114.549459,50.9396679 L114.549459,42.0183518 L115.32319,42.0183518 C115.946474,42.0183518 116.268862,41.7173918 116.268862,41.2014602 C116.268862,40.6855287 115.946474,40.3845687 115.32319,40.3845687 L114.549459,40.3845687 L114.549459,37.9123968 C114.549459,37.2889795 114.184086,36.9020308 113.603787,36.9020308 C113.023489,36.9020308 112.658115,37.2889795 112.658115,37.9123968 L112.658115,40.3845687 Z M123.927369,50.9396679 C123.927369,51.5630851 124.292742,51.9500338 124.873041,51.9500338 C125.453339,51.9500338 125.818712,51.5630851 125.818712,50.9396679 L125.818712,44.5980095 C125.818712,41.3734374 123.604981,40.2555858 121.842593,40.2555858 C120.703489,40.2555858 119.521399,40.6855287 118.68319,41.7603861 L118.640205,41.7173918 L118.640205,36.2356193 C118.640205,35.612202 118.274832,35.2252534 117.694533,35.2252534 C117.114235,35.2252534 116.748862,35.612202 116.748862,36.2356193 L116.748862,50.9396679 C116.748862,51.5630851 117.114235,51.9500338 117.694533,51.9500338 C118.274832,51.9500338 118.640205,51.5630851 118.640205,50.9396679 L118.640205,44.7054952 C118.640205,42.7062605 120.03722,41.889369 121.283787,41.889369 C122.530354,41.889369 123.927369,42.7062605 123.927369,44.7054952 L123.927369,50.9396679 Z M136.873041,41.1799631 C136.873041,40.5135515 136.35722,40.2555858 135.991847,40.2555858 C135.604981,40.2555858 135.110653,40.5135515 135.110653,41.1799631 L135.110653,41.7818832 L135.067668,41.7818832 C134.186474,40.8145116 133.262294,40.2555858 131.95125,40.2555858 C128.727369,40.2555858 126.921996,43.071712 126.921996,46.1028098 C126.921996,49.1339075 128.727369,51.9500338 131.95125,51.9500338 C133.176324,51.9500338 134.250951,51.3911079 135.067668,50.230262 L135.110653,50.230262 L135.110653,51.0256564 C135.110653,51.692068 135.604981,51.9500338 135.991847,51.9500338 C136.35722,51.9500338 136.873041,51.692068 136.873041,51.0256564 L136.873041,41.1799631 Z M128.813339,46.1028098 C128.813339,44.1680665 129.630056,41.889369 131.95125,41.889369 C134.272444,41.889369 135.08916,44.1680665 135.08916,46.1028098 C135.08916,48.037553 134.272444,50.3162506 131.95125,50.3162506 C129.630056,50.3162506 128.813339,48.037553 128.813339,46.1028098 L128.813339,46.1028098 Z M138.470653,50.9396679 C138.470653,51.5630851 138.836026,51.9500338 139.416324,51.9500338 C139.996623,51.9500338 140.361996,51.5630851 140.361996,50.9396679 L140.361996,44.7054952 C140.361996,42.7062605 141.759011,41.889369 143.005578,41.889369 C144.252145,41.889369 145.64916,42.7062605 145.64916,44.7054952 L145.64916,50.9396679 C145.64916,51.5630851 146.014533,51.9500338 146.594832,51.9500338 C147.17513,51.9500338 147.540503,51.5630851 147.540503,50.9396679 L147.540503,44.5980095 C147.540503,41.3734374 145.326772,40.2555858 143.564384,40.2555858 C142.42528,40.2555858 141.24319,40.6855287 140.404981,41.7603861 L140.361996,41.7173918 L140.361996,41.2659517 C140.361996,40.6425344 139.996623,40.2555858 139.416324,40.2555858 C138.836026,40.2555858 138.470653,40.6425344 138.470653,41.2659517 L138.470653,50.9396679 Z" id="From-less-than" fill="#575756" transform="translate(89.077220, 43.587644) rotate(-5.000000) translate(-89.077220, -43.587644) "></path>
                <path d="M67.0164061,146.831132 C67.0164061,146.16472 66.5005852,145.906754 66.135212,145.906754 C65.7483464,145.906754 65.254018,146.16472 65.254018,146.831132 L65.254018,147.433052 L65.2110329,147.433052 C64.3298389,146.46568 63.4056598,145.906754 62.094615,145.906754 C58.8707344,145.906754 57.0653613,148.722881 57.0653613,151.753978 C57.0653613,154.785076 58.8707344,157.601202 62.094615,157.601202 C63.3196896,157.601202 64.3943165,157.042277 65.2110329,155.881431 L65.254018,155.881431 L65.254018,156.676825 C65.254018,157.343237 65.7483464,157.601202 66.135212,157.601202 C66.5005852,157.601202 67.0164061,157.343237 67.0164061,156.676825 L67.0164061,146.831132 Z M58.9567046,151.753978 C58.9567046,149.819235 59.773421,147.540538 62.094615,147.540538 C64.415809,147.540538 65.2325255,149.819235 65.2325255,151.753978 C65.2325255,153.688722 64.415809,155.967419 62.094615,155.967419 C59.773421,155.967419 58.9567046,153.688722 58.9567046,151.753978 L58.9567046,151.753978 Z M81.652824,156.590837 C81.652824,157.214254 82.0181971,157.601202 82.5984956,157.601202 C83.1787941,157.601202 83.5441673,157.214254 83.5441673,156.590837 L83.5441673,150.184687 C83.5441673,148.550904 84.4468538,147.540538 85.972824,147.540538 C87.5202867,147.540538 88.4229732,148.550904 88.4229732,150.184687 L88.4229732,156.590837 C88.4229732,157.214254 88.7883464,157.601202 89.3686449,157.601202 C89.9489434,157.601202 90.3143165,157.214254 90.3143165,156.590837 L90.3143165,150.249178 C90.3143165,147.024606 88.1005852,145.906754 86.3381971,145.906754 C84.6832717,145.906754 83.6731225,146.637657 82.8349135,147.841498 C81.975212,146.379692 80.814615,145.906754 79.6970031,145.906754 C77.9776001,145.906754 77.2683464,146.723646 76.8170031,147.304069 L76.774018,147.261075 L76.774018,146.91712 C76.774018,146.293703 76.4086449,145.906754 75.8283464,145.906754 C75.2480479,145.906754 74.8826747,146.293703 74.8826747,146.91712 L74.8826747,156.590837 C74.8826747,157.214254 75.2480479,157.601202 75.8283464,157.601202 C76.4086449,157.601202 76.774018,157.214254 76.774018,156.590837 L76.774018,150.184687 C76.774018,148.550904 77.6767046,147.540538 79.2026747,147.540538 C80.7501374,147.540538 81.652824,148.550904 81.652824,150.184687 L81.652824,156.590837 Z M92.3131225,151.753978 C92.3131225,154.785076 94.1184956,157.601202 97.3423762,157.601202 C100.566257,157.601202 102.37163,154.785076 102.37163,151.753978 C102.37163,148.722881 100.566257,145.906754 97.3423762,145.906754 C94.1184956,145.906754 92.3131225,148.722881 92.3131225,151.753978 L92.3131225,151.753978 Z M94.2044658,151.753978 C94.2044658,149.819235 95.0211822,147.540538 97.3423762,147.540538 C99.6635702,147.540538 100.480287,149.819235 100.480287,151.753978 C100.480287,153.688722 99.6635702,155.967419 97.3423762,155.967419 C95.0211822,155.967419 94.2044658,153.688722 94.2044658,151.753978 L94.2044658,151.753978 Z M104.370436,156.590837 C104.370436,157.214254 104.735809,157.601202 105.316108,157.601202 C105.896406,157.601202 106.261779,157.214254 106.261779,156.590837 L106.261779,150.356664 C106.261779,148.357429 107.658794,147.540538 108.905361,147.540538 C110.151928,147.540538 111.548943,148.357429 111.548943,150.356664 L111.548943,156.590837 C111.548943,157.214254 111.914317,157.601202 112.494615,157.601202 C113.074914,157.601202 113.440287,157.214254 113.440287,156.590837 L113.440287,150.249178 C113.440287,147.024606 111.226555,145.906754 109.464167,145.906754 C108.325063,145.906754 107.142973,146.336697 106.304764,147.411555 L106.261779,147.36856 L106.261779,146.91712 C106.261779,146.293703 105.896406,145.906754 105.316108,145.906754 C104.735809,145.906754 104.370436,146.293703 104.370436,146.91712 L104.370436,156.590837 Z M116.535212,146.035737 L115.761481,146.035737 C115.138197,146.035737 114.815809,146.336697 114.815809,146.852629 C114.815809,147.36856 115.138197,147.669521 115.761481,147.669521 L116.535212,147.669521 L116.535212,156.590837 C116.535212,157.214254 116.900585,157.601202 117.480884,157.601202 C118.061182,157.601202 118.426555,157.214254 118.426555,156.590837 L118.426555,147.669521 L119.200287,147.669521 C119.82357,147.669521 120.145958,147.36856 120.145958,146.852629 C120.145958,146.336697 119.82357,146.035737 119.200287,146.035737 L118.426555,146.035737 L118.426555,143.563565 C118.426555,142.940148 118.061182,142.5532 117.480884,142.5532 C116.900585,142.5532 116.535212,142.940148 116.535212,143.563565 L116.535212,146.035737 Z M128.699988,156.590837 C128.699988,157.214254 129.065361,157.601202 129.64566,157.601202 C130.225958,157.601202 130.591331,157.214254 130.591331,156.590837 L130.591331,150.249178 C130.591331,147.024606 128.3776,145.906754 126.615212,145.906754 C125.476108,145.906754 124.294018,146.336697 123.455809,147.411555 L123.412824,147.36856 L123.412824,141.886788 C123.412824,141.263371 123.047451,140.876422 122.467152,140.876422 C121.886854,140.876422 121.521481,141.263371 121.521481,141.886788 L121.521481,156.590837 C121.521481,157.214254 121.886854,157.601202 122.467152,157.601202 C123.047451,157.601202 123.412824,157.214254 123.412824,156.590837 L123.412824,150.356664 C123.412824,148.357429 124.809839,147.540538 126.056406,147.540538 C127.302973,147.540538 128.699988,148.357429 128.699988,150.356664 L128.699988,156.590837 Z" id="a-month" fill="#575756" transform="translate(93.828346, 149.238812) rotate(-5.000000) translate(-93.828346, -149.238812) "></path>
            </g>
        </g>
    </g>
</svg>