<?xml version="1.0" encoding="UTF-8" standalone="no"?>
<svg width="490px" height="277px" viewBox="0 0 490 277" version="1.1" xmlns="http://www.w3.org/2000/svg" xmlns:xlink="http://www.w3.org/1999/xlink">
    <!-- Generator: Sketch 39.1 (31720) - http://www.bohemiancoding.com/sketch -->
    <title>05-anatomy-sunlife-logo</title>
    <desc>Created with Sketch.</desc>
    <defs></defs>
    <g id="Templates" stroke="none" stroke-width="1" fill="none" fill-rule="evenodd">
        <g id="5-logo" transform="translate(-230.000000, -860.000000)">
            <g id="05-anatomy-sunlife-logo" transform="translate(230.000000, 860.000000)">
                <g id="Group-4">
                    <path d="M0.8,219.3 C5.8,222.8 13,225 20.7,225 C34.2,225 44.2,217.8 44.2,206.1 C44.2,185.2 15.7,186.8 15.7,174.7 C15.7,169.4 20.1,167.6 24.7,167.6 C29.9,167.6 35.2,169.1 40.4,171.8 L40.4,160.8 C36.8,159 31.1,157.5 24.3,157.5 C10.6,157.5 2.9,166 2.9,175.7 C2.9,195.8 31.4,194.2 31.4,207.1 C31.4,212.8 25.9,214.9 20.4,214.9 C14.4,214.9 9.4,212.8 5.5,210.1 L0.8,219.3 Z M69.6,225 C75.8,225 80.7,222.3 84.3,219.1 L86.1,224 L96.3,224 C95.6,221.5 95.5,217.4 95.5,212.3 L95.5,176.7 L83.5,176.7 L83.5,210.6 C81.4,212.9 77.7,214.8 73.8,214.8 C70.2,214.8 67.9,213.3 66.7,210.5 C66,209 65.7,207.1 65.7,204.6 L65.7,176.7 L53.8,176.7 L53.8,205.8 C53.8,210.2 54.3,213.1 55.4,215.7 C58.3,223.1 65,225 69.6,225 L69.6,225 Z M106.3,224 L118.2,224 L118.2,190.9 C121.7,188 125.9,185.9 129.8,185.9 C135.9,185.9 137.1,190.6 137.1,196.4 L137.1,224 L149.1,224 L149.1,192.7 C149.1,179.2 141.4,175.5 133.9,175.5 C128,175.5 122.7,178.1 117.7,182 L116.5,176.7 L106.3,176.7 L106.3,224 Z M161.5,224 L196.9,224 L196.9,214.2 L173.5,214.2 L173.5,158.1 L161.5,158.1 L161.5,224 Z M203.6,224 L215.6,224 L215.6,176.7 L203.6,176.7 L203.6,224 Z M209.6,169 C213.8,169 217,165.8 217,161.9 C217,157.8 213.8,154.7 209.6,154.7 C205.4,154.7 202.3,157.9 202.3,161.9 C202.3,165.9 205.4,169 209.6,169 L209.6,169 Z M229.9,224 L241.9,224 L241.9,186 L251.3,186 L254.2,176.7 L241.9,176.7 L241.9,170 C241.9,165.9 243.7,163.5 247.7,163.5 C249.5,163.5 251.5,164.1 253.5,164.8 L255.9,155.3 C252.7,153.8 249.1,153.2 246,153.2 C236.4,153.2 229.9,159 229.9,170.1 L229.9,176.7 L222.9,176.7 L222.9,186 L229.9,186 L229.9,224 Z M281.8,225 C287.6,225 293.5,223.7 298.5,220.6 L294.9,212.4 C291.5,214.3 287.7,215.6 282.9,215.6 C275,215.6 269.8,210.9 269.6,203.6 L299.9,203.6 L299.9,200.8 C299.9,185.1 292.2,175.5 278.9,175.5 C265.4,175.5 257.6,186.2 257.6,200.4 C257.6,213.2 264.5,225 281.8,225 L281.8,225 Z M269.5,195.3 C269.5,189.6 272.8,184.6 278.7,184.6 C285,184.6 287.6,189.9 287.8,195.3 L269.5,195.3 Z" id="SunLife" fill="#7D7878"></path>
                    <circle id="Oval-6" stroke="#979797" cx="376" cy="216.236209" r="60"></circle>
                    <circle id="Oval-6" stroke="#979797" cx="317" cy="96.2362089" r="45"></circle>
                    <circle id="Oval-6" stroke="#979797" cx="213" cy="61.2362089" r="34"></circle>
                    <circle id="Oval-6" stroke="#979797" cx="129.5" cy="85.7362089" r="25.5"></circle>
                    <circle id="Oval-6" stroke="#979797" cx="75" cy="132.236209" r="19"></circle>
                    <text id="100%" font-family="VAGRoundedStd-Light, VAG Rounded Std" font-size="18" font-weight="300" fill="#7D7878">
                        <tspan x="451" y="221">100%</tspan>
                    </text>
                    <text id="75%" font-family="VAGRoundedStd-Light, VAG Rounded Std" font-size="18" font-weight="300" fill="#7D7878">
                        <tspan x="362" y="66">75%</tspan>
                    </text>
                    <text id="75%" font-family="VAGRoundedStd-Light, VAG Rounded Std" font-size="18" font-weight="300" fill="#7D7878">
                        <tspan x="197" y="14">75%</tspan>
                    </text>
                    <text id="51px" font-family="VAGRoundedStd-Light, VAG Rounded Std" font-size="18" font-weight="300" fill="#7D7878">
                        <tspan x="78" y="38"></tspan>
                        <tspan x="78" y="56">75%</tspan>
                    </text>
                    <text id="75%" font-family="VAGRoundedStd-Light, VAG Rounded Std" font-size="18" font-weight="300" fill="#7D7878">
                        <tspan x="7" y="125">75%</tspan>
                    </text>
                    <path d="M460.5,181.5 L389.5,78.5" id="Line" stroke="#DBD6D6" stroke-linecap="square"></path>
                    <path id="Line-decoration-1" d="M398.099523,85.6894507 L389.5,78.5 L393.159474,89.0947276" stroke="#DBD6D6" stroke-linecap="square"></path>
                    <path d="M346.5,44.5 L245.5,11.5" id="Line" stroke="#DBD6D6" stroke-linecap="square"></path>
                    <path id="Line-decoration-1" d="M256.697653,12.0025674 L245.5,11.5 L254.834201,17.70586" stroke="#DBD6D6" stroke-linecap="square"></path>
                    <path d="M183.5,13.5 L118.5,41.5" id="Line" stroke="#DBD6D6" stroke-linecap="square"></path>
                    <path id="Line-decoration-1" d="M127.231985,34.4720241 L118.5,41.5 L129.605728,39.9824998" stroke="#DBD6D6" stroke-linecap="square"></path>
                    <path d="M85.5,68.5 L54.5,94.5" id="Line" stroke="#DBD6D6" stroke-linecap="square"></path>
                    <path id="Line-decoration-1" d="M60.8470319,85.2612129 L54.5,94.5 L64.7027055,89.8583622" stroke="#DBD6D6" stroke-linecap="square"></path>
                </g>
                <path d="M308,227 L444,227" id="Line" stroke="#979797" stroke-linecap="square" stroke-dasharray="5,5,5,5"></path>
            </g>
        </g>
    </g>
</svg>