<?xml version="1.0" encoding="utf-8"?>
<!-- Generator: Adobe Illustrator 19.2.1, SVG Export Plug-In . SVG Version: 6.00 Build 0)  -->
<svg version="1.1" id="Layer_1" xmlns="http://www.w3.org/2000/svg" xmlns:xlink="http://www.w3.org/1999/xlink" x="0px" y="0px"
	 viewBox="0 0 201 201" style="enable-background:new 0 0 201 201;" xml:space="preserve">
<style type="text/css">
	.st0{fill:#86786F;}
	.st1{fill:#FFFFFF;}
</style>
<title>icon-cross-black-cherry</title>
<desc>Created with Sketch.</desc>
<g id="Page-1_1_">
	<g id="Icons" transform="translate(-311.000000, -444.000000)">
		<g id="Black-cherry-and-white" transform="translate(52.000000, 362.000000)">
			<g id="icon-cross-black-cherry" transform="translate(259.000000, 82.000000)">
				<g id="cross">
					<path id="Stroke-1" class="st0" d="M200.5,100.5c0,55.2-44.8,100-100,100s-100-44.8-100-100c0-55.2,44.8-100,100-100
						S200.5,45.3,200.5,100.5L200.5,100.5L200.5,100.5z"/>
					<path id="Page-1" class="st1" d="M136.3,58.9c-5.5-5.5-14.3-5.5-19.8,0L100,75.4L83.7,59.1c-5.5-5.5-14.3-5.5-19.8,0l-5.8,5.8
						c-5.5,5.5-5.5,14.3,0,19.8l16.2,16.2l-15.8,15.8c-5.5,5.5-5.5,14.3,0,19.8l5.8,5.8c5.5,5.5,14.3,5.5,19.8,0l15.8-15.8
						l16.1,16.1c5.5,5.5,14.3,5.5,19.8,0l5.8-5.8c5.5-5.5,5.5-14.3,0-19.8l-16.1-16.1l16.5-16.5c5.5-5.5,5.5-14.3,0-19.8L136.3,58.9
						L136.3,58.9z"/>
				</g>
			</g>
		</g>
	</g>
</g>
</svg>
