<?xml version="1.0" encoding="utf-8"?>
<!-- Generator: Adobe Illustrator 20.0.0, SVG Export Plug-In . SVG Version: 6.00 Build 0)  -->
<svg version="1.1" id="Layer_1" xmlns="http://www.w3.org/2000/svg" xmlns:xlink="http://www.w3.org/1999/xlink" x="0px" y="0px"
	 viewBox="0 0 201 201" style="enable-background:new 0 0 201 201;" xml:space="preserve">
<style type="text/css">
	.st0{fill:#86786F;}
	.st1{fill:#FFFFFF;}
</style>
<title>icon-help-black-cherry</title>
<desc>Created with Sketch.</desc>
<g id="Page-1">
	<g id="Icons" transform="translate(-311.000000, -1070.000000)">
		<g id="Black-cherry-and-white" transform="translate(52.000000, 362.000000)">
			<g id="icon-help-black-cherry" transform="translate(259.000000, 708.000000)">
				<g id="Fill-7849-_x2B_-Fill-7850-_x2B_-Fill-7851">
					<path id="Stroke-1" class="st0" d="M200.5,100.5c0,55.2-44.8,100-100,100s-100-44.8-100-100s44.8-100,100-100
						S200.5,45.3,200.5,100.5L200.5,100.5z"/>
					<path id="Fill-7849" class="st1" d="M151.9,100.5c0,28.4-23,51.5-51.3,51.5s-51.3-23.1-51.3-51.5S72.2,49,100.5,49
						S151.9,72.1,151.9,100.5"/>
					<path id="Fill-7851" class="st0" d="M100.2,125.3c4,0,6.9,2.9,6.9,6.7v1c0,3.8-2.9,6.7-6.9,6.7s-6.9-2.9-6.9-6.7v-1
						C93.3,128.2,96.2,125.3,100.2,125.3L100.2,125.3z M100.2,118.1c-2.2,0-3.9-1.7-4.2-3.9l-1-8.4c-0.4-2.6,1.2-4.6,3.8-4.9
						c9.2-0.9,14.2-4.4,14.2-10.6c0-6.3-4.9-9.5-11.2-9.5c-5.2,0-9.4,1.9-13.2,5.4c-4,3.2-9.1,0.2-9.1-4c0-1.5,0.6-3,1.9-4.2
						c5.2-4.9,11.7-8.1,20.7-8.1c13,0,22.9,7.1,22.9,20c0,12.3-8.9,17.9-19.7,19.8l-0.4,4.5c-0.4,2.2-1.9,3.9-4.2,3.9H100.2z"/>
				</g>
			</g>
		</g>
	</g>
</g>
</svg>
