<?xml version="1.0" encoding="utf-8"?>
<!-- Generator: Adobe Illustrator 20.0.0, SVG Export Plug-In . SVG Version: 6.00 Build 0)  -->
<svg version="1.1" id="Layer_1" xmlns="http://www.w3.org/2000/svg" xmlns:xlink="http://www.w3.org/1999/xlink" x="0px" y="0px"
	 viewBox="0 0 201 201" style="enable-background:new 0 0 201 201;" xml:space="preserve">
<style type="text/css">
	.st0{fill:#86786F;}
	.st1{fill:#FFFFFF;}
</style>
<title>icon-video-black-cherry</title>
<desc>Created with Sketch.</desc>
<g id="Page-1">
	<g id="Icons" transform="translate(-60.000000, -1070.000000)">
		<g id="Black-cherry-and-white" transform="translate(52.000000, 362.000000)">
			<g id="icon-video-black-cherry" transform="translate(8.000000, 708.000000)">
				<g id="Group">
					<path id="Stroke-1" class="st0" d="M200.5,100.5c0,55.2-44.8,100-100,100s-100-44.8-100-100s44.8-100,100-100
						S200.5,45.3,200.5,100.5L200.5,100.5z"/>
					<path id="Fill-5211" class="st1" d="M140.7,138H62.3c-1.3,0-2.4-0.8-2.8-2.1c-7-22.6-7-50.2,0-72.8c0.4-1.2,1.5-2.1,2.8-2.1
						h78.5c1.3,0,2.4,0.8,2.8,2.1c7,22.6,7,50.2,0,72.8C143.2,137.2,142,138,140.7,138z"/>
					<path id="Fill-5212" class="st0" d="M125.2,99.5c0,13.1-10.6,23.7-23.7,23.7s-23.7-10.6-23.7-23.7c0-13.1,10.6-23.7,23.7-23.7
						S125.2,86.4,125.2,99.5"/>
					<polygon id="Fill-5213" class="st1" points="92.6,87.7 116.3,99.5 92.6,111.3 					"/>
				</g>
			</g>
		</g>
	</g>
</g>
</svg>
