<?xml version="1.0" encoding="utf-8"?>
<!-- Generator: Adobe Illustrator 20.0.0, SVG Export Plug-In . SVG Version: 6.00 Build 0)  -->
<svg version="1.1" id="Layer_1" xmlns="http://www.w3.org/2000/svg" xmlns:xlink="http://www.w3.org/1999/xlink" x="0px" y="0px"
	 viewBox="0 0 201 201" style="enable-background:new 0 0 201 201;" xml:space="preserve">
<style type="text/css">
	.st0{fill:#86786F;}
	.st1{fill:#FFFFFF;}
</style>
<title>icon-brochure-black-cherry</title>
<desc>Created with Sketch.</desc>
<g id="Page-1">
	<g id="Icons" transform="translate(-561.000000, -755.000000)">
		<g id="Black-cherry-and-white" transform="translate(52.000000, 362.000000)">
			<g id="icon-brochure-black-cherry" transform="translate(509.000000, 393.000000)">
				<path id="Stroke-1" class="st0" d="M200.5,100.5c0,55.2-44.8,100-100,100s-100-44.8-100-100s44.8-100,100-100
					S200.5,45.3,200.5,100.5L200.5,100.5z"/>
				<g id="Group" transform="translate(64.000000, 54.000000)">
					<path id="Fill-7099" class="st1" d="M69.1,11.5H5.8c-3,0-5.5-2.5-5.5-5.5s2.5-5.5,5.5-5.5h61.9c0.8,0,1.4,0.6,1.4,1.4V11.5z"/>
					<path id="Fill-7100" class="st0" d="M5.8,11.5v-3c0-1.6,1.3-2.8,2.8-2.8h56.3v5.8H5.8z"/>
					<path id="Fill-7101" class="st1" d="M5.8,11.5c-3,0-5.5-2.5-5.5-5.5v77.5c0,3.1,2.5,5.5,5.5,5.5h66.2V12.9
						c0-0.8-0.6-1.4-1.4-1.4H5.8z"/>
					<path id="Fill-7103" class="st0" d="M13.2,56.5c0-12.5,10.1-22.6,22.5-22.6S58.2,44,58.2,56.5c0,12.5-10.1,22.6-22.5,22.6
						S13.2,69,13.2,56.5"/>
					<path id="Fill-7104" class="st1" d="M49.6,58.4c-0.3-0.7-1-1.1-1.7-1.1h-4.8v-13c0-1-0.8-1.9-1.9-1.9H30.1
						c-1,0-1.9,0.8-1.9,1.9v13h-4.8c-0.7,0-1.4,0.5-1.7,1.1c-0.3,0.7-0.1,1.5,0.4,2l12.2,11.2c0.7,0.7,1.9,0.7,2.6,0l12.2-11.2
						C49.7,59.9,49.9,59,49.6,58.4"/>
				</g>
			</g>
		</g>
	</g>
</g>
</svg>
