<?xml version="1.0" encoding="utf-8"?>
<!-- Generator: Adobe Illustrator 19.2.1, SVG Export Plug-In . SVG Version: 6.00 Build 0)  -->
<svg version="1.1" id="Layer_1" xmlns="http://www.w3.org/2000/svg" xmlns:xlink="http://www.w3.org/1999/xlink" x="0px" y="0px"
	 viewBox="0 0 201 201" style="enable-background:new 0 0 201 201;" xml:space="preserve">
<style type="text/css">
	.st0{fill:#1D3661;}
	.st1{fill:#009FE3;}
</style>
<title>icon-cross-midnight</title>
<desc>Created with Sketch.</desc>
<g id="Page-1_1_">
	<g id="Icons" transform="translate(-302.000000, -3391.000000)">
		<g id="Midnight-on-sky" transform="translate(43.000000, 3309.000000)">
			<g id="icon-cross-midnight" transform="translate(259.000000, 82.000000)">
				<g id="cross">
					<path id="Stroke-1" class="st0" d="M171.2,171.2c-39.1,39.1-102.4,39.1-141.4,0s-39.1-102.4,0-141.4s102.4-39.1,141.4,0
						S210.3,132.2,171.2,171.2L171.2,171.2L171.2,171.2z"/>
					<path id="Page-1" class="st1" d="M155.2,96.4c0-7.7-6.3-14-14-14l-23.4,0l0-23c0-7.7-6.3-14-14-14l-8.1,0c-7.7,0-14,6.3-14,14
						v23l-22.4,0c-7.7,0-14,6.3-14,14l0,8.1c0,7.7,6.3,14,14,14l22.4,0v22.8c0,7.7,6.3,14,14,14l8.1,0c7.7,0,14-6.3,14-14v-22.8
						l23.4,0c7.7,0,14-6.3,14-14V96.4L155.2,96.4z"/>
				</g>
			</g>
		</g>
	</g>
</g>
</svg>
