<?xml version="1.0" encoding="UTF-8" standalone="no"?>
<svg width="201px" height="201px" viewBox="0 0 201 201" version="1.1" xmlns="http://www.w3.org/2000/svg" xmlns:xlink="http://www.w3.org/1999/xlink">
    <!-- Generator: Sketch 39.1 (31720) - http://www.bohemiancoding.com/sketch -->
    <title>icon-buildings-cover-midnight</title>
    <desc>Created with Sketch.</desc>
    <defs></defs>
    <g id="Page-1" stroke="none" stroke-width="1" fill="none" fill-rule="evenodd">
        <g id="Icons" transform="translate(-1051.000000, -4017.000000)">
            <g id="Midnight-on-sky" transform="translate(43.000000, 3309.000000)">
                <g id="icon-buildings-cover-midnight" transform="translate(1008.000000, 708.000000)">
                    <path d="M200.5,100.5 C200.5,155.728 155.728,200.5 100.5,200.5 C45.272,200.5 0.5,155.728 0.5,100.5 C0.5,45.272 45.272,0.5 100.5,0.5 C155.728,0.5 200.5,45.272 200.5,100.5 L200.5,100.5 Z" id="Stroke-1" fill="#1D3661"></path>
                    <g id="Group" transform="translate(54.000000, 49.000000)">
                        <path d="M80.453655,27.7478571 L80.453655,7.1877875 C80.453655,6.3942875 79.8116365,5.7502875 79.0205781,5.7502875 L64.6898088,5.7502875 C63.8987504,5.7502875 63.2567319,6.3942875 63.2567319,7.1877875 L63.2567319,12.9621429 L49.7908246,1.3843125 C47.6440754,-0.4614375 44.4755423,-0.4614375 42.3287931,1.3843125 L2.20407231,35.8843125 C-0.200630769,37.9514375 -0.478647692,41.581125 1.58068385,43.99325 C3.22556685,45.9162908 5.86290823,46.4829678 8.08327038,45.5821665 L8.08327038,92 L83.3198088,92 L83.3198088,45.2310945 C84.2080476,45.7466912 85.197129,46 86.1838131,46 C87.7988908,46 89.40537,45.318625 90.5389338,43.99325 C92.5982654,41.581125 92.3202485,37.9514375 89.9169785,35.8843125 L80.453655,27.7478571 Z M46.0601671,13.3244955 L82.4542304,44.6156875 C82.509785,44.6632868 82.5659237,44.7095383 82.6226232,44.7544893 C82.5661174,44.7094616 82.5102144,44.6631953 82.4549469,44.6156875 L46.0605254,13.3241875 Z M27.8625981,28.9699375 L9.66538731,44.6156875 C9.63237221,44.6440035 9.59910411,44.6717586 9.56559392,44.6989695 C9.5988407,44.6716452 9.63186866,44.6438848 9.66467077,44.6156875 L27.8625981,28.9699375 Z" id="Combined-Shape" fill="#009FE3"></path>
                        <path d="M68.9890396,54.625 C68.9890396,55.4185 68.3470212,56.0625 67.5559627,56.0625 L58.9575012,56.0625 C58.1664427,56.0625 57.5244242,55.4185 57.5244242,54.625 L57.5244242,46 C57.5244242,45.2065 58.1664427,44.5625 58.9575012,44.5625 L67.5559627,44.5625 C68.3470212,44.5625 68.9890396,45.2065 68.9890396,46 L68.9890396,54.625 Z M34.5951935,54.625 C34.5951935,55.4185 33.953175,56.0625 33.1621165,56.0625 L24.563655,56.0625 C23.7725965,56.0625 23.1305781,55.4185 23.1305781,54.625 L23.1305781,46 C23.1305781,45.2065 23.7725965,44.5625 24.563655,44.5625 L33.1621165,44.5625 C33.953175,44.5625 34.5951935,45.2065 34.5951935,46 L34.5951935,54.625 Z" id="Fill-7924" fill="#1D3661"></path>
                        <path d="M46.1745983,64.25 L45.945306,64.25 C39.6770275,64.25 34.5953368,69.347375 34.5953368,75.635 L34.5953368,93 L57.5245675,93 L57.5245675,75.635 C57.5245675,69.347375 52.4428768,64.25 46.1745983,64.25" id="Fill-7925" fill="#1D3661"></path>
                    </g>
                </g>
            </g>
        </g>
    </g>
</svg>