<?xml version="1.0" encoding="UTF-8" standalone="no"?>
<svg width="200px" height="200px" viewBox="0 0 200 200" version="1.1" xmlns="http://www.w3.org/2000/svg" xmlns:xlink="http://www.w3.org/1999/xlink">
    <!-- Generator: Sketch 39.1 (31720) - http://www.bohemiancoding.com/sketch -->
    <title>15-icon-save-later-correct</title>
    <desc>Created with Sketch.</desc>
    <defs></defs>
    <g id="Templates" stroke="none" stroke-width="1" fill="none" fill-rule="evenodd">
        <g id="15-icons-(2)" transform="translate(-831.000000, -2121.000000)">
            <g id="15-icon-save-later-correct" transform="translate(831.000000, 2121.000000)">
                <g id="Group-16" stroke="#9B9B9B">
                    <g id="Page-1">
                        <path d="M199.502488,100 C199.502488,154.953234 154.953234,199.502488 100,199.502488 C45.0467662,199.502488 0.497512438,154.953234 0.497512438,100 C0.497512438,45.0467662 45.0467662,0.497512438 100,0.497512438 C154.953234,0.497512438 199.502488,45.0467662 199.502488,100 L199.502488,100 Z" id="Stroke-1"></path>
                        <path d="M155.970149,100 C155.970149,130.911443 130.911443,155.970149 100,155.970149 C69.0885572,155.970149 44.0298507,130.911443 44.0298507,100 C44.0298507,69.0885572 69.0885572,44.0298507 100,44.0298507 C130.911443,44.0298507 155.970149,69.0885572 155.970149,100 L155.970149,100 Z" id="Stroke-3"></path>
                    </g>
                </g>
                <path d="M142.178241,74.2238951 C142.178241,72.853466 141.636886,71.5411059 140.671192,70.5732888 L128.253465,58.1129654 C127.289056,57.1438578 125.981318,56.6005898 124.617001,56.6005898 L65.0255431,56.6005898 C62.1850379,56.6005898 59.8820299,58.9117371 59.8820299,61.7622813 L59.8820299,134.025963 C59.8820299,136.876507 62.1850379,139.187654 65.0255431,139.187654 L137.034728,139.187654 C139.875233,139.187654 142.178241,136.876507 142.178241,134.025963 L142.178241,74.2238951 Z" id="Fill-4889" fill="#7D7878"></path>
                <path d="M121.604188,59.5854063 L85.5995959,59.5854063 L85.5995959,80.2321725 C85.5995959,83.0827166 87.9026039,85.393864 90.7431091,85.393864 L116.460675,85.393864 C119.30118,85.393864 121.604188,83.0827166 121.604188,80.2321725 L121.604188,59.5854063 Z" id="Fill-4892" fill="#FFFFFF"></path>
                <polygon id="Fill-4894" fill="#FFFFFF" points="131.8907 94.9087894 70.1685419 94.9087894 70.1685419 136.202322 131.8907 136.202322"></polygon>
                <polygon id="Fill-4895" fill="#7D7878" points="116.460161 82.8130182 106.173134 82.8130182 106.173134 62.1662521 116.460161 62.1662521"></polygon>
                <path d="M122.890067,106.522595 C122.890067,107.236199 122.313993,107.813018 121.604188,107.813018 L81.741961,107.813018 C81.0321561,107.813018 80.4560827,107.236199 80.4560827,106.522595 C80.4560827,105.810282 81.0321561,105.232172 81.741961,105.232172 L121.604188,105.232172 C122.313993,105.232172 122.890067,105.810282 122.890067,106.522595" id="Fill-4896" fill="#7D7878"></path>
                <path d="M122.890067,116.845978 C122.890067,117.559582 122.313993,118.136401 121.604188,118.136401 L81.741961,118.136401 C81.0321561,118.136401 80.4560827,117.559582 80.4560827,116.845978 C80.4560827,116.133665 81.0321561,115.555556 81.741961,115.555556 L121.604188,115.555556 C122.313993,115.555556 122.890067,116.133665 122.890067,116.845978" id="Fill-4897" fill="#7D7878"></path>
                <path d="M122.890067,127.169362 C122.890067,127.882965 122.313993,128.459784 121.604188,128.459784 L81.741961,128.459784 C81.0321561,128.459784 80.4560827,127.882965 80.4560827,127.169362 C80.4560827,126.457048 81.0321561,125.878939 81.741961,125.878939 L121.604188,125.878939 C122.313993,125.878939 122.890067,126.457048 122.890067,127.169362" id="Fill-4898" fill="#7D7878"></path>
            </g>
        </g>
    </g>
</svg>