<?xml version="1.0" encoding="UTF-8" standalone="no"?>
<svg width="90px" height="90px" viewBox="0 0 90 90" version="1.1" xmlns="http://www.w3.org/2000/svg" xmlns:xlink="http://www.w3.org/1999/xlink">
    <!-- Generator: Sketch 39.1 (31720) - http://www.bohemiancoding.com/sketch -->
    <title>icon-youtube-midnight</title>
    <desc>Created with Sketch.</desc>
    <defs></defs>
    <g id="Templates" stroke="none" stroke-width="1" fill="none" fill-rule="evenodd">
        <g id="15-icons-(2)" transform="translate(-943.000000, -3124.000000)">
            <g id="icon-youtube-midnight" transform="translate(943.219971, 3124.219971)">
                <g id="Group" fill="#1D3661">
                    <g id="Grid-calculator">
                        <g id="Page-1">
                            <path d="M89.7761194,45 C89.7761194,69.7289552 69.7289552,89.7761194 45,89.7761194 C20.2710448,89.7761194 0.223880597,69.7289552 0.223880597,45 C0.223880597,20.2710448 20.2710448,0.223880597 45,0.223880597 C69.7289552,0.223880597 89.7761194,20.2710448 89.7761194,45 L89.7761194,45 Z" id="Stroke-1"></path>
                        </g>
                    </g>
                </g>
                <g id="Group" transform="translate(25.522388, 23.731343)" fill="#009FE3">
                    <path d="M16.8689552,1.55408955 C17.1716418,1.16364179 17.1,0.601253731 16.7095522,0.298567164 C16.3208955,-0.00411940299 15.7549254,0.0657313433 15.4540299,0.457970149 L10.7453731,6.53140299 L6.03492537,0.461552239 C5.73223881,0.0711044776 5.17164179,-0.00232835821 4.77761194,0.302149254 C4.38716418,0.606626866 4.31731343,1.16901493 4.62,1.55946269 L9.84985075,8.30095522 L9.85343284,16.1224478 C9.85343284,16.6185672 10.2546269,17.0179701 10.7489552,17.0179701 C11.2432836,17.0179701 11.6444776,16.6167761 11.6444776,16.1224478 L11.6408955,8.29916418 L16.8689552,1.55408955 Z" id="Fill-287"></path>
                    <path d="M18.8077612,15.2238806 C17.8191045,15.2238806 17.0149254,14.4214925 17.0149254,13.4328358 L17.0149254,8.05970149 C17.0149254,7.07283582 17.8191045,6.26865672 18.8059701,6.26865672 C19.7928358,6.26865672 20.5970149,7.07283582 20.5970149,8.05970149 L20.598806,13.4328358 C20.598806,14.4197015 19.7946269,15.2238806 18.8077612,15.2238806 M18.8059701,4.47761194 C16.8304478,4.47761194 15.2238806,6.08597015 15.2238806,8.05970149 L15.2238806,13.4328358 C15.2238806,15.4065672 16.8304478,17.0149254 18.8077612,17.0149254 C20.7832836,17.0149254 22.3898507,15.4065672 22.3898507,13.4328358 L22.3880597,8.05970149 C22.3880597,6.0841791 20.7814925,4.47761194 18.8059701,4.47761194" id="Fill-288"></path>
                    <path d="M33.1361194,12.5330149 L33.1343284,5.36883582 C33.1343284,4.87450746 32.7331343,4.47331343 32.238806,4.47331343 C31.7444776,4.47331343 31.3432836,4.87450746 31.3432836,5.36883582 L31.3450746,12.5383881 C31.3414925,14.017791 30.1379104,15.2195821 28.6567164,15.2195821 C27.9134328,15.1676418 27.2668657,14.9419701 26.758209,14.4351045 C26.2513433,13.9282388 25.9719403,13.2530149 25.9719403,12.534806 L25.9701493,5.37062687 C25.9701493,4.87629851 25.5689552,4.47510448 25.0746269,4.47510448 C24.5802985,4.47510448 24.1791045,4.87629851 24.1791045,5.37062687 L24.1808955,12.534806 C24.1808955,13.7312239 24.6465672,14.856 25.4919403,15.7013731 C26.3373134,16.5449552 27.4602985,17.0106269 28.6531343,17.0106269 L28.6567164,17.0106269 C29.681194,17.0106269 30.6143284,16.654209 31.3701493,16.0721194 C31.4328358,16.5073433 31.7892537,16.8440597 32.240597,16.8440597 C32.7349254,16.8440597 33.1361194,16.4446567 33.1361194,15.9485373 L33.1361194,12.5383881 L33.1361194,12.5330149 Z" id="Fill-289"></path>
                    <path d="M23.2835821,29.5522388 C22.7892537,29.5522388 22.3880597,29.9534328 22.3880597,30.4477612 L22.3880597,34.0298507 C22.3880597,34.5241791 22.7892537,34.9253731 23.2835821,34.9253731 C23.7779104,34.9253731 24.1791045,34.5241791 24.1791045,34.0298507 L24.1791045,30.4477612 C24.1791045,29.9534328 23.7779104,29.5522388 23.2835821,29.5522388" id="Fill-290"></path>
                    <path d="M31.3432836,30.4477612 C31.3432836,29.9534328 30.9420896,29.5522388 30.4477612,29.5522388 C29.9534328,29.5522388 29.5522388,29.9534328 29.5522388,30.4477612 L29.5522388,31.3432836 L31.3432836,31.3432836 L31.3432836,30.4477612 Z" id="Fill-291"></path>
                    <path d="M30.6016119,36.939403 C29.1419104,36.939403 27.7610149,35.5262687 27.7610149,34.0289552 L27.7610149,30.4468657 C27.7610149,28.9656716 28.9663881,27.7602985 30.4475821,27.7602985 C31.9287761,27.7602985 33.1341493,28.9656716 33.1341493,30.4468657 L33.1341493,32.2379104 C33.1341493,32.7340299 32.7329552,33.1334328 32.2386269,33.1334328 L29.5520597,33.1334328 L29.5520597,34.0289552 C29.5520597,34.5429851 30.1198209,35.1483582 30.6016119,35.1483582 C31.0081791,35.1483582 31.6511642,34.9656716 31.6511642,34.4767164 C31.6511642,33.9823881 32.0523582,33.581194 32.5466866,33.581194 C33.0410149,33.581194 33.442209,33.9823881 33.442209,34.4767164 C33.442209,35.8808955 32.2207164,36.939403 30.6016119,36.939403 L30.6016119,36.939403 Z M25.9699701,34.0289552 C25.9699701,35.5119403 24.764597,36.7155224 23.283403,36.7155224 C22.8589254,36.7155224 22.4613134,36.6080597 22.1031045,36.4307463 C21.9437015,36.581194 21.7305672,36.6779104 21.4923582,36.6779104 C20.9980299,36.6779104 20.5968358,36.2767164 20.5968358,35.7823881 L20.5968358,25.0737313 C20.5968358,24.579403 20.9980299,24.178209 21.4923582,24.178209 C21.9866866,24.178209 22.3878806,24.579403 22.3878806,25.0737313 L22.3878806,27.9268657 C22.6690746,27.8265672 22.9681791,27.7602985 23.283403,27.7602985 C24.764597,27.7602985 25.9699701,28.9656716 25.9699701,30.4468657 L25.9699701,34.0289552 Z M17.9120597,36.5453731 C17.722209,36.5453731 17.5556418,36.4737313 17.4087761,36.3716418 C17.0254925,36.5847761 16.5902687,36.7155224 16.1192239,36.7155224 C14.6380299,36.7155224 13.4326567,35.5119403 13.4326567,34.0289552 L13.4326567,28.6522388 C13.4326567,28.1579104 13.8338507,27.7567164 14.3281791,27.7567164 C14.8225075,27.7567164 15.2237015,28.1579104 15.2237015,28.6522388 L15.2237015,34.0289552 C15.2237015,34.5250746 15.6248955,34.9244776 16.1192239,34.9244776 C16.6135522,34.9244776 17.0147463,34.5250746 17.0147463,34.0289552 L17.0147463,28.6522388 C17.0147463,28.1579104 17.4159403,27.7567164 17.9102687,27.7567164 C18.404597,27.7567164 18.805791,28.1579104 18.805791,28.6522388 L18.8075821,35.6498507 C18.8075821,36.1459701 18.4063881,36.5453731 17.9120597,36.5453731 L17.9120597,36.5453731 Z M12.5747463,27.7602985 L9.85056716,27.7602985 L9.85056716,35.7823881 C9.85056716,36.2767164 9.44937313,36.6779104 8.95504478,36.6779104 C8.46071642,36.6779104 8.05952239,36.2767164 8.05952239,35.7823881 L8.05952239,27.7602985 L5.33534328,27.7602985 C4.83922388,27.7602985 4.4398209,27.3608955 4.4398209,26.8647761 C4.4398209,26.3704478 4.83922388,25.9692537 5.33534328,25.9692537 L12.5747463,25.9692537 C13.0690746,25.9692537 13.4702687,26.3704478 13.4702687,26.8647761 C13.4702687,27.3608955 13.0690746,27.7602985 12.5747463,27.7602985 L12.5747463,27.7602985 Z M32.2386269,21.4916418 L7.164,21.4916418 C3.20758209,21.4916418 -0.000179104478,24.699403 -0.000179104478,28.6558209 L-0.000179104478,34.0289552 C-0.000179104478,37.9853731 3.20758209,41.1931343 7.164,41.1931343 L32.2386269,41.1931343 C36.1950448,41.1931343 39.402806,37.9853731 39.402806,34.0289552 L39.402806,28.6558209 C39.402806,24.699403 36.1950448,21.4916418 32.2386269,21.4916418 L32.2386269,21.4916418 Z" id="Fill-292"></path>
                </g>
            </g>
        </g>
    </g>
</svg>