<?xml version="1.0" encoding="UTF-8" standalone="no"?>
<svg width="90px" height="90px" viewBox="0 0 90 90" version="1.1" xmlns="http://www.w3.org/2000/svg" xmlns:xlink="http://www.w3.org/1999/xlink">
    <!-- Generator: Sketch 39.1 (31720) - http://www.bohemiancoding.com/sketch -->
    <title>icon-facebook-midnight</title>
    <desc>Created with Sketch.</desc>
    <defs></defs>
    <g id="Templates" stroke="none" stroke-width="1" fill="none" fill-rule="evenodd">
        <g id="15-icons-(2)" transform="translate(-646.000000, -3124.000000)">
            <g id="icon-facebook-midnight" transform="translate(646.219971, 3124.219971)">
                <g id="Group" fill="#1D3661">
                    <g id="Grid-calculator">
                        <g id="Page-1">
                            <path d="M89.7761194,45 C89.7761194,69.7289552 69.7289552,89.7761194 45,89.7761194 C20.2710448,89.7761194 0.223880597,69.7289552 0.223880597,45 C0.223880597,20.2710448 20.2710448,0.223880597 45,0.223880597 C69.7289552,0.223880597 89.7761194,20.2710448 89.7761194,45 L89.7761194,45 Z" id="Stroke-1"></path>
                        </g>
                    </g>
                </g>
                <g id="Fill-256" transform="translate(30.000000, 21.492537)" fill="#009FE3">
                    <path d="M25.0355051,14.2971813 L16.3775092,14.2971813 L16.3775092,10.4284244 C16.3775092,8.60878868 17.582488,8.18434239 18.430436,8.18434239 L24.4918446,8.18434239 L24.4918446,0.17875736 L15.7101051,0.152356395 C7.74588479,0.152356395 6.23458981,6.12100541 6.23458981,9.94305285 L6.23458981,14.2971813 L0.148838196,14.2971813 L0.148838196,22.4205553 L6.23458981,22.4205553 L6.23458981,46.7906771 L16.3775092,46.7906771 L16.3775092,22.4205553 L24.1895857,22.4205553 L25.0355051,14.2971813 Z"></path>
                </g>
            </g>
        </g>
    </g>
</svg>