<?xml version="1.0" encoding="UTF-8" standalone="no"?>
<svg width="200px" height="200px" viewBox="0 0 200 200" version="1.1" xmlns="http://www.w3.org/2000/svg" xmlns:xlink="http://www.w3.org/1999/xlink">
    <!-- Generator: Sketch 39.1 (31720) - http://www.bohemiancoding.com/sketch -->
    <title>15-icon-down-correct</title>
    <desc>Created with Sketch.</desc>
    <defs></defs>
    <g id="Templates" stroke="none" stroke-width="1" fill="none" fill-rule="evenodd">
        <g id="15-icons-(2)" transform="translate(-828.000000, -1921.000000)">
            <g id="15-icon-down-correct" transform="translate(828.000000, 1921.000000)">
                <g id="Page-1" stroke="#9B9B9B">
                    <path d="M199.502488,100 C199.502488,154.953234 154.953234,199.502488 100,199.502488 C45.0467662,199.502488 0.497512438,154.953234 0.497512438,100 C0.497512438,45.0467662 45.0467662,0.497512438 100,0.497512438 C154.953234,0.497512438 199.502488,45.0467662 199.502488,100 L199.502488,100 Z" id="Stroke-1"></path>
                    <path d="M155.970149,100 C155.970149,130.911443 130.911443,155.970149 100,155.970149 C69.0885572,155.970149 44.0298507,130.911443 44.0298507,100 C44.0298507,69.0885572 69.0885572,44.0298507 100,44.0298507 C130.911443,44.0298507 155.970149,69.0885572 155.970149,100 L155.970149,100 Z" id="Stroke-3"></path>
                </g>
                <path d="M99.2376838,46.0555013 C91.5864939,46.0555013 85.383979,52.2627167 85.383979,59.9113844 L85.383979,104.836673 L75.3804265,94.8331207 C69.967767,89.4204613 61.193919,89.4186545 55.7838136,94.82876 L55.6683392,94.9442343 C50.2580881,100.354485 50.2562969,109.124445 55.6769639,114.545111 L89.7794446,148.647592 C95.1944589,154.062606 103.975616,154.060922 109.385962,148.650577 L143.86492,114.171619 C149.278286,108.758252 149.280666,99.983831 143.870561,94.5737255 L143.755086,94.4582512 C138.344835,89.0480001 129.568117,89.0529676 124.152514,94.4685704 L113.254693,105.366393 L113.254693,59.9238275 C113.254693,52.2645625 107.051972,46.0555013 99.4009876,46.0555013 L99.2376838,46.0555013 L99.2376838,46.0555013 Z" id="Page-1" fill="#7D7878"></path>
            </g>
        </g>
    </g>
</svg>