<?xml version="1.0" encoding="UTF-8" standalone="no"?>
<svg width="201px" height="201px" viewBox="0 0 201 201" version="1.1" xmlns="http://www.w3.org/2000/svg" xmlns:xlink="http://www.w3.org/1999/xlink">
    <!-- Generator: Sketch 39.1 (31720) - http://www.bohemiancoding.com/sketch -->
    <title>icon-tick-midnight</title>
    <desc>Created with Sketch.</desc>
    <defs></defs>
    <g id="Page-1" stroke="none" stroke-width="1" fill="none" fill-rule="evenodd">
        <g id="Icons" transform="translate(-53.000000, -3391.000000)">
            <g id="Midnight-on-sky" transform="translate(43.000000, 3309.000000)">
                <g id="icon-tick-midnight" transform="translate(10.000000, 82.000000)">
                    <path d="M200.5,100.5 C200.5,155.728 155.728,200.5 100.5,200.5 C45.272,200.5 0.5,155.728 0.5,100.5 C0.5,45.272 45.272,0.5 100.5,0.5 C155.728,0.5 200.5,45.272 200.5,100.5 L200.5,100.5 L200.5,100.5 Z" id="Stroke-1" fill="#1D3661"></path>
                    <path d="M78.372792,113.551203 L72.6466292,107.850956 C67.1679036,102.397025 58.2943385,102.404644 52.8277367,107.867204 L53.9230163,106.772734 C48.4560699,112.235638 48.4605025,121.091507 53.9295826,126.549543 L68.5244251,141.114913 C73.994998,146.574438 82.8683044,146.569756 88.3450029,141.102963 L143.036776,86.510112 C148.512806,81.0439866 148.505316,72.1953466 143.023625,66.7496765 L143.965337,67.6852003 C138.482043,62.2379386 129.61089,62.2532929 124.149461,67.7210978 L78.372792,113.551203 L78.372792,113.551203 Z" id="Fill-3" fill="#009FE3"></path>
                </g>
            </g>
        </g>
    </g>
</svg>