<?xml version="1.0" encoding="utf-8"?>
<!-- Generator: Adobe Illustrator 20.0.0, SVG Export Plug-In . SVG Version: 6.00 Build 0)  -->
<svg version="1.1" id="Layer_1" xmlns="http://www.w3.org/2000/svg" xmlns:xlink="http://www.w3.org/1999/xlink" x="0px" y="0px"
	 viewBox="0 0 201 201" style="enable-background:new 0 0 201 201;" xml:space="preserve">
<style type="text/css">
	.st0{fill:#86786F;}
	.st1{fill:#FFFFFF;}
</style>
<title>icon-star-black-cherry</title>
<desc>Created with Sketch.</desc>
<g id="Page-1_1_">
	<g id="Icons" transform="translate(-1560.000000, -1067.000000)">
		<g id="Black-cherry-and-white" transform="translate(52.000000, 362.000000)">
			<g id="icon-star-black-cherry" transform="translate(1508.000000, 705.000000)">
				<g id="Grid-calculator">
					<g id="Page-1">
						<path id="Stroke-1" class="st0" d="M200.5,100.5c0,55.2-44.8,100-100,100s-100-44.8-100-100s44.8-100,100-100
							S200.5,45.3,200.5,100.5L200.5,100.5z"/>
					</g>
				</g>
				<g id="Fill-234" transform="translate(50.000000, 45.000000)">
					<path class="st1" d="M100.8,37.2c-0.3-0.8-1.1-1.4-2-1.4H64.6L52.5,1.4c-0.3-0.8-1.1-1.4-2-1.4c-0.9,0-1.7,0.6-2,1.4L36.4,35.7
						H2.1c-0.9,0-1.7,0.6-2,1.4c-0.3,0.8,0,1.8,0.7,2.3l28.3,22.2L17,98.2c-0.3,0.9,0,1.8,0.8,2.4c0.7,0.5,1.7,0.5,2.5,0l30.3-22.2
						l30.3,22.2c0.4,0.3,0.8,0.4,1.2,0.4c0.4,0,0.9-0.1,1.2-0.4c0.7-0.5,1-1.5,0.8-2.4L71.9,61.7l28.3-22.2
						C100.9,38.9,101.1,38,100.8,37.2"/>
				</g>
			</g>
		</g>
	</g>
</g>
</svg>
