<?xml version="1.0" encoding="utf-8"?>
<!-- Generator: Adobe Illustrator 19.2.1, SVG Export Plug-In . SVG Version: 6.00 Build 0)  -->
<svg version="1.1" id="Layer_1" xmlns="http://www.w3.org/2000/svg" xmlns:xlink="http://www.w3.org/1999/xlink" x="0px" y="0px"
	 viewBox="0 0 201 201" style="enable-background:new 0 0 201 201;" xml:space="preserve">
<style type="text/css">
	.st0{fill:#86786F;}
	.st1{fill:#FFFFFF;}
</style>
<title>icon-cross-black-cherry</title>
<desc>Created with Sketch.</desc>
<g id="Page-1_1_">
	<g id="Icons" transform="translate(-311.000000, -444.000000)">
		<g id="Black-cherry-and-white" transform="translate(52.000000, 362.000000)">
			<g id="icon-cross-black-cherry" transform="translate(259.000000, 82.000000)">
				<g id="cross">
					<path id="Stroke-1" class="st0" d="M171.2,171.2c-39,39-102.4,39-141.4,0s-39-102.4,0-141.4s102.4-39,141.4,0
						S210.2,132.2,171.2,171.2L171.2,171.2L171.2,171.2z"/>
					<path id="Page-1" class="st1" d="M155.2,96.4c0-7.8-6.2-14-14-14h-23.3V59.3c0-7.8-6.2-14-14-14l-8.2,0c-7.8,0-14,6.2-14,14
						v22.9H59.3c-7.8,0-14,6.2-14,14v8.2c0,7.8,6.2,14,14,14h22.3v22.8c0,7.8,6.2,14,14,14h8.2c7.8,0,14-6.2,14-14v-22.8l23.3,0
						c7.8,0,14-6.2,14-14L155.2,96.4L155.2,96.4z"/>
				</g>
			</g>
		</g>
	</g>
</g>
</svg>
