<?xml version="1.0" encoding="UTF-8" standalone="no"?>
<svg width="201px" height="201px" viewBox="0 0 201 201" version="1.1" xmlns="http://www.w3.org/2000/svg" xmlns:xlink="http://www.w3.org/1999/xlink">
    <!-- Generator: Sketch 39.1 (31720) - http://www.bohemiancoding.com/sketch -->
    <title>icon-plus-sky</title>
    <desc>Created with Sketch.</desc>
    <defs></defs>
    <g id="Page-1" stroke="none" stroke-width="1" fill="none" fill-rule="evenodd">
        <g id="Icons" transform="translate(-1060.000000, -1604.000000)">
            <g id="Sky-and-white" transform="translate(52.000000, 1522.000000)">
                <g id="icon-plus-sky" transform="translate(1008.000000, 82.000000)">
                    <path d="M200.5,100.5 C200.5,155.728 155.728,200.5 100.5,200.5 C45.272,200.5 0.5,155.728 0.5,100.5 C0.5,45.272 45.272,0.5 100.5,0.5 C155.728,0.5 200.5,45.272 200.5,100.5 L200.5,100.5 L200.5,100.5 Z" id="Stroke-1" fill="#009FE3"></path>
                    <path d="M96.0974471,46 C88.364683,46 82.0960391,52.2597969 82.0960391,60.0020029 L82.0960391,82.6563266 L60.0073347,82.6563266 C52.2712974,82.6563266 46,88.9214565 46,96.6581347 L46,104.504728 C46,112.237713 52.2668338,118.506536 60.0073347,118.506536 L82.0960391,118.506536 L82.0960391,140.995043 C82.0960391,148.729767 88.36099,155 96.0974471,155 L103.943816,155 C111.67658,155 117.945224,148.72655 117.945224,140.995043 L117.945224,118.506536 L140.991815,118.506536 C148.728888,118.506536 155.001024,112.241406 155.001024,104.504728 L155.001024,96.6581347 C155.001024,88.9251496 148.735977,82.6563266 140.991815,82.6563266 L117.945224,82.6563266 L117.945224,60.0020029 C117.945224,52.2689102 111.680273,46 103.943816,46 L96.0974471,46 L96.0974471,46 Z" id="Page-1" fill="#FFFFFF"></path>
                </g>
            </g>
        </g>
    </g>
</svg>