<?xml version="1.0" encoding="utf-8"?>
<!-- Generator: Adobe Illustrator 20.0.0, SVG Export Plug-In . SVG Version: 6.00 Build 0)  -->
<svg version="1.1" id="Layer_1" xmlns="http://www.w3.org/2000/svg" xmlns:xlink="http://www.w3.org/1999/xlink" x="0px" y="0px"
	 viewBox="0 0 90 90" style="enable-background:new 0 0 90 90;" xml:space="preserve">
<style type="text/css">
	.st0{fill:#86786F;}
	.st1{fill:#FFFFFF;}
</style>
<title>icon-instagram-black-cherry</title>
<desc>Created with Sketch.</desc>
<g id="Templates">
	<g id="_x31_5-icons-_x28_2_x29_" transform="translate(-1222.000000, -2630.000000)">
		<g id="icon-instagram-black-cherry" transform="translate(1222.219971, 2630.219971)">
			<g id="Group">
				<g id="Grid-calculator">
					<g id="Page-1">
						<path id="Stroke-1" class="st0" d="M89.8,45c0,24.7-20,44.8-44.8,44.8S0.2,69.7,0.2,45S20.3,0.2,45,0.2S89.8,20.3,89.8,45
							L89.8,45z"/>
					</g>
				</g>
			</g>
			<g id="Group_1_" transform="translate(24.626866, 25.522388)">
				<path id="Fill-293" class="st1" d="M20.1,9.2c-6.1,0-11,4.9-11,11c0,6.1,4.9,11,11,11s11-4.9,11-11C31.1,14.1,26.2,9.2,20.1,9.2
					"/>
				<path id="Fill-294" class="st1" d="M5.5,0.1C4.8,0.2,4.2,0.4,3.7,0.6v13.1h1.8V0.1z"/>
				<path id="Fill-295" class="st1" d="M9.2,13.6V0H7.3v13.7h1.7C9.1,13.7,9.1,13.6,9.2,13.6"/>
				<path id="Fill-296" class="st1" d="M37.6,11h-5.5c-0.5,0-0.9-0.4-0.9-0.9V4.6c0-0.5,0.4-0.9,0.9-0.9h5.5c0.5,0,0.9,0.4,0.9,0.9
					v3v2.5C38.5,10.6,38.1,11,37.6,11 M40.3,32.7v-19V7.6V6.4c0-3.5-2.9-6.4-6.4-6.4H11v11.2c2.3-2.4,5.6-3.9,9.2-3.9
					c4.7,0,8.9,2.6,11.1,6.4h7.2v19c0,3.2-2.6,5.8-5.8,5.8H7.6c-3.2,0-5.8-2.6-5.8-5.8v-19V7.6V1.9C0.7,3.1,0,4.7,0,6.4v1.2v6.1v19
					c0,4.2,3.4,7.6,7.6,7.6h25.1C36.9,40.3,40.3,36.9,40.3,32.7"/>
			</g>
		</g>
	</g>
</g>
</svg>
