<?xml version="1.0" encoding="utf-8"?>
<!-- Generator: Adobe Illustrator 20.0.0, SVG Export Plug-In . SVG Version: 6.00 Build 0)  -->
<svg version="1.1" id="Layer_1" xmlns="http://www.w3.org/2000/svg" xmlns:xlink="http://www.w3.org/1999/xlink" x="0px" y="0px"
	 viewBox="0 0 201 201" style="enable-background:new 0 0 201 201;" xml:space="preserve">
<style type="text/css">
	.st0{fill:#86786F;}
	.st1{fill:#FFFFFF;}
</style>
<title>icon-calculator-black-cherry</title>
<desc>Created with Sketch.</desc>
<g id="Page-1">
	<g id="Icons" transform="translate(-1561.000000, -755.000000)">
		<g id="Black-cherry-and-white" transform="translate(52.000000, 362.000000)">
			<g id="icon-calculator-black-cherry" transform="translate(1509.000000, 393.000000)">
				<path id="Stroke-1" class="st0" d="M200.5,100.5c0,55.2-44.8,100-100,100s-100-44.8-100-100s44.8-100,100-100
					S200.5,45.3,200.5,100.5L200.5,100.5z"/>
				<g id="Group" transform="translate(61.000000, 56.000000)">
					<path id="Fill-2390" class="st1" d="M79.2,11.2C79.2,5,74.1,0,67.9,0H11.5C5.3,0,0.2,5,0.2,11.2v67.5C0.2,85,5.3,90,11.5,90
						h56.4c6.2,0,11.3-5,11.3-11.2V11.2z"/>
					<path id="Fill-2391" class="st0" d="M21.4,63.5c0,0.7-0.6,1.2-1.2,1.2h-7.4c-0.7,0-1.2-0.5-1.2-1.2v-7.4c0-0.7,0.6-1.2,1.2-1.2
						h7.4c0.7,0,1.2,0.6,1.2,1.2V63.5z"/>
					<path id="Fill-2392" class="st0" d="M21.4,80.3c0,0.7-0.6,1.2-1.2,1.2h-7.4c-0.7,0-1.2-0.5-1.2-1.2v-7.4c0-0.7,0.6-1.2,1.2-1.2
						h7.4c0.7,0,1.2,0.6,1.2,1.2V80.3z"/>
					<path id="Fill-2393" class="st0" d="M36.9,46.6c0,0.7-0.6,1.2-1.2,1.2h-7.4c-0.7,0-1.2-0.5-1.2-1.2v-7.4c0-0.7,0.6-1.2,1.2-1.2
						h7.4c0.7,0,1.2,0.6,1.2,1.2V46.6z"/>
					<path id="Fill-2394" class="st0" d="M36.9,63.5c0,0.7-0.6,1.2-1.2,1.2h-7.4c-0.7,0-1.2-0.5-1.2-1.2v-7.4c0-0.7,0.6-1.2,1.2-1.2
						h7.4c0.7,0,1.2,0.6,1.2,1.2V63.5z"/>
					<path id="Fill-2395" class="st0" d="M36.9,80.3c0,0.7-0.6,1.2-1.2,1.2h-7.4c-0.7,0-1.2-0.5-1.2-1.2v-7.4c0-0.7,0.6-1.2,1.2-1.2
						h7.4c0.7,0,1.2,0.6,1.2,1.2V80.3z"/>
					<path id="Fill-2396" class="st0" d="M52.4,46.6c0,0.7-0.6,1.2-1.2,1.2h-7.4c-0.7,0-1.2-0.5-1.2-1.2v-7.4c0-0.7,0.6-1.2,1.2-1.2
						h7.4c0.7,0,1.2,0.6,1.2,1.2V46.6z"/>
					<path id="Fill-2397" class="st0" d="M67.9,46.6c0,0.7-0.6,1.2-1.2,1.2h-7.4c-0.7,0-1.2-0.5-1.2-1.2v-7.4c0-0.7,0.6-1.2,1.2-1.2
						h7.4c0.7,0,1.2,0.6,1.2,1.2V46.6z"/>
					<path id="Fill-2398" class="st0" d="M52.4,63.5c0,0.7-0.6,1.2-1.2,1.2h-7.4c-0.7,0-1.2-0.5-1.2-1.2v-7.4c0-0.7,0.6-1.2,1.2-1.2
						h7.4c0.7,0,1.2,0.6,1.2,1.2V63.5z"/>
					<path id="Fill-2399" class="st0" d="M52.4,80.3c0,0.7-0.6,1.2-1.2,1.2h-7.4c-0.7,0-1.2-0.5-1.2-1.2v-7.4c0-0.7,0.6-1.2,1.2-1.2
						h7.4c0.7,0,1.2,0.6,1.2,1.2V80.3z"/>
					<path id="Fill-2400" class="st0" d="M67.9,80.3c0,0.7-0.6,1.2-1.2,1.2h-7.4c-0.7,0-1.2-0.5-1.2-1.2V56.2c0-0.7,0.6-1.2,1.2-1.2
						h7.4c0.7,0,1.2,0.6,1.2,1.2V80.3z"/>
					<path id="Fill-2401" class="st0" d="M21.4,46.6c0,0.7-0.6,1.2-1.2,1.2h-7.4c-0.7,0-1.2-0.5-1.2-1.2v-7.4c0-0.7,0.6-1.2,1.2-1.2
						h7.4c0.7,0,1.2,0.6,1.2,1.2V46.6z"/>
					<path id="Fill-2402" class="st0" d="M67.9,14.1v11.3c0,3.1-2.5,5.6-5.6,5.6H17.1c-3.1,0-5.6-2.5-5.6-5.6V14.1
						c0-3.1,2.5-5.6,5.6-5.6h45.1C65.4,8.4,67.9,11,67.9,14.1"/>
				</g>
			</g>
		</g>
	</g>
</g>
</svg>
