<?xml version="1.0" encoding="utf-8"?>
<!-- Generator: Adobe Illustrator 20.0.0, SVG Export Plug-In . SVG Version: 6.00 Build 0)  -->
<svg version="1.1" id="Layer_1" xmlns="http://www.w3.org/2000/svg" xmlns:xlink="http://www.w3.org/1999/xlink" x="0px" y="0px"
	 viewBox="0 0 90 90" style="enable-background:new 0 0 90 90;" xml:space="preserve">
<style type="text/css">
	.st0{fill:#86786F;}
	.st1{fill:#FFFFFF;}
</style>
<title>icon-facebook-black-cherry</title>
<desc>Created with Sketch.</desc>
<g id="Templates">
	<g id="_x31_5-icons-_x28_2_x29_" transform="translate(-1024.000000, -2630.000000)">
		<g id="icon-facebook-black-cherry" transform="translate(1024.219971, 2630.219971)">
			<g id="Group">
				<g id="Grid-calculator">
					<g id="Page-1">
						<path id="Stroke-1" class="st0" d="M89.8,45c0,24.7-20,44.8-44.8,44.8S0.2,69.7,0.2,45S20.3,0.2,45,0.2S89.8,20.3,89.8,45
							L89.8,45z"/>
					</g>
				</g>
			</g>
			<g id="Fill-256" transform="translate(30.000000, 21.492537)">
				<path class="st1" d="M25,14.3h-8.7v-3.9c0-1.8,1.2-2.2,2.1-2.2h6.1v-8l-8.8,0c-8,0-9.5,6-9.5,9.8v4.4H0.1v8.1h6.1v24.4h10.1
					V22.4h7.8L25,14.3z"/>
			</g>
		</g>
	</g>
</g>
</svg>
