<?xml version="1.0" encoding="UTF-8" standalone="no"?>
<svg width="201px" height="201px" viewBox="0 0 201 201" version="1.1" xmlns="http://www.w3.org/2000/svg" xmlns:xlink="http://www.w3.org/1999/xlink">
    <!-- Generator: Sketch 39.1 (31720) - http://www.bohemiancoding.com/sketch -->
    <title>icon-up-midnight</title>
    <desc>Created with Sketch.</desc>
    <defs></defs>
    <g id="Page-1" stroke="none" stroke-width="1" fill="none" fill-rule="evenodd">
        <g id="Icons" transform="translate(-552.000000, -3391.000000)">
            <g id="Midnight-on-sky" transform="translate(43.000000, 3309.000000)">
                <g id="icon-up-midnight" transform="translate(509.000000, 82.000000)">
                    <g id="up">
                        <path d="M200.5,100.5 C200.5,155.728 155.728,200.5 100.5,200.5 C45.272,200.5 0.5,155.728 0.5,100.5 C0.5,45.272 45.272,0.5 100.5,0.5 C155.728,0.5 200.5,45.272 200.5,100.5 L200.5,100.5 L200.5,100.5 Z" id="Stroke-1" fill="#1D3661"></path>
                        <path d="M111.19965,51.8821593 C105.729454,46.4120631 96.8614942,46.4112455 91.3955155,51.8773243 L56.8771632,86.3963082 C51.4098373,91.8637341 51.413003,100.731267 56.883905,106.20217 L57.000677,106.318942 C62.4717263,111.789991 71.3392341,111.792806 76.8033351,106.328705 L86.9344758,96.1975648 L86.9344758,141.64953 C86.9344758,149.37805 93.207213,155.643254 100.93424,155.643254 L101.120031,155.643254 C108.851887,155.643254 115.119795,149.365776 115.119795,141.63707 L115.119795,95.6618659 L126.156471,106.698543 C131.625358,112.167429 140.494296,112.165307 145.958173,106.701431 L146.089548,106.570056 C151.556839,101.102765 151.559446,92.2412222 146.084289,86.7661643 L111.19965,51.8821593 L111.19965,51.8821593 Z" id="Page-1" fill="#009FE3"></path>
                    </g>
                </g>
            </g>
        </g>
    </g>
</svg>