<?xml version="1.0" encoding="utf-8"?>
<!-- Generator: Adobe Illustrator 20.0.0, SVG Export Plug-In . SVG Version: 6.00 Build 0)  -->
<svg version="1.1" id="Layer_1" xmlns="http://www.w3.org/2000/svg" xmlns:xlink="http://www.w3.org/1999/xlink" x="0px" y="0px"
	 viewBox="0 0 201 201" style="enable-background:new 0 0 201 201;" xml:space="preserve">
<style type="text/css">
	.st0{fill:#86786F;}
	.st1{fill:#FFFFFF;}
</style>
<title>icon-secure-black-cherry</title>
<desc>Created with Sketch.</desc>
<g id="Page-1">
	<g id="Icons" transform="translate(-62.000000, -755.000000)">
		<g id="Black-cherry-and-white" transform="translate(52.000000, 362.000000)">
			<g id="icon-secure-black-cherry" transform="translate(10.000000, 393.000000)">
				<path id="Stroke-1" class="st0" d="M200.5,100.5c0,55.2-44.8,100-100,100s-100-44.8-100-100s44.8-100,100-100
					S200.5,45.3,200.5,100.5L200.5,100.5z"/>
				<path id="Fill-7913" class="st1" d="M87.8,88.3V69.7c0-6.8,5.5-12.4,12.3-12.4c6.8,0,12.3,5.6,12.3,12.4v18.6H87.8z M130.9,88.3
					h-6.2V69.7c0-13.6-11-24.8-24.6-24.8S75.5,56.1,75.5,69.7v18.6h-6.2c-3.4,0-6.2,2.8-6.2,6.2v43.3c0,3.4,2.8,6.2,6.2,6.2h61.6
					c3.4,0,6.2-2.8,6.2-6.2V94.5C137.1,91.1,134.3,88.3,130.9,88.3L130.9,88.3z"/>
				<path id="Fill-7921" class="st0" d="M106.3,111.5c0-3.4-2.8-6.2-6.2-6.2c-3.4,0-6.2,2.8-6.2,6.2c0,2.4,1.4,4.4,3.3,5.5L94,134.7
					h12.3L103,117C105,115.9,106.3,113.9,106.3,111.5"/>
			</g>
		</g>
	</g>
</g>
</svg>
