<?xml version="1.0" encoding="UTF-8" standalone="no"?>
<svg width="201px" height="201px" viewBox="0 0 201 201" version="1.1" xmlns="http://www.w3.org/2000/svg" xmlns:xlink="http://www.w3.org/1999/xlink">
    <!-- Generator: Sketch 39.1 (31720) - http://www.bohemiancoding.com/sketch -->
    <title>icon-cross-midnight</title>
    <desc>Created with Sketch.</desc>
    <defs></defs>
    <g id="Page-1" stroke="none" stroke-width="1" fill="none" fill-rule="evenodd">
        <g id="Icons" transform="translate(-302.000000, -3391.000000)">
            <g id="Midnight-on-sky" transform="translate(43.000000, 3309.000000)">
                <g id="icon-cross-midnight" transform="translate(259.000000, 82.000000)">
                    <g id="cross">
                        <path d="M200.5,100.5 C200.5,155.728 155.728,200.5 100.5,200.5 C45.272,200.5 0.5,155.728 0.5,100.5 C0.5,45.272 45.272,0.5 100.5,0.5 C155.728,0.5 200.5,45.272 200.5,100.5 L200.5,100.5 L200.5,100.5 Z" id="Stroke-1" fill="#1D3661"></path>
                        <path d="M136.289225,58.863002 C130.820992,53.3947685 121.951107,53.3990682 116.493917,58.8564723 L99.9681197,75.3829152 L83.7316743,59.1458281 C78.2643219,53.6782597 69.3942476,53.6838292 63.9310444,59.1470324 L58.1715651,64.9065118 C52.7033315,70.3747453 52.7040622,79.2412343 58.1699696,84.7071417 L74.406415,100.943587 L58.565257,116.784745 C53.1003462,122.249656 53.1080701,131.117572 58.5712733,136.580554 L64.3307527,142.339801 C69.7989862,147.807813 78.6707326,147.801824 84.1269617,142.345814 L99.9681197,126.505292 L116.095589,142.632761 C121.55924,148.096412 130.426135,148.087667 135.889117,142.624464 L141.648364,136.864985 C147.116376,131.396751 147.120351,122.535147 141.656261,117.071056 L125.528792,100.943587 L142.055235,84.4177902 C147.519862,78.9533766 147.511908,70.0856846 142.048705,64.6224814 L136.289225,58.863002 L136.289225,58.863002 Z" id="Page-1" fill="#009FE3"></path>
                    </g>
                </g>
            </g>
        </g>
    </g>
</svg>