<?xml version="1.0" encoding="UTF-8" standalone="no"?>
<svg width="200px" height="200px" viewBox="0 0 200 200" version="1.1" xmlns="http://www.w3.org/2000/svg" xmlns:xlink="http://www.w3.org/1999/xlink">
    <!-- Generator: Sketch 39.1 (31720) - http://www.bohemiancoding.com/sketch -->
    <title>15-icon-buildings-cover-correct</title>
    <desc>Created with Sketch.</desc>
    <defs></defs>
    <g id="Templates" stroke="none" stroke-width="1" fill="none" fill-rule="evenodd">
        <g id="15-icons-(2)" transform="translate(-828.000000, -1722.000000)">
            <g id="15-icon-buildings-cover-correct" transform="translate(828.000000, 1722.000000)">
                <g id="Page-1" stroke="#9B9B9B">
                    <path d="M199.502488,100 C199.502488,154.953234 154.953234,199.502488 100,199.502488 C45.0467662,199.502488 0.497512438,154.953234 0.497512438,100 C0.497512438,45.0467662 45.0467662,0.497512438 100,0.497512438 C154.953234,0.497512438 199.502488,45.0467662 199.502488,100 L199.502488,100 Z" id="Stroke-1"></path>
                    <path d="M155.970149,100 C155.970149,130.911443 130.911443,155.970149 100,155.970149 C69.0885572,155.970149 44.0298507,130.911443 44.0298507,100 C44.0298507,69.0885572 69.0885572,44.0298507 100,44.0298507 C130.911443,44.0298507 155.970149,69.0885572 155.970149,100 L155.970149,100 Z" id="Stroke-3"></path>
                </g>
                <g id="Group" transform="translate(54.444444, 48.888889)">
                    <path d="M79.6991876,27.5157962 L79.6991876,7.12767458 C79.6991876,6.34081078 79.0631898,5.70219668 78.2795496,5.70219668 L64.0831695,5.70219668 C63.2995294,5.70219668 62.6635315,6.34081078 62.6635315,7.12767458 L62.6635315,12.8537378 L49.323903,1.37273522 C47.1972852,-0.457578405 44.0584656,-0.457578405 41.9318479,1.37273522 L2.18340326,35.5842047 C-0.198749321,37.634042 -0.474159095,41.2333737 1.56586072,43.6253256 C3.19531857,45.5322836 5.80792784,46.0942214 8.00746819,45.2009537 L8.00746819,91.2305854 L82.5384637,91.2305854 L82.5384637,44.8528177 C83.4183728,45.3641024 84.398179,45.6152927 85.3756102,45.6152927 C86.9755423,45.6152927 88.5669565,44.9396162 89.6898901,43.6253256 C91.72991,41.2333737 91.4545002,37.634042 89.0737672,35.5842047 L79.6991876,27.5157962 Z M45.6282303,13.2130601 L81.6810023,44.2425575 C81.7360359,44.2897587 81.7916482,44.3356234 81.8478159,44.3801985 C81.7918401,44.3355474 81.7364613,44.289668 81.6817121,44.2425575 L45.6285852,13.2127546 Z M27.601312,28.7276561 L9.57474855,44.2425575 C9.54204306,44.2706367 9.50908694,44.2981596 9.47589099,44.325143 C9.508826,44.2980472 9.54154424,44.2705189 9.57403873,44.2425575 L27.601312,28.7276561 Z" id="Combined-Shape" fill="#7D7878"></path>
                    <path d="M68.3420836,54.1681601 C68.3420836,54.9550239 67.7060857,55.593638 66.9224456,55.593638 L58.4046175,55.593638 C57.6209773,55.593638 56.9849795,54.9550239 56.9849795,54.1681601 L56.9849795,45.6152927 C56.9849795,44.8284289 57.6209773,44.1898148 58.4046175,44.1898148 L66.9224456,44.1898148 C67.7060857,44.1898148 68.3420836,44.8284289 68.3420836,45.6152927 L68.3420836,54.1681601 Z M34.2707714,54.1681601 C34.2707714,54.9550239 33.6347735,55.593638 32.8511333,55.593638 L24.3333053,55.593638 C23.5496651,55.593638 22.9136673,54.9550239 22.9136673,54.1681601 L22.9136673,45.6152927 C22.9136673,44.8284289 23.5496651,44.1898148 24.3333053,44.1898148 L32.8511333,44.1898148 C33.6347735,44.1898148 34.2707714,44.8284289 34.2707714,45.6152927 L34.2707714,54.1681601 Z" id="Fill-7924" fill="#FFFFFF"></path>
                    <path d="M45.5144464,63.7126643 C39.3049497,63.7126643 34.2709133,68.7674089 34.2709133,75.0024492 L34.2709133,92.2222222 L56.9851215,92.2222222 L56.9851215,75.0024492 C56.9851215,68.7674089 51.9510851,63.7126643 45.7415884,63.7126643 L45.5144464,63.7126643 Z" id="Fill-7925" fill="#FFFFFF"></path>
                </g>
            </g>
        </g>
    </g>
</svg>