<?xml version="1.0" encoding="utf-8"?>
<!-- Generator: Adobe Illustrator 20.0.0, SVG Export Plug-In . SVG Version: 6.00 Build 0)  -->
<svg version="1.1" id="Layer_1" xmlns="http://www.w3.org/2000/svg" xmlns:xlink="http://www.w3.org/1999/xlink" x="0px" y="0px"
	 viewBox="0 0 201 201" style="enable-background:new 0 0 201 201;" xml:space="preserve">
<style type="text/css">
	.st0{fill:#86786F;}
	.st1{fill:#FFFFFF;}
</style>
<title>icon-down-black-cherry</title>
<desc>Created with Sketch.</desc>
<g id="Page-1_1_">
	<g id="Icons" transform="translate(-811.000000, -444.000000)">
		<g id="Black-cherry-and-white" transform="translate(52.000000, 362.000000)">
			<g id="icon-down-black-cherry" transform="translate(759.000000, 82.000000)">
				<path id="Stroke-1" class="st0" d="M200.5,100.5c0,55.2-44.8,100-100,100s-100-44.8-100-100s44.8-100,100-100
					S200.5,45.3,200.5,100.5L200.5,100.5L200.5,100.5z"/>
				<path id="Page-1" class="st1" d="M100.5,45c-7.7,0-14,6.3-14,14v45.4L76.4,94.3c-5.5-5.5-14.3-5.5-19.8,0l-0.1,0.1
					c-5.5,5.5-5.5,14.3,0,19.8l34.4,34.4c5.5,5.5,14.3,5.5,19.8,0l34.8-34.8c5.5-5.5,5.5-14.3,0-19.8l-0.1-0.1
					c-5.5-5.5-14.3-5.5-19.8,0l-11,11V59c0-7.7-6.3-14-14-14H100.5L100.5,45z"/>
			</g>
		</g>
	</g>
</g>
</svg>
