<?xml version="1.0" encoding="UTF-8" standalone="no"?>
<svg width="201px" height="201px" viewBox="0 0 201 201" version="1.1" xmlns="http://www.w3.org/2000/svg" xmlns:xlink="http://www.w3.org/1999/xlink">
    <!-- Generator: Sketch 39.1 (31720) - http://www.bohemiancoding.com/sketch -->
    <title>icon-mouse-midnight</title>
    <desc>Created with Sketch.</desc>
    <defs></defs>
    <g id="Page-1" stroke="none" stroke-width="1" fill="none" fill-rule="evenodd">
        <g id="Icons" transform="translate(-1051.000000, -3703.000000)">
            <g id="Midnight-on-sky" transform="translate(43.000000, 3309.000000)">
                <g id="icon-mouse-midnight" transform="translate(1008.000000, 394.000000)">
                    <path d="M200.5,100.5 C200.5,155.728 155.728,200.5 100.5,200.5 C45.272,200.5 0.5,155.728 0.5,100.5 C0.5,45.272 45.272,0.5 100.5,0.5 C155.728,0.5 200.5,45.272 200.5,100.5 L200.5,100.5 Z" id="Stroke-1" fill="#1D3661"></path>
                    <g id="Group-2" transform="translate(109.433342, 94.605529) rotate(-12.000000) translate(-109.433342, -94.605529) translate(60.433342, 41.105529)">
                        <g id="Group" transform="translate(-0.000000, 40.419016)" fill="#009FE3">
                            <path d="M17.7987767,40.2555438 C17.4680724,40.5350232 17.1302279,40.8193445 16.7818131,41.1100929 C13.3087973,44.0205354 8.05971351,48.4187743 7.86968884,51.4346704 C7.84095831,51.890715 7.91521237,52.531551 8.75830199,53.440702 C11.1105027,55.9848539 20.0701163,53.1397367 27.2697523,50.856945 C33.3351449,48.9338313 39.6064155,46.9449049 45.1187075,46.6560179 C56.4677545,46.0612396 66.2127389,53.1208014 69.4350456,62.1108858 L63.3019243,65.787173 C61.4724493,55.4818954 52.6928266,53.4360048 45.4938042,53.8132895 C40.8988358,54.0541016 35.0711539,55.9025574 29.4364159,57.6894667 C18.8963969,61.031279 8.9435598,64.1880144 3.49931855,58.3119409 C1.51122956,56.1649687 0.549467354,53.6304817 0.716933719,50.9829873 C1.10145213,44.8995262 7.24422179,39.7511121 12.1793977,35.6169285 C12.3357125,35.485869 12.4831309,35.3614382 12.6329782,35.2356246 C11.4402008,33.3853733 11.6541083,30.8919268 13.2747009,29.2723711 L19.1863588,23.3607132 L18.4863726,12.8537536 C18.3943949,11.4788661 18.9008696,10.1314524 19.8755943,9.15792216 L27.6339735,1.39954303 C29.4998069,-0.466290409 32.5243205,-0.466290409 34.390154,1.39954303 L51.2841888,18.2923833 C53.1500222,20.1582167 53.1500222,23.1839249 51.2841888,25.0497583 L43.5258096,32.8081374 C42.5510849,33.7816677 41.2036712,34.2881423 39.8287837,34.1961646 L29.3230186,33.4961785 L23.4101661,39.4078364 C21.8912085,40.9277665 19.6035512,41.2103356 17.7987767,40.2555438 Z" id="Combined-Shape"></path>
                        </g>
                        <g id="Group" transform="translate(49.805272, 47.184149) rotate(49.000000) translate(-49.805272, -47.184149) translate(21.305272, 8.184149)">
                            <path d="M14.2818829,28.8010995 L0.246324058,28.8010995 L0.246324058,49.7335642 C0.246324058,65.14858 12.8134126,77.643517 28.3174418,77.643517 C43.821471,77.643517 56.3885595,65.14858 56.3885595,49.7335642 L56.3885595,28.8010995 L42.3530006,28.8010995 L56.3885595,28.8010995 L56.3885595,14.846123 C56.3885595,7.13599855 50.1076469,0.891146594 42.3530006,0.891146594 L28.3174418,0.891146594 L14.2818829,0.891146594 C6.52723664,0.891146594 0.246324058,7.13599855 0.246324058,14.846123 L0.246324058,28.8010995 L14.2818829,28.8010995 Z" id="Combined-Shape" fill="#009FE3"></path>
                            <path d="M31.8263315,34.0342156 C31.8263315,35.9600024 30.2561033,37.5229598 28.3174418,37.5229598 C26.3805346,37.5229598 24.808552,35.9600024 24.808552,34.0342156 L24.808552,23.5679833 C24.808552,21.6421966 26.3805346,20.0792392 28.3174418,20.0792392 C30.2561033,20.0792392 31.8263315,21.6421966 31.8263315,23.5679833 L31.8263315,34.0342156 Z" id="Fill-4757" fill="#1D3661"></path>
                        </g>
                    </g>
                </g>
            </g>
        </g>
    </g>
</svg>