<?xml version="1.0" encoding="UTF-8" standalone="no"?>
<svg width="201px" height="201px" viewBox="0 0 201 201" version="1.1" xmlns="http://www.w3.org/2000/svg" xmlns:xlink="http://www.w3.org/1999/xlink">
    <!-- Generator: Sketch 39.1 (31720) - http://www.bohemiancoding.com/sketch -->
    <title>icon-print-midnight</title>
    <desc>Created with Sketch.</desc>
    <defs></defs>
    <g id="Page-1" stroke="none" stroke-width="1" fill="none" fill-rule="evenodd">
        <g id="Icons" transform="translate(-1301.000000, -4014.000000)">
            <g id="Midnight-on-sky" transform="translate(43.000000, 3309.000000)">
                <g id="icon-print-midnight" transform="translate(1258.000000, 705.000000)">
                    <g id="Grid-phone" fill="#1D3661">
                        <g id="Page-1">
                            <path d="M200.5,100.5 C200.5,155.728 155.728,200.5 100.5,200.5 C45.272,200.5 0.5,155.728 0.5,100.5 C0.5,45.272 45.272,0.5 100.5,0.5 C155.728,0.5 200.5,45.272 200.5,100.5 L200.5,100.5 Z" id="Stroke-1"></path>
                        </g>
                    </g>
                    <g id="Group" transform="translate(53.000000, 50.000000)">
                        <path d="M93.977518,78.375 C93.977518,81.6194687 91.3533767,84.25 88.1167893,84.25 L6.06658684,84.25 C2.82999939,84.25 0.205858097,81.6194687 0.205858097,78.375 L0.205858097,43.125 C0.205858097,36.6360625 5.45414069,31.375 11.9273156,31.375 L82.2560605,31.375 C88.7292354,31.375 93.977518,36.6360625 93.977518,43.125 L93.977518,78.375 Z" id="Fill-7515" fill="#009FE3"></path>
                        <polygon id="Fill-7517" fill="#009FE3" points="70.534603 11.75 58.8131455 0 23.6487731 0 23.6487731 29.375 70.534603 29.375"></polygon>
                        <polygon id="Fill-7519" fill="#009FE3" points="88.1175219 84.25 6.06731943 84.25 6.06731943 49 88.1175219 49"></polygon>
                        <path d="M76.3953318,73.5 C76.3953318,70.2555313 73.7711905,67.625 70.534603,67.625 L23.6487731,67.625 C20.4121856,67.625 17.7880443,70.2555313 17.7880443,73.5 L17.7880443,85.25 L76.3953318,85.25 L76.3953318,73.5 Z" id="Fill-7520" fill="#1D3661"></path>
                        <path d="M76.3953318,96 L17.7880443,96 C17.7880443,90.125 20.0077953,81.9146875 23.6487731,72.5 L70.534603,72.5 C74.177046,81.9146875 76.3953318,90.125 76.3953318,96" id="Fill-7521" fill="#009FE3"></path>
                        <path d="M64.7324816,54.875 L29.4508945,54.875 C26.2465411,54.875 23.6487731,52.2709062 23.6487731,49.05875 L23.6487731,49 L70.534603,49 L70.534603,49.05875 C70.534603,52.2709062 67.936835,54.875 64.7324816,54.875" id="Fill-7522" fill="#1D3661"></path>
                        <polygon id="Fill-7523" fill="#1D3661" points="64.6746069 88.65625 29.5102344 88.65625 29.5102344 85.71875 64.6746069 85.71875"></polygon>
                        <polygon id="Fill-7524" fill="#1D3661" points="61.7442425 81.3125 32.4405988 81.3125 32.4405988 78.375 61.7442425 78.375"></polygon>
                        <path d="M82.2560605,41.65625 C82.2560605,42.467 81.5996589,43.125 80.7908783,43.125 C79.9820978,43.125 79.3256962,42.467 79.3256962,41.65625 C79.3256962,40.8455 79.9820978,40.1875 80.7908783,40.1875 C81.5996589,40.1875 82.2560605,40.8455 82.2560605,41.65625" id="Fill-7525" fill="#1D3661"></path>
                        <path d="M76.3953318,41.65625 C76.3953318,42.467 75.7389302,43.125 74.9301496,43.125 C74.121369,43.125 73.4649674,42.467 73.4649674,41.65625 C73.4649674,40.8455 74.121369,40.1875 74.9301496,40.1875 C75.7389302,40.1875 76.3953318,40.8455 76.3953318,41.65625" id="Fill-7526" fill="#1D3661"></path>
                    </g>
                </g>
            </g>
        </g>
    </g>
</svg>