<?xml version="1.0" encoding="utf-8"?>
<!-- Generator: Adobe Illustrator 20.0.0, SVG Export Plug-In . SVG Version: 6.00 Build 0)  -->
<svg version="1.1" id="Layer_1" xmlns="http://www.w3.org/2000/svg" xmlns:xlink="http://www.w3.org/1999/xlink" x="0px" y="0px"
	 viewBox="0 0 201 201" style="enable-background:new 0 0 201 201;" xml:space="preserve">
<style type="text/css">
	.st0{fill:#86786F;}
	.st1{fill:#FFFFFF;}
</style>
<title>icon-print-black-cherry</title>
<desc>Created with Sketch.</desc>
<g id="Page-1_1_">
	<g id="Icons" transform="translate(-1310.000000, -1067.000000)">
		<g id="Black-cherry-and-white" transform="translate(52.000000, 362.000000)">
			<g id="icon-print-black-cherry" transform="translate(1258.000000, 705.000000)">
				<g id="Grid-phone">
					<g id="Page-1">
						<path id="Stroke-1" class="st0" d="M200.5,100.5c0,55.2-44.8,100-100,100s-100-44.8-100-100s44.8-100,100-100
							S200.5,45.3,200.5,100.5L200.5,100.5z"/>
					</g>
				</g>
				<g id="Group" transform="translate(53.000000, 50.000000)">
					<path id="Fill-7515" class="st1" d="M94,78.4c0,3.2-2.6,5.9-5.9,5.9H6.1c-3.2,0-5.9-2.6-5.9-5.9V43.1c0-6.5,5.2-11.7,11.7-11.7
						h70.3c6.5,0,11.7,5.3,11.7,11.7V78.4z"/>
					<polygon id="Fill-7517" class="st1" points="70.5,11.7 58.8,0 23.6,0 23.6,29.4 70.5,29.4 					"/>
					<polygon id="Fill-7519" class="st1" points="88.1,84.2 6.1,84.2 6.1,49 88.1,49 					"/>
					<path id="Fill-7520" class="st0" d="M76.4,73.5c0-3.2-2.6-5.9-5.9-5.9H23.6c-3.2,0-5.9,2.6-5.9,5.9v11.8h58.6V73.5z"/>
					<path id="Fill-7521" class="st1" d="M76.4,96H17.8c0-5.9,2.2-14.1,5.9-23.5h46.9C74.2,81.9,76.4,90.1,76.4,96"/>
					<path id="Fill-7522" class="st0" d="M64.7,54.9H29.5c-3.2,0-5.8-2.6-5.8-5.8V49h46.9v0.1C70.5,52.3,67.9,54.9,64.7,54.9"/>
					<polygon id="Fill-7523" class="st0" points="64.7,88.7 29.5,88.7 29.5,85.7 64.7,85.7 					"/>
					<polygon id="Fill-7524" class="st0" points="61.7,81.3 32.4,81.3 32.4,78.4 61.7,78.4 					"/>
					<path id="Fill-7525" class="st0" d="M82.3,41.7c0,0.8-0.7,1.5-1.5,1.5s-1.5-0.7-1.5-1.5s0.7-1.5,1.5-1.5S82.3,40.8,82.3,41.7"
						/>
					<path id="Fill-7526" class="st0" d="M76.4,41.7c0,0.8-0.7,1.5-1.5,1.5c-0.8,0-1.5-0.7-1.5-1.5s0.7-1.5,1.5-1.5
						C75.7,40.2,76.4,40.8,76.4,41.7"/>
				</g>
			</g>
		</g>
	</g>
</g>
</svg>
