<?xml version="1.0" encoding="UTF-8" standalone="no"?>
<svg width="201px" height="201px" viewBox="0 0 201 201" version="1.1" xmlns="http://www.w3.org/2000/svg" xmlns:xlink="http://www.w3.org/1999/xlink">
    <!-- Generator: Sketch 39.1 (31720) - http://www.bohemiancoding.com/sketch -->
    <title>icon-help-midnight</title>
    <desc>Created with Sketch.</desc>
    <defs></defs>
    <g id="Page-1" stroke="none" stroke-width="1" fill="none" fill-rule="evenodd">
        <g id="Icons" transform="translate(-302.000000, -4017.000000)">
            <g id="Midnight-on-sky" transform="translate(43.000000, 3309.000000)">
                <g id="icon-help-midnight" transform="translate(259.000000, 708.000000)">
                    <g id="Fill-7849-+-Fill-7850-+-Fill-7851">
                        <path d="M200.5,100.5 C200.5,155.728 155.728,200.5 100.5,200.5 C45.272,200.5 0.5,155.728 0.5,100.5 C0.5,45.272 45.272,0.5 100.5,0.5 C155.728,0.5 200.5,45.272 200.5,100.5 L200.5,100.5 Z" id="Stroke-1" fill="#1D3661"></path>
                        <path d="M151.862578,100.5 C151.862578,128.942484 128.886265,152 100.543949,152 C72.201633,152 49.2253209,128.942484 49.2253209,100.5 C49.2253209,72.0575156 72.201633,49 100.543949,49 C128.886265,49 151.862578,72.0575156 151.862578,100.5" id="Fill-7849" fill="#009FE3"></path>
                        <path d="M100.201718,125.26297 C104.196553,125.26297 107.118507,128.196861 107.118507,132.00947 L107.118507,132.98797 C107.118507,136.80058 104.196553,139.73447 100.201718,139.73447 C96.2068836,139.73447 93.2849292,136.80058 93.2849292,132.98797 L93.2849292,132.00947 C93.2849292,128.196861 96.2068836,125.26297 100.201718,125.26297 L100.201718,125.26297 Z M100.201718,118.125392 C97.9613392,118.125392 96.3047098,116.462908 96.0128351,114.214611 L95.0377811,105.805627 C94.6480803,103.166252 96.2068836,101.210861 98.8369633,100.916345 C107.995735,100.037627 113.063449,96.5179234 113.063449,90.3572359 C113.063449,84.0291734 108.164124,80.8731891 101.858348,80.8731891 C96.6944106,80.8731891 92.5055276,82.7304078 88.6085192,86.2501109 C84.584818,89.4801266 79.5459702,86.4915172 79.5459702,82.2427672 C79.5459702,80.7750172 80.1313233,79.2107047 81.4944744,78.0374703 C86.6584113,73.1481891 93.1871031,69.9213922 102.150222,69.9213922 C115.199587,69.9213922 125.047953,76.9736734 125.047953,89.9661578 C125.047953,102.285923 116.181056,107.859189 105.365655,109.716408 L104.975954,114.214611 C104.586253,116.364736 103.02745,118.125392 100.787071,118.125392 L100.201718,118.125392 Z" id="Fill-7851" fill="#1D3661"></path>
                    </g>
                </g>
            </g>
        </g>
    </g>
</svg>