<?xml version="1.0" encoding="UTF-8" standalone="no"?>
<svg width="182px" height="182px" viewBox="0 0 182 182" version="1.1" xmlns="http://www.w3.org/2000/svg" xmlns:xlink="http://www.w3.org/1999/xlink">
    <!-- Generator: Sketch 39.1 (31720) - http://www.bohemiancoding.com/sketch -->
    <title>15-icon-buildings-cover-incorrect</title>
    <desc>Created with Sketch.</desc>
    <defs></defs>
    <g id="Templates" stroke="none" stroke-width="1" fill="none" fill-rule="evenodd">
        <g id="15-icons-(2)" transform="translate(-627.000000, -1721.000000)">
            <g id="15-icon-buildings-cover-incorrect" transform="translate(628.000000, 1722.000000)">
                <g id="Page-1" stroke="#9B9B9B">
                    <path d="M179.552239,90 C179.552239,139.45791 139.45791,179.552239 90,179.552239 C40.5420896,179.552239 0.447761194,139.45791 0.447761194,90 C0.447761194,40.5420896 40.5420896,0.447761194 90,0.447761194 C139.45791,0.447761194 179.552239,40.5420896 179.552239,90 L179.552239,90 Z" id="Stroke-1"></path>
                </g>
                <g id="Group" transform="translate(23.000000, 19.000000)">
                    <path d="M112.898612,38.9777523 L112.898612,10.0967725 C112.898612,8.98213339 111.997683,8.07749876 110.887611,8.07749876 L90.7775987,8.07749876 C89.6675261,8.07749876 88.7665975,8.98213339 88.7665975,10.0967725 L88.7665975,18.2080797 L69.870225,1.9445606 C66.8577452,-0.648186866 62.4114216,-0.648186866 59.3989418,1.9445606 L3.09291981,50.40713 C-0.281540165,53.3108456 -0.671674394,58.4095118 2.2181343,61.7978531 C4.52635769,64.4991719 8.2272732,65.29519 11.3430521,64.0298235 L11.3430521,129.233518 L116.920614,129.233518 L116.920614,63.5366683 C118.167057,64.2609333 119.555011,64.6167592 120.9396,64.6167592 C123.205998,64.6167592 125.460331,63.6596235 127.051032,61.7978531 C129.940841,58.4095118 129.550707,53.3108456 126.178258,50.40713 L112.898612,38.9777523 Z M64.6350861,18.7170809 L115.705969,62.6721986 C115.783928,62.739062 115.862706,62.804032 115.942271,62.8671753 C115.862978,62.8039243 115.78453,62.7389334 115.706975,62.6721986 L64.6355889,18.7166482 Z M39.0988904,40.6944234 L13.5631975,62.6721986 C13.5168682,62.7119745 13.4701839,62.7509623 13.4231599,62.7891858 C13.4698143,62.7508031 13.5161616,62.7118077 13.562192,62.6721986 L39.0988904,40.6944234 Z" id="Combined-Shape" fill="#7D7878"></path>
                    <path d="M96.8106023,76.7324016 C96.8106023,77.8470407 95.9096737,78.7516753 94.7996011,78.7516753 L82.733594,78.7516753 C81.6235214,78.7516753 80.7225928,77.8470407 80.7225928,76.7324016 L80.7225928,64.6167592 C80.7225928,63.5021201 81.6235214,62.5974855 82.733594,62.5974855 L94.7996011,62.5974855 C95.9096737,62.5974855 96.8106023,63.5021201 96.8106023,64.6167592 L96.8106023,76.7324016 Z M48.546574,76.7324016 C48.546574,77.8470407 47.6456454,78.7516753 46.5355728,78.7516753 L34.4695657,78.7516753 C33.3594931,78.7516753 32.4585645,77.8470407 32.4585645,76.7324016 L32.4585645,64.6167592 C32.4585645,63.5021201 33.3594931,62.5974855 34.4695657,62.5974855 L46.5355728,62.5974855 C47.6456454,62.5974855 48.546574,63.5021201 48.546574,64.6167592 L48.546574,76.7324016 Z" id="Fill-7924" fill="#FFFFFF"></path>
                    <path d="M64.4739044,90.2527561 C55.6777852,90.2527561 48.5467751,97.4131007 48.5467751,106.245404 L48.5467751,130.638231 L80.7227939,130.638231 L80.7227939,106.245404 C80.7227939,97.4131007 73.5917837,90.2527561 64.7956646,90.2527561 L64.4739044,90.2527561 Z" id="Fill-7925" fill="#FFFFFF"></path>
                </g>
            </g>
        </g>
    </g>
</svg>