<?xml version="1.0" encoding="UTF-8" standalone="no"?>
<svg width="201px" height="201px" viewBox="0 0 201 201" version="1.1" xmlns="http://www.w3.org/2000/svg" xmlns:xlink="http://www.w3.org/1999/xlink">
    <!-- Generator: Sketch 39.1 (31720) - http://www.bohemiancoding.com/sketch -->
    <title>icon-info-sky</title>
    <desc>Created with Sketch.</desc>
    <defs></defs>
    <g id="Page-1" stroke="none" stroke-width="1" fill="none" fill-rule="evenodd">
        <g id="Icons" transform="translate(-1310.000000, -1915.000000)">
            <g id="Sky-and-white" transform="translate(52.000000, 1522.000000)">
                <g id="icon-info-sky" transform="translate(1258.000000, 393.000000)">
                    <path d="M200.5,100.5 C200.5,155.728 155.728,200.5 100.5,200.5 C45.272,200.5 0.5,155.728 0.5,100.5 C0.5,45.272 45.272,0.5 100.5,0.5 C155.728,0.5 200.5,45.272 200.5,100.5 L200.5,100.5 Z" id="Stroke-1" fill="#009FE3"></path>
                    <path d="M89.56,144.27 C89.56,151.23 93.91,155.87 100,155.87 C106.09,155.87 110.44,151.23 110.44,144.27 L110.44,88.59 C110.44,81.63 106.09,76.99 100,76.99 C93.91,76.99 89.56,81.63 89.56,88.59 L89.56,144.27 Z M100,45.67 C93.765,45.67 88.255,51.18 88.255,57.125 C88.255,63.505 93.765,69.16 100,69.16 C106.525,69.16 111.745,63.65 111.745,57.125 C111.745,51.035 106.235,45.67 100,45.67 L100,45.67 Z" id="i" fill="#FFFFFF"></path>
                </g>
            </g>
        </g>
    </g>
</svg>