<?xml version="1.0" encoding="UTF-8" standalone="no"?>
<svg width="359px" height="182px" viewBox="0 0 359 182" version="1.1" xmlns="http://www.w3.org/2000/svg" xmlns:xlink="http://www.w3.org/1999/xlink">
    <!-- Generator: Sketch 39.1 (31720) - http://www.bohemiancoding.com/sketch -->
    <title>icon-grid-final</title>
    <desc>Created with Sketch.</desc>
    <defs></defs>
    <g id="Templates" stroke="none" stroke-width="1" fill="none" fill-rule="evenodd">
        <g id="15-icons-(2)" transform="translate(-851.000000, -1286.000000)">
            <g id="icon-grid-final" transform="translate(851.000000, 1287.000000)">
                <g transform="translate(178.000000, 0.000000)" stroke="#9B9B9B">
                    <path d="M179.552239,90 C179.552239,139.45791 139.45791,179.552239 90,179.552239 C40.5420896,179.552239 0.447761194,139.45791 0.447761194,90 C0.447761194,40.5420896 40.5420896,0.447761194 90,0.447761194 C139.45791,0.447761194 179.552239,40.5420896 179.552239,90 L179.552239,90 Z" id="Stroke-1"></path>
                    <path d="M140.373134,90 C140.373134,117.820299 117.820299,140.373134 90,140.373134 C62.1797015,140.373134 39.6268657,117.820299 39.6268657,90 C39.6268657,62.1797015 62.1797015,39.6268657 90,39.6268657 C117.820299,39.6268657 140.373134,62.1797015 140.373134,90 L140.373134,90 Z" id="Stroke-3"></path>
                    <path d="M111.251194,90 C111.251194,101.736716 101.737164,111.250746 90.0004478,111.250746 C78.2637313,111.250746 68.748806,101.736716 68.748806,90 C68.748806,78.2632836 78.2637313,68.7492537 90.0004478,68.7492537 C101.737164,68.7492537 111.251194,78.2632836 111.251194,90 L111.251194,90 Z" id="Stroke-7"></path>
                    <path d="M95.0429552,90 C95.0429552,92.7850746 92.7853433,95.0426866 90.0002687,95.0426866 C87.215194,95.0426866 84.9566866,92.7850746 84.9566866,90 C84.9566866,87.2149254 87.215194,84.9573134 90.0002687,84.9573134 C92.7853433,84.9573134 95.0429552,87.2149254 95.0429552,90 L95.0429552,90 Z" id="Stroke-9"></path>
                </g>
                <path d="M1.628,60.922 C1.628,60.4 1.322,60.076 0.836,60.076 C0.35,60.076 0.044,60.4 0.044,60.922 L0.044,72.262 C0.044,72.784 0.35,73.108 0.836,73.108 C1.322,73.108 1.628,72.784 1.628,72.262 L1.628,60.922 Z M3.716,72.262 C3.716,72.784 4.022,73.108 4.508,73.108 C4.994,73.108 5.3,72.784 5.3,72.262 L5.3,67.042 C5.3,65.368 6.47,64.684 7.514,64.684 C8.558,64.684 9.728,65.368 9.728,67.042 L9.728,72.262 C9.728,72.784 10.034,73.108 10.52,73.108 C11.006,73.108 11.312,72.784 11.312,72.262 L11.312,66.952 C11.312,64.252 9.458,63.316 7.982,63.316 C7.028,63.316 6.038,63.676 5.336,64.576 L5.3,64.54 L5.3,64.162 C5.3,63.64 4.994,63.316 4.508,63.316 C4.022,63.316 3.716,63.64 3.716,64.162 L3.716,72.262 Z M13.4,72.262 C13.4,72.784 13.706,73.108 14.192,73.108 C14.678,73.108 14.984,72.784 14.984,72.262 L14.984,67.042 C14.984,65.368 16.154,64.684 17.198,64.684 C18.242,64.684 19.412,65.368 19.412,67.042 L19.412,72.262 C19.412,72.784 19.718,73.108 20.204,73.108 C20.69,73.108 20.996,72.784 20.996,72.262 L20.996,66.952 C20.996,64.252 19.142,63.316 17.666,63.316 C16.712,63.316 15.722,63.676 15.02,64.576 L14.984,64.54 L14.984,64.162 C14.984,63.64 14.678,63.316 14.192,63.316 C13.706,63.316 13.4,63.64 13.4,64.162 L13.4,72.262 Z M30.05,68.824 C30.734,68.824 30.932,68.536 30.932,67.978 C30.932,65.674 29.42,63.316 26.81,63.316 C24.128,63.316 22.508,65.62 22.508,68.212 C22.508,70.75 23.84,73.108 26.9,73.108 C28.772,73.108 30.734,71.92 30.734,71.146 C30.734,70.696 30.446,70.444 30.158,70.444 C29.564,70.444 29.024,71.74 26.918,71.74 C25.136,71.74 24.092,70.462 24.092,68.824 L30.05,68.824 Z M24.092,67.636 C24.146,66.178 24.848,64.612 26.81,64.684 C28.556,64.684 29.348,66.268 29.348,67.636 L24.092,67.636 Z M32.444,72.262 C32.444,72.784 32.75,73.108 33.236,73.108 C33.722,73.108 34.028,72.784 34.028,72.262 L34.028,67.708 C34.028,65.854 35.18,65.152 36.116,64.99 C36.782,64.864 37.106,64.576 37.106,64.126 C37.106,63.676 36.782,63.316 36.224,63.316 C35.306,63.316 34.424,64.234 34.064,64.972 L34.028,64.972 L34.028,64.162 C34.028,63.64 33.722,63.316 33.236,63.316 C32.75,63.316 32.444,63.64 32.444,64.162 L32.444,72.262 Z M42.2,68.212 C42.2,70.75 43.604,73.108 46.52,73.108 C48.158,73.108 49.04,72.46 49.04,71.866 C49.04,71.434 48.788,71.2 48.428,71.2 C47.924,71.2 47.636,71.74 46.52,71.74 C44.558,71.74 43.784,69.832 43.784,68.212 C43.784,66.592 44.558,64.684 46.52,64.684 C47.6,64.684 47.834,65.188 48.446,65.188 C48.824,65.188 49.094,64.846 49.094,64.522 C49.094,63.874 48.14,63.316 46.52,63.316 C43.604,63.316 42.2,65.674 42.2,68.212 L42.2,68.212 Z M52.19,64.162 C52.19,63.64 51.884,63.316 51.398,63.316 C50.912,63.316 50.606,63.64 50.606,64.162 L50.606,72.262 C50.606,72.784 50.912,73.108 51.398,73.108 C51.884,73.108 52.19,72.784 52.19,72.262 L52.19,64.162 Z M50.426,61.048 C50.426,61.588 50.858,62.02 51.398,62.02 C51.938,62.02 52.37,61.588 52.37,61.048 C52.37,60.508 51.938,60.076 51.398,60.076 C50.858,60.076 50.426,60.508 50.426,61.048 L50.426,61.048 Z M54.278,72.262 C54.278,72.784 54.584,73.108 55.07,73.108 C55.556,73.108 55.862,72.784 55.862,72.262 L55.862,67.708 C55.862,65.854 57.014,65.152 57.95,64.99 C58.616,64.864 58.94,64.576 58.94,64.126 C58.94,63.676 58.616,63.316 58.058,63.316 C57.14,63.316 56.258,64.234 55.898,64.972 L55.862,64.972 L55.862,64.162 C55.862,63.64 55.556,63.316 55.07,63.316 C54.584,63.316 54.278,63.64 54.278,64.162 L54.278,72.262 Z M59.534,68.212 C59.534,70.75 60.938,73.108 63.854,73.108 C65.492,73.108 66.374,72.46 66.374,71.866 C66.374,71.434 66.122,71.2 65.762,71.2 C65.258,71.2 64.97,71.74 63.854,71.74 C61.892,71.74 61.118,69.832 61.118,68.212 C61.118,66.592 61.892,64.684 63.854,64.684 C64.934,64.684 65.168,65.188 65.78,65.188 C66.158,65.188 66.428,64.846 66.428,64.522 C66.428,63.874 65.474,63.316 63.854,63.316 C60.938,63.316 59.534,65.674 59.534,68.212 L59.534,68.212 Z M69.524,59.95 C69.524,59.428 69.218,59.104 68.732,59.104 C68.246,59.104 67.94,59.428 67.94,59.95 L67.94,72.262 C67.94,72.784 68.246,73.108 68.732,73.108 C69.218,73.108 69.524,72.784 69.524,72.262 L69.524,59.95 Z M78.578,68.824 C79.262,68.824 79.46,68.536 79.46,67.978 C79.46,65.674 77.948,63.316 75.338,63.316 C72.656,63.316 71.036,65.62 71.036,68.212 C71.036,70.75 72.368,73.108 75.428,73.108 C77.3,73.108 79.262,71.92 79.262,71.146 C79.262,70.696 78.974,70.444 78.686,70.444 C78.092,70.444 77.552,71.74 75.446,71.74 C73.664,71.74 72.62,70.462 72.62,68.824 L78.578,68.824 Z M72.62,67.636 C72.674,66.178 73.376,64.612 75.338,64.684 C77.084,64.684 77.876,66.268 77.876,67.636 L72.62,67.636 Z" id="Inner-circle" fill="#4A4A4A"></path>
                <path d="M1.628,118.212 L4.076,118.212 C6.416,118.212 8.18,116.448 8.18,114.216 C8.18,111.984 6.596,110.184 4.022,110.184 L0.89,110.184 C0.296,110.184 0.044,110.562 0.044,111.048 L0.044,122.262 C0.044,122.784 0.35,123.108 0.836,123.108 C1.322,123.108 1.628,122.784 1.628,122.262 L1.628,118.212 Z M1.628,111.552 L3.896,111.552 C5.876,111.552 6.596,112.956 6.596,114.216 C6.596,115.674 5.534,116.844 3.968,116.844 L1.628,116.844 L1.628,111.552 Z M17.306,114.09 C17.306,113.532 16.874,113.316 16.568,113.316 C16.244,113.316 15.83,113.532 15.83,114.09 L15.83,114.594 L15.794,114.594 C15.056,113.784 14.282,113.316 13.184,113.316 C10.484,113.316 8.972,115.674 8.972,118.212 C8.972,120.75 10.484,123.108 13.184,123.108 C14.21,123.108 15.11,122.64 15.794,121.668 L15.83,121.668 L15.83,122.334 C15.83,122.892 16.244,123.108 16.568,123.108 C16.874,123.108 17.306,122.892 17.306,122.334 L17.306,114.09 Z M10.556,118.212 C10.556,116.592 11.24,114.684 13.184,114.684 C15.128,114.684 15.812,116.592 15.812,118.212 C15.812,119.832 15.128,121.74 13.184,121.74 C11.24,121.74 10.556,119.832 10.556,118.212 L10.556,118.212 Z M25.82,118.212 C25.82,119.832 25.136,121.74 23.192,121.74 C21.248,121.74 20.564,119.832 20.564,118.212 C20.564,116.592 21.248,114.684 23.192,114.684 C25.136,114.684 25.82,116.592 25.82,118.212 L25.82,118.212 Z M25.658,122.262 C25.658,122.784 25.964,123.108 26.45,123.108 C26.936,123.108 27.242,122.784 27.242,122.262 L27.242,109.95 C27.242,109.428 26.936,109.104 26.45,109.104 C25.964,109.104 25.658,109.428 25.658,109.95 L25.658,114.612 L25.622,114.612 C25.208,114.018 24.326,113.316 23.066,113.316 C20.474,113.316 18.98,115.674 18.98,118.212 C18.98,120.75 20.474,123.108 23.066,123.108 C24.326,123.108 25.172,122.658 25.622,121.794 L25.658,121.794 L25.658,122.262 Z M35.828,118.212 C35.828,119.832 35.144,121.74 33.2,121.74 C31.256,121.74 30.572,119.832 30.572,118.212 C30.572,116.592 31.256,114.684 33.2,114.684 C35.144,114.684 35.828,116.592 35.828,118.212 L35.828,118.212 Z M35.666,122.262 C35.666,122.784 35.972,123.108 36.458,123.108 C36.944,123.108 37.25,122.784 37.25,122.262 L37.25,109.95 C37.25,109.428 36.944,109.104 36.458,109.104 C35.972,109.104 35.666,109.428 35.666,109.95 L35.666,114.612 L35.63,114.612 C35.216,114.018 34.334,113.316 33.074,113.316 C30.482,113.316 28.988,115.674 28.988,118.212 C28.988,120.75 30.482,123.108 33.074,123.108 C34.334,123.108 35.18,122.658 35.63,121.794 L35.666,121.794 L35.666,122.262 Z M40.994,114.162 C40.994,113.64 40.688,113.316 40.202,113.316 C39.716,113.316 39.41,113.64 39.41,114.162 L39.41,122.262 C39.41,122.784 39.716,123.108 40.202,123.108 C40.688,123.108 40.994,122.784 40.994,122.262 L40.994,114.162 Z M39.23,111.048 C39.23,111.588 39.662,112.02 40.202,112.02 C40.742,112.02 41.174,111.588 41.174,111.048 C41.174,110.508 40.742,110.076 40.202,110.076 C39.662,110.076 39.23,110.508 39.23,111.048 L39.23,111.048 Z M43.082,122.262 C43.082,122.784 43.388,123.108 43.874,123.108 C44.36,123.108 44.666,122.784 44.666,122.262 L44.666,117.042 C44.666,115.368 45.836,114.684 46.88,114.684 C47.924,114.684 49.094,115.368 49.094,117.042 L49.094,122.262 C49.094,122.784 49.4,123.108 49.886,123.108 C50.372,123.108 50.678,122.784 50.678,122.262 L50.678,116.952 C50.678,114.252 48.824,113.316 47.348,113.316 C46.394,113.316 45.404,113.676 44.702,114.576 L44.666,114.54 L44.666,114.162 C44.666,113.64 44.36,113.316 43.874,113.316 C43.388,113.316 43.082,113.64 43.082,114.162 L43.082,122.262 Z M60.614,114.09 C60.614,113.532 60.182,113.316 59.876,113.316 C59.444,113.316 59.03,113.532 59.03,114.09 L59.03,114.522 L58.994,114.522 C58.58,113.946 57.59,113.316 56.564,113.316 C53.864,113.316 52.352,115.674 52.352,118.212 C52.352,120.75 53.864,123.108 56.564,123.108 C57.644,123.108 58.508,122.568 58.994,121.74 L59.03,121.74 L59.03,122.568 C59.03,123.936 58.436,125.52 56.42,125.52 C54.71,125.52 54.008,124.404 53.288,124.404 C52.784,124.404 52.622,124.818 52.622,125.142 C52.622,125.952 54.656,126.888 56.294,126.888 C58.886,126.888 60.614,125.16 60.614,122.316 L60.614,114.09 Z M53.936,118.212 C53.936,116.592 54.62,114.684 56.564,114.684 C58.508,114.684 59.192,116.592 59.192,118.212 C59.192,119.832 58.508,121.74 56.564,121.74 C54.62,121.74 53.936,119.832 53.936,118.212 L53.936,118.212 Z" id="Padding" fill="#4A4A4A"></path>
                <path d="M237.5,68.5 L87.5,68.5" id="Line" stroke="#2F302E" stroke-linecap="square"></path>
                <path d="M203.5,118.5 L70.5,118.5" id="Line" stroke="#2F302E" stroke-linecap="square"></path>
            </g>
        </g>
    </g>
</svg>