<?xml version="1.0" encoding="utf-8"?>
<!-- Generator: Adobe Illustrator 20.0.0, SVG Export Plug-In . SVG Version: 6.00 Build 0)  -->
<svg version="1.1" id="Layer_1" xmlns="http://www.w3.org/2000/svg" xmlns:xlink="http://www.w3.org/1999/xlink" x="0px" y="0px"
	 viewBox="0 0 201 201" style="enable-background:new 0 0 201 201;" xml:space="preserve">
<style type="text/css">
	.st0{fill:#86786F;}
	.st1{fill:#FFFFFF;}
</style>
<title>icon-up-black-cherry</title>
<desc>Created with Sketch.</desc>
<g id="Page-1_1_">
	<g id="Icons" transform="translate(-561.000000, -444.000000)">
		<g id="Black-cherry-and-white" transform="translate(52.000000, 362.000000)">
			<g id="icon-up-black-cherry" transform="translate(509.000000, 82.000000)">
				<g id="up">
					<path id="Stroke-1" class="st0" d="M200.5,100.5c0,55.2-44.8,100-100,100s-100-44.8-100-100s44.8-100,100-100
						S200.5,45.3,200.5,100.5L200.5,100.5L200.5,100.5z"/>
					<path id="Page-1" class="st1" d="M111.2,51.9c-5.5-5.5-14.3-5.5-19.8,0L56.9,86.4c-5.5,5.5-5.5,14.3,0,19.8l0.1,0.1
						c5.5,5.5,14.3,5.5,19.8,0l10.1-10.1v45.5c0,7.7,6.3,14,14,14h0.2c7.7,0,14-6.3,14-14v-46l11,11c5.5,5.5,14.3,5.5,19.8,0
						l0.1-0.1c5.5-5.5,5.5-14.3,0-19.8L111.2,51.9L111.2,51.9z"/>
				</g>
			</g>
		</g>
	</g>
</g>
</svg>
