<?xml version="1.0" encoding="UTF-8" standalone="no"?>
<svg width="90px" height="90px" viewBox="0 0 90 90" version="1.1" xmlns="http://www.w3.org/2000/svg" xmlns:xlink="http://www.w3.org/1999/xlink">
    <!-- Generator: Sketch 39.1 (31720) - http://www.bohemiancoding.com/sketch -->
    <title>icon-twitter-midnight</title>
    <desc>Created with Sketch.</desc>
    <defs></defs>
    <g id="Templates" stroke="none" stroke-width="1" fill="none" fill-rule="evenodd">
        <g id="15-icons-(2)" transform="translate(-745.000000, -3124.000000)">
            <g id="icon-twitter-midnight" transform="translate(745.219971, 3124.219971)">
                <g id="Group" fill="#1D3661">
                    <g id="Grid-calculator">
                        <g id="Page-1">
                            <path d="M89.7761194,45 C89.7761194,69.7289552 69.7289552,89.7761194 45,89.7761194 C20.2710448,89.7761194 0.223880597,69.7289552 0.223880597,45 C0.223880597,20.2710448 20.2710448,0.223880597 45,0.223880597 C69.7289552,0.223880597 89.7761194,20.2710448 89.7761194,45 L89.7761194,45 Z" id="Stroke-1"></path>
                        </g>
                    </g>
                </g>
                <g id="Fill-264" transform="translate(24.179104, 29.104478)" fill="#009FE3">
                    <path d="M42.8113945,4.52229017 C41.2587297,5.2147737 39.9502185,5.23766572 38.5615945,4.55281286 C40.3526906,3.48070337 40.434711,2.72908212 41.0813368,0.70123089 C39.4065951,1.69512599 37.5506456,2.41813221 35.5764342,2.80920418 C33.9970651,1.12473322 31.7424584,0.0697927367 29.2513279,0.0697927367 C24.4636268,0.0697927367 20.5838721,3.95380506 20.5838721,8.73823675 C20.5838721,9.41927428 20.6601702,10.0812351 20.8070439,10.7145809 C13.6026028,10.3540317 7.21645802,6.90115234 2.94186113,1.65506496 C2.19604793,2.93701795 1.76687153,4.42690676 1.76687153,6.01599432 C1.76687153,9.02438697 3.2985544,11.6760457 5.62373674,13.2307952 C4.20268601,13.1850112 2.86747055,12.7958469 1.69820331,12.1472397 C1.69629586,12.1834854 1.69629586,12.2178234 1.69629586,12.2559768 C1.69629586,16.456662 4.68527102,19.9591407 8.65086091,20.756546 C7.38049878,21.1018339 6.04146843,21.1552487 4.73486474,20.9053441 C5.83927866,24.3486851 9.03998084,26.855361 12.8319927,26.9259448 C9.12390867,29.833231 4.52504516,31.0446003 0.000572235193,30.5142685 C3.83645548,32.9732528 8.39144762,34.4078192 13.285966,34.4078192 C29.2303459,34.4078192 37.9454879,21.199125 37.9454879,9.74357786 C37.9454879,9.36585957 37.9397656,8.99577195 37.9225985,8.621869 C39.6145072,7.40096139 41.6497571,6.26208351 42.8113945,4.52229017"></path>
                </g>
            </g>
        </g>
    </g>
</svg>