<?xml version="1.0" encoding="UTF-8" standalone="no"?>
<svg width="201px" height="201px" viewBox="0 0 201 201" version="1.1" xmlns="http://www.w3.org/2000/svg" xmlns:xlink="http://www.w3.org/1999/xlink">
    <!-- Generator: Sketch 39.1 (31720) - http://www.bohemiancoding.com/sketch -->
    <title>icon-calculator-midnight</title>
    <desc>Created with Sketch.</desc>
    <defs></defs>
    <g id="Page-1" stroke="none" stroke-width="1" fill="none" fill-rule="evenodd">
        <g id="Icons" transform="translate(-1552.000000, -3702.000000)">
            <g id="Midnight-on-sky" transform="translate(43.000000, 3309.000000)">
                <g id="icon-calculator-midnight" transform="translate(1509.000000, 393.000000)">
                    <path d="M200.5,100.5 C200.5,155.728 155.728,200.5 100.5,200.5 C45.272,200.5 0.5,155.728 0.5,100.5 C0.5,45.272 45.272,0.5 100.5,0.5 C155.728,0.5 200.5,45.272 200.5,100.5 L200.5,100.5 Z" id="Stroke-1" fill="#1D3661"></path>
                    <g id="Group" transform="translate(61.000000, 56.000000)">
                        <path d="M79.1983464,11.25 C79.1983464,5.0371875 74.1451679,0 67.9126321,0 L11.4840607,0 C5.251525,0 0.198346429,5.0371875 0.198346429,11.25 L0.198346429,78.75 C0.198346429,84.9628125 5.251525,90 11.4840607,90 L67.9126321,90 C74.1451679,90 79.1983464,84.9628125 79.1983464,78.75 L79.1983464,11.25 Z" id="Fill-2390" fill="#009FE3"></path>
                        <path d="M21.3590607,63.45675 C21.3590607,64.137375 20.8060607,64.6872188 20.1246857,64.6872188 L12.7184357,64.6872188 C12.0370607,64.6872188 11.4840607,64.137375 11.4840607,63.45675 L11.4840607,56.0739375 C11.4840607,55.3947188 12.0370607,54.8434688 12.7184357,54.8434688 L20.1246857,54.8434688 C20.8060607,54.8434688 21.3590607,55.3947188 21.3590607,56.0739375 L21.3590607,63.45675 Z" id="Fill-2391" fill="#1D3661"></path>
                        <path d="M21.3590607,80.33175 C21.3590607,81.012375 20.8060607,81.5622187 20.1246857,81.5622187 L12.7184357,81.5622187 C12.0370607,81.5622187 11.4840607,81.012375 11.4840607,80.33175 L11.4840607,72.9489375 C11.4840607,72.2697187 12.0370607,71.7184687 12.7184357,71.7184687 L20.1246857,71.7184687 C20.8060607,71.7184687 21.3590607,72.2697187 21.3590607,72.9489375 L21.3590607,80.33175 Z" id="Fill-2392" fill="#1D3661"></path>
                        <path d="M36.8769179,46.58175 C36.8769179,47.262375 36.3239179,47.8122188 35.6425429,47.8122188 L28.2362929,47.8122188 C27.5549179,47.8122188 27.0019179,47.262375 27.0019179,46.58175 L27.0019179,39.1989375 C27.0019179,38.5197188 27.5549179,37.9684688 28.2362929,37.9684688 L35.6425429,37.9684688 C36.3239179,37.9684688 36.8769179,38.5197188 36.8769179,39.1989375 L36.8769179,46.58175 Z" id="Fill-2393" fill="#1D3661"></path>
                        <path d="M36.8769179,63.45675 C36.8769179,64.137375 36.3239179,64.6872188 35.6425429,64.6872188 L28.2362929,64.6872188 C27.5549179,64.6872188 27.0019179,64.137375 27.0019179,63.45675 L27.0019179,56.0739375 C27.0019179,55.3947188 27.5549179,54.8434688 28.2362929,54.8434688 L35.6425429,54.8434688 C36.3239179,54.8434688 36.8769179,55.3947188 36.8769179,56.0739375 L36.8769179,63.45675 Z" id="Fill-2394" fill="#1D3661"></path>
                        <path d="M36.8769179,80.33175 C36.8769179,81.012375 36.3239179,81.5622187 35.6425429,81.5622187 L28.2362929,81.5622187 C27.5549179,81.5622187 27.0019179,81.012375 27.0019179,80.33175 L27.0019179,72.9489375 C27.0019179,72.2697187 27.5549179,71.7184687 28.2362929,71.7184687 L35.6425429,71.7184687 C36.3239179,71.7184687 36.8769179,72.2697187 36.8769179,72.9489375 L36.8769179,80.33175 Z" id="Fill-2395" fill="#1D3661"></path>
                        <path d="M52.394775,46.58175 C52.394775,47.262375 51.841775,47.8122188 51.1604,47.8122188 L43.75415,47.8122188 C43.072775,47.8122188 42.519775,47.262375 42.519775,46.58175 L42.519775,39.1989375 C42.519775,38.5197188 43.072775,37.9684688 43.75415,37.9684688 L51.1604,37.9684688 C51.841775,37.9684688 52.394775,38.5197188 52.394775,39.1989375 L52.394775,46.58175 Z" id="Fill-2396" fill="#1D3661"></path>
                        <path d="M67.9126321,46.58175 C67.9126321,47.262375 67.3596321,47.8122188 66.6782571,47.8122188 L59.2720071,47.8122188 C58.5906321,47.8122188 58.0376321,47.262375 58.0376321,46.58175 L58.0376321,39.1989375 C58.0376321,38.5197188 58.5906321,37.9684688 59.2720071,37.9684688 L66.6782571,37.9684688 C67.3596321,37.9684688 67.9126321,38.5197188 67.9126321,39.1989375 L67.9126321,46.58175 Z" id="Fill-2397" fill="#1D3661"></path>
                        <path d="M52.394775,63.45675 C52.394775,64.137375 51.841775,64.6872188 51.1604,64.6872188 L43.75415,64.6872188 C43.072775,64.6872188 42.519775,64.137375 42.519775,63.45675 L42.519775,56.0739375 C42.519775,55.3947188 43.072775,54.8434688 43.75415,54.8434688 L51.1604,54.8434688 C51.841775,54.8434688 52.394775,55.3947188 52.394775,56.0739375 L52.394775,63.45675 Z" id="Fill-2398" fill="#1D3661"></path>
                        <path d="M52.394775,80.33175 C52.394775,81.012375 51.841775,81.5622187 51.1604,81.5622187 L43.75415,81.5622187 C43.072775,81.5622187 42.519775,81.012375 42.519775,80.33175 L42.519775,72.9489375 C42.519775,72.2697187 43.072775,71.7184687 43.75415,71.7184687 L51.1604,71.7184687 C51.841775,71.7184687 52.394775,72.2697187 52.394775,72.9489375 L52.394775,80.33175 Z" id="Fill-2399" fill="#1D3661"></path>
                        <path d="M67.9126321,80.33175 C67.9126321,81.012375 67.3596321,81.5622187 66.6782571,81.5622187 L59.2720071,81.5622187 C58.5906321,81.5622187 58.0376321,81.012375 58.0376321,80.33175 L58.0376321,56.2497187 C58.0376321,55.5705 58.5906321,55.01925 59.2720071,55.01925 L66.6782571,55.01925 C67.3596321,55.01925 67.9126321,55.5705 67.9126321,56.2497187 L67.9126321,80.33175 Z" id="Fill-2400" fill="#1D3661"></path>
                        <path d="M21.3590607,46.58175 C21.3590607,47.262375 20.8060607,47.8122188 20.1246857,47.8122188 L12.7184357,47.8122188 C12.0370607,47.8122188 11.4840607,47.262375 11.4840607,46.58175 L11.4840607,39.1989375 C11.4840607,38.5197188 12.0370607,37.9684688 12.7184357,37.9684688 L20.1246857,37.9684688 C20.8060607,37.9684688 21.3590607,38.5197188 21.3590607,39.1989375 L21.3590607,46.58175 Z" id="Fill-2401" fill="#1D3661"></path>
                        <path d="M67.9126321,14.0625 L67.9126321,25.3125 C67.9126321,28.4203125 65.3874536,30.9375 62.269775,30.9375 L17.1269179,30.9375 C14.0092393,30.9375 11.4840607,28.4203125 11.4840607,25.3125 L11.4840607,14.0625 C11.4840607,10.9546875 14.0092393,8.4375 17.1269179,8.4375 L62.269775,8.4375 C65.3874536,8.4375 67.9126321,10.9546875 67.9126321,14.0625" id="Fill-2402" fill="#1D3661"></path>
                    </g>
                </g>
            </g>
        </g>
    </g>
</svg>