<?xml version="1.0" encoding="UTF-8" standalone="no"?>
<svg width="201px" height="201px" viewBox="0 0 201 201" version="1.1" xmlns="http://www.w3.org/2000/svg" xmlns:xlink="http://www.w3.org/1999/xlink">
    <!-- Generator: Sketch 39.1 (31720) - http://www.bohemiancoding.com/sketch -->
    <title>icon-tick-bullets-midnight</title>
    <desc>Created with Sketch.</desc>
    <defs></defs>
    <g id="Page-1" stroke="none" stroke-width="1" fill="none" fill-rule="evenodd">
        <g id="Icons" transform="translate(-804.000000, -4021.000000)">
            <g id="Midnight-on-sky" transform="translate(43.000000, 3309.000000)">
                <g id="icon-tick-bullets-midnight" transform="translate(761.000000, 712.000000)">
                    <path d="M200.5,100.5 C200.5,155.728 155.728,200.5 100.5,200.5 C45.272,200.5 0.5,155.728 0.5,100.5 C0.5,45.272 45.272,0.5 100.5,0.5 C155.728,0.5 200.5,45.272 200.5,100.5 L200.5,100.5 Z" id="Stroke-1" fill="#1D3661"></path>
                    <g id="Fill-2049-+-Fill-2050" transform="translate(60.000000, 60.000000)" fill="#009FE3">
                        <path d="M11.1451437,68.9655172 L65.905707,68.9655172 L65.905707,19.3103448 L11.1451437,19.3103448 L11.1451437,68.9655172 Z M68.6437352,80 L8.40711549,80 C3.87704789,80 0.193030986,76.2882759 0.193030986,71.7241379 L0.193030986,16.5517241 C0.193030986,11.9875862 3.87704789,8.27586207 8.40711549,8.27586207 L68.6437352,8.27586207 C73.1724338,8.27586207 76.8578197,11.9875862 76.8578197,16.5517241 L76.8578197,71.7241379 C76.8578197,76.2882759 73.1724338,80 68.6437352,80 L68.6437352,80 Z" id="Fill-2049"></path>
                        <path d="M39.8932073,63.4482759 C37.8999228,63.4482759 35.9997313,62.5724138 34.6964299,61.04 L18.2682608,41.7296552 C15.8081425,38.8372414 16.140813,34.4841379 19.0116355,32.0055172 C21.881089,29.5241379 26.2016975,29.8593103 28.6631848,32.7531034 L39.4031003,45.377931 L73.3464355,4.13793103 C78.6007115,-3.27724138 84.1014101,0.828965517 78.8224918,8.27586207 L45.4637256,60.56 C44.2411961,62.2855172 42.2985651,63.3475862 40.1957594,63.4413793 C40.0944524,63.4455172 39.9945144,63.4482759 39.8932073,63.4482759" id="Fill-2050"></path>
                    </g>
                </g>
            </g>
        </g>
    </g>
</svg>