<?xml version="1.0" encoding="utf-8"?>
<!-- Generator: Adobe Illustrator 20.0.0, SVG Export Plug-In . SVG Version: 6.00 Build 0)  -->
<svg version="1.1" id="Layer_1" xmlns="http://www.w3.org/2000/svg" xmlns:xlink="http://www.w3.org/1999/xlink" x="0px" y="0px"
	 viewBox="0 0 201 201" style="enable-background:new 0 0 201 201;" xml:space="preserve">
<style type="text/css">
	.st0{fill:#86786F;}
	.st1{fill:#FFFFFF;}
</style>
<title>icon-save-later-black-cherry</title>
<desc>Created with Sketch.</desc>
<g id="Page-1">
	<g id="Icons" transform="translate(-561.000000, -1070.000000)">
		<g id="Black-cherry-and-white" transform="translate(52.000000, 362.000000)">
			<g id="icon-save-later-black-cherry" transform="translate(509.000000, 708.000000)">
				<g id="Group">
					<path id="Stroke-1" class="st0" d="M200.5,100.5c0,55.2-44.8,100-100,100s-100-44.8-100-100s44.8-100,100-100
						S200.5,45.3,200.5,100.5L200.5,100.5z"/>
					<path id="Fill-4889" class="st1" d="M142.9,75.7c0-1.4-0.5-2.7-1.5-3.7l-12.5-12.5c-1-1-2.3-1.5-3.7-1.5H65.4
						c-2.9,0-5.2,2.3-5.2,5.2v72.6c0,2.9,2.3,5.2,5.2,5.2h72.4c2.9,0,5.2-2.3,5.2-5.2V75.7z"/>
					<path id="Fill-4892" class="st0" d="M122.2,61H86v20.8c0,2.9,2.3,5.2,5.2,5.2H117c2.9,0,5.2-2.3,5.2-5.2V61z"/>
					<polygon id="Fill-4894" class="st0" points="132.6,96.5 70.5,96.5 70.5,138 132.6,138 					"/>
					<polygon id="Fill-4895" class="st1" points="117,84.3 106.7,84.3 106.7,63.6 117,63.6 					"/>
					<path id="Fill-4896" class="st1" d="M123.5,108.2c0,0.7-0.6,1.3-1.3,1.3H82.2c-0.7,0-1.3-0.6-1.3-1.3c0-0.7,0.6-1.3,1.3-1.3
						h40.1C122.9,106.9,123.5,107.5,123.5,108.2"/>
					<path id="Fill-4897" class="st1" d="M123.5,118.5c0,0.7-0.6,1.3-1.3,1.3H82.2c-0.7,0-1.3-0.6-1.3-1.3c0-0.7,0.6-1.3,1.3-1.3
						h40.1C122.9,117.2,123.5,117.8,123.5,118.5"/>
					<path id="Fill-4898" class="st1" d="M123.5,128.9c0,0.7-0.6,1.3-1.3,1.3H82.2c-0.7,0-1.3-0.6-1.3-1.3c0-0.7,0.6-1.3,1.3-1.3
						h40.1C122.9,127.6,123.5,128.2,123.5,128.9"/>
				</g>
			</g>
		</g>
	</g>
</g>
</svg>
