<?xml version="1.0" encoding="UTF-8" standalone="no"?>
<svg width="201px" height="201px" viewBox="0 0 201 201" version="1.1" xmlns="http://www.w3.org/2000/svg" xmlns:xlink="http://www.w3.org/1999/xlink">
    <!-- Generator: Sketch 39.1 (31720) - http://www.bohemiancoding.com/sketch -->
    <title>icon-save-later-midnight</title>
    <desc>Created with Sketch.</desc>
    <defs></defs>
    <g id="Page-1" stroke="none" stroke-width="1" fill="none" fill-rule="evenodd">
        <g id="Icons" transform="translate(-552.000000, -4017.000000)">
            <g id="Midnight-on-sky" transform="translate(43.000000, 3309.000000)">
                <g id="icon-save-later-midnight" transform="translate(509.000000, 708.000000)">
                    <g id="Group">
                        <path d="M200.5,100.5 C200.5,155.728 155.728,200.5 100.5,200.5 C45.272,200.5 0.5,155.728 0.5,100.5 C0.5,45.272 45.272,0.5 100.5,0.5 C155.728,0.5 200.5,45.272 200.5,100.5 L200.5,100.5 Z" id="Stroke-1" fill="#1D3661"></path>
                        <path d="M142.889132,75.7116812 C142.889132,74.3344 142.345071,73.0154781 141.374548,72.0428219 L128.894732,59.5201969 C127.925502,58.5462437 126.611225,58.0002594 125.240086,58.0002594 L65.3506708,58.0002594 C62.4959631,58.0002594 60.18144,60.3229625 60.18144,63.1877594 L60.18144,135.812759 C60.18144,138.677556 62.4959631,141.000259 65.3506708,141.000259 L137.719902,141.000259 C140.574609,141.000259 142.889132,138.677556 142.889132,135.812759 L142.889132,75.7116812 Z" id="Fill-4889" fill="#009FE3"></path>
                        <path d="M122.212209,61 L86.0275938,61 L86.0275938,81.75 C86.0275938,84.6147969 88.3421169,86.9375 91.1968246,86.9375 L117.042978,86.9375 C119.897686,86.9375 122.212209,84.6147969 122.212209,81.75 L122.212209,61 Z" id="Fill-4892" fill="#1D3661"></path>
                        <polygon id="Fill-4894" fill="#1D3661" points="132.550154 96.5 70.5193846 96.5 70.5193846 138 132.550154 138"></polygon>
                        <polygon id="Fill-4895" fill="#009FE3" points="117.042462 84.34375 106.704 84.34375 106.704 63.59375 117.042462 63.59375"></polygon>
                        <path d="M123.504517,108.171875 C123.504517,108.889047 122.925563,109.46875 122.212209,109.46875 L82.1506708,109.46875 C81.4373169,109.46875 80.8583631,108.889047 80.8583631,108.171875 C80.8583631,107.456 81.4373169,106.875 82.1506708,106.875 L122.212209,106.875 C122.925563,106.875 123.504517,107.456 123.504517,108.171875" id="Fill-4896" fill="#009FE3"></path>
                        <path d="M123.504517,118.546875 C123.504517,119.264047 122.925563,119.84375 122.212209,119.84375 L82.1506708,119.84375 C81.4373169,119.84375 80.8583631,119.264047 80.8583631,118.546875 C80.8583631,117.831 81.4373169,117.25 82.1506708,117.25 L122.212209,117.25 C122.925563,117.25 123.504517,117.831 123.504517,118.546875" id="Fill-4897" fill="#009FE3"></path>
                        <path d="M123.504517,128.921875 C123.504517,129.639047 122.925563,130.21875 122.212209,130.21875 L82.1506708,130.21875 C81.4373169,130.21875 80.8583631,129.639047 80.8583631,128.921875 C80.8583631,128.206 81.4373169,127.625 82.1506708,127.625 L122.212209,127.625 C122.925563,127.625 123.504517,128.206 123.504517,128.921875" id="Fill-4898" fill="#009FE3"></path>
                    </g>
                </g>
            </g>
        </g>
    </g>
</svg>