<?xml version="1.0" encoding="UTF-8" standalone="no"?>
<svg width="90px" height="90px" viewBox="0 0 90 90" version="1.1" xmlns="http://www.w3.org/2000/svg" xmlns:xlink="http://www.w3.org/1999/xlink">
    <!-- Generator: Sketch 39.1 (31720) - http://www.bohemiancoding.com/sketch -->
    <title>icon-instagram-midnight</title>
    <desc>Created with Sketch.</desc>
    <defs></defs>
    <g id="Templates" stroke="none" stroke-width="1" fill="none" fill-rule="evenodd">
        <g id="15-icons-(2)" transform="translate(-844.000000, -3124.000000)">
            <g id="icon-instagram-midnight" transform="translate(844.219971, 3124.000000)">
                <g id="Group" fill="#1D3661">
                    <g id="Grid-calculator">
                        <g id="Page-1">
                            <path d="M45,89.7761194 C20.2710448,89.7761194 0.223880597,69.7289552 0.223880597,45 C0.223880597,20.2710448 20.2710448,0.223880597 45,0.223880597 C69.7289552,0.223880597 89.7761194,20.2710448 89.7761194,45 C89.7761194,69.7289552 69.7289552,89.7761194 45,89.7761194 Z" id="Stroke-1"></path>
                        </g>
                    </g>
                </g>
                <g id="Group" transform="translate(24.626866, 25.522388)" fill="#009FE3">
                    <path d="M20.1492537,9.1587517 C14.0879919,9.1587517 9.1587517,14.0879919 9.1587517,20.1492537 C9.1587517,26.2123474 14.0879919,31.1397558 20.1492537,31.1397558 C26.2105156,31.1397558 31.1397558,26.2123474 31.1397558,20.1492537 C31.1397558,14.0879919 26.2105156,9.1587517 20.1492537,9.1587517" id="Fill-293"></path>
                    <path d="M5.49525102,0.0930529172 C4.8468114,0.186472185 4.23500678,0.369647218 3.66350068,0.644409769 L3.66350068,13.7377612 L5.49525102,13.7377612 L5.49525102,0.0930529172 Z" id="Fill-294"></path>
                    <path d="M9.1587517,13.5959837 L9.1587517,0.000732700135 L7.32700136,0.000732700135 L7.32700136,13.7388602 L9.06166893,13.7388602 C9.09097693,13.689403 9.12761194,13.6436092 9.1587517,13.5959837" id="Fill-295"></path>
                    <path d="M37.550882,10.990502 L32.0556309,10.990502 C31.5500678,10.990502 31.1397558,10.58019 31.1397558,10.0746269 L31.1397558,4.57937585 C31.1397558,4.07381275 31.5500678,3.66350068 32.0556309,3.66350068 L37.550882,3.66350068 C38.056445,3.66350068 38.4667571,4.07381275 38.4667571,4.57937585 L38.4667571,7.60542741 L38.4667571,10.0746269 C38.4667571,10.58019 38.056445,10.990502 37.550882,10.990502 M40.2985075,32.6930801 L40.2985075,13.7381275 L40.2985075,7.60542741 L40.2985075,6.41112619 C40.2985075,2.87584803 37.4226594,0 33.8873813,0 L10.990502,0 L10.990502,11.2084803 C13.3186567,8.81987788 16.5590231,7.32700136 20.1492537,7.32700136 C24.8824966,7.32700136 29.0149254,9.91160109 31.2368385,13.7381275 L38.4667571,13.7381275 L38.4667571,32.6930801 C38.4667571,35.8766621 35.8766621,38.4667571 32.6930801,38.4667571 L7.60542741,38.4667571 C4.42184532,38.4667571 1.83175034,35.8766621 1.83175034,32.6930801 L1.83175034,13.7381275 L1.83175034,7.60542741 L1.83175034,1.93799186 C0.70156038,3.09565807 0,4.67096336 0,6.41112619 L0,7.60542741 L0,13.7381275 L0,32.6930801 C0,36.8859566 3.41255088,40.2985075 7.60542741,40.2985075 L32.6930801,40.2985075 C36.8859566,40.2985075 40.2985075,36.8859566 40.2985075,32.6930801" id="Fill-296"></path>
                </g>
            </g>
        </g>
    </g>
</svg>