<?xml version="1.0" encoding="utf-8"?>
<!-- Generator: Adobe Illustrator 20.0.0, SVG Export Plug-In . SVG Version: 6.00 Build 0)  -->
<svg version="1.1" id="Layer_1" xmlns="http://www.w3.org/2000/svg" xmlns:xlink="http://www.w3.org/1999/xlink" x="0px" y="0px"
	 viewBox="0 0 90 90" style="enable-background:new 0 0 90 90;" xml:space="preserve">
<style type="text/css">
	.st0{fill:#86786F;}
	.st1{fill:#FFFFFF;}
</style>
<title>icon-twitter-black-cherry</title>
<desc>Created with Sketch.</desc>
<g id="Templates">
	<g id="_x31_5-icons-_x28_2_x29_" transform="translate(-1123.000000, -2630.000000)">
		<g id="icon-twitter-black-cherry" transform="translate(1123.219971, 2630.219971)">
			<g id="Group">
				<g id="Grid-calculator">
					<g id="Page-1">
						<path id="Stroke-1" class="st0" d="M89.8,45c0,24.7-20,44.8-44.8,44.8S0.2,69.7,0.2,45S20.3,0.2,45,0.2S89.8,20.3,89.8,45
							L89.8,45z"/>
					</g>
				</g>
			</g>
			<g id="Fill-264" transform="translate(24.179104, 29.104478)">
				<path class="st1" d="M42.8,4.5c-1.6,0.7-2.9,0.7-4.2,0c1.8-1.1,1.9-1.8,2.5-3.9c-1.7,1-3.5,1.7-5.5,2.1
					c-1.6-1.7-3.8-2.7-6.3-2.7c-4.8,0-8.7,3.9-8.7,8.7c0,0.7,0.1,1.3,0.2,2C13.6,10.4,7.2,6.9,2.9,1.7C2.2,2.9,1.8,4.4,1.8,6
					c0,3,1.5,5.7,3.9,7.2c-1.4,0-2.8-0.4-3.9-1.1c0,0,0,0.1,0,0.1c0,4.2,3,7.7,7,8.5c-1.3,0.3-2.6,0.4-3.9,0.1c1.1,3.4,4.3,6,8.1,6
					C9.1,29.8,4.5,31,0,30.5c3.8,2.5,8.4,3.9,13.3,3.9c15.9,0,24.7-13.2,24.7-24.7c0-0.4,0-0.7,0-1.1C39.6,7.4,41.6,6.3,42.8,4.5"/>
			</g>
		</g>
	</g>
</g>
</svg>
