<?xml version="1.0" encoding="UTF-8" standalone="no"?>
<svg width="182px" height="182px" viewBox="0 0 182 182" version="1.1" xmlns="http://www.w3.org/2000/svg" xmlns:xlink="http://www.w3.org/1999/xlink">
    <!-- Generator: Sketch 39.1 (31720) - http://www.bohemiancoding.com/sketch -->
    <title>icon-grid-middle</title>
    <desc>Created with Sketch.</desc>
    <defs></defs>
    <g id="Templates" stroke="none" stroke-width="1" fill="none" fill-rule="evenodd">
        <g id="15-icons-(2)" transform="translate(-427.000000, -1286.000000)" stroke="#9B9B9B">
            <g id="icon-grid-middle" transform="translate(428.000000, 1287.000000)">
                <path d="M179.552239,90 C179.552239,139.45791 139.45791,179.552239 90,179.552239 C40.5420896,179.552239 0.447761194,139.45791 0.447761194,90 C0.447761194,40.5420896 40.5420896,0.447761194 90,0.447761194 C139.45791,0.447761194 179.552239,40.5420896 179.552239,90 L179.552239,90 Z" id="Stroke-1"></path>
                <path d="M140.373134,90 C140.373134,117.820299 117.820299,140.373134 90,140.373134 C62.1797015,140.373134 39.6268657,117.820299 39.6268657,90 C39.6268657,62.1797015 62.1797015,39.6268657 90,39.6268657 C117.820299,39.6268657 140.373134,62.1797015 140.373134,90 L140.373134,90 Z" id="Stroke-5"></path>
                <path d="M111.251194,90 C111.251194,101.736716 101.737164,111.250746 90.0004478,111.250746 C78.2637313,111.250746 68.748806,101.736716 68.748806,90 C68.748806,78.2632836 78.2637313,68.7492537 90.0004478,68.7492537 C101.737164,68.7492537 111.251194,78.2632836 111.251194,90 L111.251194,90 Z" id="Stroke-9"></path>
                <path d="M95.0429552,90 C95.0429552,92.7850746 92.7853433,95.0426866 90.0002687,95.0426866 C87.215194,95.0426866 84.9566866,92.7850746 84.9566866,90 C84.9566866,87.2149254 87.215194,84.9573134 90.0002687,84.9573134 C92.7853433,84.9573134 95.0429552,87.2149254 95.0429552,90 L95.0429552,90 Z" id="Stroke-11"></path>
            </g>
        </g>
    </g>
</svg>