<?xml version="1.0" encoding="UTF-8" standalone="no"?>
<svg width="201px" height="201px" viewBox="0 0 201 201" version="1.1" xmlns="http://www.w3.org/2000/svg" xmlns:xlink="http://www.w3.org/1999/xlink">
    <!-- Generator: Sketch 39.1 (31720) - http://www.bohemiancoding.com/sketch -->
    <title>icon-video-midnight</title>
    <desc>Created with Sketch.</desc>
    <defs></defs>
    <g id="Page-1" stroke="none" stroke-width="1" fill="none" fill-rule="evenodd">
        <g id="Icons" transform="translate(-51.000000, -4017.000000)">
            <g id="Midnight-on-sky" transform="translate(43.000000, 3309.000000)">
                <g id="icon-video-midnight" transform="translate(8.000000, 708.000000)">
                    <g id="Group">
                        <path d="M200.5,100.5 C200.5,155.728 155.728,200.5 100.5,200.5 C45.272,200.5 0.5,155.728 0.5,100.5 C0.5,45.272 45.272,0.5 100.5,0.5 C155.728,0.5 200.5,45.272 200.5,100.5 L200.5,100.5 Z" id="Stroke-1" fill="#1D3661"></path>
                        <path d="M140.74357,137.999704 L62.2731879,137.999704 C60.9768531,137.999704 59.8342456,137.154185 59.4499274,135.9133 C52.459771,113.287146 52.459771,85.7137423 59.4499274,63.0861077 C59.8342456,61.8467038 60.9798094,60.9997038 62.2731879,60.9997038 L140.74357,60.9997038 C142.038427,60.9997038 143.182512,61.8452231 143.565352,63.0861077 C150.556987,85.7137423 150.556987,113.287146 143.565352,135.9133 C143.182512,137.152704 142.036948,137.999704 140.74357,137.999704 Z" id="Fill-5211" fill="#009FE3"></path>
                        <path d="M125.158581,99.5 C125.158581,112.585558 114.570615,123.192308 101.508231,123.192308 C88.4458474,123.192308 77.8578815,112.585558 77.8578815,99.5 C77.8578815,86.4159231 88.4458474,75.8076923 101.508231,75.8076923 C114.570615,75.8076923 125.158581,86.4159231 125.158581,99.5" id="Fill-5212" fill="#1D3661"></path>
                        <polygon id="Fill-5213" fill="#009FE3" points="92.63935 87.6538462 116.2897 99.5 92.63935 111.346154"></polygon>
                    </g>
                </g>
            </g>
        </g>
    </g>
</svg>