<?xml version="1.0" encoding="UTF-8" standalone="no"?>
<svg width="201px" height="201px" viewBox="0 0 201 201" version="1.1" xmlns="http://www.w3.org/2000/svg" xmlns:xlink="http://www.w3.org/1999/xlink">
    <!-- Generator: Sketch 39.1 (31720) - http://www.bohemiancoding.com/sketch -->
    <title>icon-brochure-black-cherry</title>
    <desc>Created with Sketch.</desc>
    <defs></defs>
    <g id="Page-1" stroke="none" stroke-width="1" fill="none" fill-rule="evenodd">
        <g id="Icons" transform="translate(-561.000000, -755.000000)">
            <g id="Black-cherry-and-white" transform="translate(52.000000, 362.000000)">
                <g id="icon-brochure-black-cherry" transform="translate(509.000000, 393.000000)">
                    <path d="M200.5,100.5 C200.5,155.728 155.728,200.5 100.5,200.5 C45.272,200.5 0.5,155.728 0.5,100.5 C0.5,45.272 45.272,0.5 100.5,0.5 C155.728,0.5 200.5,45.272 200.5,100.5 L200.5,100.5 Z" id="Stroke-1" fill="#87556C"></path>
                    <g id="Group" transform="translate(64.000000, 54.000000)">
                        <path d="M69.1038281,11.4712524 L5.76632813,11.4712524 C2.72179688,11.4712524 0.253828125,8.99196667 0.253828125,5.9334746 C0.253828125,2.87498254 2.72179688,0.395696825 5.76632813,0.395696825 L67.6975781,0.395696825 C68.4738281,0.395696825 69.1038281,1.02858571 69.1038281,1.80839524 L69.1038281,11.4712524 Z" id="Fill-7099" fill="#FFFFFF"></path>
                        <path d="M5.76632812,11.4712524 L5.76632812,8.47633175 C5.76632812,6.9153 7.02632812,5.65093492 8.57882812,5.65093492 L64.8850781,5.65093492 L64.8850781,11.4712524 L5.76632812,11.4712524 Z" id="Fill-7100" fill="#87556C"></path>
                        <path d="M5.76632813,11.4712524 C2.72179688,11.4712524 0.253828125,8.99196667 0.253828125,5.9334746 L0.253828125,83.4623635 C0.253828125,86.5208556 2.72179688,89.0001413 5.76632813,89.0001413 L71.9163281,89.0001413 L71.9163281,12.8556968 C71.9163281,12.091427 71.2989844,11.4712524 70.5382031,11.4712524 L5.76632813,11.4712524 Z" id="Fill-7101" fill="#FFFFFF"></path>
                        <path d="M13.1975781,56.5079365 C13.1975781,44.0253333 23.2719531,33.9047619 35.6975781,33.9047619 C48.1232031,33.9047619 58.1975781,44.0253333 58.1975781,56.5079365 C58.1975781,68.9919524 48.1232031,79.1111111 35.6975781,79.1111111 C23.2719531,79.1111111 13.1975781,68.9919524 13.1975781,56.5079365" id="Fill-7103" fill="#87556C"></path>
                        <path d="M49.6186094,58.3527794 C49.3317344,57.6577317 48.6553281,57.2042556 47.9057969,57.2042556 L43.1118906,57.2042556 L43.1118906,44.1678746 C43.1118906,43.1394302 42.2822031,42.3059381 41.2584531,42.3059381 L30.1364219,42.3059381 C29.1126719,42.3059381 28.2829844,43.1394302 28.2829844,44.1678746 L28.2829844,57.2042556 L23.4890781,57.2042556 C22.7395469,57.2042556 22.0631406,57.6577317 21.7762656,58.3527794 C21.4893906,59.0492397 21.6468906,59.8502397 22.1784531,60.382827 L34.3509531,71.5784619 C35.0751719,72.3045889 36.2479844,72.3045889 36.9722031,71.5784619 L49.2164219,60.382827 C49.7465781,59.8502397 49.9054844,59.0492397 49.6186094,58.3527794" id="Fill-7104" fill="#FFFFFF"></path>
                    </g>
                </g>
            </g>
        </g>
    </g>
</svg>