<?xml version="1.0" encoding="UTF-8" standalone="no"?>
<svg width="201px" height="201px" viewBox="0 0 201 201" version="1.1" xmlns="http://www.w3.org/2000/svg" xmlns:xlink="http://www.w3.org/1999/xlink">
    <!-- Generator: Sketch 39.1 (31720) - http://www.bohemiancoding.com/sketch -->
    <title>icon-secure-midnight</title>
    <desc>Created with Sketch.</desc>
    <defs></defs>
    <g id="Page-1" stroke="none" stroke-width="1" fill="none" fill-rule="evenodd">
        <g id="Icons" transform="translate(-53.000000, -3702.000000)">
            <g id="Midnight-on-sky" transform="translate(43.000000, 3309.000000)">
                <g id="icon-secure-midnight" transform="translate(10.000000, 393.000000)">
                    <path d="M200.5,100.5 C200.5,155.728 155.728,200.5 100.5,200.5 C45.272,200.5 0.5,155.728 0.5,100.5 C0.5,45.272 45.272,0.5 100.5,0.5 C155.728,0.5 200.5,45.272 200.5,100.5 L200.5,100.5 Z" id="Stroke-1" fill="#1D3661"></path>
                    <path d="M87.8431203,88.3125 L87.8431203,69.75 C87.8431203,62.9267344 93.3672341,57.375 100.156553,57.375 C106.945872,57.375 112.469986,62.9267344 112.469986,69.75 L112.469986,88.3125 L87.8431203,88.3125 Z M130.940135,88.3125 L124.783419,88.3125 L124.783419,69.75 C124.783419,56.1034687 113.735191,45 100.156553,45 C86.5779151,45 75.5296875,56.1034687 75.5296875,69.75 L75.5296875,88.3125 L69.3729711,88.3125 C65.9729244,88.3125 63.2162547,91.0829531 63.2162547,94.5 L63.2162547,137.8125 C63.2162547,141.221813 66.046805,144 69.3729711,144 L130.940135,144 C134.338643,144 137.096852,141.228 137.096852,137.8125 L137.096852,94.5 C137.096852,91.0829531 134.338643,88.3125 130.940135,88.3125 L130.940135,88.3125 Z" id="Fill-7913" fill="#009FE3"></path>
                    <path d="M106.31327,111.515625 C106.31327,108.098578 103.555061,105.328125 100.156553,105.328125 C96.7565065,105.328125 93.9998368,108.098578 93.9998368,111.515625 C93.9998368,113.894719 95.351236,115.936594 97.310611,116.971453 L93.9998368,134.71875 L106.31327,134.71875 L103.002495,116.971453 C104.96187,115.936594 106.31327,113.894719 106.31327,111.515625" id="Fill-7921" fill="#1D3661"></path>
                </g>
            </g>
        </g>
    </g>
</svg>