<?xml version="1.0" encoding="utf-8"?>
<!-- Generator: Adobe Illustrator 19.2.1, SVG Export Plug-In . SVG Version: 6.00 Build 0)  -->
<svg version="1.1" id="Layer_1" xmlns="http://www.w3.org/2000/svg" xmlns:xlink="http://www.w3.org/1999/xlink" x="0px" y="0px"
	 viewBox="0 0 201 201" style="enable-background:new 0 0 201 201;" xml:space="preserve">
<style type="text/css">
	.st0{fill:#86786F;}
	.st1{fill:#FFFFFF;}
</style>
<title>icon-info-black-cherry</title>
<desc>Created with Sketch.</desc>
<g id="Page-1">
	<g id="Icons" transform="translate(-1309.000000, -755.000000)">
		<g id="Black-cherry-and-white" transform="translate(52.000000, 362.000000)">
			<g id="icon-info-black-cherry" transform="translate(1257.000000, 393.000000)">
				<path id="Stroke-1" class="st0" d="M200.5,100.5c0,55.2-44.8,100-100,100s-100-44.8-100-100s44.8-100,100-100
					S200.5,45.3,200.5,100.5L200.5,100.5z"/>
				<path id="i" class="st1" d="M90.6,144.3c0,7,4.4,11.6,10.4,11.6s10.4-4.6,10.4-11.6V88.6c0-7-4.4-11.6-10.4-11.6
					s-10.4,4.6-10.4,11.6V144.3z M101,45.7c-6.2,0-11.7,5.5-11.7,11.5c0,6.4,5.5,12,11.7,12c6.5,0,11.7-5.5,11.7-12
					C112.7,51,107.2,45.7,101,45.7L101,45.7z"/>
			</g>
		</g>
	</g>
</g>
</svg>
