<?xml version="1.0" encoding="UTF-8" standalone="no"?>
<svg width="201px" height="201px" viewBox="0 0 201 201" version="1.1" xmlns="http://www.w3.org/2000/svg" xmlns:xlink="http://www.w3.org/1999/xlink">
    <!-- Generator: Sketch 39.1 (31720) - http://www.bohemiancoding.com/sketch -->
    <title>icon-star-midnight</title>
    <desc>Created with Sketch.</desc>
    <defs></defs>
    <g id="Page-1" stroke="none" stroke-width="1" fill="none" fill-rule="evenodd">
        <g id="Icons" transform="translate(-1551.000000, -4014.000000)">
            <g id="Midnight-on-sky" transform="translate(43.000000, 3309.000000)">
                <g id="icon-star-midnight" transform="translate(1508.000000, 705.000000)">
                    <g id="Grid-calculator" fill="#1D3661">
                        <g id="Page-1">
                            <path d="M200.5,100.5 C200.5,155.728 155.728,200.5 100.5,200.5 C45.272,200.5 0.5,155.728 0.5,100.5 C0.5,45.272 45.272,0.5 100.5,0.5 C155.728,0.5 200.5,45.272 200.5,100.5 L200.5,100.5 Z" id="Stroke-1"></path>
                        </g>
                    </g>
                    <g id="Fill-234" transform="translate(50.000000, 45.000000)" fill="#009FE3">
                        <path d="M100.846418,37.155345 C100.547863,36.3101408 99.7531186,35.7424663 98.8574544,35.7424663 L64.6035567,35.7424663 L52.4805531,1.40446868 C52.1819984,0.563469469 51.3872542,0 50.5,0 C49.6043358,0 48.8137966,0.563469469 48.5152419,1.40446868 L36.3964433,35.7424663 L2.1425456,35.7424663 C1.24688144,35.7424663 0.447932197,36.3101408 0.153582474,37.155345 C-0.140767248,38.0047542 0.13676249,38.9466733 0.843201824,39.4975278 L29.1133902,61.7167268 L16.9651566,98.1530174 C16.6750119,99.0234516 16.9819766,99.9779857 17.7220559,100.516225 C18.4621352,101.054465 19.4629243,101.054465 20.2030036,100.51202 L50.5,78.2970262 L80.7927914,100.51202 C81.1628311,100.78955 81.6043557,100.919905 82.0374703,100.919905 C82.4747898,100.919905 82.9036994,100.78955 83.2737391,100.516225 C84.0180234,99.9779857 84.3207831,99.0234516 84.0348434,98.1530174 L71.8824048,61.7167268 L100.156798,39.4975278 C100.863238,38.9466733 101.136562,38.0047542 100.846418,37.155345"></path>
                    </g>
                </g>
            </g>
        </g>
    </g>
</svg>