<?xml version="1.0" encoding="UTF-8" standalone="no"?>
<svg width="201px" height="201px" viewBox="0 0 201 201" version="1.1" xmlns="http://www.w3.org/2000/svg" xmlns:xlink="http://www.w3.org/1999/xlink">
    <!-- Generator: Sketch 39.1 (31720) - http://www.bohemiancoding.com/sketch -->
    <title>icon-phone-midnight</title>
    <desc>Created with Sketch.</desc>
    <defs></defs>
    <g id="Page-1" stroke="none" stroke-width="1" fill="none" fill-rule="evenodd">
        <g id="Icons" transform="translate(-302.000000, -3702.000000)">
            <g id="Midnight-on-sky" transform="translate(43.000000, 3309.000000)">
                <g id="icon-phone-midnight" transform="translate(259.000000, 393.000000)">
                    <path d="M200.5,100.5 C200.5,155.728 155.728,200.5 100.5,200.5 C45.272,200.5 0.5,155.728 0.5,100.5 C0.5,45.272 45.272,0.5 100.5,0.5 C155.728,0.5 200.5,45.272 200.5,100.5 L200.5,100.5 Z" id="Stroke-1" fill="#1D3661"></path>
                    <path d="M74.9993203,125.772203 C47.2566967,98.0153997 52.5516034,63.2357232 61.0545264,60.9979263 L74.3456799,57.4983929 C77.776242,56.595152 81.3285743,58.3680249 82.6792444,61.6491 C86.7774434,71.595953 92.350882,86.4007018 73.7494256,91.983991 C78.7518037,104.499129 82.5042871,108.25213 87.5066652,113.257065 C92.510443,118.2634 108.770271,127.024137 108.770271,127.024137 C114.350708,108.411773 128.460662,114.020268 138.403833,118.119162 C141.674834,119.469122 143.4538,123.033072 142.55242,126.458386 L139.054674,139.756333 C136.643063,148.927379 102.049113,152.835821 74.9993203,125.772203" id="Fill-6418" fill="#009FE3"></path>
                </g>
            </g>
        </g>
    </g>
</svg>