<?xml version="1.0" encoding="utf-8"?>
<!-- Generator: Adobe Illustrator 20.0.0, SVG Export Plug-In . SVG Version: 6.00 Build 0)  -->
<svg version="1.1" id="Layer_1" xmlns="http://www.w3.org/2000/svg" xmlns:xlink="http://www.w3.org/1999/xlink" x="0px" y="0px"
	 viewBox="0 0 90 90" style="enable-background:new 0 0 90 90;" xml:space="preserve">
<style type="text/css">
	.st0{fill:#86786F;}
	.st1{fill:#FFFFFF;}
</style>
<title>icon-youtube-black-cherry</title>
<desc>Created with Sketch.</desc>
<g id="Templates">
	<g id="_x31_5-icons-_x28_2_x29_" transform="translate(-1321.000000, -2630.000000)">
		<g id="icon-youtube-black-cherry" transform="translate(1321.219971, 2630.219971)">
			<g id="Group">
				<g id="Grid-calculator">
					<g id="Page-1">
						<path id="Stroke-1" class="st0" d="M89.8,45c0,24.7-20,44.8-44.8,44.8S0.2,69.7,0.2,45S20.3,0.2,45,0.2S89.8,20.3,89.8,45
							L89.8,45z"/>
					</g>
				</g>
			</g>
			<g id="Group_1_" transform="translate(25.522388, 23.731343)">
				<path id="Fill-287" class="st1" d="M16.9,1.6c0.3-0.4,0.2-1-0.2-1.3c-0.4-0.3-1-0.2-1.3,0.2l-4.7,6.1L6,0.5
					C5.7,0.1,5.2,0,4.8,0.3C4.4,0.6,4.3,1.2,4.6,1.6l5.2,6.7l0,7.8c0,0.5,0.4,0.9,0.9,0.9c0.5,0,0.9-0.4,0.9-0.9l0-7.8L16.9,1.6z"/>
				<path id="Fill-288" class="st1" d="M18.8,15.2c-1,0-1.8-0.8-1.8-1.8V8.1c0-1,0.8-1.8,1.8-1.8c1,0,1.8,0.8,1.8,1.8l0,5.4
					C20.6,14.4,19.8,15.2,18.8,15.2 M18.8,4.5c-2,0-3.6,1.6-3.6,3.6v5.4c0,2,1.6,3.6,3.6,3.6c2,0,3.6-1.6,3.6-3.6l0-5.4
					C22.4,6.1,20.8,4.5,18.8,4.5"/>
				<path id="Fill-289" class="st1" d="M33.1,12.5l0-7.2c0-0.5-0.4-0.9-0.9-0.9c-0.5,0-0.9,0.4-0.9,0.9l0,7.2c0,1.5-1.2,2.7-2.7,2.7
					c-0.7-0.1-1.4-0.3-1.9-0.8c-0.5-0.5-0.8-1.2-0.8-1.9l0-7.2c0-0.5-0.4-0.9-0.9-0.9s-0.9,0.4-0.9,0.9l0,7.2c0,1.2,0.5,2.3,1.3,3.2
					c0.8,0.8,2,1.3,3.2,1.3h0c1,0,2-0.4,2.7-0.9c0.1,0.4,0.4,0.8,0.9,0.8c0.5,0,0.9-0.4,0.9-0.9V12.5L33.1,12.5z"/>
				<path id="Fill-290" class="st1" d="M23.3,29.6c-0.5,0-0.9,0.4-0.9,0.9V34c0,0.5,0.4,0.9,0.9,0.9c0.5,0,0.9-0.4,0.9-0.9v-3.6
					C24.2,30,23.8,29.6,23.3,29.6"/>
				<path id="Fill-291" class="st1" d="M31.3,30.4c0-0.5-0.4-0.9-0.9-0.9c-0.5,0-0.9,0.4-0.9,0.9v0.9h1.8V30.4z"/>
				<path id="Fill-292" class="st1" d="M30.6,36.9c-1.5,0-2.8-1.4-2.8-2.9v-3.6c0-1.5,1.2-2.7,2.7-2.7s2.7,1.2,2.7,2.7v1.8
					c0,0.5-0.4,0.9-0.9,0.9h-2.7V34c0,0.5,0.6,1.1,1,1.1c0.4,0,1-0.2,1-0.7c0-0.5,0.4-0.9,0.9-0.9c0.5,0,0.9,0.4,0.9,0.9
					C33.4,35.9,32.2,36.9,30.6,36.9L30.6,36.9z M26,34c0,1.5-1.2,2.7-2.7,2.7c-0.4,0-0.8-0.1-1.2-0.3c-0.2,0.2-0.4,0.2-0.6,0.2
					c-0.5,0-0.9-0.4-0.9-0.9V25.1c0-0.5,0.4-0.9,0.9-0.9c0.5,0,0.9,0.4,0.9,0.9v2.9c0.3-0.1,0.6-0.2,0.9-0.2c1.5,0,2.7,1.2,2.7,2.7
					V34z M17.9,36.5c-0.2,0-0.4-0.1-0.5-0.2c-0.4,0.2-0.8,0.3-1.3,0.3c-1.5,0-2.7-1.2-2.7-2.7v-5.4c0-0.5,0.4-0.9,0.9-0.9
					s0.9,0.4,0.9,0.9V34c0,0.5,0.4,0.9,0.9,0.9c0.5,0,0.9-0.4,0.9-0.9v-5.4c0-0.5,0.4-0.9,0.9-0.9s0.9,0.4,0.9,0.9l0,7
					C18.8,36.1,18.4,36.5,17.9,36.5L17.9,36.5z M12.6,27.8H9.9v8c0,0.5-0.4,0.9-0.9,0.9s-0.9-0.4-0.9-0.9v-8H5.3
					c-0.5,0-0.9-0.4-0.9-0.9c0-0.5,0.4-0.9,0.9-0.9h7.2c0.5,0,0.9,0.4,0.9,0.9C13.5,27.4,13.1,27.8,12.6,27.8L12.6,27.8z M32.2,21.5
					H7.2c-4,0-7.2,3.2-7.2,7.2V34c0,4,3.2,7.2,7.2,7.2h25.1c4,0,7.2-3.2,7.2-7.2v-5.4C39.4,24.7,36.2,21.5,32.2,21.5L32.2,21.5z"/>
			</g>
		</g>
	</g>
</g>
</svg>
