<?xml version="1.0" encoding="utf-8"?>
<!-- Generator: Adobe Illustrator 20.0.0, SVG Export Plug-In . SVG Version: 6.00 Build 0)  -->
<svg version="1.1" id="Layer_1" xmlns="http://www.w3.org/2000/svg" xmlns:xlink="http://www.w3.org/1999/xlink" x="0px" y="0px"
	 viewBox="0 0 201 201" style="enable-background:new 0 0 201 201;" xml:space="preserve">
<style type="text/css">
	.st0{fill:#86786F;}
	.st1{fill:#FFFFFF;}
</style>
<title>icon-email-black-cherry</title>
<desc>Created with Sketch.</desc>
<g id="Page-1">
	<g id="Icons" transform="translate(-811.000000, -756.000000)">
		<g id="Black-cherry-and-white" transform="translate(52.000000, 362.000000)">
			<g id="icon-email-black-cherry" transform="translate(759.000000, 394.000000)">
				<g id="Fill-100-_x2B_-Fill-101">
					<path id="Stroke-1" class="st0" d="M200.5,100.5c0,55.2-44.8,100-100,100s-100-44.8-100-100s44.8-100,100-100
						S200.5,45.3,200.5,100.5L200.5,100.5z"/>
					<path id="Fill-100" class="st1" d="M102.4,107.7c-0.4,0.3-0.9,0.5-1.4,0.5s-1-0.2-1.4-0.5L54.3,71.2C53.5,72.5,53,74,53,75.7
						v47.7c0,4.8,3.9,8.7,8.7,8.7h78.5c4.8,0,8.7-3.9,8.7-8.7V75.7c0-1.6-0.5-3.1-1.3-4.4L102.4,107.7z"/>
					<path id="Fill-101" class="st1" d="M144.6,68.2c-1.3-0.7-2.7-1.2-4.3-1.2H61.7c-1.6,0-3,0.4-4.3,1.2l43.6,35L144.6,68.2"/>
				</g>
			</g>
		</g>
	</g>
</g>
</svg>
