<?xml version="1.0" encoding="utf-8"?>
<!-- Generator: Adobe Illustrator 20.0.0, SVG Export Plug-In . SVG Version: 6.00 Build 0)  -->
<svg version="1.1" id="Layer_1" xmlns="http://www.w3.org/2000/svg" xmlns:xlink="http://www.w3.org/1999/xlink" x="0px" y="0px"
	 viewBox="0 0 201 201" style="enable-background:new 0 0 201 201;" xml:space="preserve">
<style type="text/css">
	.st0{fill:#86786F;}
	.st1{fill:#FFFFFF;}
</style>
<title>icon-mouse-black-cherry</title>
<desc>Created with Sketch.</desc>
<g id="Page-1">
	<g id="Icons" transform="translate(-1060.000000, -756.000000)">
		<g id="Black-cherry-and-white" transform="translate(52.000000, 362.000000)">
			<g id="icon-mouse-black-cherry" transform="translate(1008.000000, 394.000000)">
				<path id="Stroke-1" class="st0" d="M200.5,100.5c0,55.2-44.8,100-100,100s-100-44.8-100-100s44.8-100,100-100
					S200.5,45.3,200.5,100.5L200.5,100.5z"/>
				
					<g id="Group-2" transform="translate(109.433342, 94.605529) rotate(-12.000000) translate(-109.433342, -94.605529) translate(60.433342, 41.105529)">
					<g id="Group" transform="translate(-0.000000, 40.419016)">
						<path id="Combined-Shape" class="st1" d="M17.8,40.3c-0.3,0.3-0.7,0.6-1,0.9c-3.5,2.9-8.7,7.3-8.9,10.3c0,0.5,0,1.1,0.9,2
							c2.4,2.5,11.3-0.3,18.5-2.6c6.1-1.9,12.3-3.9,17.8-4.2c11.3-0.6,21.1,6.5,24.3,15.5l-6.1,3.7c-1.8-10.3-10.6-12.4-17.8-12
							c-4.6,0.2-10.4,2.1-16.1,3.9C18.9,61,8.9,64.2,3.5,58.3c-2-2.1-2.9-4.7-2.8-7.3c0.4-6.1,6.5-11.2,11.5-15.4
							c0.2-0.1,0.3-0.3,0.5-0.4c-1.2-1.9-1-4.3,0.6-6l5.9-5.9l-0.7-10.5c-0.1-1.4,0.4-2.7,1.4-3.7l7.8-7.8c1.9-1.9,4.9-1.9,6.8,0
							l16.9,16.9c1.9,1.9,1.9,4.9,0,6.8l-7.8,7.8c-1,1-2.3,1.5-3.7,1.4l-10.5-0.7l-5.9,5.9C21.9,40.9,19.6,41.2,17.8,40.3z"/>
					</g>
					
						<g id="Group_1_" transform="translate(49.805272, 47.184149) rotate(49.000000) translate(-49.805272, -47.184149) translate(21.305272, 8.184149)">
						<path id="Combined-Shape_1_" class="st1" d="M14.3,28.8l-14,0l0,20.9c0,15.4,12.6,27.9,28.1,27.9s28.1-12.5,28.1-27.9V28.8
							l-14,0l14,0l0-14c0-7.7-6.3-14-14-14l-14,0l-14,0c-7.8,0-14,6.2-14,14l0,14L14.3,28.8z"/>
						<path id="Fill-4757" class="st0" d="M31.8,34c0,1.9-1.6,3.5-3.5,3.5c-1.9,0-3.5-1.6-3.5-3.5V23.6c0-1.9,1.6-3.5,3.5-3.5
							c1.9,0,3.5,1.6,3.5,3.5L31.8,34z"/>
					</g>
				</g>
			</g>
		</g>
	</g>
</g>
</svg>
