<?xml version="1.0" encoding="UTF-8" standalone="no"?>
<svg width="201px" height="201px" viewBox="0 0 201 201" version="1.1" xmlns="http://www.w3.org/2000/svg" xmlns:xlink="http://www.w3.org/1999/xlink">
    <!-- Generator: Sketch 39.1 (31720) - http://www.bohemiancoding.com/sketch -->
    <title>icon-minus-red</title>
    <desc>Created with Sketch.</desc>
    <defs></defs>
    <g id="Page-1" stroke="none" stroke-width="1" fill="none" fill-rule="evenodd">
        <g id="Icons" transform="translate(-311.000000, -2807.000000)">
            <g id="Warnings" transform="translate(52.000000, 2725.000000)">
                <g id="icon-minus-red" transform="translate(259.000000, 82.000000)">
                    <path d="M200.5,100.5 C200.5,155.728 155.728,200.5 100.5,200.5 C45.272,200.5 0.5,155.728 0.5,100.5 C0.5,45.272 45.272,0.5 100.5,0.5 C155.728,0.5 200.5,45.272 200.5,100.5 L200.5,100.5 L200.5,100.5 Z" id="Stroke-1" fill="#E3251F"></path>
                    <path d="M46,103.417968 C46,111.151758 52.271674,117.421234 59.9989018,117.421234 L141.001098,117.421234 C148.732478,117.421234 155,111.1602 155,103.417968 L155,95.003266 C155,87.2694758 148.728326,81 141.001098,81 L59.9989018,81 C52.2675218,81 46,87.2610333 46,95.003266 L46,103.417968 L46,103.417968 Z" id="Page-1" fill="#FFFFFF"></path>
                </g>
            </g>
        </g>
    </g>
</svg>