<?xml version="1.0" encoding="utf-8"?>
<!-- Generator: Adobe Illustrator 20.0.0, SVG Export Plug-In . SVG Version: 6.00 Build 0)  -->
<svg version="1.1" id="Layer_1" xmlns="http://www.w3.org/2000/svg" xmlns:xlink="http://www.w3.org/1999/xlink" x="0px" y="0px"
	 viewBox="0 0 201 201" style="enable-background:new 0 0 201 201;" xml:space="preserve">
<style type="text/css">
	.st0{fill:#86786F;}
	.st1{fill:#FFFFFF;}
</style>
<title>icon-buildings-cover-black-cherry</title>
<desc>Created with Sketch.</desc>
<g id="Page-1">
	<g id="Icons" transform="translate(-1060.000000, -1070.000000)">
		<g id="Black-cherry-and-white" transform="translate(52.000000, 362.000000)">
			<g id="icon-buildings-cover-black-cherry" transform="translate(1008.000000, 708.000000)">
				<path id="Stroke-1" class="st0" d="M200.5,100.5c0,55.2-44.8,100-100,100s-100-44.8-100-100s44.8-100,100-100
					S200.5,45.3,200.5,100.5L200.5,100.5z"/>
				<g id="Group" transform="translate(54.000000, 49.000000)">
					<path id="Combined-Shape" class="st1" d="M80.5,27.7V7.2c0-0.8-0.6-1.4-1.4-1.4H64.7c-0.8,0-1.4,0.6-1.4,1.4V13L49.8,1.4
						c-2.1-1.8-5.3-1.8-7.5,0L2.2,35.9C-0.2,38-0.5,41.6,1.6,44c1.6,1.9,4.3,2.5,6.5,1.6V92h75.2V45.2c0.9,0.5,1.9,0.8,2.9,0.8
						c1.6,0,3.2-0.7,4.4-2c2.1-2.4,1.8-6-0.6-8.1L80.5,27.7z M46.1,13.3l36.4,31.3c0.1,0,0.1,0.1,0.2,0.1c-0.1,0-0.1-0.1-0.2-0.1
						L46.1,13.3L46.1,13.3z M27.9,29L9.7,44.6c0,0-0.1,0.1-0.1,0.1c0,0,0.1-0.1,0.1-0.1L27.9,29z"/>
					<path id="Fill-7924" class="st0" d="M69,54.6c0,0.8-0.6,1.4-1.4,1.4H59c-0.8,0-1.4-0.6-1.4-1.4V46c0-0.8,0.6-1.4,1.4-1.4h8.6
						c0.8,0,1.4,0.6,1.4,1.4V54.6z M34.6,54.6c0,0.8-0.6,1.4-1.4,1.4h-8.6c-0.8,0-1.4-0.6-1.4-1.4V46c0-0.8,0.6-1.4,1.4-1.4h8.6
						c0.8,0,1.4,0.6,1.4,1.4V54.6z"/>
					<path id="Fill-7925" class="st0" d="M46.2,64.2h-0.2c-6.3,0-11.3,5.1-11.3,11.4V93h22.9V75.6C57.5,69.3,52.4,64.2,46.2,64.2"/>
				</g>
			</g>
		</g>
	</g>
</g>
</svg>
