<?xml version="1.0" encoding="UTF-8" standalone="no"?>
<svg width="201px" height="201px" viewBox="0 0 201 201" version="1.1" xmlns="http://www.w3.org/2000/svg" xmlns:xlink="http://www.w3.org/1999/xlink">
    <!-- Generator: Sketch 39.1 (31720) - http://www.bohemiancoding.com/sketch -->
    <title>icon-exclamation-sky</title>
    <desc>Created with Sketch.</desc>
    <defs></defs>
    <g id="Page-1" stroke="none" stroke-width="1" fill="none" fill-rule="evenodd">
        <g id="Icons" transform="translate(-1560.000000, -1604.000000)">
            <g id="Sky-and-white" transform="translate(52.000000, 1522.000000)">
                <g id="icon-exclamation-sky" transform="translate(1508.000000, 82.000000)">
                    <g id="Group" fill="#009FE3">
                        <g id="Grid-calculator">
                            <g id="Page-1">
                                <path d="M200.5,100.5 C200.5,155.728 155.728,200.5 100.5,200.5 C45.272,200.5 0.5,155.728 0.5,100.5 C0.5,45.272 45.272,0.5 100.5,0.5 C155.728,0.5 200.5,45.272 200.5,100.5 L200.5,100.5 Z" id="Stroke-1"></path>
                            </g>
                        </g>
                    </g>
                    <path d="M88.7221224,113.156245 C88.7221224,119.499102 93.4037551,123.425633 99.5955918,123.425633 C105.636408,123.425633 110.469061,119.348082 110.469061,113.156245 L110.469061,55.0133878 C110.469061,48.821551 105.636408,44.744 99.5955918,44.744 C93.4037551,44.744 88.7221224,48.6705306 88.7221224,55.0133878 L88.7221224,113.156245 Z M99.5955918,155.89502 C106.089469,155.89502 111.375184,150.609306 111.375184,144.115429 C111.375184,137.621551 106.089469,132.335837 99.5955918,132.335837 C93.1017143,132.335837 87.816,137.621551 87.816,144.115429 C87.816,150.609306 93.1017143,155.89502 99.5955918,155.89502 L99.5955918,155.89502 Z" id="!" fill="#FFFFFF"></path>
                </g>
            </g>
        </g>
    </g>
</svg>