<?xml version="1.0" encoding="UTF-8" standalone="no"?>
<svg width="201px" height="201px" viewBox="0 0 201 201" version="1.1" xmlns="http://www.w3.org/2000/svg" xmlns:xlink="http://www.w3.org/1999/xlink">
    <!-- Generator: Sketch 39.1 (31720) - http://www.bohemiancoding.com/sketch -->
    <title>icon-down-midnight</title>
    <desc>Created with Sketch.</desc>
    <defs></defs>
    <g id="Page-1" stroke="none" stroke-width="1" fill="none" fill-rule="evenodd">
        <g id="Icons" transform="translate(-802.000000, -3391.000000)">
            <g id="Midnight-on-sky" transform="translate(43.000000, 3309.000000)">
                <g id="icon-down-midnight" transform="translate(759.000000, 82.000000)">
                    <path d="M200.5,100.5 C200.5,155.728 155.728,200.5 100.5,200.5 C45.272,200.5 0.5,155.728 0.5,100.5 C0.5,45.272 45.272,0.5 100.5,0.5 C155.728,0.5 200.5,45.272 200.5,100.5 L200.5,100.5 L200.5,100.5 Z" id="Stroke-1" fill="#1D3661"></path>
                    <path d="M100.46197,45 C92.7338839,45 86.4690324,51.2695993 86.4690324,58.9951377 L86.4690324,104.371935 L76.3649421,94.267845 C70.8978842,88.8007872 62.0358571,88.7989623 56.5713789,94.2634405 L56.454744,94.3800754 C50.9901187,99.8447006 50.9883095,108.7028 56.4634554,114.177945 L90.9086734,148.623163 C96.3781098,154.0926 105.247519,154.090899 110.712241,148.626178 L145.53772,113.800699 C151.005491,108.332927 151.007895,99.4703211 145.543417,94.0058429 L145.426782,93.889208 C139.962157,88.4245827 131.097231,88.4296002 125.6272,93.8996309 L114.619853,104.906979 L114.619853,59.0077059 C114.619853,51.2714636 108.354793,45 100.626915,45 L100.46197,45 L100.46197,45 Z" id="Page-1" fill="#009FE3"></path>
                </g>
            </g>
        </g>
    </g>
</svg>