<?xml version="1.0" encoding="utf-8"?>
<!-- Generator: Adobe Illustrator 20.0.0, SVG Export Plug-In . SVG Version: 6.00 Build 0)  -->
<svg version="1.1" id="Layer_1" xmlns="http://www.w3.org/2000/svg" xmlns:xlink="http://www.w3.org/1999/xlink" x="0px" y="0px"
	 viewBox="0 0 201 201" style="enable-background:new 0 0 201 201;" xml:space="preserve">
<style type="text/css">
	.st0{fill:#86786F;}
	.st1{fill:#FFFFFF;}
</style>
<title>icon-phone-black-cherry</title>
<desc>Created with Sketch.</desc>
<g id="Page-1">
	<g id="Icons" transform="translate(-311.000000, -755.000000)">
		<g id="Black-cherry-and-white" transform="translate(52.000000, 362.000000)">
			<g id="icon-phone-black-cherry" transform="translate(259.000000, 393.000000)">
				<path id="Stroke-1" class="st0" d="M200.5,100.5c0,55.2-44.8,100-100,100s-100-44.8-100-100s44.8-100,100-100
					S200.5,45.3,200.5,100.5L200.5,100.5z"/>
				<path id="Fill-6418" class="st1" d="M75,125.8C47.3,98,52.6,63.2,61.1,61l13.3-3.5c3.4-0.9,7,0.9,8.3,4.2
					c4.1,9.9,9.7,24.8-8.9,30.3c5,12.5,8.8,16.3,13.8,21.3c5,5,21.3,13.8,21.3,13.8c5.6-18.6,19.7-13,29.6-8.9
					c3.3,1.3,5,4.9,4.1,8.3l-3.5,13.3C136.6,148.9,102,152.8,75,125.8"/>
			</g>
		</g>
	</g>
</g>
</svg>
