<?xml version="1.0" encoding="utf-8"?>
<!-- Generator: Adobe Illustrator 20.0.0, SVG Export Plug-In . SVG Version: 6.00 Build 0)  -->
<svg version="1.1" id="Layer_1" xmlns="http://www.w3.org/2000/svg" xmlns:xlink="http://www.w3.org/1999/xlink" x="0px" y="0px"
	 viewBox="0 0 201 201" style="enable-background:new 0 0 201 201;" xml:space="preserve">
<style type="text/css">
	.st0{fill:#86786F;}
	.st1{fill:#FFFFFF;}
</style>
<title>icon-tick-bullets-black-cherry</title>
<desc>Created with Sketch.</desc>
<g id="Page-1">
	<g id="Icons" transform="translate(-813.000000, -1074.000000)">
		<g id="Black-cherry-and-white" transform="translate(52.000000, 362.000000)">
			<g id="icon-tick-bullets-black-cherry" transform="translate(761.000000, 712.000000)">
				<path id="Stroke-1" class="st0" d="M200.5,100.5c0,55.2-44.8,100-100,100s-100-44.8-100-100s44.8-100,100-100
					S200.5,45.3,200.5,100.5L200.5,100.5z"/>
				<g id="Fill-2049-_x2B_-Fill-2050" transform="translate(60.000000, 60.000000)">
					<path id="Fill-2049" class="st1" d="M11.1,69h54.8V19.3H11.1V69z M68.6,80H8.4c-4.5,0-8.2-3.7-8.2-8.3V16.6
						c0-4.6,3.7-8.3,8.2-8.3h60.2c4.5,0,8.2,3.7,8.2,8.3v55.2C76.9,76.3,73.2,80,68.6,80L68.6,80z"/>
					<path id="Fill-2050" class="st1" d="M39.9,63.4c-2,0-3.9-0.9-5.2-2.4L18.3,41.7c-2.5-2.9-2.1-7.2,0.7-9.7
						c2.9-2.5,7.2-2.1,9.7,0.7l10.7,12.6L73.3,4.1c5.3-7.4,10.8-3.3,5.5,4.1L45.5,60.6c-1.2,1.7-3.2,2.8-5.3,2.9
						C40.1,63.4,40,63.4,39.9,63.4"/>
				</g>
			</g>
		</g>
	</g>
</g>
</svg>
