<?xml version="1.0" encoding="utf-8"?>
<!-- Generator: Adobe Illustrator 20.0.0, SVG Export Plug-In . SVG Version: 6.00 Build 0)  -->
<svg version="1.1" id="Layer_1" xmlns="http://www.w3.org/2000/svg" xmlns:xlink="http://www.w3.org/1999/xlink" x="0px" y="0px"
	 viewBox="0 0 357 61" style="enable-background:new 0 0 357 61;" xml:space="preserve">
<style type="text/css">
	.st0{fill:#86786F;}
</style>
<title>15-streamline-logo</title>
<desc>Created with Sketch.</desc>
<g id="Templates">
	<g id="_x31_5-icons-_x28_2_x29_" transform="translate(-428.000000, -3989.000000)">
		<path id="_x31_5-streamline-logo" class="st0" d="M518.9,4017.1c-0.8,0-1.8,0.5-2,1.6l0,0.1l0,0.1c0,0.1,0,0.2,0,0.3
			c0,0.9,1.3,1.4,2.3,1.6c0.8-1.5,0.9-2.2,0.9-2.6C520,4017.1,519.1,4017.1,518.9,4017.1 M684.6,3996.6c-1.3,0-2.5,1.1-2.9,2.7
			l-5.9,23.5c7.5-9.6,10.2-21.8,10.2-24.3C686,3997.6,685.7,3996.6,684.6,3996.6 M595.6,4023.4c-5.6,0-14.3,5.6-14.3,12.5
			c0,2.4,1.7,4,4.1,4c6.3,0,14.3-6,14.3-12.7C599.7,4025,598.1,4023.4,595.6,4023.4 M445.1,4049.5c-9.4,0-16.1-6.9-17.1-13.5
			c-0.1-1,0.5-1.9,1.4-2.1l0.4-0.1c0.1,0,0.3,0,0.4,0c0.4,0,0.7,0.1,1,0.3c0.4,0.3,0.7,0.7,0.8,1.2c1,5,6.4,10.3,13.7,10.3
			c0.2,0,0.4,0,0.6,0c7.3-0.3,13.9-1.9,18.5-4.5c3.3-1.9,7.2-5.1,7-10.1c-0.2-4.9-6.5-7.1-13.2-9.4c-7.4-2.5-15.1-5.1-15.4-11.9
			c-0.2-4.7,2.9-9.6,8.3-13.3c4.3-3,12.2-6.6,25-7.1c0.5,0,1,0,1.5,0c4.5,0,8.5,0.8,11.4,2.3c0.5,0.3,0.9,0.7,1,1.3
			c0.1,0.6,0,1.1-0.3,1.6l-0.3,0.4c-0.4,0.5-0.9,0.7-1.5,0.7c-0.3,0-0.6-0.1-0.9-0.2c-2.4-1.3-5.9-2-9.9-2c-0.5,0-0.9,0-1.4,0
			c-18.4,0.7-29.1,8.5-28.8,15.5c0.2,4.6,6.4,6.7,12.9,9c7.6,2.6,15.4,5.3,15.7,12.3c0.1,1.4-0.1,2.9-0.5,4.2l16.1-10.9
			c-3.3-0.1-5.3-0.5-7.2-1.4c-0.5-0.3-0.9-0.7-1-1.3c-0.1-0.6,0-1.1,0.4-1.6l0.3-0.4c0.4-0.4,0.9-0.7,1.5-0.7c0.3,0,0.6,0.1,0.9,0.2
			c1.6,0.8,3.5,1.2,6.8,1.2l2.8-11.5c0.2-0.8,1-1.4,1.8-1.4c0.7,0,1.2,0.3,1.6,0.7c0.4,0.5,0.5,1,0.3,1.6l-2.6,10.6h8.7
			c0.6,0,1.1,0.3,1.5,0.7c0.4,0.5,0.5,1,0.4,1.6l0,0.2c-0.2,0.9-1,1.5-1.8,1.5h-9.6c-0.6,2.4-1.1,4.3-1.5,5.8
			c-1.6,6.2-1.7,6.5-1.7,7.7c0,2.1,0.9,3.1,2.9,3.1c3.8,0,16.8-11.6,20.6-15.8c-3.1-1.1-3.8-2.9-3.8-4.3c0-4.4,3.9-6.7,6.8-6.7
			c2.2,0,4.5,1.3,4.5,4.1c0,1.1-0.3,2.4-0.9,3.6c4.2-0.2,9.2-1.5,11.9-2.4l1.5-0.5l-1,1.3c-4.5,5.8-9.3,14.7-9.3,18.9
			c0,1.8,0.8,1.8,1.1,1.8c5.2,0,9-4.5,13.1-9.2c4.7-5.5,10.1-11.8,18.7-11.8c0.4,0,0.8,0,1.2,0h0c4.1,0,8.3,0.4,10.3,3.6
			c0.3,0.5,0.4,1.1,0.2,1.6c-0.2,0.6-0.6,1-1.2,1.2l-0.5,0.2c-0.2,0.1-0.4,0.1-0.6,0.1c-0.6,0-1.1-0.3-1.5-0.7c-1.6-2-5-2-7.3-2
			c-3.6,0.2-8,2.3-8,4.5c0,0.7,0.6,1.5,1.5,1.5h4.6c0.6,0,1.1,0.2,1.4,0.7s0.5,1,0.4,1.5c-0.2,0.8-0.9,1.4-1.8,1.4h-3.6
			c-2,0-5.1,1.8-5.1,4.3c0,1.5,2.5,3.1,7.2,3.1c10.1,0,14.5-4,20.6-9.6c1.9-1.8,4.1-3.7,6.7-5.8c3.7-3.3,8.2-5.1,12.6-5.1
			c2.4,0,4.3,0.8,5.7,2.4c1.5,1.7,2,4.2,1.6,6.9c-0.2,1.2-1.3,9.4-1.3,9.4c0,1.1,0.7,1.8,1.8,1.8c2.5,0,10.3-9.4,14.1-14l1.3-5.1
			c0.2-0.8,1-1.4,1.8-1.4c0.7,0,1.2,0.3,1.6,0.7c0.3,0.5,0.5,1.1,0.3,1.6c2.9-1.5,5.9-2.3,8.7-2.3c2.9,0,5.5,1.5,6.6,3.8
			c3.4-2.4,7.3-3.8,11-3.8c4.3,0,7.4,3,7.4,7.2c0,1.3-0.9,4.6-1.6,7.4c-0.5,1.8-1,3.7-1,4.1c0,0.5,0.1,0.9,0.4,1.2
			c0.3,0.3,0.7,0.5,1.2,0.5l0.1,0c2.7-0.2,6.2-3.9,11.9-10.1c0.9-0.9,1.8-1.9,2.7-2.9l7-27.9c0.8-3.5,4.2-6.4,7.5-6.4
			c3,0,4.8,2,4.8,5.5c0,3.7-1.2,16.8-16,31.6l-0.5,2.1c-0.8,3.3-1,3.9-1,5c0,2,0.9,3.2,2.5,3.2c2,0,6.8-3.9,14.2-9.8
			c1.5-1.2,3.1-2.5,4.8-3.8l1.3-5.6c0.2-0.8,1-1.4,1.8-1.4c0.7,0,1.2,0.3,1.6,0.7c0.4,0.5,0.5,1,0.3,1.6c-0.7,2.9-1.3,5.2-1.8,7.1
			c-1.7,6.7-1.7,6.8-1.7,8c0,2,0.9,3.2,2.5,3.2c2.1,0,8.6-6.7,12.1-10.2c1-1,1.8-1.8,2.4-2.5l1.6-6.5c0.2-0.8,1-1.4,1.8-1.4h0.1
			c0.6,0,1.1,0.3,1.5,0.7c0.6,0.8,0.4,1.6-0.1,3.6c0,0.2-0.1,0.4-0.1,0.6c3.6-3.1,8-4.8,12.2-4.8c4.3,0,7.4,3,7.4,7.2
			c0,1.3-0.8,4.5-1.5,7.2c-0.5,1.9-1,3.9-1,4.5c0,0.4,0.2,0.9,0.4,1.2c0.3,0.3,0.7,0.5,1.1,0.5c0,0,0.1,0,0.1,0
			c2.5-0.2,5.7-3.5,9.4-7.4c5.7-6,12.9-13.5,21.6-13.5h0.2c4.2,0,8.3,0.4,10.3,3.6c0.3,0.5,0.4,1.1,0.2,1.6c-0.2,0.5-0.6,1-1.2,1.2
			l-0.5,0.2c-0.2,0.1-0.4,0.1-0.6,0.1c-0.6,0-1.1-0.3-1.5-0.7c-1.6-2-5-2-7.3-2c-3.6,0.2-8,2.3-8,4.5c0,0.7,0.6,1.5,1.5,1.5h4.6
			c0.6,0,1.1,0.2,1.4,0.7c0.3,0.4,0.5,1,0.4,1.5c-0.2,0.8-0.9,1.4-1.8,1.4h-3.6c-2,0-5.1,1.8-5.1,4.3c0,1.5,2.5,3.1,7.2,3.1
			c6.7,0,13.4-2.1,18.7-6c0.3-0.2,0.7-0.4,1.1-0.4c0.6,0,1.1,0.3,1.5,0.7c0.3,0.4,0.4,0.8,0.3,1.3c-0.1,0.4-0.3,0.9-0.7,1.1
			c-6,4.4-14.1,7.2-21.1,7.2c-6.9,0-11.1-2.4-11.1-6.3c0-2.2,1.1-4.9,4.2-6.5c-0.8-0.7-1.4-1.8-1.5-3c-0.9,0.9-1.8,1.9-2.8,3
			c-5.3,5.7-11.9,12.8-16.7,12.8c-2.9,0-5.1-2.1-5.1-5c0-1,0.6-3.4,1.3-6c0.6-2.4,1.2-4.9,1.2-5.7c0-2.3-1.7-3.9-4-3.9
			c-6.2,0-12.7,5.2-14.2,11.4l-1.9,7.8c-0.2,0.8-1,1.4-1.8,1.4c-0.7,0-1.2-0.3-1.6-0.7c-0.4-0.5-0.5-1-0.3-1.6l2-8
			c-4.9,5.3-10.1,10.3-13.7,10.3c-3.6,0-6-2.3-6-5.7c0-1.1,0.1-1.7,0.9-4.9l0.3-1.2l-1.2,1c-8.7,7-13.5,10.8-16.9,10.8
			c-3.6,0-6-2.3-6-5.7c0-1.2,0-1.5,0.6-3.9c-2.9,3.4-8.4,9.6-13.4,9.6c-2.9,0-5.2-2.1-5.2-5c0-0.9,0.6-3.3,1.3-5.8
			c0.6-2.3,1.3-4.9,1.3-5.8c0-2.3-1.7-3.9-4.1-3.9c-3.2,0-6.6,1.4-9.5,3.9c0,0.3-0.1,0.4-0.1,0.5c0,0.3,0,0.3-1.4,6.1l-2.1,8.5
			c-0.2,0.8-1,1.4-1.8,1.4c-0.7,0-1.2-0.3-1.6-0.7c-0.4-0.5-0.5-1-0.3-1.6l1.7-7.1c1.6-6.3,1.6-6.5,1.6-7.1c0-2.3-1.7-3.9-4.1-3.9
			c-3.2,0-6.6,1.4-9.3,3.7l-3.8,15.3c-0.2,0.8-1,1.4-1.8,1.4c-0.7,0-1.2-0.3-1.6-0.7c-0.4-0.5-0.5-1-0.3-1.6l2-8.1
			c-0.6,0.7-1.2,1.4-1.8,2.1c-3.3,3.9-7,8.3-11.2,8.3c-3.2,0-5.4-2.2-5.4-5.3c0-0.2,0-0.3,0-0.5c-3.5,3.5-8.8,5.9-13.2,5.9
			c-4.3,0-7.5-3.1-7.5-7.3c0-0.6,0-1,0.1-1.4c-3.6,3.7-11,8.7-21,8.7c-6.9,0-11.1-2.4-11.1-6.3c0-2.2,1.1-4.9,4.2-6.5
			c-0.9-0.7-1.5-1.9-1.5-3.2c0-0.1,0-0.3,0.1-0.6c-0.7,0.7-1.8,2.2-2.9,3.5c-3.9,5.3-9.8,13.2-18.4,13.2c-2.9,0-4.5-1.7-4.5-4.9
			c0-4.1,2.8-10.2,5.4-14.7c-2.4,0.4-4.4,0.5-6.3,0.5h-0.7c-3.3,4.3-17.9,19.1-25.6,19.1c-3.8,0-6.1-2.4-6.1-6.3
			c0-1.6,0.1-2,1.3-6.7l0.6-2.6l-22.8,15c0,0-0.1,0.1-0.9,0.5c-5.4,3.3-13,5.3-21.4,5.7C445.7,4049.5,445.4,4049.5,445.1,4049.5"/>
	</g>
</g>
</svg>
