<?xml version="1.0" encoding="utf-8"?>
<!-- Generator: Adobe Illustrator 20.0.0, SVG Export Plug-In . SVG Version: 6.00 Build 0)  -->
<svg version="1.1" id="Layer_1" xmlns="http://www.w3.org/2000/svg" xmlns:xlink="http://www.w3.org/1999/xlink" x="0px" y="0px"
	 viewBox="0 0 200 200" style="enable-background:new 0 0 200 200;" xml:space="preserve">
<style type="text/css">
	.st0{fill:#F3F1F0;}
	.st1{fill:#E7DCDC;}
	.st2{fill:#FFFFFF;}
	.st3{fill:#7FCFEE;}
	.st4{fill:#40B6E8;}
	.st5{fill:#F9F5F0;}
</style>
<title>illustration-straightforward</title>
<desc>Created with Sketch.</desc>
<g id="Page-1">
	<g id="Graphical-Illustrations" transform="translate(-43.000000, -1404.000000)">
		<g id="illustration-straightforward" transform="translate(43.000000, 1404.000000)">
			<g id="Enjoy-life">
				<g id="Template">
					<path id="Stroke-1" class="st0" d="M100,200C44.8,200,0,155.2,0,100S44.8,0,100,0s100,44.8,100,100S155.2,200,100,200z"/>
				</g>
			</g>
			<g id="Group-8" transform="translate(45.000000, 26.000000)">
				<g id="Group">
					<path id="Fill-1981" class="st1" d="M0,27.9v37.2c0,37.2,25.4,72.2,55.5,83.8c30.1-11.6,55.5-46.6,55.5-83.8V27.9
						C78.4,27.9,55.5,0,55.5,0S32.5,27.9,0,27.9"/>
					<path id="Fill-1982" class="st2" d="M0,27.9v37.2c0,37.2,25.4,72.2,55.5,83.8V0C55.5,0,32.5,27.9,0,27.9"/>
					<path id="Fill-1983" class="st3" d="M101.8,65.2v1.2c0,5.8-0.8,11.7-2.2,17.5c-5.1,21.2-18.8,40.6-34.8,51
						c-3,2-6.1,3.6-9.2,4.8c-3.1-1.3-6.2-2.9-9.2-4.8c-16.1-10.4-29.7-29.9-34.8-51C10,78.1,9.2,72.2,9.2,66.4v-1.2V34.9
						c15.5,0,28.7-8,37-14.6c5.9-4.7,9.2-8.7,9.2-8.7s3.4,4,9.2,8.7c8.3,6.6,21.5,14.6,37,14.6v30.3H101.8z"/>
					<path id="Fill-1983_1_" class="st4" d="M100.6,83.8c-5.1,21.2-19.8,40.6-35.8,51c-3,2-6.1,3.6-9.2,4.8
						c-3.1-1.3,5.1-35.7,0-56.9"/>
					<path id="Fill-1984" class="st4" d="M9.2,34.9v30.3v1.2c0,5.8,0.8,11.7,2.2,17.5c5.1,21.2,18.8,40.6,34.8,51
						c3,2,6.1,3.6,9.2,4.8v-128c0,0-3.4,4-9.2,8.7C37.9,26.9,24.7,34.9,9.2,34.9z"/>
					<path id="Fill-1984_1_" class="st3" d="M8.2,33.9v31.3l1,1.2c0,5.8,35.6-1.3,37,4.5c5.1,21.2,9.2-59.2,9.2-59.2s-3.4,3-9.2,7.7
						C37.9,25.9,23.7,33.9,8.2,33.9z"/>
					<path id="Fill-1985" class="st5" d="M64.8,65.2V19.3c-5.9-4.7-9.2-8.7-9.2-8.7s-3.4,5-9.2,9.7v44.9h-37v1.2
						c0,5.8,0.8,11.7,2.2,17.5h34.8v51c3,2,6.1,3.6,9.2,4.8c3.1-1.3,6.2-1.9,9.2-3.8v-52h35.8c1.4-5.8,2.2-11.6,2.2-17.5v-1.2H64.8z
						"/>
					<path id="Fill-1986" class="st2" d="M46.2,65.2h-38l-1,1.2c0,5.8,1.8,11.7,3.2,17.5h35.8v52c3,2,6.1,3.6,9.2,4.8V83.8V65.2
						V10.6c0,0-3.4,4-9.2,8.7V65.2z"/>
				</g>
			</g>
		</g>
	</g>
</g>
</svg>
