<?xml version="1.0" encoding="UTF-8" standalone="no"?>
<svg width="182px" height="182px" viewBox="0 0 182 182" version="1.1" xmlns="http://www.w3.org/2000/svg" xmlns:xlink="http://www.w3.org/1999/xlink">
    <!-- Generator: Sketch 39.1 (31720) - http://www.bohemiancoding.com/sketch -->
    <title>illustration-correct</title>
    <desc>Created with Sketch.</desc>
    <defs></defs>
    <g id="Templates" stroke="none" stroke-width="1" fill="none" fill-rule="evenodd">
        <g id="16-illustrations" transform="translate(-1029.000000, -1381.000000)">
            <g id="illustration-correct" transform="translate(1030.000000, 1382.000000)">
                <path d="M90,180 C40.2948,180 0,139.7052 0,90 C0,40.2948 40.2948,0 90,0 C139.7052,0 180,40.2948 180,90 C180,139.7052 139.7052,180 90,180 Z" id="Stroke-1" stroke="#9B9B9B"></path>
                <path d="M157.5,90 C157.5,127.2789 127.2789,157.5 90,157.5 C52.7211,157.5 22.5,127.2789 22.5,90 C22.5,52.7211 52.7211,22.5 90,22.5 C127.2789,22.5 157.5,52.7211 157.5,90 L157.5,90 Z" id="Stroke-3" stroke="#9B9B9B"></path>
                <g id="Group-2" transform="translate(22.000000, 22.000000)">
                    <path d="M67.3653172,0.5 L67.2813863,0.5 C64.9858756,0.5 63.1268057,2.33152812 63.1268057,4.59303125 L63.1268057,9.11397031 L71.5198978,9.11397031 L71.5198978,4.59303125 C71.5198978,2.33152812 69.6608279,0.5 67.3653172,0.5" id="Fill-4150" fill="#5B5C5F"></path>
                    <path d="M134.593985,72.1075817 C129.348302,66.2160973 121.626658,62.5158317 113.044721,62.5158317 C103.770354,62.5158317 95.5241412,66.8362536 90.2784586,73.554613 C85.0327761,66.8362536 76.7865631,62.5158317 67.5121963,62.5158317 C58.2378295,62.5158317 49.9916165,66.8362536 44.745934,73.554613 C39.5002514,66.8362536 31.2540384,62.5158317 21.9796716,62.5158317 C13.397735,62.5158317 5.67609023,66.2160973 0.43040766,72.1075817 C1.92018151,36.8827067 31.3799348,8.76895672 67.5121963,8.76895672 C103.644458,8.76895672 133.104211,36.8827067 134.593985,72.1075817" id="Fill-4151" fill="#3E3E3F"></path>
                    <path d="M67.5121963,8.76875 C31.3799348,8.76875 1.92018151,36.8825 0.43040766,72.107375 C5.67609023,66.2158906 13.397735,62.515625 21.9796716,62.515625 C27.6303209,62.515625 32.8864948,64.1363 37.3285388,66.9083984 L91.79551,13.2462781 C84.2627099,10.3666859 76.0794451,8.76875 67.5121963,8.76875" id="Fill-4152" fill="#5B5C5F"></path>
                    <path d="M54.7335038,132.8 C46.6803319,132.8 40.8366415,128.525056 38.6985013,121.070778 C38.0690194,118.873358 39.3657521,116.589116 41.5962163,115.968959 C43.8266806,115.346736 46.1452723,116.626325 46.7747542,118.823745 C47.8931337,122.718327 50.4215527,124.53125 54.7335038,124.53125 C62.7216292,124.53125 63.1265959,117.643381 63.1265959,116.2625 L63.1265959,62.515625 C63.1265959,60.23345 65.0066485,58.38125 67.3231419,58.38125 C69.6396353,58.38125 71.519688,60.23345 71.519688,62.515625 L71.519688,116.2625 C71.519688,122.910575 67.0482681,132.8 54.7335038,132.8" id="Fill-4153" fill="#5B5C5F"></path>
                    <path d="M90.5302514,65.6990938 C90.5302514,68.3450937 90.404355,70.9704219 90.1525623,73.5544062 C84.9068797,66.8773906 76.6816494,62.5983125 67.4492481,62.5983125 C58.2168468,62.5983125 49.9916165,66.8773906 44.745934,73.5544062 C44.4941412,70.9704219 44.3682448,68.3450937 44.3682448,65.6990938 C44.3682448,43.6835469 53.1180434,23.6731719 67.3862999,8.8514375 L67.5121963,8.8514375 C81.7804529,23.6731719 90.5302514,43.6835469 90.5302514,65.6990938" id="Fill-4154" fill="#5B5C5F"></path>
                    <path d="M79.6679116,25.195242 C76.2603162,19.2252045 72.1372097,13.7037467 67.3867196,8.76937016 L67.2608232,8.76937016 C54.2431373,22.2887764 45.8437504,40.1368733 44.465185,59.8764467 L79.6679116,25.195242 Z" id="Fill-4155" fill="#9E9FA1"></path>
                </g>
            </g>
        </g>
    </g>
</svg>