<?xml version="1.0" encoding="UTF-8" standalone="no"?>
<svg width="532px" height="666px" viewBox="0 0 532 666" version="1.1" xmlns="http://www.w3.org/2000/svg" xmlns:xlink="http://www.w3.org/1999/xlink">
    <!-- Generator: Sketch 39.1 (31720) - http://www.bohemiancoding.com/sketch -->
    <title>illustration-large</title>
    <desc>Created with Sketch.</desc>
    <defs></defs>
    <g id="Templates" stroke="none" stroke-width="1" fill="none" fill-rule="evenodd">
        <g id="16-illustrations" transform="translate(-240.000000, -1644.000000)">
            <g id="illustration-large" transform="translate(240.000000, 1644.000000)">
                <g id="Group-8" transform="translate(225.000000, 0.000000)">
                    <g id="Group">
                        <path d="M0,25.125 L0,58.625 C0,92.125 22.8766779,123.53125 49.9127517,134 C76.9488255,123.53125 99.8255034,92.125 99.8255034,58.625 L99.8255034,25.125 C70.4913633,25.125 49.9127517,0 49.9127517,0 C49.9127517,0 29.259271,25.125 0,25.125" id="Fill-1981" fill="#E7DCDC"></path>
                        <path d="M0,25.125 L0,58.625 C0,92.125 22.8766779,123.53125 49.9127517,134 L49.9127517,0 C49.9127517,0 29.259271,25.125 0,25.125" id="Fill-1982" fill="#F9F5F0"></path>
                        <path d="M91.5067114,58.625 L91.5067114,59.671875 C91.5067114,64.9271875 90.8204111,70.2034375 89.5725923,75.375 C84.9764597,94.4071875 72.6854446,111.910937 58.2315436,121.27 C55.5279362,123.02875 52.7411409,124.494375 49.9127517,125.625 C47.0843624,124.494375 44.2975671,123.02875 41.5939597,121.27 C27.1400587,111.910937 14.8490436,94.4071875 10.2529111,75.375 C9.00509228,70.2034375 8.31879195,64.9271875 8.31879195,59.671875 L8.31879195,58.625 L8.31879195,31.40625 C22.2527685,31.40625 34.127844,24.2246875 41.5939597,18.2575 C46.8555956,14.0490625 49.9127517,10.46875 49.9127517,10.46875 C49.9127517,10.46875 52.9699077,14.07 58.2315436,18.2784375 C65.6768624,24.2246875 77.5519379,31.40625 91.5067114,31.40625 L91.5067114,58.625 Z" id="Fill-1983" fill="#7FCFEE"></path>
                        <path d="M90.4719211,75.375 C85.8757886,94.4071875 72.6854446,111.910937 58.2315436,121.27 C55.5279362,123.02875 52.7411409,124.494375 49.9127517,125.625 C47.0843624,124.494375 54.5088842,93.5078586 49.9127517,74.4756711" id="Fill-1983" fill="#40B6E8"></path>
                        <path d="M8.31879195,31.40625 L8.31879195,58.625 L8.31879195,59.671875 C8.31879195,64.9271875 9.00509228,70.2034375 10.2529111,75.375 C14.8490436,94.4071875 27.1400587,111.910937 41.5939597,121.27 C44.2975671,123.02875 47.0843624,124.494375 49.9127517,125.625 L49.9127517,10.46875 C49.9127517,10.46875 46.8555956,14.0490625 41.5939597,18.2575 C34.127844,24.2246875 22.2527685,31.40625 8.31879195,31.40625 Z" id="Fill-1984" fill="#40B6E8"></path>
                        <path d="M7.41946309,30.5069211 L7.41946309,58.625 L8.31879195,59.671875 C8.31879195,64.9271875 40.3461409,58.5191883 41.5939597,63.6907508 C46.1900923,82.7229383 49.9127517,10.46875 49.9127517,10.46875 C49.9127517,10.46875 46.8555956,13.1497336 41.5939597,17.3581711 C34.127844,23.3253586 21.3534396,30.5069211 7.41946309,30.5069211 Z" id="Fill-1984" fill="#7FCFEE"></path>
                        <path d="M58.2315436,58.625 L58.2315436,17.3791086 C52.9699077,13.1706711 49.9127517,9.56942114 49.9127517,9.56942114 C49.9127517,9.56942114 46.8555956,14.0490625 41.5939597,18.2575 L41.5939597,58.625 L8.31879195,58.625 L8.31879195,59.671875 C8.31879195,64.9271875 9.00509228,70.2034375 10.2529111,75.375 L41.5939597,75.375 L41.5939597,121.27 C44.2975671,123.02875 47.0843624,124.494375 49.9127517,125.625 C52.7411409,124.494375 55.5279362,123.928079 58.2315436,122.169329 L58.2315436,75.375 L90.4719211,75.375 C91.7197399,70.2034375 92.4060403,64.9271875 92.4060403,59.671875 L92.4060403,58.625 L58.2315436,58.625 Z" id="Fill-1985" fill="#F9F5F0"></path>
                        <path d="M41.5939597,58.6243719 L7.41946309,58.6243719 L6.52013423,59.6712469 C6.52013423,64.9265594 8.10576342,70.2049031 9.35358221,75.3743719 L41.5939597,75.3743719 L41.5939597,122.168701 C44.2975671,123.927451 47.0843624,125.393076 49.9127517,126.523701 L49.9127517,75.3743719 L49.9127517,58.6243719 L49.9127517,9.56879302 C49.9127517,9.56879302 46.8555956,13.1491055 41.5939597,17.357543 L41.5939597,58.6243719 Z" id="Fill-1986" fill="#FFFFFF"></path>
                    </g>
                </g>
                <g id="heart" transform="translate(337.000000, 118.000000)">
                    <g id="Fill-6960-+-Fill-6961">
                        <path d="M56.2828261,14.0786123 C42.2826707,-10.4211592 0.282204704,-1.67081196 0.282204704,42.0789229 C1.15083479,81.9098152 56.2828261,112.081701 56.2828261,112.081701 C56.2828261,112.081701 111.414817,81.9098152 112.283447,42.0789229 C112.283447,-1.67081196 70.2829814,-10.4211592 56.2828261,14.0786123" id="Fill-6960" fill="#DF2C2C"></path>
                        <path d="M56.5514209,13.6535039 C56.4653585,13.7996099 56.3672873,13.9317057 56.2832264,14.0778117 C42.283071,-10.4219598 0.280603542,-1.67161254 0.280603542,42.0801238 C1.15123508,81.9110161 56.2832264,112.080901 56.2832264,112.080901 C56.2832264,112.080901 56.3913048,112.020857 56.5514209,111.930792 L56.5514209,13.6535039 Z" id="Fill-6961" fill="#FA5655"></path>
                    </g>
                    <g id="Group" transform="translate(63.000000, 50.000000)">
                        <path d="M24.7773867,38.6363636 C24.7773867,39.491 24.0896632,40.1818182 23.2422897,40.1818182 C22.393381,40.1818182 21.7071927,39.491 21.7071927,38.6363636 C21.7071927,37.7832727 22.393381,37.0909091 23.2422897,37.0909091 C24.0896632,37.0909091 24.7773867,37.7832727 24.7773867,38.6363636" id="Fill-1451" fill="#0E6175"></path>
                        <path d="M33.9879687,0 C15.3365401,0 0.215834638,15.2227273 0.215834638,34 C0.215834638,52.7772727 15.3365401,68 33.9879687,68 C52.6393972,68 67.7601027,52.7772727 67.7601027,34 C67.7601027,15.2227273 52.6393972,0 33.9879687,0 M33.9879687,4.25 C50.2814883,4.25 63.538586,17.5965455 63.538586,34 C63.538586,50.405 50.2814883,63.75 33.9879687,63.75 C17.6944491,63.75 4.43735139,50.405 4.43735139,34 C4.43735139,17.5965455 17.6944491,4.25 33.9879687,4.25" id="Fill-1452" fill="#E7DCDC"></path>
                        <path d="M33.9879687,63.75 C17.6944491,63.75 4.43735139,50.405 4.43735139,34 C4.43735139,17.5965455 17.6944491,4.25 33.9879687,4.25 C50.2814883,4.25 63.538586,17.5965455 63.538586,34 C63.538586,50.405 50.2814883,63.75 33.9879687,63.75" id="Fill-1453" fill="#86AC1B"></path>
                        <path d="M33.9879687,4.25 C17.692914,4.25 4.43735139,17.5965455 4.43735139,34 C4.43735139,42.4428182 7.95425862,50.0680909 13.5834593,55.4895455 L55.3319574,13.4578182 C49.9483722,7.79063636 42.3742036,4.25 33.9879687,4.25" id="Fill-1454" fill="#A4C054"></path>
                        <path d="M4.43735139,34 C4.43735139,17.5965455 17.6944491,4.25 33.9879687,4.25 C42.3511771,4.25 49.9099948,7.77209091 55.2905098,13.4145455 L58.285484,10.3993636 C52.1435609,3.99190909 43.5316667,0 33.9879687,0 C15.3365401,0 0.215834638,15.2227273 0.215834638,34 C0.215834638,43.6080909 4.18099019,52.2780909 10.5455024,58.4614545 L13.5404766,55.4462727 C7.93583746,50.0294545 4.43735139,42.4211818 4.43735139,34" id="Fill-1455" fill="#FFFFFF"></path>
                    </g>
                    <g id="Fill-2049-+-Fill-2050" transform="translate(78.000000, 68.000000)" fill="#FFFFFF">
                        <path d="M12.9679771,33.8797524 C11.8813039,33.8797524 10.845382,33.4120645 10.1348649,32.5937949 L1.17876732,22.2825659 C-0.162408293,20.7380911 0.0189526829,18.4136454 1.58403073,17.0901256 C3.14836244,15.7651326 5.5038161,15.9441061 6.84573805,17.4893174 L12.7007868,24.2306516 L31.2055771,2.20954907 C34.0700356,-1.74996286 37.0688356,0.442646331 34.1909429,4.41909814 L16.0048405,32.3374872 C15.3383576,33.2588691 14.279299,33.8259867 13.1329185,33.8760698 C13.0776893,33.8782794 13.0232063,33.8797524 12.9679771,33.8797524" id="Fill-2050"></path>
                    </g>
                </g>
                <g id="£5" transform="translate(396.000000, 271.000000)">
                    <g id="Group" transform="translate(0.500000, 0.500000)">
                        <path d="M49.1904,76.7045455 C49.1904,78.40125 47.8250667,79.7727273 46.142781,79.7727273 C44.4574476,79.7727273 43.0951619,78.40125 43.0951619,76.7045455 C43.0951619,75.0109091 44.4574476,73.6363636 46.142781,73.6363636 C47.8250667,73.6363636 49.1904,75.0109091 49.1904,76.7045455" id="Fill-1451" fill="#0E6175"></path>
                        <path d="M67.4761143,0 C30.4475429,0 0.428495238,30.2215909 0.428495238,67.5 C0.428495238,104.778409 30.4475429,135 67.4761143,135 C104.504686,135 134.523733,104.778409 134.523733,67.5 C134.523733,30.2215909 104.504686,0 67.4761143,0 M67.4761143,8.4375 C99.8235429,8.4375 126.142781,34.9343182 126.142781,67.5 C126.142781,100.06875 99.8235429,126.5625 67.4761143,126.5625 C35.1286857,126.5625 8.80944762,100.06875 8.80944762,67.5 C8.80944762,34.9343182 35.1286857,8.4375 67.4761143,8.4375" id="Fill-1452" fill="#E7DCDC"></path>
                        <path d="M67.4761143,126.5625 C35.1286857,126.5625 8.80944762,100.06875 8.80944762,67.5 C8.80944762,34.9343182 35.1286857,8.4375 67.4761143,8.4375 C99.8235429,8.4375 126.142781,34.9343182 126.142781,67.5 C126.142781,100.06875 99.8235429,126.5625 67.4761143,126.5625" id="Fill-1453" fill="#86AC1B"></path>
                        <path d="M67.4761143,8.4375 C35.1256381,8.4375 8.80944762,34.9343182 8.80944762,67.5 C8.80944762,84.2614773 15.7915429,99.3998864 26.9671619,110.163068 L109.85021,26.7177273 C99.1622095,15.4667045 84.1252571,8.4375 67.4761143,8.4375" id="Fill-1454" fill="#C2D58D"></path>
                        <path d="M8.80944762,67.5 C8.80944762,34.9343182 35.1286857,8.4375 67.4761143,8.4375 C84.0795429,8.4375 99.086019,15.4298864 109.767924,26.6318182 L115.713829,20.6457955 C103.520305,7.92511364 86.4231619,0 67.4761143,0 C30.4475429,0 0.428495238,30.2215909 0.428495238,67.5 C0.428495238,86.5748864 8.30049524,103.787386 20.9359238,116.063182 L26.8818286,110.077159 C15.7549714,99.3231818 8.80944762,84.2185227 8.80944762,67.5" id="Fill-1455" fill="#FFFFFF"></path>
                        <path d="M49.1904,76.7045455 C49.1904,78.40125 47.8250667,79.7727273 46.142781,79.7727273 C44.4574476,79.7727273 43.0951619,78.40125 43.0951619,76.7045455 C43.0951619,75.0109091 44.4574476,73.6363636 46.142781,73.6363636 C47.8250667,73.6363636 49.1904,75.0109091 49.1904,76.7045455" id="Fill-1451" fill="#0E6175"></path>
                        <path d="M67.4761143,0 C30.4475429,0 0.428495238,30.2215909 0.428495238,67.5 C0.428495238,104.778409 30.4475429,135 67.4761143,135 C104.504686,135 134.523733,104.778409 134.523733,67.5 C134.523733,30.2215909 104.504686,0 67.4761143,0 M67.4761143,8.4375 C99.8235429,8.4375 126.142781,34.9343182 126.142781,67.5 C126.142781,100.06875 99.8235429,126.5625 67.4761143,126.5625 C35.1286857,126.5625 8.80944762,100.06875 8.80944762,67.5 C8.80944762,34.9343182 35.1286857,8.4375 67.4761143,8.4375" id="Fill-1452" fill="#E7DCDC"></path>
                        <path d="M67.4761143,126.5625 C35.1286857,126.5625 8.80944762,100.06875 8.80944762,67.5 C8.80944762,34.9343182 35.1286857,8.4375 67.4761143,8.4375 C99.8235429,8.4375 126.142781,34.9343182 126.142781,67.5 C126.142781,100.06875 99.8235429,126.5625 67.4761143,126.5625" id="Fill-1453" fill="#40B6E8"></path>
                        <path d="M67.4761143,8.4375 C35.1256381,8.4375 8.80944762,34.9343182 8.80944762,67.5 C8.80944762,84.2614773 15.7915429,99.3998864 26.9671619,110.163068 L109.85021,26.7177273 C99.1622095,15.4667045 84.1252571,8.4375 67.4761143,8.4375" id="Fill-1454" fill="#7FCFEE"></path>
                        <path d="M8.80944762,67.5 C8.80944762,34.9343182 35.1286857,8.4375 67.4761143,8.4375 C84.0795429,8.4375 99.086019,15.4298864 109.767924,26.6318182 L115.713829,20.6457955 C103.520305,7.92511364 86.4231619,0 67.4761143,0 C30.4475429,0 0.428495238,30.2215909 0.428495238,67.5 C0.428495238,86.5748864 8.30049524,103.787386 20.9359238,116.063182 L26.8818286,110.077159 C15.7549714,99.3231818 8.80944762,84.2185227 8.80944762,67.5" id="Fill-1455" fill="#FFFFFF"></path>
                    </g>
                    <path d="M45.5414,62.96 L44.4884,61.1348 C43.8566,60.0818 43.5758,58.748 43.5758,57.4142 C43.5758,53.9042 46.805,52.0088 50.315,52.0088 C57.6158,52.0088 57.4052,59.3798 62.1788,59.3798 C65.3378,59.3798 67.6544,57.2738 67.6544,54.0446 C67.6544,47.0948 59.7218,41.9 49.8938,41.9 C40.3466,41.9 32.2034,47.165 32.2034,55.5188 C32.2034,57.4844 33.116,61.205 34.0286,62.96 L32.5544,62.96 C29.606,62.96 27.5,64.7852 27.5,67.8038 C27.5,70.8224 29.606,72.6476 32.5544,72.6476 L36.2048,72.6476 C36.2048,81.3524 30.0974,84.371 30.0974,87.2492 C30.0974,90.6188 32.1332,92.7248 35.573,92.7248 L63.0914,92.7248 C66.0398,92.7248 68.1458,90.8996 68.1458,87.881 C68.1458,84.8624 66.0398,83.0372 63.0914,83.0372 L43.5758,83.0372 C45.8222,79.9484 47.156,76.4384 47.156,72.6476 L56.2118,72.6476 C59.1602,72.6476 61.2662,70.8224 61.2662,67.8038 C61.2662,64.7852 59.1602,62.96 56.2118,62.96 L45.5414,62.96 Z M86.819,52.43 L100.0166,52.43 C101.2802,52.43 104.9306,52.0088 104.9306,47.165 C104.9306,44.6378 103.0352,42.7424 99.806,42.7424 L82.8878,42.7424 C79.5182,42.7424 78.1844,43.9358 77.4122,49.4114 L75.6572,64.2236 C75.587,64.9958 75.4466,65.6978 75.4466,66.6104 C75.4466,67.8038 76.8506,69.9098 79.5884,69.9098 C83.1686,69.9098 83.8004,67.5932 87.872,67.5932 C92.2244,67.5932 94.6112,70.4714 94.6112,74.6834 C94.6112,79.106 92.084,83.8796 87.17,83.8796 C82.4666,83.8796 79.097,79.3868 76.289,79.3868 C73.6916,79.3868 71.5154,81.563 71.5154,84.1604 C71.5154,90.338 81.9752,93.5672 86.9594,93.5672 C99.104,93.5672 105.5624,85.8452 105.5624,74.1218 C105.5624,65.9084 99.5252,59.1692 91.031,59.1692 C89.276,59.1692 87.4508,59.5202 85.766,59.8712 L86.819,52.43 Z" fill="#FFFFFF"></path>
                </g>
                <g id="giftcards" transform="translate(330.000000, 430.000000)">
                    <rect id="Rectangle" fill="#FFED00" transform="translate(71.208433, 56.066866) rotate(18.000000) translate(-71.208433, -56.066866) " x="9.20843268" y="18.066866" width="124" height="76" rx="12"></rect>
                    <rect id="Rectangle" fill="#009FE3" transform="translate(71.000000, 56.000000) rotate(-4.000000) translate(-71.000000, -56.000000) " x="9" y="18" width="124" height="76" rx="12"></rect>
                    <path d="M30.6747495,52.0710367 C29.6107495,52.0710367 28.7147495,52.7990367 28.7147495,53.9750367 C28.7147495,55.1230367 29.5267495,55.9350367 30.6747495,55.9350367 L33.5307495,55.9350367 C33.5307495,59.1270367 30.9827495,60.3590367 28.7707495,60.3590367 C25.2147495,60.3590367 23.5067495,57.3350367 23.5067495,53.9190367 C23.5067495,50.5310367 25.2707495,47.4790367 28.7707495,47.4790367 C32.4387495,47.4790367 32.8307495,49.5230367 34.7347495,49.5230367 C35.7147495,49.5230367 36.4707495,48.7670367 36.4707495,47.5630367 C36.4707495,45.6030367 32.9987495,43.6150367 28.7707495,43.6150367 C23.0587495,43.6150367 19.1387495,48.0950367 19.1387495,53.9190367 C19.1387495,59.7150367 23.0867495,64.2230367 28.7707495,64.2230367 C34.3707495,64.2230367 37.8987495,60.1630367 37.8987495,54.7590367 C37.8987495,52.9670367 37.1987495,52.0710367 35.4347495,52.0710367 L30.6747495,52.0710367 Z M39.4667495,61.8150367 C39.4667495,63.1590367 40.3067495,64.0550367 41.4827495,64.0550367 C42.6587495,64.0550367 43.4987495,63.1590367 43.4987495,61.8150367 L43.4987495,51.0630367 C43.4987495,49.7190367 42.6587495,48.8230367 41.4827495,48.8230367 C40.3067495,48.8230367 39.4667495,49.7190367 39.4667495,51.0630367 L39.4667495,61.8150367 Z M41.4827495,42.7750367 C40.2787495,42.7750367 39.2147495,43.8390367 39.2147495,44.9870367 C39.2147495,46.2190367 40.2787495,47.3110367 41.4827495,47.3110367 C42.7427495,47.3110367 43.7507495,46.2470367 43.7507495,44.9870367 C43.7507495,43.8110367 42.6867495,42.7750367 41.4827495,42.7750367 L41.4827495,42.7750367 Z M46.6627495,61.8150367 C46.6627495,63.1590367 47.5027495,64.0550367 48.6787495,64.0550367 C49.8547495,64.0550367 50.6947495,63.1590367 50.6947495,61.8150367 L50.6947495,52.5190367 L51.9547495,52.5190367 C53.1307495,52.5190367 53.9987495,52.0150367 53.9987495,50.7550367 C53.9987495,49.4670367 53.1587495,48.9910367 51.9547495,48.9910367 L50.6947495,48.9910367 L50.6947495,47.3390367 C50.6947495,45.8550367 51.3667495,45.8550367 52.0387495,45.8550367 C53.1587495,45.8550367 53.6907495,45.3230367 53.6907495,44.1470367 C53.6907495,42.7470367 52.3187495,42.3270367 50.8907495,42.3270367 C48.4267495,42.3270367 46.6627495,43.9510367 46.6627495,46.9190367 L46.6627495,48.9910367 L45.7667495,48.9910367 C44.7587495,48.9910367 44.0027495,49.7470367 44.0027495,50.7550367 C44.0027495,51.8470367 44.6747495,52.5190367 45.7667495,52.5190367 L46.6627495,52.5190367 L46.6627495,61.8150367 Z M55.0067495,61.8150367 C55.0067495,63.1590367 55.8467495,64.0550367 57.0227495,64.0550367 C58.1987495,64.0550367 59.0387495,63.1590367 59.0387495,61.8150367 L59.0387495,52.5190367 L60.1867495,52.5190367 C61.2227495,52.5190367 62.1187495,52.0150367 62.1187495,50.7550367 C62.1187495,49.4670367 61.2227495,48.9910367 60.1867495,48.9910367 L59.0387495,48.9910367 L59.0387495,46.5830367 C59.0387495,45.2390367 58.1987495,44.3430367 57.0227495,44.3430367 C55.8467495,44.3430367 55.0067495,45.2390367 55.0067495,46.5830367 L55.0067495,48.9910367 L54.1107495,48.9910367 C53.1027495,48.9910367 52.3467495,49.7470367 52.3467495,50.7550367 C52.3467495,51.8470367 53.0187495,52.5190367 54.1107495,52.5190367 L55.0067495,52.5190367 L55.0067495,61.8150367 Z M81.3827495,51.2030367 C81.3827495,49.2430367 78.0507495,48.6550367 76.4547495,48.6550367 C72.1987495,48.6550367 69.2307495,52.3790367 69.2307495,56.4670367 C69.2307495,60.6670367 72.1147495,64.2230367 76.4547495,64.2230367 C77.9107495,64.2230367 81.3827495,63.5230367 81.3827495,61.4510367 C81.3827495,60.4990367 80.5987495,59.6870367 79.6467495,59.6870367 C79.1707495,59.6870367 77.6587495,60.5270367 76.6507495,60.5270367 C74.4667495,60.5270367 73.2627495,58.4550367 73.2627495,56.4670367 C73.2627495,54.3950367 74.3547495,52.3510367 76.6507495,52.3510367 C77.9387495,52.3510367 78.8347495,53.1350367 79.8427495,53.1350367 C80.7947495,53.1350367 81.3827495,52.0430367 81.3827495,51.2030367 L81.3827495,51.2030367 Z M96.5587495,51.4550367 C96.5587495,50.4190367 96.5587495,48.8230367 94.6267495,48.8230367 C93.6467495,48.8230367 92.8067495,49.5230367 92.6947495,50.5030367 C91.7987495,49.2430367 90.3427495,48.6550367 88.8587495,48.6550367 C85.1627495,48.6550367 82.1947495,52.0430367 82.1947495,56.4670367 C82.1947495,61.0030367 85.0787495,64.2230367 88.8587495,64.2230367 C90.3987495,64.2230367 91.6587495,63.5790367 92.6947495,62.3470367 C92.9747495,63.4110367 93.4507495,64.0550367 94.6267495,64.0550367 C96.5587495,64.0550367 96.5587495,62.4590367 96.5587495,61.4230367 L96.5587495,51.4550367 Z M86.2267495,56.4670367 C86.2267495,54.5350367 87.2067495,52.3510367 89.4187495,52.3510367 C91.5467495,52.3510367 92.5267495,54.5350367 92.5267495,56.4670367 C92.5267495,58.3990367 91.5187495,60.5270367 89.4187495,60.5270367 C87.2347495,60.5270367 86.2267495,58.3990367 86.2267495,56.4670367 L86.2267495,56.4670367 Z M98.7987495,61.8150367 C98.7987495,63.1590367 99.6387495,64.0550367 100.814749,64.0550367 C101.990749,64.0550367 102.830749,63.1590367 102.830749,61.8150367 L102.830749,55.6270367 C102.830749,54.0310367 104.062749,53.4990367 105.266749,52.9390367 C106.470749,52.3790367 107.674749,52.2950367 107.674749,50.9790367 C107.674749,49.5230367 106.694749,48.8230367 105.714749,48.8230367 C104.454749,48.8230367 103.642749,49.3830367 102.886749,50.5030367 L102.830749,50.5030367 C102.830749,49.2150367 101.934749,48.8230367 100.870749,48.8230367 C99.8627495,48.8230367 98.7987495,49.4950367 98.7987495,50.8390367 L98.7987495,61.8150367 Z M121.954749,44.5670367 C121.954749,43.2230367 121.114749,42.3270367 119.938749,42.3270367 C118.762749,42.3270367 117.922749,43.2230367 117.922749,44.5670367 L117.922749,50.0550367 C116.858749,49.1310367 115.486749,48.6550367 114.086749,48.6550367 C109.746749,48.6550367 107.590749,52.7150367 107.590749,56.6350367 C107.590749,60.4430367 110.166749,64.2230367 114.226749,64.2230367 C115.598749,64.2230367 117.166749,63.6070367 117.922749,62.3750367 C118.174749,63.4390367 118.818749,64.0550367 119.938749,64.0550367 C121.114749,64.0550367 121.954749,63.1590367 121.954749,61.8150367 L121.954749,44.5670367 Z M117.922749,56.3270367 C117.922749,58.2870367 116.970749,60.5270367 114.758749,60.5270367 C112.658749,60.5270367 111.622749,58.3430367 111.622749,56.4670367 C111.622749,54.5630367 112.658749,52.3510367 114.758749,52.3510367 C116.914749,52.3510367 117.922749,54.3670367 117.922749,56.3270367 L117.922749,56.3270367 Z" id="Gift-card" fill="#FFFFFF" transform="translate(70.546749, 53.275037) rotate(356.000000) translate(-70.546749, -53.275037) "></path>
                </g>
                <g id="calculator" transform="translate(225.000000, 546.000000)">
                    <g id="Group">
                        <path d="M105.32884,15 C105.32884,6.71625 98.6084293,0 90.3195471,0 L15.2730815,0 C6.98419933,0 0.263788327,6.71625 0.263788327,15 L0.263788327,105 C0.263788327,113.28375 6.98419933,120 15.2730815,120 L90.3195471,120 C98.6084293,120 105.32884,113.28375 105.32884,105 L105.32884,15 Z" id="Fill-2390" fill="#0299DA"></path>
                        <path d="M28.406213,84.609 C28.406213,85.5165 27.6707576,86.249625 26.7645715,86.249625 L16.9147229,86.249625 C16.0085368,86.249625 15.2730815,85.5165 15.2730815,84.609 L15.2730815,74.76525 C15.2730815,73.859625 16.0085368,73.124625 16.9147229,73.124625 L26.7645715,73.124625 C27.6707576,73.124625 28.406213,73.859625 28.406213,74.76525 L28.406213,84.609 Z" id="Fill-2391" fill="#7FCFEE"></path>
                        <path d="M28.406213,107.109 C28.406213,108.0165 27.6707576,108.749625 26.7645715,108.749625 L16.9147229,108.749625 C16.0085368,108.749625 15.2730815,108.0165 15.2730815,107.109 L15.2730815,97.26525 C15.2730815,96.359625 16.0085368,95.624625 16.9147229,95.624625 L26.7645715,95.624625 C27.6707576,95.624625 28.406213,96.359625 28.406213,97.26525 L28.406213,107.109 Z" id="Fill-2392" fill="#7FCFEE"></path>
                        <path d="M49.043991,62.109 C49.043991,63.0165 48.3085357,63.749625 47.4023496,63.749625 L37.552501,63.749625 C36.6463149,63.749625 35.9108595,63.0165 35.9108595,62.109 L35.9108595,52.26525 C35.9108595,51.359625 36.6463149,50.624625 37.552501,50.624625 L47.4023496,50.624625 C48.3085357,50.624625 49.043991,51.359625 49.043991,52.26525 L49.043991,62.109 Z" id="Fill-2393" fill="#7FCFEE"></path>
                        <path d="M49.043991,84.609 C49.043991,85.5165 48.3085357,86.249625 47.4023496,86.249625 L37.552501,86.249625 C36.6463149,86.249625 35.9108595,85.5165 35.9108595,84.609 L35.9108595,74.76525 C35.9108595,73.859625 36.6463149,73.124625 37.552501,73.124625 L47.4023496,73.124625 C48.3085357,73.124625 49.043991,73.859625 49.043991,74.76525 L49.043991,84.609 Z" id="Fill-2394" fill="#81D2EB"></path>
                        <path d="M49.043991,107.109 C49.043991,108.0165 48.3085357,108.749625 47.4023496,108.749625 L37.552501,108.749625 C36.6463149,108.749625 35.9108595,108.0165 35.9108595,107.109 L35.9108595,97.26525 C35.9108595,96.359625 36.6463149,95.624625 37.552501,95.624625 L47.4023496,95.624625 C48.3085357,95.624625 49.043991,96.359625 49.043991,97.26525 L49.043991,107.109 Z" id="Fill-2395" fill="#7FCFEE"></path>
                        <path d="M69.6817691,62.109 C69.6817691,63.0165 68.9463137,63.749625 68.0401276,63.749625 L58.190279,63.749625 C57.284093,63.749625 56.5486376,63.0165 56.5486376,62.109 L56.5486376,52.26525 C56.5486376,51.359625 57.284093,50.624625 58.190279,50.624625 L68.0401276,50.624625 C68.9463137,50.624625 69.6817691,51.359625 69.6817691,52.26525 L69.6817691,62.109 Z" id="Fill-2396" fill="#7FCFEE"></path>
                        <path d="M90.3195471,62.109 C90.3195471,63.0165 89.5840918,63.749625 88.6779057,63.749625 L78.8280571,63.749625 C77.921871,63.749625 77.1864157,63.0165 77.1864157,62.109 L77.1864157,52.26525 C77.1864157,51.359625 77.921871,50.624625 78.8280571,50.624625 L88.6779057,50.624625 C89.5840918,50.624625 90.3195471,51.359625 90.3195471,52.26525 L90.3195471,62.109 Z" id="Fill-2397" fill="#FFED00"></path>
                        <path d="M69.6817691,84.609 C69.6817691,85.5165 68.9463137,86.249625 68.0401276,86.249625 L58.190279,86.249625 C57.284093,86.249625 56.5486376,85.5165 56.5486376,84.609 L56.5486376,74.76525 C56.5486376,73.859625 57.284093,73.124625 58.190279,73.124625 L68.0401276,73.124625 C68.9463137,73.124625 69.6817691,73.859625 69.6817691,74.76525 L69.6817691,84.609 Z" id="Fill-2398" fill="#81D2EB"></path>
                        <path d="M69.6817691,107.109 C69.6817691,108.0165 68.9463137,108.749625 68.0401276,108.749625 L58.190279,108.749625 C57.284093,108.749625 56.5486376,108.0165 56.5486376,107.109 L56.5486376,97.26525 C56.5486376,96.359625 57.284093,95.624625 58.190279,95.624625 L68.0401276,95.624625 C68.9463137,95.624625 69.6817691,96.359625 69.6817691,97.26525 L69.6817691,107.109 Z" id="Fill-2399" fill="#7FCFEE"></path>
                        <path d="M90.3195471,107.109 C90.3195471,108.0165 89.5840918,108.749625 88.6779057,108.749625 L78.8280571,108.749625 C77.921871,108.749625 77.1864157,108.0165 77.1864157,107.109 L77.1864157,74.999625 C77.1864157,74.094 77.921871,73.359 78.8280571,73.359 L88.6779057,73.359 C89.5840918,73.359 90.3195471,74.094 90.3195471,74.999625 L90.3195471,107.109 Z" id="Fill-2400" fill="#1C6C8C"></path>
                        <path d="M28.406213,62.109 C28.406213,63.0165 27.6707576,63.749625 26.7645715,63.749625 L16.9147229,63.749625 C16.0085368,63.749625 15.2730815,63.0165 15.2730815,62.109 L15.2730815,52.26525 C15.2730815,51.359625 16.0085368,50.624625 16.9147229,50.624625 L26.7645715,50.624625 C27.6707576,50.624625 28.406213,51.359625 28.406213,52.26525 L28.406213,62.109 Z" id="Fill-2401" fill="#7FCFEE"></path>
                        <path d="M90.3195471,18.75 L90.3195471,33.75 C90.3195471,37.89375 86.9612178,41.25 82.8149006,41.25 L22.777728,41.25 C18.6314108,41.25 15.2730815,37.89375 15.2730815,33.75 L15.2730815,18.75 C15.2730815,14.60625 18.6314108,11.25 22.777728,11.25 L82.8149006,11.25 C86.9612178,11.25 90.3195471,14.60625 90.3195471,18.75" id="Fill-2402" fill="#7FCFEE"></path>
                        <path d="M22.777728,11.25 C18.6314108,11.25 15.2730815,14.60625 15.2730815,18.75 L15.2730815,33.75 C15.2730815,37.89375 18.6314108,41.25 22.777728,41.25 L38.1134733,41.25 L68.1320596,11.25 L22.777728,11.25 Z" id="Fill-2403" fill="#F2F9F6"></path>
                    </g>
                </g>
                <g id="heart-in-hand" transform="translate(0.000000, 171.000000)">
                    <g id="Group" transform="translate(29.398148, 0.000000)">
                        <path d="M119.728368,26.9561673 C89.8185521,-19.8477581 0.0758052249,-3.13302102 0.0758052249,80.4539724 C1.92438878,156.548612 119.728368,214.185177 119.728368,214.185177 C119.728368,214.185177 237.532347,156.548612 239.380931,80.4539724 C239.380931,-3.13302102 149.638184,-19.8477581 119.728368,26.9561673" id="Fill-6956" fill="#DF2C2C"></path>
                        <path d="M119.69246,26.9109204 C89.7427469,-19.8397734 0.0664958113,-3.09842045 0.0664958113,80.4486492 C1.92837853,156.410209 119.293485,213.966927 119.69246,214.166546 L119.69246,26.9109204 Z" id="Fill-6960" fill="#FA5655"></path>
                    </g>
                    <g id="Group-15" transform="translate(0.000000, 75.595238)">
                        <polygon id="Fill-6738" fill="#2B374B" points="125.993835 226.011234 38.7673339 226.011234 38.7673339 206.647912 125.993835 206.647912"></polygon>
                        <path d="M47.7531173,206.647912 L47.7531173,177.602929 L8.98578341,134.035454 C0.907640206,124.353793 -1.94660476,111.346482 1.33408088,99.1766339 L28.1174627,10.5168233 C29.3434796,6.46504817 32.3721776,3.20716924 36.3215998,1.68230764 C40.2710219,0.157446028 44.7050357,0.539871638 48.3394733,2.71340453 C53.6990572,5.92771598 56.214088,12.3611797 54.4501743,18.3541279 L38.0612839,100.149641 L76.8286178,143.717115 L65.3147196,104.065873 C64.5199893,100.483658 65.1984176,96.7368553 67.2046271,93.662928 C69.2059908,90.5938414 72.3655285,88.4541943 75.9611987,87.7377514 C82.1542803,86.4984988 88.3861292,89.664402 91.0319998,95.3911045 L111.137708,138.90533 C114.074334,145.266181 115.595952,152.188569 115.595952,159.18841 L115.595952,206.647912 L47.7531173,206.647912 Z" id="Fill-6739" fill="#E97FB1"></path>
                        <path d="M28.068519,10.5163392 C29.2945359,6.46456409 32.3183879,3.20668516 36.2678101,1.68182355 C40.2220781,0.156961945 44.656092,0.539387555 48.2856836,2.71292045 C53.6501134,5.9272319 56.1602983,12.3606956 54.3963846,18.3536438 L38.0123401,100.149157 L76.779674,143.716631 L65.2657759,104.065389 C64.4661996,100.483174 65.1494739,96.7363712 67.1508375,93.6624439 C69.157047,90.5933573 72.3117388,88.4537103 75.9122549,87.7372673 C82.1004906,86.4980147 88.3371855,89.6687587 90.983056,95.3906204 L111.083919,138.904846 C114.02539,145.265697 115.547008,152.188085 115.547008,159.187926 L115.547008,206.647428 L115.42586,206.647428 L2.80190906,94.1416861 L28.068519,10.5163392 Z" id="Fill-6743" fill="#F3BED7"></path>
                        <path d="M77.6311016,93.5917678 C75.1742218,94.0806916 73.0177889,95.5426224 71.6512403,97.6387021 C70.2846918,99.7396225 69.8146379,102.300422 70.3622265,104.7402 L72.0437596,110.544356 L90.1432586,103.621969 L87.9238288,98.8198647 C86.1163018,94.9084737 81.8615869,92.7446224 77.6311016,93.5917678" id="Fill-6744" fill="#FFFFFF"></path>
                    </g>
                    <g id="Group-14" transform="translate(170.370370, 75.595238)">
                        <polygon id="Fill-6740" fill="#2B374B" points="1.17525946 226.011234 88.4017608 226.011234 88.4017608 206.647912 1.17525946 206.647912"></polygon>
                        <path d="M78.7099273,206.647912 L78.7099273,177.602929 L117.477261,134.035454 C125.555404,124.353793 128.409649,111.346482 125.128964,99.1766339 L98.345582,10.5168233 C97.119565,6.46504817 94.0908671,3.20716924 90.1414449,1.68230764 C86.1920228,0.157446028 81.758009,0.539871638 78.1284173,2.71340453 C72.7639875,5.92771598 70.2489567,12.3611797 72.0177163,18.3541279 L88.4017608,100.149641 L49.6344269,143.717115 L61.1483251,104.065873 C61.9430554,100.483658 61.2646271,96.7368553 59.2584175,93.662928 C57.2570539,90.5938414 54.0975162,88.4541943 50.501846,87.7377514 C44.3087644,86.4984988 38.0769154,89.664402 35.4310449,95.3911045 L15.3253363,138.90533 C12.3887108,145.266181 10.8670929,152.188569 10.8670929,159.18841 L10.8670929,206.647912 L78.7099273,206.647912 Z" id="Fill-6741" fill="#E97FB1"></path>
                        <path d="M98.343159,10.5163392 C97.1171421,6.46456409 94.09329,3.20668516 90.1438679,1.68182355 C86.1895998,0.156961945 81.755586,0.539387555 78.1259944,2.71292045 C72.7615645,5.9272319 70.2513797,12.3606956 72.0152933,18.3536438 L88.3993378,100.149157 L49.6320039,143.716631 L61.1459021,104.065389 C61.9454784,100.483174 61.2622041,96.7363712 59.2608405,93.6624439 C57.254631,90.5933573 54.0999392,88.4537103 50.499423,87.7372673 C44.3111873,86.4980147 38.0744925,89.6687587 35.4286219,95.3906204 L15.3277593,138.904846 C12.3911338,145.265697 10.86467,152.188085 10.86467,159.187926 L10.86467,206.647428 L10.9858179,206.647428 L123.609769,94.1416861 L98.343159,10.5163392 Z" id="Fill-6742" fill="#F3BED7"></path>
                        <path d="M49.5379931,92.7843172 C51.9948729,93.2732411 54.1513059,94.7351719 55.5178544,96.8312515 C56.8844029,98.932172 57.3544568,101.492971 56.8068682,103.93275 L55.1253351,109.736906 L37.0258361,102.814518 L39.245266,98.0124142 C41.0527929,94.1010231 45.3075078,91.9420127 49.5379931,92.7843172" id="Fill-6745" fill="#FFFFFF"></path>
                    </g>
                </g>
            </g>
        </g>
    </g>
</svg>