<?xml version="1.0" encoding="UTF-8" standalone="no"?>
<svg width="182px" height="182px" viewBox="0 0 182 182" version="1.1" xmlns="http://www.w3.org/2000/svg" xmlns:xlink="http://www.w3.org/1999/xlink">
    <!-- Generator: Sketch 39.1 (31720) - http://www.bohemiancoding.com/sketch -->
    <title>illustration-grid-middle</title>
    <desc>Created with Sketch.</desc>
    <defs></defs>
    <g id="Templates" stroke="none" stroke-width="1" fill="none" fill-rule="evenodd">
        <g id="16-illustrations" transform="translate(-427.000000, -976.000000)" stroke="#9B9B9B">
            <g id="illustration-grid-middle" transform="translate(428.000000, 977.000000)">
                <path d="M90,179.552239 C40.5420896,179.552239 0.447761194,139.45791 0.447761194,90 C0.447761194,40.5420896 40.5420896,0.447761194 90,0.447761194 C139.45791,0.447761194 179.552239,40.5420896 179.552239,90 C179.552239,139.45791 139.45791,179.552239 90,179.552239 Z" id="Stroke-1"></path>
                <path d="M157.164179,90 C157.164179,127.093433 127.093433,157.164179 90,157.164179 C52.9065672,157.164179 22.8358209,127.093433 22.8358209,90 C22.8358209,52.9065672 52.9065672,22.8358209 90,22.8358209 C127.093433,22.8358209 157.164179,52.9065672 157.164179,90 L157.164179,90 Z" id="Stroke-3"></path>
                <path d="M127.779851,90 C127.779851,110.865672 110.865224,127.780299 89.9995522,127.780299 C69.1347761,127.780299 52.2201493,110.865672 52.2201493,90 C52.2201493,69.1343284 69.1347761,52.2197015 89.9995522,52.2197015 C110.865224,52.2197015 127.779851,69.1343284 127.779851,90 L127.779851,90 Z" id="Stroke-7"></path>
                <path d="M95.0429552,90 C95.0429552,92.7850746 92.7853433,95.0426866 90.0002687,95.0426866 C87.215194,95.0426866 84.9566866,92.7850746 84.9566866,90 C84.9566866,87.2149254 87.215194,84.9573134 90.0002687,84.9573134 C92.7853433,84.9573134 95.0429552,87.2149254 95.0429552,90 L95.0429552,90 Z" id="Stroke-21"></path>
            </g>
        </g>
    </g>
</svg>