<?xml version="1.0" encoding="utf-8"?>
<!-- Generator: Adobe Illustrator 20.0.0, SVG Export Plug-In . SVG Version: 6.00 Build 0)  -->
<svg version="1.1" id="Layer_1" xmlns="http://www.w3.org/2000/svg" xmlns:xlink="http://www.w3.org/1999/xlink" x="0px" y="0px"
	 viewBox="0 0 200 200" style="enable-background:new 0 0 200 200;" xml:space="preserve">
<style type="text/css">
	.st0{fill:#F3F1F0;}
	.st1{fill:#0E6175;}
	.st2{fill:#E7DCDC;}
	.st3{fill:#86AC1B;}
	.st4{fill:#C2D58D;}
	.st5{fill:#FFFFFF;}
	.st6{fill:#40B6E8;}
	.st7{fill:#7FCFEE;}
</style>
<title>illustration-value</title>
<desc>Created with Sketch.</desc>
<g id="Page-1">
	<g id="Graphical-Illustrations" transform="translate(-543.000000, -1405.000000)">
		<g id="illustration-value" transform="translate(543.000000, 1405.000000)">
			<g id="Template">
				<path id="Stroke-1" class="st0" d="M100,200C44.8,200,0,155.2,0,100S44.8,0,100,0s100,44.8,100,100S155.2,200,100,200z"/>
			</g>
			<g id="Group" transform="translate(25.000000, 25.000000)">
				<path id="Fill-1451" class="st1" d="M54.7,85.2c0,1.9-1.5,3.4-3.4,3.4s-3.4-1.5-3.4-3.4s1.5-3.4,3.4-3.4
					C53.1,81.8,54.7,83.3,54.7,85.2"/>
				<path id="Fill-1452" class="st2" d="M75,0C33.8,0,0.5,33.6,0.5,75s33.4,75,74.5,75s74.5-33.6,74.5-75S116.1,0,75,0 M75,9.4
					c35.9,0,65.2,29.4,65.2,65.6S111,140.6,75,140.6S9.8,111.2,9.8,75S39,9.4,75,9.4"/>
				<path id="Fill-1453" class="st3" d="M75,140.6c-36,0-65.2-29.4-65.2-65.6S39,9.4,75,9.4s65.2,29.4,65.2,65.6
					S110.9,140.6,75,140.6"/>
				<path id="Fill-1454" class="st4" d="M75,9.4C39,9.4,9.8,38.8,9.8,75c0,18.6,7.8,35.4,20.2,47.4l92.1-92.7
					C110.2,17.2,93.5,9.4,75,9.4"/>
				<path id="Fill-1455" class="st5" d="M9.8,75C9.8,38.8,39,9.4,75,9.4c18.4,0,35.1,7.8,47,20.2l6.6-6.7C115,8.8,96,0,75,0
					C33.8,0,0.5,33.6,0.5,75c0,21.2,8.7,40.3,22.8,54l6.6-6.7C17.5,110.4,9.8,93.6,9.8,75"/>
				<path id="Fill-1451_1_" class="st1" d="M54.7,85.2c0,1.9-1.5,3.4-3.4,3.4s-3.4-1.5-3.4-3.4s1.5-3.4,3.4-3.4
					C53.1,81.8,54.7,83.3,54.7,85.2"/>
				<path id="Fill-1452_1_" class="st2" d="M75,0C33.8,0,0.5,33.6,0.5,75s33.4,75,74.5,75s74.5-33.6,74.5-75S116.1,0,75,0 M75,9.4
					c35.9,0,65.2,29.4,65.2,65.6S111,140.6,75,140.6S9.8,111.2,9.8,75S39,9.4,75,9.4"/>
				<path id="Fill-1453_1_" class="st6" d="M75,140.6c-36,0-65.2-29.4-65.2-65.6S39,9.4,75,9.4s65.2,29.4,65.2,65.6
					S110.9,140.6,75,140.6"/>
				<path id="Fill-1454_1_" class="st7" d="M75,9.4C39,9.4,9.8,38.8,9.8,75c0,18.6,7.8,35.4,20.2,47.4l92.1-92.7
					C110.2,17.2,93.5,9.4,75,9.4"/>
				<path id="Fill-1455_1_" class="st5" d="M9.8,75C9.8,38.8,39,9.4,75,9.4c18.4,0,35.1,7.8,47,20.2l6.6-6.7C115,8.8,96,0,75,0
					C33.8,0,0.5,33.6,0.5,75c0,21.2,8.7,40.3,22.8,54l6.6-6.7C17.5,110.4,9.8,93.6,9.8,75"/>
			</g>
			<path id="_xA3_5" class="st5" d="M75,94.4l-1.2-2c-0.7-1.2-1-2.7-1-4.1c0-3.9,3.6-6,7.5-6c8.1,0,7.9,8.2,13.2,8.2
				c3.5,0,6.1-2.3,6.1-5.9c0-7.7-8.8-13.5-19.7-13.5c-10.6,0-19.7,5.8-19.7,15.1c0,2.2,1,6.3,2,8.3h-1.6c-3.3,0-5.6,2-5.6,5.4
				s2.3,5.4,5.6,5.4h4.1c0,9.7-6.8,13-6.8,16.2c0,3.7,2.3,6.1,6.1,6.1h30.6c3.3,0,5.6-2,5.6-5.4s-2.3-5.4-5.6-5.4H72.9
				c2.5-3.4,4-7.3,4-11.5H87c3.3,0,5.6-2,5.6-5.4s-2.3-5.4-5.6-5.4L75,94.4L75,94.4z M120.9,82.7h14.7c1.4,0,5.5-0.5,5.5-5.8
				c0-2.8-2.1-4.9-5.7-4.9h-18.8c-3.7,0-5.2,1.3-6.1,7.4l-1.9,16.5c-0.1,0.9-0.2,1.6-0.2,2.7c0,1.3,1.6,3.7,4.6,3.7
				c4,0,4.7-2.6,9.2-2.6c4.8,0,7.5,3.2,7.5,7.9c0,4.9-2.8,10.2-8.3,10.2c-5.2,0-9-5-12.1-5c-2.9,0-5.3,2.4-5.3,5.3
				c0,6.9,11.6,10.5,17.2,10.5c13.5,0,20.7-8.6,20.7-21.6c0-9.1-6.7-16.6-16.1-16.6c-1.9,0-4,0.4-5.8,0.8L120.9,82.7z"/>
		</g>
	</g>
</g>
</svg>
