<?xml version="1.0" encoding="utf-8"?>
<!-- Generator: Adobe Illustrator 20.0.0, SVG Export Plug-In . SVG Version: 6.00 Build 0)  -->
<svg version="1.1" id="Layer_1" xmlns="http://www.w3.org/2000/svg" xmlns:xlink="http://www.w3.org/1999/xlink" x="0px" y="0px"
	 viewBox="0 0 200 200" style="enable-background:new 0 0 200 200;" xml:space="preserve">
<style type="text/css">
	.st0{fill:#F3F1F0;}
	.st1{fill:#FFED00;}
	.st2{fill:#009FE3;}
	.st3{fill:#FFFFFF;}
</style>
<title>illustration-gift-card</title>
<desc>Created with Sketch.</desc>
<g id="Page-1">
	<g id="Graphical-Illustrations" transform="translate(-2042.000000, -1406.000000)">
		<g id="illustration-gift-card" transform="translate(2042.000000, 1406.000000)">
			<g id="gift-card">
				<g id="Template">
					<path id="Stroke-1" class="st0" d="M100,200C44.8,200,0,155.2,0,100S44.8,0,100,0s100,44.8,100,100S155.2,200,100,200z"/>
				</g>
				<path id="Rectangle" class="st1" d="M69.9,50.7L165,81.6c6.3,2,9.8,8.8,7.7,15.1l-16.1,49.5c-2,6.3-8.8,9.8-15.1,7.7L46.4,123
					c-6.3-2-9.8-8.8-7.7-15.1l16.1-49.5C56.8,52.1,63.6,48.7,69.9,50.7z"/>
				<path id="Rectangle_1_" class="st2" d="M53.2,67.9l99.8-7c6.6-0.5,12.3,4.5,12.8,11.1l3.6,51.9c0.5,6.6-4.5,12.3-11.1,12.8
					l-99.8,7c-6.6,0.5-12.3-4.5-12.8-11.1L42,80.7C41.6,74.1,46.6,68.3,53.2,67.9z"/>
				<path id="Gift-card" class="st3" d="M65,102c-1.1,0.1-1.9,0.9-1.8,2c0.1,1.1,0.9,1.9,2.1,1.8l2.8-0.2c0.2,3.2-2.2,4.6-4.4,4.7
					c-3.5,0.2-5.5-2.6-5.7-6.1c-0.2-3.4,1.3-6.5,4.8-6.8c3.7-0.3,4.2,1.8,6.1,1.6c1-0.1,1.7-0.9,1.6-2.1c-0.1-2-3.7-3.7-8-3.4
					c-5.7,0.4-9.3,5.1-8.9,11c0.4,5.8,4.7,10,10.3,9.6s8.8-4.7,8.4-10.1c-0.1-1.8-0.9-2.6-2.6-2.5L65,102z M74.5,111.1
					c0.1,1.3,1,2.2,2.2,2.1s1.9-1,1.9-2.4l-0.8-10.7c-0.1-1.3-1-2.2-2.2-2.1s-1.9,1-1.9,2.4L74.5,111.1z M75.2,92
					c-1.2,0.1-2.2,1.2-2.1,2.4c0.1,1.2,1.2,2.2,2.4,2.2c1.3-0.1,2.2-1.2,2.1-2.5C77.5,92.9,76.4,91.9,75.2,92L75.2,92z M81.7,110.6
					c0.1,1.3,1,2.2,2.2,2.1s1.9-1,1.9-2.4l-0.6-9.3l1.3-0.1c1.2-0.1,2-0.6,1.9-1.9s-1-1.7-2.2-1.6l-1.3,0.1l-0.1-1.6
					c-0.1-1.5,0.6-1.5,1.2-1.6c1.1-0.1,1.6-0.6,1.5-1.8c-0.1-1.4-1.5-1.7-2.9-1.6c-2.5,0.2-4.1,1.9-3.9,4.9l0.1,2.1L79.9,98
					c-1,0.1-1.7,0.9-1.6,1.9c0.1,1.1,0.8,1.7,1.9,1.6l0.9-0.1L81.7,110.6z M90,110c0.1,1.3,1,2.2,2.2,2.1s1.9-1,1.9-2.4l-0.6-9.3
					l1.1-0.1c1-0.1,1.9-0.6,1.8-1.9s-1-1.7-2.1-1.6L93.1,97l-0.2-2.4c-0.1-1.3-1-2.2-2.2-2.1s-1.9,1-1.9,2.4l0.2,2.4l-0.9,0.1
					c-1,0.1-1.7,0.9-1.6,1.9c0.1,1.1,0.8,1.7,1.9,1.6l0.9-0.1L90,110z M115.6,97.6c-0.1-2-3.5-2.3-5.1-2.2c-4.2,0.3-6.9,4.2-6.7,8.3
					c0.3,4.2,3.4,7.5,7.7,7.2c1.5-0.1,4.9-1,4.7-3.1c-0.1-0.9-0.9-1.7-1.9-1.6c-0.5,0-1.9,1-2.9,1c-2.2,0.2-3.5-1.8-3.7-3.8
					c-0.1-2.1,0.8-4.2,3.1-4.3c1.3-0.1,2.2,0.6,3.2,0.6C115.1,99.6,115.6,98.4,115.6,97.6L115.6,97.6z M130.7,96.8
					c-0.1-1-0.2-2.6-2.1-2.5c-1,0.1-1.8,0.8-1.8,1.8c-1-1.2-2.5-1.7-4-1.6c-3.7,0.3-6.4,3.8-6.1,8.3s3.4,7.5,7.2,7.3
					c1.5-0.1,2.7-0.8,3.7-2.1c0.4,1,0.9,1.7,2,1.6c1.9-0.1,1.8-1.7,1.7-2.8L130.7,96.8z M120.7,102.5c-0.1-1.9,0.7-4.2,2.9-4.3
					c2.1-0.1,3.3,2,3.4,3.9s-0.7,4.1-2.8,4.3C122,106.5,120.9,104.4,120.7,102.5L120.7,102.5z M133.7,107c0.1,1.3,1,2.2,2.2,2.1
					s1.9-1,1.9-2.4l-0.4-6.2c-0.1-1.6,1.1-2.2,2.2-2.9c1.2-0.6,2.4-0.8,2.3-2.1c-0.1-1.5-1.1-2.1-2.1-2c-1.3,0.1-2,0.7-2.7,1.9H137
					c-0.1-1.3-1-1.6-2.1-1.5c-1,0.1-2,0.8-1.9,2.2L133.7,107z M155.6,88.2c-0.1-1.3-1-2.2-2.2-2.1s-1.9,1-1.9,2.4l0.4,5.5
					c-1.1-0.8-2.5-1.2-3.9-1.1c-4.3,0.3-6.2,4.5-5.9,8.4c0.3,3.8,3.1,7.4,7.1,7.1c1.4-0.1,2.9-0.8,3.6-2.1c0.3,1,1,1.6,2.1,1.5
					c1.2-0.1,1.9-1,1.9-2.4L155.6,88.2z M152.4,100.2c0.1,2-0.7,4.3-2.9,4.4c-2.1,0.1-3.3-2-3.4-3.8c-0.1-1.9,0.7-4.2,2.8-4.3
					C151.1,96.3,152.2,98.2,152.4,100.2L152.4,100.2z"/>
			</g>
		</g>
	</g>
</g>
</svg>
