<?xml version="1.0" encoding="utf-8"?>
<!-- Generator: Adobe Illustrator 20.0.0, SVG Export Plug-In . SVG Version: 6.00 Build 0)  -->
<svg version="1.1" id="Layer_1" xmlns="http://www.w3.org/2000/svg" xmlns:xlink="http://www.w3.org/1999/xlink" x="0px" y="0px"
	 viewBox="0 0 200 200" style="enable-background:new 0 0 200 200;" xml:space="preserve">
<style type="text/css">
	.st0{fill:#F3F1F0;}
	.st1{fill:#DF2C2C;}
	.st2{fill:#FA5655;}
	.st3{fill:#2B374B;}
	.st4{fill:#E97FB1;}
	.st5{fill:#F3BED7;}
	.st6{fill:#FFFFFF;}
</style>
<title>illustration-heart-in-hands</title>
<desc>Created with Sketch.</desc>
<g id="Page-1">
	<g id="Graphical-Illustrations" transform="translate(-1043.000000, -1405.000000)">
		<g id="illustration-heart-in-hands" transform="translate(1043.000000, 1405.000000)">
			<g id="Template">
				<path id="Stroke-1" class="st0" d="M100,200C44.8,200,0,155.2,0,100S44.8,0,100,0s100,44.8,100,100S155.2,200,100,200z"/>
			</g>
			<g id="Group-16" transform="translate(38.381944, 32.000000)">
				<g id="Group" transform="translate(12.541667, 0.000000)">
					<path id="Fill-6956" class="st1" d="M51.1,11.5C38.3-8.5,0-1.3,0,34.3c0.8,32.5,51,57.1,51,57.1s50.3-24.6,51-57.1
						C102.1-1.3,63.8-8.5,51.1,11.5"/>
					<path id="Fill-6960" class="st2" d="M51.1,11.5C38.3-8.5,0-1.3,0,34.3c0.8,32.4,50.9,57,51,57L51.1,11.5L51.1,11.5z"/>
				</g>
				<g id="Group-15" transform="translate(0.000000, 32.250000)">
					<polygon id="Fill-6738" class="st3" points="53.8,96.4 16.5,96.4 16.5,88.2 53.8,88.2 					"/>
					<path id="Fill-6739" class="st4" d="M20.4,88.2V75.8L3.8,57.2c-3.4-4.1-4.7-9.7-3.3-14.9L12,4.5c0.5-1.7,1.8-3.1,3.5-3.8
						s3.6-0.5,5.1,0.4c2.3,1.4,3.4,4.1,2.6,6.7l-7,34.9l16.5,18.6l-4.9-16.9c-0.3-1.5,0-3.1,0.8-4.4c0.9-1.3,2.2-2.2,3.7-2.5
						c2.6-0.5,5.3,0.8,6.4,3.3l8.6,18.6c1.3,2.7,1.9,5.7,1.9,8.7v20.2H20.4V88.2z"/>
					<path id="Fill-6743" class="st5" d="M12,4.5c0.5-1.7,1.8-3.1,3.5-3.8s3.6-0.5,5.1,0.4c2.3,1.4,3.4,4.1,2.6,6.7l-7,34.9
						l16.5,18.6l-4.9-16.9c-0.3-1.5,0-3.1,0.8-4.4c0.9-1.3,2.2-2.2,3.7-2.5c2.6-0.5,5.3,0.8,6.4,3.3l8.6,18.6
						c1.3,2.7,1.9,5.7,1.9,8.7v20.2h-0.1l-48-48L12,4.5z"/>
					<path id="Fill-6744" class="st6" d="M33.1,39.9c-1,0.2-2,0.8-2.6,1.7s-0.8,2-0.5,3l0.7,2.5l7.7-3l-0.9-2
						C36.7,40.5,34.9,39.6,33.1,39.9"/>
				</g>
				<g id="Group-14" transform="translate(72.682415, 32.250000)">
					<polygon id="Fill-6740" class="st3" points="0.5,96.4 37.7,96.4 37.7,88.2 0.5,88.2 					"/>
					<path id="Fill-6741" class="st4" d="M33.6,88.2V75.8l16.5-18.6c3.4-4.1,4.7-9.7,3.3-14.9L42,4.5c-0.5-1.7-1.8-3.1-3.5-3.8
						s-3.6-0.5-5.1,0.4C31,2.5,30,5.3,30.7,7.8l7,34.9L21.2,61.3l4.9-16.9c0.3-1.5,0-3.1-0.8-4.4c-0.9-1.3-2.2-2.2-3.7-2.5
						c-2.6-0.5-5.3,0.8-6.4,3.3L6.5,59.3C5.2,62,4.6,65,4.6,68v20.2H33.6z"/>
					<path id="Fill-6742" class="st5" d="M42,4.5c-0.5-1.7-1.8-3.1-3.5-3.8s-3.6-0.5-5.1,0.4C31,2.5,30,5.3,30.7,7.8l7,34.9
						L21.2,61.3l4.9-16.9c0.3-1.5,0-3.1-0.8-4.4c-0.9-1.3-2.2-2.2-3.7-2.5c-2.6-0.5-5.3,0.8-6.4,3.3L6.5,59.3C5.2,62,4.6,65,4.6,68
						v20.2h0.1l48-48L42,4.5z"/>
					<path id="Fill-6745" class="st6" d="M21.1,39.6c1,0.2,2,0.8,2.6,1.7s0.8,2,0.5,3l-0.7,2.5l-7.7-3l0.9-2
						C17.5,40.1,19.3,39.2,21.1,39.6"/>
				</g>
			</g>
		</g>
	</g>
</g>
</svg>
