<?xml version="1.0" encoding="UTF-8" standalone="no"?>
<svg width="182px" height="182px" viewBox="0 0 182 182" version="1.1" xmlns="http://www.w3.org/2000/svg" xmlns:xlink="http://www.w3.org/1999/xlink">
    <!-- Generator: Sketch 39.1 (31720) - http://www.bohemiancoding.com/sketch -->
    <title>illustration-incorrect</title>
    <desc>Created with Sketch.</desc>
    <defs></defs>
    <g id="Templates" stroke="none" stroke-width="1" fill="none" fill-rule="evenodd">
        <g id="16-illustrations" transform="translate(-827.000000, -1381.000000)">
            <g id="illustration-incorrect" transform="translate(828.000000, 1382.000000)">
                <path d="M179.552239,90 C179.552239,139.45791 139.45791,179.552239 90,179.552239 C40.5420896,179.552239 0.447761194,139.45791 0.447761194,90 C0.447761194,40.5420896 40.5420896,0.447761194 90,0.447761194 C139.45791,0.447761194 179.552239,40.5420896 179.552239,90 L179.552239,90 Z" id="Stroke-1" stroke="#9B9B9B"></path>
                <path d="M91.434375,36 L91.36875,36 C89.5739062,36 88.1203125,37.4535937 88.1203125,39.2484375 L88.1203125,42.8364844 L94.6828125,42.8364844 L94.6828125,39.2484375 C94.6828125,37.4535937 93.2292187,36 91.434375,36" id="Fill-4150" fill="#5B5C5F"></path>
                <path d="M144,92.8314141 C139.898438,88.1556328 133.860938,85.2189141 127.150781,85.2189141 C119.899219,85.2189141 113.451563,88.6478203 109.35,93.9798516 C105.248438,88.6478203 98.8007813,85.2189141 91.5492188,85.2189141 C84.2976563,85.2189141 77.85,88.6478203 73.7484375,93.9798516 C69.646875,88.6478203 63.1992188,85.2189141 55.9476563,85.2189141 C49.2375,85.2189141 43.2,88.1556328 39.0984375,92.8314141 C40.2632813,64.8751641 63.2976563,42.5626641 91.5492188,42.5626641 C119.800781,42.5626641 142.835156,64.8751641 144,92.8314141" id="Fill-4151" fill="#3E3E3F"></path>
                <path d="M91.5492188,42.5625 C63.2976563,42.5625 40.2632813,64.875 39.0984375,92.83125 C43.2,88.1554687 49.2375,85.21875 55.9476563,85.21875 C60.3658594,85.21875 64.475625,86.505 67.9488281,88.7050781 L110.536172,46.1160938 C104.646328,43.8307031 98.2478906,42.5625 91.5492188,42.5625" id="Fill-4152" fill="#5B5C5F"></path>
                <path d="M81.5576484,141 C75.2609297,141 70.6917891,137.607188 69.0199922,131.691094 C68.5278047,129.947109 69.5417109,128.134219 71.2856953,127.642031 C73.0296797,127.148203 74.8425703,128.16375 75.3347578,129.907734 C76.2092109,132.998672 78.1861641,134.4375 81.5576484,134.4375 C87.8035078,134.4375 88.1201484,128.970938 88.1201484,127.875 L88.1201484,85.21875 C88.1201484,83.4075 89.5901484,81.9375 91.4013984,81.9375 C93.2126484,81.9375 94.6826484,83.4075 94.6826484,85.21875 L94.6826484,127.875 C94.6826484,133.15125 91.1864766,141 81.5576484,141" id="Fill-4153" fill="#5B5C5F"></path>
                <path d="M109.546875,87.7453125 C109.546875,89.8453125 109.448438,91.9289062 109.251563,93.9796875 C105.15,88.6804688 98.71875,85.284375 91.5,85.284375 C84.28125,85.284375 77.85,88.6804688 73.7484375,93.9796875 C73.5515625,91.9289062 73.453125,89.8453125 73.453125,87.7453125 C73.453125,70.2726562 80.2945313,54.3914062 91.4507812,42.628125 L91.5492188,42.628125 C102.705469,54.3914062 109.546875,70.2726562 109.546875,87.7453125" id="Fill-4154" fill="#5B5C5F"></path>
                <path d="M101.053687,55.5993984 C98.3893125,50.8612734 95.1654844,46.4791641 91.4511094,42.5629922 L91.3526719,42.5629922 C81.1742344,53.2926797 74.6068125,67.4578359 73.5289219,83.1241641 L101.053687,55.5993984 Z" id="Fill-4155" fill="#9E9FA1"></path>
            </g>
        </g>
    </g>
</svg>