<?xml version="1.0" encoding="utf-8"?>
<!-- Generator: Adobe Illustrator 20.0.0, SVG Export Plug-In . SVG Version: 6.00 Build 0)  -->
<svg version="1.1" id="Layer_1" xmlns="http://www.w3.org/2000/svg" xmlns:xlink="http://www.w3.org/1999/xlink" x="0px" y="0px"
	 viewBox="0 0 200 200" style="enable-background:new 0 0 200 200;" xml:space="preserve">
<style type="text/css">
	.st0{fill:#F3F1F0;}
	.st1{fill:#0299DA;}
	.st2{fill:#7FCFEE;}
	.st3{fill:#81D2EB;}
	.st4{fill:#FFED00;}
	.st5{fill:#1C6C8C;}
	.st6{fill:#F2F9F6;}
</style>
<title>illustration-calculator</title>
<desc>Created with Sketch.</desc>
<g id="Page-1">
	<g id="Graphical-Illustrations" transform="translate(-293.000000, -1402.000000)">
		<g id="illustration-calculator" transform="translate(293.000000, 1402.000000)">
			<g id="Template">
				<path id="Stroke-1" class="st0" d="M100,200C44.8,200,0,155.2,0,100S44.8,0,100,0s100,44.8,100,100S155.2,200,100,200z"/>
			</g>
			<g id="Group" transform="translate(47.000000, 40.000000)">
				<path id="Fill-2390" class="st1" d="M106.2,15.1C106.2,6.8,99.4,0,91.1,0H15.4C7,0,0.3,6.8,0.3,15.1v90.8
					c0,8.4,6.8,15.1,15.1,15.1h75.7c8.4,0,15.1-6.8,15.1-15.1V15.1z"/>
				<path id="Fill-2391" class="st2" d="M28.6,85.3c0,0.9-0.7,1.7-1.7,1.7H17c-0.9,0-1.7-0.7-1.7-1.7v-9.9c0-0.9,0.7-1.7,1.7-1.7h10
					c0.9,0,1.7,0.7,1.7,1.7v9.9H28.6z"/>
				<path id="Fill-2392" class="st2" d="M28.6,108c0,0.9-0.7,1.7-1.7,1.7H17c-0.9,0-1.7-0.7-1.7-1.7v-9.9c0-0.9,0.7-1.7,1.7-1.7h10
					c0.9,0,1.7,0.7,1.7,1.7v9.9H28.6z"/>
				<path id="Fill-2393" class="st2" d="M49.5,62.6c0,0.9-0.7,1.7-1.7,1.7h-9.9c-0.9,0-1.7-0.7-1.7-1.7v-9.9c0-0.9,0.7-1.7,1.7-1.7
					h9.9c0.9,0,1.7,0.7,1.7,1.7C49.5,52.7,49.5,62.6,49.5,62.6z"/>
				<path id="Fill-2394" class="st3" d="M49.5,85.3c0,0.9-0.7,1.7-1.7,1.7h-9.9c-0.9,0-1.7-0.7-1.7-1.7v-9.9c0-0.9,0.7-1.7,1.7-1.7
					h9.9c0.9,0,1.7,0.7,1.7,1.7C49.5,75.4,49.5,85.3,49.5,85.3z"/>
				<path id="Fill-2395" class="st2" d="M49.5,108c0,0.9-0.7,1.7-1.7,1.7h-9.9c-0.9,0-1.7-0.7-1.7-1.7v-9.9c0-0.9,0.7-1.7,1.7-1.7
					h9.9c0.9,0,1.7,0.7,1.7,1.7C49.5,98.1,49.5,108,49.5,108z"/>
				<path id="Fill-2396" class="st2" d="M70.3,62.6c0,0.9-0.7,1.7-1.7,1.7h-9.9c-0.9,0-1.7-0.7-1.7-1.7v-9.9c0-0.9,0.7-1.7,1.7-1.7
					h9.9c0.9,0,1.7,0.7,1.7,1.7V62.6z"/>
				<path id="Fill-2397" class="st4" d="M91.1,62.6c0,0.9-0.7,1.7-1.7,1.7h-9.9c-0.9,0-1.7-0.7-1.7-1.7v-9.9c0-0.9,0.7-1.7,1.7-1.7
					h9.9c0.9,0,1.7,0.7,1.7,1.7V62.6z"/>
				<path id="Fill-2398" class="st3" d="M70.3,85.3c0,0.9-0.7,1.7-1.7,1.7h-9.9c-0.9,0-1.7-0.7-1.7-1.7v-9.9c0-0.9,0.7-1.7,1.7-1.7
					h9.9c0.9,0,1.7,0.7,1.7,1.7V85.3z"/>
				<path id="Fill-2399" class="st2" d="M70.3,108c0,0.9-0.7,1.7-1.7,1.7h-9.9c-0.9,0-1.7-0.7-1.7-1.7v-9.9c0-0.9,0.7-1.7,1.7-1.7
					h9.9c0.9,0,1.7,0.7,1.7,1.7V108z"/>
				<path id="Fill-2400" class="st5" d="M91.1,108c0,0.9-0.7,1.7-1.7,1.7h-9.9c-0.9,0-1.7-0.7-1.7-1.7V75.6c0-0.9,0.7-1.7,1.7-1.7
					h9.9c0.9,0,1.7,0.7,1.7,1.7V108z"/>
				<path id="Fill-2401" class="st2" d="M28.6,62.6c0,0.9-0.7,1.7-1.7,1.7H17c-0.9,0-1.7-0.7-1.7-1.7v-9.9c0-0.9,0.7-1.7,1.7-1.7h10
					c0.9,0,1.7,0.7,1.7,1.7v9.9H28.6z"/>
				<path id="Fill-2402" class="st2" d="M91.1,18.9V34c0,4.2-3.4,7.6-7.6,7.6H23c-4.2,0-7.6-3.4-7.6-7.6V18.9c0-4.2,3.4-7.6,7.6-7.6
					h60.5C87.7,11.3,91.1,14.7,91.1,18.9"/>
				<path id="Fill-2403" class="st6" d="M23,11.3c-4.2,0-7.6,3.4-7.6,7.6V34c0,4.2,3.4,7.6,7.6,7.6h15.5l30.3-30.2L23,11.3L23,11.3z
					"/>
			</g>
		</g>
	</g>
</g>
</svg>
