<?xml version="1.0" encoding="UTF-8" standalone="no"?>
<svg width="577px" height="200px" viewBox="0 0 577 200" version="1.1" xmlns="http://www.w3.org/2000/svg" xmlns:xlink="http://www.w3.org/1999/xlink">
    <!-- Generator: Sketch 39.1 (31720) - http://www.bohemiancoding.com/sketch -->
    <title>16-illustration-responsive</title>
    <desc>Created with Sketch.</desc>
    <defs></defs>
    <g id="Templates" stroke="none" stroke-width="1" fill="none" fill-rule="evenodd">
        <g id="16-illustrations" transform="translate(-230.000000, -3318.000000)">
            <g id="16-illustration-responsive" transform="translate(230.000000, 3318.000000)">
                <g id="illustrations-responsive-umbrella">
                    <path d="M29.9625,0 L29.925,0 C28.899375,0 28.06875,0.830625 28.06875,1.85625 L28.06875,3.9065625 L31.81875,3.9065625 L31.81875,1.85625 C31.81875,0.830625 30.988125,0 29.9625,0" id="Fill-4150" fill="#566887"></path>
                    <path d="M50.371875,28.1250938 C46.228125,28.1250938 42.54375,30.0844688 40.2,33.1313438 C37.85625,30.0844688 34.171875,28.1250938 30.028125,28.1250938 C25.884375,28.1250938 22.2,30.0844688 19.85625,33.1313438 C17.5125,30.0844688 13.828125,28.1250938 9.684375,28.1250938 C5.85,28.1250938 2.4,29.8032188 0.05625,32.4750938 C0.721875,16.5000938 13.884375,3.75009375 30.028125,3.75009375 C46.171875,3.75009375 59.334375,16.5000938 60,32.4750938 C57.65625,29.8032188 54.20625,28.1250938 50.371875,28.1250938 Z" id="Fill-4151" fill="#0E85B7"></path>
                    <path d="M30.028125,3.75 C13.884375,3.75 0.721875,16.5 0.05625,32.475 C2.4,29.803125 5.85,28.125 9.684375,28.125 C12.2090625,28.125 14.5575,28.86 16.5421875,30.1171875 L40.8778125,5.780625 C37.5121875,4.4746875 33.8559375,3.75 30.028125,3.75" id="Fill-4152" fill="#40B6E8"></path>
                    <path d="M24.3186563,60 C20.7205312,60 18.1095938,58.06125 17.1542813,54.680625 C16.8730313,53.6840625 17.4524063,52.648125 18.4489688,52.366875 C19.4455313,52.0846875 20.4814688,52.665 20.7627188,53.6615625 C21.2624062,55.4278125 22.3920938,56.25 24.3186563,56.25 C27.8877187,56.25 28.0686563,53.12625 28.0686563,52.5 L28.0686563,28.125 C28.0686563,27.09 28.9086563,26.25 29.9436563,26.25 C30.9786562,26.25 31.8186563,27.09 31.8186563,28.125 L31.8186563,52.5 C31.8186563,55.515 29.8208438,60 24.3186563,60" id="Fill-4153" fill="#566887"></path>
                    <path d="M40.3125,29.56875 C40.3125,30.76875 40.25625,31.959375 40.14375,33.13125 C37.8,30.103125 34.125,28.1625 30,28.1625 C25.875,28.1625 22.2,30.103125 19.85625,33.13125 C19.74375,31.959375 19.6875,30.76875 19.6875,29.56875 C19.6875,19.584375 23.596875,10.509375 29.971875,3.7875 L30.028125,3.7875 C36.403125,10.509375 40.3125,19.584375 40.3125,29.56875" id="Fill-4154" fill="#7FCFEE"></path>
                    <path d="M35.45925,11.1996562 C33.93675,8.49215625 32.0945625,5.98809375 29.9720625,3.75028125 L29.9158125,3.75028125 C24.0995625,9.88153125 20.34675,17.9759062 19.7308125,26.9280937 L35.45925,11.1996562 Z" id="Fill-4155" fill="#BFE7F3"></path>
                </g>
                <g id="illustrations-responsive-umbrella" transform="translate(77.000000, 0.000000)">
                    <path d="M49.9375,0 L49.875,0 C48.165625,0 46.78125,1.384375 46.78125,3.09375 L46.78125,6.5109375 L53.03125,6.5109375 L53.03125,3.09375 C53.03125,1.384375 51.646875,0 49.9375,0" id="Fill-4150" fill="#566887"></path>
                    <path d="M83.953125,46.8751563 C77.046875,46.8751563 70.90625,50.1407813 67,55.2189063 C63.09375,50.1407813 56.953125,46.8751563 50.046875,46.8751563 C43.140625,46.8751563 37,50.1407813 33.09375,55.2189063 C29.1875,50.1407813 23.046875,46.8751563 16.140625,46.8751563 C9.75,46.8751563 4,49.6720313 0.09375,54.1251563 C1.203125,27.5001563 23.140625,6.25015625 50.046875,6.25015625 C76.953125,6.25015625 98.890625,27.5001563 100,54.1251563 C96.09375,49.6720313 90.34375,46.8751563 83.953125,46.8751563 Z" id="Fill-4151" fill="#0E85B7"></path>
                    <path d="M50.046875,6.25 C23.140625,6.25 1.203125,27.5 0.09375,54.125 C4,49.671875 9.75,46.875 16.140625,46.875 C20.3484375,46.875 24.2625,48.1 27.5703125,50.1953125 L68.1296875,9.634375 C62.5203125,7.4578125 56.4265625,6.25 50.046875,6.25" id="Fill-4152" fill="#40B6E8"></path>
                    <path d="M40.5310938,100 C34.5342188,100 30.1826563,96.76875 28.5904688,91.134375 C28.1217188,89.4734375 29.0873438,87.746875 30.7482813,87.278125 C32.4092188,86.8078125 34.1357813,87.775 34.6045313,89.4359375 C35.4373438,92.3796875 37.3201563,93.75 40.5310938,93.75 C46.4795313,93.75 46.7810938,88.54375 46.7810938,87.5 L46.7810938,46.875 C46.7810938,45.15 48.1810938,43.75 49.9060938,43.75 C51.6310938,43.75 53.0310938,45.15 53.0310938,46.875 L53.0310938,87.5 C53.0310938,92.525 49.7014063,100 40.5310938,100" id="Fill-4153" fill="#566887"></path>
                    <path d="M67.1875,49.28125 C67.1875,51.28125 67.09375,53.265625 66.90625,55.21875 C63,50.171875 56.875,46.9375 50,46.9375 C43.125,46.9375 37,50.171875 33.09375,55.21875 C32.90625,53.265625 32.8125,51.28125 32.8125,49.28125 C32.8125,32.640625 39.328125,17.515625 49.953125,6.3125 L50.046875,6.3125 C60.671875,17.515625 67.1875,32.640625 67.1875,49.28125" id="Fill-4154" fill="#7FCFEE"></path>
                    <path d="M59.09875,18.6660937 C56.56125,14.1535937 53.4909375,9.98015625 49.9534375,6.25046875 L49.8596875,6.25046875 C40.1659375,16.4692187 33.91125,29.9598437 32.8846875,44.8801562 L59.09875,18.6660937 Z" id="Fill-4155" fill="#BFE7F3"></path>
                </g>
                <g id="illustrations-responsive-umbrella" transform="translate(207.000000, 0.000000)">
                    <path d="M69.9125,0 L69.825,0 C67.431875,0 65.49375,1.938125 65.49375,4.33125 L65.49375,9.1153125 L74.24375,9.1153125 L74.24375,4.33125 C74.24375,1.938125 72.305625,0 69.9125,0" id="Fill-4150" fill="#566887"></path>
                    <path d="M117.534375,65.6252188 C107.865625,65.6252188 99.26875,70.1970938 93.8,77.3064688 C88.33125,70.1970938 79.734375,65.6252188 70.065625,65.6252188 C60.396875,65.6252188 51.8,70.1970938 46.33125,77.3064688 C40.8625,70.1970938 32.265625,65.6252188 22.596875,65.6252188 C13.65,65.6252188 5.6,69.5408438 0.13125,75.7752188 C1.684375,38.5002188 32.396875,8.75021875 70.065625,8.75021875 C107.734375,8.75021875 138.446875,38.5002188 140,75.7752188 C134.53125,69.5408438 126.48125,65.6252188 117.534375,65.6252188 Z" id="Fill-4151" fill="#0E85B7"></path>
                    <path d="M70.065625,8.75 C32.396875,8.75 1.684375,38.5 0.13125,75.775 C5.6,69.540625 13.65,65.625 22.596875,65.625 C28.4878125,65.625 33.9675,67.34 38.5984375,70.2734375 L95.3815625,13.488125 C87.5284375,10.4409375 78.9971875,8.75 70.065625,8.75" id="Fill-4152" fill="#40B6E8"></path>
                    <path d="M56.7435313,140 C48.3479063,140 42.2557188,135.47625 40.0266563,127.588125 C39.3704063,125.262813 40.7222813,122.845625 43.0475938,122.189375 C45.3729063,121.530938 47.7900938,122.885 48.4463438,125.210313 C49.6122813,129.331563 52.2482188,131.25 56.7435313,131.25 C65.0713438,131.25 65.4935313,123.96125 65.4935313,122.5 L65.4935313,65.625 C65.4935313,63.21 67.4535313,61.25 69.8685313,61.25 C72.2835313,61.25 74.2435313,63.21 74.2435313,65.625 L74.2435313,122.5 C74.2435313,129.535 69.5819688,140 56.7435313,140" id="Fill-4153" fill="#566887"></path>
                    <path d="M94.0625,68.99375 C94.0625,71.79375 93.93125,74.571875 93.66875,77.30625 C88.2,70.240625 79.625,65.7125 70,65.7125 C60.375,65.7125 51.8,70.240625 46.33125,77.30625 C46.06875,74.571875 45.9375,71.79375 45.9375,68.99375 C45.9375,45.696875 55.059375,24.521875 69.934375,8.8375 L70.065625,8.8375 C84.940625,24.521875 94.0625,45.696875 94.0625,68.99375" id="Fill-4154" fill="#7FCFEE"></path>
                    <path d="M82.73825,26.1325312 C79.18575,19.8150312 74.8873125,13.9722187 69.9348125,8.75065625 L69.8035625,8.75065625 C56.2323125,23.0569062 47.47575,41.9437812 46.0385625,62.8322187 L82.73825,26.1325312 Z" id="Fill-4155" fill="#BFE7F3"></path>
                </g>
                <g id="illustrations-responsive-umbrella" transform="translate(377.000000, 0.000000)">
                    <path d="M99.875,0 L99.75,0 C96.33125,0 93.5625,2.76875 93.5625,6.1875 L93.5625,13.021875 L106.0625,13.021875 L106.0625,6.1875 C106.0625,2.76875 103.29375,0 99.875,0" id="Fill-4150" fill="#566887"></path>
                    <path d="M167.90625,93.7503125 C154.09375,93.7503125 141.8125,100.281563 134,110.437813 C126.1875,100.281563 113.90625,93.7503125 100.09375,93.7503125 C86.28125,93.7503125 74,100.281563 66.1875,110.437813 C58.375,100.281563 46.09375,93.7503125 32.28125,93.7503125 C19.5,93.7503125 8,99.3440625 0.1875,108.250313 C2.40625,55.0003125 46.28125,12.5003125 100.09375,12.5003125 C153.90625,12.5003125 197.78125,55.0003125 200,108.250313 C192.1875,99.3440625 180.6875,93.7503125 167.90625,93.7503125 Z" id="Fill-4151" fill="#0E85B7"></path>
                    <path d="M100.09375,12.5 C46.28125,12.5 2.40625,55 0.1875,108.25 C8,99.34375 19.5,93.75 32.28125,93.75 C40.696875,93.75 48.525,96.2 55.140625,100.390625 L136.259375,19.26875 C125.040625,14.915625 112.853125,12.5 100.09375,12.5" id="Fill-4152" fill="#40B6E8"></path>
                    <path d="M81.0621875,200 C69.0684375,200 60.3653125,193.5375 57.1809375,182.26875 C56.2434375,178.946875 58.1746875,175.49375 61.4965625,174.55625 C64.8184375,173.615625 68.2715625,175.55 69.2090625,178.871875 C70.8746875,184.759375 74.6403125,187.5 81.0621875,187.5 C92.9590625,187.5 93.5621875,177.0875 93.5621875,175 L93.5621875,93.75 C93.5621875,90.3 96.3621875,87.5 99.8121875,87.5 C103.262188,87.5 106.062188,90.3 106.062188,93.75 L106.062188,175 C106.062188,185.05 99.4028125,200 81.0621875,200" id="Fill-4153" fill="#566887"></path>
                    <path d="M134.375,98.5625 C134.375,102.5625 134.1875,106.53125 133.8125,110.4375 C126,100.34375 113.75,93.875 100,93.875 C86.25,93.875 74,100.34375 66.1875,110.4375 C65.8125,106.53125 65.625,102.5625 65.625,98.5625 C65.625,65.28125 78.65625,35.03125 99.90625,12.625 L100.09375,12.625 C121.34375,35.03125 134.375,65.28125 134.375,98.5625" id="Fill-4154" fill="#7FCFEE"></path>
                    <path d="M118.1975,37.3321875 C113.1225,28.3071875 106.981875,19.9603125 99.906875,12.5009375 L99.719375,12.5009375 C80.331875,32.9384375 67.8225,59.9196875 65.769375,89.7603125 L118.1975,37.3321875 Z" id="Fill-4155" fill="#BFE7F3"></path>
                </g>
            </g>
        </g>
    </g>
</svg>