<?xml version="1.0" encoding="UTF-8" standalone="no"?>
<svg width="182px" height="182px" viewBox="0 0 182 182" version="1.1" xmlns="http://www.w3.org/2000/svg" xmlns:xlink="http://www.w3.org/1999/xlink">
    <!-- Generator: Sketch 39.1 (31720) - http://www.bohemiancoding.com/sketch -->
    <title>illustration-grid-start</title>
    <desc>Created with Sketch.</desc>
    <defs></defs>
    <g id="Templates" stroke="none" stroke-width="1" fill="none" fill-rule="evenodd">
        <g id="16-illustrations" transform="translate(-229.000000, -976.000000)" stroke="#9B9B9B">
            <g id="Group-7" transform="translate(230.000000, 977.000000)">
                <g id="illustration-grid-start">
                    <path d="M90,179.552239 C40.5420896,179.552239 0.447761194,139.45791 0.447761194,90 C0.447761194,40.5420896 40.5420896,0.447761194 90,0.447761194 C139.45791,0.447761194 179.552239,40.5420896 179.552239,90 C179.552239,139.45791 139.45791,179.552239 90,179.552239 Z" id="Stroke-1"></path>
                    <path d="M157.164179,90 C157.164179,127.093433 127.093433,157.164179 90,157.164179 C52.9065672,157.164179 22.8358209,127.093433 22.8358209,90 C22.8358209,52.9065672 52.9065672,22.8358209 90,22.8358209 C127.093433,22.8358209 157.164179,52.9065672 157.164179,90 L157.164179,90 Z" id="Stroke-3"></path>
                    <path d="M140.373134,90 C140.373134,117.820299 117.820299,140.373134 90,140.373134 C62.1797015,140.373134 39.6268657,117.820299 39.6268657,90 C39.6268657,62.1797015 62.1797015,39.6268657 90,39.6268657 C117.820299,39.6268657 140.373134,62.1797015 140.373134,90 L140.373134,90 Z" id="Stroke-5"></path>
                    <path d="M127.779851,90 C127.779851,110.865672 110.865224,127.780299 89.9995522,127.780299 C69.1347761,127.780299 52.2201493,110.865672 52.2201493,90 C52.2201493,69.1343284 69.1347761,52.2197015 89.9995522,52.2197015 C110.865224,52.2197015 127.779851,69.1343284 127.779851,90 L127.779851,90 Z" id="Stroke-7"></path>
                    <path d="M118.334866,90 C118.334866,105.649254 105.648896,118.335224 89.9996418,118.335224 C74.3512836,118.335224 61.6653134,105.649254 61.6653134,90 C61.6653134,74.3507463 74.3512836,61.6647761 89.9996418,61.6647761 C105.648896,61.6647761 118.334866,74.3507463 118.334866,90 L118.334866,90 Z" id="Stroke-9"></path>
                    <path d="M111.251194,90 C111.251194,101.736716 101.737164,111.250746 90.0004478,111.250746 C78.2637313,111.250746 68.748806,101.736716 68.748806,90 C68.748806,78.2632836 78.2637313,68.7492537 90.0004478,68.7492537 C101.737164,68.7492537 111.251194,78.2632836 111.251194,90 L111.251194,90 Z" id="Stroke-11"></path>
                    <path d="M105.938418,90 C105.938418,98.8020896 98.8028955,105.938507 89.9999104,105.938507 C81.1978209,105.938507 74.061403,98.8020896 74.061403,90 C74.061403,81.1979104 81.1978209,74.0614925 89.9999104,74.0614925 C98.8028955,74.0614925 105.938418,81.1979104 105.938418,90 L105.938418,90 Z" id="Stroke-13"></path>
                    <path d="M101.953791,90 C101.953791,96.601791 96.6021493,101.953433 90.0003582,101.953433 C83.3985672,101.953433 78.0460299,96.601791 78.0460299,90 C78.0460299,83.398209 83.3985672,78.0465672 90.0003582,78.0465672 C96.6021493,78.0465672 101.953791,83.398209 101.953791,90 L101.953791,90 Z" id="Stroke-15"></path>
                    <path d="M98.9653433,90 C98.9653433,94.9513433 94.9516119,98.9650746 90.0002687,98.9650746 C85.0489254,98.9650746 81.0342985,94.9513433 81.0342985,90 C81.0342985,85.0486567 85.0489254,81.0349254 90.0002687,81.0349254 C94.9516119,81.0349254 98.9653433,85.0486567 98.9653433,90 L98.9653433,90 Z" id="Stroke-17"></path>
                    <path d="M96.7240299,90 C96.7240299,93.7137313 93.7132836,96.7235821 90.0004478,96.7235821 C86.2867164,96.7235821 83.2759701,93.7137313 83.2759701,90 C83.2759701,86.2862687 86.2867164,83.2764179 90.0004478,83.2764179 C93.7132836,83.2764179 96.7240299,86.2862687 96.7240299,90 L96.7240299,90 Z" id="Stroke-19"></path>
                    <path d="M95.0429552,90 C95.0429552,92.7850746 92.7853433,95.0426866 90.0002687,95.0426866 C87.215194,95.0426866 84.9566866,92.7850746 84.9566866,90 C84.9566866,87.2149254 87.215194,84.9573134 90.0002687,84.9573134 C92.7853433,84.9573134 95.0429552,87.2149254 95.0429552,90 L95.0429552,90 Z" id="Stroke-21"></path>
                </g>
            </g>
        </g>
    </g>
</svg>