<?xml version="1.0" encoding="utf-8"?>
<!-- Generator: Adobe Illustrator 20.0.0, SVG Export Plug-In . SVG Version: 6.00 Build 0)  -->
<svg version="1.1" id="Layer_1" xmlns="http://www.w3.org/2000/svg" xmlns:xlink="http://www.w3.org/1999/xlink" x="0px" y="0px"
	 viewBox="0 0 693 185" style="enable-background:new 0 0 693 185;" xml:space="preserve">
<style type="text/css">
	.st0{fill:#FDFBF5;}
	.st1{fill:#1D3661;}
	.st2{fill:#8E9AAD;}
	.st3{fill:#566887;}
	.st4{fill:#F3F1F0;}
	.st5{fill:#0299DA;}
	.st6{fill:#7FCFEE;}
	.st7{fill:#FFED00;}
	.st8{fill:#81D2EB;}
	.st9{fill:#1C6C8C;}
	.st10{fill:#F2F9F6;}
	.st11{fill:#C6CDD2;}
	.st12{fill:#FFFFFF;}
	.st13{fill:#1E355E;}
	.st14{fill:#DF2C2C;}
	.st15{fill:#FA5655;}
	.st16{fill:#2B374B;}
	.st17{fill:#E97FB1;}
	.st18{fill:#F3BED7;}
	.st19{fill:#0E6175;}
	.st20{fill:#E7DCDC;}
	.st21{fill:#86AC1B;}
	.st22{fill:#C2D58D;}
	.st23{fill:#40B6E8;}
	.st24{fill:#009FE3;}
</style>
<title>16-illustration-apps</title>
<desc>Created with Sketch.</desc>
<g id="Templates">
	<g id="_x31_6-illustration-apps">
		<g id="illustration-calculator" transform="translate(-88.000000, 1.000000)">
			<g id="Group-9">
				<g id="Template">
					<path id="Stroke-1" class="st0" d="M90,180c-49.7,0-90-40.3-90-90S40.3,0,90,0s90,40.3,90,90S139.7,180,90,180z"/>
				</g>
				<g id="Group" transform="translate(31.500000, 37.800000)">
					<path id="Fill-2098" class="st1" d="M58,66.1c-2.6,0-5-0.2-7.3-0.5v49.5h14.5V65.7C63,65.9,60.6,66.1,58,66.1"/>
					<path id="Fill-2099" class="st2" d="M50.8,115.2H58v-49c-2.6,0-5-0.2-7.3-0.5V115.2z"/>
					<path id="Fill-2100" class="st1" d="M14.5,0.8c0,0-9.1,65.3,43.5,65.3s43.5-65.3,43.5-65.3l-29,25.4L58,0.8L43.5,26.2L14.5,0.8
						z"/>
					<path id="Fill-2101" class="st3" d="M116.1,66.2c0,54.4-58,50.8-58,50.8S54.4,75.2,116.1,66.2"/>
					<path id="Fill-2102" class="st1" d="M116.1,66.1c0,54.4-58,50.8-58,50.8C78,104.2,116.1,66.1,116.1,66.1"/>
					<path id="Fill-2103" class="st3" d="M0,66.2c0,54.4,58,50.8,58,50.8S61.7,75.2,0,66.2"/>
					<path id="Fill-2104" class="st1" d="M0,66.1c0,54.4,58,50.8,58,50.8C38.1,104.2,0,66.1,0,66.1"/>
					<path id="Fill-2105" class="st3" d="M43.5,26.2l-29-25.4c0,0-9.1,65.3,43.5,65.3V0.8L43.5,26.2z"/>
				</g>
				<g id="Template_1_">
					<path id="Stroke-1_1_" class="st4" d="M90,180c-49.7,0-90-40.3-90-90S40.3,0,90,0s90,40.3,90,90S139.7,180,90,180z"/>
				</g>
			</g>
			<g id="Group-12" transform="translate(41.000000, 35.000000)">
				<g id="Group_1_">
					<path id="Fill-2390" class="st5" d="M95.9,13.7C95.9,6.1,89.8,0,82.3,0H13.9C6.4,0,0.2,6.1,0.2,13.7v82
						c0,7.5,6.1,13.7,13.7,13.7h68.3c7.5,0,13.7-6.1,13.7-13.7V13.7z"/>
					<path id="Fill-2396" class="st6" d="M63.5,56.6c0,0.8-0.7,1.5-1.5,1.5h-9c-0.8,0-1.5-0.7-1.5-1.5v-9c0-0.8,0.7-1.5,1.5-1.5h9
						c0.8,0,1.5,0.7,1.5,1.5V56.6z"/>
					<path id="Fill-2397" class="st7" d="M82.3,56.6c0,0.8-0.7,1.5-1.5,1.5h-9c-0.8,0-1.5-0.7-1.5-1.5v-9c0-0.8,0.7-1.5,1.5-1.5h9
						c0.8,0,1.5,0.7,1.5,1.5V56.6z"/>
					<path id="Fill-2398" class="st8" d="M63.5,77.1c0,0.8-0.7,1.5-1.5,1.5h-9c-0.8,0-1.5-0.7-1.5-1.5v-9c0-0.8,0.7-1.5,1.5-1.5h9
						c0.8,0,1.5,0.7,1.5,1.5V77.1z"/>
					<path id="Fill-2399" class="st6" d="M63.5,97.5c0,0.8-0.7,1.5-1.5,1.5h-9c-0.8,0-1.5-0.7-1.5-1.5v-9c0-0.8,0.7-1.5,1.5-1.5h9
						c0.8,0,1.5,0.7,1.5,1.5V97.5z"/>
					<path id="Fill-2400" class="st9" d="M82.3,97.5c0,0.8-0.7,1.5-1.5,1.5h-9c-0.8,0-1.5-0.7-1.5-1.5V68.3c0-0.8,0.7-1.5,1.5-1.5h9
						c0.8,0,1.5,0.7,1.5,1.5V97.5z"/>
					<path id="Fill-2402" class="st6" d="M82.3,17.1v13.7c0,3.8-3.1,6.8-6.8,6.8H20.7c-3.8,0-6.8-3.1-6.8-6.8V17.1
						c0-3.8,3.1-6.8,6.8-6.8h54.7C79.2,10.2,82.3,13.3,82.3,17.1"/>
					<path id="Fill-2403" class="st10" d="M20.7,10.2c-3.8,0-6.8,3.1-6.8,6.8v13.7c0,3.8,3.1,6.8,6.8,6.8h14L62,10.2H20.7z"/>
				</g>
			</g>
		</g>
		<g id="illustration-heart-in-hands" transform="translate(511.000000, 1.000000)">
			<g id="Group-12_1_">
				<g id="Template_2_">
					<path id="Stroke-1_2_" class="st0" d="M90,180c-49.7,0-90-40.3-90-90S40.3,0,90,0s90,40.3,90,90S139.7,180,90,180z"/>
				</g>
				<g id="Group_2_" transform="translate(28.800000, 34.200000)">
					<path id="Fill-7961" class="st11" d="M88.6,0H30.8c-1.9,0-3.4,1.5-3.4,3.4v100.1H109V20.4L88.6,0z"/>
					<polygon id="Fill-7962" class="st2" points="88.6,0 88.6,20.4 109,20.4 					"/>
					<path id="Fill-7963" class="st1" d="M75,25.5c0,0.9-0.8,1.7-1.7,1.7H42.7c-0.9,0-1.7-0.8-1.7-1.7s0.8-1.7,1.7-1.7h30.6
						C74.3,23.8,75,24.5,75,25.5"/>
					<path id="Fill-7964" class="st1" d="M95.4,39c0,0.9-0.8,1.7-1.7,1.7h-51C41.8,40.7,41,40,41,39c0-0.9,0.8-1.7,1.7-1.7h51
						C94.6,37.3,95.4,38.1,95.4,39"/>
					<path id="Fill-7965" class="st1" d="M95.4,52.6c0,0.9-0.8,1.7-1.7,1.7h-51c-0.9,0-1.7-0.8-1.7-1.7c0-0.9,0.8-1.7,1.7-1.7h51
						C94.6,50.9,95.4,51.7,95.4,52.6"/>
					<path id="Fill-7966" class="st1" d="M95.4,66.2c0,0.9-0.8,1.7-1.7,1.7h-51c-0.9,0-1.7-0.8-1.7-1.7c0-0.9,0.8-1.7,1.7-1.7h51
						C94.6,64.5,95.4,65.2,95.4,66.2"/>
					<path id="Fill-7967" class="st12" d="M68.9,60.5L26.7,18.4c-0.4-0.4-0.8-0.7-1.2-1c-5.9-4.8-14.7-4.5-20.3,1l-0.2,0.2
						c-5.5,5.5-5.9,14.3-1,20.2c0.3,0.4,0.7,0.8,1,1.2l42.2,42.1l17,4.7c0.6-2.2,1.8-4.2,3.5-5.9c1.7-1.7,3.8-2.9,5.9-3.5L68.9,60.5
						z"/>
					<path id="Fill-7968" class="st1" d="M25.6,17.4L4,38.9c-4.9-5.9-4.5-14.7,1-20.2l0.2-0.2C10.8,12.9,19.6,12.5,25.6,17.4"/>
					<path id="Fill-7969" class="st1" d="M73.6,77.4l3,10.8c0.3,1-0.6,1.9-1.6,1.6l-10.9-3c0.6-2.2,1.8-4.2,3.5-5.9
						C69.4,79.2,71.4,78,73.6,77.4"/>
					<path id="Fill-7970" class="st2" d="M68.7,60.4C65.4,57,29.7,21.4,29.7,21.4L18.9,32.2L8.1,43c0,0,0,0,0,0
						c0,0,33.7,33.7,38.6,38.5c0.1,0.1,0.2,0,0.1-0.1c-1.7-2.8-1.2-6.6,1.3-9.2c2.7-2.7,6.9-3.1,9.7-1c0,0,0.1,0,0,0
						c0,0,0-0.1,0-0.1c-2.3-3-2-7.3,0.7-10C61.4,58.4,65.7,58.1,68.7,60.4C68.7,60.4,68.7,60.4,68.7,60.4
						C68.7,60.4,68.7,60.4,68.7,60.4"/>
					<polygon id="Fill-7971" class="st2" points="25.6,17.3 29.7,21.4 8.1,43 4,38.9 					"/>
					<path id="Fill-7972" class="st13" d="M8.1,43.1c0,0,33.7,33.7,38.6,38.5c0.1,0.1,0.2,0,0.1-0.1c-1.7-2.8-1.2-6.6,1.3-9.2
						c2.7-2.7,6.9-3.1,9.7-1c0,0,0.1,0,0,0l-39-38.9L8.1,43.1z"/>
				</g>
				<g id="Template_3_">
					<path id="Stroke-1_3_" class="st4" d="M90,180c-49.7,0-90-40.3-90-90S40.3,0,90,0s90,40.3,90,90S139.7,180,90,180z"/>
				</g>
			</g>
			<g id="Group-16" transform="translate(32.000000, 31.000000)">
				<g id="Group_3_" transform="translate(11.267227, 0.000000)">
					<path id="Fill-6956" class="st14" d="M45.9,10.4C34.4-7.6,0-1.2,0,30.9c0.7,29.2,45.9,51.3,45.9,51.3S91,60.1,91.7,30.9
						C91.7-1.2,57.4-7.6,45.9,10.4"/>
					<path id="Fill-6960" class="st15" d="M45.9,10.3C34.4-7.6,0-1.2,0,30.9c0.7,29.2,45.7,51.3,45.8,51.3V10.3z"/>
				</g>
				<g id="Group-15" transform="translate(0.000000, 29.026718)">
					<polygon id="Fill-6738" class="st16" points="48.3,86.8 14.9,86.8 14.9,79.3 48.3,79.3 					"/>
					<path id="Fill-6739" class="st17" d="M18.3,79.3V68.2L3.4,51.5c-3.1-3.7-4.2-8.7-2.9-13.4L10.8,4c0.5-1.6,1.6-2.8,3.1-3.4
						s3.2-0.4,4.6,0.4c2.1,1.2,3,3.7,2.3,6l-6.3,31.4l14.9,16.7L25,40c-0.3-1.4,0-2.8,0.7-4c0.8-1.2,2-2,3.4-2.3
						c2.4-0.5,4.8,0.7,5.8,2.9l7.7,16.7c1.1,2.4,1.7,5.1,1.7,7.8v18.2H18.3z"/>
					<path id="Fill-6743" class="st18" d="M10.8,4c0.5-1.6,1.6-2.8,3.1-3.4c1.5-0.6,3.2-0.4,4.6,0.4c2.1,1.2,3,3.7,2.3,6l-6.3,31.4
						l14.9,16.7L25,40c-0.3-1.4,0-2.8,0.7-4c0.8-1.2,2-2,3.4-2.3c2.4-0.5,4.8,0.7,5.8,2.9l7.7,16.7c1.1,2.4,1.7,5.1,1.7,7.8v18.2h0
						L1.1,36.1L10.8,4z"/>
					<path id="Fill-6744" class="st12" d="M29.8,35.9c-0.9,0.2-1.8,0.7-2.3,1.6c-0.5,0.8-0.7,1.8-0.5,2.7l0.6,2.2l6.9-2.7l-0.9-1.8
						C33,36.4,31.4,35.6,29.8,35.9"/>
				</g>
				<g id="Group-14" transform="translate(65.296683, 29.026718)">
					<polygon id="Fill-6740" class="st16" points="0.5,86.8 33.9,86.8 33.9,79.3 0.5,79.3 					"/>
					<path id="Fill-6741" class="st17" d="M30.2,79.3V68.2L45,51.5c3.1-3.7,4.2-8.7,2.9-13.4L37.7,4c-0.5-1.6-1.6-2.8-3.1-3.4
						S31.3,0.2,29.9,1c-2.1,1.2-3,3.7-2.3,6l6.3,31.4L19,55.2L23.4,40c0.3-1.4,0-2.8-0.7-4c-0.8-1.2-2-2-3.4-2.3
						c-2.4-0.5-4.8,0.7-5.8,2.9L5.9,53.3c-1.1,2.4-1.7,5.1-1.7,7.8v18.2H30.2z"/>
					<path id="Fill-6742" class="st18" d="M37.7,4c-0.5-1.6-1.6-2.8-3.1-3.4C33,0.1,31.3,0.2,29.9,1c-2.1,1.2-3,3.7-2.3,6l6.3,31.4
						L19,55.2L23.4,40c0.3-1.4,0-2.8-0.7-4c-0.8-1.2-2-2-3.4-2.3c-2.4-0.5-4.8,0.7-5.8,2.9L5.9,53.3c-1.1,2.4-1.7,5.1-1.7,7.8v18.2
						h0l43.2-43.2L37.7,4z"/>
					<path id="Fill-6745" class="st12" d="M19,35.6c0.9,0.2,1.8,0.7,2.3,1.6c0.5,0.8,0.7,1.8,0.5,2.7l-0.6,2.2l-6.9-2.7l0.9-1.8
						C15.7,36.1,17.4,35.3,19,35.6"/>
				</g>
			</g>
		</g>
		<g id="illustration-value" transform="translate(110.000000, 1.000000)">
			<g id="Template_4_">
				<path id="Stroke-1_4_" class="st4" d="M90,180c-49.7,0-90-40.3-90-90S40.3,0,90,0s90,40.3,90,90S139.7,180,90,180z"/>
			</g>
			<g id="Group_4_" transform="translate(22.500000, 22.500000)">
				<path id="Fill-1451" class="st19" d="M49.2,76.7c0,1.7-1.4,3.1-3,3.1c-1.7,0-3-1.4-3-3.1c0-1.7,1.4-3.1,3-3.1
					C47.8,73.6,49.2,75,49.2,76.7"/>
				<path id="Fill-1452" class="st20" d="M67.5,0c-37,0-67,30.2-67,67.5s30,67.5,67,67.5s67-30.2,67-67.5S104.5,0,67.5,0 M67.5,8.4
					c32.3,0,58.7,26.5,58.7,59.1c0,32.6-26.3,59.1-58.7,59.1S8.8,100.1,8.8,67.5C8.8,34.9,35.1,8.4,67.5,8.4"/>
				<path id="Fill-1453" class="st21" d="M67.5,126.6c-32.3,0-58.7-26.5-58.7-59.1c0-32.6,26.3-59.1,58.7-59.1s58.7,26.5,58.7,59.1
					C126.1,100.1,99.8,126.6,67.5,126.6"/>
				<path id="Fill-1454" class="st22" d="M67.5,8.4C35.1,8.4,8.8,34.9,8.8,67.5c0,16.8,7,31.9,18.2,42.7l82.9-83.4
					C99.2,15.5,84.1,8.4,67.5,8.4"/>
				<path id="Fill-1455" class="st12" d="M8.8,67.5c0-32.6,26.3-59.1,58.7-59.1c16.6,0,31.6,7,42.3,18.2l5.9-6
					C103.5,7.9,86.4,0,67.5,0c-37,0-67,30.2-67,67.5c0,19.1,7.9,36.3,20.5,48.6l5.9-6C15.8,99.3,8.8,84.2,8.8,67.5"/>
				<path id="Fill-1451_1_" class="st19" d="M49.2,76.7c0,1.7-1.4,3.1-3,3.1c-1.7,0-3-1.4-3-3.1c0-1.7,1.4-3.1,3-3.1
					C47.8,73.6,49.2,75,49.2,76.7"/>
				<path id="Fill-1452_1_" class="st20" d="M67.5,0c-37,0-67,30.2-67,67.5s30,67.5,67,67.5s67-30.2,67-67.5S104.5,0,67.5,0
					 M67.5,8.4c32.3,0,58.7,26.5,58.7,59.1c0,32.6-26.3,59.1-58.7,59.1S8.8,100.1,8.8,67.5C8.8,34.9,35.1,8.4,67.5,8.4"/>
				<path id="Fill-1453_1_" class="st23" d="M67.5,126.6c-32.3,0-58.7-26.5-58.7-59.1c0-32.6,26.3-59.1,58.7-59.1
					s58.7,26.5,58.7,59.1C126.1,100.1,99.8,126.6,67.5,126.6"/>
				<path id="Fill-1454_1_" class="st6" d="M67.5,8.4C35.1,8.4,8.8,34.9,8.8,67.5c0,16.8,7,31.9,18.2,42.7l82.9-83.4
					C99.2,15.5,84.1,8.4,67.5,8.4"/>
				<path id="Fill-1455_1_" class="st12" d="M8.8,67.5c0-32.6,26.3-59.1,58.7-59.1c16.6,0,31.6,7,42.3,18.2l5.9-6
					C103.5,7.9,86.4,0,67.5,0c-37,0-67,30.2-67,67.5c0,19.1,7.9,36.3,20.5,48.6l5.9-6C15.8,99.3,8.8,84.2,8.8,67.5"/>
			</g>
			<path id="_xA3_5" class="st12" d="M67.5,85l-1.1-1.8c-0.6-1.1-0.9-2.4-0.9-3.7c0-3.5,3.2-5.4,6.7-5.4c7.3,0,7.1,7.4,11.9,7.4
				c3.2,0,5.5-2.1,5.5-5.3c0-6.9-7.9-12.1-17.8-12.1c-9.5,0-17.7,5.3-17.7,13.6c0,2,0.9,5.7,1.8,7.4h-1.5c-2.9,0-5.1,1.8-5.1,4.8
				s2.1,4.8,5.1,4.8h3.7c0,8.7-6.1,11.7-6.1,14.6c0,3.4,2,5.5,5.5,5.5h27.5c2.9,0,5.1-1.8,5.1-4.8S88,105,85.1,105H65.6
				c2.2-3.1,3.6-6.6,3.6-10.4h9.1c2.9,0,5.1-1.8,5.1-4.8S81.2,85,78.2,85H67.5z M108.8,74.4H122c1.3,0,4.9-0.4,4.9-5.3
				c0-2.5-1.9-4.4-5.1-4.4h-16.9c-3.4,0-4.7,1.2-5.5,6.7l-1.8,14.8c-0.1,0.8-0.2,1.5-0.2,2.4c0,1.2,1.4,3.3,4.1,3.3
				c3.6,0,4.2-2.3,8.3-2.3c4.4,0,6.7,2.9,6.7,7.1c0,4.4-2.5,9.2-7.4,9.2c-4.7,0-8.1-4.5-10.9-4.5c-2.6,0-4.8,2.2-4.8,4.8
				c0,6.2,10.5,9.4,15.4,9.4c12.1,0,18.6-7.7,18.6-19.4c0-8.2-6-15-14.5-15c-1.8,0-3.6,0.4-5.3,0.7L108.8,74.4z"/>
		</g>
		<g id="illustration-gift-card" transform="translate(311.000000, 1.000000)">
			<g id="gift-card">
				<g id="Template_5_">
					<path id="Stroke-1_5_" class="st4" d="M90,180c-49.7,0-90-40.3-90-90S40.3,0,90,0s90,40.3,90,90S139.7,180,90,180z"/>
				</g>
				<path id="Rectangle" class="st7" d="M64,46l83.3,27.1c6.3,2,9.8,8.8,7.7,15.1l-13.7,42.2c-2,6.3-8.8,9.8-15.1,7.7l-83.3-27.1
					c-6.3-2-9.8-8.8-7.7-15.1l13.7-42.2C51,47.4,57.7,44,64,46z"/>
				<path id="Rectangle_1_" class="st24" d="M49.1,61l87.4-6.1c6.6-0.5,12.3,4.5,12.8,11.1l3.1,44.3c0.5,6.6-4.5,12.3-11.1,12.8
					l-87.4,6.1c-6.6,0.5-12.3-4.5-12.8-11.1l-3.1-44.3C37.5,67.2,42.4,61.5,49.1,61z"/>
				<path id="Gift-card" class="st12" d="M58.5,91.8c-1,0.1-1.7,0.8-1.6,1.8c0.1,1,0.9,1.7,1.9,1.6l2.6-0.2c0.2,2.9-2,4.1-4,4.3
					c-3.2,0.2-4.9-2.4-5.1-5.5c-0.2-3,1.2-5.9,4.3-6.1c3.3-0.2,3.8,1.6,5.5,1.5c0.9-0.1,1.5-0.8,1.4-1.9c-0.1-1.8-3.4-3.3-7.2-3.1
					c-5.1,0.4-8.4,4.6-8,9.9c0.4,5.2,4.2,9,9.3,8.6c5-0.4,7.9-4.2,7.6-9.1c-0.1-1.6-0.8-2.4-2.4-2.3L58.5,91.8z M67,100
					c0.1,1.2,0.9,2,2,1.9c1.1-0.1,1.8-0.9,1.7-2.1L70,90.1c-0.1-1.2-0.9-2-2-1.9c-1.1,0.1-1.8,0.9-1.7,2.1L67,100z M67.6,82.8
					c-1.1,0.1-2,1.1-1.9,2.1c0.1,1.1,1.1,2,2.2,1.9c1.1-0.1,2-1.1,1.9-2.2C69.7,83.6,68.7,82.7,67.6,82.8L67.6,82.8z M73.5,99.6
					c0.1,1.2,0.9,2,2,1.9c1.1-0.1,1.8-0.9,1.7-2.1L76.5,91l1.1-0.1c1.1-0.1,1.8-0.6,1.7-1.7c-0.1-1.2-0.9-1.5-1.9-1.5l-1.1,0.1
					l-0.1-1.5c-0.1-1.3,0.5-1.4,1.1-1.4c1-0.1,1.4-0.6,1.4-1.6c-0.1-1.3-1.3-1.5-2.6-1.5c-2.2,0.2-3.7,1.7-3.5,4.4l0.1,1.9l-0.8,0.1
					c-0.9,0.1-1.5,0.8-1.5,1.7c0.1,1,0.7,1.5,1.7,1.5l0.8-0.1L73.5,99.6z M81,99c0.1,1.2,0.9,2,2,1.9s1.8-0.9,1.7-2.1L84,90.4l1-0.1
					c0.9-0.1,1.7-0.6,1.6-1.7c-0.1-1.2-0.9-1.5-1.8-1.5l-1,0.1l-0.2-2.2c-0.1-1.2-0.9-2-2-1.9s-1.8,0.9-1.7,2.1l0.2,2.2l-0.8,0.1
					c-0.9,0.1-1.5,0.8-1.5,1.7c0.1,1,0.7,1.5,1.7,1.5l0.8-0.1L81,99z M104,87.8c-0.1-1.8-3.2-2.1-4.6-2c-3.8,0.3-6.3,3.8-6,7.5
					c0.3,3.8,3.1,6.8,7,6.5c1.3-0.1,4.4-0.9,4.3-2.8c-0.1-0.9-0.8-1.5-1.7-1.5c-0.4,0-1.7,0.9-2.6,0.9c-2,0.1-3.2-1.6-3.3-3.4
					c-0.1-1.9,0.7-3.8,2.8-3.9c1.2-0.1,2,0.6,2.9,0.5C103.6,89.6,104,88.6,104,87.8L104,87.8z M117.6,87.1c-0.1-0.9-0.2-2.4-1.9-2.2
					c-0.9,0.1-1.6,0.7-1.6,1.6c-0.9-1.1-2.2-1.5-3.6-1.4c-3.3,0.2-5.8,3.5-5.5,7.4c0.3,4.1,3.1,6.8,6.5,6.5c1.4-0.1,2.5-0.8,3.3-1.9
					c0.3,0.9,0.8,1.5,1.8,1.4c1.7-0.1,1.6-1.6,1.6-2.5L117.6,87.1z M108.7,92.3c-0.1-1.7,0.6-3.8,2.6-3.9c1.9-0.1,2.9,1.8,3,3.5
					c0.1,1.7-0.7,3.7-2.5,3.8C109.8,95.8,108.8,94,108.7,92.3L108.7,92.3z M120.3,96.3c0.1,1.2,0.9,2,2,1.9c1.1-0.1,1.8-0.9,1.7-2.1
					l-0.4-5.6c-0.1-1.4,1-2,2-2.6c1-0.6,2.1-0.7,2-1.9c-0.1-1.3-1-1.9-1.9-1.8c-1.1,0.1-1.8,0.6-2.4,1.7l-0.1,0
					c-0.1-1.2-0.9-1.5-1.9-1.4c-0.9,0.1-1.8,0.7-1.7,1.9L120.3,96.3z M140,79.3c-0.1-1.2-0.9-2-2-1.9s-1.8,0.9-1.7,2.1l0.3,4.9
					c-1-0.8-2.3-1.1-3.5-1c-3.9,0.3-5.6,4.1-5.3,7.6c0.2,3.4,2.8,6.7,6.4,6.4c1.2-0.1,2.6-0.7,3.2-1.9c0.3,0.9,0.9,1.5,1.9,1.4
					c1.1-0.1,1.8-0.9,1.7-2.1L140,79.3z M137.1,90.2c0.1,1.8-0.6,3.8-2.6,4c-1.9,0.1-3-1.8-3.1-3.4c-0.1-1.7,0.7-3.8,2.6-3.9
					C136,86.6,137,88.4,137.1,90.2L137.1,90.2z"/>
			</g>
		</g>
	</g>
</g>
</svg>
