<?xml version="1.0" encoding="UTF-8" standalone="no"?>
<svg width="471px" height="95px" viewBox="0 0 471 95" version="1.1" xmlns="http://www.w3.org/2000/svg" xmlns:xlink="http://www.w3.org/1999/xlink">
    <!-- Generator: Sketch 39.1 (31720) - http://www.bohemiancoding.com/sketch -->
    <title>16-illustration-tints</title>
    <desc>Created with Sketch.</desc>
    <defs></defs>
    <g id="Templates" stroke="none" stroke-width="1" fill="none" fill-rule="evenodd">
        <g id="16-illustrations" transform="translate(-230.000000, -2685.000000)">
            <g id="16-illustration-tints" transform="translate(230.000000, 2685.000000)">
                <rect id="colours-use-2-copy-76" fill="#E1D4D5" transform="translate(25.000000, 49.000000) rotate(-90.000000) translate(-25.000000, -49.000000) " x="0" y="24" width="50" height="50" rx="25"></rect>
                <rect id="colours-use-2-copy-77" fill="#E7DCDC" transform="translate(85.000000, 49.000000) rotate(-90.000000) translate(-85.000000, -49.000000) " x="60" y="24" width="50" height="50" rx="25"></rect>
                <rect id="colours-use-2-copy-78" fill="#EDE5E3" transform="translate(145.000000, 49.000000) rotate(-90.000000) translate(-145.000000, -49.000000) " x="120" y="24" width="50" height="50" rx="25"></rect>
                <rect id="colours-use-2-copy-79" fill="#F3EDE9" transform="translate(205.000000, 49.000000) rotate(-90.000000) translate(-205.000000, -49.000000) " x="180" y="24" width="50" height="50" rx="25"></rect>
                <rect id="colours-use-2-copy-80" fill="#F9F5F0" transform="translate(265.000000, 49.000000) rotate(-90.000000) translate(-265.000000, -49.000000) " x="240" y="24" width="50" height="50" rx="25"></rect>
                <rect id="colours-use-2-copy-81" fill="#FAF7F2" transform="translate(326.000000, 49.000000) rotate(-90.000000) translate(-326.000000, -49.000000) " x="301" y="24" width="50" height="50" rx="25"></rect>
                <rect id="colours-use-2-copy-82" fill="#FBF9F3" transform="translate(386.000000, 49.000000) rotate(-90.000000) translate(-386.000000, -49.000000) " x="361" y="24" width="50" height="50" rx="25"></rect>
                <rect id="colours-use-2-copy-83" fill="#FDFBF5" transform="translate(446.000000, 49.000000) rotate(-90.000000) translate(-446.000000, -49.000000) " x="421" y="24" width="50" height="50" rx="25"></rect>
                <path d="M7.02,91.408 L7.86,91.408 C8.136,91.408 8.352,91.276 8.352,91.012 C8.352,90.748 8.136,90.616 7.86,90.616 L7.128,90.616 L7.38,88.84 L8.22,88.84 C8.496,88.84 8.712,88.72 8.712,88.444 C8.712,88.18 8.496,88.048 8.22,88.048 L7.488,88.048 L7.728,86.296 C7.764,86.068 7.788,85.924 7.788,85.792 C7.788,85.576 7.668,85.384 7.38,85.384 C7.068,85.384 6.96,85.54 6.924,85.816 L6.612,88.048 L5.184,88.048 L5.424,86.296 C5.46,86.068 5.484,85.924 5.484,85.792 C5.484,85.576 5.364,85.384 5.076,85.384 C4.764,85.384 4.656,85.54 4.62,85.816 L4.308,88.048 L3.468,88.048 C3.192,88.048 2.976,88.18 2.976,88.444 C2.976,88.708 3.192,88.84 3.468,88.84 L4.2,88.84 L3.948,90.616 L3.108,90.616 C2.832,90.616 2.616,90.736 2.616,91.012 C2.616,91.276 2.832,91.408 3.108,91.408 L3.84,91.408 L3.6,93.16 C3.564,93.388 3.54,93.532 3.54,93.664 C3.54,93.88 3.66,94.072 3.948,94.072 C4.26,94.072 4.368,93.916 4.404,93.64 L4.716,91.408 L6.144,91.408 L5.904,93.16 C5.868,93.388 5.844,93.532 5.844,93.664 C5.844,93.88 5.964,94.072 6.252,94.072 C6.564,94.072 6.672,93.916 6.708,93.64 L7.02,91.408 Z M6.252,90.616 L4.824,90.616 L5.076,88.84 L6.504,88.84 L6.252,90.616 Z M14.22,91.216 C14.676,91.216 14.808,91.024 14.808,90.652 C14.808,89.116 13.8,87.544 12.06,87.544 C10.272,87.544 9.192,89.08 9.192,90.808 C9.192,92.5 10.08,94.072 12.12,94.072 C13.368,94.072 14.676,93.28 14.676,92.764 C14.676,92.464 14.484,92.296 14.292,92.296 C13.896,92.296 13.536,93.16 12.132,93.16 C10.944,93.16 10.248,92.308 10.248,91.216 L14.22,91.216 Z M10.248,90.424 C10.284,89.452 10.752,88.408 12.06,88.456 C13.224,88.456 13.752,89.512 13.752,90.424 L10.248,90.424 Z M17.088,93.508 C17.088,93.856 17.292,94.072 17.616,94.072 C17.94,94.072 18.144,93.856 18.144,93.508 L18.144,85.744 C18.144,85.48 18.024,85.456 17.82,85.456 L15.984,85.456 C15.732,85.456 15.528,85.66 15.528,85.912 C15.528,86.164 15.732,86.368 15.984,86.368 L17.088,86.368 L17.088,93.508 Z M24.324,90.808 C24.324,91.888 23.868,93.16 22.572,93.16 C21.276,93.16 20.82,91.888 20.82,90.808 C20.82,89.728 21.276,88.456 22.572,88.456 C23.868,88.456 24.324,89.728 24.324,90.808 L24.324,90.808 Z M24.216,93.508 C24.216,93.856 24.42,94.072 24.744,94.072 C25.068,94.072 25.272,93.856 25.272,93.508 L25.272,85.3 C25.272,84.952 25.068,84.736 24.744,84.736 C24.42,84.736 24.216,84.952 24.216,85.3 L24.216,88.408 L24.192,88.408 C23.916,88.012 23.328,87.544 22.488,87.544 C20.76,87.544 19.764,89.116 19.764,90.808 C19.764,92.5 20.76,94.072 22.488,94.072 C23.328,94.072 23.892,93.772 24.192,93.196 L24.216,93.196 L24.216,93.508 Z M30.024,91.804 L30.024,93.508 C30.024,93.856 30.228,94.072 30.552,94.072 C30.876,94.072 31.08,93.856 31.08,93.508 L31.08,91.804 L31.62,91.804 C31.872,91.804 32.076,91.6 32.076,91.348 C32.076,91.096 31.872,90.892 31.62,90.892 L31.08,90.892 L31.08,86.26 C31.08,85.636 30.744,85.384 30.276,85.384 C29.904,85.384 29.664,85.504 29.448,85.864 L26.424,90.82 C26.268,91.072 26.16,91.276 26.16,91.432 C26.16,91.648 26.256,91.804 26.616,91.804 L30.024,91.804 Z M27.48,90.892 L30,86.512 L30.024,86.512 L30.024,90.892 L27.48,90.892 Z M37.428,90.808 C37.428,91.888 36.972,93.16 35.676,93.16 C34.38,93.16 33.924,91.888 33.924,90.808 C33.924,89.728 34.38,88.456 35.676,88.456 C36.972,88.456 37.428,89.728 37.428,90.808 L37.428,90.808 Z M37.32,93.508 C37.32,93.856 37.524,94.072 37.848,94.072 C38.172,94.072 38.376,93.856 38.376,93.508 L38.376,85.3 C38.376,84.952 38.172,84.736 37.848,84.736 C37.524,84.736 37.32,84.952 37.32,85.3 L37.32,88.408 L37.296,88.408 C37.02,88.012 36.432,87.544 35.592,87.544 C33.864,87.544 32.868,89.116 32.868,90.808 C32.868,92.5 33.864,94.072 35.592,94.072 C36.432,94.072 36.996,93.772 37.296,93.196 L37.32,93.196 L37.32,93.508 Z M41.856,86.368 L44.292,86.368 C44.544,86.368 44.748,86.164 44.748,85.912 C44.748,85.66 44.544,85.456 44.292,85.456 L41.328,85.456 C41.076,85.456 40.968,85.516 40.932,85.732 L40.488,88.72 C40.452,88.984 40.404,89.296 40.404,89.428 C40.404,89.596 40.512,89.752 40.764,89.752 C41.064,89.752 41.436,89.428 42.216,89.428 C43.248,89.428 43.692,90.232 43.692,91.24 C43.692,92.236 43.08,93.088 42.06,93.088 C40.848,93.088 40.464,92.2 40.032,92.2 C39.768,92.2 39.648,92.44 39.648,92.656 C39.648,93.172 40.632,94.072 42.048,94.072 C43.776,94.072 44.82,92.872 44.82,91.036 C44.82,89.704 43.968,88.444 42.636,88.444 C42.24,88.444 41.856,88.504 41.508,88.684 L41.856,86.368 Z" id="#e1d4d5" fill="#575756"></path>
                <path d="M68.236,91.408 L69.076,91.408 C69.352,91.408 69.568,91.276 69.568,91.012 C69.568,90.748 69.352,90.616 69.076,90.616 L68.344,90.616 L68.596,88.84 L69.436,88.84 C69.712,88.84 69.928,88.72 69.928,88.444 C69.928,88.18 69.712,88.048 69.436,88.048 L68.704,88.048 L68.944,86.296 C68.98,86.068 69.004,85.924 69.004,85.792 C69.004,85.576 68.884,85.384 68.596,85.384 C68.284,85.384 68.176,85.54 68.14,85.816 L67.828,88.048 L66.4,88.048 L66.64,86.296 C66.676,86.068 66.7,85.924 66.7,85.792 C66.7,85.576 66.58,85.384 66.292,85.384 C65.98,85.384 65.872,85.54 65.836,85.816 L65.524,88.048 L64.684,88.048 C64.408,88.048 64.192,88.18 64.192,88.444 C64.192,88.708 64.408,88.84 64.684,88.84 L65.416,88.84 L65.164,90.616 L64.324,90.616 C64.048,90.616 63.832,90.736 63.832,91.012 C63.832,91.276 64.048,91.408 64.324,91.408 L65.056,91.408 L64.816,93.16 C64.78,93.388 64.756,93.532 64.756,93.664 C64.756,93.88 64.876,94.072 65.164,94.072 C65.476,94.072 65.584,93.916 65.62,93.64 L65.932,91.408 L67.36,91.408 L67.12,93.16 C67.084,93.388 67.06,93.532 67.06,93.664 C67.06,93.88 67.18,94.072 67.468,94.072 C67.78,94.072 67.888,93.916 67.924,93.64 L68.236,91.408 Z M67.468,90.616 L66.04,90.616 L66.292,88.84 L67.72,88.84 L67.468,90.616 Z M75.436,91.216 C75.892,91.216 76.024,91.024 76.024,90.652 C76.024,89.116 75.016,87.544 73.276,87.544 C71.488,87.544 70.408,89.08 70.408,90.808 C70.408,92.5 71.296,94.072 73.336,94.072 C74.584,94.072 75.892,93.28 75.892,92.764 C75.892,92.464 75.7,92.296 75.508,92.296 C75.112,92.296 74.752,93.16 73.348,93.16 C72.16,93.16 71.464,92.308 71.464,91.216 L75.436,91.216 Z M71.464,90.424 C71.5,89.452 71.968,88.408 73.276,88.456 C74.44,88.456 74.968,89.512 74.968,90.424 L71.464,90.424 Z M80.728,86.368 L80.728,86.392 L77.74,93.1 C77.608,93.412 77.572,93.58 77.572,93.664 C77.572,93.94 77.824,94.072 77.968,94.072 C78.196,94.072 78.46,94.024 78.604,93.688 L81.796,86.428 C81.928,86.128 82,85.96 82,85.792 C82,85.54 81.784,85.456 81.46,85.456 L77.128,85.456 C76.876,85.456 76.672,85.66 76.672,85.912 C76.672,86.164 76.876,86.368 77.128,86.368 L80.728,86.368 Z M87.316,90.808 C87.316,91.888 86.86,93.16 85.564,93.16 C84.268,93.16 83.812,91.888 83.812,90.808 C83.812,89.728 84.268,88.456 85.564,88.456 C86.86,88.456 87.316,89.728 87.316,90.808 L87.316,90.808 Z M87.208,93.508 C87.208,93.856 87.412,94.072 87.736,94.072 C88.06,94.072 88.264,93.856 88.264,93.508 L88.264,85.3 C88.264,84.952 88.06,84.736 87.736,84.736 C87.412,84.736 87.208,84.952 87.208,85.3 L87.208,88.408 L87.184,88.408 C86.908,88.012 86.32,87.544 85.48,87.544 C83.752,87.544 82.756,89.116 82.756,90.808 C82.756,92.5 83.752,94.072 85.48,94.072 C86.32,94.072 86.884,93.772 87.184,93.196 L87.208,93.196 L87.208,93.508 Z M89.428,90.808 C89.428,92.5 90.364,94.072 92.308,94.072 C93.4,94.072 93.988,93.64 93.988,93.244 C93.988,92.956 93.82,92.8 93.58,92.8 C93.244,92.8 93.052,93.16 92.308,93.16 C91,93.16 90.484,91.888 90.484,90.808 C90.484,89.728 91,88.456 92.308,88.456 C93.028,88.456 93.184,88.792 93.592,88.792 C93.844,88.792 94.024,88.564 94.024,88.348 C94.024,87.916 93.388,87.544 92.308,87.544 C90.364,87.544 89.428,89.116 89.428,90.808 L89.428,90.808 Z M99.316,90.808 C99.316,91.888 98.86,93.16 97.564,93.16 C96.268,93.16 95.812,91.888 95.812,90.808 C95.812,89.728 96.268,88.456 97.564,88.456 C98.86,88.456 99.316,89.728 99.316,90.808 L99.316,90.808 Z M99.208,93.508 C99.208,93.856 99.412,94.072 99.736,94.072 C100.06,94.072 100.264,93.856 100.264,93.508 L100.264,85.3 C100.264,84.952 100.06,84.736 99.736,84.736 C99.412,84.736 99.208,84.952 99.208,85.3 L99.208,88.408 L99.184,88.408 C98.908,88.012 98.32,87.544 97.48,87.544 C95.752,87.544 94.756,89.116 94.756,90.808 C94.756,92.5 95.752,94.072 97.48,94.072 C98.32,94.072 98.884,93.772 99.184,93.196 L99.208,93.196 L99.208,93.508 Z M101.428,90.808 C101.428,92.5 102.364,94.072 104.308,94.072 C105.4,94.072 105.988,93.64 105.988,93.244 C105.988,92.956 105.82,92.8 105.58,92.8 C105.244,92.8 105.052,93.16 104.308,93.16 C103,93.16 102.484,91.888 102.484,90.808 C102.484,89.728 103,88.456 104.308,88.456 C105.028,88.456 105.184,88.792 105.592,88.792 C105.844,88.792 106.024,88.564 106.024,88.348 C106.024,87.916 105.388,87.544 104.308,87.544 C102.364,87.544 101.428,89.116 101.428,90.808 L101.428,90.808 Z" id="#e7dcdc" fill="#575756"></path>
                <path d="M127.228,91.408 L128.068,91.408 C128.344,91.408 128.56,91.276 128.56,91.012 C128.56,90.748 128.344,90.616 128.068,90.616 L127.336,90.616 L127.588,88.84 L128.428,88.84 C128.704,88.84 128.92,88.72 128.92,88.444 C128.92,88.18 128.704,88.048 128.428,88.048 L127.696,88.048 L127.936,86.296 C127.972,86.068 127.996,85.924 127.996,85.792 C127.996,85.576 127.876,85.384 127.588,85.384 C127.276,85.384 127.168,85.54 127.132,85.816 L126.82,88.048 L125.392,88.048 L125.632,86.296 C125.668,86.068 125.692,85.924 125.692,85.792 C125.692,85.576 125.572,85.384 125.284,85.384 C124.972,85.384 124.864,85.54 124.828,85.816 L124.516,88.048 L123.676,88.048 C123.4,88.048 123.184,88.18 123.184,88.444 C123.184,88.708 123.4,88.84 123.676,88.84 L124.408,88.84 L124.156,90.616 L123.316,90.616 C123.04,90.616 122.824,90.736 122.824,91.012 C122.824,91.276 123.04,91.408 123.316,91.408 L124.048,91.408 L123.808,93.16 C123.772,93.388 123.748,93.532 123.748,93.664 C123.748,93.88 123.868,94.072 124.156,94.072 C124.468,94.072 124.576,93.916 124.612,93.64 L124.924,91.408 L126.352,91.408 L126.112,93.16 C126.076,93.388 126.052,93.532 126.052,93.664 C126.052,93.88 126.172,94.072 126.46,94.072 C126.772,94.072 126.88,93.916 126.916,93.64 L127.228,91.408 Z M126.46,90.616 L125.032,90.616 L125.284,88.84 L126.712,88.84 L126.46,90.616 Z M134.428,91.216 C134.884,91.216 135.016,91.024 135.016,90.652 C135.016,89.116 134.008,87.544 132.268,87.544 C130.48,87.544 129.4,89.08 129.4,90.808 C129.4,92.5 130.288,94.072 132.328,94.072 C133.576,94.072 134.884,93.28 134.884,92.764 C134.884,92.464 134.692,92.296 134.5,92.296 C134.104,92.296 133.744,93.16 132.34,93.16 C131.152,93.16 130.456,92.308 130.456,91.216 L134.428,91.216 Z M130.456,90.424 C130.492,89.452 130.96,88.408 132.268,88.456 C133.432,88.456 133.96,89.512 133.96,90.424 L130.456,90.424 Z M140.308,90.808 C140.308,91.888 139.852,93.16 138.556,93.16 C137.26,93.16 136.804,91.888 136.804,90.808 C136.804,89.728 137.26,88.456 138.556,88.456 C139.852,88.456 140.308,89.728 140.308,90.808 L140.308,90.808 Z M140.2,93.508 C140.2,93.856 140.404,94.072 140.728,94.072 C141.052,94.072 141.256,93.856 141.256,93.508 L141.256,85.3 C141.256,84.952 141.052,84.736 140.728,84.736 C140.404,84.736 140.2,84.952 140.2,85.3 L140.2,88.408 L140.176,88.408 C139.9,88.012 139.312,87.544 138.472,87.544 C136.744,87.544 135.748,89.116 135.748,90.808 C135.748,92.5 136.744,94.072 138.472,94.072 C139.312,94.072 139.876,93.772 140.176,93.196 L140.2,93.196 L140.2,93.508 Z M147.34,91.216 C147.796,91.216 147.928,91.024 147.928,90.652 C147.928,89.116 146.92,87.544 145.18,87.544 C143.392,87.544 142.312,89.08 142.312,90.808 C142.312,92.5 143.2,94.072 145.24,94.072 C146.488,94.072 147.796,93.28 147.796,92.764 C147.796,92.464 147.604,92.296 147.412,92.296 C147.016,92.296 146.656,93.16 145.252,93.16 C144.064,93.16 143.368,92.308 143.368,91.216 L147.34,91.216 Z M143.368,90.424 C143.404,89.452 143.872,88.408 145.18,88.456 C146.344,88.456 146.872,89.512 146.872,90.424 L143.368,90.424 Z M150.976,86.368 L153.412,86.368 C153.664,86.368 153.868,86.164 153.868,85.912 C153.868,85.66 153.664,85.456 153.412,85.456 L150.448,85.456 C150.196,85.456 150.088,85.516 150.052,85.732 L149.608,88.72 C149.572,88.984 149.524,89.296 149.524,89.428 C149.524,89.596 149.632,89.752 149.884,89.752 C150.184,89.752 150.556,89.428 151.336,89.428 C152.368,89.428 152.812,90.232 152.812,91.24 C152.812,92.236 152.2,93.088 151.18,93.088 C149.968,93.088 149.584,92.2 149.152,92.2 C148.888,92.2 148.768,92.44 148.768,92.656 C148.768,93.172 149.752,94.072 151.168,94.072 C152.896,94.072 153.94,92.872 153.94,91.036 C153.94,89.704 153.088,88.444 151.756,88.444 C151.36,88.444 150.976,88.504 150.628,88.684 L150.976,86.368 Z M160.012,91.216 C160.468,91.216 160.6,91.024 160.6,90.652 C160.6,89.116 159.592,87.544 157.852,87.544 C156.064,87.544 154.984,89.08 154.984,90.808 C154.984,92.5 155.872,94.072 157.912,94.072 C159.16,94.072 160.468,93.28 160.468,92.764 C160.468,92.464 160.276,92.296 160.084,92.296 C159.688,92.296 159.328,93.16 157.924,93.16 C156.736,93.16 156.04,92.308 156.04,91.216 L160.012,91.216 Z M156.04,90.424 C156.076,89.452 156.544,88.408 157.852,88.456 C159.016,88.456 159.544,89.512 159.544,90.424 L156.04,90.424 Z M166.624,91.48 C166.624,90.508 166.12,89.692 165.16,89.404 C165.832,88.996 166.168,88.3 166.168,87.592 C166.168,86.392 165.316,85.384 163.948,85.384 C162.532,85.384 161.704,86.404 161.704,87.544 C161.704,87.82 161.884,88.036 162.184,88.036 C162.364,88.036 162.652,88.024 162.688,87.544 C162.748,86.896 163.06,86.296 163.9,86.296 C164.632,86.296 165.112,86.872 165.112,87.688 C165.112,88.468 164.764,88.876 163.912,89.068 C163.516,89.152 163.36,89.284 163.36,89.524 C163.36,89.8 163.588,89.98 164.008,89.98 C164.8,89.98 165.496,90.304 165.496,91.576 C165.496,92.452 164.824,93.16 163.876,93.16 C163.072,93.16 162.64,92.68 162.436,92.068 C162.316,91.696 162.16,91.516 161.848,91.516 C161.596,91.516 161.404,91.732 161.404,92.104 C161.404,92.74 162.124,94.072 163.9,94.072 C165.424,94.072 166.624,93.1 166.624,91.48 L166.624,91.48 Z" id="#ede5e3" fill="#575756"></path>
                <path d="M188.794,91.408 L189.634,91.408 C189.91,91.408 190.126,91.276 190.126,91.012 C190.126,90.748 189.91,90.616 189.634,90.616 L188.902,90.616 L189.154,88.84 L189.994,88.84 C190.27,88.84 190.486,88.72 190.486,88.444 C190.486,88.18 190.27,88.048 189.994,88.048 L189.262,88.048 L189.502,86.296 C189.538,86.068 189.562,85.924 189.562,85.792 C189.562,85.576 189.442,85.384 189.154,85.384 C188.842,85.384 188.734,85.54 188.698,85.816 L188.386,88.048 L186.958,88.048 L187.198,86.296 C187.234,86.068 187.258,85.924 187.258,85.792 C187.258,85.576 187.138,85.384 186.85,85.384 C186.538,85.384 186.43,85.54 186.394,85.816 L186.082,88.048 L185.242,88.048 C184.966,88.048 184.75,88.18 184.75,88.444 C184.75,88.708 184.966,88.84 185.242,88.84 L185.974,88.84 L185.722,90.616 L184.882,90.616 C184.606,90.616 184.39,90.736 184.39,91.012 C184.39,91.276 184.606,91.408 184.882,91.408 L185.614,91.408 L185.374,93.16 C185.338,93.388 185.314,93.532 185.314,93.664 C185.314,93.88 185.434,94.072 185.722,94.072 C186.034,94.072 186.142,93.916 186.178,93.64 L186.49,91.408 L187.918,91.408 L187.678,93.16 C187.642,93.388 187.618,93.532 187.618,93.664 C187.618,93.88 187.738,94.072 188.026,94.072 C188.338,94.072 188.446,93.916 188.482,93.64 L188.794,91.408 Z M188.026,90.616 L186.598,90.616 L186.85,88.84 L188.278,88.84 L188.026,90.616 Z M192.742,88.528 L193.402,88.528 C193.75,88.528 193.93,88.36 193.93,88.072 C193.93,87.784 193.75,87.616 193.402,87.616 L192.742,87.616 L192.742,86.068 C192.742,85.804 192.85,85.648 193.174,85.648 L193.438,85.648 C193.834,85.648 194.014,85.48 194.014,85.192 C194.014,84.904 193.69,84.736 193.414,84.736 L193.09,84.736 C192.322,84.736 191.686,85.192 191.686,86.116 L191.686,87.616 L191.254,87.616 C190.906,87.616 190.726,87.784 190.726,88.072 C190.726,88.36 190.906,88.528 191.254,88.528 L191.686,88.528 L191.686,93.508 C191.686,93.856 191.89,94.072 192.214,94.072 C192.538,94.072 192.742,93.856 192.742,93.508 L192.742,88.528 Z M199.474,91.48 C199.474,90.508 198.97,89.692 198.01,89.404 C198.682,88.996 199.018,88.3 199.018,87.592 C199.018,86.392 198.166,85.384 196.798,85.384 C195.382,85.384 194.554,86.404 194.554,87.544 C194.554,87.82 194.734,88.036 195.034,88.036 C195.214,88.036 195.502,88.024 195.538,87.544 C195.598,86.896 195.91,86.296 196.75,86.296 C197.482,86.296 197.962,86.872 197.962,87.688 C197.962,88.468 197.614,88.876 196.762,89.068 C196.366,89.152 196.21,89.284 196.21,89.524 C196.21,89.8 196.438,89.98 196.858,89.98 C197.65,89.98 198.346,90.304 198.346,91.576 C198.346,92.452 197.674,93.16 196.726,93.16 C195.922,93.16 195.49,92.68 195.286,92.068 C195.166,91.696 195.01,91.516 194.698,91.516 C194.446,91.516 194.254,91.732 194.254,92.104 C194.254,92.74 194.974,94.072 196.75,94.072 C198.274,94.072 199.474,93.1 199.474,91.48 L199.474,91.48 Z M205.534,91.216 C205.99,91.216 206.122,91.024 206.122,90.652 C206.122,89.116 205.114,87.544 203.374,87.544 C201.586,87.544 200.506,89.08 200.506,90.808 C200.506,92.5 201.394,94.072 203.434,94.072 C204.682,94.072 205.99,93.28 205.99,92.764 C205.99,92.464 205.798,92.296 205.606,92.296 C205.21,92.296 204.85,93.16 203.446,93.16 C202.258,93.16 201.562,92.308 201.562,91.216 L205.534,91.216 Z M201.562,90.424 C201.598,89.452 202.066,88.408 203.374,88.456 C204.538,88.456 205.066,89.512 205.066,90.424 L201.562,90.424 Z M211.414,90.808 C211.414,91.888 210.958,93.16 209.662,93.16 C208.366,93.16 207.91,91.888 207.91,90.808 C207.91,89.728 208.366,88.456 209.662,88.456 C210.958,88.456 211.414,89.728 211.414,90.808 L211.414,90.808 Z M211.306,93.508 C211.306,93.856 211.51,94.072 211.834,94.072 C212.158,94.072 212.362,93.856 212.362,93.508 L212.362,85.3 C212.362,84.952 212.158,84.736 211.834,84.736 C211.51,84.736 211.306,84.952 211.306,85.3 L211.306,88.408 L211.282,88.408 C211.006,88.012 210.418,87.544 209.578,87.544 C207.85,87.544 206.854,89.116 206.854,90.808 C206.854,92.5 207.85,94.072 209.578,94.072 C210.418,94.072 210.982,93.772 211.282,93.196 L211.306,93.196 L211.306,93.508 Z M218.446,91.216 C218.902,91.216 219.034,91.024 219.034,90.652 C219.034,89.116 218.026,87.544 216.286,87.544 C214.498,87.544 213.418,89.08 213.418,90.808 C213.418,92.5 214.306,94.072 216.346,94.072 C217.594,94.072 218.902,93.28 218.902,92.764 C218.902,92.464 218.71,92.296 218.518,92.296 C218.122,92.296 217.762,93.16 216.358,93.16 C215.17,93.16 214.474,92.308 214.474,91.216 L218.446,91.216 Z M214.474,90.424 C214.51,89.452 214.978,88.408 216.286,88.456 C217.45,88.456 217.978,89.512 217.978,90.424 L214.474,90.424 Z M222.586,85.384 C221.074,85.384 219.97,86.62 219.97,88.168 C219.97,89.656 220.738,90.976 222.13,90.976 C222.706,90.976 223.09,90.844 223.486,90.64 L223.51,90.64 C222.862,91.828 222.358,92.404 221.674,93.016 C221.374,93.28 221.254,93.412 221.254,93.58 C221.254,93.904 221.518,94.072 221.686,94.072 C221.83,94.072 221.962,94.012 222.178,93.832 C223.474,92.74 225.154,90.82 225.154,88.324 C225.154,86.62 224.074,85.384 222.586,85.384 L222.586,85.384 Z M224.098,88.216 C224.098,89.2 223.642,90.064 222.598,90.064 C221.554,90.064 221.098,89.344 221.098,88.216 C221.098,87.22 221.554,86.368 222.598,86.368 C223.642,86.368 224.098,87.22 224.098,88.216 L224.098,88.216 Z" id="#f3ede9" fill="#575756"></path>
                <path d="M247.516,90.412 L246.316,90.412 C245.92,90.412 245.74,90.7 245.74,90.988 C245.74,91.276 245.92,91.564 246.316,91.564 L247.348,91.564 L247.108,93.304 C247.084,93.496 247.084,93.412 247.084,93.592 C247.084,93.88 247.348,94.072 247.636,94.072 C247.996,94.072 248.176,93.928 248.236,93.496 L248.5,91.564 L249.652,91.564 L249.412,93.304 C249.388,93.496 249.388,93.412 249.388,93.592 C249.388,93.88 249.652,94.072 249.94,94.072 C250.3,94.072 250.48,93.928 250.54,93.496 L250.804,91.564 L252.004,91.564 C252.4,91.564 252.58,91.276 252.58,90.988 C252.58,90.7 252.4,90.412 252.004,90.412 L250.972,90.412 L251.164,89.044 L252.364,89.044 C252.76,89.044 252.94,88.756 252.94,88.468 C252.94,88.18 252.76,87.892 252.364,87.892 L251.332,87.892 L251.572,86.152 C251.596,85.96 251.596,86.044 251.596,85.864 C251.596,85.576 251.332,85.384 251.044,85.384 C250.684,85.384 250.504,85.528 250.444,85.96 L250.18,87.892 L249.028,87.892 L249.268,86.152 C249.292,85.96 249.292,86.044 249.292,85.864 C249.292,85.576 249.028,85.384 248.74,85.384 C248.38,85.384 248.2,85.528 248.14,85.96 L247.876,87.892 L246.676,87.892 C246.28,87.892 246.1,88.18 246.1,88.468 C246.1,88.756 246.28,89.044 246.676,89.044 L247.708,89.044 L247.516,90.412 Z M248.872,89.044 L250.012,89.044 L249.82,90.412 L248.68,90.412 L248.872,89.044 Z M253.828,93.112 C253.828,93.688 254.188,94.072 254.692,94.072 C255.196,94.072 255.556,93.688 255.556,93.112 L255.556,89.128 L256.096,89.128 C256.6,89.128 256.972,88.912 256.972,88.372 C256.972,87.82 256.612,87.616 256.096,87.616 L255.556,87.616 L255.556,86.908 C255.556,86.272 255.844,86.272 256.132,86.272 C256.612,86.272 256.84,86.044 256.84,85.54 C256.84,84.94 256.252,84.76 255.64,84.76 C254.584,84.76 253.828,85.456 253.828,86.728 L253.828,87.616 L253.444,87.616 C253.012,87.616 252.688,87.94 252.688,88.372 C252.688,88.84 252.976,89.128 253.444,89.128 L253.828,89.128 L253.828,93.112 Z M259.936,85.312 C258.16,85.312 256.924,86.728 256.924,88.288 C256.924,89.704 257.992,90.976 259.432,90.976 C259.696,90.976 259.972,90.928 260.188,90.832 L260.212,90.856 C259.816,91.42 259.036,92.188 258.556,92.776 C258.412,92.956 258.304,93.1 258.304,93.268 C258.304,93.7 258.82,94.144 259.156,94.144 C259.252,94.144 259.384,94.144 259.516,94.06 C259.66,93.964 259.804,93.868 259.9,93.772 C261.112,92.644 262.948,90.1 262.948,88.288 C262.948,86.692 261.784,85.312 259.936,85.312 L259.936,85.312 Z M259.936,89.536 C259.18,89.536 258.796,88.924 258.796,88.288 C258.796,87.592 259.252,87.04 259.936,87.04 C260.656,87.04 261.076,87.616 261.076,88.288 C261.076,88.996 260.62,89.536 259.936,89.536 L259.936,89.536 Z M264.268,93.112 C264.268,93.688 264.628,94.072 265.132,94.072 C265.636,94.072 265.996,93.688 265.996,93.112 L265.996,89.128 L266.536,89.128 C267.04,89.128 267.412,88.912 267.412,88.372 C267.412,87.82 267.052,87.616 266.536,87.616 L265.996,87.616 L265.996,86.908 C265.996,86.272 266.284,86.272 266.572,86.272 C267.052,86.272 267.28,86.044 267.28,85.54 C267.28,84.94 266.692,84.76 266.08,84.76 C265.024,84.76 264.268,85.456 264.268,86.728 L264.268,87.616 L263.884,87.616 C263.452,87.616 263.128,87.94 263.128,88.372 C263.128,88.84 263.416,89.128 263.884,89.128 L264.268,89.128 L264.268,93.112 Z M269.932,87.112 L272.188,87.112 C272.404,87.112 273.028,87.04 273.028,86.212 C273.028,85.78 272.704,85.456 272.152,85.456 L269.26,85.456 C268.684,85.456 268.456,85.66 268.324,86.596 L268.024,89.128 C268.012,89.26 267.988,89.38 267.988,89.536 C267.988,89.74 268.228,90.1 268.696,90.1 C269.308,90.1 269.416,89.704 270.112,89.704 C270.856,89.704 271.264,90.196 271.264,90.916 C271.264,91.672 270.832,92.488 269.992,92.488 C269.188,92.488 268.612,91.72 268.132,91.72 C267.688,91.72 267.316,92.092 267.316,92.536 C267.316,93.592 269.104,94.144 269.956,94.144 C272.032,94.144 273.136,92.824 273.136,90.82 C273.136,89.416 272.104,88.264 270.652,88.264 C270.352,88.264 270.04,88.324 269.752,88.384 L269.932,87.112 Z M274.708,93.112 C274.708,93.688 275.068,94.072 275.572,94.072 C276.076,94.072 276.436,93.688 276.436,93.112 L276.436,89.128 L276.976,89.128 C277.48,89.128 277.852,88.912 277.852,88.372 C277.852,87.82 277.492,87.616 276.976,87.616 L276.436,87.616 L276.436,86.908 C276.436,86.272 276.724,86.272 277.012,86.272 C277.492,86.272 277.72,86.044 277.72,85.54 C277.72,84.94 277.132,84.76 276.52,84.76 C275.464,84.76 274.708,85.456 274.708,86.728 L274.708,87.616 L274.324,87.616 C273.892,87.616 273.568,87.94 273.568,88.372 C273.568,88.84 273.856,89.128 274.324,89.128 L274.708,89.128 L274.708,93.112 Z M280.816,92.512 C279.592,92.512 279.508,90.58 279.508,89.728 C279.508,88.816 279.592,86.944 280.816,86.944 C282.04,86.944 282.124,88.816 282.124,89.728 C282.124,90.58 282.04,92.512 280.816,92.512 L280.816,92.512 Z M280.816,94.144 C283.24,94.144 283.996,91.684 283.996,89.728 C283.996,87.772 283.24,85.312 280.816,85.312 C278.392,85.312 277.636,87.772 277.636,89.728 C277.636,91.684 278.392,94.144 280.816,94.144 L280.816,94.144 Z" id="#f9f5f0" fill="#575756"></path>
                <path d="M313.142,91.408 L313.982,91.408 C314.258,91.408 314.474,91.276 314.474,91.012 C314.474,90.748 314.258,90.616 313.982,90.616 L313.25,90.616 L313.502,88.84 L314.342,88.84 C314.618,88.84 314.834,88.72 314.834,88.444 C314.834,88.18 314.618,88.048 314.342,88.048 L313.61,88.048 L313.85,86.296 C313.886,86.068 313.91,85.924 313.91,85.792 C313.91,85.576 313.79,85.384 313.502,85.384 C313.19,85.384 313.082,85.54 313.046,85.816 L312.734,88.048 L311.306,88.048 L311.546,86.296 C311.582,86.068 311.606,85.924 311.606,85.792 C311.606,85.576 311.486,85.384 311.198,85.384 C310.886,85.384 310.778,85.54 310.742,85.816 L310.43,88.048 L309.59,88.048 C309.314,88.048 309.098,88.18 309.098,88.444 C309.098,88.708 309.314,88.84 309.59,88.84 L310.322,88.84 L310.07,90.616 L309.23,90.616 C308.954,90.616 308.738,90.736 308.738,91.012 C308.738,91.276 308.954,91.408 309.23,91.408 L309.962,91.408 L309.722,93.16 C309.686,93.388 309.662,93.532 309.662,93.664 C309.662,93.88 309.782,94.072 310.07,94.072 C310.382,94.072 310.49,93.916 310.526,93.64 L310.838,91.408 L312.266,91.408 L312.026,93.16 C311.99,93.388 311.966,93.532 311.966,93.664 C311.966,93.88 312.086,94.072 312.374,94.072 C312.686,94.072 312.794,93.916 312.83,93.64 L313.142,91.408 Z M312.374,90.616 L310.946,90.616 L311.198,88.84 L312.626,88.84 L312.374,90.616 Z M317.09,88.528 L317.75,88.528 C318.098,88.528 318.278,88.36 318.278,88.072 C318.278,87.784 318.098,87.616 317.75,87.616 L317.09,87.616 L317.09,86.068 C317.09,85.804 317.198,85.648 317.522,85.648 L317.786,85.648 C318.182,85.648 318.362,85.48 318.362,85.192 C318.362,84.904 318.038,84.736 317.762,84.736 L317.438,84.736 C316.67,84.736 316.034,85.192 316.034,86.116 L316.034,87.616 L315.602,87.616 C315.254,87.616 315.074,87.784 315.074,88.072 C315.074,88.36 315.254,88.528 315.602,88.528 L316.034,88.528 L316.034,93.508 C316.034,93.856 316.238,94.072 316.562,94.072 C316.886,94.072 317.09,93.856 317.09,93.508 L317.09,88.528 Z M324.086,88.06 C324.086,87.688 323.798,87.544 323.594,87.544 C323.378,87.544 323.102,87.688 323.102,88.06 L323.102,88.396 L323.078,88.396 C322.586,87.856 322.07,87.544 321.338,87.544 C319.538,87.544 318.53,89.116 318.53,90.808 C318.53,92.5 319.538,94.072 321.338,94.072 C322.022,94.072 322.622,93.76 323.078,93.112 L323.102,93.112 L323.102,93.556 C323.102,93.928 323.378,94.072 323.594,94.072 C323.798,94.072 324.086,93.928 324.086,93.556 L324.086,88.06 Z M319.586,90.808 C319.586,89.728 320.042,88.456 321.338,88.456 C322.634,88.456 323.09,89.728 323.09,90.808 C323.09,91.888 322.634,93.16 321.338,93.16 C320.042,93.16 319.586,91.888 319.586,90.808 L319.586,90.808 Z M326.87,88.528 L327.53,88.528 C327.878,88.528 328.058,88.36 328.058,88.072 C328.058,87.784 327.878,87.616 327.53,87.616 L326.87,87.616 L326.87,86.068 C326.87,85.804 326.978,85.648 327.302,85.648 L327.566,85.648 C327.962,85.648 328.142,85.48 328.142,85.192 C328.142,84.904 327.818,84.736 327.542,84.736 L327.218,84.736 C326.45,84.736 325.814,85.192 325.814,86.116 L325.814,87.616 L325.382,87.616 C325.034,87.616 324.854,87.784 324.854,88.072 C324.854,88.36 325.034,88.528 325.382,88.528 L325.814,88.528 L325.814,93.508 C325.814,93.856 326.018,94.072 326.342,94.072 C326.666,94.072 326.87,93.856 326.87,93.508 L326.87,88.528 Z M332.282,86.368 L332.282,86.392 L329.294,93.1 C329.162,93.412 329.126,93.58 329.126,93.664 C329.126,93.94 329.378,94.072 329.522,94.072 C329.75,94.072 330.014,94.024 330.158,93.688 L333.35,86.428 C333.482,86.128 333.554,85.96 333.554,85.792 C333.554,85.54 333.338,85.456 333.014,85.456 L328.682,85.456 C328.43,85.456 328.226,85.66 328.226,85.912 C328.226,86.164 328.43,86.368 328.682,86.368 L332.282,86.368 Z M335.978,88.528 L336.638,88.528 C336.986,88.528 337.166,88.36 337.166,88.072 C337.166,87.784 336.986,87.616 336.638,87.616 L335.978,87.616 L335.978,86.068 C335.978,85.804 336.086,85.648 336.41,85.648 L336.674,85.648 C337.07,85.648 337.25,85.48 337.25,85.192 C337.25,84.904 336.926,84.736 336.65,84.736 L336.326,84.736 C335.558,84.736 334.922,85.192 334.922,86.116 L334.922,87.616 L334.49,87.616 C334.142,87.616 333.962,87.784 333.962,88.072 C333.962,88.36 334.142,88.528 334.49,88.528 L334.922,88.528 L334.922,93.508 C334.922,93.856 335.126,94.072 335.45,94.072 C335.774,94.072 335.978,93.856 335.978,93.508 L335.978,88.528 Z M339.182,93.088 L342.05,89.272 C342.602,88.552 342.638,88 342.638,87.508 C342.638,86.404 341.75,85.384 340.334,85.384 C338.57,85.384 337.61,86.644 337.61,88.06 C337.61,88.504 337.79,88.708 338.126,88.708 C338.354,88.708 338.594,88.6 338.594,88.228 C338.594,87.16 339.134,86.296 340.154,86.296 C340.922,86.296 341.51,86.848 341.51,87.628 C341.51,88.144 341.246,88.672 340.886,89.14 L337.934,93.088 C337.754,93.34 337.706,93.436 337.706,93.568 C337.706,93.748 337.838,94 338.282,94 L342.422,94 C342.674,94 342.878,93.796 342.878,93.544 C342.878,93.292 342.674,93.088 342.422,93.088 L339.182,93.088 Z" id="#faf7f2" fill="#575756"></path>
                <path d="M372.926,91.408 L373.766,91.408 C374.042,91.408 374.258,91.276 374.258,91.012 C374.258,90.748 374.042,90.616 373.766,90.616 L373.034,90.616 L373.286,88.84 L374.126,88.84 C374.402,88.84 374.618,88.72 374.618,88.444 C374.618,88.18 374.402,88.048 374.126,88.048 L373.394,88.048 L373.634,86.296 C373.67,86.068 373.694,85.924 373.694,85.792 C373.694,85.576 373.574,85.384 373.286,85.384 C372.974,85.384 372.866,85.54 372.83,85.816 L372.518,88.048 L371.09,88.048 L371.33,86.296 C371.366,86.068 371.39,85.924 371.39,85.792 C371.39,85.576 371.27,85.384 370.982,85.384 C370.67,85.384 370.562,85.54 370.526,85.816 L370.214,88.048 L369.374,88.048 C369.098,88.048 368.882,88.18 368.882,88.444 C368.882,88.708 369.098,88.84 369.374,88.84 L370.106,88.84 L369.854,90.616 L369.014,90.616 C368.738,90.616 368.522,90.736 368.522,91.012 C368.522,91.276 368.738,91.408 369.014,91.408 L369.746,91.408 L369.506,93.16 C369.47,93.388 369.446,93.532 369.446,93.664 C369.446,93.88 369.566,94.072 369.854,94.072 C370.166,94.072 370.274,93.916 370.31,93.64 L370.622,91.408 L372.05,91.408 L371.81,93.16 C371.774,93.388 371.75,93.532 371.75,93.664 C371.75,93.88 371.87,94.072 372.158,94.072 C372.47,94.072 372.578,93.916 372.614,93.64 L372.926,91.408 Z M372.158,90.616 L370.73,90.616 L370.982,88.84 L372.41,88.84 L372.158,90.616 Z M376.874,88.528 L377.534,88.528 C377.882,88.528 378.062,88.36 378.062,88.072 C378.062,87.784 377.882,87.616 377.534,87.616 L376.874,87.616 L376.874,86.068 C376.874,85.804 376.982,85.648 377.306,85.648 L377.57,85.648 C377.966,85.648 378.146,85.48 378.146,85.192 C378.146,84.904 377.822,84.736 377.546,84.736 L377.222,84.736 C376.454,84.736 375.818,85.192 375.818,86.116 L375.818,87.616 L375.386,87.616 C375.038,87.616 374.858,87.784 374.858,88.072 C374.858,88.36 375.038,88.528 375.386,88.528 L375.818,88.528 L375.818,93.508 C375.818,93.856 376.022,94.072 376.346,94.072 C376.67,94.072 376.874,93.856 376.874,93.508 L376.874,88.528 Z M379.586,90.808 C379.586,89.728 380.042,88.456 381.338,88.456 C382.634,88.456 383.09,89.728 383.09,90.808 C383.09,91.888 382.634,93.16 381.338,93.16 C380.042,93.16 379.586,91.888 379.586,90.808 L379.586,90.808 Z M378.638,93.508 C378.638,93.856 378.842,94.072 379.166,94.072 C379.49,94.072 379.694,93.856 379.694,93.508 L379.694,93.196 L379.718,93.196 C380.018,93.772 380.582,94.072 381.422,94.072 C383.15,94.072 384.146,92.5 384.146,90.808 C384.146,89.116 383.15,87.544 381.422,87.544 C380.582,87.544 379.994,88.012 379.718,88.408 L379.694,88.408 L379.694,85.3 C379.694,84.952 379.49,84.736 379.166,84.736 C378.842,84.736 378.638,84.952 378.638,85.3 L378.638,93.508 Z M386.654,88.528 L387.314,88.528 C387.662,88.528 387.842,88.36 387.842,88.072 C387.842,87.784 387.662,87.616 387.314,87.616 L386.654,87.616 L386.654,86.068 C386.654,85.804 386.762,85.648 387.086,85.648 L387.35,85.648 C387.746,85.648 387.926,85.48 387.926,85.192 C387.926,84.904 387.602,84.736 387.326,84.736 L387.002,84.736 C386.234,84.736 385.598,85.192 385.598,86.116 L385.598,87.616 L385.166,87.616 C384.818,87.616 384.638,87.784 384.638,88.072 C384.638,88.36 384.818,88.528 385.166,88.528 L385.598,88.528 L385.598,93.508 C385.598,93.856 385.802,94.072 386.126,94.072 C386.45,94.072 386.654,93.856 386.654,93.508 L386.654,88.528 Z M390.914,85.384 C389.402,85.384 388.298,86.62 388.298,88.168 C388.298,89.656 389.066,90.976 390.458,90.976 C391.034,90.976 391.418,90.844 391.814,90.64 L391.838,90.64 C391.19,91.828 390.686,92.404 390.002,93.016 C389.702,93.28 389.582,93.412 389.582,93.58 C389.582,93.904 389.846,94.072 390.014,94.072 C390.158,94.072 390.29,94.012 390.506,93.832 C391.802,92.74 393.482,90.82 393.482,88.324 C393.482,86.62 392.402,85.384 390.914,85.384 L390.914,85.384 Z M392.426,88.216 C392.426,89.2 391.97,90.064 390.926,90.064 C389.882,90.064 389.426,89.344 389.426,88.216 C389.426,87.22 389.882,86.368 390.926,86.368 C391.97,86.368 392.426,87.22 392.426,88.216 L392.426,88.216 Z M396.194,88.528 L396.854,88.528 C397.202,88.528 397.382,88.36 397.382,88.072 C397.382,87.784 397.202,87.616 396.854,87.616 L396.194,87.616 L396.194,86.068 C396.194,85.804 396.302,85.648 396.626,85.648 L396.89,85.648 C397.286,85.648 397.466,85.48 397.466,85.192 C397.466,84.904 397.142,84.736 396.866,84.736 L396.542,84.736 C395.774,84.736 395.138,85.192 395.138,86.116 L395.138,87.616 L394.706,87.616 C394.358,87.616 394.178,87.784 394.178,88.072 C394.178,88.36 394.358,88.528 394.706,88.528 L395.138,88.528 L395.138,93.508 C395.138,93.856 395.342,94.072 395.666,94.072 C395.99,94.072 396.194,93.856 396.194,93.508 L396.194,88.528 Z M402.926,91.48 C402.926,90.508 402.422,89.692 401.462,89.404 C402.134,88.996 402.47,88.3 402.47,87.592 C402.47,86.392 401.618,85.384 400.25,85.384 C398.834,85.384 398.006,86.404 398.006,87.544 C398.006,87.82 398.186,88.036 398.486,88.036 C398.666,88.036 398.954,88.024 398.99,87.544 C399.05,86.896 399.362,86.296 400.202,86.296 C400.934,86.296 401.414,86.872 401.414,87.688 C401.414,88.468 401.066,88.876 400.214,89.068 C399.818,89.152 399.662,89.284 399.662,89.524 C399.662,89.8 399.89,89.98 400.31,89.98 C401.102,89.98 401.798,90.304 401.798,91.576 C401.798,92.452 401.126,93.16 400.178,93.16 C399.374,93.16 398.942,92.68 398.738,92.068 C398.618,91.696 398.462,91.516 398.15,91.516 C397.898,91.516 397.706,91.732 397.706,92.104 C397.706,92.74 398.426,94.072 400.202,94.072 C401.726,94.072 402.926,93.1 402.926,91.48 L402.926,91.48 Z" id="#fbf9f3" fill="#575756"></path>
                <path d="M432.806,91.408 L433.646,91.408 C433.922,91.408 434.138,91.276 434.138,91.012 C434.138,90.748 433.922,90.616 433.646,90.616 L432.914,90.616 L433.166,88.84 L434.006,88.84 C434.282,88.84 434.498,88.72 434.498,88.444 C434.498,88.18 434.282,88.048 434.006,88.048 L433.274,88.048 L433.514,86.296 C433.55,86.068 433.574,85.924 433.574,85.792 C433.574,85.576 433.454,85.384 433.166,85.384 C432.854,85.384 432.746,85.54 432.71,85.816 L432.398,88.048 L430.97,88.048 L431.21,86.296 C431.246,86.068 431.27,85.924 431.27,85.792 C431.27,85.576 431.15,85.384 430.862,85.384 C430.55,85.384 430.442,85.54 430.406,85.816 L430.094,88.048 L429.254,88.048 C428.978,88.048 428.762,88.18 428.762,88.444 C428.762,88.708 428.978,88.84 429.254,88.84 L429.986,88.84 L429.734,90.616 L428.894,90.616 C428.618,90.616 428.402,90.736 428.402,91.012 C428.402,91.276 428.618,91.408 428.894,91.408 L429.626,91.408 L429.386,93.16 C429.35,93.388 429.326,93.532 429.326,93.664 C429.326,93.88 429.446,94.072 429.734,94.072 C430.046,94.072 430.154,93.916 430.19,93.64 L430.502,91.408 L431.93,91.408 L431.69,93.16 C431.654,93.388 431.63,93.532 431.63,93.664 C431.63,93.88 431.75,94.072 432.038,94.072 C432.35,94.072 432.458,93.916 432.494,93.64 L432.806,91.408 Z M432.038,90.616 L430.61,90.616 L430.862,88.84 L432.29,88.84 L432.038,90.616 Z M436.754,88.528 L437.414,88.528 C437.762,88.528 437.942,88.36 437.942,88.072 C437.942,87.784 437.762,87.616 437.414,87.616 L436.754,87.616 L436.754,86.068 C436.754,85.804 436.862,85.648 437.186,85.648 L437.45,85.648 C437.846,85.648 438.026,85.48 438.026,85.192 C438.026,84.904 437.702,84.736 437.426,84.736 L437.102,84.736 C436.334,84.736 435.698,85.192 435.698,86.116 L435.698,87.616 L435.266,87.616 C434.918,87.616 434.738,87.784 434.738,88.072 C434.738,88.36 434.918,88.528 435.266,88.528 L435.698,88.528 L435.698,93.508 C435.698,93.856 435.902,94.072 436.226,94.072 C436.55,94.072 436.754,93.856 436.754,93.508 L436.754,88.528 Z M442.754,90.808 C442.754,91.888 442.298,93.16 441.002,93.16 C439.706,93.16 439.25,91.888 439.25,90.808 C439.25,89.728 439.706,88.456 441.002,88.456 C442.298,88.456 442.754,89.728 442.754,90.808 L442.754,90.808 Z M442.646,93.508 C442.646,93.856 442.85,94.072 443.174,94.072 C443.498,94.072 443.702,93.856 443.702,93.508 L443.702,85.3 C443.702,84.952 443.498,84.736 443.174,84.736 C442.85,84.736 442.646,84.952 442.646,85.3 L442.646,88.408 L442.622,88.408 C442.346,88.012 441.758,87.544 440.918,87.544 C439.19,87.544 438.194,89.116 438.194,90.808 C438.194,92.5 439.19,94.072 440.918,94.072 C441.758,94.072 442.322,93.772 442.622,93.196 L442.646,93.196 L442.646,93.508 Z M446.534,88.528 L447.194,88.528 C447.542,88.528 447.722,88.36 447.722,88.072 C447.722,87.784 447.542,87.616 447.194,87.616 L446.534,87.616 L446.534,86.068 C446.534,85.804 446.642,85.648 446.966,85.648 L447.23,85.648 C447.626,85.648 447.806,85.48 447.806,85.192 C447.806,84.904 447.482,84.736 447.206,84.736 L446.882,84.736 C446.114,84.736 445.478,85.192 445.478,86.116 L445.478,87.616 L445.046,87.616 C444.698,87.616 444.518,87.784 444.518,88.072 C444.518,88.36 444.698,88.528 445.046,88.528 L445.478,88.528 L445.478,93.508 C445.478,93.856 445.682,94.072 446.006,94.072 C446.33,94.072 446.534,93.856 446.534,93.508 L446.534,88.528 Z M449.246,90.808 C449.246,89.728 449.702,88.456 450.998,88.456 C452.294,88.456 452.75,89.728 452.75,90.808 C452.75,91.888 452.294,93.16 450.998,93.16 C449.702,93.16 449.246,91.888 449.246,90.808 L449.246,90.808 Z M448.298,93.508 C448.298,93.856 448.502,94.072 448.826,94.072 C449.15,94.072 449.354,93.856 449.354,93.508 L449.354,93.196 L449.378,93.196 C449.678,93.772 450.242,94.072 451.082,94.072 C452.81,94.072 453.806,92.5 453.806,90.808 C453.806,89.116 452.81,87.544 451.082,87.544 C450.242,87.544 449.654,88.012 449.378,88.408 L449.354,88.408 L449.354,85.3 C449.354,84.952 449.15,84.736 448.826,84.736 C448.502,84.736 448.298,84.952 448.298,85.3 L448.298,93.508 Z M456.314,88.528 L456.974,88.528 C457.322,88.528 457.502,88.36 457.502,88.072 C457.502,87.784 457.322,87.616 456.974,87.616 L456.314,87.616 L456.314,86.068 C456.314,85.804 456.422,85.648 456.746,85.648 L457.01,85.648 C457.406,85.648 457.586,85.48 457.586,85.192 C457.586,84.904 457.262,84.736 456.986,84.736 L456.662,84.736 C455.894,84.736 455.258,85.192 455.258,86.116 L455.258,87.616 L454.826,87.616 C454.478,87.616 454.298,87.784 454.298,88.072 C454.298,88.36 454.478,88.528 454.826,88.528 L455.258,88.528 L455.258,93.508 C455.258,93.856 455.462,94.072 455.786,94.072 C456.11,94.072 456.314,93.856 456.314,93.508 L456.314,88.528 Z M460.07,86.368 L462.506,86.368 C462.758,86.368 462.962,86.164 462.962,85.912 C462.962,85.66 462.758,85.456 462.506,85.456 L459.542,85.456 C459.29,85.456 459.182,85.516 459.146,85.732 L458.702,88.72 C458.666,88.984 458.618,89.296 458.618,89.428 C458.618,89.596 458.726,89.752 458.978,89.752 C459.278,89.752 459.65,89.428 460.43,89.428 C461.462,89.428 461.906,90.232 461.906,91.24 C461.906,92.236 461.294,93.088 460.274,93.088 C459.062,93.088 458.678,92.2 458.246,92.2 C457.982,92.2 457.862,92.44 457.862,92.656 C457.862,93.172 458.846,94.072 460.262,94.072 C461.99,94.072 463.034,92.872 463.034,91.036 C463.034,89.704 462.182,88.444 460.85,88.444 C460.454,88.444 460.07,88.504 459.722,88.684 L460.07,86.368 Z" id="#fdfbf5" fill="#575756"></path>
                <path d="M15.306,11.088 L18.174,7.272 C18.726,6.552 18.762,6 18.762,5.508 C18.762,4.404 17.874,3.384 16.458,3.384 C14.694,3.384 13.734,4.644 13.734,6.06 C13.734,6.504 13.914,6.708 14.25,6.708 C14.478,6.708 14.718,6.6 14.718,6.228 C14.718,5.16 15.258,4.296 16.278,4.296 C17.046,4.296 17.634,4.848 17.634,5.628 C17.634,6.144 17.37,6.672 17.01,7.14 L14.058,11.088 C13.878,11.34 13.83,11.436 13.83,11.568 C13.83,11.748 13.962,12 14.406,12 L18.546,12 C18.798,12 19.002,11.796 19.002,11.544 C19.002,11.292 18.798,11.088 18.546,11.088 L15.306,11.088 Z M22.29,4.368 L24.726,4.368 C24.978,4.368 25.182,4.164 25.182,3.912 C25.182,3.66 24.978,3.456 24.726,3.456 L21.762,3.456 C21.51,3.456 21.402,3.516 21.366,3.732 L20.922,6.72 C20.886,6.984 20.838,7.296 20.838,7.428 C20.838,7.596 20.946,7.752 21.198,7.752 C21.498,7.752 21.87,7.428 22.65,7.428 C23.682,7.428 24.126,8.232 24.126,9.24 C24.126,10.236 23.514,11.088 22.494,11.088 C21.282,11.088 20.898,10.2 20.466,10.2 C20.202,10.2 20.082,10.44 20.082,10.656 C20.082,11.172 21.066,12.072 22.482,12.072 C24.21,12.072 25.254,10.872 25.254,9.036 C25.254,7.704 24.402,6.444 23.07,6.444 C22.674,6.444 22.29,6.504 21.942,6.684 L22.29,4.368 Z M28.314,6.792 C27.546,6.792 27.282,6.048 27.282,5.412 C27.282,4.776 27.546,4.032 28.314,4.032 C29.082,4.032 29.346,4.776 29.346,5.412 C29.346,6.048 29.082,6.792 28.314,6.792 L28.314,6.792 Z M28.314,7.44 C29.514,7.44 30.138,6.48 30.138,5.412 C30.138,4.344 29.514,3.384 28.314,3.384 C27.114,3.384 26.49,4.344 26.49,5.412 C26.49,6.48 27.114,7.44 28.314,7.44 L28.314,7.44 Z M32.55,12.072 C33.75,12.072 34.374,11.112 34.374,10.044 C34.374,8.976 33.75,8.016 32.55,8.016 C31.35,8.016 30.726,8.976 30.726,10.044 C30.726,11.112 31.35,12.072 32.55,12.072 L32.55,12.072 Z M32.55,11.424 C31.782,11.424 31.518,10.68 31.518,10.044 C31.518,9.408 31.782,8.664 32.55,8.664 C33.318,8.664 33.582,9.408 33.582,10.044 C33.582,10.68 33.318,11.424 32.55,11.424 L32.55,11.424 Z M28.494,11.304 C28.362,11.628 28.326,11.748 28.326,11.844 C28.326,12 28.458,12.168 28.722,12.168 C28.938,12.168 29.058,12.06 29.166,11.808 L32.358,4.152 C32.49,3.816 32.526,3.708 32.526,3.612 C32.526,3.468 32.394,3.288 32.106,3.288 C31.914,3.288 31.794,3.396 31.686,3.648 L28.494,11.304 Z" id="25%" fill="#575756"></path>
                <path d="M76.306,11.088 L79.174,7.272 C79.726,6.552 79.762,6 79.762,5.508 C79.762,4.404 78.874,3.384 77.458,3.384 C75.694,3.384 74.734,4.644 74.734,6.06 C74.734,6.504 74.914,6.708 75.25,6.708 C75.478,6.708 75.718,6.6 75.718,6.228 C75.718,5.16 76.258,4.296 77.278,4.296 C78.046,4.296 78.634,4.848 78.634,5.628 C78.634,6.144 78.37,6.672 78.01,7.14 L75.058,11.088 C74.878,11.34 74.83,11.436 74.83,11.568 C74.83,11.748 74.962,12 75.406,12 L79.546,12 C79.798,12 80.002,11.796 80.002,11.544 C80.002,11.292 79.798,11.088 79.546,11.088 L76.306,11.088 Z M80.95,7.728 C80.95,10.476 82.21,12.072 83.77,12.072 C85.33,12.072 86.59,10.476 86.59,7.728 C86.59,4.98 85.33,3.384 83.77,3.384 C82.21,3.384 80.95,4.98 80.95,7.728 L80.95,7.728 Z M82.078,7.728 C82.078,5.34 82.834,4.296 83.77,4.296 C84.706,4.296 85.462,5.34 85.462,7.728 C85.462,10.116 84.706,11.16 83.77,11.16 C82.834,11.16 82.078,10.116 82.078,7.728 L82.078,7.728 Z M89.314,6.792 C88.546,6.792 88.282,6.048 88.282,5.412 C88.282,4.776 88.546,4.032 89.314,4.032 C90.082,4.032 90.346,4.776 90.346,5.412 C90.346,6.048 90.082,6.792 89.314,6.792 L89.314,6.792 Z M89.314,7.44 C90.514,7.44 91.138,6.48 91.138,5.412 C91.138,4.344 90.514,3.384 89.314,3.384 C88.114,3.384 87.49,4.344 87.49,5.412 C87.49,6.48 88.114,7.44 89.314,7.44 L89.314,7.44 Z M93.55,12.072 C94.75,12.072 95.374,11.112 95.374,10.044 C95.374,8.976 94.75,8.016 93.55,8.016 C92.35,8.016 91.726,8.976 91.726,10.044 C91.726,11.112 92.35,12.072 93.55,12.072 L93.55,12.072 Z M93.55,11.424 C92.782,11.424 92.518,10.68 92.518,10.044 C92.518,9.408 92.782,8.664 93.55,8.664 C94.318,8.664 94.582,9.408 94.582,10.044 C94.582,10.68 94.318,11.424 93.55,11.424 L93.55,11.424 Z M89.494,11.304 C89.362,11.628 89.326,11.748 89.326,11.844 C89.326,12 89.458,12.168 89.722,12.168 C89.938,12.168 90.058,12.06 90.166,11.808 L93.358,4.152 C93.49,3.816 93.526,3.708 93.526,3.612 C93.526,3.468 93.394,3.288 93.106,3.288 C92.914,3.288 92.794,3.396 92.686,3.648 L89.494,11.304 Z" id="20%" fill="#575756"></path>
                <path d="M137.194,11.508 C137.194,11.856 137.398,12.072 137.722,12.072 C138.046,12.072 138.25,11.856 138.25,11.508 L138.25,3.744 C138.25,3.48 138.13,3.456 137.926,3.456 L136.09,3.456 C135.838,3.456 135.634,3.66 135.634,3.912 C135.634,4.164 135.838,4.368 136.09,4.368 L137.194,4.368 L137.194,11.508 Z M142.186,4.368 L144.622,4.368 C144.874,4.368 145.078,4.164 145.078,3.912 C145.078,3.66 144.874,3.456 144.622,3.456 L141.658,3.456 C141.406,3.456 141.298,3.516 141.262,3.732 L140.818,6.72 C140.782,6.984 140.734,7.296 140.734,7.428 C140.734,7.596 140.842,7.752 141.094,7.752 C141.394,7.752 141.766,7.428 142.546,7.428 C143.578,7.428 144.022,8.232 144.022,9.24 C144.022,10.236 143.41,11.088 142.39,11.088 C141.178,11.088 140.794,10.2 140.362,10.2 C140.098,10.2 139.978,10.44 139.978,10.656 C139.978,11.172 140.962,12.072 142.378,12.072 C144.106,12.072 145.15,10.872 145.15,9.036 C145.15,7.704 144.298,6.444 142.966,6.444 C142.57,6.444 142.186,6.504 141.838,6.684 L142.186,4.368 Z M148.21,6.792 C147.442,6.792 147.178,6.048 147.178,5.412 C147.178,4.776 147.442,4.032 148.21,4.032 C148.978,4.032 149.242,4.776 149.242,5.412 C149.242,6.048 148.978,6.792 148.21,6.792 L148.21,6.792 Z M148.21,7.44 C149.41,7.44 150.034,6.48 150.034,5.412 C150.034,4.344 149.41,3.384 148.21,3.384 C147.01,3.384 146.386,4.344 146.386,5.412 C146.386,6.48 147.01,7.44 148.21,7.44 L148.21,7.44 Z M152.446,12.072 C153.646,12.072 154.27,11.112 154.27,10.044 C154.27,8.976 153.646,8.016 152.446,8.016 C151.246,8.016 150.622,8.976 150.622,10.044 C150.622,11.112 151.246,12.072 152.446,12.072 L152.446,12.072 Z M152.446,11.424 C151.678,11.424 151.414,10.68 151.414,10.044 C151.414,9.408 151.678,8.664 152.446,8.664 C153.214,8.664 153.478,9.408 153.478,10.044 C153.478,10.68 153.214,11.424 152.446,11.424 L152.446,11.424 Z M148.39,11.304 C148.258,11.628 148.222,11.748 148.222,11.844 C148.222,12 148.354,12.168 148.618,12.168 C148.834,12.168 148.954,12.06 149.062,11.808 L152.254,4.152 C152.386,3.816 152.422,3.708 152.422,3.612 C152.422,3.468 152.29,3.288 152.002,3.288 C151.81,3.288 151.69,3.396 151.582,3.648 L148.39,11.304 Z" id="15%" fill="#575756"></path>
                <path d="M197.194,11.508 C197.194,11.856 197.398,12.072 197.722,12.072 C198.046,12.072 198.25,11.856 198.25,11.508 L198.25,3.744 C198.25,3.48 198.13,3.456 197.926,3.456 L196.09,3.456 C195.838,3.456 195.634,3.66 195.634,3.912 C195.634,4.164 195.838,4.368 196.09,4.368 L197.194,4.368 L197.194,11.508 Z M199.846,7.728 C199.846,10.476 201.106,12.072 202.666,12.072 C204.226,12.072 205.486,10.476 205.486,7.728 C205.486,4.98 204.226,3.384 202.666,3.384 C201.106,3.384 199.846,4.98 199.846,7.728 L199.846,7.728 Z M200.974,7.728 C200.974,5.34 201.73,4.296 202.666,4.296 C203.602,4.296 204.358,5.34 204.358,7.728 C204.358,10.116 203.602,11.16 202.666,11.16 C201.73,11.16 200.974,10.116 200.974,7.728 L200.974,7.728 Z M208.21,6.792 C207.442,6.792 207.178,6.048 207.178,5.412 C207.178,4.776 207.442,4.032 208.21,4.032 C208.978,4.032 209.242,4.776 209.242,5.412 C209.242,6.048 208.978,6.792 208.21,6.792 L208.21,6.792 Z M208.21,7.44 C209.41,7.44 210.034,6.48 210.034,5.412 C210.034,4.344 209.41,3.384 208.21,3.384 C207.01,3.384 206.386,4.344 206.386,5.412 C206.386,6.48 207.01,7.44 208.21,7.44 L208.21,7.44 Z M212.446,12.072 C213.646,12.072 214.27,11.112 214.27,10.044 C214.27,8.976 213.646,8.016 212.446,8.016 C211.246,8.016 210.622,8.976 210.622,10.044 C210.622,11.112 211.246,12.072 212.446,12.072 L212.446,12.072 Z M212.446,11.424 C211.678,11.424 211.414,10.68 211.414,10.044 C211.414,9.408 211.678,8.664 212.446,8.664 C213.214,8.664 213.478,9.408 213.478,10.044 C213.478,10.68 213.214,11.424 212.446,11.424 L212.446,11.424 Z M208.39,11.304 C208.258,11.628 208.222,11.748 208.222,11.844 C208.222,12 208.354,12.168 208.618,12.168 C208.834,12.168 208.954,12.06 209.062,11.808 L212.254,4.152 C212.386,3.816 212.422,3.708 212.422,3.612 C212.422,3.468 212.29,3.288 212.002,3.288 C211.81,3.288 211.69,3.396 211.582,3.648 L208.39,11.304 Z" id="10%" fill="#575756"></path>
                <path d="M257.836,3.668 L261.22,3.668 C261.544,3.668 262.48,3.56 262.48,2.318 C262.48,1.67 261.994,1.184 261.166,1.184 L256.828,1.184 C255.964,1.184 255.622,1.49 255.424,2.894 L254.974,6.692 C254.956,6.89 254.92,7.07 254.92,7.304 C254.92,7.61 255.28,8.15 255.982,8.15 C256.9,8.15 257.062,7.556 258.106,7.556 C259.222,7.556 259.834,8.294 259.834,9.374 C259.834,10.508 259.186,11.732 257.926,11.732 C256.72,11.732 255.856,10.58 255.136,10.58 C254.47,10.58 253.912,11.138 253.912,11.804 C253.912,13.388 256.594,14.216 257.872,14.216 C260.986,14.216 262.642,12.236 262.642,9.23 C262.642,7.124 261.094,5.396 258.916,5.396 C258.466,5.396 257.998,5.486 257.566,5.576 L257.836,3.668 Z M266.998,4.946 C266.404,4.946 266.062,4.46 266.062,3.884 C266.062,3.308 266.404,2.804 266.998,2.804 C267.592,2.804 267.934,3.308 267.934,3.884 C267.934,4.46 267.592,4.946 266.998,4.946 L266.998,4.946 Z M266.998,6.782 C268.6,6.782 269.77,5.45 269.77,3.884 C269.77,2.318 268.6,0.968 266.998,0.968 C265.396,0.968 264.226,2.318 264.226,3.884 C264.226,5.45 265.396,6.782 266.998,6.782 L266.998,6.782 Z M273.334,14.216 C274.936,14.216 276.106,12.884 276.106,11.318 C276.106,9.752 274.936,8.402 273.334,8.402 C271.732,8.402 270.562,9.752 270.562,11.318 C270.562,12.884 271.732,14.216 273.334,14.216 L273.334,14.216 Z M273.334,12.38 C272.74,12.38 272.398,11.894 272.398,11.318 C272.398,10.742 272.74,10.238 273.334,10.238 C273.928,10.238 274.27,10.742 274.27,11.318 C274.27,11.894 273.928,12.38 273.334,12.38 L273.334,12.38 Z M266.35,12.668 C266.278,12.812 266.17,13.064 266.17,13.334 C266.17,13.874 266.728,14.324 267.196,14.324 C267.628,14.324 267.736,14.108 268.006,13.73 L274.054,2.408 C274.198,2.138 274.198,2.012 274.198,1.868 C274.198,1.31 273.694,0.86 273.136,0.86 C272.722,0.86 272.542,0.986 272.308,1.436 L266.35,12.668 Z" id="5%" fill="#575756"></path>
                <path d="M322.346,9.804 L322.346,11.508 C322.346,11.856 322.55,12.072 322.874,12.072 C323.198,12.072 323.402,11.856 323.402,11.508 L323.402,9.804 L323.942,9.804 C324.194,9.804 324.398,9.6 324.398,9.348 C324.398,9.096 324.194,8.892 323.942,8.892 L323.402,8.892 L323.402,4.26 C323.402,3.636 323.066,3.384 322.598,3.384 C322.226,3.384 321.986,3.504 321.77,3.864 L318.746,8.82 C318.59,9.072 318.482,9.276 318.482,9.432 C318.482,9.648 318.578,9.804 318.938,9.804 L322.346,9.804 Z M319.802,8.892 L322.322,4.512 L322.346,4.512 L322.346,8.892 L319.802,8.892 Z M327.098,6.792 C326.33,6.792 326.066,6.048 326.066,5.412 C326.066,4.776 326.33,4.032 327.098,4.032 C327.866,4.032 328.13,4.776 328.13,5.412 C328.13,6.048 327.866,6.792 327.098,6.792 L327.098,6.792 Z M327.098,7.44 C328.298,7.44 328.922,6.48 328.922,5.412 C328.922,4.344 328.298,3.384 327.098,3.384 C325.898,3.384 325.274,4.344 325.274,5.412 C325.274,6.48 325.898,7.44 327.098,7.44 L327.098,7.44 Z M331.334,12.072 C332.534,12.072 333.158,11.112 333.158,10.044 C333.158,8.976 332.534,8.016 331.334,8.016 C330.134,8.016 329.51,8.976 329.51,10.044 C329.51,11.112 330.134,12.072 331.334,12.072 L331.334,12.072 Z M331.334,11.424 C330.566,11.424 330.302,10.68 330.302,10.044 C330.302,9.408 330.566,8.664 331.334,8.664 C332.102,8.664 332.366,9.408 332.366,10.044 C332.366,10.68 332.102,11.424 331.334,11.424 L331.334,11.424 Z M327.278,11.304 C327.146,11.628 327.11,11.748 327.11,11.844 C327.11,12 327.242,12.168 327.506,12.168 C327.722,12.168 327.842,12.06 327.95,11.808 L331.142,4.152 C331.274,3.816 331.31,3.708 331.31,3.612 C331.31,3.468 331.178,3.288 330.89,3.288 C330.698,3.288 330.578,3.396 330.47,3.648 L327.278,11.304 Z" id="4%" fill="#575756"></path>
                <path d="M384.05,9.48 C384.05,8.508 383.546,7.692 382.586,7.404 C383.258,6.996 383.594,6.3 383.594,5.592 C383.594,4.392 382.742,3.384 381.374,3.384 C379.958,3.384 379.13,4.404 379.13,5.544 C379.13,5.82 379.31,6.036 379.61,6.036 C379.79,6.036 380.078,6.024 380.114,5.544 C380.174,4.896 380.486,4.296 381.326,4.296 C382.058,4.296 382.538,4.872 382.538,5.688 C382.538,6.468 382.19,6.876 381.338,7.068 C380.942,7.152 380.786,7.284 380.786,7.524 C380.786,7.8 381.014,7.98 381.434,7.98 C382.226,7.98 382.922,8.304 382.922,9.576 C382.922,10.452 382.25,11.16 381.302,11.16 C380.498,11.16 380.066,10.68 379.862,10.068 C379.742,9.696 379.586,9.516 379.274,9.516 C379.022,9.516 378.83,9.732 378.83,10.104 C378.83,10.74 379.55,12.072 381.326,12.072 C382.85,12.072 384.05,11.1 384.05,9.48 L384.05,9.48 Z M387.098,6.792 C386.33,6.792 386.066,6.048 386.066,5.412 C386.066,4.776 386.33,4.032 387.098,4.032 C387.866,4.032 388.13,4.776 388.13,5.412 C388.13,6.048 387.866,6.792 387.098,6.792 L387.098,6.792 Z M387.098,7.44 C388.298,7.44 388.922,6.48 388.922,5.412 C388.922,4.344 388.298,3.384 387.098,3.384 C385.898,3.384 385.274,4.344 385.274,5.412 C385.274,6.48 385.898,7.44 387.098,7.44 L387.098,7.44 Z M391.334,12.072 C392.534,12.072 393.158,11.112 393.158,10.044 C393.158,8.976 392.534,8.016 391.334,8.016 C390.134,8.016 389.51,8.976 389.51,10.044 C389.51,11.112 390.134,12.072 391.334,12.072 L391.334,12.072 Z M391.334,11.424 C390.566,11.424 390.302,10.68 390.302,10.044 C390.302,9.408 390.566,8.664 391.334,8.664 C392.102,8.664 392.366,9.408 392.366,10.044 C392.366,10.68 392.102,11.424 391.334,11.424 L391.334,11.424 Z M387.278,11.304 C387.146,11.628 387.11,11.748 387.11,11.844 C387.11,12 387.242,12.168 387.506,12.168 C387.722,12.168 387.842,12.06 387.95,11.808 L391.142,4.152 C391.274,3.816 391.31,3.708 391.31,3.612 C391.31,3.468 391.178,3.288 390.89,3.288 C390.698,3.288 390.578,3.396 390.47,3.648 L387.278,11.304 Z" id="3%" fill="#575756"></path>
                <path d="M440.522,11.088 L443.39,7.272 C443.942,6.552 443.978,6 443.978,5.508 C443.978,4.404 443.09,3.384 441.674,3.384 C439.91,3.384 438.95,4.644 438.95,6.06 C438.95,6.504 439.13,6.708 439.466,6.708 C439.694,6.708 439.934,6.6 439.934,6.228 C439.934,5.16 440.474,4.296 441.494,4.296 C442.262,4.296 442.85,4.848 442.85,5.628 C442.85,6.144 442.586,6.672 442.226,7.14 L439.274,11.088 C439.094,11.34 439.046,11.436 439.046,11.568 C439.046,11.748 439.178,12 439.622,12 L443.762,12 C444.014,12 444.218,11.796 444.218,11.544 C444.218,11.292 444.014,11.088 443.762,11.088 L440.522,11.088 Z M447.098,6.792 C446.33,6.792 446.066,6.048 446.066,5.412 C446.066,4.776 446.33,4.032 447.098,4.032 C447.866,4.032 448.13,4.776 448.13,5.412 C448.13,6.048 447.866,6.792 447.098,6.792 L447.098,6.792 Z M447.098,7.44 C448.298,7.44 448.922,6.48 448.922,5.412 C448.922,4.344 448.298,3.384 447.098,3.384 C445.898,3.384 445.274,4.344 445.274,5.412 C445.274,6.48 445.898,7.44 447.098,7.44 L447.098,7.44 Z M451.334,12.072 C452.534,12.072 453.158,11.112 453.158,10.044 C453.158,8.976 452.534,8.016 451.334,8.016 C450.134,8.016 449.51,8.976 449.51,10.044 C449.51,11.112 450.134,12.072 451.334,12.072 L451.334,12.072 Z M451.334,11.424 C450.566,11.424 450.302,10.68 450.302,10.044 C450.302,9.408 450.566,8.664 451.334,8.664 C452.102,8.664 452.366,9.408 452.366,10.044 C452.366,10.68 452.102,11.424 451.334,11.424 L451.334,11.424 Z M447.278,11.304 C447.146,11.628 447.11,11.748 447.11,11.844 C447.11,12 447.242,12.168 447.506,12.168 C447.722,12.168 447.842,12.06 447.95,11.808 L451.142,4.152 C451.274,3.816 451.31,3.708 451.31,3.612 C451.31,3.468 451.178,3.288 450.89,3.288 C450.698,3.288 450.578,3.396 450.47,3.648 L447.278,11.304 Z" id="2%" fill="#575756"></path>
            </g>
        </g>
    </g>
</svg>