<?xml version="1.0" encoding="utf-8"?>
<!-- Generator: Adobe Illustrator 20.0.0, SVG Export Plug-In . SVG Version: 6.00 Build 0)  -->
<svg version="1.1" id="Layer_1" xmlns="http://www.w3.org/2000/svg" xmlns:xlink="http://www.w3.org/1999/xlink" x="0px" y="0px"
	 viewBox="0 0 200 200" style="enable-background:new 0 0 200 200;" xml:space="preserve">
<style type="text/css">
	.st0{fill:#F3F1F0;}
	.st1{fill:#B82823;}
	.st2{fill:#E3231D;}
	.st3{fill:#E7DCDC;}
	.st4{fill:#86AC1B;}
	.st5{fill:#A4C054;}
	.st6{fill:#FFFFFF;}
</style>
<title>illustration-funeral-plan</title>
<desc>Created with Sketch.</desc>
<g id="Page-1">
	<g id="Graphical-Illustrations" transform="translate(-793.000000, -1405.000000)">
		<g id="illustration-funeral-plan" transform="translate(793.000000, 1405.000000)">
			<g id="Straightforward">
				<g id="Template">
					<path id="Stroke-1" class="st0" d="M100,200C44.8,200,0,155.2,0,100S44.8,0,100,0s100,44.8,100,100S155.2,200,100,200z"/>
				</g>
				<g id="Fill-6960-_x2B_-Fill-6961" transform="translate(33.000000, 42.000000)">
					<path id="Fill-6960" class="st1" d="M56.3,14.1c-14-24.5-56-15.7-56,28c0.9,39.8,56,70,56,70s55.1-30.2,56-70
						C112.3-1.7,70.3-10.4,56.3,14.1"/>
					<path id="Fill-6961" class="st2" d="M56.6,13.7c-0.1,0.1-0.2,0.3-0.3,0.4c-14-24.5-56-15.7-56,28c0.9,39.8,56,70,56,70
						s0.1-0.1,0.3-0.2V13.7z"/>
				</g>
				<g id="Group" transform="translate(96.000000, 92.000000)">
					<path id="Fill-1452" class="st3" d="M34,0C15.3,0,0.2,15.2,0.2,34S15.3,68,34,68s33.8-15.2,33.8-34S52.6,0,34,0 M34,4.2
						c16.3,0,29.6,13.3,29.6,29.7S50.3,63.7,34,63.7S4.4,50.4,4.4,34S17.7,4.2,34,4.2"/>
					<path id="Fill-1453" class="st4" d="M34,63.7C17.7,63.7,4.4,50.4,4.4,34S17.7,4.2,34,4.2S63.5,17.6,63.5,34S50.3,63.7,34,63.7"
						/>
					<path id="Fill-1454" class="st5" d="M34,4.2C17.7,4.2,4.4,17.6,4.4,34c0,8.4,3.5,16.1,9.1,21.5l41.7-42
						C49.9,7.8,42.4,4.2,34,4.2"/>
					<path id="Fill-1455" class="st6" d="M4.4,34C4.4,17.6,17.7,4.2,34,4.2c8.4,0,15.9,3.5,21.3,9.2l3-3C52.1,4,43.5,0,34,0
						C15.3,0,0.2,15.2,0.2,34c0,9.6,4,18.3,10.3,24.5l3-3C7.9,50,4.4,42.4,4.4,34"/>
				</g>
				<g id="Fill-2049-_x2B_-Fill-2050" transform="translate(111.000000, 110.000000)">
					<path id="Fill-2050" class="st6" d="M13,33.9c-1.1,0-2.1-0.5-2.8-1.3l-9-10.3c-1.3-1.5-1.2-3.9,0.4-5.2s3.9-1.1,5.3,0.4
						l5.9,6.7l18.5-22c2.9-4,5.9-1.8,3,2.2L16,32.3c-0.7,0.9-1.7,1.5-2.9,1.5C13.1,33.9,13,33.9,13,33.9"/>
				</g>
			</g>
		</g>
	</g>
</g>
</svg>
