<?xml version="1.0" encoding="utf-8"?>
<!-- Generator: Adobe Illustrator 20.0.0, SVG Export Plug-In . SVG Version: 6.00 Build 0)  -->
<svg version="1.1" id="Layer_1" xmlns="http://www.w3.org/2000/svg" xmlns:xlink="http://www.w3.org/1999/xlink" x="0px" y="0px"
	 viewBox="0 0 688 224" style="enable-background:new 0 0 688 224;" xml:space="preserve">
<style type="text/css">
	.st0{filter:url(#Adobe_OpacityMaskFilter);}
	.st1{fill:#FFFFFF;}
	.st2{mask:url(#mask-2);}
	.st3{fill:#4A4A4A;}
	.st4{fill:#E3231D;}
	.st5{fill:#009FE3;}
	.st6{fill:#85AB1B;}
	.st7{enable-background:new    ;}
	.st8{font-family:'VAGRoundedStd-Bold';}
	.st9{font-size:24px;}
	.st10{fill:#FFFFFF;stroke:#DAD7D4;stroke-width:6;}
	.st11{fill:#E7E4E2;}
	.st12{fill:#86786F;}
</style>
<title>20-forms-slider</title>
<desc>Created with Sketch.</desc>
<g id="Templates">
	<g id="_x32_0-forms" transform="translate(-575.000000, -4454.000000)">
		<defs>
			<filter id="Adobe_OpacityMaskFilter" filterUnits="userSpaceOnUse" x="575.1" y="4454" width="687.8" height="223.9">
				<feColorMatrix  type="matrix" values="1 0 0 0 0  0 1 0 0 0  0 0 1 0 0  0 0 0 1 0"/>
			</filter>
		</defs>
		<mask maskUnits="userSpaceOnUse" x="575.1" y="4454" width="687.8" height="223.9" id="mask-2">
			<g class="st0">
				<path id="path-1" class="st1" d="M644.5,4515h549c9.1,0,16.5,7.4,16.5,16.5l0,0c0,9.1-7.4,16.5-16.5,16.5h-549
					c-9.1,0-16.5-7.4-16.5-16.5l0,0C628,4522.4,635.4,4515,644.5,4515z"/>
			</g>
		</mask>
		<g id="_x32_0-forms-slider" transform="translate(575.000000, 4454.000000)" class="st2">
			<path id="Your-cash-sun_x2C_-payab" class="st3" d="M88.4,188.1c0,1,0.6,2,2.1,2s2.1-1,2.1-2v-7.5l5.3-7.4
				c0.3-0.4,0.4-0.8,0.4-1.3c0-1.1-0.8-2-2-2c-0.7,0-1.4,0.3-1.7,0.8l-4,5.9l-4-5.9c-0.4-0.5-1-0.8-1.7-0.8c-1.2,0-2,0.9-2,2
				c0,0.4,0.1,0.9,0.4,1.3l5.3,7.4V188.1z M105.8,174.8c-4.3,0-7.2,3.7-7.2,7.8c0,4.2,2.9,7.8,7.2,7.8c4.3,0,7.2-3.6,7.2-7.8
				C113,178.5,110,174.8,105.8,174.8L105.8,174.8z M105.8,178.5c2.2,0,3.2,2.2,3.2,4.1c0,1.9-1,4.1-3.2,4.1s-3.2-2.1-3.2-4.1
				C102.6,180.6,103.6,178.5,105.8,178.5L105.8,178.5z M114.7,184.5c0,3.6,2.4,5.9,6.6,5.9c4.3,0,6.6-2.3,6.6-5.9v-7.3
				c0-1.3-0.8-2.2-2-2.2c-1.2,0-2,0.9-2,2.2v7.2c0,1.7-1.3,2.6-2.6,2.6s-2.6-0.9-2.6-2.6v-7.2c0-1.3-0.8-2.2-2-2.2
				c-1.2,0-2,0.9-2,2.2V184.5z M130.2,187.9c0,1.3,0.8,2.2,2,2.2s2-0.9,2-2.2v-6.2c0-1.6,1.2-2.1,2.4-2.7c1.2-0.6,2.4-0.6,2.4-2
				c0-1.5-1-2.2-2-2.2c-1.3,0-2.1,0.6-2.8,1.7h-0.1c0-1.3-0.9-1.7-2-1.7c-1,0-2.1,0.7-2.1,2V187.9z M158.7,177.3
				c0-2-3.3-2.5-4.9-2.5c-4.3,0-7.2,3.7-7.2,7.8c0,4.2,2.9,7.8,7.2,7.8c1.5,0,4.9-0.7,4.9-2.8c0-1-0.8-1.8-1.7-1.8
				c-0.5,0-2,0.8-3,0.8c-2.2,0-3.4-2.1-3.4-4.1c0-2.1,1.1-4.1,3.4-4.1c1.3,0,2.2,0.8,3.2,0.8C158.1,179.2,158.7,178.2,158.7,177.3
				L158.7,177.3z M173.9,177.6c0-1,0-2.6-1.9-2.6c-1,0-1.8,0.7-1.9,1.7c-0.9-1.3-2.4-1.8-3.8-1.8c-3.7,0-6.7,3.4-6.7,7.8
				c0,4.5,2.9,7.8,6.7,7.8c1.5,0,2.8-0.6,3.8-1.9c0.3,1.1,0.8,1.7,1.9,1.7c1.9,0,1.9-1.6,1.9-2.6V177.6z M163.5,182.6
				c0-1.9,1-4.1,3.2-4.1c2.1,0,3.1,2.2,3.1,4.1c0,1.9-1,4.1-3.1,4.1C164.5,186.6,163.5,184.5,163.5,182.6L163.5,182.6z M186.3,177.7
				c0-2-3.1-2.9-5-2.9c-3.2,0-5.5,1.9-5.5,4.7c0,4.6,7,4.3,7,6.2c0,0.8-0.4,1.1-1.6,1.1c-1.9,0-2.6-1.4-4.2-1.4
				c-1.1,0-1.7,1.2-1.7,1.8c0,1.8,3.4,3.1,5.6,3.1c3.5,0,5.7-2,5.7-4.7c0-4.6-7-4.3-7-6.2c0-0.8,0.6-1.1,1.4-1.1
				c1.3,0,2.9,1.2,3.6,1.2C185.6,179.5,186.3,178.6,186.3,177.7L186.3,177.7z M188.1,187.9c0,1.3,0.8,2.2,2,2.2c1.2,0,2-0.9,2-2.2
				v-7c0-1.6,0.9-2.8,2.6-2.8c1.5,0,2.6,0.9,2.6,2.8v7c0,1.3,0.8,2.2,2,2.2c1.2,0,2-0.9,2-2.2v-7.7c0-3.4-2.4-5.4-5.5-5.4
				c-1.3,0-2.8,0.4-3.7,1.4h-0.1v-5.5c0-1.3-0.8-2.2-2-2.2c-1.2,0-2,0.9-2,2.2V187.9z M221.3,177.7c0-2-3.1-2.9-5-2.9
				c-3.2,0-5.5,1.9-5.5,4.7c0,4.6,7,4.3,7,6.2c0,0.8-0.4,1.1-1.6,1.1c-1.9,0-2.6-1.4-4.2-1.4c-1.1,0-1.7,1.2-1.7,1.8
				c0,1.8,3.4,3.1,5.6,3.1c3.5,0,5.7-2,5.7-4.7c0-4.6-7-4.3-7-6.2c0-0.8,0.6-1.1,1.4-1.1c1.3,0,2.9,1.2,3.6,1.2
				C220.6,179.5,221.3,178.6,221.3,177.7L221.3,177.7z M223.1,184.5c0,3.6,2.4,5.9,6.6,5.9s6.6-2.3,6.6-5.9v-7.3
				c0-1.3-0.8-2.2-2-2.2c-1.2,0-2,0.9-2,2.2v7.2c0,1.7-1.3,2.6-2.6,2.6s-2.6-0.9-2.6-2.6v-7.2c0-1.3-0.8-2.2-2-2.2
				c-1.2,0-2,0.9-2,2.2V184.5z M238.7,187.9c0,1.3,0.8,2.2,2,2.2s2-0.9,2-2.2v-7c0-1.6,0.9-2.8,2.6-2.8c1.5,0,2.6,0.9,2.6,2.8v7
				c0,1.3,0.8,2.2,2,2.2c1.2,0,2-0.9,2-2.2v-7.7c0-3.4-2.4-5.4-5.5-5.4c-1.9,0-3.1,0.6-3.9,1.7c-0.1-0.9-0.8-1.5-1.8-1.5
				c-1.2,0-2,0.9-2,2.2V187.9z M258.6,188.6c0.2-0.4,0.4-0.7,0.4-1.1c0-1-0.9-1.8-1.9-1.8c-0.4,0-1.3,0.3-1.6,1l-2.3,4.2
				c-0.2,0.4-0.3,0.7-0.3,1.1c0,1,0.9,1.8,1.9,1.8c0.4,0,1.3-0.3,1.6-1L258.6,188.6z M269.2,193.9c0,1.3,0.8,2.2,2,2.2
				c1.2,0,2-0.9,2-2.2v-4.9c1.1,0.9,2.4,1.4,3.7,1.4c4.1,0,6.6-3.8,6.6-7.6c0-3.9-2.2-8-6.5-8c-1.5,0-3.1,0.6-3.8,1.8
				c-0.3-1.1-0.9-1.7-2-1.7c-1.2,0-2,0.9-2,2.2V193.9z M273.3,182.4c0-2,1-4,3.2-4c2.1,0,3.1,2.2,3.1,4.1c0,1.9-1,4.1-3.1,4.1
				C274.2,186.6,273.3,184.4,273.3,182.4L273.3,182.4z M299.1,177.6c0-1,0-2.6-1.9-2.6c-1,0-1.8,0.7-1.9,1.7
				c-0.9-1.3-2.4-1.8-3.8-1.8c-3.7,0-6.7,3.4-6.7,7.8c0,4.5,2.9,7.8,6.7,7.8c1.5,0,2.8-0.6,3.8-1.9c0.3,1.1,0.8,1.7,1.9,1.7
				c1.9,0,1.9-1.6,1.9-2.6V177.6z M288.7,182.6c0-1.9,1-4.1,3.2-4.1c2.1,0,3.1,2.2,3.1,4.1c0,1.9-1,4.1-3.1,4.1
				C289.8,186.6,288.7,184.5,288.7,182.6L288.7,182.6z M304.8,188.8l-1.8,4.4c-0.1,0.4-0.3,0.8-0.3,1.2c0,0.9,0.7,1.7,2.1,1.7
				c1,0,1.6-0.8,1.9-1.6l6.7-16.8c0.1-0.3,0.2-0.6,0.2-1c0-1-1.1-1.7-1.9-1.7c-1,0-1.7,0.5-2,1.4l-3,7.6l-2.8-7.6
				c-0.3-0.9-1-1.4-2-1.4c-0.8,0-1.9,0.7-1.9,1.7c0,0.4,0.1,0.7,0.2,1L304.8,188.8z M328.6,177.6c0-1,0-2.6-1.9-2.6
				c-1,0-1.8,0.7-1.9,1.7c-0.9-1.3-2.4-1.8-3.8-1.8c-3.7,0-6.7,3.4-6.7,7.8c0,4.5,2.9,7.8,6.7,7.8c1.5,0,2.8-0.6,3.8-1.9
				c0.3,1.1,0.8,1.7,1.9,1.7c1.9,0,1.9-1.6,1.9-2.6V177.6z M318.3,182.6c0-1.9,1-4.1,3.2-4.1c2.1,0,3.1,2.2,3.1,4.1
				c0,1.9-1,4.1-3.1,4.1C319.3,186.6,318.3,184.5,318.3,182.6L318.3,182.6z M330.9,187.9c0,1.3,0.8,2.2,2,2.2c1.1,0,1.8-0.6,2-1.7
				c0.8,1.2,2.3,1.8,3.7,1.8c4.1,0,6.6-3.8,6.6-7.6c0-3.9-2.2-8-6.5-8c-1.4,0-2.8,0.5-3.8,1.4v-5.5c0-1.3-0.8-2.2-2-2.2
				s-2,0.9-2,2.2V187.9z M334.9,182.4c0-2,1-4,3.2-4c2.1,0,3.1,2.2,3.1,4.1c0,1.9-1,4.1-3.1,4.1
				C335.9,186.6,334.9,184.4,334.9,182.4L334.9,182.4z M346.9,187.9c0,1.3,0.8,2.2,2,2.2s2-0.9,2-2.2v-17.2c0-1.3-0.8-2.2-2-2.2
				s-2,0.9-2,2.2V187.9z M365,183.9c1.2,0,1.8-0.6,1.8-1.8c0-3.4-2.9-7.3-7.3-7.3c-4.3,0-7.2,3.7-7.2,7.8c0,4.5,3,7.8,7.6,7.8
				c3,0,6.6-1.7,6.6-3.4c0-0.9-0.8-1.7-1.7-1.7c-1.1,0-2.5,1.6-4.6,1.6c-1.9,0-3.5-0.9-3.8-2.9H365z M356.4,181.2
				c0.2-1.7,1.4-3.1,3.2-3.1c1.9,0,3,1.3,3.2,3.1H356.4z M382.4,174.8c-4.3,0-7.2,3.7-7.2,7.8c0,4.2,2.9,7.8,7.2,7.8
				s7.2-3.6,7.2-7.8C389.6,178.5,386.6,174.8,382.4,174.8L382.4,174.8z M382.4,178.5c2.2,0,3.2,2.2,3.2,4.1c0,1.9-1,4.1-3.2,4.1
				c-2.2,0-3.2-2.1-3.2-4.1C379.2,180.6,380.2,178.5,382.4,178.5L382.4,178.5z M391.3,187.9c0,1.3,0.8,2.2,2,2.2s2-0.9,2-2.2v-7
				c0-1.6,0.9-2.8,2.6-2.8c1.5,0,2.6,0.9,2.6,2.8v7c0,1.3,0.8,2.2,2,2.2s2-0.9,2-2.2v-7.7c0-3.4-2.4-5.4-5.5-5.4
				c-1.9,0-3.1,0.6-3.9,1.7c-0.1-0.9-0.8-1.5-1.8-1.5c-1.2,0-2,0.9-2,2.2V187.9z M428.2,170.7c0-1.3-0.8-2.2-2-2.2
				c-1.2,0-2,0.9-2,2.2v5.5c-1.1-0.9-2.4-1.4-3.8-1.4c-4.3,0-6.5,4.1-6.5,8c0,3.8,2.6,7.6,6.6,7.6c1.4,0,2.9-0.6,3.7-1.8
				c0.3,1.1,0.9,1.7,2,1.7c1.2,0,2-0.9,2-2.2V170.7z M424.1,182.4c0,2-1,4.2-3.2,4.2c-2.1,0-3.1-2.2-3.1-4.1c0-1.9,1-4.1,3.1-4.1
				C423.1,178.5,424.1,180.5,424.1,182.4L424.1,182.4z M442.3,183.9c1.2,0,1.8-0.6,1.8-1.8c0-3.4-2.9-7.3-7.3-7.3
				c-4.3,0-7.2,3.7-7.2,7.8c0,4.5,3,7.8,7.6,7.8c3,0,6.6-1.7,6.6-3.4c0-0.9-0.8-1.7-1.7-1.7c-1.1,0-2.5,1.6-4.6,1.6
				c-1.9,0-3.5-0.9-3.8-2.9H442.3z M433.6,181.2c0.2-1.7,1.4-3.1,3.2-3.1c1.9,0,3,1.3,3.2,3.1H433.6z M459.3,177.6
				c0-1,0-2.6-1.9-2.6c-1,0-1.8,0.7-1.9,1.7c-0.9-1.3-2.4-1.8-3.8-1.8c-3.7,0-6.7,3.4-6.7,7.8c0,4.5,2.9,7.8,6.7,7.8
				c1.5,0,2.8-0.6,3.8-1.9c0.3,1.1,0.8,1.7,1.9,1.7c1.9,0,1.9-1.6,1.9-2.6V177.6z M448.9,182.6c0-1.9,1-4.1,3.2-4.1
				c2.1,0,3.1,2.2,3.1,4.1c0,1.9-1,4.1-3.1,4.1C449.9,186.6,448.9,184.5,448.9,182.6L448.9,182.6z M462.5,187.9c0,1.3,0.8,2.2,2,2.2
				s2-0.9,2-2.2v-9.3h1.1c1,0,1.9-0.5,1.9-1.8c0-1.3-0.9-1.8-1.9-1.8h-1.1v-2.4c0-1.3-0.8-2.2-2-2.2s-2,0.9-2,2.2v2.4h-0.9
				c-1,0-1.8,0.8-1.8,1.8c0,1.1,0.7,1.8,1.8,1.8h0.9V187.9z M469.8,187.9c0,1.3,0.8,2.2,2,2.2c1.2,0,2-0.9,2-2.2v-7
				c0-1.6,0.9-2.8,2.6-2.8c1.5,0,2.6,0.9,2.6,2.8v7c0,1.3,0.8,2.2,2,2.2s2-0.9,2-2.2v-7.7c0-3.4-2.4-5.4-5.5-5.4
				c-1.3,0-2.8,0.4-3.7,1.4h-0.1v-5.5c0-1.3-0.8-2.2-2-2.2c-1.2,0-2,0.9-2,2.2V187.9z"/>
			<path id="Payable-after-you_x2019_ve" class="st3" d="M158.3,215.2h2.4c2.3,0,4.1-1.8,4.1-4c0-2.2-1.6-4-4.2-4h-3.1
				c-0.6,0-0.8,0.4-0.8,0.9v11.2c0,0.5,0.3,0.8,0.8,0.8c0.5,0,0.8-0.3,0.8-0.8V215.2z M158.3,208.6h2.3c2,0,2.7,1.4,2.7,2.7
				c0,1.5-1.1,2.6-2.6,2.6h-2.3V208.6z M174,211.1c0-0.6-0.4-0.8-0.7-0.8c-0.3,0-0.7,0.2-0.7,0.8v0.5h0c-0.7-0.8-1.5-1.3-2.6-1.3
				c-2.7,0-4.2,2.4-4.2,4.9c0,2.5,1.5,4.9,4.2,4.9c1,0,1.9-0.5,2.6-1.4h0v0.7c0,0.6,0.4,0.8,0.7,0.8c0.3,0,0.7-0.2,0.7-0.8V211.1z
				 M167.2,215.2c0-1.6,0.7-3.5,2.6-3.5s2.6,1.9,2.6,3.5c0,1.6-0.7,3.5-2.6,3.5S167.2,216.8,167.2,215.2L167.2,215.2z M178.2,219.7
				l-1,2.7c-0.2,0.5-0.2,0.7-0.2,0.9c0,0.4,0.4,0.7,0.7,0.7c0.4,0,0.6-0.3,0.8-0.6l4-11.4c0.2-0.5,0.2-0.7,0.2-0.9
				c0-0.4-0.4-0.7-0.7-0.7c-0.4,0-0.6,0.3-0.8,0.6l-2.2,6.6h0l-2.2-6.6c-0.1-0.3-0.4-0.6-0.8-0.6c-0.4,0-0.7,0.3-0.7,0.7
				c0,0.2,0,0.3,0.2,0.9L178.2,219.7z M192,211.1c0-0.6-0.4-0.8-0.7-0.8c-0.3,0-0.7,0.2-0.7,0.8v0.5h0c-0.7-0.8-1.5-1.3-2.6-1.3
				c-2.7,0-4.2,2.4-4.2,4.9c0,2.5,1.5,4.9,4.2,4.9c1,0,1.9-0.5,2.6-1.4h0v0.7c0,0.6,0.4,0.8,0.7,0.8c0.3,0,0.7-0.2,0.7-0.8V211.1z
				 M185.2,215.2c0-1.6,0.7-3.5,2.6-3.5s2.6,1.9,2.6,3.5c0,1.6-0.7,3.5-2.6,3.5S185.2,216.8,185.2,215.2L185.2,215.2z M195.5,215.2
				c0-1.6,0.7-3.5,2.6-3.5s2.6,1.9,2.6,3.5c0,1.6-0.7,3.5-2.6,3.5S195.5,216.8,195.5,215.2L195.5,215.2z M194.1,219.3
				c0,0.5,0.3,0.8,0.8,0.8c0.5,0,0.8-0.3,0.8-0.8v-0.5h0c0.4,0.9,1.3,1.3,2.6,1.3c2.6,0,4.1-2.4,4.1-4.9c0-2.5-1.5-4.9-4.1-4.9
				c-1.3,0-2.1,0.7-2.6,1.3h0v-4.7c0-0.5-0.3-0.8-0.8-0.8c-0.5,0-0.8,0.3-0.8,0.8V219.3z M205.6,206.9c0-0.5-0.3-0.8-0.8-0.8
				c-0.5,0-0.8,0.3-0.8,0.8v12.3c0,0.5,0.3,0.8,0.8,0.8c0.5,0,0.8-0.3,0.8-0.8V206.9z M214.7,215.8c0.7,0,0.9-0.3,0.9-0.8
				c0-2.3-1.5-4.7-4.1-4.7c-2.7,0-4.3,2.3-4.3,4.9c0,2.5,1.3,4.9,4.4,4.9c1.9,0,3.8-1.2,3.8-2c0-0.4-0.3-0.7-0.6-0.7
				c-0.6,0-1.1,1.3-3.2,1.3c-1.8,0-2.8-1.3-2.8-2.9H214.7z M208.7,214.6c0.1-1.5,0.8-3,2.7-3c1.7,0,2.5,1.6,2.5,3H208.7z
				 M229.5,211.1c0-0.6-0.4-0.8-0.7-0.8c-0.3,0-0.7,0.2-0.7,0.8v0.5h0c-0.7-0.8-1.5-1.3-2.6-1.3c-2.7,0-4.2,2.4-4.2,4.9
				c0,2.5,1.5,4.9,4.2,4.9c1,0,1.9-0.5,2.6-1.4h0v0.7c0,0.6,0.4,0.8,0.7,0.8c0.3,0,0.7-0.2,0.7-0.8V211.1z M222.8,215.2
				c0-1.6,0.7-3.5,2.6-3.5s2.6,1.9,2.6,3.5c0,1.6-0.7,3.5-2.6,3.5S222.8,216.8,222.8,215.2L222.8,215.2z M233.7,211.8h1
				c0.5,0,0.8-0.3,0.8-0.7c0-0.4-0.3-0.7-0.8-0.7h-1v-2.3c0-0.4,0.2-0.6,0.6-0.6h0.4c0.6,0,0.9-0.3,0.9-0.7c0-0.4-0.5-0.7-0.9-0.7
				h-0.5c-1.2,0-2.1,0.7-2.1,2.1v2.2h-0.6c-0.5,0-0.8,0.3-0.8,0.7c0,0.4,0.3,0.7,0.8,0.7h0.6v7.5c0,0.5,0.3,0.8,0.8,0.8
				c0.5,0,0.8-0.3,0.8-0.8V211.8z M236.8,210.4h-0.6c-0.5,0-0.8,0.3-0.8,0.7c0,0.4,0.3,0.7,0.8,0.7h0.6v7.5c0,0.5,0.3,0.8,0.8,0.8
				c0.5,0,0.8-0.3,0.8-0.8v-7.5h0.6c0.5,0,0.8-0.3,0.8-0.7c0-0.4-0.3-0.7-0.8-0.7h-0.6v-2.1c0-0.5-0.3-0.8-0.8-0.8
				c-0.5,0-0.8,0.3-0.8,0.8V210.4z M247.9,215.8c0.7,0,0.9-0.3,0.9-0.8c0-2.3-1.5-4.7-4.1-4.7c-2.7,0-4.3,2.3-4.3,4.9
				c0,2.5,1.3,4.9,4.4,4.9c1.9,0,3.8-1.2,3.8-2c0-0.4-0.3-0.7-0.6-0.7c-0.6,0-1.1,1.3-3.2,1.3c-1.8,0-2.8-1.3-2.8-2.9H247.9z
				 M241.9,214.6c0.1-1.5,0.8-3,2.7-3c1.7,0,2.5,1.6,2.5,3H241.9z M250.3,219.3c0,0.5,0.3,0.8,0.8,0.8c0.5,0,0.8-0.3,0.8-0.8v-4.6
				c0-1.9,1.2-2.6,2.1-2.7c0.7-0.1,1-0.4,1-0.9c0-0.5-0.3-0.8-0.9-0.8c-0.9,0-1.8,0.9-2.2,1.7h0v-0.8c0-0.5-0.3-0.8-0.8-0.8
				c-0.5,0-0.8,0.3-0.8,0.8V219.3z M262.6,219.7l-1,2.7c-0.2,0.5-0.2,0.7-0.2,0.9c0,0.4,0.4,0.7,0.7,0.7c0.4,0,0.6-0.3,0.8-0.6
				l4-11.4c0.2-0.5,0.2-0.7,0.2-0.9c0-0.4-0.4-0.7-0.7-0.7c-0.4,0-0.6,0.3-0.8,0.6l-2.2,6.6h0l-2.2-6.6c-0.1-0.3-0.4-0.6-0.8-0.6
				c-0.4,0-0.7,0.3-0.7,0.7c0,0.2,0,0.3,0.2,0.9L262.6,219.7z M268,215.2c0,2.5,1.5,4.9,4.2,4.9s4.2-2.4,4.2-4.9
				c0-2.5-1.5-4.9-4.2-4.9S268,212.7,268,215.2L268,215.2z M269.6,215.2c0-1.6,0.7-3.5,2.6-3.5s2.6,1.9,2.6,3.5
				c0,1.6-0.7,3.5-2.6,3.5S269.6,216.8,269.6,215.2L269.6,215.2z M278.1,216.3c0,2.8,1.9,3.8,3.8,3.8s3.8-1,3.8-3.8v-5.1
				c0-0.5-0.3-0.8-0.8-0.8s-0.8,0.3-0.8,0.8v5.1c0,1.6-0.7,2.5-2.2,2.5c-1.5,0-2.2-0.9-2.2-2.5v-5.1c0-0.5-0.3-0.8-0.8-0.8
				c-0.5,0-0.8,0.3-0.8,0.8V216.3z M287.4,209.7c-0.1,0.3-0.2,0.5-0.2,0.7c0,0.4,0.3,0.7,0.7,0.7c0.5,0,0.7-0.3,0.8-0.7l1-2
				c0.1-0.3,0.2-0.5,0.2-0.7c0-0.4-0.3-0.7-0.7-0.7c-0.5,0-0.7,0.3-0.8,0.7L287.4,209.7z M293.5,219.4c0.2,0.5,0.3,0.7,0.8,0.7
				c0.5,0,0.7-0.2,0.8-0.7l2.8-7.7c0.1-0.3,0.2-0.5,0.2-0.6c0-0.5-0.3-0.7-0.7-0.7c-0.5,0-0.7,0.3-0.8,0.6l-2.2,6.6h0l-2.2-6.6
				c-0.1-0.4-0.3-0.6-0.8-0.6c-0.4,0-0.7,0.3-0.7,0.7c0,0.2,0.1,0.4,0.2,0.6L293.5,219.4z M306.1,215.8c0.7,0,0.9-0.3,0.9-0.8
				c0-2.3-1.5-4.7-4.1-4.7c-2.7,0-4.3,2.3-4.3,4.9c0,2.5,1.3,4.9,4.4,4.9c1.9,0,3.8-1.2,3.8-2c0-0.4-0.3-0.7-0.6-0.7
				c-0.6,0-1.1,1.3-3.2,1.3c-1.8,0-2.8-1.3-2.8-2.9H306.1z M300.2,214.6c0.1-1.5,0.8-3,2.7-3c1.7,0,2.5,1.6,2.5,3H300.2z M319,219.3
				c0,0.5,0.3,0.8,0.8,0.8c0.5,0,0.8-0.3,0.8-0.8V214c0-2.7-1.9-3.6-3.3-3.6c-1,0-1.9,0.4-2.6,1.3l0,0v-4.6c0-0.5-0.3-0.8-0.8-0.8
				c-0.5,0-0.8,0.3-0.8,0.8v12.3c0,0.5,0.3,0.8,0.8,0.8c0.5,0,0.8-0.3,0.8-0.8V214c0-1.7,1.2-2.4,2.2-2.4s2.2,0.7,2.2,2.4V219.3z
				 M330.6,211.1c0-0.6-0.4-0.8-0.7-0.8c-0.3,0-0.7,0.2-0.7,0.8v0.5h0c-0.7-0.8-1.5-1.3-2.6-1.3c-2.7,0-4.2,2.4-4.2,4.9
				c0,2.5,1.5,4.9,4.2,4.9c1,0,1.9-0.5,2.6-1.4h0v0.7c0,0.6,0.4,0.8,0.7,0.8c0.3,0,0.7-0.2,0.7-0.8V211.1z M323.9,215.2
				c0-1.6,0.7-3.5,2.6-3.5s2.6,1.9,2.6,3.5c0,1.6-0.7,3.5-2.6,3.5S323.9,216.8,323.9,215.2L323.9,215.2z M339.1,215.2
				c0,1.6-0.7,3.5-2.6,3.5s-2.6-1.9-2.6-3.5c0-1.6,0.7-3.5,2.6-3.5S339.1,213.6,339.1,215.2L339.1,215.2z M339,219.3
				c0,0.5,0.3,0.8,0.8,0.8c0.5,0,0.8-0.3,0.8-0.8v-12.3c0-0.5-0.3-0.8-0.8-0.8c-0.5,0-0.8,0.3-0.8,0.8v4.7h0
				c-0.4-0.6-1.3-1.3-2.6-1.3c-2.6,0-4.1,2.4-4.1,4.9c0,2.5,1.5,4.9,4.1,4.9c1.3,0,2.1-0.4,2.6-1.3h0V219.3z M349.4,219.7l-1,2.7
				c-0.2,0.5-0.2,0.7-0.2,0.9c0,0.4,0.4,0.7,0.7,0.7c0.4,0,0.6-0.3,0.8-0.6l4-11.4c0.2-0.5,0.2-0.7,0.2-0.9c0-0.4-0.4-0.7-0.7-0.7
				c-0.4,0-0.6,0.3-0.8,0.6l-2.2,6.6h0l-2.2-6.6c-0.1-0.3-0.4-0.6-0.8-0.6c-0.4,0-0.7,0.3-0.7,0.7c0,0.2,0,0.3,0.2,0.9L349.4,219.7z
				 M354.8,215.2c0,2.5,1.5,4.9,4.2,4.9c2.7,0,4.2-2.4,4.2-4.9c0-2.5-1.5-4.9-4.2-4.9C356.3,210.3,354.8,212.7,354.8,215.2
				L354.8,215.2z M356.4,215.2c0-1.6,0.7-3.5,2.6-3.5s2.6,1.9,2.6,3.5c0,1.6-0.7,3.5-2.6,3.5S356.4,216.8,356.4,215.2L356.4,215.2z
				 M364.9,216.3c0,2.8,1.9,3.8,3.8,3.8s3.8-1,3.8-3.8v-5.1c0-0.5-0.3-0.8-0.8-0.8c-0.5,0-0.8,0.3-0.8,0.8v5.1
				c0,1.6-0.7,2.5-2.2,2.5s-2.2-0.9-2.2-2.5v-5.1c0-0.5-0.3-0.8-0.8-0.8c-0.5,0-0.8,0.3-0.8,0.8V216.3z M374.6,219.3
				c0,0.5,0.3,0.8,0.8,0.8c0.5,0,0.8-0.3,0.8-0.8v-4.6c0-1.9,1.2-2.6,2.1-2.7c0.7-0.1,1-0.4,1-0.9c0-0.5-0.3-0.8-0.9-0.8
				c-0.9,0-1.8,0.9-2.2,1.7h0v-0.8c0-0.5-0.3-0.8-0.8-0.8c-0.5,0-0.8,0.3-0.8,0.8V219.3z M386.3,215.2c0-1.6,0.7-3.5,2.6-3.5
				s2.6,1.9,2.6,3.5c0,1.6-0.7,3.5-2.6,3.5S386.3,216.8,386.3,215.2L386.3,215.2z M384.8,223c0,0.5,0.3,0.8,0.8,0.8
				c0.5,0,0.8-0.3,0.8-0.8v-4.2h0c0.4,0.6,1.3,1.3,2.6,1.3c2.6,0,4.1-2.4,4.1-4.9c0-2.5-1.5-4.9-4.1-4.9c-1.3,0-2.1,0.5-2.6,1.3h0
				v-0.5c0-0.5-0.3-0.8-0.8-0.8c-0.5,0-0.8,0.3-0.8,0.8V223z M396.4,206.9c0-0.5-0.3-0.8-0.8-0.8c-0.5,0-0.8,0.3-0.8,0.8v12.3
				c0,0.5,0.3,0.8,0.8,0.8c0.5,0,0.8-0.3,0.8-0.8V206.9z M406.4,211.1c0-0.6-0.4-0.8-0.7-0.8c-0.3,0-0.7,0.2-0.7,0.8v0.5h0
				c-0.7-0.8-1.5-1.3-2.6-1.3c-2.7,0-4.2,2.4-4.2,4.9c0,2.5,1.5,4.9,4.2,4.9c1,0,1.9-0.5,2.6-1.4h0v0.7c0,0.6,0.4,0.8,0.7,0.8
				c0.3,0,0.7-0.2,0.7-0.8V211.1z M399.6,215.2c0-1.6,0.7-3.5,2.6-3.5s2.6,1.9,2.6,3.5c0,1.6-0.7,3.5-2.6,3.5
				S399.6,216.8,399.6,215.2L399.6,215.2z M408.4,219.3c0,0.5,0.3,0.8,0.8,0.8c0.5,0,0.8-0.3,0.8-0.8V214c0-1.7,1.2-2.4,2.2-2.4
				s2.2,0.7,2.2,2.4v5.2c0,0.5,0.3,0.8,0.8,0.8s0.8-0.3,0.8-0.8V214c0-2.7-1.9-3.6-3.3-3.6c-1,0-1.9,0.4-2.6,1.3l0,0v-0.4
				c0-0.5-0.3-0.8-0.8-0.8c-0.5,0-0.8,0.3-0.8,0.8V219.3z M424.7,211.8h1c0.5,0,0.8-0.3,0.8-0.7c0-0.4-0.3-0.7-0.8-0.7h-1v-2.3
				c0-0.4,0.2-0.6,0.6-0.6h0.4c0.6,0,0.9-0.3,0.9-0.7c0-0.4-0.5-0.7-0.9-0.7h-0.5c-1.2,0-2.1,0.7-2.1,2.1v2.2h-0.6
				c-0.5,0-0.8,0.3-0.8,0.7c0,0.4,0.3,0.7,0.8,0.7h0.6v7.5c0,0.5,0.3,0.8,0.8,0.8s0.8-0.3,0.8-0.8V211.8z M426.9,215.2
				c0,2.5,1.5,4.9,4.2,4.9c2.7,0,4.2-2.4,4.2-4.9c0-2.5-1.5-4.9-4.2-4.9C428.4,210.3,426.9,212.7,426.9,215.2L426.9,215.2z
				 M428.5,215.2c0-1.6,0.7-3.5,2.6-3.5s2.6,1.9,2.6,3.5c0,1.6-0.7,3.5-2.6,3.5S428.5,216.8,428.5,215.2L428.5,215.2z M437,219.3
				c0,0.5,0.3,0.8,0.8,0.8c0.5,0,0.8-0.3,0.8-0.8v-4.6c0-1.9,1.2-2.6,2.1-2.7c0.7-0.1,1-0.4,1-0.9c0-0.5-0.3-0.8-0.9-0.8
				c-0.9,0-1.8,0.9-2.2,1.7h0v-0.8c0-0.5-0.3-0.8-0.8-0.8c-0.5,0-0.8,0.3-0.8,0.8V219.3z M447.7,210.4H447c-0.5,0-0.8,0.3-0.8,0.7
				c0,0.4,0.3,0.7,0.8,0.7h0.6v7.5c0,0.5,0.3,0.8,0.8,0.8s0.8-0.3,0.8-0.8v-7.5h0.6c0.5,0,0.8-0.3,0.8-0.7c0-0.4-0.3-0.7-0.8-0.7
				h-0.6v-2.1c0-0.5-0.3-0.8-0.8-0.8s-0.8,0.3-0.8,0.8V210.4z M453.6,219.3c0.2,0.6,0.5,0.8,0.9,0.8c0.4,0,0.7-0.2,0.9-0.8l2.1-6.5
				h0l2.1,6.5c0.2,0.6,0.5,0.8,0.9,0.8c0.5,0,0.7-0.2,0.9-0.8l2.6-7.6c0.1-0.2,0.1-0.5,0.1-0.6c0-0.3-0.2-0.7-0.8-0.7
				c-0.3,0-0.7,0.1-0.9,0.8l-2,6.5h0l-2-6.3c-0.2-0.7-0.4-1-0.9-1s-0.7,0.4-0.9,1l-2,6.3h0l-2-6.5c-0.2-0.7-0.5-0.8-0.9-0.8
				c-0.5,0-0.8,0.4-0.8,0.7c0,0.2,0.1,0.4,0.1,0.6L453.6,219.3z M464.8,215.2c0,2.5,1.5,4.9,4.2,4.9c2.7,0,4.2-2.4,4.2-4.9
				c0-2.5-1.5-4.9-4.2-4.9C466.3,210.3,464.8,212.7,464.8,215.2L464.8,215.2z M466.4,215.2c0-1.6,0.7-3.5,2.6-3.5s2.6,1.9,2.6,3.5
				c0,1.6-0.7,3.5-2.6,3.5S466.4,216.8,466.4,215.2L466.4,215.2z M481.5,219.7l-1,2.7c-0.2,0.5-0.2,0.7-0.2,0.9
				c0,0.4,0.4,0.7,0.7,0.7c0.4,0,0.6-0.3,0.8-0.6l4-11.4c0.2-0.5,0.2-0.7,0.2-0.9c0-0.4-0.4-0.7-0.7-0.7c-0.4,0-0.6,0.3-0.8,0.6
				l-2.2,6.6h0l-2.2-6.6c-0.1-0.3-0.4-0.6-0.8-0.6c-0.4,0-0.7,0.3-0.7,0.7c0,0.2,0,0.3,0.2,0.9L481.5,219.7z M494.3,215.8
				c0.7,0,0.9-0.3,0.9-0.8c0-2.3-1.5-4.7-4.1-4.7c-2.7,0-4.3,2.3-4.3,4.9c0,2.5,1.3,4.9,4.4,4.9c1.9,0,3.8-1.2,3.8-2
				c0-0.4-0.3-0.7-0.6-0.7c-0.6,0-1.1,1.3-3.2,1.3c-1.8,0-2.8-1.3-2.8-2.9H494.3z M488.4,214.6c0.1-1.5,0.8-3,2.7-3
				c1.7,0,2.5,1.6,2.5,3H488.4z M504.6,211.1c0-0.6-0.4-0.8-0.7-0.8c-0.3,0-0.7,0.2-0.7,0.8v0.5h0c-0.7-0.8-1.5-1.3-2.6-1.3
				c-2.7,0-4.2,2.4-4.2,4.9c0,2.5,1.5,4.9,4.2,4.9c1,0,1.9-0.5,2.6-1.4h0v0.7c0,0.6,0.4,0.8,0.7,0.8c0.3,0,0.7-0.2,0.7-0.8V211.1z
				 M497.9,215.2c0-1.6,0.7-3.5,2.6-3.5s2.6,1.9,2.6,3.5c0,1.6-0.7,3.5-2.6,3.5S497.9,216.8,497.9,215.2L497.9,215.2z M506.7,219.3
				c0,0.5,0.3,0.8,0.8,0.8c0.5,0,0.8-0.3,0.8-0.8v-4.6c0-1.9,1.2-2.6,2.1-2.7c0.7-0.1,1-0.4,1-0.9c0-0.5-0.3-0.8-0.9-0.8
				c-0.9,0-1.8,0.9-2.2,1.7h0v-0.8c0-0.5-0.3-0.8-0.8-0.8c-0.5,0-0.8,0.3-0.8,0.8V219.3z M512.2,213c0,2.7,5.1,2.6,5.1,4.4
				c0,0.6-0.7,1.3-1.9,1.3c-1.7,0-2.3-1.2-3-1.2c-0.3,0-0.6,0.3-0.6,0.7c0,0.8,1.6,1.8,3.6,1.8c1.8,0,3.5-1,3.5-3
				c0-2.8-5.1-2.6-5.1-4.3c0-0.8,0.8-1.2,1.7-1.2c1.5,0,1.8,1,2.5,1c0.5,0,0.7-0.3,0.7-0.6c0-1-1.9-1.7-3.2-1.7
				C513.8,210.3,512.2,211.3,512.2,213L512.2,213z"/>
			<path id="_x35_" class="st3" d="M68.3,118.6h3.7c0.4,0,0.7-0.3,0.7-0.7c0-0.4-0.3-0.7-0.7-0.7h-4.4c-0.4,0-0.5,0.1-0.6,0.4
				l-0.7,4.5c-0.1,0.4-0.1,0.9-0.1,1.1c0,0.3,0.2,0.5,0.5,0.5c0.5,0,1-0.5,2.2-0.5c1.5,0,2.2,1.2,2.2,2.7c0,1.5-0.9,2.8-2.4,2.8
				c-1.8,0-2.4-1.3-3-1.3c-0.4,0-0.6,0.4-0.6,0.7c0,0.8,1.5,2.1,3.6,2.1c2.6,0,4.2-1.8,4.2-4.6c0-2-1.3-3.9-3.3-3.9
				c-0.6,0-1.2,0.1-1.7,0.4L68.3,118.6z"/>
			<path id="_x31_0" class="st3" d="M198,129.3c0,0.5,0.3,0.8,0.8,0.8c0.5,0,0.8-0.3,0.8-0.8v-11.6c0-0.4-0.2-0.4-0.5-0.4h-2.8
				c-0.4,0-0.7,0.3-0.7,0.7c0,0.4,0.3,0.7,0.7,0.7h1.7V129.3z M201.9,123.6c0,4.1,1.9,6.5,4.2,6.5s4.2-2.4,4.2-6.5
				c0-4.1-1.9-6.5-4.2-6.5S201.9,119.5,201.9,123.6L201.9,123.6z M203.6,123.6c0-3.6,1.1-5.1,2.5-5.1c1.4,0,2.5,1.6,2.5,5.1
				s-1.1,5.1-2.5,5.1C204.8,128.7,203.6,127.2,203.6,123.6L203.6,123.6z"/>
			<path id="_x32_0" class="st3" d="M340.6,128.6l4.3-5.7c0.8-1.1,0.9-1.9,0.9-2.6c0-1.7-1.3-3.2-3.5-3.2c-2.6,0-4.1,1.9-4.1,4
				c0,0.7,0.3,1,0.8,1c0.3,0,0.7-0.2,0.7-0.7c0-1.6,0.8-2.9,2.3-2.9c1.2,0,2,0.8,2,2c0,0.8-0.4,1.6-0.9,2.3l-4.4,5.9
				c-0.3,0.4-0.3,0.5-0.3,0.7c0,0.3,0.2,0.6,0.9,0.6h6.2c0.4,0,0.7-0.3,0.7-0.7c0-0.4-0.3-0.7-0.7-0.7H340.6z M347.6,123.6
				c0,4.1,1.9,6.5,4.2,6.5s4.2-2.4,4.2-6.5c0-4.1-1.9-6.5-4.2-6.5S347.6,119.5,347.6,123.6L347.6,123.6z M349.3,123.6
				c0-3.6,1.1-5.1,2.5-5.1s2.5,1.6,2.5,5.1s-1.1,5.1-2.5,5.1S349.3,127.2,349.3,123.6L349.3,123.6z"/>
			<path id="_x33_0" class="st3" d="M479.9,126.2c0-1.5-0.8-2.7-2.2-3.1c1-0.6,1.5-1.7,1.5-2.7c0-1.8-1.3-3.3-3.3-3.3
				c-2.1,0-3.4,1.5-3.4,3.2c0,0.4,0.3,0.7,0.7,0.7c0.3,0,0.7,0,0.8-0.7c0.1-1,0.6-1.9,1.8-1.9c1.1,0,1.8,0.9,1.8,2.1
				c0,1.2-0.5,1.8-1.8,2.1c-0.6,0.1-0.8,0.3-0.8,0.7c0,0.4,0.3,0.7,1,0.7c1.2,0,2.2,0.5,2.2,2.4c0,1.3-1,2.4-2.4,2.4
				c-1.2,0-1.9-0.7-2.2-1.6c-0.2-0.6-0.4-0.8-0.9-0.8c-0.4,0-0.7,0.3-0.7,0.9c0,1,1.1,3,3.7,3C478.1,130.1,479.9,128.6,479.9,126.2
				L479.9,126.2z M481.6,123.6c0,4.1,1.9,6.5,4.2,6.5s4.2-2.4,4.2-6.5c0-4.1-1.9-6.5-4.2-6.5S481.6,119.5,481.6,123.6L481.6,123.6z
				 M483.3,123.6c0-3.6,1.1-5.1,2.5-5.1s2.5,1.6,2.5,5.1s-1.1,5.1-2.5,5.1S483.3,127.2,483.3,123.6L483.3,123.6z"/>
			<path id="_x34_0" class="st3" d="M615.4,125.7v2.6c0,0.5,0.3,0.8,0.8,0.8s0.8-0.3,0.8-0.8v-2.6h0.8c0.4,0,0.7-0.3,0.7-0.7
				c0-0.4-0.3-0.7-0.7-0.7h-0.8v-6.9c0-0.9-0.5-1.3-1.2-1.3c-0.6,0-0.9,0.2-1.2,0.7l-4.5,7.4c-0.2,0.4-0.4,0.7-0.4,0.9
				c0,0.3,0.1,0.6,0.7,0.6H615.4z M611.5,124.3l3.8-6.6h0v6.6H611.5z M619.6,122.6c0,4.1,1.9,6.5,4.2,6.5c2.3,0,4.2-2.4,4.2-6.5
				c0-4.1-1.9-6.5-4.2-6.5C621.5,116.1,619.6,118.5,619.6,122.6L619.6,122.6z M621.3,122.6c0-3.6,1.1-5.1,2.5-5.1
				c1.4,0,2.5,1.6,2.5,5.1s-1.1,5.1-2.5,5.1C622.4,127.7,621.3,126.2,621.3,122.6L621.3,122.6z"/>
			<path id="_xA3_4_x2C_380" class="st4" d="M500.6,178.1l-0.4-0.7c-0.3-0.4-0.4-1-0.4-1.5c0-1.4,1.3-2.2,2.7-2.2
				c2.9,0,2.8,2.9,4.7,2.9c1.3,0,2.2-0.8,2.2-2.1c0-2.8-3.2-4.8-7.1-4.8c-3.8,0-7.1,2.1-7.1,5.4c0,0.8,0.4,2.3,0.7,3h-0.6
				c-1.2,0-2,0.7-2,1.9c0,1.2,0.8,1.9,2,1.9h1.5c0,3.5-2.4,4.7-2.4,5.8c0,1.3,0.8,2.2,2.2,2.2h11c1.2,0,2-0.7,2-1.9
				c0-1.2-0.8-1.9-2-1.9h-7.8c0.9-1.2,1.4-2.6,1.4-4.1h3.6c1.2,0,2-0.7,2-1.9c0-1.2-0.8-1.9-2-1.9H500.6z M519.3,185.6v2.4
				c0,1.5,0.6,2.2,2,2.2c1.4,0,2-0.7,2-2.2v-2.4h0.5c1.1,0,2-0.7,2-1.8c0-1.1-0.9-1.8-2-1.8h-0.5v-8.6c0-2.5-1.6-3.6-3.2-3.6
				c-1.5,0-2.2,0.5-2.9,1.6l-6.3,11.4c-0.2,0.3-0.4,0.6-0.4,1.2c0,0.7,0.6,1.7,2,1.7H519.3z M519.3,181.9h-3.8l3.8-7.8h0.1V181.9z
				 M531.8,188.6c0.2-0.4,0.4-0.7,0.4-1.1c0-1-0.9-1.8-1.9-1.8c-0.4,0-1.3,0.3-1.6,1l-2.3,4.2c-0.2,0.4-0.3,0.7-0.3,1.1
				c0,1,0.9,1.8,1.9,1.8c0.4,0,1.3-0.3,1.6-1L531.8,188.6z M541.3,169.7c-3.1,0-6.1,2.4-6.1,4.5c0,1,0.7,2.1,1.8,2.1
				c1.9,0,1.5-2.7,4.2-2.7c1.3,0,2,0.8,2,1.9c0,3.1-4,1.1-4,4.1c0,3.3,4.8,0.4,4.8,4.3c0,1.5-1.2,2.6-2.6,2.6
				c-3.2,0-2.7-3.3-4.6-3.3c-1,0-2.2,0.8-2.2,1.9c0,2.2,2.6,5.3,6.7,5.3c4,0,7.1-2.8,7.1-6.2c0-2.2-1.4-4.1-3.4-5
				c1.5-1,2.3-2.5,2.3-4.3C547.2,172.7,545.3,169.7,541.3,169.7L541.3,169.7z M557.8,180.9c1.5,0,2.5,1,2.5,2.8c0,1.4-1,2.8-2.5,2.8
				c-1.7,0-2.5-1.4-2.5-2.8C555.2,182.1,556.2,180.9,557.8,180.9L557.8,180.9z M557.8,190.3c3.8,0,6.9-2.5,6.9-6.4
				c0-2.2-1.1-3.9-3-4.8c1.4-0.9,2.2-2.4,2.2-4c0-3.3-2.8-5.4-6.1-5.4c-3.3,0-6,2.1-6,5.4c0,1.8,0.8,3.1,2.1,4c-1.8,1-3,2.6-3,4.8
				C550.9,187.7,553.9,190.3,557.8,190.3L557.8,190.3z M557.8,173.4c1.3,0,2,0.9,2,2.1c0,1.3-0.8,2.1-2,2.1c-1.3,0-2-0.9-2-2.1
				C555.8,174.3,556.5,173.4,557.8,173.4L557.8,173.4z M573.9,186.5c-2.9,0-3.1-4.5-3.1-6.5c0-2.1,0.2-6.5,3.1-6.5
				c2.9,0,3.1,4.4,3.1,6.5C576.9,182,576.7,186.5,573.9,186.5L573.9,186.5z M573.9,190.3c5.7,0,7.4-5.7,7.4-10.3s-1.8-10.3-7.4-10.3
				s-7.4,5.7-7.4,10.3S568.2,190.3,573.9,190.3L573.9,190.3z"/>
			<g id="_x31_5-icon-minus-sky" transform="translate(0.000000, 57.000000)">
				<g id="icon-minus-sky_1_">
					<g id="Page-1_1_">
						<g id="Icons">
							<g id="Sky-and-white">
								<g id="icon-minus-sky">
									<path id="Stroke-1" class="st5" d="M32.9,16.5c0,9.1-7.4,16.4-16.4,16.4S0.1,25.6,0.1,16.5S7.4,0.1,16.5,0.1
										S32.9,7.4,32.9,16.5L32.9,16.5L32.9,16.5L32.9,16.5z"/>
									<path id="Page-1" class="st1" d="M7.6,17c0,1.3,1,2.3,2.3,2.3h13.3c1.3,0,2.3-1,2.3-2.3v-1.4c0-1.3-1-2.3-2.3-2.3H9.9
										c-1.3,0-2.3,1-2.3,2.3V17L7.6,17L7.6,17z"/>
								</g>
							</g>
						</g>
					</g>
				</g>
			</g>
			<g id="_x31_5-icon-plus-sky" transform="translate(655.000000, 57.000000)">
				<g id="icon-plus-sky_1_">
					<g id="Page-1_3_">
						<g id="Icons_1_">
							<g id="Sky-and-white_1_">
								<g id="icon-plus-sky">
									<path id="Stroke-1_1_" class="st5" d="M32.9,16.5c0,9.1-7.4,16.4-16.4,16.4S0.1,25.6,0.1,16.5S7.4,0.1,16.5,0.1
										S32.9,7.4,32.9,16.5L32.9,16.5L32.9,16.5L32.9,16.5z"/>
									<path id="Page-1_2_" class="st1" d="M15.8,7.6c-1.3,0-2.3,1-2.3,2.3v3.7H9.9c-1.3,0-2.3,1-2.3,2.3v1.3c0,1.3,1,2.3,2.3,2.3
										h3.6v3.7c0,1.3,1,2.3,2.3,2.3h1.3c1.3,0,2.3-1,2.3-2.3v-3.7h3.8c1.3,0,2.3-1,2.3-2.3v-1.3c0-1.3-1-2.3-2.3-2.3h-3.8V9.9
										c0-1.3-1-2.3-2.3-2.3H15.8L15.8,7.6L15.8,7.6z"/>
								</g>
							</g>
						</g>
					</g>
				</g>
			</g>
			<g id="Group-8" transform="translate(173.000000, 0.000000)">
				<g id="Group-7">
					<path id="Rectangle-10" class="st6" d="M6,0h48c3.3,0,6,2.7,6,6v28c0,3.3-2.7,6-6,6H6c-3.3,0-6-2.7-6-6V6C0,2.7,2.7,0,6,0z"/>
					<path id="Rectangle-10_1_" class="st6" d="M34.4,25.2l5.7,5.7c2.3,2.3,2.3,6.1,0,8.5L34.4,45c-2.3,2.3-6.1,2.3-8.5,0l-5.7-5.7
						c-2.3-2.3-2.3-6.1,0-8.5l5.7-5.7C28.2,22.9,32,22.9,34.4,25.2z"/>
				</g>
				<g class="st7">
					<text transform="matrix(1 0 0 1 11.34 29)" class="st1 st8 st9">£10</text>
				</g>
			</g>
			<g id="Rectangle-11">
				<path id="path-1_1_" class="st10" d="M69.5,61h549c9.1,0,16.5,7.4,16.5,16.5l0,0c0,9.1-7.4,16.5-16.5,16.5h-549
					C60.4,94,53,86.6,53,77.5l0,0C53,68.4,60.4,61,69.5,61z"/>
			</g>
			<path id="Rectangle-11_1_" class="st11" d="M71.5,72h546c3,0,5.5,2.5,5.5,5.5l0,0c0,3-2.5,5.5-5.5,5.5h-546c-3,0-5.5-2.5-5.5-5.5
				l0,0C66,74.5,68.5,72,71.5,72z"/>
			<path id="Rectangle-11_2_" class="st12" d="M71.5,72h152c3,0,5.5,2.5,5.5,5.5l0,0c0,3-2.5,5.5-5.5,5.5h-152c-3,0-5.5-2.5-5.5-5.5
				l0,0C66,74.5,68.5,72,71.5,72z"/>
			<circle id="Oval-3" class="st5" cx="203.5" cy="77.5" r="28.5"/>
			
				<g id="_x31_5-icon-up-sky" transform="translate(215.500000, 77.500000) rotate(90.000000) translate(-215.500000, -77.500000) translate(206.000000, 68.000000)">
				<g id="icon-up-sky_1_">
					<g id="Page-1_5_">
						<g id="Icons_2_">
							<g id="Sky-and-white_2_">
								<g id="icon-up-sky">
									<g id="up">
										<path id="Stroke-1_2_" class="st5" d="M19,9.5c0,5.2-4.2,9.5-9.5,9.5S0,14.7,0,9.5S4.3,0,9.5,0S19,4.3,19,9.5L19,9.5
											L19,9.5L19,9.5z"/>
										<path id="Page-1_4_" class="st1" d="M10.5,4.9c-0.5-0.5-1.4-0.5-1.9,0L5.4,8.2c-0.5,0.5-0.5,1.4,0,1.9l0,0
											c0.5,0.5,1.4,0.5,1.9,0l1-1v4.3c0,0.7,0.6,1.3,1.3,1.3h0c0.7,0,1.3-0.6,1.3-1.3V9l1,1c0.5,0.5,1.4,0.5,1.9,0l0,0
											c0.5-0.5,0.5-1.4,0-1.9L10.5,4.9L10.5,4.9L10.5,4.9z"/>
									</g>
								</g>
							</g>
						</g>
					</g>
				</g>
			</g>
			
				<g id="_x31_5-icon-up-sky_1_" transform="translate(191.500000, 77.500000) scale(-1, 1) rotate(90.000000) translate(-191.500000, -77.500000) translate(182.000000, 68.000000)">
				<g id="icon-up-sky_3_">
					<g id="Page-1_7_">
						<g id="Icons_3_">
							<g id="Sky-and-white_3_">
								<g id="icon-up-sky_2_">
									<g id="up_1_">
										<path id="Stroke-1_3_" class="st5" d="M19,9.5c0,5.2-4.2,9.5-9.5,9.5S0,14.7,0,9.5S4.3,0,9.5,0S19,4.3,19,9.5L19,9.5
											L19,9.5L19,9.5z"/>
										<path id="Page-1_6_" class="st1" d="M10.5,4.9c-0.5-0.5-1.4-0.5-1.9,0L5.4,8.2c-0.5,0.5-0.5,1.4,0,1.9l0,0
											c0.5,0.5,1.4,0.5,1.9,0l1-1v4.3c0,0.7,0.6,1.3,1.3,1.3h0c0.7,0,1.3-0.6,1.3-1.3V9l1,1c0.5,0.5,1.4,0.5,1.9,0l0,0
											c0.5-0.5,0.5-1.4,0-1.9L10.5,4.9L10.5,4.9L10.5,4.9z"/>
									</g>
								</g>
							</g>
						</g>
					</g>
				</g>
			</g>
		</g>
	</g>
</g>
</svg>
