<?xml version="1.0" encoding="UTF-8" standalone="no"?>
<svg width="201px" height="201px" viewBox="0 0 201 201" version="1.1" xmlns="http://www.w3.org/2000/svg" xmlns:xlink="http://www.w3.org/1999/xlink">
    <!-- Generator: Sketch 39.1 (31720) - http://www.bohemiancoding.com/sketch -->
    <title>icon-social-youtube</title>
    <desc>Created with Sketch.</desc>
    <defs></defs>
    <g id="Page-1" stroke="none" stroke-width="1" fill="none" fill-rule="evenodd">
        <g id="Social" transform="translate(-721.000000, -366.000000)">
            <g id="icon-social-youtube" transform="translate(721.000000, 366.000000)">
                <path d="M200.5,100.5 C200.5,155.728 155.728,200.5 100.5,200.5 C45.272,200.5 0.5,155.728 0.5,100.5 C0.5,45.272 45.272,0.5 100.5,0.5 C155.728,0.5 200.5,45.272 200.5,100.5 L200.5,100.5 Z" id="Stroke-1" fill="#009FE3"></path>
                <g id="Group" transform="translate(57.000000, 53.000000)" fill="#FFFFFF">
                    <path d="M37.674,3.4708 C38.35,2.5988 38.19,1.3428 37.318,0.6668 C36.45,-0.0092 35.186,0.1468 34.514,1.0228 L23.998,14.5868 L13.478,1.0308 C12.802,0.1588 11.55,-0.0052 10.67,0.6748 C9.798,1.3548 9.642,2.6108 10.318,3.4828 L21.998,18.5388 L22.006,36.0068 C22.006,37.1148 22.902,38.0068 24.006,38.0068 C25.11,38.0068 26.006,37.1108 26.006,36.0068 L25.998,18.5348 L37.674,3.4708 Z" id="Fill-287"></path>
                    <path d="M42.004,34 C39.796,34 38,32.208 38,30 L38,18 C38,15.796 39.796,14 42,14 C44.204,14 46,15.796 46,18 L46.004,30 C46.004,32.204 44.208,34 42.004,34 M42,10 C37.588,10 34,13.592 34,18 L34,30 C34,34.408 37.588,38 42.004,38 C46.416,38 50.004,34.408 50.004,30 L50,18 C50,13.588 46.412,10 42,10" id="Fill-288"></path>
                    <path d="M74.004,27.9904 L74,11.9904 C74,10.8864 73.104,9.9904 72,9.9904 C70.896,9.9904 70,10.8864 70,11.9904 L70.004,28.0024 C69.996,31.3064 67.308,33.9904 64,33.9904 C62.34,33.8744 60.896,33.3704 59.76,32.2384 C58.628,31.1064 58.004,29.5984 58.004,27.9944 L58,11.9944 C58,10.8904 57.104,9.9944 56,9.9944 C54.896,9.9944 54,10.8904 54,11.9944 L54.004,27.9944 C54.004,30.6664 55.044,33.1784 56.932,35.0664 C58.82,36.9504 61.328,37.9904 63.992,37.9904 L64,37.9904 C66.288,37.9904 68.372,37.1944 70.06,35.8944 C70.2,36.8664 70.996,37.6184 72.004,37.6184 C73.108,37.6184 74.004,36.7264 74.004,35.6184 L74.004,28.0024 L74.004,27.9904 Z" id="Fill-289"></path>
                    <path d="M52,66 C50.896,66 50,66.896 50,68 L50,76 C50,77.104 50.896,78 52,78 C53.104,78 54,77.104 54,76 L54,68 C54,66.896 53.104,66 52,66" id="Fill-290"></path>
                    <path d="M70,68 C70,66.896 69.104,66 68,66 C66.896,66 66,66.896 66,68 L66,70 L70,70 L70,68 Z" id="Fill-291"></path>
                    <path d="M68.3436,82.498 C65.0836,82.498 61.9996,79.342 61.9996,75.998 L61.9996,67.998 C61.9996,64.69 64.6916,61.998 67.9996,61.998 C71.3076,61.998 73.9996,64.69 73.9996,67.998 L73.9996,71.998 C73.9996,73.106 73.1036,73.998 71.9996,73.998 L65.9996,73.998 L65.9996,75.998 C65.9996,77.146 67.2676,78.498 68.3436,78.498 C69.2516,78.498 70.6876,78.09 70.6876,76.998 C70.6876,75.894 71.5836,74.998 72.6876,74.998 C73.7916,74.998 74.6876,75.894 74.6876,76.998 C74.6876,80.134 71.9596,82.498 68.3436,82.498 L68.3436,82.498 Z M57.9996,75.998 C57.9996,79.31 55.3076,81.998 51.9996,81.998 C51.0516,81.998 50.1636,81.758 49.3636,81.362 C49.0076,81.698 48.5316,81.914 47.9996,81.914 C46.8956,81.914 45.9996,81.018 45.9996,79.914 L45.9996,55.998 C45.9996,54.894 46.8956,53.998 47.9996,53.998 C49.1036,53.998 49.9996,54.894 49.9996,55.998 L49.9996,62.37 C50.6276,62.146 51.2956,61.998 51.9996,61.998 C55.3076,61.998 57.9996,64.69 57.9996,67.998 L57.9996,75.998 Z M40.0036,81.618 C39.5796,81.618 39.2076,81.458 38.8796,81.23 C38.0236,81.706 37.0516,81.998 35.9996,81.998 C32.6916,81.998 29.9996,79.31 29.9996,75.998 L29.9996,63.99 C29.9996,62.886 30.8956,61.99 31.9996,61.99 C33.1036,61.99 33.9996,62.886 33.9996,63.99 L33.9996,75.998 C33.9996,77.106 34.8956,77.998 35.9996,77.998 C37.1036,77.998 37.9996,77.106 37.9996,75.998 L37.9996,63.99 C37.9996,62.886 38.8956,61.99 39.9996,61.99 C41.1036,61.99 41.9996,62.886 41.9996,63.99 L42.0036,79.618 C42.0036,80.726 41.1076,81.618 40.0036,81.618 L40.0036,81.618 Z M28.0836,61.998 L21.9996,61.998 L21.9996,79.914 C21.9996,81.018 21.1036,81.914 19.9996,81.914 C18.8956,81.914 17.9996,81.018 17.9996,79.914 L17.9996,61.998 L11.9156,61.998 C10.8076,61.998 9.9156,61.106 9.9156,59.998 C9.9156,58.894 10.8076,57.998 11.9156,57.998 L28.0836,57.998 C29.1876,57.998 30.0836,58.894 30.0836,59.998 C30.0836,61.106 29.1876,61.998 28.0836,61.998 L28.0836,61.998 Z M71.9996,47.998 L15.9996,47.998 C7.1636,47.998 -0.000400000001,55.162 -0.000400000001,63.998 L-0.000400000001,75.998 C-0.000400000001,84.834 7.1636,91.998 15.9996,91.998 L71.9996,91.998 C80.8356,91.998 87.9996,84.834 87.9996,75.998 L87.9996,63.998 C87.9996,55.162 80.8356,47.998 71.9996,47.998 L71.9996,47.998 Z" id="Fill-292"></path>
                </g>
            </g>
        </g>
    </g>
</svg>