<?xml version="1.0" encoding="UTF-8" standalone="no"?>
<svg width="201px" height="201px" viewBox="0 0 201 201" version="1.1" xmlns="http://www.w3.org/2000/svg" xmlns:xlink="http://www.w3.org/1999/xlink">
    <!-- Generator: Sketch 39.1 (31720) - http://www.bohemiancoding.com/sketch -->
    <title>icon-social-twitter</title>
    <desc>Created with Sketch.</desc>
    <defs></defs>
    <g id="Page-1" stroke="none" stroke-width="1" fill="none" fill-rule="evenodd">
        <g id="Social" transform="translate(-269.000000, -366.000000)">
            <g id="icon-social-twitter" transform="translate(269.000000, 366.000000)">
                <path d="M100.5,200.5 C45.272,200.5 0.5,155.728 0.5,100.5 C0.5,45.272 45.272,0.5 100.5,0.5 C155.728,0.5 200.5,45.272 200.5,100.5 C200.5,155.728 155.728,200.5 100.5,200.5 Z" id="Stroke-1" fill="#009FE3"></path>
                <path d="M149.612114,75.0997814 C146.144496,76.6463279 143.222155,76.6974534 140.120894,75.1679487 C144.121009,72.7735709 144.304188,71.0949501 145.748319,66.5660823 C142.008062,68.7857814 137.863109,70.4004953 133.454036,71.2738893 C129.926779,67.5119042 124.89149,65.1558704 119.327966,65.1558704 C108.635433,65.1558704 99.9706478,73.8301646 99.9706478,84.5153954 C99.9706478,86.0363792 100.141047,87.5147584 100.469065,88.9292308 C84.3791462,88.124004 70.1167563,80.4125735 60.5701565,68.6963117 C58.904507,71.5593401 57.9460131,74.8867584 57.9460131,78.4357206 C57.9460131,85.1544642 61.3667715,91.076502 66.5596787,94.548776 C63.3859987,94.446525 60.4040176,93.5773914 57.7926541,92.1288354 C57.7883941,92.2097841 57.7883941,92.2864723 57.7883941,92.3716815 C57.7883941,101.753212 64.4637719,109.575414 73.320256,111.356286 C70.4831139,112.127429 67.4926128,112.246722 64.5745312,111.688602 C67.0410557,119.37873 74.1892905,124.976973 82.6581171,125.13461 C74.3767294,131.627549 64.1059342,134.332941 54.001278,133.148533 C62.5680839,138.640265 72.7408997,141.84413 83.6719907,141.84413 C119.281106,141.84413 138.744923,112.344713 138.744923,86.7606572 C138.744923,85.9170864 138.732143,85.0905574 138.693803,84.2555074 C142.472399,81.5288138 147.017791,78.9853198 149.612114,75.0997814" id="Fill-264" fill="#FFFFFF"></path>
            </g>
        </g>
    </g>
</svg>