<?xml version="1.0" encoding="UTF-8" standalone="no"?>
<svg width="201px" height="201px" viewBox="0 0 201 201" version="1.1" xmlns="http://www.w3.org/2000/svg" xmlns:xlink="http://www.w3.org/1999/xlink">
    <!-- Generator: Sketch 39.1 (31720) - http://www.bohemiancoding.com/sketch -->
    <title>icon-social-instagram</title>
    <desc>Created with Sketch.</desc>
    <defs></defs>
    <g id="Page-1" stroke="none" stroke-width="1" fill="none" fill-rule="evenodd">
        <g id="Social" transform="translate(-492.000000, -366.000000)">
            <g id="icon-social-instagram" transform="translate(492.000000, 366.000000)">
                <path d="M100.5,200.5 C45.272,200.5 0.5,155.728 0.5,100.5 C0.5,45.272 45.272,0.5 100.5,0.5 C155.728,0.5 200.5,45.272 200.5,100.5 C200.5,155.728 155.728,200.5 100.5,200.5 Z" id="Stroke-1" fill="#009FE3"></path>
                <g id="Group" transform="translate(55.000000, 57.000000)" fill="#FFFFFF">
                    <path d="M45,20.4545455 C31.4631818,20.4545455 20.4545455,31.4631818 20.4545455,45 C20.4545455,58.5409091 31.4631818,69.5454545 45,69.5454545 C58.5368182,69.5454545 69.5454545,58.5409091 69.5454545,45 C69.5454545,31.4631818 58.5368182,20.4545455 45,20.4545455" id="Fill-293"></path>
                    <path d="M12.2727273,0.207818182 C10.8245455,0.416454545 9.45818182,0.825545455 8.18181818,1.43918182 L8.18181818,30.681 L12.2727273,30.681 L12.2727273,0.207818182 Z" id="Fill-294"></path>
                    <path d="M20.4545455,30.3643636 L20.4545455,0.00163636364 L16.3636364,0.00163636364 L16.3636364,30.6834545 L20.2377273,30.6834545 C20.3031818,30.573 20.385,30.4707273 20.4545455,30.3643636" id="Fill-295"></path>
                    <path d="M83.8636364,24.5454545 L71.5909091,24.5454545 C70.4618182,24.5454545 69.5454545,23.6290909 69.5454545,22.5 L69.5454545,10.2272727 C69.5454545,9.09818182 70.4618182,8.18181818 71.5909091,8.18181818 L83.8636364,8.18181818 C84.9927273,8.18181818 85.9090909,9.09818182 85.9090909,10.2272727 L85.9090909,16.9854545 L85.9090909,22.5 C85.9090909,23.6290909 84.9927273,24.5454545 83.8636364,24.5454545 M90,73.0145455 L90,30.6818182 L90,16.9854545 L90,14.3181818 C90,6.42272727 83.5772727,0 75.6818182,0 L24.5454545,0 L24.5454545,25.0322727 C29.745,19.6977273 36.9818182,16.3636364 45,16.3636364 C55.5709091,16.3636364 64.8,22.1359091 69.7622727,30.6818182 L85.9090909,30.6818182 L85.9090909,73.0145455 C85.9090909,80.1245455 80.1245455,85.9090909 73.0145455,85.9090909 L16.9854545,85.9090909 C9.87545455,85.9090909 4.09090909,80.1245455 4.09090909,73.0145455 L4.09090909,30.6818182 L4.09090909,16.9854545 L4.09090909,4.32818182 C1.56681818,6.91363636 0,10.4318182 0,14.3181818 L0,16.9854545 L0,30.6818182 L0,73.0145455 C0,82.3786364 7.62136364,90 16.9854545,90 L73.0145455,90 C82.3786364,90 90,82.3786364 90,73.0145455" id="Fill-296"></path>
                </g>
            </g>
        </g>
    </g>
</svg>