<?xml version="1.0" encoding="UTF-8" standalone="no"?>
<svg width="201px" height="201px" viewBox="0 0 201 201" version="1.1" xmlns="http://www.w3.org/2000/svg" xmlns:xlink="http://www.w3.org/1999/xlink">
    <!-- Generator: Sketch 39.1 (31720) - http://www.bohemiancoding.com/sketch -->
    <title>icon-social-facebook</title>
    <desc>Created with Sketch.</desc>
    <defs></defs>
    <g id="Page-1" stroke="none" stroke-width="1" fill="none" fill-rule="evenodd">
        <g id="Social" transform="translate(-49.000000, -366.000000)">
            <g id="icon-social-facebook" transform="translate(49.000000, 366.000000)">
                <path d="M100.5,200.5 C45.272,200.5 0.5,155.728 0.5,100.5 C0.5,45.272 45.272,0.5 100.5,0.5 C155.728,0.5 200.5,45.272 200.5,100.5 C200.5,155.728 155.728,200.5 100.5,200.5 Z" id="Stroke-1" fill="#009FE3"></path>
                <path d="M122.912628,79.9303716 L103.576437,79.9303716 L103.576437,71.2901479 C103.576437,67.2262947 106.267556,66.2783647 108.161307,66.2783647 L121.698453,66.2783647 L121.698453,48.3992248 L102.085901,48.3402626 C84.2991427,48.3402626 80.9239172,61.6702454 80.9239172,70.2061514 L80.9239172,79.9303716 L67.3324053,79.9303716 L67.3324053,98.0725734 L80.9239172,98.0725734 L80.9239172,152.499179 L103.576437,152.499179 L103.576437,98.0725734 L121.023408,98.0725734 L122.912628,79.9303716 Z" id="Fill-256" fill="#FFFFFF"></path>
            </g>
        </g>
    </g>
</svg>