<?xml version="1.0" encoding="UTF-8" standalone="no"?>
<svg width="293px" height="213px" viewBox="0 0 293 213" version="1.1" xmlns="http://www.w3.org/2000/svg" xmlns:xlink="http://www.w3.org/1999/xlink">
    <!-- Generator: Sketch 39.1 (31720) - http://www.bohemiancoding.com/sketch -->
    <title>accessibility-white-ketchup-hex</title>
    <desc>Created with Sketch.</desc>
    <defs>
        <rect id="path-1" x="243" y="21" width="50" height="50" rx="25"></rect>
        <mask id="mask-2" maskContentUnits="userSpaceOnUse" maskUnits="objectBoundingBox" x="0" y="0" width="50" height="50" fill="white">
            <use xlink:href="#path-1"></use>
        </mask>
    </defs>
    <g id="Templates" stroke="none" stroke-width="1" fill="none" fill-rule="evenodd">
        <g id="25-colour-accessibility" transform="translate(-675.000000, -4158.000000)">
            <g id="accessibility-white-ketchup-hex" transform="translate(675.000000, 4158.000000)">
                <rect id="colours-use-2-copy-70" fill="#E3231D" transform="translate(28.000000, 46.000000) rotate(-90.000000) translate(-28.000000, -46.000000) " x="3" y="21" width="50" height="50" rx="25"></rect>
                <rect id="colours-use-2-copy-61" fill="#EB5B56" transform="translate(88.000000, 46.000000) rotate(-90.000000) translate(-88.000000, -46.000000) " x="63" y="21" width="50" height="50" rx="25"></rect>
                <rect id="colours-use-2-copy-62" fill="#F1918E" transform="translate(148.000000, 46.000000) rotate(-90.000000) translate(-148.000000, -46.000000) " x="123" y="21" width="50" height="50" rx="25"></rect>
                <rect id="colours-use-2-copy-63" fill="#F8C8C7" transform="translate(208.000000, 46.000000) rotate(-90.000000) translate(-208.000000, -46.000000) " x="183" y="21" width="50" height="50" rx="25"></rect>
                <use id="colours-use-2-copy-64" stroke="#F8C8C7" mask="url(#mask-2)" stroke-width="2" fill="#FEF4F4" transform="translate(268.000000, 46.000000) rotate(-90.000000) translate(-268.000000, -46.000000) " xlink:href="#path-1"></use>
                <rect id="colours-use-2-copy-65" fill="#DA241E" transform="translate(28.000000, 166.000000) rotate(-90.000000) translate(-28.000000, -166.000000) " x="3" y="141" width="50" height="50" rx="25"></rect>
                <rect id="colours-use-2-copy-66" fill="#B92923" transform="translate(88.000000, 166.000000) rotate(-90.000000) translate(-88.000000, -166.000000) " x="63" y="141" width="50" height="50" rx="25"></rect>
                <rect id="colours-use-2-copy-67" fill="#8E2E29" transform="translate(148.000000, 166.000000) rotate(-90.000000) translate(-148.000000, -166.000000) " x="123" y="141" width="50" height="50" rx="25"></rect>
                <rect id="colours-use-2-copy-68" fill="#633430" transform="translate(208.000000, 166.000000) rotate(-90.000000) translate(-208.000000, -166.000000) " x="183" y="141" width="50" height="50" rx="25"></rect>
                <rect id="colours-use-2-copy-69" fill="#423935" transform="translate(268.000000, 166.000000) rotate(-90.000000) translate(-268.000000, -166.000000) " x="243" y="141" width="50" height="50" rx="25"></rect>
                <polygon id="Star-1" fill="#D0011B" points="267 10.5 262.885503 12.663119 263.671302 8.08155948 260.342604 4.83688104 264.942752 4.16844052 267 0 269.057248 4.16844052 273.657396 4.83688104 270.328698 8.08155948 271.114497 12.663119"></polygon>
                <polygon id="Star-1" fill="#D0011B" points="205 10.5 200.885503 12.663119 201.671302 8.08155948 198.342604 4.83688104 202.942752 4.16844052 205 0 207.057248 4.16844052 211.657396 4.83688104 208.328698 8.08155948 209.114497 12.663119"></polygon>
                <polygon id="Star-1" fill="#D0011B" points="145 10.5 140.885503 12.663119 141.671302 8.08155948 138.342604 4.83688104 142.942752 4.16844052 145 0 147.057248 4.16844052 151.657396 4.83688104 148.328698 8.08155948 149.114497 12.663119"></polygon>
                <polygon id="Star-1" fill="#E69900" points="87 10.5 82.8855032 12.663119 83.6713022 8.08155948 80.3426044 4.83688104 84.9427516 4.16844052 87 0 89.0572484 4.16844052 93.6573956 4.83688104 90.3286978 8.08155948 91.1144968 12.663119"></polygon>
                <polygon id="Star-1" fill="#8AB82E" points="27 10.5 22.8855032 12.663119 23.6713022 8.08155948 20.3426044 4.83688104 24.9427516 4.16844052 27 0 29.0572484 4.16844052 33.6573956 4.83688104 30.3286978 8.08155948 31.1144968 12.663119"></polygon>
                <polygon id="Star-1" fill="#8AB82E" points="87 128.5 82.8855032 130.663119 83.6713022 126.081559 80.3426044 122.836881 84.9427516 122.168441 87 118 89.0572484 122.168441 93.6573956 122.836881 90.3286978 126.081559 91.1144968 130.663119"></polygon>
                <polygon id="Star-1" fill="#8AB82E" points="147 128.5 142.885503 130.663119 143.671302 126.081559 140.342604 122.836881 144.942752 122.168441 147 118 149.057248 122.168441 153.657396 122.836881 150.328698 126.081559 151.114497 130.663119"></polygon>
                <polygon id="Star-1" fill="#8AB82E" points="207 128.5 202.885503 130.663119 203.671302 126.081559 200.342604 122.836881 204.942752 122.168441 207 118 209.057248 122.168441 213.657396 122.836881 210.328698 126.081559 211.114497 130.663119"></polygon>
                <polygon id="Star-1" fill="#8AB82E" points="269 128.5 264.885503 130.663119 265.671302 126.081559 262.342604 122.836881 266.942752 122.168441 269 118 271.057248 122.168441 275.657396 122.836881 272.328698 126.081559 273.114497 130.663119"></polygon>
                <polygon id="Star-1" fill="#8AB82E" points="27 128.5 22.8855032 130.663119 23.6713022 126.081559 20.3426044 122.836881 24.9427516 122.168441 27 118 29.0572484 122.168441 33.6573956 122.836881 30.3286978 126.081559 31.1144968 130.663119"></polygon>
                <g id="%---convert-to-paths-before-SVG-" transform="translate(12.000000, 40.000000)" fill="#FFFFFF">
                    <path d="M2.432,10.848 C2.432,11.648 2.944,12.096 3.632,12.096 C4.32,12.096 4.832,11.648 4.832,10.848 L4.832,1.744 C4.832,1.104 4.448,0.608 3.76,0.608 L1.488,0.608 C0.8,0.608 0.4,1.152 0.4,1.712 C0.4,2.256 0.72,2.816 1.488,2.816 L2.432,2.816 L2.432,10.848 Z M10.512,10.016 C8.88,10.016 8.768,7.44 8.768,6.304 C8.768,5.088 8.88,2.592 10.512,2.592 C12.144,2.592 12.256,5.088 12.256,6.304 C12.256,7.44 12.144,10.016 10.512,10.016 L10.512,10.016 Z M10.512,12.192 C13.744,12.192 14.752,8.912 14.752,6.304 C14.752,3.696 13.744,0.416 10.512,0.416 C7.28,0.416 6.272,3.696 6.272,6.304 C6.272,8.912 7.28,12.192 10.512,12.192 L10.512,12.192 Z M19.696,10.016 C18.064,10.016 17.952,7.44 17.952,6.304 C17.952,5.088 18.064,2.592 19.696,2.592 C21.328,2.592 21.44,5.088 21.44,6.304 C21.44,7.44 21.328,10.016 19.696,10.016 L19.696,10.016 Z M19.696,12.192 C22.928,12.192 23.936,8.912 23.936,6.304 C23.936,3.696 22.928,0.416 19.696,0.416 C16.464,0.416 15.456,3.696 15.456,6.304 C15.456,8.912 16.464,12.192 19.696,12.192 L19.696,12.192 Z M27.248,3.952 C26.72,3.952 26.416,3.52 26.416,3.008 C26.416,2.496 26.72,2.048 27.248,2.048 C27.776,2.048 28.08,2.496 28.08,3.008 C28.08,3.52 27.776,3.952 27.248,3.952 L27.248,3.952 Z M27.248,5.584 C28.672,5.584 29.712,4.4 29.712,3.008 C29.712,1.616 28.672,0.416 27.248,0.416 C25.824,0.416 24.784,1.616 24.784,3.008 C24.784,4.4 25.824,5.584 27.248,5.584 L27.248,5.584 Z M32.88,12.192 C34.304,12.192 35.344,11.008 35.344,9.616 C35.344,8.224 34.304,7.024 32.88,7.024 C31.456,7.024 30.416,8.224 30.416,9.616 C30.416,11.008 31.456,12.192 32.88,12.192 L32.88,12.192 Z M32.88,10.56 C32.352,10.56 32.048,10.128 32.048,9.616 C32.048,9.104 32.352,8.656 32.88,8.656 C33.408,8.656 33.712,9.104 33.712,9.616 C33.712,10.128 33.408,10.56 32.88,10.56 L32.88,10.56 Z M26.672,10.816 C26.608,10.944 26.512,11.168 26.512,11.408 C26.512,11.888 27.008,12.288 27.424,12.288 C27.808,12.288 27.904,12.096 28.144,11.76 L33.52,1.696 C33.648,1.456 33.648,1.344 33.648,1.216 C33.648,0.72 33.2,0.32 32.704,0.32 C32.336,0.32 32.176,0.432 31.968,0.832 L26.672,10.816 Z" id="100%"></path>
                    <path d="M64.52,10.4 C64.408,10.624 64.36,10.768 64.36,10.96 C64.36,11.424 64.808,12.096 65.688,12.096 C66.408,12.096 66.584,11.776 67.032,10.88 L71,2.816 C71.192,2.416 71.368,2.08 71.368,1.76 C71.368,1.344 71.032,0.608 70.216,0.608 L64.424,0.608 C63.544,0.608 63.24,1.152 63.24,1.712 C63.24,2.256 63.56,2.816 64.424,2.816 L68.52,2.816 L64.52,10.4 Z M75.608,2.816 L78.616,2.816 C78.904,2.816 79.736,2.72 79.736,1.616 C79.736,1.04 79.304,0.608 78.568,0.608 L74.712,0.608 C73.944,0.608 73.64,0.88 73.464,2.128 L73.064,5.504 C73.048,5.68 73.016,5.84 73.016,6.048 C73.016,6.32 73.336,6.8 73.96,6.8 C74.776,6.8 74.92,6.272 75.848,6.272 C76.84,6.272 77.384,6.928 77.384,7.888 C77.384,8.896 76.808,9.984 75.688,9.984 C74.616,9.984 73.848,8.96 73.208,8.96 C72.616,8.96 72.12,9.456 72.12,10.048 C72.12,11.456 74.504,12.192 75.64,12.192 C78.408,12.192 79.88,10.432 79.88,7.76 C79.88,5.888 78.504,4.352 76.568,4.352 C76.168,4.352 75.752,4.432 75.368,4.512 L75.608,2.816 Z M83.752,3.952 C83.224,3.952 82.92,3.52 82.92,3.008 C82.92,2.496 83.224,2.048 83.752,2.048 C84.28,2.048 84.584,2.496 84.584,3.008 C84.584,3.52 84.28,3.952 83.752,3.952 L83.752,3.952 Z M83.752,5.584 C85.176,5.584 86.216,4.4 86.216,3.008 C86.216,1.616 85.176,0.416 83.752,0.416 C82.328,0.416 81.288,1.616 81.288,3.008 C81.288,4.4 82.328,5.584 83.752,5.584 L83.752,5.584 Z M89.384,12.192 C90.808,12.192 91.848,11.008 91.848,9.616 C91.848,8.224 90.808,7.024 89.384,7.024 C87.96,7.024 86.92,8.224 86.92,9.616 C86.92,11.008 87.96,12.192 89.384,12.192 L89.384,12.192 Z M89.384,10.56 C88.856,10.56 88.552,10.128 88.552,9.616 C88.552,9.104 88.856,8.656 89.384,8.656 C89.912,8.656 90.216,9.104 90.216,9.616 C90.216,10.128 89.912,10.56 89.384,10.56 L89.384,10.56 Z M83.176,10.816 C83.112,10.944 83.016,11.168 83.016,11.408 C83.016,11.888 83.512,12.288 83.928,12.288 C84.312,12.288 84.408,12.096 84.648,11.76 L90.024,1.696 C90.152,1.456 90.152,1.344 90.152,1.216 C90.152,0.72 89.704,0.32 89.208,0.32 C88.84,0.32 88.68,0.432 88.472,0.832 L83.176,10.816 Z" id="75%"></path>
                    <path d="M126,2.816 L129.008,2.816 C129.296,2.816 130.128,2.72 130.128,1.616 C130.128,1.04 129.696,0.608 128.96,0.608 L125.104,0.608 C124.336,0.608 124.032,0.88 123.856,2.128 L123.456,5.504 C123.44,5.68 123.408,5.84 123.408,6.048 C123.408,6.32 123.728,6.8 124.352,6.8 C125.168,6.8 125.312,6.272 126.24,6.272 C127.232,6.272 127.776,6.928 127.776,7.888 C127.776,8.896 127.2,9.984 126.08,9.984 C125.008,9.984 124.24,8.96 123.6,8.96 C123.008,8.96 122.512,9.456 122.512,10.048 C122.512,11.456 124.896,12.192 126.032,12.192 C128.8,12.192 130.272,10.432 130.272,7.76 C130.272,5.888 128.896,4.352 126.96,4.352 C126.56,4.352 126.144,4.432 125.76,4.512 L126,2.816 Z M135.776,10.016 C134.144,10.016 134.032,7.44 134.032,6.304 C134.032,5.088 134.144,2.592 135.776,2.592 C137.408,2.592 137.52,5.088 137.52,6.304 C137.52,7.44 137.408,10.016 135.776,10.016 L135.776,10.016 Z M135.776,12.192 C139.008,12.192 140.016,8.912 140.016,6.304 C140.016,3.696 139.008,0.416 135.776,0.416 C132.544,0.416 131.536,3.696 131.536,6.304 C131.536,8.912 132.544,12.192 135.776,12.192 L135.776,12.192 Z M143.328,3.952 C142.8,3.952 142.496,3.52 142.496,3.008 C142.496,2.496 142.8,2.048 143.328,2.048 C143.856,2.048 144.16,2.496 144.16,3.008 C144.16,3.52 143.856,3.952 143.328,3.952 L143.328,3.952 Z M143.328,5.584 C144.752,5.584 145.792,4.4 145.792,3.008 C145.792,1.616 144.752,0.416 143.328,0.416 C141.904,0.416 140.864,1.616 140.864,3.008 C140.864,4.4 141.904,5.584 143.328,5.584 L143.328,5.584 Z M148.96,12.192 C150.384,12.192 151.424,11.008 151.424,9.616 C151.424,8.224 150.384,7.024 148.96,7.024 C147.536,7.024 146.496,8.224 146.496,9.616 C146.496,11.008 147.536,12.192 148.96,12.192 L148.96,12.192 Z M148.96,10.56 C148.432,10.56 148.128,10.128 148.128,9.616 C148.128,9.104 148.432,8.656 148.96,8.656 C149.488,8.656 149.792,9.104 149.792,9.616 C149.792,10.128 149.488,10.56 148.96,10.56 L148.96,10.56 Z M142.752,10.816 C142.688,10.944 142.592,11.168 142.592,11.408 C142.592,11.888 143.088,12.288 143.504,12.288 C143.888,12.288 143.984,12.096 144.224,11.76 L149.6,1.696 C149.728,1.456 149.728,1.344 149.728,1.216 C149.728,0.72 149.28,0.32 148.784,0.32 C148.416,0.32 148.256,0.432 148.048,0.832 L142.752,10.816 Z" id="50%"></path>
                    <path d="M187.288,9.888 C188.648,8.176 191.128,5.968 191.128,3.744 C191.128,1.712 189.544,0.416 187.576,0.416 C185.608,0.416 183.816,2.032 183.816,4.048 C183.816,4.672 184.216,5.216 184.984,5.216 C186.52,5.216 185.64,2.624 187.48,2.624 C188.136,2.624 188.632,3.2 188.632,3.856 C188.632,4.432 188.36,4.928 188.072,5.344 C186.856,7.104 185.416,8.544 184.088,10.128 C183.928,10.32 183.72,10.608 183.72,10.944 C183.72,11.68 184.264,12 184.968,12 L190.312,12 C190.92,12 191.464,11.68 191.464,10.944 C191.464,10.208 190.92,9.888 190.216,9.888 L187.288,9.888 Z M196.184,2.816 L199.192,2.816 C199.48,2.816 200.312,2.72 200.312,1.616 C200.312,1.04 199.88,0.608 199.144,0.608 L195.288,0.608 C194.52,0.608 194.216,0.88 194.04,2.128 L193.64,5.504 C193.624,5.68 193.592,5.84 193.592,6.048 C193.592,6.32 193.912,6.8 194.536,6.8 C195.352,6.8 195.496,6.272 196.424,6.272 C197.416,6.272 197.96,6.928 197.96,7.888 C197.96,8.896 197.384,9.984 196.264,9.984 C195.192,9.984 194.424,8.96 193.784,8.96 C193.192,8.96 192.696,9.456 192.696,10.048 C192.696,11.456 195.08,12.192 196.216,12.192 C198.984,12.192 200.456,10.432 200.456,7.76 C200.456,5.888 199.08,4.352 197.144,4.352 C196.744,4.352 196.328,4.432 195.944,4.512 L196.184,2.816 Z M204.328,3.952 C203.8,3.952 203.496,3.52 203.496,3.008 C203.496,2.496 203.8,2.048 204.328,2.048 C204.856,2.048 205.16,2.496 205.16,3.008 C205.16,3.52 204.856,3.952 204.328,3.952 L204.328,3.952 Z M204.328,5.584 C205.752,5.584 206.792,4.4 206.792,3.008 C206.792,1.616 205.752,0.416 204.328,0.416 C202.904,0.416 201.864,1.616 201.864,3.008 C201.864,4.4 202.904,5.584 204.328,5.584 L204.328,5.584 Z M209.96,12.192 C211.384,12.192 212.424,11.008 212.424,9.616 C212.424,8.224 211.384,7.024 209.96,7.024 C208.536,7.024 207.496,8.224 207.496,9.616 C207.496,11.008 208.536,12.192 209.96,12.192 L209.96,12.192 Z M209.96,10.56 C209.432,10.56 209.128,10.128 209.128,9.616 C209.128,9.104 209.432,8.656 209.96,8.656 C210.488,8.656 210.792,9.104 210.792,9.616 C210.792,10.128 210.488,10.56 209.96,10.56 L209.96,10.56 Z M203.752,10.816 C203.688,10.944 203.592,11.168 203.592,11.408 C203.592,11.888 204.088,12.288 204.504,12.288 C204.888,12.288 204.984,12.096 205.224,11.76 L210.6,1.696 C210.728,1.456 210.728,1.344 210.728,1.216 C210.728,0.72 210.28,0.32 209.784,0.32 C209.416,0.32 209.256,0.432 209.048,0.832 L203.752,10.816 Z" id="25%"></path>
                    <path d="M251,2.816 L254.008,2.816 C254.296,2.816 255.128,2.72 255.128,1.616 C255.128,1.04 254.696,0.608 253.96,0.608 L250.104,0.608 C249.336,0.608 249.032,0.88 248.856,2.128 L248.456,5.504 C248.44,5.68 248.408,5.84 248.408,6.048 C248.408,6.32 248.728,6.8 249.352,6.8 C250.168,6.8 250.312,6.272 251.24,6.272 C252.232,6.272 252.776,6.928 252.776,7.888 C252.776,8.896 252.2,9.984 251.08,9.984 C250.008,9.984 249.24,8.96 248.6,8.96 C248.008,8.96 247.512,9.456 247.512,10.048 C247.512,11.456 249.896,12.192 251.032,12.192 C253.8,12.192 255.272,10.432 255.272,7.76 C255.272,5.888 253.896,4.352 251.96,4.352 C251.56,4.352 251.144,4.432 250.76,4.512 L251,2.816 Z M259.144,3.952 C258.616,3.952 258.312,3.52 258.312,3.008 C258.312,2.496 258.616,2.048 259.144,2.048 C259.672,2.048 259.976,2.496 259.976,3.008 C259.976,3.52 259.672,3.952 259.144,3.952 L259.144,3.952 Z M259.144,5.584 C260.568,5.584 261.608,4.4 261.608,3.008 C261.608,1.616 260.568,0.416 259.144,0.416 C257.72,0.416 256.68,1.616 256.68,3.008 C256.68,4.4 257.72,5.584 259.144,5.584 L259.144,5.584 Z M264.776,12.192 C266.2,12.192 267.24,11.008 267.24,9.616 C267.24,8.224 266.2,7.024 264.776,7.024 C263.352,7.024 262.312,8.224 262.312,9.616 C262.312,11.008 263.352,12.192 264.776,12.192 L264.776,12.192 Z M264.776,10.56 C264.248,10.56 263.944,10.128 263.944,9.616 C263.944,9.104 264.248,8.656 264.776,8.656 C265.304,8.656 265.608,9.104 265.608,9.616 C265.608,10.128 265.304,10.56 264.776,10.56 L264.776,10.56 Z M258.568,10.816 C258.504,10.944 258.408,11.168 258.408,11.408 C258.408,11.888 258.904,12.288 259.32,12.288 C259.704,12.288 259.8,12.096 260.04,11.76 L265.416,1.696 C265.544,1.456 265.544,1.344 265.544,1.216 C265.544,0.72 265.096,0.32 264.6,0.32 C264.232,0.32 264.072,0.432 263.864,0.832 L258.568,10.816 Z" id="5%"></path>
                    <path d="M7.592,120.416 C5.224,120.416 3.576,122.304 3.576,124.384 C3.576,126.272 5,127.968 6.92,127.968 C7.272,127.968 7.64,127.904 7.928,127.776 L7.96,127.808 C7.432,128.56 6.392,129.584 5.752,130.368 C5.56,130.608 5.416,130.8 5.416,131.024 C5.416,131.6 6.104,132.192 6.552,132.192 C6.68,132.192 6.856,132.192 7.032,132.08 C7.224,131.952 7.416,131.824 7.544,131.696 C9.16,130.192 11.608,126.8 11.608,124.384 C11.608,122.256 10.056,120.416 7.592,120.416 L7.592,120.416 Z M7.592,126.048 C6.584,126.048 6.072,125.232 6.072,124.384 C6.072,123.456 6.68,122.72 7.592,122.72 C8.552,122.72 9.112,123.488 9.112,124.384 C9.112,125.328 8.504,126.048 7.592,126.048 L7.592,126.048 Z M16.184,122.816 L19.192,122.816 C19.48,122.816 20.312,122.72 20.312,121.616 C20.312,121.04 19.88,120.608 19.144,120.608 L15.288,120.608 C14.52,120.608 14.216,120.88 14.04,122.128 L13.64,125.504 C13.624,125.68 13.592,125.84 13.592,126.048 C13.592,126.32 13.912,126.8 14.536,126.8 C15.352,126.8 15.496,126.272 16.424,126.272 C17.416,126.272 17.96,126.928 17.96,127.888 C17.96,128.896 17.384,129.984 16.264,129.984 C15.192,129.984 14.424,128.96 13.784,128.96 C13.192,128.96 12.696,129.456 12.696,130.048 C12.696,131.456 15.08,132.192 16.216,132.192 C18.984,132.192 20.456,130.432 20.456,127.76 C20.456,125.888 19.08,124.352 17.144,124.352 C16.744,124.352 16.328,124.432 15.944,124.512 L16.184,122.816 Z M24.328,123.952 C23.8,123.952 23.496,123.52 23.496,123.008 C23.496,122.496 23.8,122.048 24.328,122.048 C24.856,122.048 25.16,122.496 25.16,123.008 C25.16,123.52 24.856,123.952 24.328,123.952 L24.328,123.952 Z M24.328,125.584 C25.752,125.584 26.792,124.4 26.792,123.008 C26.792,121.616 25.752,120.416 24.328,120.416 C22.904,120.416 21.864,121.616 21.864,123.008 C21.864,124.4 22.904,125.584 24.328,125.584 L24.328,125.584 Z M29.96,132.192 C31.384,132.192 32.424,131.008 32.424,129.616 C32.424,128.224 31.384,127.024 29.96,127.024 C28.536,127.024 27.496,128.224 27.496,129.616 C27.496,131.008 28.536,132.192 29.96,132.192 L29.96,132.192 Z M29.96,130.56 C29.432,130.56 29.128,130.128 29.128,129.616 C29.128,129.104 29.432,128.656 29.96,128.656 C30.488,128.656 30.792,129.104 30.792,129.616 C30.792,130.128 30.488,130.56 29.96,130.56 L29.96,130.56 Z M23.752,130.816 C23.688,130.944 23.592,131.168 23.592,131.408 C23.592,131.888 24.088,132.288 24.504,132.288 C24.888,132.288 24.984,132.096 25.224,131.76 L30.6,121.696 C30.728,121.456 30.728,121.344 30.728,121.216 C30.728,120.72 30.28,120.32 29.784,120.32 C29.416,120.32 29.256,120.432 29.048,120.832 L23.752,130.816 Z" id="95%"></path>
                    <path d="M64.52,130.4 C64.408,130.624 64.36,130.768 64.36,130.96 C64.36,131.424 64.808,132.096 65.688,132.096 C66.408,132.096 66.584,131.776 67.032,130.88 L71,122.816 C71.192,122.416 71.368,122.08 71.368,121.76 C71.368,121.344 71.032,120.608 70.216,120.608 L64.424,120.608 C63.544,120.608 63.24,121.152 63.24,121.712 C63.24,122.256 63.56,122.816 64.424,122.816 L68.52,122.816 L64.52,130.4 Z M75.608,122.816 L78.616,122.816 C78.904,122.816 79.736,122.72 79.736,121.616 C79.736,121.04 79.304,120.608 78.568,120.608 L74.712,120.608 C73.944,120.608 73.64,120.88 73.464,122.128 L73.064,125.504 C73.048,125.68 73.016,125.84 73.016,126.048 C73.016,126.32 73.336,126.8 73.96,126.8 C74.776,126.8 74.92,126.272 75.848,126.272 C76.84,126.272 77.384,126.928 77.384,127.888 C77.384,128.896 76.808,129.984 75.688,129.984 C74.616,129.984 73.848,128.96 73.208,128.96 C72.616,128.96 72.12,129.456 72.12,130.048 C72.12,131.456 74.504,132.192 75.64,132.192 C78.408,132.192 79.88,130.432 79.88,127.76 C79.88,125.888 78.504,124.352 76.568,124.352 C76.168,124.352 75.752,124.432 75.368,124.512 L75.608,122.816 Z M83.752,123.952 C83.224,123.952 82.92,123.52 82.92,123.008 C82.92,122.496 83.224,122.048 83.752,122.048 C84.28,122.048 84.584,122.496 84.584,123.008 C84.584,123.52 84.28,123.952 83.752,123.952 L83.752,123.952 Z M83.752,125.584 C85.176,125.584 86.216,124.4 86.216,123.008 C86.216,121.616 85.176,120.416 83.752,120.416 C82.328,120.416 81.288,121.616 81.288,123.008 C81.288,124.4 82.328,125.584 83.752,125.584 L83.752,125.584 Z M89.384,132.192 C90.808,132.192 91.848,131.008 91.848,129.616 C91.848,128.224 90.808,127.024 89.384,127.024 C87.96,127.024 86.92,128.224 86.92,129.616 C86.92,131.008 87.96,132.192 89.384,132.192 L89.384,132.192 Z M89.384,130.56 C88.856,130.56 88.552,130.128 88.552,129.616 C88.552,129.104 88.856,128.656 89.384,128.656 C89.912,128.656 90.216,129.104 90.216,129.616 C90.216,130.128 89.912,130.56 89.384,130.56 L89.384,130.56 Z M83.176,130.816 C83.112,130.944 83.016,131.168 83.016,131.408 C83.016,131.888 83.512,132.288 83.928,132.288 C84.312,132.288 84.408,132.096 84.648,131.76 L90.024,121.696 C90.152,121.456 90.152,121.344 90.152,121.216 C90.152,120.72 89.704,120.32 89.208,120.32 C88.84,120.32 88.68,120.432 88.472,120.832 L83.176,130.816 Z" id="75%"></path>
                    <path d="M126,122.816 L129.008,122.816 C129.296,122.816 130.128,122.72 130.128,121.616 C130.128,121.04 129.696,120.608 128.96,120.608 L125.104,120.608 C124.336,120.608 124.032,120.88 123.856,122.128 L123.456,125.504 C123.44,125.68 123.408,125.84 123.408,126.048 C123.408,126.32 123.728,126.8 124.352,126.8 C125.168,126.8 125.312,126.272 126.24,126.272 C127.232,126.272 127.776,126.928 127.776,127.888 C127.776,128.896 127.2,129.984 126.08,129.984 C125.008,129.984 124.24,128.96 123.6,128.96 C123.008,128.96 122.512,129.456 122.512,130.048 C122.512,131.456 124.896,132.192 126.032,132.192 C128.8,132.192 130.272,130.432 130.272,127.76 C130.272,125.888 128.896,124.352 126.96,124.352 C126.56,124.352 126.144,124.432 125.76,124.512 L126,122.816 Z M135.776,130.016 C134.144,130.016 134.032,127.44 134.032,126.304 C134.032,125.088 134.144,122.592 135.776,122.592 C137.408,122.592 137.52,125.088 137.52,126.304 C137.52,127.44 137.408,130.016 135.776,130.016 L135.776,130.016 Z M135.776,132.192 C139.008,132.192 140.016,128.912 140.016,126.304 C140.016,123.696 139.008,120.416 135.776,120.416 C132.544,120.416 131.536,123.696 131.536,126.304 C131.536,128.912 132.544,132.192 135.776,132.192 L135.776,132.192 Z M143.328,123.952 C142.8,123.952 142.496,123.52 142.496,123.008 C142.496,122.496 142.8,122.048 143.328,122.048 C143.856,122.048 144.16,122.496 144.16,123.008 C144.16,123.52 143.856,123.952 143.328,123.952 L143.328,123.952 Z M143.328,125.584 C144.752,125.584 145.792,124.4 145.792,123.008 C145.792,121.616 144.752,120.416 143.328,120.416 C141.904,120.416 140.864,121.616 140.864,123.008 C140.864,124.4 141.904,125.584 143.328,125.584 L143.328,125.584 Z M148.96,132.192 C150.384,132.192 151.424,131.008 151.424,129.616 C151.424,128.224 150.384,127.024 148.96,127.024 C147.536,127.024 146.496,128.224 146.496,129.616 C146.496,131.008 147.536,132.192 148.96,132.192 L148.96,132.192 Z M148.96,130.56 C148.432,130.56 148.128,130.128 148.128,129.616 C148.128,129.104 148.432,128.656 148.96,128.656 C149.488,128.656 149.792,129.104 149.792,129.616 C149.792,130.128 149.488,130.56 148.96,130.56 L148.96,130.56 Z M142.752,130.816 C142.688,130.944 142.592,131.168 142.592,131.408 C142.592,131.888 143.088,132.288 143.504,132.288 C143.888,132.288 143.984,132.096 144.224,131.76 L149.6,121.696 C149.728,121.456 149.728,121.344 149.728,121.216 C149.728,120.72 149.28,120.32 148.784,120.32 C148.416,120.32 148.256,120.432 148.048,120.832 L142.752,130.816 Z" id="50%"></path>
                    <path d="M187.288,129.888 C188.648,128.176 191.128,125.968 191.128,123.744 C191.128,121.712 189.544,120.416 187.576,120.416 C185.608,120.416 183.816,122.032 183.816,124.048 C183.816,124.672 184.216,125.216 184.984,125.216 C186.52,125.216 185.64,122.624 187.48,122.624 C188.136,122.624 188.632,123.2 188.632,123.856 C188.632,124.432 188.36,124.928 188.072,125.344 C186.856,127.104 185.416,128.544 184.088,130.128 C183.928,130.32 183.72,130.608 183.72,130.944 C183.72,131.68 184.264,132 184.968,132 L190.312,132 C190.92,132 191.464,131.68 191.464,130.944 C191.464,130.208 190.92,129.888 190.216,129.888 L187.288,129.888 Z M196.184,122.816 L199.192,122.816 C199.48,122.816 200.312,122.72 200.312,121.616 C200.312,121.04 199.88,120.608 199.144,120.608 L195.288,120.608 C194.52,120.608 194.216,120.88 194.04,122.128 L193.64,125.504 C193.624,125.68 193.592,125.84 193.592,126.048 C193.592,126.32 193.912,126.8 194.536,126.8 C195.352,126.8 195.496,126.272 196.424,126.272 C197.416,126.272 197.96,126.928 197.96,127.888 C197.96,128.896 197.384,129.984 196.264,129.984 C195.192,129.984 194.424,128.96 193.784,128.96 C193.192,128.96 192.696,129.456 192.696,130.048 C192.696,131.456 195.08,132.192 196.216,132.192 C198.984,132.192 200.456,130.432 200.456,127.76 C200.456,125.888 199.08,124.352 197.144,124.352 C196.744,124.352 196.328,124.432 195.944,124.512 L196.184,122.816 Z M204.328,123.952 C203.8,123.952 203.496,123.52 203.496,123.008 C203.496,122.496 203.8,122.048 204.328,122.048 C204.856,122.048 205.16,122.496 205.16,123.008 C205.16,123.52 204.856,123.952 204.328,123.952 L204.328,123.952 Z M204.328,125.584 C205.752,125.584 206.792,124.4 206.792,123.008 C206.792,121.616 205.752,120.416 204.328,120.416 C202.904,120.416 201.864,121.616 201.864,123.008 C201.864,124.4 202.904,125.584 204.328,125.584 L204.328,125.584 Z M209.96,132.192 C211.384,132.192 212.424,131.008 212.424,129.616 C212.424,128.224 211.384,127.024 209.96,127.024 C208.536,127.024 207.496,128.224 207.496,129.616 C207.496,131.008 208.536,132.192 209.96,132.192 L209.96,132.192 Z M209.96,130.56 C209.432,130.56 209.128,130.128 209.128,129.616 C209.128,129.104 209.432,128.656 209.96,128.656 C210.488,128.656 210.792,129.104 210.792,129.616 C210.792,130.128 210.488,130.56 209.96,130.56 L209.96,130.56 Z M203.752,130.816 C203.688,130.944 203.592,131.168 203.592,131.408 C203.592,131.888 204.088,132.288 204.504,132.288 C204.888,132.288 204.984,132.096 205.224,131.76 L210.6,121.696 C210.728,121.456 210.728,121.344 210.728,121.216 C210.728,120.72 210.28,120.32 209.784,120.32 C209.416,120.32 209.256,120.432 209.048,120.832 L203.752,130.816 Z" id="25%"></path>
                    <path d="M251,122.816 L254.008,122.816 C254.296,122.816 255.128,122.72 255.128,121.616 C255.128,121.04 254.696,120.608 253.96,120.608 L250.104,120.608 C249.336,120.608 249.032,120.88 248.856,122.128 L248.456,125.504 C248.44,125.68 248.408,125.84 248.408,126.048 C248.408,126.32 248.728,126.8 249.352,126.8 C250.168,126.8 250.312,126.272 251.24,126.272 C252.232,126.272 252.776,126.928 252.776,127.888 C252.776,128.896 252.2,129.984 251.08,129.984 C250.008,129.984 249.24,128.96 248.6,128.96 C248.008,128.96 247.512,129.456 247.512,130.048 C247.512,131.456 249.896,132.192 251.032,132.192 C253.8,132.192 255.272,130.432 255.272,127.76 C255.272,125.888 253.896,124.352 251.96,124.352 C251.56,124.352 251.144,124.432 250.76,124.512 L251,122.816 Z M259.144,123.952 C258.616,123.952 258.312,123.52 258.312,123.008 C258.312,122.496 258.616,122.048 259.144,122.048 C259.672,122.048 259.976,122.496 259.976,123.008 C259.976,123.52 259.672,123.952 259.144,123.952 L259.144,123.952 Z M259.144,125.584 C260.568,125.584 261.608,124.4 261.608,123.008 C261.608,121.616 260.568,120.416 259.144,120.416 C257.72,120.416 256.68,121.616 256.68,123.008 C256.68,124.4 257.72,125.584 259.144,125.584 L259.144,125.584 Z M264.776,132.192 C266.2,132.192 267.24,131.008 267.24,129.616 C267.24,128.224 266.2,127.024 264.776,127.024 C263.352,127.024 262.312,128.224 262.312,129.616 C262.312,131.008 263.352,132.192 264.776,132.192 L264.776,132.192 Z M264.776,130.56 C264.248,130.56 263.944,130.128 263.944,129.616 C263.944,129.104 264.248,128.656 264.776,128.656 C265.304,128.656 265.608,129.104 265.608,129.616 C265.608,130.128 265.304,130.56 264.776,130.56 L264.776,130.56 Z M258.568,130.816 C258.504,130.944 258.408,131.168 258.408,131.408 C258.408,131.888 258.904,132.288 259.32,132.288 C259.704,132.288 259.8,132.096 260.04,131.76 L265.416,121.696 C265.544,121.456 265.544,121.344 265.544,121.216 C265.544,120.72 265.096,120.32 264.6,120.32 C264.232,120.32 264.072,120.432 263.864,120.832 L258.568,130.816 Z" id="5%"></path>
                </g>
                <g id="hex" transform="translate(0.000000, 79.199990)" fill="#4A4A4A">
                    <path d="M5.334,8.77600973 L6.314,8.77600973 C6.636,8.77600973 6.888,8.62200973 6.888,8.31400973 C6.888,8.00600973 6.636,7.85200973 6.314,7.85200973 L5.46,7.85200973 L5.754,5.78000973 L6.734,5.78000973 C7.056,5.78000973 7.308,5.64000973 7.308,5.31800973 C7.308,5.01000973 7.056,4.85600973 6.734,4.85600973 L5.88,4.85600973 L6.16,2.81200973 C6.202,2.54600973 6.23,2.37800973 6.23,2.22400973 C6.23,1.97200973 6.09,1.74800973 5.754,1.74800973 C5.39,1.74800973 5.264,1.93000973 5.222,2.25200973 L4.858,4.85600973 L3.192,4.85600973 L3.472,2.81200973 C3.514,2.54600973 3.542,2.37800973 3.542,2.22400973 C3.542,1.97200973 3.402,1.74800973 3.066,1.74800973 C2.702,1.74800973 2.576,1.93000973 2.534,2.25200973 L2.17,4.85600973 L1.19,4.85600973 C0.868,4.85600973 0.616,5.01000973 0.616,5.31800973 C0.616,5.62600973 0.868,5.78000973 1.19,5.78000973 L2.044,5.78000973 L1.75,7.85200973 L0.77,7.85200973 C0.448,7.85200973 0.196,7.99200973 0.196,8.31400973 C0.196,8.62200973 0.448,8.77600973 0.77,8.77600973 L1.624,8.77600973 L1.344,10.8200097 C1.302,11.0860097 1.274,11.2540097 1.274,11.4080097 C1.274,11.6600097 1.414,11.8840097 1.75,11.8840097 C2.114,11.8840097 2.24,11.7020097 2.282,11.3800097 L2.646,8.77600973 L4.312,8.77600973 L4.032,10.8200097 C3.99,11.0860097 3.962,11.2540097 3.962,11.4080097 C3.962,11.6600097 4.102,11.8840097 4.438,11.8840097 C4.802,11.8840097 4.928,11.7020097 4.97,11.3800097 L5.334,8.77600973 Z M4.438,7.85200973 L2.772,7.85200973 L3.066,5.78000973 L4.732,5.78000973 L4.438,7.85200973 Z M13.734,8.55200973 C14.266,8.55200973 14.42,8.32800973 14.42,7.89400973 C14.42,6.10200973 13.244,4.26800973 11.214,4.26800973 C9.128,4.26800973 7.868,6.06000973 7.868,8.07600973 C7.868,10.0500097 8.904,11.8840097 11.284,11.8840097 C12.74,11.8840097 14.266,10.9600097 14.266,10.3580097 C14.266,10.0080097 14.042,9.81200973 13.818,9.81200973 C13.356,9.81200973 12.936,10.8200097 11.298,10.8200097 C9.912,10.8200097 9.1,9.82600973 9.1,8.55200973 L13.734,8.55200973 Z M9.1,7.62800973 C9.142,6.49400973 9.688,5.27600973 11.214,5.33200973 C12.572,5.33200973 13.188,6.56400973 13.188,7.62800973 L9.1,7.62800973 Z M21.448,8.86000973 C21.448,7.72600973 20.86,6.77400973 19.74,6.43800973 C20.524,5.96200973 20.916,5.15000973 20.916,4.32400973 C20.916,2.92400973 19.922,1.74800973 18.326,1.74800973 C16.674,1.74800973 15.708,2.93800973 15.708,4.26800973 C15.708,4.59000973 15.918,4.84200973 16.268,4.84200973 C16.478,4.84200973 16.814,4.82800973 16.856,4.26800973 C16.926,3.51200973 17.29,2.81200973 18.27,2.81200973 C19.124,2.81200973 19.684,3.48400973 19.684,4.43600973 C19.684,5.34600973 19.278,5.82200973 18.284,6.04600973 C17.822,6.14400973 17.64,6.29800973 17.64,6.57800973 C17.64,6.90000973 17.906,7.11000973 18.396,7.11000973 C19.32,7.11000973 20.132,7.48800973 20.132,8.97200973 C20.132,9.99400973 19.348,10.8200097 18.242,10.8200097 C17.304,10.8200097 16.8,10.2600097 16.562,9.54600973 C16.422,9.11200973 16.24,8.90200973 15.876,8.90200973 C15.582,8.90200973 15.358,9.15400973 15.358,9.58800973 C15.358,10.3300097 16.198,11.8840097 18.27,11.8840097 C20.048,11.8840097 21.448,10.7500097 21.448,8.86000973 L21.448,8.86000973 Z M24.836,10.7360097 L28.182,6.28400973 C28.826,5.44400973 28.868,4.80000973 28.868,4.22600973 C28.868,2.93800973 27.832,1.74800973 26.18,1.74800973 C24.122,1.74800973 23.002,3.21800973 23.002,4.87000973 C23.002,5.38800973 23.212,5.62600973 23.604,5.62600973 C23.87,5.62600973 24.15,5.50000973 24.15,5.06600973 C24.15,3.82000973 24.78,2.81200973 25.97,2.81200973 C26.866,2.81200973 27.552,3.45600973 27.552,4.36600973 C27.552,4.96800973 27.244,5.58400973 26.824,6.13000973 L23.38,10.7360097 C23.17,11.0300097 23.114,11.1420097 23.114,11.2960097 C23.114,11.5060097 23.268,11.8000097 23.786,11.8000097 L28.616,11.8000097 C28.91,11.8000097 29.148,11.5620097 29.148,11.2680097 C29.148,10.9740097 28.91,10.7360097 28.616,10.7360097 L24.836,10.7360097 Z M36.456,8.86000973 C36.456,7.72600973 35.868,6.77400973 34.748,6.43800973 C35.532,5.96200973 35.924,5.15000973 35.924,4.32400973 C35.924,2.92400973 34.93,1.74800973 33.334,1.74800973 C31.682,1.74800973 30.716,2.93800973 30.716,4.26800973 C30.716,4.59000973 30.926,4.84200973 31.276,4.84200973 C31.486,4.84200973 31.822,4.82800973 31.864,4.26800973 C31.934,3.51200973 32.298,2.81200973 33.278,2.81200973 C34.132,2.81200973 34.692,3.48400973 34.692,4.43600973 C34.692,5.34600973 34.286,5.82200973 33.292,6.04600973 C32.83,6.14400973 32.648,6.29800973 32.648,6.57800973 C32.648,6.90000973 32.914,7.11000973 33.404,7.11000973 C34.328,7.11000973 35.14,7.48800973 35.14,8.97200973 C35.14,9.99400973 34.356,10.8200097 33.25,10.8200097 C32.312,10.8200097 31.808,10.2600097 31.57,9.54600973 C31.43,9.11200973 31.248,8.90200973 30.884,8.90200973 C30.59,8.90200973 30.366,9.15400973 30.366,9.58800973 C30.366,10.3300097 31.206,11.8840097 33.278,11.8840097 C35.056,11.8840097 36.456,10.7500097 36.456,8.86000973 L36.456,8.86000973 Z M39.592,11.2260097 C39.592,11.6320097 39.83,11.8840097 40.208,11.8840097 C40.586,11.8840097 40.824,11.6320097 40.824,11.2260097 L40.824,2.16800973 C40.824,1.86000973 40.684,1.83200973 40.446,1.83200973 L38.304,1.83200973 C38.01,1.83200973 37.772,2.07000973 37.772,2.36400973 C37.772,2.65800973 38.01,2.89600973 38.304,2.89600973 L39.592,2.89600973 L39.592,11.2260097 Z M48.034,8.07600973 C48.034,9.33600973 47.502,10.8200097 45.99,10.8200097 C44.478,10.8200097 43.946,9.33600973 43.946,8.07600973 C43.946,6.81600973 44.478,5.33200973 45.99,5.33200973 C47.502,5.33200973 48.034,6.81600973 48.034,8.07600973 L48.034,8.07600973 Z M47.908,11.2260097 C47.908,11.6320097 48.146,11.8840097 48.524,11.8840097 C48.902,11.8840097 49.14,11.6320097 49.14,11.2260097 L49.14,1.65000973 C49.14,1.24400973 48.902,0.992009727 48.524,0.992009727 C48.146,0.992009727 47.908,1.24400973 47.908,1.65000973 L47.908,5.27600973 L47.88,5.27600973 C47.558,4.81400973 46.872,4.26800973 45.892,4.26800973 C43.876,4.26800973 42.714,6.10200973 42.714,8.07600973 C42.714,10.0500097 43.876,11.8840097 45.892,11.8840097 C46.872,11.8840097 47.53,11.5340097 47.88,10.8620097 L47.908,10.8620097 L47.908,11.2260097 Z" id="#E3231D"></path>
                    <path d="M5.334,129.77601 L6.314,129.77601 C6.636,129.77601 6.888,129.62201 6.888,129.31401 C6.888,129.00601 6.636,128.85201 6.314,128.85201 L5.46,128.85201 L5.754,126.78001 L6.734,126.78001 C7.056,126.78001 7.308,126.64001 7.308,126.31801 C7.308,126.01001 7.056,125.85601 6.734,125.85601 L5.88,125.85601 L6.16,123.81201 C6.202,123.54601 6.23,123.37801 6.23,123.22401 C6.23,122.97201 6.09,122.74801 5.754,122.74801 C5.39,122.74801 5.264,122.93001 5.222,123.25201 L4.858,125.85601 L3.192,125.85601 L3.472,123.81201 C3.514,123.54601 3.542,123.37801 3.542,123.22401 C3.542,122.97201 3.402,122.74801 3.066,122.74801 C2.702,122.74801 2.576,122.93001 2.534,123.25201 L2.17,125.85601 L1.19,125.85601 C0.868,125.85601 0.616,126.01001 0.616,126.31801 C0.616,126.62601 0.868,126.78001 1.19,126.78001 L2.044,126.78001 L1.75,128.85201 L0.77,128.85201 C0.448,128.85201 0.196,128.99201 0.196,129.31401 C0.196,129.62201 0.448,129.77601 0.77,129.77601 L1.624,129.77601 L1.344,131.82001 C1.302,132.08601 1.274,132.25401 1.274,132.40801 C1.274,132.66001 1.414,132.88401 1.75,132.88401 C2.114,132.88401 2.24,132.70201 2.282,132.38001 L2.646,129.77601 L4.312,129.77601 L4.032,131.82001 C3.99,132.08601 3.962,132.25401 3.962,132.40801 C3.962,132.66001 4.102,132.88401 4.438,132.88401 C4.802,132.88401 4.928,132.70201 4.97,132.38001 L5.334,129.77601 Z M4.438,128.85201 L2.772,128.85201 L3.066,126.78001 L4.732,126.78001 L4.438,128.85201 Z M13.314,129.07601 C13.314,130.33601 12.782,131.82001 11.27,131.82001 C9.758,131.82001 9.226,130.33601 9.226,129.07601 C9.226,127.81601 9.758,126.33201 11.27,126.33201 C12.782,126.33201 13.314,127.81601 13.314,129.07601 L13.314,129.07601 Z M13.188,132.22601 C13.188,132.63201 13.426,132.88401 13.804,132.88401 C14.182,132.88401 14.42,132.63201 14.42,132.22601 L14.42,122.65001 C14.42,122.24401 14.182,121.99201 13.804,121.99201 C13.426,121.99201 13.188,122.24401 13.188,122.65001 L13.188,126.27601 L13.16,126.27601 C12.838,125.81401 12.152,125.26801 11.172,125.26801 C9.156,125.26801 7.994,127.10201 7.994,129.07601 C7.994,131.05001 9.156,132.88401 11.172,132.88401 C12.152,132.88401 12.81,132.53401 13.16,131.86201 L13.188,131.86201 L13.188,132.22601 Z M22.26,125.87001 C22.26,125.43601 21.924,125.26801 21.686,125.26801 C21.434,125.26801 21.112,125.43601 21.112,125.87001 L21.112,126.26201 L21.084,126.26201 C20.51,125.63201 19.908,125.26801 19.054,125.26801 C16.954,125.26801 15.778,127.10201 15.778,129.07601 C15.778,131.05001 16.954,132.88401 19.054,132.88401 C19.852,132.88401 20.552,132.52001 21.084,131.76401 L21.112,131.76401 L21.112,132.28201 C21.112,132.71601 21.434,132.88401 21.686,132.88401 C21.924,132.88401 22.26,132.71601 22.26,132.28201 L22.26,125.87001 Z M17.01,129.07601 C17.01,127.81601 17.542,126.33201 19.054,126.33201 C20.566,126.33201 21.098,127.81601 21.098,129.07601 C21.098,130.33601 20.566,131.82001 19.054,131.82001 C17.542,131.82001 17.01,130.33601 17.01,129.07601 L17.01,129.07601 Z M25.62,131.73601 L28.966,127.28401 C29.61,126.44401 29.652,125.80001 29.652,125.22601 C29.652,123.93801 28.616,122.74801 26.964,122.74801 C24.906,122.74801 23.786,124.21801 23.786,125.87001 C23.786,126.38801 23.996,126.62601 24.388,126.62601 C24.654,126.62601 24.934,126.50001 24.934,126.06601 C24.934,124.82001 25.564,123.81201 26.754,123.81201 C27.65,123.81201 28.336,124.45601 28.336,125.36601 C28.336,125.96801 28.028,126.58401 27.608,127.13001 L24.164,131.73601 C23.954,132.03001 23.898,132.14201 23.898,132.29601 C23.898,132.50601 24.052,132.80001 24.57,132.80001 L29.4,132.80001 C29.694,132.80001 29.932,132.56201 29.932,132.26801 C29.932,131.97401 29.694,131.73601 29.4,131.73601 L25.62,131.73601 Z M35.252,130.23801 L35.252,132.22601 C35.252,132.63201 35.49,132.88401 35.868,132.88401 C36.246,132.88401 36.484,132.63201 36.484,132.22601 L36.484,130.23801 L37.114,130.23801 C37.408,130.23801 37.646,130.00001 37.646,129.70601 C37.646,129.41201 37.408,129.17401 37.114,129.17401 L36.484,129.17401 L36.484,123.77001 C36.484,123.04201 36.092,122.74801 35.546,122.74801 C35.112,122.74801 34.832,122.88801 34.58,123.30801 L31.052,129.09001 C30.87,129.38401 30.744,129.62201 30.744,129.80401 C30.744,130.05601 30.856,130.23801 31.276,130.23801 L35.252,130.23801 Z M32.284,129.17401 L35.224,124.06401 L35.252,124.06401 L35.252,129.17401 L32.284,129.17401 Z M40.376,132.22601 C40.376,132.63201 40.614,132.88401 40.992,132.88401 C41.37,132.88401 41.608,132.63201 41.608,132.22601 L41.608,123.16801 C41.608,122.86001 41.468,122.83201 41.23,122.83201 L39.088,122.83201 C38.794,122.83201 38.556,123.07001 38.556,123.36401 C38.556,123.65801 38.794,123.89601 39.088,123.89601 L40.376,123.89601 L40.376,132.22601 Z M49.238,129.55201 C49.77,129.55201 49.924,129.32801 49.924,128.89401 C49.924,127.10201 48.748,125.26801 46.718,125.26801 C44.632,125.26801 43.372,127.06001 43.372,129.07601 C43.372,131.05001 44.408,132.88401 46.788,132.88401 C48.244,132.88401 49.77,131.96001 49.77,131.35801 C49.77,131.00801 49.546,130.81201 49.322,130.81201 C48.86,130.81201 48.44,131.82001 46.802,131.82001 C45.416,131.82001 44.604,130.82601 44.604,129.55201 L49.238,129.55201 Z M44.604,128.62801 C44.646,127.49401 45.192,126.27601 46.718,126.33201 C48.076,126.33201 48.692,127.56401 48.692,128.62801 L44.604,128.62801 Z" id="#DA241E"></path>
                    <path d="M185.334,129.77601 L186.314,129.77601 C186.636,129.77601 186.888,129.62201 186.888,129.31401 C186.888,129.00601 186.636,128.85201 186.314,128.85201 L185.46,128.85201 L185.754,126.78001 L186.734,126.78001 C187.056,126.78001 187.308,126.64001 187.308,126.31801 C187.308,126.01001 187.056,125.85601 186.734,125.85601 L185.88,125.85601 L186.16,123.81201 C186.202,123.54601 186.23,123.37801 186.23,123.22401 C186.23,122.97201 186.09,122.74801 185.754,122.74801 C185.39,122.74801 185.264,122.93001 185.222,123.25201 L184.858,125.85601 L183.192,125.85601 L183.472,123.81201 C183.514,123.54601 183.542,123.37801 183.542,123.22401 C183.542,122.97201 183.402,122.74801 183.066,122.74801 C182.702,122.74801 182.576,122.93001 182.534,123.25201 L182.17,125.85601 L181.19,125.85601 C180.868,125.85601 180.616,126.01001 180.616,126.31801 C180.616,126.62601 180.868,126.78001 181.19,126.78001 L182.044,126.78001 L181.75,128.85201 L180.77,128.85201 C180.448,128.85201 180.196,128.99201 180.196,129.31401 C180.196,129.62201 180.448,129.77601 180.77,129.77601 L181.624,129.77601 L181.344,131.82001 C181.302,132.08601 181.274,132.25401 181.274,132.40801 C181.274,132.66001 181.414,132.88401 181.75,132.88401 C182.114,132.88401 182.24,132.70201 182.282,132.38001 L182.646,129.77601 L184.312,129.77601 L184.032,131.82001 C183.99,132.08601 183.962,132.25401 183.962,132.40801 C183.962,132.66001 184.102,132.88401 184.438,132.88401 C184.802,132.88401 184.928,132.70201 184.97,132.38001 L185.334,129.77601 Z M184.438,128.85201 L182.772,128.85201 L183.066,126.78001 L184.732,126.78001 L184.438,128.85201 Z M191.228,132.88401 C192.992,132.88401 194.28,131.44201 194.28,129.63601 C194.28,127.90001 193.384,126.36001 191.76,126.36001 C191.088,126.36001 190.64,126.51401 190.178,126.75201 L190.15,126.75201 C190.906,125.36601 191.494,124.69401 192.292,123.98001 C192.642,123.67201 192.782,123.51801 192.782,123.32201 C192.782,122.94401 192.474,122.74801 192.278,122.74801 C192.11,122.74801 191.956,122.81801 191.704,123.02801 C190.192,124.30201 188.232,126.54201 188.232,129.45401 C188.232,131.44201 189.492,132.88401 191.228,132.88401 L191.228,132.88401 Z M189.464,129.58001 C189.464,128.43201 189.996,127.42401 191.214,127.42401 C192.432,127.42401 192.964,128.26401 192.964,129.58001 C192.964,130.74201 192.432,131.73601 191.214,131.73601 C189.996,131.73601 189.464,130.74201 189.464,129.58001 L189.464,129.58001 Z M201.672,129.86001 C201.672,128.72601 201.084,127.77401 199.964,127.43801 C200.748,126.96201 201.14,126.15001 201.14,125.32401 C201.14,123.92401 200.146,122.74801 198.55,122.74801 C196.898,122.74801 195.932,123.93801 195.932,125.26801 C195.932,125.59001 196.142,125.84201 196.492,125.84201 C196.702,125.84201 197.038,125.82801 197.08,125.26801 C197.15,124.51201 197.514,123.81201 198.494,123.81201 C199.348,123.81201 199.908,124.48401 199.908,125.43601 C199.908,126.34601 199.502,126.82201 198.508,127.04601 C198.046,127.14401 197.864,127.29801 197.864,127.57801 C197.864,127.90001 198.13,128.11001 198.62,128.11001 C199.544,128.11001 200.356,128.48801 200.356,129.97201 C200.356,130.99401 199.572,131.82001 198.466,131.82001 C197.528,131.82001 197.024,131.26001 196.786,130.54601 C196.646,130.11201 196.464,129.90201 196.1,129.90201 C195.806,129.90201 195.582,130.15401 195.582,130.58801 C195.582,131.33001 196.422,132.88401 198.494,132.88401 C200.272,132.88401 201.672,131.75001 201.672,129.86001 L201.672,129.86001 Z M209.176,129.86001 C209.176,128.72601 208.588,127.77401 207.468,127.43801 C208.252,126.96201 208.644,126.15001 208.644,125.32401 C208.644,123.92401 207.65,122.74801 206.054,122.74801 C204.402,122.74801 203.436,123.93801 203.436,125.26801 C203.436,125.59001 203.646,125.84201 203.996,125.84201 C204.206,125.84201 204.542,125.82801 204.584,125.26801 C204.654,124.51201 205.018,123.81201 205.998,123.81201 C206.852,123.81201 207.412,124.48401 207.412,125.43601 C207.412,126.34601 207.006,126.82201 206.012,127.04601 C205.55,127.14401 205.368,127.29801 205.368,127.57801 C205.368,127.90001 205.634,128.11001 206.124,128.11001 C207.048,128.11001 207.86,128.48801 207.86,129.97201 C207.86,130.99401 207.076,131.82001 205.97,131.82001 C205.032,131.82001 204.528,131.26001 204.29,130.54601 C204.15,130.11201 203.968,129.90201 203.604,129.90201 C203.31,129.90201 203.086,130.15401 203.086,130.58801 C203.086,131.33001 203.926,132.88401 205.998,132.88401 C207.776,132.88401 209.176,131.75001 209.176,129.86001 L209.176,129.86001 Z M214.692,130.23801 L214.692,132.22601 C214.692,132.63201 214.93,132.88401 215.308,132.88401 C215.686,132.88401 215.924,132.63201 215.924,132.22601 L215.924,130.23801 L216.554,130.23801 C216.848,130.23801 217.086,130.00001 217.086,129.70601 C217.086,129.41201 216.848,129.17401 216.554,129.17401 L215.924,129.17401 L215.924,123.77001 C215.924,123.04201 215.532,122.74801 214.986,122.74801 C214.552,122.74801 214.272,122.88801 214.02,123.30801 L210.492,129.09001 C210.31,129.38401 210.184,129.62201 210.184,129.80401 C210.184,130.05601 210.296,130.23801 210.716,130.23801 L214.692,130.23801 Z M211.724,129.17401 L214.664,124.06401 L214.692,124.06401 L214.692,129.17401 L211.724,129.17401 Z M224.184,129.86001 C224.184,128.72601 223.596,127.77401 222.476,127.43801 C223.26,126.96201 223.652,126.15001 223.652,125.32401 C223.652,123.92401 222.658,122.74801 221.062,122.74801 C219.41,122.74801 218.444,123.93801 218.444,125.26801 C218.444,125.59001 218.654,125.84201 219.004,125.84201 C219.214,125.84201 219.55,125.82801 219.592,125.26801 C219.662,124.51201 220.026,123.81201 221.006,123.81201 C221.86,123.81201 222.42,124.48401 222.42,125.43601 C222.42,126.34601 222.014,126.82201 221.02,127.04601 C220.558,127.14401 220.376,127.29801 220.376,127.57801 C220.376,127.90001 220.642,128.11001 221.132,128.11001 C222.056,128.11001 222.868,128.48801 222.868,129.97201 C222.868,130.99401 222.084,131.82001 220.978,131.82001 C220.04,131.82001 219.536,131.26001 219.298,130.54601 C219.158,130.11201 218.976,129.90201 218.612,129.90201 C218.318,129.90201 218.094,130.15401 218.094,130.58801 C218.094,131.33001 218.934,132.88401 221.006,132.88401 C222.784,132.88401 224.184,131.75001 224.184,129.86001 L224.184,129.86001 Z M225.486,127.81601 C225.486,131.02201 226.956,132.88401 228.776,132.88401 C230.596,132.88401 232.066,131.02201 232.066,127.81601 C232.066,124.61001 230.596,122.74801 228.776,122.74801 C226.956,122.74801 225.486,124.61001 225.486,127.81601 L225.486,127.81601 Z M226.802,127.81601 C226.802,125.03001 227.684,123.81201 228.776,123.81201 C229.868,123.81201 230.75,125.03001 230.75,127.81601 C230.75,130.60201 229.868,131.82001 228.776,131.82001 C227.684,131.82001 226.802,130.60201 226.802,127.81601 L226.802,127.81601 Z" id="#633430"></path>
                    <path d="M64.334,129.77601 L65.314,129.77601 C65.636,129.77601 65.888,129.62201 65.888,129.31401 C65.888,129.00601 65.636,128.85201 65.314,128.85201 L64.46,128.85201 L64.754,126.78001 L65.734,126.78001 C66.056,126.78001 66.308,126.64001 66.308,126.31801 C66.308,126.01001 66.056,125.85601 65.734,125.85601 L64.88,125.85601 L65.16,123.81201 C65.202,123.54601 65.23,123.37801 65.23,123.22401 C65.23,122.97201 65.09,122.74801 64.754,122.74801 C64.39,122.74801 64.264,122.93001 64.222,123.25201 L63.858,125.85601 L62.192,125.85601 L62.472,123.81201 C62.514,123.54601 62.542,123.37801 62.542,123.22401 C62.542,122.97201 62.402,122.74801 62.066,122.74801 C61.702,122.74801 61.576,122.93001 61.534,123.25201 L61.17,125.85601 L60.19,125.85601 C59.868,125.85601 59.616,126.01001 59.616,126.31801 C59.616,126.62601 59.868,126.78001 60.19,126.78001 L61.044,126.78001 L60.75,128.85201 L59.77,128.85201 C59.448,128.85201 59.196,128.99201 59.196,129.31401 C59.196,129.62201 59.448,129.77601 59.77,129.77601 L60.624,129.77601 L60.344,131.82001 C60.302,132.08601 60.274,132.25401 60.274,132.40801 C60.274,132.66001 60.414,132.88401 60.75,132.88401 C61.114,132.88401 61.24,132.70201 61.282,132.38001 L61.646,129.77601 L63.312,129.77601 L63.032,131.82001 C62.99,132.08601 62.962,132.25401 62.962,132.40801 C62.962,132.66001 63.102,132.88401 63.438,132.88401 C63.802,132.88401 63.928,132.70201 63.97,132.38001 L64.334,129.77601 Z M63.438,128.85201 L61.772,128.85201 L62.066,126.78001 L63.732,126.78001 L63.438,128.85201 Z M68.478,129.07601 C68.478,127.81601 69.01,126.33201 70.522,126.33201 C72.034,126.33201 72.566,127.81601 72.566,129.07601 C72.566,130.33601 72.034,131.82001 70.522,131.82001 C69.01,131.82001 68.478,130.33601 68.478,129.07601 L68.478,129.07601 Z M67.372,132.22601 C67.372,132.63201 67.61,132.88401 67.988,132.88401 C68.366,132.88401 68.604,132.63201 68.604,132.22601 L68.604,131.86201 L68.632,131.86201 C68.982,132.53401 69.64,132.88401 70.62,132.88401 C72.636,132.88401 73.798,131.05001 73.798,129.07601 C73.798,127.10201 72.636,125.26801 70.62,125.26801 C69.64,125.26801 68.954,125.81401 68.632,126.27601 L68.604,126.27601 L68.604,122.65001 C68.604,122.24401 68.366,121.99201 67.988,121.99201 C67.61,121.99201 67.372,122.24401 67.372,122.65001 L67.372,132.22601 Z M78.068,122.74801 C76.304,122.74801 75.016,124.19001 75.016,125.99601 C75.016,127.73201 75.912,129.27201 77.536,129.27201 C78.208,129.27201 78.656,129.11801 79.118,128.88001 L79.146,128.88001 C78.39,130.26601 77.802,130.93801 77.004,131.65201 C76.654,131.96001 76.514,132.11401 76.514,132.31001 C76.514,132.68801 76.822,132.88401 77.018,132.88401 C77.186,132.88401 77.34,132.81401 77.592,132.60401 C79.104,131.33001 81.064,129.09001 81.064,126.17801 C81.064,124.19001 79.804,122.74801 78.068,122.74801 L78.068,122.74801 Z M79.832,126.05201 C79.832,127.20001 79.3,128.20801 78.082,128.20801 C76.864,128.20801 76.332,127.36801 76.332,126.05201 C76.332,124.89001 76.864,123.89601 78.082,123.89601 C79.3,123.89601 79.832,124.89001 79.832,126.05201 L79.832,126.05201 Z M84.34,131.73601 L87.686,127.28401 C88.33,126.44401 88.372,125.80001 88.372,125.22601 C88.372,123.93801 87.336,122.74801 85.684,122.74801 C83.626,122.74801 82.506,124.21801 82.506,125.87001 C82.506,126.38801 82.716,126.62601 83.108,126.62601 C83.374,126.62601 83.654,126.50001 83.654,126.06601 C83.654,124.82001 84.284,123.81201 85.474,123.81201 C86.37,123.81201 87.056,124.45601 87.056,125.36601 C87.056,125.96801 86.748,126.58401 86.328,127.13001 L82.884,131.73601 C82.674,132.03001 82.618,132.14201 82.618,132.29601 C82.618,132.50601 82.772,132.80001 83.29,132.80001 L88.12,132.80001 C88.414,132.80001 88.652,132.56201 88.652,132.26801 C88.652,131.97401 88.414,131.73601 88.12,131.73601 L84.34,131.73601 Z M93.076,122.74801 C91.312,122.74801 90.024,124.19001 90.024,125.99601 C90.024,127.73201 90.92,129.27201 92.544,129.27201 C93.216,129.27201 93.664,129.11801 94.126,128.88001 L94.154,128.88001 C93.398,130.26601 92.81,130.93801 92.012,131.65201 C91.662,131.96001 91.522,132.11401 91.522,132.31001 C91.522,132.68801 91.83,132.88401 92.026,132.88401 C92.194,132.88401 92.348,132.81401 92.6,132.60401 C94.112,131.33001 96.072,129.09001 96.072,126.17801 C96.072,124.19001 94.812,122.74801 93.076,122.74801 L93.076,122.74801 Z M94.84,126.05201 C94.84,127.20001 94.308,128.20801 93.09,128.20801 C91.872,128.20801 91.34,127.36801 91.34,126.05201 C91.34,124.89001 91.872,123.89601 93.09,123.89601 C94.308,123.89601 94.84,124.89001 94.84,126.05201 L94.84,126.05201 Z M99.348,131.73601 L102.694,127.28401 C103.338,126.44401 103.38,125.80001 103.38,125.22601 C103.38,123.93801 102.344,122.74801 100.692,122.74801 C98.634,122.74801 97.514,124.21801 97.514,125.87001 C97.514,126.38801 97.724,126.62601 98.116,126.62601 C98.382,126.62601 98.662,126.50001 98.662,126.06601 C98.662,124.82001 99.292,123.81201 100.482,123.81201 C101.378,123.81201 102.064,124.45601 102.064,125.36601 C102.064,125.96801 101.756,126.58401 101.336,127.13001 L97.892,131.73601 C97.682,132.03001 97.626,132.14201 97.626,132.29601 C97.626,132.50601 97.78,132.80001 98.298,132.80001 L103.128,132.80001 C103.422,132.80001 103.66,132.56201 103.66,132.26801 C103.66,131.97401 103.422,131.73601 103.128,131.73601 L99.348,131.73601 Z M110.968,129.86001 C110.968,128.72601 110.38,127.77401 109.26,127.43801 C110.044,126.96201 110.436,126.15001 110.436,125.32401 C110.436,123.92401 109.442,122.74801 107.846,122.74801 C106.194,122.74801 105.228,123.93801 105.228,125.26801 C105.228,125.59001 105.438,125.84201 105.788,125.84201 C105.998,125.84201 106.334,125.82801 106.376,125.26801 C106.446,124.51201 106.81,123.81201 107.79,123.81201 C108.644,123.81201 109.204,124.48401 109.204,125.43601 C109.204,126.34601 108.798,126.82201 107.804,127.04601 C107.342,127.14401 107.16,127.29801 107.16,127.57801 C107.16,127.90001 107.426,128.11001 107.916,128.11001 C108.84,128.11001 109.652,128.48801 109.652,129.97201 C109.652,130.99401 108.868,131.82001 107.762,131.82001 C106.824,131.82001 106.32,131.26001 106.082,130.54601 C105.942,130.11201 105.76,129.90201 105.396,129.90201 C105.102,129.90201 104.878,130.15401 104.878,130.58801 C104.878,131.33001 105.718,132.88401 107.79,132.88401 C109.568,132.88401 110.968,131.75001 110.968,129.86001 L110.968,129.86001 Z" id="#B92923"></path>
                    <path d="M126.334,129.77601 L127.314,129.77601 C127.636,129.77601 127.888,129.62201 127.888,129.31401 C127.888,129.00601 127.636,128.85201 127.314,128.85201 L126.46,128.85201 L126.754,126.78001 L127.734,126.78001 C128.056,126.78001 128.308,126.64001 128.308,126.31801 C128.308,126.01001 128.056,125.85601 127.734,125.85601 L126.88,125.85601 L127.16,123.81201 C127.202,123.54601 127.23,123.37801 127.23,123.22401 C127.23,122.97201 127.09,122.74801 126.754,122.74801 C126.39,122.74801 126.264,122.93001 126.222,123.25201 L125.858,125.85601 L124.192,125.85601 L124.472,123.81201 C124.514,123.54601 124.542,123.37801 124.542,123.22401 C124.542,122.97201 124.402,122.74801 124.066,122.74801 C123.702,122.74801 123.576,122.93001 123.534,123.25201 L123.17,125.85601 L122.19,125.85601 C121.868,125.85601 121.616,126.01001 121.616,126.31801 C121.616,126.62601 121.868,126.78001 122.19,126.78001 L123.044,126.78001 L122.75,128.85201 L121.77,128.85201 C121.448,128.85201 121.196,128.99201 121.196,129.31401 C121.196,129.62201 121.448,129.77601 121.77,129.77601 L122.624,129.77601 L122.344,131.82001 C122.302,132.08601 122.274,132.25401 122.274,132.40801 C122.274,132.66001 122.414,132.88401 122.75,132.88401 C123.114,132.88401 123.24,132.70201 123.282,132.38001 L123.646,129.77601 L125.312,129.77601 L125.032,131.82001 C124.99,132.08601 124.962,132.25401 124.962,132.40801 C124.962,132.66001 125.102,132.88401 125.438,132.88401 C125.802,132.88401 125.928,132.70201 125.97,132.38001 L126.334,129.77601 Z M125.438,128.85201 L123.772,128.85201 L124.066,126.78001 L125.732,126.78001 L125.438,128.85201 Z M129.708,125.03001 C129.708,126.09401 130.114,126.68201 131.01,127.24201 C129.848,127.50801 129.204,128.57201 129.204,129.73401 C129.204,131.35801 130.31,132.88401 132.256,132.88401 C134.202,132.88401 135.308,131.35801 135.308,129.73401 C135.308,128.57201 134.664,127.50801 133.502,127.24201 C134.398,126.68201 134.804,126.09401 134.804,125.03001 C134.804,123.50401 133.516,122.74801 132.256,122.74801 C130.996,122.74801 129.708,123.50401 129.708,125.03001 L129.708,125.03001 Z M130.856,125.26801 C130.856,124.42801 131.374,123.81201 132.256,123.81201 C133.138,123.81201 133.656,124.42801 133.656,125.26801 C133.656,126.12201 133.138,126.73801 132.256,126.73801 C131.374,126.73801 130.856,126.12201 130.856,125.26801 L130.856,125.26801 Z M130.52,129.79001 C130.52,128.76801 131.108,127.80201 132.256,127.80201 C133.404,127.80201 133.992,128.76801 133.992,129.79001 C133.992,131.07801 133.18,131.82001 132.256,131.82001 C131.332,131.82001 130.52,131.07801 130.52,129.79001 L130.52,129.79001 Z M142.238,129.55201 C142.77,129.55201 142.924,129.32801 142.924,128.89401 C142.924,127.10201 141.748,125.26801 139.718,125.26801 C137.632,125.26801 136.372,127.06001 136.372,129.07601 C136.372,131.05001 137.408,132.88401 139.788,132.88401 C141.244,132.88401 142.77,131.96001 142.77,131.35801 C142.77,131.00801 142.546,130.81201 142.322,130.81201 C141.86,130.81201 141.44,131.82001 139.802,131.82001 C138.416,131.82001 137.604,130.82601 137.604,129.55201 L142.238,129.55201 Z M137.604,128.62801 C137.646,127.49401 138.192,126.27601 139.718,126.33201 C141.076,126.33201 141.692,127.56401 141.692,128.62801 L137.604,128.62801 Z M145.836,131.73601 L149.182,127.28401 C149.826,126.44401 149.868,125.80001 149.868,125.22601 C149.868,123.93801 148.832,122.74801 147.18,122.74801 C145.122,122.74801 144.002,124.21801 144.002,125.87001 C144.002,126.38801 144.212,126.62601 144.604,126.62601 C144.87,126.62601 145.15,126.50001 145.15,126.06601 C145.15,124.82001 145.78,123.81201 146.97,123.81201 C147.866,123.81201 148.552,124.45601 148.552,125.36601 C148.552,125.96801 148.244,126.58401 147.824,127.13001 L144.38,131.73601 C144.17,132.03001 144.114,132.14201 144.114,132.29601 C144.114,132.50601 144.268,132.80001 144.786,132.80001 L149.616,132.80001 C149.91,132.80001 150.148,132.56201 150.148,132.26801 C150.148,131.97401 149.91,131.73601 149.616,131.73601 L145.836,131.73601 Z M157.022,129.55201 C157.554,129.55201 157.708,129.32801 157.708,128.89401 C157.708,127.10201 156.532,125.26801 154.502,125.26801 C152.416,125.26801 151.156,127.06001 151.156,129.07601 C151.156,131.05001 152.192,132.88401 154.572,132.88401 C156.028,132.88401 157.554,131.96001 157.554,131.35801 C157.554,131.00801 157.33,130.81201 157.106,130.81201 C156.644,130.81201 156.224,131.82001 154.586,131.82001 C153.2,131.82001 152.388,130.82601 152.388,129.55201 L157.022,129.55201 Z M152.388,128.62801 C152.43,127.49401 152.976,126.27601 154.502,126.33201 C155.86,126.33201 156.476,127.56401 156.476,128.62801 L152.388,128.62801 Z M160.62,131.73601 L163.966,127.28401 C164.61,126.44401 164.652,125.80001 164.652,125.22601 C164.652,123.93801 163.616,122.74801 161.964,122.74801 C159.906,122.74801 158.786,124.21801 158.786,125.87001 C158.786,126.38801 158.996,126.62601 159.388,126.62601 C159.654,126.62601 159.934,126.50001 159.934,126.06601 C159.934,124.82001 160.564,123.81201 161.754,123.81201 C162.65,123.81201 163.336,124.45601 163.336,125.36601 C163.336,125.96801 163.028,126.58401 162.608,127.13001 L159.164,131.73601 C158.954,132.03001 158.898,132.14201 158.898,132.29601 C158.898,132.50601 159.052,132.80001 159.57,132.80001 L164.4,132.80001 C164.694,132.80001 164.932,132.56201 164.932,132.26801 C164.932,131.97401 164.694,131.73601 164.4,131.73601 L160.62,131.73601 Z M169.356,122.74801 C167.592,122.74801 166.304,124.19001 166.304,125.99601 C166.304,127.73201 167.2,129.27201 168.824,129.27201 C169.496,129.27201 169.944,129.11801 170.406,128.88001 L170.434,128.88001 C169.678,130.26601 169.09,130.93801 168.292,131.65201 C167.942,131.96001 167.802,132.11401 167.802,132.31001 C167.802,132.68801 168.11,132.88401 168.306,132.88401 C168.474,132.88401 168.628,132.81401 168.88,132.60401 C170.392,131.33001 172.352,129.09001 172.352,126.17801 C172.352,124.19001 171.092,122.74801 169.356,122.74801 L169.356,122.74801 Z M171.12,126.05201 C171.12,127.20001 170.588,128.20801 169.37,128.20801 C168.152,128.20801 167.62,127.36801 167.62,126.05201 C167.62,124.89001 168.152,123.89601 169.37,123.89601 C170.588,123.89601 171.12,124.89001 171.12,126.05201 L171.12,126.05201 Z" id="#8E2E29"></path>
                    <path d="M246.334,129.77601 L247.314,129.77601 C247.636,129.77601 247.888,129.62201 247.888,129.31401 C247.888,129.00601 247.636,128.85201 247.314,128.85201 L246.46,128.85201 L246.754,126.78001 L247.734,126.78001 C248.056,126.78001 248.308,126.64001 248.308,126.31801 C248.308,126.01001 248.056,125.85601 247.734,125.85601 L246.88,125.85601 L247.16,123.81201 C247.202,123.54601 247.23,123.37801 247.23,123.22401 C247.23,122.97201 247.09,122.74801 246.754,122.74801 C246.39,122.74801 246.264,122.93001 246.222,123.25201 L245.858,125.85601 L244.192,125.85601 L244.472,123.81201 C244.514,123.54601 244.542,123.37801 244.542,123.22401 C244.542,122.97201 244.402,122.74801 244.066,122.74801 C243.702,122.74801 243.576,122.93001 243.534,123.25201 L243.17,125.85601 L242.19,125.85601 C241.868,125.85601 241.616,126.01001 241.616,126.31801 C241.616,126.62601 241.868,126.78001 242.19,126.78001 L243.044,126.78001 L242.75,128.85201 L241.77,128.85201 C241.448,128.85201 241.196,128.99201 241.196,129.31401 C241.196,129.62201 241.448,129.77601 241.77,129.77601 L242.624,129.77601 L242.344,131.82001 C242.302,132.08601 242.274,132.25401 242.274,132.40801 C242.274,132.66001 242.414,132.88401 242.75,132.88401 C243.114,132.88401 243.24,132.70201 243.282,132.38001 L243.646,129.77601 L245.312,129.77601 L245.032,131.82001 C244.99,132.08601 244.962,132.25401 244.962,132.40801 C244.962,132.66001 245.102,132.88401 245.438,132.88401 C245.802,132.88401 245.928,132.70201 245.97,132.38001 L246.334,129.77601 Z M245.438,128.85201 L243.772,128.85201 L244.066,126.78001 L245.732,126.78001 L245.438,128.85201 Z M253.18,130.23801 L253.18,132.22601 C253.18,132.63201 253.418,132.88401 253.796,132.88401 C254.174,132.88401 254.412,132.63201 254.412,132.22601 L254.412,130.23801 L255.042,130.23801 C255.336,130.23801 255.574,130.00001 255.574,129.70601 C255.574,129.41201 255.336,129.17401 255.042,129.17401 L254.412,129.17401 L254.412,123.77001 C254.412,123.04201 254.02,122.74801 253.474,122.74801 C253.04,122.74801 252.76,122.88801 252.508,123.30801 L248.98,129.09001 C248.798,129.38401 248.672,129.62201 248.672,129.80401 C248.672,130.05601 248.784,130.23801 249.204,130.23801 L253.18,130.23801 Z M250.212,129.17401 L253.152,124.06401 L253.18,124.06401 L253.18,129.17401 L250.212,129.17401 Z M258.556,131.73601 L261.902,127.28401 C262.546,126.44401 262.588,125.80001 262.588,125.22601 C262.588,123.93801 261.552,122.74801 259.9,122.74801 C257.842,122.74801 256.722,124.21801 256.722,125.87001 C256.722,126.38801 256.932,126.62601 257.324,126.62601 C257.59,126.62601 257.87,126.50001 257.87,126.06601 C257.87,124.82001 258.5,123.81201 259.69,123.81201 C260.586,123.81201 261.272,124.45601 261.272,125.36601 C261.272,125.96801 260.964,126.58401 260.544,127.13001 L257.1,131.73601 C256.89,132.03001 256.834,132.14201 256.834,132.29601 C256.834,132.50601 256.988,132.80001 257.506,132.80001 L262.336,132.80001 C262.63,132.80001 262.868,132.56201 262.868,132.26801 C262.868,131.97401 262.63,131.73601 262.336,131.73601 L258.556,131.73601 Z M270.176,129.86001 C270.176,128.72601 269.588,127.77401 268.468,127.43801 C269.252,126.96201 269.644,126.15001 269.644,125.32401 C269.644,123.92401 268.65,122.74801 267.054,122.74801 C265.402,122.74801 264.436,123.93801 264.436,125.26801 C264.436,125.59001 264.646,125.84201 264.996,125.84201 C265.206,125.84201 265.542,125.82801 265.584,125.26801 C265.654,124.51201 266.018,123.81201 266.998,123.81201 C267.852,123.81201 268.412,124.48401 268.412,125.43601 C268.412,126.34601 268.006,126.82201 267.012,127.04601 C266.55,127.14401 266.368,127.29801 266.368,127.57801 C266.368,127.90001 266.634,128.11001 267.124,128.11001 C268.048,128.11001 268.86,128.48801 268.86,129.97201 C268.86,130.99401 268.076,131.82001 266.97,131.82001 C266.032,131.82001 265.528,131.26001 265.29,130.54601 C265.15,130.11201 264.968,129.90201 264.604,129.90201 C264.31,129.90201 264.086,130.15401 264.086,130.58801 C264.086,131.33001 264.926,132.88401 266.998,132.88401 C268.776,132.88401 270.176,131.75001 270.176,129.86001 L270.176,129.86001 Z M274.796,122.74801 C273.032,122.74801 271.744,124.19001 271.744,125.99601 C271.744,127.73201 272.64,129.27201 274.264,129.27201 C274.936,129.27201 275.384,129.11801 275.846,128.88001 L275.874,128.88001 C275.118,130.26601 274.53,130.93801 273.732,131.65201 C273.382,131.96001 273.242,132.11401 273.242,132.31001 C273.242,132.68801 273.55,132.88401 273.746,132.88401 C273.914,132.88401 274.068,132.81401 274.32,132.60401 C275.832,131.33001 277.792,129.09001 277.792,126.17801 C277.792,124.19001 276.532,122.74801 274.796,122.74801 L274.796,122.74801 Z M276.56,126.05201 C276.56,127.20001 276.028,128.20801 274.81,128.20801 C273.592,128.20801 273.06,127.36801 273.06,126.05201 C273.06,124.89001 273.592,123.89601 274.81,123.89601 C276.028,123.89601 276.56,124.89001 276.56,126.05201 L276.56,126.05201 Z M285.184,129.86001 C285.184,128.72601 284.596,127.77401 283.476,127.43801 C284.26,126.96201 284.652,126.15001 284.652,125.32401 C284.652,123.92401 283.658,122.74801 282.062,122.74801 C280.41,122.74801 279.444,123.93801 279.444,125.26801 C279.444,125.59001 279.654,125.84201 280.004,125.84201 C280.214,125.84201 280.55,125.82801 280.592,125.26801 C280.662,124.51201 281.026,123.81201 282.006,123.81201 C282.86,123.81201 283.42,124.48401 283.42,125.43601 C283.42,126.34601 283.014,126.82201 282.02,127.04601 C281.558,127.14401 281.376,127.29801 281.376,127.57801 C281.376,127.90001 281.642,128.11001 282.132,128.11001 C283.056,128.11001 283.868,128.48801 283.868,129.97201 C283.868,130.99401 283.084,131.82001 281.978,131.82001 C281.04,131.82001 280.536,131.26001 280.298,130.54601 C280.158,130.11201 279.976,129.90201 279.612,129.90201 C279.318,129.90201 279.094,130.15401 279.094,130.58801 C279.094,131.33001 279.934,132.88401 282.006,132.88401 C283.784,132.88401 285.184,131.75001 285.184,129.86001 L285.184,129.86001 Z M289.216,123.89601 L292.058,123.89601 C292.352,123.89601 292.59,123.65801 292.59,123.36401 C292.59,123.07001 292.352,122.83201 292.058,122.83201 L288.6,122.83201 C288.306,122.83201 288.18,122.90201 288.138,123.15401 L287.62,126.64001 C287.578,126.94801 287.522,127.31201 287.522,127.46601 C287.522,127.66201 287.648,127.84401 287.942,127.84401 C288.292,127.84401 288.726,127.46601 289.636,127.46601 C290.84,127.46601 291.358,128.40401 291.358,129.58001 C291.358,130.74201 290.644,131.73601 289.454,131.73601 C288.04,131.73601 287.592,130.70001 287.088,130.70001 C286.78,130.70001 286.64,130.98001 286.64,131.23201 C286.64,131.83401 287.788,132.88401 289.44,132.88401 C291.456,132.88401 292.674,131.48401 292.674,129.34201 C292.674,127.78801 291.68,126.31801 290.126,126.31801 C289.664,126.31801 289.216,126.38801 288.81,126.59801 L289.216,123.89601 Z" id="#423935"></path>
                </g>
            </g>
        </g>
    </g>
</svg>