<?xml version="1.0" encoding="UTF-8" standalone="no"?>
<svg width="290px" height="214px" viewBox="0 0 290 214" version="1.1" xmlns="http://www.w3.org/2000/svg" xmlns:xlink="http://www.w3.org/1999/xlink">
    <!-- Generator: Sketch 39.1 (31720) - http://www.bohemiancoding.com/sketch -->
    <title>25-accessibility-charcoal-sunshine-hex</title>
    <desc>Created with Sketch.</desc>
    <defs>
        <rect id="path-1" x="240" y="23" width="50" height="50" rx="25"></rect>
        <mask id="mask-2" maskContentUnits="userSpaceOnUse" maskUnits="objectBoundingBox" x="0" y="0" width="50" height="50" fill="white">
            <use xlink:href="#path-1"></use>
        </mask>
    </defs>
    <g id="Templates" stroke="none" stroke-width="1" fill="none" fill-rule="evenodd">
        <g id="25-colour-accessibility" transform="translate(-678.000000, -2422.000000)">
            <g id="25-accessibility-charcoal-sunshine-hex" transform="translate(678.000000, 2422.000000)">
                <rect id="colours-use-2-copy-70" fill="#FFED00" transform="translate(25.000000, 48.000000) rotate(-90.000000) translate(-25.000000, -48.000000) " x="0" y="23" width="50" height="50" rx="25"></rect>
                <rect id="colours-use-2-copy-61" fill="#FFF240" transform="translate(85.000000, 48.000000) rotate(-90.000000) translate(-85.000000, -48.000000) " x="60" y="23" width="50" height="50" rx="25"></rect>
                <rect id="colours-use-2-copy-62" fill="#FFF67F" transform="translate(145.000000, 48.000000) rotate(-90.000000) translate(-145.000000, -48.000000) " x="120" y="23" width="50" height="50" rx="25"></rect>
                <rect id="colours-use-2-copy-63" fill="#FFFBBF" transform="translate(205.000000, 48.000000) rotate(-90.000000) translate(-205.000000, -48.000000) " x="180" y="23" width="50" height="50" rx="25"></rect>
                <use id="colours-use-2-copy-64" stroke="#FFFBBF" mask="url(#mask-2)" stroke-width="2" fill="#FFFFF2" transform="translate(265.000000, 48.000000) rotate(-90.000000) translate(-265.000000, -48.000000) " xlink:href="#path-1"></use>
                <rect id="colours-use-2-copy-65" fill="#F4E302" transform="translate(25.000000, 168.000000) rotate(-90.000000) translate(-25.000000, -168.000000) " x="0" y="143" width="50" height="50" rx="25"></rect>
                <rect id="colours-use-2-copy-66" fill="#CDC00D" transform="translate(85.000000, 168.000000) rotate(-90.000000) translate(-85.000000, -168.000000) " x="60" y="143" width="50" height="50" rx="25"></rect>
                <rect id="colours-use-2-copy-67" fill="#9C931A" transform="translate(145.000000, 168.000000) rotate(-90.000000) translate(-145.000000, -168.000000) " x="120" y="143" width="50" height="50" rx="25"></rect>
                <rect id="colours-use-2-copy-68" fill="#6A6728" transform="translate(205.000000, 168.000000) rotate(-90.000000) translate(-205.000000, -168.000000) " x="180" y="143" width="50" height="50" rx="25"></rect>
                <rect id="colours-use-2-copy-69" fill="#434433" transform="translate(265.000000, 168.000000) rotate(-90.000000) translate(-265.000000, -168.000000) " x="240" y="143" width="50" height="50" rx="25"></rect>
                <polygon id="Star-1" fill="#8AB82E" points="264.657396 10.5 260.542899 12.663119 261.328698 8.08155948 258 4.83688104 262.600147 4.16844052 264.657396 0 266.714644 4.16844052 271.314791 4.83688104 267.986093 8.08155948 268.771892 12.663119"></polygon>
                <polygon id="Star-1" fill="#8AB82E" points="204.657396 10.5 200.542899 12.663119 201.328698 8.08155948 198 4.83688104 202.600147 4.16844052 204.657396 0 206.714644 4.16844052 211.314791 4.83688104 207.986093 8.08155948 208.771892 12.663119"></polygon>
                <polygon id="Star-1" fill="#8AB82E" points="143.657396 10.5 139.542899 12.663119 140.328698 8.08155948 137 4.83688104 141.600147 4.16844052 143.657396 0 145.714644 4.16844052 150.314791 4.83688104 146.986093 8.08155948 147.771892 12.663119"></polygon>
                <polygon id="Star-1" fill="#8AB82E" points="84.6573956 10.5 80.5428988 12.663119 81.3286978 8.08155948 78 4.83688104 82.6001472 4.16844052 84.6573956 0 86.714644 4.16844052 91.3147912 4.83688104 87.9860934 8.08155948 88.7718924 12.663119"></polygon>
                <polygon id="Star-1" fill="#8AB82E" points="24.6573956 10.5 20.5428988 12.663119 21.3286978 8.08155948 18 4.83688104 22.6001472 4.16844052 24.6573956 0 26.714644 4.16844052 31.3147912 4.83688104 27.9860934 8.08155948 28.7718924 12.663119"></polygon>
                <polygon id="Star-1" fill="#E69900" points="84.6573956 130.5 80.5428988 132.663119 81.3286978 128.081559 78 124.836881 82.6001472 124.168441 84.6573956 120 86.714644 124.168441 91.3147912 124.836881 87.9860934 128.081559 88.7718924 132.663119"></polygon>
                <polygon id="Star-1" fill="#D0021B" points="143.657396 130.5 139.542899 132.663119 140.328698 128.081559 137 124.836881 141.600147 124.168441 143.657396 120 145.714644 124.168441 150.314791 124.836881 146.986093 128.081559 147.771892 132.663119"></polygon>
                <polygon id="Star-1" fill="#D0021B" points="204.657396 130.5 200.542899 132.663119 201.328698 128.081559 198 124.836881 202.600147 124.168441 204.657396 120 206.714644 124.168441 211.314791 124.836881 207.986093 128.081559 208.771892 132.663119"></polygon>
                <polygon id="Star-1" fill="#D0021B" points="264.657396 130.5 260.542899 132.663119 261.328698 128.081559 258 124.836881 262.600147 124.168441 264.657396 120 266.714644 124.168441 271.314791 124.836881 267.986093 128.081559 268.771892 132.663119"></polygon>
                <polygon id="Star-1" fill="#8AB82E" points="24.6573956 130.5 20.5428988 132.663119 21.3286978 128.081559 18 124.836881 22.6001472 124.168441 24.6573956 120 26.714644 124.168441 31.3147912 124.836881 27.9860934 128.081559 28.7718924 132.663119"></polygon>
                <g id="%-" transform="translate(9.000000, 42.000000)" fill="#575756">
                    <path d="M2.432,10.848 C2.432,11.648 2.944,12.096 3.632,12.096 C4.32,12.096 4.832,11.648 4.832,10.848 L4.832,1.744 C4.832,1.104 4.448,0.608 3.76,0.608 L1.488,0.608 C0.8,0.608 0.4,1.152 0.4,1.712 C0.4,2.256 0.72,2.816 1.488,2.816 L2.432,2.816 L2.432,10.848 Z M10.512,10.016 C8.88,10.016 8.768,7.44 8.768,6.304 C8.768,5.088 8.88,2.592 10.512,2.592 C12.144,2.592 12.256,5.088 12.256,6.304 C12.256,7.44 12.144,10.016 10.512,10.016 L10.512,10.016 Z M10.512,12.192 C13.744,12.192 14.752,8.912 14.752,6.304 C14.752,3.696 13.744,0.416 10.512,0.416 C7.28,0.416 6.272,3.696 6.272,6.304 C6.272,8.912 7.28,12.192 10.512,12.192 L10.512,12.192 Z M19.696,10.016 C18.064,10.016 17.952,7.44 17.952,6.304 C17.952,5.088 18.064,2.592 19.696,2.592 C21.328,2.592 21.44,5.088 21.44,6.304 C21.44,7.44 21.328,10.016 19.696,10.016 L19.696,10.016 Z M19.696,12.192 C22.928,12.192 23.936,8.912 23.936,6.304 C23.936,3.696 22.928,0.416 19.696,0.416 C16.464,0.416 15.456,3.696 15.456,6.304 C15.456,8.912 16.464,12.192 19.696,12.192 L19.696,12.192 Z M27.248,3.952 C26.72,3.952 26.416,3.52 26.416,3.008 C26.416,2.496 26.72,2.048 27.248,2.048 C27.776,2.048 28.08,2.496 28.08,3.008 C28.08,3.52 27.776,3.952 27.248,3.952 L27.248,3.952 Z M27.248,5.584 C28.672,5.584 29.712,4.4 29.712,3.008 C29.712,1.616 28.672,0.416 27.248,0.416 C25.824,0.416 24.784,1.616 24.784,3.008 C24.784,4.4 25.824,5.584 27.248,5.584 L27.248,5.584 Z M32.88,12.192 C34.304,12.192 35.344,11.008 35.344,9.616 C35.344,8.224 34.304,7.024 32.88,7.024 C31.456,7.024 30.416,8.224 30.416,9.616 C30.416,11.008 31.456,12.192 32.88,12.192 L32.88,12.192 Z M32.88,10.56 C32.352,10.56 32.048,10.128 32.048,9.616 C32.048,9.104 32.352,8.656 32.88,8.656 C33.408,8.656 33.712,9.104 33.712,9.616 C33.712,10.128 33.408,10.56 32.88,10.56 L32.88,10.56 Z M26.672,10.816 C26.608,10.944 26.512,11.168 26.512,11.408 C26.512,11.888 27.008,12.288 27.424,12.288 C27.808,12.288 27.904,12.096 28.144,11.76 L33.52,1.696 C33.648,1.456 33.648,1.344 33.648,1.216 C33.648,0.72 33.2,0.32 32.704,0.32 C32.336,0.32 32.176,0.432 31.968,0.832 L26.672,10.816 Z" id="100%"></path>
                    <path d="M65.52,10.4 C65.408,10.624 65.36,10.768 65.36,10.96 C65.36,11.424 65.808,12.096 66.688,12.096 C67.408,12.096 67.584,11.776 68.032,10.88 L72,2.816 C72.192,2.416 72.368,2.08 72.368,1.76 C72.368,1.344 72.032,0.608 71.216,0.608 L65.424,0.608 C64.544,0.608 64.24,1.152 64.24,1.712 C64.24,2.256 64.56,2.816 65.424,2.816 L69.52,2.816 L65.52,10.4 Z M76.608,2.816 L79.616,2.816 C79.904,2.816 80.736,2.72 80.736,1.616 C80.736,1.04 80.304,0.608 79.568,0.608 L75.712,0.608 C74.944,0.608 74.64,0.88 74.464,2.128 L74.064,5.504 C74.048,5.68 74.016,5.84 74.016,6.048 C74.016,6.32 74.336,6.8 74.96,6.8 C75.776,6.8 75.92,6.272 76.848,6.272 C77.84,6.272 78.384,6.928 78.384,7.888 C78.384,8.896 77.808,9.984 76.688,9.984 C75.616,9.984 74.848,8.96 74.208,8.96 C73.616,8.96 73.12,9.456 73.12,10.048 C73.12,11.456 75.504,12.192 76.64,12.192 C79.408,12.192 80.88,10.432 80.88,7.76 C80.88,5.888 79.504,4.352 77.568,4.352 C77.168,4.352 76.752,4.432 76.368,4.512 L76.608,2.816 Z M84.752,3.952 C84.224,3.952 83.92,3.52 83.92,3.008 C83.92,2.496 84.224,2.048 84.752,2.048 C85.28,2.048 85.584,2.496 85.584,3.008 C85.584,3.52 85.28,3.952 84.752,3.952 L84.752,3.952 Z M84.752,5.584 C86.176,5.584 87.216,4.4 87.216,3.008 C87.216,1.616 86.176,0.416 84.752,0.416 C83.328,0.416 82.288,1.616 82.288,3.008 C82.288,4.4 83.328,5.584 84.752,5.584 L84.752,5.584 Z M90.384,12.192 C91.808,12.192 92.848,11.008 92.848,9.616 C92.848,8.224 91.808,7.024 90.384,7.024 C88.96,7.024 87.92,8.224 87.92,9.616 C87.92,11.008 88.96,12.192 90.384,12.192 L90.384,12.192 Z M90.384,10.56 C89.856,10.56 89.552,10.128 89.552,9.616 C89.552,9.104 89.856,8.656 90.384,8.656 C90.912,8.656 91.216,9.104 91.216,9.616 C91.216,10.128 90.912,10.56 90.384,10.56 L90.384,10.56 Z M84.176,10.816 C84.112,10.944 84.016,11.168 84.016,11.408 C84.016,11.888 84.512,12.288 84.928,12.288 C85.312,12.288 85.408,12.096 85.648,11.76 L91.024,1.696 C91.152,1.456 91.152,1.344 91.152,1.216 C91.152,0.72 90.704,0.32 90.208,0.32 C89.84,0.32 89.68,0.432 89.472,0.832 L84.176,10.816 Z" id="75%"></path>
                    <path d="M127,2.816 L130.008,2.816 C130.296,2.816 131.128,2.72 131.128,1.616 C131.128,1.04 130.696,0.608 129.96,0.608 L126.104,0.608 C125.336,0.608 125.032,0.88 124.856,2.128 L124.456,5.504 C124.44,5.68 124.408,5.84 124.408,6.048 C124.408,6.32 124.728,6.8 125.352,6.8 C126.168,6.8 126.312,6.272 127.24,6.272 C128.232,6.272 128.776,6.928 128.776,7.888 C128.776,8.896 128.2,9.984 127.08,9.984 C126.008,9.984 125.24,8.96 124.6,8.96 C124.008,8.96 123.512,9.456 123.512,10.048 C123.512,11.456 125.896,12.192 127.032,12.192 C129.8,12.192 131.272,10.432 131.272,7.76 C131.272,5.888 129.896,4.352 127.96,4.352 C127.56,4.352 127.144,4.432 126.76,4.512 L127,2.816 Z M136.776,10.016 C135.144,10.016 135.032,7.44 135.032,6.304 C135.032,5.088 135.144,2.592 136.776,2.592 C138.408,2.592 138.52,5.088 138.52,6.304 C138.52,7.44 138.408,10.016 136.776,10.016 L136.776,10.016 Z M136.776,12.192 C140.008,12.192 141.016,8.912 141.016,6.304 C141.016,3.696 140.008,0.416 136.776,0.416 C133.544,0.416 132.536,3.696 132.536,6.304 C132.536,8.912 133.544,12.192 136.776,12.192 L136.776,12.192 Z M144.328,3.952 C143.8,3.952 143.496,3.52 143.496,3.008 C143.496,2.496 143.8,2.048 144.328,2.048 C144.856,2.048 145.16,2.496 145.16,3.008 C145.16,3.52 144.856,3.952 144.328,3.952 L144.328,3.952 Z M144.328,5.584 C145.752,5.584 146.792,4.4 146.792,3.008 C146.792,1.616 145.752,0.416 144.328,0.416 C142.904,0.416 141.864,1.616 141.864,3.008 C141.864,4.4 142.904,5.584 144.328,5.584 L144.328,5.584 Z M149.96,12.192 C151.384,12.192 152.424,11.008 152.424,9.616 C152.424,8.224 151.384,7.024 149.96,7.024 C148.536,7.024 147.496,8.224 147.496,9.616 C147.496,11.008 148.536,12.192 149.96,12.192 L149.96,12.192 Z M149.96,10.56 C149.432,10.56 149.128,10.128 149.128,9.616 C149.128,9.104 149.432,8.656 149.96,8.656 C150.488,8.656 150.792,9.104 150.792,9.616 C150.792,10.128 150.488,10.56 149.96,10.56 L149.96,10.56 Z M143.752,10.816 C143.688,10.944 143.592,11.168 143.592,11.408 C143.592,11.888 144.088,12.288 144.504,12.288 C144.888,12.288 144.984,12.096 145.224,11.76 L150.6,1.696 C150.728,1.456 150.728,1.344 150.728,1.216 C150.728,0.72 150.28,0.32 149.784,0.32 C149.416,0.32 149.256,0.432 149.048,0.832 L143.752,10.816 Z" id="50%"></path>
                    <path d="M188.288,9.888 C189.648,8.176 192.128,5.968 192.128,3.744 C192.128,1.712 190.544,0.416 188.576,0.416 C186.608,0.416 184.816,2.032 184.816,4.048 C184.816,4.672 185.216,5.216 185.984,5.216 C187.52,5.216 186.64,2.624 188.48,2.624 C189.136,2.624 189.632,3.2 189.632,3.856 C189.632,4.432 189.36,4.928 189.072,5.344 C187.856,7.104 186.416,8.544 185.088,10.128 C184.928,10.32 184.72,10.608 184.72,10.944 C184.72,11.68 185.264,12 185.968,12 L191.312,12 C191.92,12 192.464,11.68 192.464,10.944 C192.464,10.208 191.92,9.888 191.216,9.888 L188.288,9.888 Z M197.184,2.816 L200.192,2.816 C200.48,2.816 201.312,2.72 201.312,1.616 C201.312,1.04 200.88,0.608 200.144,0.608 L196.288,0.608 C195.52,0.608 195.216,0.88 195.04,2.128 L194.64,5.504 C194.624,5.68 194.592,5.84 194.592,6.048 C194.592,6.32 194.912,6.8 195.536,6.8 C196.352,6.8 196.496,6.272 197.424,6.272 C198.416,6.272 198.96,6.928 198.96,7.888 C198.96,8.896 198.384,9.984 197.264,9.984 C196.192,9.984 195.424,8.96 194.784,8.96 C194.192,8.96 193.696,9.456 193.696,10.048 C193.696,11.456 196.08,12.192 197.216,12.192 C199.984,12.192 201.456,10.432 201.456,7.76 C201.456,5.888 200.08,4.352 198.144,4.352 C197.744,4.352 197.328,4.432 196.944,4.512 L197.184,2.816 Z M205.328,3.952 C204.8,3.952 204.496,3.52 204.496,3.008 C204.496,2.496 204.8,2.048 205.328,2.048 C205.856,2.048 206.16,2.496 206.16,3.008 C206.16,3.52 205.856,3.952 205.328,3.952 L205.328,3.952 Z M205.328,5.584 C206.752,5.584 207.792,4.4 207.792,3.008 C207.792,1.616 206.752,0.416 205.328,0.416 C203.904,0.416 202.864,1.616 202.864,3.008 C202.864,4.4 203.904,5.584 205.328,5.584 L205.328,5.584 Z M210.96,12.192 C212.384,12.192 213.424,11.008 213.424,9.616 C213.424,8.224 212.384,7.024 210.96,7.024 C209.536,7.024 208.496,8.224 208.496,9.616 C208.496,11.008 209.536,12.192 210.96,12.192 L210.96,12.192 Z M210.96,10.56 C210.432,10.56 210.128,10.128 210.128,9.616 C210.128,9.104 210.432,8.656 210.96,8.656 C211.488,8.656 211.792,9.104 211.792,9.616 C211.792,10.128 211.488,10.56 210.96,10.56 L210.96,10.56 Z M204.752,10.816 C204.688,10.944 204.592,11.168 204.592,11.408 C204.592,11.888 205.088,12.288 205.504,12.288 C205.888,12.288 205.984,12.096 206.224,11.76 L211.6,1.696 C211.728,1.456 211.728,1.344 211.728,1.216 C211.728,0.72 211.28,0.32 210.784,0.32 C210.416,0.32 210.256,0.432 210.048,0.832 L204.752,10.816 Z" id="25%"></path>
                    <path d="M252,2.816 L255.008,2.816 C255.296,2.816 256.128,2.72 256.128,1.616 C256.128,1.04 255.696,0.608 254.96,0.608 L251.104,0.608 C250.336,0.608 250.032,0.88 249.856,2.128 L249.456,5.504 C249.44,5.68 249.408,5.84 249.408,6.048 C249.408,6.32 249.728,6.8 250.352,6.8 C251.168,6.8 251.312,6.272 252.24,6.272 C253.232,6.272 253.776,6.928 253.776,7.888 C253.776,8.896 253.2,9.984 252.08,9.984 C251.008,9.984 250.24,8.96 249.6,8.96 C249.008,8.96 248.512,9.456 248.512,10.048 C248.512,11.456 250.896,12.192 252.032,12.192 C254.8,12.192 256.272,10.432 256.272,7.76 C256.272,5.888 254.896,4.352 252.96,4.352 C252.56,4.352 252.144,4.432 251.76,4.512 L252,2.816 Z M260.144,3.952 C259.616,3.952 259.312,3.52 259.312,3.008 C259.312,2.496 259.616,2.048 260.144,2.048 C260.672,2.048 260.976,2.496 260.976,3.008 C260.976,3.52 260.672,3.952 260.144,3.952 L260.144,3.952 Z M260.144,5.584 C261.568,5.584 262.608,4.4 262.608,3.008 C262.608,1.616 261.568,0.416 260.144,0.416 C258.72,0.416 257.68,1.616 257.68,3.008 C257.68,4.4 258.72,5.584 260.144,5.584 L260.144,5.584 Z M265.776,12.192 C267.2,12.192 268.24,11.008 268.24,9.616 C268.24,8.224 267.2,7.024 265.776,7.024 C264.352,7.024 263.312,8.224 263.312,9.616 C263.312,11.008 264.352,12.192 265.776,12.192 L265.776,12.192 Z M265.776,10.56 C265.248,10.56 264.944,10.128 264.944,9.616 C264.944,9.104 265.248,8.656 265.776,8.656 C266.304,8.656 266.608,9.104 266.608,9.616 C266.608,10.128 266.304,10.56 265.776,10.56 L265.776,10.56 Z M259.568,10.816 C259.504,10.944 259.408,11.168 259.408,11.408 C259.408,11.888 259.904,12.288 260.32,12.288 C260.704,12.288 260.8,12.096 261.04,11.76 L266.416,1.696 C266.544,1.456 266.544,1.344 266.544,1.216 C266.544,0.72 266.096,0.32 265.6,0.32 C265.232,0.32 265.072,0.432 264.864,0.832 L259.568,10.816 Z" id="5%"></path>
                    <path d="M8.592,120.416 C6.224,120.416 4.576,122.304 4.576,124.384 C4.576,126.272 6,127.968 7.92,127.968 C8.272,127.968 8.64,127.904 8.928,127.776 L8.96,127.808 C8.432,128.56 7.392,129.584 6.752,130.368 C6.56,130.608 6.416,130.8 6.416,131.024 C6.416,131.6 7.104,132.192 7.552,132.192 C7.68,132.192 7.856,132.192 8.032,132.08 C8.224,131.952 8.416,131.824 8.544,131.696 C10.16,130.192 12.608,126.8 12.608,124.384 C12.608,122.256 11.056,120.416 8.592,120.416 L8.592,120.416 Z M8.592,126.048 C7.584,126.048 7.072,125.232 7.072,124.384 C7.072,123.456 7.68,122.72 8.592,122.72 C9.552,122.72 10.112,123.488 10.112,124.384 C10.112,125.328 9.504,126.048 8.592,126.048 L8.592,126.048 Z M17.184,122.816 L20.192,122.816 C20.48,122.816 21.312,122.72 21.312,121.616 C21.312,121.04 20.88,120.608 20.144,120.608 L16.288,120.608 C15.52,120.608 15.216,120.88 15.04,122.128 L14.64,125.504 C14.624,125.68 14.592,125.84 14.592,126.048 C14.592,126.32 14.912,126.8 15.536,126.8 C16.352,126.8 16.496,126.272 17.424,126.272 C18.416,126.272 18.96,126.928 18.96,127.888 C18.96,128.896 18.384,129.984 17.264,129.984 C16.192,129.984 15.424,128.96 14.784,128.96 C14.192,128.96 13.696,129.456 13.696,130.048 C13.696,131.456 16.08,132.192 17.216,132.192 C19.984,132.192 21.456,130.432 21.456,127.76 C21.456,125.888 20.08,124.352 18.144,124.352 C17.744,124.352 17.328,124.432 16.944,124.512 L17.184,122.816 Z M25.328,123.952 C24.8,123.952 24.496,123.52 24.496,123.008 C24.496,122.496 24.8,122.048 25.328,122.048 C25.856,122.048 26.16,122.496 26.16,123.008 C26.16,123.52 25.856,123.952 25.328,123.952 L25.328,123.952 Z M25.328,125.584 C26.752,125.584 27.792,124.4 27.792,123.008 C27.792,121.616 26.752,120.416 25.328,120.416 C23.904,120.416 22.864,121.616 22.864,123.008 C22.864,124.4 23.904,125.584 25.328,125.584 L25.328,125.584 Z M30.96,132.192 C32.384,132.192 33.424,131.008 33.424,129.616 C33.424,128.224 32.384,127.024 30.96,127.024 C29.536,127.024 28.496,128.224 28.496,129.616 C28.496,131.008 29.536,132.192 30.96,132.192 L30.96,132.192 Z M30.96,130.56 C30.432,130.56 30.128,130.128 30.128,129.616 C30.128,129.104 30.432,128.656 30.96,128.656 C31.488,128.656 31.792,129.104 31.792,129.616 C31.792,130.128 31.488,130.56 30.96,130.56 L30.96,130.56 Z M24.752,130.816 C24.688,130.944 24.592,131.168 24.592,131.408 C24.592,131.888 25.088,132.288 25.504,132.288 C25.888,132.288 25.984,132.096 26.224,131.76 L31.6,121.696 C31.728,121.456 31.728,121.344 31.728,121.216 C31.728,120.72 31.28,120.32 30.784,120.32 C30.416,120.32 30.256,120.432 30.048,120.832 L24.752,130.816 Z" id="95%"></path>
                    <path d="M65.52,130.4 C65.408,130.624 65.36,130.768 65.36,130.96 C65.36,131.424 65.808,132.096 66.688,132.096 C67.408,132.096 67.584,131.776 68.032,130.88 L72,122.816 C72.192,122.416 72.368,122.08 72.368,121.76 C72.368,121.344 72.032,120.608 71.216,120.608 L65.424,120.608 C64.544,120.608 64.24,121.152 64.24,121.712 C64.24,122.256 64.56,122.816 65.424,122.816 L69.52,122.816 L65.52,130.4 Z M76.608,122.816 L79.616,122.816 C79.904,122.816 80.736,122.72 80.736,121.616 C80.736,121.04 80.304,120.608 79.568,120.608 L75.712,120.608 C74.944,120.608 74.64,120.88 74.464,122.128 L74.064,125.504 C74.048,125.68 74.016,125.84 74.016,126.048 C74.016,126.32 74.336,126.8 74.96,126.8 C75.776,126.8 75.92,126.272 76.848,126.272 C77.84,126.272 78.384,126.928 78.384,127.888 C78.384,128.896 77.808,129.984 76.688,129.984 C75.616,129.984 74.848,128.96 74.208,128.96 C73.616,128.96 73.12,129.456 73.12,130.048 C73.12,131.456 75.504,132.192 76.64,132.192 C79.408,132.192 80.88,130.432 80.88,127.76 C80.88,125.888 79.504,124.352 77.568,124.352 C77.168,124.352 76.752,124.432 76.368,124.512 L76.608,122.816 Z M84.752,123.952 C84.224,123.952 83.92,123.52 83.92,123.008 C83.92,122.496 84.224,122.048 84.752,122.048 C85.28,122.048 85.584,122.496 85.584,123.008 C85.584,123.52 85.28,123.952 84.752,123.952 L84.752,123.952 Z M84.752,125.584 C86.176,125.584 87.216,124.4 87.216,123.008 C87.216,121.616 86.176,120.416 84.752,120.416 C83.328,120.416 82.288,121.616 82.288,123.008 C82.288,124.4 83.328,125.584 84.752,125.584 L84.752,125.584 Z M90.384,132.192 C91.808,132.192 92.848,131.008 92.848,129.616 C92.848,128.224 91.808,127.024 90.384,127.024 C88.96,127.024 87.92,128.224 87.92,129.616 C87.92,131.008 88.96,132.192 90.384,132.192 L90.384,132.192 Z M90.384,130.56 C89.856,130.56 89.552,130.128 89.552,129.616 C89.552,129.104 89.856,128.656 90.384,128.656 C90.912,128.656 91.216,129.104 91.216,129.616 C91.216,130.128 90.912,130.56 90.384,130.56 L90.384,130.56 Z M84.176,130.816 C84.112,130.944 84.016,131.168 84.016,131.408 C84.016,131.888 84.512,132.288 84.928,132.288 C85.312,132.288 85.408,132.096 85.648,131.76 L91.024,121.696 C91.152,121.456 91.152,121.344 91.152,121.216 C91.152,120.72 90.704,120.32 90.208,120.32 C89.84,120.32 89.68,120.432 89.472,120.832 L84.176,130.816 Z" id="75%"></path>
                    <path d="M127,122.816 L130.008,122.816 C130.296,122.816 131.128,122.72 131.128,121.616 C131.128,121.04 130.696,120.608 129.96,120.608 L126.104,120.608 C125.336,120.608 125.032,120.88 124.856,122.128 L124.456,125.504 C124.44,125.68 124.408,125.84 124.408,126.048 C124.408,126.32 124.728,126.8 125.352,126.8 C126.168,126.8 126.312,126.272 127.24,126.272 C128.232,126.272 128.776,126.928 128.776,127.888 C128.776,128.896 128.2,129.984 127.08,129.984 C126.008,129.984 125.24,128.96 124.6,128.96 C124.008,128.96 123.512,129.456 123.512,130.048 C123.512,131.456 125.896,132.192 127.032,132.192 C129.8,132.192 131.272,130.432 131.272,127.76 C131.272,125.888 129.896,124.352 127.96,124.352 C127.56,124.352 127.144,124.432 126.76,124.512 L127,122.816 Z M136.776,130.016 C135.144,130.016 135.032,127.44 135.032,126.304 C135.032,125.088 135.144,122.592 136.776,122.592 C138.408,122.592 138.52,125.088 138.52,126.304 C138.52,127.44 138.408,130.016 136.776,130.016 L136.776,130.016 Z M136.776,132.192 C140.008,132.192 141.016,128.912 141.016,126.304 C141.016,123.696 140.008,120.416 136.776,120.416 C133.544,120.416 132.536,123.696 132.536,126.304 C132.536,128.912 133.544,132.192 136.776,132.192 L136.776,132.192 Z M144.328,123.952 C143.8,123.952 143.496,123.52 143.496,123.008 C143.496,122.496 143.8,122.048 144.328,122.048 C144.856,122.048 145.16,122.496 145.16,123.008 C145.16,123.52 144.856,123.952 144.328,123.952 L144.328,123.952 Z M144.328,125.584 C145.752,125.584 146.792,124.4 146.792,123.008 C146.792,121.616 145.752,120.416 144.328,120.416 C142.904,120.416 141.864,121.616 141.864,123.008 C141.864,124.4 142.904,125.584 144.328,125.584 L144.328,125.584 Z M149.96,132.192 C151.384,132.192 152.424,131.008 152.424,129.616 C152.424,128.224 151.384,127.024 149.96,127.024 C148.536,127.024 147.496,128.224 147.496,129.616 C147.496,131.008 148.536,132.192 149.96,132.192 L149.96,132.192 Z M149.96,130.56 C149.432,130.56 149.128,130.128 149.128,129.616 C149.128,129.104 149.432,128.656 149.96,128.656 C150.488,128.656 150.792,129.104 150.792,129.616 C150.792,130.128 150.488,130.56 149.96,130.56 L149.96,130.56 Z M143.752,130.816 C143.688,130.944 143.592,131.168 143.592,131.408 C143.592,131.888 144.088,132.288 144.504,132.288 C144.888,132.288 144.984,132.096 145.224,131.76 L150.6,121.696 C150.728,121.456 150.728,121.344 150.728,121.216 C150.728,120.72 150.28,120.32 149.784,120.32 C149.416,120.32 149.256,120.432 149.048,120.832 L143.752,130.816 Z" id="50%"></path>
                    <path d="M188.288,129.888 C189.648,128.176 192.128,125.968 192.128,123.744 C192.128,121.712 190.544,120.416 188.576,120.416 C186.608,120.416 184.816,122.032 184.816,124.048 C184.816,124.672 185.216,125.216 185.984,125.216 C187.52,125.216 186.64,122.624 188.48,122.624 C189.136,122.624 189.632,123.2 189.632,123.856 C189.632,124.432 189.36,124.928 189.072,125.344 C187.856,127.104 186.416,128.544 185.088,130.128 C184.928,130.32 184.72,130.608 184.72,130.944 C184.72,131.68 185.264,132 185.968,132 L191.312,132 C191.92,132 192.464,131.68 192.464,130.944 C192.464,130.208 191.92,129.888 191.216,129.888 L188.288,129.888 Z M197.184,122.816 L200.192,122.816 C200.48,122.816 201.312,122.72 201.312,121.616 C201.312,121.04 200.88,120.608 200.144,120.608 L196.288,120.608 C195.52,120.608 195.216,120.88 195.04,122.128 L194.64,125.504 C194.624,125.68 194.592,125.84 194.592,126.048 C194.592,126.32 194.912,126.8 195.536,126.8 C196.352,126.8 196.496,126.272 197.424,126.272 C198.416,126.272 198.96,126.928 198.96,127.888 C198.96,128.896 198.384,129.984 197.264,129.984 C196.192,129.984 195.424,128.96 194.784,128.96 C194.192,128.96 193.696,129.456 193.696,130.048 C193.696,131.456 196.08,132.192 197.216,132.192 C199.984,132.192 201.456,130.432 201.456,127.76 C201.456,125.888 200.08,124.352 198.144,124.352 C197.744,124.352 197.328,124.432 196.944,124.512 L197.184,122.816 Z M205.328,123.952 C204.8,123.952 204.496,123.52 204.496,123.008 C204.496,122.496 204.8,122.048 205.328,122.048 C205.856,122.048 206.16,122.496 206.16,123.008 C206.16,123.52 205.856,123.952 205.328,123.952 L205.328,123.952 Z M205.328,125.584 C206.752,125.584 207.792,124.4 207.792,123.008 C207.792,121.616 206.752,120.416 205.328,120.416 C203.904,120.416 202.864,121.616 202.864,123.008 C202.864,124.4 203.904,125.584 205.328,125.584 L205.328,125.584 Z M210.96,132.192 C212.384,132.192 213.424,131.008 213.424,129.616 C213.424,128.224 212.384,127.024 210.96,127.024 C209.536,127.024 208.496,128.224 208.496,129.616 C208.496,131.008 209.536,132.192 210.96,132.192 L210.96,132.192 Z M210.96,130.56 C210.432,130.56 210.128,130.128 210.128,129.616 C210.128,129.104 210.432,128.656 210.96,128.656 C211.488,128.656 211.792,129.104 211.792,129.616 C211.792,130.128 211.488,130.56 210.96,130.56 L210.96,130.56 Z M204.752,130.816 C204.688,130.944 204.592,131.168 204.592,131.408 C204.592,131.888 205.088,132.288 205.504,132.288 C205.888,132.288 205.984,132.096 206.224,131.76 L211.6,121.696 C211.728,121.456 211.728,121.344 211.728,121.216 C211.728,120.72 211.28,120.32 210.784,120.32 C210.416,120.32 210.256,120.432 210.048,120.832 L204.752,130.816 Z" id="25%"></path>
                    <path d="M252,122.816 L255.008,122.816 C255.296,122.816 256.128,122.72 256.128,121.616 C256.128,121.04 255.696,120.608 254.96,120.608 L251.104,120.608 C250.336,120.608 250.032,120.88 249.856,122.128 L249.456,125.504 C249.44,125.68 249.408,125.84 249.408,126.048 C249.408,126.32 249.728,126.8 250.352,126.8 C251.168,126.8 251.312,126.272 252.24,126.272 C253.232,126.272 253.776,126.928 253.776,127.888 C253.776,128.896 253.2,129.984 252.08,129.984 C251.008,129.984 250.24,128.96 249.6,128.96 C249.008,128.96 248.512,129.456 248.512,130.048 C248.512,131.456 250.896,132.192 252.032,132.192 C254.8,132.192 256.272,130.432 256.272,127.76 C256.272,125.888 254.896,124.352 252.96,124.352 C252.56,124.352 252.144,124.432 251.76,124.512 L252,122.816 Z M260.144,123.952 C259.616,123.952 259.312,123.52 259.312,123.008 C259.312,122.496 259.616,122.048 260.144,122.048 C260.672,122.048 260.976,122.496 260.976,123.008 C260.976,123.52 260.672,123.952 260.144,123.952 L260.144,123.952 Z M260.144,125.584 C261.568,125.584 262.608,124.4 262.608,123.008 C262.608,121.616 261.568,120.416 260.144,120.416 C258.72,120.416 257.68,121.616 257.68,123.008 C257.68,124.4 258.72,125.584 260.144,125.584 L260.144,125.584 Z M265.776,132.192 C267.2,132.192 268.24,131.008 268.24,129.616 C268.24,128.224 267.2,127.024 265.776,127.024 C264.352,127.024 263.312,128.224 263.312,129.616 C263.312,131.008 264.352,132.192 265.776,132.192 L265.776,132.192 Z M265.776,130.56 C265.248,130.56 264.944,130.128 264.944,129.616 C264.944,129.104 265.248,128.656 265.776,128.656 C266.304,128.656 266.608,129.104 266.608,129.616 C266.608,130.128 266.304,130.56 265.776,130.56 L265.776,130.56 Z M259.568,130.816 C259.504,130.944 259.408,131.168 259.408,131.408 C259.408,131.888 259.904,132.288 260.32,132.288 C260.704,132.288 260.8,132.096 261.04,131.76 L266.416,121.696 C266.544,121.456 266.544,121.344 266.544,121.216 C266.544,120.72 266.096,120.32 265.6,120.32 C265.232,120.32 265.072,120.432 264.864,120.832 L259.568,130.816 Z" id="5%"></path>
                </g>
                <g id="hex" transform="translate(1.000000, 82.000000)" fill="#4A4A4A">
                    <path d="M256.334,7.976 L257.314,7.976 C257.636,7.976 257.888,7.822 257.888,7.514 C257.888,7.206 257.636,7.052 257.314,7.052 L256.46,7.052 L256.754,4.98 L257.734,4.98 C258.056,4.98 258.308,4.84 258.308,4.518 C258.308,4.21 258.056,4.056 257.734,4.056 L256.88,4.056 L257.16,2.012 C257.202,1.746 257.23,1.578 257.23,1.424 C257.23,1.172 257.09,0.948 256.754,0.948 C256.39,0.948 256.264,1.13 256.222,1.452 L255.858,4.056 L254.192,4.056 L254.472,2.012 C254.514,1.746 254.542,1.578 254.542,1.424 C254.542,1.172 254.402,0.948 254.066,0.948 C253.702,0.948 253.576,1.13 253.534,1.452 L253.17,4.056 L252.19,4.056 C251.868,4.056 251.616,4.21 251.616,4.518 C251.616,4.826 251.868,4.98 252.19,4.98 L253.044,4.98 L252.75,7.052 L251.77,7.052 C251.448,7.052 251.196,7.192 251.196,7.514 C251.196,7.822 251.448,7.976 251.77,7.976 L252.624,7.976 L252.344,10.02 C252.302,10.286 252.274,10.454 252.274,10.608 C252.274,10.86 252.414,11.084 252.75,11.084 C253.114,11.084 253.24,10.902 253.282,10.58 L253.646,7.976 L255.312,7.976 L255.032,10.02 C254.99,10.286 254.962,10.454 254.962,10.608 C254.962,10.86 255.102,11.084 255.438,11.084 C255.802,11.084 255.928,10.902 255.97,10.58 L256.334,7.976 Z M255.438,7.052 L253.772,7.052 L254.066,4.98 L255.732,4.98 L255.438,7.052 Z M260.94,4.616 L261.71,4.616 C262.116,4.616 262.326,4.42 262.326,4.084 C262.326,3.748 262.116,3.552 261.71,3.552 L260.94,3.552 L260.94,1.746 C260.94,1.438 261.066,1.256 261.444,1.256 L261.752,1.256 C262.214,1.256 262.424,1.06 262.424,0.724 C262.424,0.388 262.046,0.192 261.724,0.192 L261.346,0.192 C260.45,0.192 259.708,0.724 259.708,1.802 L259.708,3.552 L259.204,3.552 C258.798,3.552 258.588,3.748 258.588,4.084 C258.588,4.42 258.798,4.616 259.204,4.616 L259.708,4.616 L259.708,10.426 C259.708,10.832 259.946,11.084 260.324,11.084 C260.702,11.084 260.94,10.832 260.94,10.426 L260.94,4.616 Z M264.566,4.616 L265.336,4.616 C265.742,4.616 265.952,4.42 265.952,4.084 C265.952,3.748 265.742,3.552 265.336,3.552 L264.566,3.552 L264.566,1.746 C264.566,1.438 264.692,1.256 265.07,1.256 L265.378,1.256 C265.84,1.256 266.05,1.06 266.05,0.724 C266.05,0.388 265.672,0.192 265.35,0.192 L264.972,0.192 C264.076,0.192 263.334,0.724 263.334,1.802 L263.334,3.552 L262.83,3.552 C262.424,3.552 262.214,3.748 262.214,4.084 C262.214,4.42 262.424,4.616 262.83,4.616 L263.334,4.616 L263.334,10.426 C263.334,10.832 263.572,11.084 263.95,11.084 C264.328,11.084 264.566,10.832 264.566,10.426 L264.566,4.616 Z M268.192,4.616 L268.962,4.616 C269.368,4.616 269.578,4.42 269.578,4.084 C269.578,3.748 269.368,3.552 268.962,3.552 L268.192,3.552 L268.192,1.746 C268.192,1.438 268.318,1.256 268.696,1.256 L269.004,1.256 C269.466,1.256 269.676,1.06 269.676,0.724 C269.676,0.388 269.298,0.192 268.976,0.192 L268.598,0.192 C267.702,0.192 266.96,0.724 266.96,1.802 L266.96,3.552 L266.456,3.552 C266.05,3.552 265.84,3.748 265.84,4.084 C265.84,4.42 266.05,4.616 266.456,4.616 L266.96,4.616 L266.96,10.426 C266.96,10.832 267.198,11.084 267.576,11.084 C267.954,11.084 268.192,10.832 268.192,10.426 L268.192,4.616 Z M271.818,4.616 L272.588,4.616 C272.994,4.616 273.204,4.42 273.204,4.084 C273.204,3.748 272.994,3.552 272.588,3.552 L271.818,3.552 L271.818,1.746 C271.818,1.438 271.944,1.256 272.322,1.256 L272.63,1.256 C273.092,1.256 273.302,1.06 273.302,0.724 C273.302,0.388 272.924,0.192 272.602,0.192 L272.224,0.192 C271.328,0.192 270.586,0.724 270.586,1.802 L270.586,3.552 L270.082,3.552 C269.676,3.552 269.466,3.748 269.466,4.084 C269.466,4.42 269.676,4.616 270.082,4.616 L270.586,4.616 L270.586,10.426 C270.586,10.832 270.824,11.084 271.202,11.084 C271.58,11.084 271.818,10.832 271.818,10.426 L271.818,4.616 Z M275.444,4.616 L276.214,4.616 C276.62,4.616 276.83,4.42 276.83,4.084 C276.83,3.748 276.62,3.552 276.214,3.552 L275.444,3.552 L275.444,1.746 C275.444,1.438 275.57,1.256 275.948,1.256 L276.256,1.256 C276.718,1.256 276.928,1.06 276.928,0.724 C276.928,0.388 276.55,0.192 276.228,0.192 L275.85,0.192 C274.954,0.192 274.212,0.724 274.212,1.802 L274.212,3.552 L273.708,3.552 C273.302,3.552 273.092,3.748 273.092,4.084 C273.092,4.42 273.302,4.616 273.708,4.616 L274.212,4.616 L274.212,10.426 C274.212,10.832 274.45,11.084 274.828,11.084 C275.206,11.084 275.444,10.832 275.444,10.426 L275.444,4.616 Z M279.182,9.936 L282.528,5.484 C283.172,4.644 283.214,4 283.214,3.426 C283.214,2.138 282.178,0.948 280.526,0.948 C278.468,0.948 277.348,2.418 277.348,4.07 C277.348,4.588 277.558,4.826 277.95,4.826 C278.216,4.826 278.496,4.7 278.496,4.266 C278.496,3.02 279.126,2.012 280.316,2.012 C281.212,2.012 281.898,2.656 281.898,3.566 C281.898,4.168 281.59,4.784 281.17,5.33 L277.726,9.936 C277.516,10.23 277.46,10.342 277.46,10.496 C277.46,10.706 277.614,11 278.132,11 L282.962,11 C283.256,11 283.494,10.762 283.494,10.468 C283.494,10.174 283.256,9.936 282.962,9.936 L279.182,9.936 Z" id="#FFFFF2"></path>
                    <path d="M194.334,7.976 L195.314,7.976 C195.636,7.976 195.888,7.822 195.888,7.514 C195.888,7.206 195.636,7.052 195.314,7.052 L194.46,7.052 L194.754,4.98 L195.734,4.98 C196.056,4.98 196.308,4.84 196.308,4.518 C196.308,4.21 196.056,4.056 195.734,4.056 L194.88,4.056 L195.16,2.012 C195.202,1.746 195.23,1.578 195.23,1.424 C195.23,1.172 195.09,0.948 194.754,0.948 C194.39,0.948 194.264,1.13 194.222,1.452 L193.858,4.056 L192.192,4.056 L192.472,2.012 C192.514,1.746 192.542,1.578 192.542,1.424 C192.542,1.172 192.402,0.948 192.066,0.948 C191.702,0.948 191.576,1.13 191.534,1.452 L191.17,4.056 L190.19,4.056 C189.868,4.056 189.616,4.21 189.616,4.518 C189.616,4.826 189.868,4.98 190.19,4.98 L191.044,4.98 L190.75,7.052 L189.77,7.052 C189.448,7.052 189.196,7.192 189.196,7.514 C189.196,7.822 189.448,7.976 189.77,7.976 L190.624,7.976 L190.344,10.02 C190.302,10.286 190.274,10.454 190.274,10.608 C190.274,10.86 190.414,11.084 190.75,11.084 C191.114,11.084 191.24,10.902 191.282,10.58 L191.646,7.976 L193.312,7.976 L193.032,10.02 C192.99,10.286 192.962,10.454 192.962,10.608 C192.962,10.86 193.102,11.084 193.438,11.084 C193.802,11.084 193.928,10.902 193.97,10.58 L194.334,7.976 Z M193.438,7.052 L191.772,7.052 L192.066,4.98 L193.732,4.98 L193.438,7.052 Z M198.94,4.616 L199.71,4.616 C200.116,4.616 200.326,4.42 200.326,4.084 C200.326,3.748 200.116,3.552 199.71,3.552 L198.94,3.552 L198.94,1.746 C198.94,1.438 199.066,1.256 199.444,1.256 L199.752,1.256 C200.214,1.256 200.424,1.06 200.424,0.724 C200.424,0.388 200.046,0.192 199.724,0.192 L199.346,0.192 C198.45,0.192 197.708,0.724 197.708,1.802 L197.708,3.552 L197.204,3.552 C196.798,3.552 196.588,3.748 196.588,4.084 C196.588,4.42 196.798,4.616 197.204,4.616 L197.708,4.616 L197.708,10.426 C197.708,10.832 197.946,11.084 198.324,11.084 C198.702,11.084 198.94,10.832 198.94,10.426 L198.94,4.616 Z M202.566,4.616 L203.336,4.616 C203.742,4.616 203.952,4.42 203.952,4.084 C203.952,3.748 203.742,3.552 203.336,3.552 L202.566,3.552 L202.566,1.746 C202.566,1.438 202.692,1.256 203.07,1.256 L203.378,1.256 C203.84,1.256 204.05,1.06 204.05,0.724 C204.05,0.388 203.672,0.192 203.35,0.192 L202.972,0.192 C202.076,0.192 201.334,0.724 201.334,1.802 L201.334,3.552 L200.83,3.552 C200.424,3.552 200.214,3.748 200.214,4.084 C200.214,4.42 200.424,4.616 200.83,4.616 L201.334,4.616 L201.334,10.426 C201.334,10.832 201.572,11.084 201.95,11.084 C202.328,11.084 202.566,10.832 202.566,10.426 L202.566,4.616 Z M206.192,4.616 L206.962,4.616 C207.368,4.616 207.578,4.42 207.578,4.084 C207.578,3.748 207.368,3.552 206.962,3.552 L206.192,3.552 L206.192,1.746 C206.192,1.438 206.318,1.256 206.696,1.256 L207.004,1.256 C207.466,1.256 207.676,1.06 207.676,0.724 C207.676,0.388 207.298,0.192 206.976,0.192 L206.598,0.192 C205.702,0.192 204.96,0.724 204.96,1.802 L204.96,3.552 L204.456,3.552 C204.05,3.552 203.84,3.748 203.84,4.084 C203.84,4.42 204.05,4.616 204.456,4.616 L204.96,4.616 L204.96,10.426 C204.96,10.832 205.198,11.084 205.576,11.084 C205.954,11.084 206.192,10.832 206.192,10.426 L206.192,4.616 Z M209.356,7.276 C209.356,6.016 209.888,4.532 211.4,4.532 C212.912,4.532 213.444,6.016 213.444,7.276 C213.444,8.536 212.912,10.02 211.4,10.02 C209.888,10.02 209.356,8.536 209.356,7.276 L209.356,7.276 Z M208.25,10.426 C208.25,10.832 208.488,11.084 208.866,11.084 C209.244,11.084 209.482,10.832 209.482,10.426 L209.482,10.062 L209.51,10.062 C209.86,10.734 210.518,11.084 211.498,11.084 C213.514,11.084 214.676,9.25 214.676,7.276 C214.676,5.302 213.514,3.468 211.498,3.468 C210.518,3.468 209.832,4.014 209.51,4.476 L209.482,4.476 L209.482,0.85 C209.482,0.444 209.244,0.192 208.866,0.192 C208.488,0.192 208.25,0.444 208.25,0.85 L208.25,10.426 Z M217.14,7.276 C217.14,6.016 217.672,4.532 219.184,4.532 C220.696,4.532 221.228,6.016 221.228,7.276 C221.228,8.536 220.696,10.02 219.184,10.02 C217.672,10.02 217.14,8.536 217.14,7.276 L217.14,7.276 Z M216.034,10.426 C216.034,10.832 216.272,11.084 216.65,11.084 C217.028,11.084 217.266,10.832 217.266,10.426 L217.266,10.062 L217.294,10.062 C217.644,10.734 218.302,11.084 219.282,11.084 C221.298,11.084 222.46,9.25 222.46,7.276 C222.46,5.302 221.298,3.468 219.282,3.468 C218.302,3.468 217.616,4.014 217.294,4.476 L217.266,4.476 L217.266,0.85 C217.266,0.444 217.028,0.192 216.65,0.192 C216.272,0.192 216.034,0.444 216.034,0.85 L216.034,10.426 Z M225.386,4.616 L226.156,4.616 C226.562,4.616 226.772,4.42 226.772,4.084 C226.772,3.748 226.562,3.552 226.156,3.552 L225.386,3.552 L225.386,1.746 C225.386,1.438 225.512,1.256 225.89,1.256 L226.198,1.256 C226.66,1.256 226.87,1.06 226.87,0.724 C226.87,0.388 226.492,0.192 226.17,0.192 L225.792,0.192 C224.896,0.192 224.154,0.724 224.154,1.802 L224.154,3.552 L223.65,3.552 C223.244,3.552 223.034,3.748 223.034,4.084 C223.034,4.42 223.244,4.616 223.65,4.616 L224.154,4.616 L224.154,10.426 C224.154,10.832 224.392,11.084 224.77,11.084 C225.148,11.084 225.386,10.832 225.386,10.426 L225.386,4.616 Z" id="#FFFBBF"></path>
                    <path d="M134.334,7.976 L135.314,7.976 C135.636,7.976 135.888,7.822 135.888,7.514 C135.888,7.206 135.636,7.052 135.314,7.052 L134.46,7.052 L134.754,4.98 L135.734,4.98 C136.056,4.98 136.308,4.84 136.308,4.518 C136.308,4.21 136.056,4.056 135.734,4.056 L134.88,4.056 L135.16,2.012 C135.202,1.746 135.23,1.578 135.23,1.424 C135.23,1.172 135.09,0.948 134.754,0.948 C134.39,0.948 134.264,1.13 134.222,1.452 L133.858,4.056 L132.192,4.056 L132.472,2.012 C132.514,1.746 132.542,1.578 132.542,1.424 C132.542,1.172 132.402,0.948 132.066,0.948 C131.702,0.948 131.576,1.13 131.534,1.452 L131.17,4.056 L130.19,4.056 C129.868,4.056 129.616,4.21 129.616,4.518 C129.616,4.826 129.868,4.98 130.19,4.98 L131.044,4.98 L130.75,7.052 L129.77,7.052 C129.448,7.052 129.196,7.192 129.196,7.514 C129.196,7.822 129.448,7.976 129.77,7.976 L130.624,7.976 L130.344,10.02 C130.302,10.286 130.274,10.454 130.274,10.608 C130.274,10.86 130.414,11.084 130.75,11.084 C131.114,11.084 131.24,10.902 131.282,10.58 L131.646,7.976 L133.312,7.976 L133.032,10.02 C132.99,10.286 132.962,10.454 132.962,10.608 C132.962,10.86 133.102,11.084 133.438,11.084 C133.802,11.084 133.928,10.902 133.97,10.58 L134.334,7.976 Z M133.438,7.052 L131.772,7.052 L132.066,4.98 L133.732,4.98 L133.438,7.052 Z M138.94,4.616 L139.71,4.616 C140.116,4.616 140.326,4.42 140.326,4.084 C140.326,3.748 140.116,3.552 139.71,3.552 L138.94,3.552 L138.94,1.746 C138.94,1.438 139.066,1.256 139.444,1.256 L139.752,1.256 C140.214,1.256 140.424,1.06 140.424,0.724 C140.424,0.388 140.046,0.192 139.724,0.192 L139.346,0.192 C138.45,0.192 137.708,0.724 137.708,1.802 L137.708,3.552 L137.204,3.552 C136.798,3.552 136.588,3.748 136.588,4.084 C136.588,4.42 136.798,4.616 137.204,4.616 L137.708,4.616 L137.708,10.426 C137.708,10.832 137.946,11.084 138.324,11.084 C138.702,11.084 138.94,10.832 138.94,10.426 L138.94,4.616 Z M142.566,4.616 L143.336,4.616 C143.742,4.616 143.952,4.42 143.952,4.084 C143.952,3.748 143.742,3.552 143.336,3.552 L142.566,3.552 L142.566,1.746 C142.566,1.438 142.692,1.256 143.07,1.256 L143.378,1.256 C143.84,1.256 144.05,1.06 144.05,0.724 C144.05,0.388 143.672,0.192 143.35,0.192 L142.972,0.192 C142.076,0.192 141.334,0.724 141.334,1.802 L141.334,3.552 L140.83,3.552 C140.424,3.552 140.214,3.748 140.214,4.084 C140.214,4.42 140.424,4.616 140.83,4.616 L141.334,4.616 L141.334,10.426 C141.334,10.832 141.572,11.084 141.95,11.084 C142.328,11.084 142.566,10.832 142.566,10.426 L142.566,4.616 Z M146.192,4.616 L146.962,4.616 C147.368,4.616 147.578,4.42 147.578,4.084 C147.578,3.748 147.368,3.552 146.962,3.552 L146.192,3.552 L146.192,1.746 C146.192,1.438 146.318,1.256 146.696,1.256 L147.004,1.256 C147.466,1.256 147.676,1.06 147.676,0.724 C147.676,0.388 147.298,0.192 146.976,0.192 L146.598,0.192 C145.702,0.192 144.96,0.724 144.96,1.802 L144.96,3.552 L144.456,3.552 C144.05,3.552 143.84,3.748 143.84,4.084 C143.84,4.42 144.05,4.616 144.456,4.616 L144.96,4.616 L144.96,10.426 C144.96,10.832 145.198,11.084 145.576,11.084 C145.954,11.084 146.192,10.832 146.192,10.426 L146.192,4.616 Z M151.106,11.084 C152.87,11.084 154.158,9.642 154.158,7.836 C154.158,6.1 153.262,4.56 151.638,4.56 C150.966,4.56 150.518,4.714 150.056,4.952 L150.028,4.952 C150.784,3.566 151.372,2.894 152.17,2.18 C152.52,1.872 152.66,1.718 152.66,1.522 C152.66,1.144 152.352,0.948 152.156,0.948 C151.988,0.948 151.834,1.018 151.582,1.228 C150.07,2.502 148.11,4.742 148.11,7.654 C148.11,9.642 149.37,11.084 151.106,11.084 L151.106,11.084 Z M149.342,7.78 C149.342,6.632 149.874,5.624 151.092,5.624 C152.31,5.624 152.842,6.464 152.842,7.78 C152.842,8.942 152.31,9.936 151.092,9.936 C149.874,9.936 149.342,8.942 149.342,7.78 L149.342,7.78 Z M160.01,2.096 L160.01,2.124 L156.524,9.95 C156.37,10.314 156.328,10.51 156.328,10.608 C156.328,10.93 156.622,11.084 156.79,11.084 C157.056,11.084 157.364,11.028 157.532,10.636 L161.256,2.166 C161.41,1.816 161.494,1.62 161.494,1.424 C161.494,1.13 161.242,1.032 160.864,1.032 L155.81,1.032 C155.516,1.032 155.278,1.27 155.278,1.564 C155.278,1.858 155.516,2.096 155.81,2.096 L160.01,2.096 Z M164.322,4.616 L165.092,4.616 C165.498,4.616 165.708,4.42 165.708,4.084 C165.708,3.748 165.498,3.552 165.092,3.552 L164.322,3.552 L164.322,1.746 C164.322,1.438 164.448,1.256 164.826,1.256 L165.134,1.256 C165.596,1.256 165.806,1.06 165.806,0.724 C165.806,0.388 165.428,0.192 165.106,0.192 L164.728,0.192 C163.832,0.192 163.09,0.724 163.09,1.802 L163.09,3.552 L162.586,3.552 C162.18,3.552 161.97,3.748 161.97,4.084 C161.97,4.42 162.18,4.616 162.586,4.616 L163.09,4.616 L163.09,10.426 C163.09,10.832 163.328,11.084 163.706,11.084 C164.084,11.084 164.322,10.832 164.322,10.426 L164.322,4.616 Z" id="#FFF67F"></path>
                    <path d="M73.334,7.976 L74.314,7.976 C74.636,7.976 74.888,7.822 74.888,7.514 C74.888,7.206 74.636,7.052 74.314,7.052 L73.46,7.052 L73.754,4.98 L74.734,4.98 C75.056,4.98 75.308,4.84 75.308,4.518 C75.308,4.21 75.056,4.056 74.734,4.056 L73.88,4.056 L74.16,2.012 C74.202,1.746 74.23,1.578 74.23,1.424 C74.23,1.172 74.09,0.948 73.754,0.948 C73.39,0.948 73.264,1.13 73.222,1.452 L72.858,4.056 L71.192,4.056 L71.472,2.012 C71.514,1.746 71.542,1.578 71.542,1.424 C71.542,1.172 71.402,0.948 71.066,0.948 C70.702,0.948 70.576,1.13 70.534,1.452 L70.17,4.056 L69.19,4.056 C68.868,4.056 68.616,4.21 68.616,4.518 C68.616,4.826 68.868,4.98 69.19,4.98 L70.044,4.98 L69.75,7.052 L68.77,7.052 C68.448,7.052 68.196,7.192 68.196,7.514 C68.196,7.822 68.448,7.976 68.77,7.976 L69.624,7.976 L69.344,10.02 C69.302,10.286 69.274,10.454 69.274,10.608 C69.274,10.86 69.414,11.084 69.75,11.084 C70.114,11.084 70.24,10.902 70.282,10.58 L70.646,7.976 L72.312,7.976 L72.032,10.02 C71.99,10.286 71.962,10.454 71.962,10.608 C71.962,10.86 72.102,11.084 72.438,11.084 C72.802,11.084 72.928,10.902 72.97,10.58 L73.334,7.976 Z M72.438,7.052 L70.772,7.052 L71.066,4.98 L72.732,4.98 L72.438,7.052 Z M77.94,4.616 L78.71,4.616 C79.116,4.616 79.326,4.42 79.326,4.084 C79.326,3.748 79.116,3.552 78.71,3.552 L77.94,3.552 L77.94,1.746 C77.94,1.438 78.066,1.256 78.444,1.256 L78.752,1.256 C79.214,1.256 79.424,1.06 79.424,0.724 C79.424,0.388 79.046,0.192 78.724,0.192 L78.346,0.192 C77.45,0.192 76.708,0.724 76.708,1.802 L76.708,3.552 L76.204,3.552 C75.798,3.552 75.588,3.748 75.588,4.084 C75.588,4.42 75.798,4.616 76.204,4.616 L76.708,4.616 L76.708,10.426 C76.708,10.832 76.946,11.084 77.324,11.084 C77.702,11.084 77.94,10.832 77.94,10.426 L77.94,4.616 Z M81.566,4.616 L82.336,4.616 C82.742,4.616 82.952,4.42 82.952,4.084 C82.952,3.748 82.742,3.552 82.336,3.552 L81.566,3.552 L81.566,1.746 C81.566,1.438 81.692,1.256 82.07,1.256 L82.378,1.256 C82.84,1.256 83.05,1.06 83.05,0.724 C83.05,0.388 82.672,0.192 82.35,0.192 L81.972,0.192 C81.076,0.192 80.334,0.724 80.334,1.802 L80.334,3.552 L79.83,3.552 C79.424,3.552 79.214,3.748 79.214,4.084 C79.214,4.42 79.424,4.616 79.83,4.616 L80.334,4.616 L80.334,10.426 C80.334,10.832 80.572,11.084 80.95,11.084 C81.328,11.084 81.566,10.832 81.566,10.426 L81.566,4.616 Z M85.192,4.616 L85.962,4.616 C86.368,4.616 86.578,4.42 86.578,4.084 C86.578,3.748 86.368,3.552 85.962,3.552 L85.192,3.552 L85.192,1.746 C85.192,1.438 85.318,1.256 85.696,1.256 L86.004,1.256 C86.466,1.256 86.676,1.06 86.676,0.724 C86.676,0.388 86.298,0.192 85.976,0.192 L85.598,0.192 C84.702,0.192 83.96,0.724 83.96,1.802 L83.96,3.552 L83.456,3.552 C83.05,3.552 82.84,3.748 82.84,4.084 C82.84,4.42 83.05,4.616 83.456,4.616 L83.96,4.616 L83.96,10.426 C83.96,10.832 84.198,11.084 84.576,11.084 C84.954,11.084 85.192,10.832 85.192,10.426 L85.192,4.616 Z M88.93,9.936 L92.276,5.484 C92.92,4.644 92.962,4 92.962,3.426 C92.962,2.138 91.926,0.948 90.274,0.948 C88.216,0.948 87.096,2.418 87.096,4.07 C87.096,4.588 87.306,4.826 87.698,4.826 C87.964,4.826 88.244,4.7 88.244,4.266 C88.244,3.02 88.874,2.012 90.064,2.012 C90.96,2.012 91.646,2.656 91.646,3.566 C91.646,4.168 91.338,4.784 90.918,5.33 L87.474,9.936 C87.264,10.23 87.208,10.342 87.208,10.496 C87.208,10.706 87.362,11 87.88,11 L92.71,11 C93.004,11 93.242,10.762 93.242,10.468 C93.242,10.174 93.004,9.936 92.71,9.936 L88.93,9.936 Z M98.562,8.438 L98.562,10.426 C98.562,10.832 98.8,11.084 99.178,11.084 C99.556,11.084 99.794,10.832 99.794,10.426 L99.794,8.438 L100.424,8.438 C100.718,8.438 100.956,8.2 100.956,7.906 C100.956,7.612 100.718,7.374 100.424,7.374 L99.794,7.374 L99.794,1.97 C99.794,1.242 99.402,0.948 98.856,0.948 C98.422,0.948 98.142,1.088 97.89,1.508 L94.362,7.29 C94.18,7.584 94.054,7.822 94.054,8.004 C94.054,8.256 94.166,8.438 94.586,8.438 L98.562,8.438 Z M95.594,7.374 L98.534,2.264 L98.562,2.264 L98.562,7.374 L95.594,7.374 Z M101.852,6.016 C101.852,9.222 103.322,11.084 105.142,11.084 C106.962,11.084 108.432,9.222 108.432,6.016 C108.432,2.81 106.962,0.948 105.142,0.948 C103.322,0.948 101.852,2.81 101.852,6.016 L101.852,6.016 Z M103.168,6.016 C103.168,3.23 104.05,2.012 105.142,2.012 C106.234,2.012 107.116,3.23 107.116,6.016 C107.116,8.802 106.234,10.02 105.142,10.02 C104.05,10.02 103.168,8.802 103.168,6.016 L103.168,6.016 Z" id="#FFF240"></path>
                    <path d="M7.334,7.976 L8.314,7.976 C8.636,7.976 8.888,7.822 8.888,7.514 C8.888,7.206 8.636,7.052 8.314,7.052 L7.46,7.052 L7.754,4.98 L8.734,4.98 C9.056,4.98 9.308,4.84 9.308,4.518 C9.308,4.21 9.056,4.056 8.734,4.056 L7.88,4.056 L8.16,2.012 C8.202,1.746 8.23,1.578 8.23,1.424 C8.23,1.172 8.09,0.948 7.754,0.948 C7.39,0.948 7.264,1.13 7.222,1.452 L6.858,4.056 L5.192,4.056 L5.472,2.012 C5.514,1.746 5.542,1.578 5.542,1.424 C5.542,1.172 5.402,0.948 5.066,0.948 C4.702,0.948 4.576,1.13 4.534,1.452 L4.17,4.056 L3.19,4.056 C2.868,4.056 2.616,4.21 2.616,4.518 C2.616,4.826 2.868,4.98 3.19,4.98 L4.044,4.98 L3.75,7.052 L2.77,7.052 C2.448,7.052 2.196,7.192 2.196,7.514 C2.196,7.822 2.448,7.976 2.77,7.976 L3.624,7.976 L3.344,10.02 C3.302,10.286 3.274,10.454 3.274,10.608 C3.274,10.86 3.414,11.084 3.75,11.084 C4.114,11.084 4.24,10.902 4.282,10.58 L4.646,7.976 L6.312,7.976 L6.032,10.02 C5.99,10.286 5.962,10.454 5.962,10.608 C5.962,10.86 6.102,11.084 6.438,11.084 C6.802,11.084 6.928,10.902 6.97,10.58 L7.334,7.976 Z M6.438,7.052 L4.772,7.052 L5.066,4.98 L6.732,4.98 L6.438,7.052 Z M11.94,4.616 L12.71,4.616 C13.116,4.616 13.326,4.42 13.326,4.084 C13.326,3.748 13.116,3.552 12.71,3.552 L11.94,3.552 L11.94,1.746 C11.94,1.438 12.066,1.256 12.444,1.256 L12.752,1.256 C13.214,1.256 13.424,1.06 13.424,0.724 C13.424,0.388 13.046,0.192 12.724,0.192 L12.346,0.192 C11.45,0.192 10.708,0.724 10.708,1.802 L10.708,3.552 L10.204,3.552 C9.798,3.552 9.588,3.748 9.588,4.084 C9.588,4.42 9.798,4.616 10.204,4.616 L10.708,4.616 L10.708,10.426 C10.708,10.832 10.946,11.084 11.324,11.084 C11.702,11.084 11.94,10.832 11.94,10.426 L11.94,4.616 Z M15.566,4.616 L16.336,4.616 C16.742,4.616 16.952,4.42 16.952,4.084 C16.952,3.748 16.742,3.552 16.336,3.552 L15.566,3.552 L15.566,1.746 C15.566,1.438 15.692,1.256 16.07,1.256 L16.378,1.256 C16.84,1.256 17.05,1.06 17.05,0.724 C17.05,0.388 16.672,0.192 16.35,0.192 L15.972,0.192 C15.076,0.192 14.334,0.724 14.334,1.802 L14.334,3.552 L13.83,3.552 C13.424,3.552 13.214,3.748 13.214,4.084 C13.214,4.42 13.424,4.616 13.83,4.616 L14.334,4.616 L14.334,10.426 C14.334,10.832 14.572,11.084 14.95,11.084 C15.328,11.084 15.566,10.832 15.566,10.426 L15.566,4.616 Z M22.986,7.752 C23.518,7.752 23.672,7.528 23.672,7.094 C23.672,5.302 22.496,3.468 20.466,3.468 C18.38,3.468 17.12,5.26 17.12,7.276 C17.12,9.25 18.156,11.084 20.536,11.084 C21.992,11.084 23.518,10.16 23.518,9.558 C23.518,9.208 23.294,9.012 23.07,9.012 C22.608,9.012 22.188,10.02 20.55,10.02 C19.164,10.02 18.352,9.026 18.352,7.752 L22.986,7.752 Z M18.352,6.828 C18.394,5.694 18.94,4.476 20.466,4.532 C21.824,4.532 22.44,5.764 22.44,6.828 L18.352,6.828 Z M29.846,7.276 C29.846,8.536 29.314,10.02 27.802,10.02 C26.29,10.02 25.758,8.536 25.758,7.276 C25.758,6.016 26.29,4.532 27.802,4.532 C29.314,4.532 29.846,6.016 29.846,7.276 L29.846,7.276 Z M29.72,10.426 C29.72,10.832 29.958,11.084 30.336,11.084 C30.714,11.084 30.952,10.832 30.952,10.426 L30.952,0.85 C30.952,0.444 30.714,0.192 30.336,0.192 C29.958,0.192 29.72,0.444 29.72,0.85 L29.72,4.476 L29.692,4.476 C29.37,4.014 28.684,3.468 27.704,3.468 C25.688,3.468 24.526,5.302 24.526,7.276 C24.526,9.25 25.688,11.084 27.704,11.084 C28.684,11.084 29.342,10.734 29.692,10.062 L29.72,10.062 L29.72,10.426 Z M32.282,6.016 C32.282,9.222 33.752,11.084 35.572,11.084 C37.392,11.084 38.862,9.222 38.862,6.016 C38.862,2.81 37.392,0.948 35.572,0.948 C33.752,0.948 32.282,2.81 32.282,6.016 L32.282,6.016 Z M33.598,6.016 C33.598,3.23 34.48,2.012 35.572,2.012 C36.664,2.012 37.546,3.23 37.546,6.016 C37.546,8.802 36.664,10.02 35.572,10.02 C34.48,10.02 33.598,8.802 33.598,6.016 L33.598,6.016 Z M39.786,6.016 C39.786,9.222 41.256,11.084 43.076,11.084 C44.896,11.084 46.366,9.222 46.366,6.016 C46.366,2.81 44.896,0.948 43.076,0.948 C41.256,0.948 39.786,2.81 39.786,6.016 L39.786,6.016 Z M41.102,6.016 C41.102,3.23 41.984,2.012 43.076,2.012 C44.168,2.012 45.05,3.23 45.05,6.016 C45.05,8.802 44.168,10.02 43.076,10.02 C41.984,10.02 41.102,8.802 41.102,6.016 L41.102,6.016 Z" id="#FFED00"></path>
                    <path d="M5.334,127.976 L6.314,127.976 C6.636,127.976 6.888,127.822 6.888,127.514 C6.888,127.206 6.636,127.052 6.314,127.052 L5.46,127.052 L5.754,124.98 L6.734,124.98 C7.056,124.98 7.308,124.84 7.308,124.518 C7.308,124.21 7.056,124.056 6.734,124.056 L5.88,124.056 L6.16,122.012 C6.202,121.746 6.23,121.578 6.23,121.424 C6.23,121.172 6.09,120.948 5.754,120.948 C5.39,120.948 5.264,121.13 5.222,121.452 L4.858,124.056 L3.192,124.056 L3.472,122.012 C3.514,121.746 3.542,121.578 3.542,121.424 C3.542,121.172 3.402,120.948 3.066,120.948 C2.702,120.948 2.576,121.13 2.534,121.452 L2.17,124.056 L1.19,124.056 C0.868,124.056 0.616,124.21 0.616,124.518 C0.616,124.826 0.868,124.98 1.19,124.98 L2.044,124.98 L1.75,127.052 L0.77,127.052 C0.448,127.052 0.196,127.192 0.196,127.514 C0.196,127.822 0.448,127.976 0.77,127.976 L1.624,127.976 L1.344,130.02 C1.302,130.286 1.274,130.454 1.274,130.608 C1.274,130.86 1.414,131.084 1.75,131.084 C2.114,131.084 2.24,130.902 2.282,130.58 L2.646,127.976 L4.312,127.976 L4.032,130.02 C3.99,130.286 3.962,130.454 3.962,130.608 C3.962,130.86 4.102,131.084 4.438,131.084 C4.802,131.084 4.928,130.902 4.97,130.58 L5.334,127.976 Z M4.438,127.052 L2.772,127.052 L3.066,124.98 L4.732,124.98 L4.438,127.052 Z M9.94,124.616 L10.71,124.616 C11.116,124.616 11.326,124.42 11.326,124.084 C11.326,123.748 11.116,123.552 10.71,123.552 L9.94,123.552 L9.94,121.746 C9.94,121.438 10.066,121.256 10.444,121.256 L10.752,121.256 C11.214,121.256 11.424,121.06 11.424,120.724 C11.424,120.388 11.046,120.192 10.724,120.192 L10.346,120.192 C9.45,120.192 8.708,120.724 8.708,121.802 L8.708,123.552 L8.204,123.552 C7.798,123.552 7.588,123.748 7.588,124.084 C7.588,124.42 7.798,124.616 8.204,124.616 L8.708,124.616 L8.708,130.426 C8.708,130.832 8.946,131.084 9.324,131.084 C9.702,131.084 9.94,130.832 9.94,130.426 L9.94,124.616 Z M15.806,128.438 L15.806,130.426 C15.806,130.832 16.044,131.084 16.422,131.084 C16.8,131.084 17.038,130.832 17.038,130.426 L17.038,128.438 L17.668,128.438 C17.962,128.438 18.2,128.2 18.2,127.906 C18.2,127.612 17.962,127.374 17.668,127.374 L17.038,127.374 L17.038,121.97 C17.038,121.242 16.646,120.948 16.1,120.948 C15.666,120.948 15.386,121.088 15.134,121.508 L11.606,127.29 C11.424,127.584 11.298,127.822 11.298,128.004 C11.298,128.256 11.41,128.438 11.83,128.438 L15.806,128.438 Z M12.838,127.374 L15.778,122.264 L15.806,122.264 L15.806,127.374 L12.838,127.374 Z M24.864,127.752 C25.396,127.752 25.55,127.528 25.55,127.094 C25.55,125.302 24.374,123.468 22.344,123.468 C20.258,123.468 18.998,125.26 18.998,127.276 C18.998,129.25 20.034,131.084 22.414,131.084 C23.87,131.084 25.396,130.16 25.396,129.558 C25.396,129.208 25.172,129.012 24.948,129.012 C24.486,129.012 24.066,130.02 22.428,130.02 C21.042,130.02 20.23,129.026 20.23,127.752 L24.864,127.752 Z M20.23,126.828 C20.272,125.694 20.818,124.476 22.344,124.532 C23.702,124.532 24.318,125.764 24.318,126.828 L20.23,126.828 Z M32.578,128.06 C32.578,126.926 31.99,125.974 30.87,125.638 C31.654,125.162 32.046,124.35 32.046,123.524 C32.046,122.124 31.052,120.948 29.456,120.948 C27.804,120.948 26.838,122.138 26.838,123.468 C26.838,123.79 27.048,124.042 27.398,124.042 C27.608,124.042 27.944,124.028 27.986,123.468 C28.056,122.712 28.42,122.012 29.4,122.012 C30.254,122.012 30.814,122.684 30.814,123.636 C30.814,124.546 30.408,125.022 29.414,125.246 C28.952,125.344 28.77,125.498 28.77,125.778 C28.77,126.1 29.036,126.31 29.526,126.31 C30.45,126.31 31.262,126.688 31.262,128.172 C31.262,129.194 30.478,130.02 29.372,130.02 C28.434,130.02 27.93,129.46 27.692,128.746 C27.552,128.312 27.37,128.102 27.006,128.102 C26.712,128.102 26.488,128.354 26.488,128.788 C26.488,129.53 27.328,131.084 29.4,131.084 C31.178,131.084 32.578,129.95 32.578,128.06 L32.578,128.06 Z M33.88,126.016 C33.88,129.222 35.35,131.084 37.17,131.084 C38.99,131.084 40.46,129.222 40.46,126.016 C40.46,122.81 38.99,120.948 37.17,120.948 C35.35,120.948 33.88,122.81 33.88,126.016 L33.88,126.016 Z M35.196,126.016 C35.196,123.23 36.078,122.012 37.17,122.012 C38.262,122.012 39.144,123.23 39.144,126.016 C39.144,128.802 38.262,130.02 37.17,130.02 C36.078,130.02 35.196,128.802 35.196,126.016 L35.196,126.016 Z M43.47,129.936 L46.816,125.484 C47.46,124.644 47.502,124 47.502,123.426 C47.502,122.138 46.466,120.948 44.814,120.948 C42.756,120.948 41.636,122.418 41.636,124.07 C41.636,124.588 41.846,124.826 42.238,124.826 C42.504,124.826 42.784,124.7 42.784,124.266 C42.784,123.02 43.414,122.012 44.604,122.012 C45.5,122.012 46.186,122.656 46.186,123.566 C46.186,124.168 45.878,124.784 45.458,125.33 L42.014,129.936 C41.804,130.23 41.748,130.342 41.748,130.496 C41.748,130.706 41.902,131 42.42,131 L47.25,131 C47.544,131 47.782,130.762 47.782,130.468 C47.782,130.174 47.544,129.936 47.25,129.936 L43.47,129.936 Z" id="#F4E302"></path>
                </g>
            </g>
        </g>
    </g>
</svg>