<?xml version="1.0" encoding="UTF-8" standalone="no"?>
<svg width="290px" height="192px" viewBox="0 0 290 192" version="1.1" xmlns="http://www.w3.org/2000/svg" xmlns:xlink="http://www.w3.org/1999/xlink">
    <!-- Generator: Sketch 39.1 (31720) - http://www.bohemiancoding.com/sketch -->
    <title>25-accessibility-charcoal-sky-hex</title>
    <desc>Created with Sketch.</desc>
    <defs>
        <rect id="path-1" x="240" y="22" width="50" height="50" rx="25"></rect>
        <mask id="mask-2" maskContentUnits="userSpaceOnUse" maskUnits="objectBoundingBox" x="0" y="0" width="50" height="50" fill="white">
            <use xlink:href="#path-1"></use>
        </mask>
    </defs>
    <g id="Templates" stroke="none" stroke-width="1" fill="none" fill-rule="evenodd">
        <g id="25-colour-accessibility" transform="translate(-1078.000000, -2424.000000)">
            <g id="25-accessibility-charcoal-sky-hex" transform="translate(1078.000000, 2424.000000)">
                <rect id="colours-use-2-copy-70" fill="#009FE3" transform="translate(25.000000, 47.000000) rotate(-90.000000) translate(-25.000000, -47.000000) " x="0" y="22" width="50" height="50" rx="25"></rect>
                <rect id="colours-use-2-copy-61" fill="#40B8EB" transform="translate(85.000000, 47.000000) rotate(-90.000000) translate(-85.000000, -47.000000) " x="60" y="22" width="50" height="50" rx="25"></rect>
                <rect id="colours-use-2-copy-62" fill="#7FCFF1" transform="translate(145.000000, 47.000000) rotate(-90.000000) translate(-145.000000, -47.000000) " x="120" y="22" width="50" height="50" rx="25"></rect>
                <rect id="colours-use-2-copy-63" fill="#BFE7F8" transform="translate(205.000000, 47.000000) rotate(-90.000000) translate(-205.000000, -47.000000) " x="180" y="22" width="50" height="50" rx="25"></rect>
                <use id="colours-use-2-copy-64" stroke="#BFE7F8" mask="url(#mask-2)" stroke-width="2" fill="#F2FBFE" transform="translate(265.000000, 47.000000) rotate(-90.000000) translate(-265.000000, -47.000000) " xlink:href="#path-1"></use>
                <rect id="colours-use-2-copy-65" fill="#0299DA" transform="translate(25.000000, 167.000000) rotate(-90.000000) translate(-25.000000, -167.000000) " x="0" y="142" width="50" height="50" rx="25"></rect>
                <rect id="colours-use-2-copy-66" fill="#0E86B8" transform="translate(85.000000, 167.000000) rotate(-90.000000) translate(-85.000000, -167.000000) " x="60" y="142" width="50" height="50" rx="25"></rect>
                <rect id="colours-use-2-copy-67" fill="#1C6C8C" transform="translate(145.000000, 167.000000) rotate(-90.000000) translate(-145.000000, -167.000000) " x="120" y="142" width="50" height="50" rx="25"></rect>
                <rect id="colours-use-2-copy-68" fill="#2A5361" transform="translate(205.000000, 167.000000) rotate(-90.000000) translate(-205.000000, -167.000000) " x="180" y="142" width="50" height="50" rx="25"></rect>
                <rect id="colours-use-2-copy-69" fill="#36403F" transform="translate(265.000000, 167.000000) rotate(-90.000000) translate(-265.000000, -167.000000) " x="240" y="142" width="50" height="50" rx="25"></rect>
                <polygon id="Star-1" fill="#8AB82E" points="264.657396 10.5 260.542899 12.663119 261.328698 8.08155948 258 4.83688104 262.600147 4.16844052 264.657396 0 266.714644 4.16844052 271.314791 4.83688104 267.986093 8.08155948 268.771892 12.663119"></polygon>
                <polygon id="Star-1" fill="#8AB82E" points="204.657396 10.5 200.542899 12.663119 201.328698 8.08155948 198 4.83688104 202.600147 4.16844052 204.657396 0 206.714644 4.16844052 211.314791 4.83688104 207.986093 8.08155948 208.771892 12.663119"></polygon>
                <polygon id="Star-1" fill="#E69900" points="143.657396 10.5 139.542899 12.663119 140.328698 8.08155948 137 4.83688104 141.600147 4.16844052 143.657396 0 145.714644 4.16844052 150.314791 4.83688104 146.986093 8.08155948 147.771892 12.663119"></polygon>
                <polygon id="Star-1" fill="#E69900" points="84.6573956 10.5 80.5428988 12.663119 81.3286978 8.08155948 78 4.83688104 82.6001472 4.16844052 84.6573956 0 86.714644 4.16844052 91.3147912 4.83688104 87.9860934 8.08155948 88.7718924 12.663119"></polygon>
                <polygon id="Star-1" fill="#CC0000" points="24.6573956 10.5 20.5428988 12.663119 21.3286978 8.08155948 18 4.83688104 22.6001472 4.16844052 24.6573956 0 26.714644 4.16844052 31.3147912 4.83688104 27.9860934 8.08155948 28.7718924 12.663119"></polygon>
                <polygon id="Star-1" fill="#D0021B" points="84.6573956 131.5 80.5428988 133.663119 81.3286978 129.081559 78 125.836881 82.6001472 125.168441 84.6573956 121 86.714644 125.168441 91.3147912 125.836881 87.9860934 129.081559 88.7718924 133.663119"></polygon>
                <polygon id="Star-1" fill="#D0021B" points="143.657396 131.5 139.542899 133.663119 140.328698 129.081559 137 125.836881 141.600147 125.168441 143.657396 121 145.714644 125.168441 150.314791 125.836881 146.986093 129.081559 147.771892 133.663119"></polygon>
                <polygon id="Star-1" fill="#D0021B" points="204.657396 131.5 200.542899 133.663119 201.328698 129.081559 198 125.836881 202.600147 125.168441 204.657396 121 206.714644 125.168441 211.314791 125.836881 207.986093 129.081559 208.771892 133.663119"></polygon>
                <polygon id="Star-1" fill="#D0021B" points="264.657396 131.5 260.542899 133.663119 261.328698 129.081559 258 125.836881 262.600147 125.168441 264.657396 121 266.714644 125.168441 271.314791 125.836881 267.986093 129.081559 268.771892 133.663119"></polygon>
                <polygon id="Star-1" fill="#CC0000" points="24.6573956 131.5 20.5428988 133.663119 21.3286978 129.081559 18 125.836881 22.6001472 125.168441 24.6573956 121 26.714644 125.168441 31.3147912 125.836881 27.9860934 129.081559 28.7718924 133.663119"></polygon>
                <g id="%" transform="translate(9.000000, 41.000000)" fill="#575756">
                    <path d="M2.432,10.848 C2.432,11.648 2.944,12.096 3.632,12.096 C4.32,12.096 4.832,11.648 4.832,10.848 L4.832,1.744 C4.832,1.104 4.448,0.608 3.76,0.608 L1.488,0.608 C0.8,0.608 0.4,1.152 0.4,1.712 C0.4,2.256 0.72,2.816 1.488,2.816 L2.432,2.816 L2.432,10.848 Z M10.512,10.016 C8.88,10.016 8.768,7.44 8.768,6.304 C8.768,5.088 8.88,2.592 10.512,2.592 C12.144,2.592 12.256,5.088 12.256,6.304 C12.256,7.44 12.144,10.016 10.512,10.016 L10.512,10.016 Z M10.512,12.192 C13.744,12.192 14.752,8.912 14.752,6.304 C14.752,3.696 13.744,0.416 10.512,0.416 C7.28,0.416 6.272,3.696 6.272,6.304 C6.272,8.912 7.28,12.192 10.512,12.192 L10.512,12.192 Z M19.696,10.016 C18.064,10.016 17.952,7.44 17.952,6.304 C17.952,5.088 18.064,2.592 19.696,2.592 C21.328,2.592 21.44,5.088 21.44,6.304 C21.44,7.44 21.328,10.016 19.696,10.016 L19.696,10.016 Z M19.696,12.192 C22.928,12.192 23.936,8.912 23.936,6.304 C23.936,3.696 22.928,0.416 19.696,0.416 C16.464,0.416 15.456,3.696 15.456,6.304 C15.456,8.912 16.464,12.192 19.696,12.192 L19.696,12.192 Z M27.248,3.952 C26.72,3.952 26.416,3.52 26.416,3.008 C26.416,2.496 26.72,2.048 27.248,2.048 C27.776,2.048 28.08,2.496 28.08,3.008 C28.08,3.52 27.776,3.952 27.248,3.952 L27.248,3.952 Z M27.248,5.584 C28.672,5.584 29.712,4.4 29.712,3.008 C29.712,1.616 28.672,0.416 27.248,0.416 C25.824,0.416 24.784,1.616 24.784,3.008 C24.784,4.4 25.824,5.584 27.248,5.584 L27.248,5.584 Z M32.88,12.192 C34.304,12.192 35.344,11.008 35.344,9.616 C35.344,8.224 34.304,7.024 32.88,7.024 C31.456,7.024 30.416,8.224 30.416,9.616 C30.416,11.008 31.456,12.192 32.88,12.192 L32.88,12.192 Z M32.88,10.56 C32.352,10.56 32.048,10.128 32.048,9.616 C32.048,9.104 32.352,8.656 32.88,8.656 C33.408,8.656 33.712,9.104 33.712,9.616 C33.712,10.128 33.408,10.56 32.88,10.56 L32.88,10.56 Z M26.672,10.816 C26.608,10.944 26.512,11.168 26.512,11.408 C26.512,11.888 27.008,12.288 27.424,12.288 C27.808,12.288 27.904,12.096 28.144,11.76 L33.52,1.696 C33.648,1.456 33.648,1.344 33.648,1.216 C33.648,0.72 33.2,0.32 32.704,0.32 C32.336,0.32 32.176,0.432 31.968,0.832 L26.672,10.816 Z" id="100%"></path>
                    <path d="M65.52,10.4 C65.408,10.624 65.36,10.768 65.36,10.96 C65.36,11.424 65.808,12.096 66.688,12.096 C67.408,12.096 67.584,11.776 68.032,10.88 L72,2.816 C72.192,2.416 72.368,2.08 72.368,1.76 C72.368,1.344 72.032,0.608 71.216,0.608 L65.424,0.608 C64.544,0.608 64.24,1.152 64.24,1.712 C64.24,2.256 64.56,2.816 65.424,2.816 L69.52,2.816 L65.52,10.4 Z M76.608,2.816 L79.616,2.816 C79.904,2.816 80.736,2.72 80.736,1.616 C80.736,1.04 80.304,0.608 79.568,0.608 L75.712,0.608 C74.944,0.608 74.64,0.88 74.464,2.128 L74.064,5.504 C74.048,5.68 74.016,5.84 74.016,6.048 C74.016,6.32 74.336,6.8 74.96,6.8 C75.776,6.8 75.92,6.272 76.848,6.272 C77.84,6.272 78.384,6.928 78.384,7.888 C78.384,8.896 77.808,9.984 76.688,9.984 C75.616,9.984 74.848,8.96 74.208,8.96 C73.616,8.96 73.12,9.456 73.12,10.048 C73.12,11.456 75.504,12.192 76.64,12.192 C79.408,12.192 80.88,10.432 80.88,7.76 C80.88,5.888 79.504,4.352 77.568,4.352 C77.168,4.352 76.752,4.432 76.368,4.512 L76.608,2.816 Z M84.752,3.952 C84.224,3.952 83.92,3.52 83.92,3.008 C83.92,2.496 84.224,2.048 84.752,2.048 C85.28,2.048 85.584,2.496 85.584,3.008 C85.584,3.52 85.28,3.952 84.752,3.952 L84.752,3.952 Z M84.752,5.584 C86.176,5.584 87.216,4.4 87.216,3.008 C87.216,1.616 86.176,0.416 84.752,0.416 C83.328,0.416 82.288,1.616 82.288,3.008 C82.288,4.4 83.328,5.584 84.752,5.584 L84.752,5.584 Z M90.384,12.192 C91.808,12.192 92.848,11.008 92.848,9.616 C92.848,8.224 91.808,7.024 90.384,7.024 C88.96,7.024 87.92,8.224 87.92,9.616 C87.92,11.008 88.96,12.192 90.384,12.192 L90.384,12.192 Z M90.384,10.56 C89.856,10.56 89.552,10.128 89.552,9.616 C89.552,9.104 89.856,8.656 90.384,8.656 C90.912,8.656 91.216,9.104 91.216,9.616 C91.216,10.128 90.912,10.56 90.384,10.56 L90.384,10.56 Z M84.176,10.816 C84.112,10.944 84.016,11.168 84.016,11.408 C84.016,11.888 84.512,12.288 84.928,12.288 C85.312,12.288 85.408,12.096 85.648,11.76 L91.024,1.696 C91.152,1.456 91.152,1.344 91.152,1.216 C91.152,0.72 90.704,0.32 90.208,0.32 C89.84,0.32 89.68,0.432 89.472,0.832 L84.176,10.816 Z" id="75%"></path>
                    <path d="M127,2.816 L130.008,2.816 C130.296,2.816 131.128,2.72 131.128,1.616 C131.128,1.04 130.696,0.608 129.96,0.608 L126.104,0.608 C125.336,0.608 125.032,0.88 124.856,2.128 L124.456,5.504 C124.44,5.68 124.408,5.84 124.408,6.048 C124.408,6.32 124.728,6.8 125.352,6.8 C126.168,6.8 126.312,6.272 127.24,6.272 C128.232,6.272 128.776,6.928 128.776,7.888 C128.776,8.896 128.2,9.984 127.08,9.984 C126.008,9.984 125.24,8.96 124.6,8.96 C124.008,8.96 123.512,9.456 123.512,10.048 C123.512,11.456 125.896,12.192 127.032,12.192 C129.8,12.192 131.272,10.432 131.272,7.76 C131.272,5.888 129.896,4.352 127.96,4.352 C127.56,4.352 127.144,4.432 126.76,4.512 L127,2.816 Z M136.776,10.016 C135.144,10.016 135.032,7.44 135.032,6.304 C135.032,5.088 135.144,2.592 136.776,2.592 C138.408,2.592 138.52,5.088 138.52,6.304 C138.52,7.44 138.408,10.016 136.776,10.016 L136.776,10.016 Z M136.776,12.192 C140.008,12.192 141.016,8.912 141.016,6.304 C141.016,3.696 140.008,0.416 136.776,0.416 C133.544,0.416 132.536,3.696 132.536,6.304 C132.536,8.912 133.544,12.192 136.776,12.192 L136.776,12.192 Z M144.328,3.952 C143.8,3.952 143.496,3.52 143.496,3.008 C143.496,2.496 143.8,2.048 144.328,2.048 C144.856,2.048 145.16,2.496 145.16,3.008 C145.16,3.52 144.856,3.952 144.328,3.952 L144.328,3.952 Z M144.328,5.584 C145.752,5.584 146.792,4.4 146.792,3.008 C146.792,1.616 145.752,0.416 144.328,0.416 C142.904,0.416 141.864,1.616 141.864,3.008 C141.864,4.4 142.904,5.584 144.328,5.584 L144.328,5.584 Z M149.96,12.192 C151.384,12.192 152.424,11.008 152.424,9.616 C152.424,8.224 151.384,7.024 149.96,7.024 C148.536,7.024 147.496,8.224 147.496,9.616 C147.496,11.008 148.536,12.192 149.96,12.192 L149.96,12.192 Z M149.96,10.56 C149.432,10.56 149.128,10.128 149.128,9.616 C149.128,9.104 149.432,8.656 149.96,8.656 C150.488,8.656 150.792,9.104 150.792,9.616 C150.792,10.128 150.488,10.56 149.96,10.56 L149.96,10.56 Z M143.752,10.816 C143.688,10.944 143.592,11.168 143.592,11.408 C143.592,11.888 144.088,12.288 144.504,12.288 C144.888,12.288 144.984,12.096 145.224,11.76 L150.6,1.696 C150.728,1.456 150.728,1.344 150.728,1.216 C150.728,0.72 150.28,0.32 149.784,0.32 C149.416,0.32 149.256,0.432 149.048,0.832 L143.752,10.816 Z" id="50%"></path>
                    <path d="M188.288,9.888 C189.648,8.176 192.128,5.968 192.128,3.744 C192.128,1.712 190.544,0.416 188.576,0.416 C186.608,0.416 184.816,2.032 184.816,4.048 C184.816,4.672 185.216,5.216 185.984,5.216 C187.52,5.216 186.64,2.624 188.48,2.624 C189.136,2.624 189.632,3.2 189.632,3.856 C189.632,4.432 189.36,4.928 189.072,5.344 C187.856,7.104 186.416,8.544 185.088,10.128 C184.928,10.32 184.72,10.608 184.72,10.944 C184.72,11.68 185.264,12 185.968,12 L191.312,12 C191.92,12 192.464,11.68 192.464,10.944 C192.464,10.208 191.92,9.888 191.216,9.888 L188.288,9.888 Z M197.184,2.816 L200.192,2.816 C200.48,2.816 201.312,2.72 201.312,1.616 C201.312,1.04 200.88,0.608 200.144,0.608 L196.288,0.608 C195.52,0.608 195.216,0.88 195.04,2.128 L194.64,5.504 C194.624,5.68 194.592,5.84 194.592,6.048 C194.592,6.32 194.912,6.8 195.536,6.8 C196.352,6.8 196.496,6.272 197.424,6.272 C198.416,6.272 198.96,6.928 198.96,7.888 C198.96,8.896 198.384,9.984 197.264,9.984 C196.192,9.984 195.424,8.96 194.784,8.96 C194.192,8.96 193.696,9.456 193.696,10.048 C193.696,11.456 196.08,12.192 197.216,12.192 C199.984,12.192 201.456,10.432 201.456,7.76 C201.456,5.888 200.08,4.352 198.144,4.352 C197.744,4.352 197.328,4.432 196.944,4.512 L197.184,2.816 Z M205.328,3.952 C204.8,3.952 204.496,3.52 204.496,3.008 C204.496,2.496 204.8,2.048 205.328,2.048 C205.856,2.048 206.16,2.496 206.16,3.008 C206.16,3.52 205.856,3.952 205.328,3.952 L205.328,3.952 Z M205.328,5.584 C206.752,5.584 207.792,4.4 207.792,3.008 C207.792,1.616 206.752,0.416 205.328,0.416 C203.904,0.416 202.864,1.616 202.864,3.008 C202.864,4.4 203.904,5.584 205.328,5.584 L205.328,5.584 Z M210.96,12.192 C212.384,12.192 213.424,11.008 213.424,9.616 C213.424,8.224 212.384,7.024 210.96,7.024 C209.536,7.024 208.496,8.224 208.496,9.616 C208.496,11.008 209.536,12.192 210.96,12.192 L210.96,12.192 Z M210.96,10.56 C210.432,10.56 210.128,10.128 210.128,9.616 C210.128,9.104 210.432,8.656 210.96,8.656 C211.488,8.656 211.792,9.104 211.792,9.616 C211.792,10.128 211.488,10.56 210.96,10.56 L210.96,10.56 Z M204.752,10.816 C204.688,10.944 204.592,11.168 204.592,11.408 C204.592,11.888 205.088,12.288 205.504,12.288 C205.888,12.288 205.984,12.096 206.224,11.76 L211.6,1.696 C211.728,1.456 211.728,1.344 211.728,1.216 C211.728,0.72 211.28,0.32 210.784,0.32 C210.416,0.32 210.256,0.432 210.048,0.832 L204.752,10.816 Z" id="25%"></path>
                    <path d="M252,2.816 L255.008,2.816 C255.296,2.816 256.128,2.72 256.128,1.616 C256.128,1.04 255.696,0.608 254.96,0.608 L251.104,0.608 C250.336,0.608 250.032,0.88 249.856,2.128 L249.456,5.504 C249.44,5.68 249.408,5.84 249.408,6.048 C249.408,6.32 249.728,6.8 250.352,6.8 C251.168,6.8 251.312,6.272 252.24,6.272 C253.232,6.272 253.776,6.928 253.776,7.888 C253.776,8.896 253.2,9.984 252.08,9.984 C251.008,9.984 250.24,8.96 249.6,8.96 C249.008,8.96 248.512,9.456 248.512,10.048 C248.512,11.456 250.896,12.192 252.032,12.192 C254.8,12.192 256.272,10.432 256.272,7.76 C256.272,5.888 254.896,4.352 252.96,4.352 C252.56,4.352 252.144,4.432 251.76,4.512 L252,2.816 Z M260.144,3.952 C259.616,3.952 259.312,3.52 259.312,3.008 C259.312,2.496 259.616,2.048 260.144,2.048 C260.672,2.048 260.976,2.496 260.976,3.008 C260.976,3.52 260.672,3.952 260.144,3.952 L260.144,3.952 Z M260.144,5.584 C261.568,5.584 262.608,4.4 262.608,3.008 C262.608,1.616 261.568,0.416 260.144,0.416 C258.72,0.416 257.68,1.616 257.68,3.008 C257.68,4.4 258.72,5.584 260.144,5.584 L260.144,5.584 Z M265.776,12.192 C267.2,12.192 268.24,11.008 268.24,9.616 C268.24,8.224 267.2,7.024 265.776,7.024 C264.352,7.024 263.312,8.224 263.312,9.616 C263.312,11.008 264.352,12.192 265.776,12.192 L265.776,12.192 Z M265.776,10.56 C265.248,10.56 264.944,10.128 264.944,9.616 C264.944,9.104 265.248,8.656 265.776,8.656 C266.304,8.656 266.608,9.104 266.608,9.616 C266.608,10.128 266.304,10.56 265.776,10.56 L265.776,10.56 Z M259.568,10.816 C259.504,10.944 259.408,11.168 259.408,11.408 C259.408,11.888 259.904,12.288 260.32,12.288 C260.704,12.288 260.8,12.096 261.04,11.76 L266.416,1.696 C266.544,1.456 266.544,1.344 266.544,1.216 C266.544,0.72 266.096,0.32 265.6,0.32 C265.232,0.32 265.072,0.432 264.864,0.832 L259.568,10.816 Z" id="5%"></path>
                    <path d="M8.592,120.416 C6.224,120.416 4.576,122.304 4.576,124.384 C4.576,126.272 6,127.968 7.92,127.968 C8.272,127.968 8.64,127.904 8.928,127.776 L8.96,127.808 C8.432,128.56 7.392,129.584 6.752,130.368 C6.56,130.608 6.416,130.8 6.416,131.024 C6.416,131.6 7.104,132.192 7.552,132.192 C7.68,132.192 7.856,132.192 8.032,132.08 C8.224,131.952 8.416,131.824 8.544,131.696 C10.16,130.192 12.608,126.8 12.608,124.384 C12.608,122.256 11.056,120.416 8.592,120.416 L8.592,120.416 Z M8.592,126.048 C7.584,126.048 7.072,125.232 7.072,124.384 C7.072,123.456 7.68,122.72 8.592,122.72 C9.552,122.72 10.112,123.488 10.112,124.384 C10.112,125.328 9.504,126.048 8.592,126.048 L8.592,126.048 Z M17.184,122.816 L20.192,122.816 C20.48,122.816 21.312,122.72 21.312,121.616 C21.312,121.04 20.88,120.608 20.144,120.608 L16.288,120.608 C15.52,120.608 15.216,120.88 15.04,122.128 L14.64,125.504 C14.624,125.68 14.592,125.84 14.592,126.048 C14.592,126.32 14.912,126.8 15.536,126.8 C16.352,126.8 16.496,126.272 17.424,126.272 C18.416,126.272 18.96,126.928 18.96,127.888 C18.96,128.896 18.384,129.984 17.264,129.984 C16.192,129.984 15.424,128.96 14.784,128.96 C14.192,128.96 13.696,129.456 13.696,130.048 C13.696,131.456 16.08,132.192 17.216,132.192 C19.984,132.192 21.456,130.432 21.456,127.76 C21.456,125.888 20.08,124.352 18.144,124.352 C17.744,124.352 17.328,124.432 16.944,124.512 L17.184,122.816 Z M25.328,123.952 C24.8,123.952 24.496,123.52 24.496,123.008 C24.496,122.496 24.8,122.048 25.328,122.048 C25.856,122.048 26.16,122.496 26.16,123.008 C26.16,123.52 25.856,123.952 25.328,123.952 L25.328,123.952 Z M25.328,125.584 C26.752,125.584 27.792,124.4 27.792,123.008 C27.792,121.616 26.752,120.416 25.328,120.416 C23.904,120.416 22.864,121.616 22.864,123.008 C22.864,124.4 23.904,125.584 25.328,125.584 L25.328,125.584 Z M30.96,132.192 C32.384,132.192 33.424,131.008 33.424,129.616 C33.424,128.224 32.384,127.024 30.96,127.024 C29.536,127.024 28.496,128.224 28.496,129.616 C28.496,131.008 29.536,132.192 30.96,132.192 L30.96,132.192 Z M30.96,130.56 C30.432,130.56 30.128,130.128 30.128,129.616 C30.128,129.104 30.432,128.656 30.96,128.656 C31.488,128.656 31.792,129.104 31.792,129.616 C31.792,130.128 31.488,130.56 30.96,130.56 L30.96,130.56 Z M24.752,130.816 C24.688,130.944 24.592,131.168 24.592,131.408 C24.592,131.888 25.088,132.288 25.504,132.288 C25.888,132.288 25.984,132.096 26.224,131.76 L31.6,121.696 C31.728,121.456 31.728,121.344 31.728,121.216 C31.728,120.72 31.28,120.32 30.784,120.32 C30.416,120.32 30.256,120.432 30.048,120.832 L24.752,130.816 Z" id="95%"></path>
                    <path d="M65.52,130.4 C65.408,130.624 65.36,130.768 65.36,130.96 C65.36,131.424 65.808,132.096 66.688,132.096 C67.408,132.096 67.584,131.776 68.032,130.88 L72,122.816 C72.192,122.416 72.368,122.08 72.368,121.76 C72.368,121.344 72.032,120.608 71.216,120.608 L65.424,120.608 C64.544,120.608 64.24,121.152 64.24,121.712 C64.24,122.256 64.56,122.816 65.424,122.816 L69.52,122.816 L65.52,130.4 Z M76.608,122.816 L79.616,122.816 C79.904,122.816 80.736,122.72 80.736,121.616 C80.736,121.04 80.304,120.608 79.568,120.608 L75.712,120.608 C74.944,120.608 74.64,120.88 74.464,122.128 L74.064,125.504 C74.048,125.68 74.016,125.84 74.016,126.048 C74.016,126.32 74.336,126.8 74.96,126.8 C75.776,126.8 75.92,126.272 76.848,126.272 C77.84,126.272 78.384,126.928 78.384,127.888 C78.384,128.896 77.808,129.984 76.688,129.984 C75.616,129.984 74.848,128.96 74.208,128.96 C73.616,128.96 73.12,129.456 73.12,130.048 C73.12,131.456 75.504,132.192 76.64,132.192 C79.408,132.192 80.88,130.432 80.88,127.76 C80.88,125.888 79.504,124.352 77.568,124.352 C77.168,124.352 76.752,124.432 76.368,124.512 L76.608,122.816 Z M84.752,123.952 C84.224,123.952 83.92,123.52 83.92,123.008 C83.92,122.496 84.224,122.048 84.752,122.048 C85.28,122.048 85.584,122.496 85.584,123.008 C85.584,123.52 85.28,123.952 84.752,123.952 L84.752,123.952 Z M84.752,125.584 C86.176,125.584 87.216,124.4 87.216,123.008 C87.216,121.616 86.176,120.416 84.752,120.416 C83.328,120.416 82.288,121.616 82.288,123.008 C82.288,124.4 83.328,125.584 84.752,125.584 L84.752,125.584 Z M90.384,132.192 C91.808,132.192 92.848,131.008 92.848,129.616 C92.848,128.224 91.808,127.024 90.384,127.024 C88.96,127.024 87.92,128.224 87.92,129.616 C87.92,131.008 88.96,132.192 90.384,132.192 L90.384,132.192 Z M90.384,130.56 C89.856,130.56 89.552,130.128 89.552,129.616 C89.552,129.104 89.856,128.656 90.384,128.656 C90.912,128.656 91.216,129.104 91.216,129.616 C91.216,130.128 90.912,130.56 90.384,130.56 L90.384,130.56 Z M84.176,130.816 C84.112,130.944 84.016,131.168 84.016,131.408 C84.016,131.888 84.512,132.288 84.928,132.288 C85.312,132.288 85.408,132.096 85.648,131.76 L91.024,121.696 C91.152,121.456 91.152,121.344 91.152,121.216 C91.152,120.72 90.704,120.32 90.208,120.32 C89.84,120.32 89.68,120.432 89.472,120.832 L84.176,130.816 Z" id="75%"></path>
                    <path d="M127,122.816 L130.008,122.816 C130.296,122.816 131.128,122.72 131.128,121.616 C131.128,121.04 130.696,120.608 129.96,120.608 L126.104,120.608 C125.336,120.608 125.032,120.88 124.856,122.128 L124.456,125.504 C124.44,125.68 124.408,125.84 124.408,126.048 C124.408,126.32 124.728,126.8 125.352,126.8 C126.168,126.8 126.312,126.272 127.24,126.272 C128.232,126.272 128.776,126.928 128.776,127.888 C128.776,128.896 128.2,129.984 127.08,129.984 C126.008,129.984 125.24,128.96 124.6,128.96 C124.008,128.96 123.512,129.456 123.512,130.048 C123.512,131.456 125.896,132.192 127.032,132.192 C129.8,132.192 131.272,130.432 131.272,127.76 C131.272,125.888 129.896,124.352 127.96,124.352 C127.56,124.352 127.144,124.432 126.76,124.512 L127,122.816 Z M136.776,130.016 C135.144,130.016 135.032,127.44 135.032,126.304 C135.032,125.088 135.144,122.592 136.776,122.592 C138.408,122.592 138.52,125.088 138.52,126.304 C138.52,127.44 138.408,130.016 136.776,130.016 L136.776,130.016 Z M136.776,132.192 C140.008,132.192 141.016,128.912 141.016,126.304 C141.016,123.696 140.008,120.416 136.776,120.416 C133.544,120.416 132.536,123.696 132.536,126.304 C132.536,128.912 133.544,132.192 136.776,132.192 L136.776,132.192 Z M144.328,123.952 C143.8,123.952 143.496,123.52 143.496,123.008 C143.496,122.496 143.8,122.048 144.328,122.048 C144.856,122.048 145.16,122.496 145.16,123.008 C145.16,123.52 144.856,123.952 144.328,123.952 L144.328,123.952 Z M144.328,125.584 C145.752,125.584 146.792,124.4 146.792,123.008 C146.792,121.616 145.752,120.416 144.328,120.416 C142.904,120.416 141.864,121.616 141.864,123.008 C141.864,124.4 142.904,125.584 144.328,125.584 L144.328,125.584 Z M149.96,132.192 C151.384,132.192 152.424,131.008 152.424,129.616 C152.424,128.224 151.384,127.024 149.96,127.024 C148.536,127.024 147.496,128.224 147.496,129.616 C147.496,131.008 148.536,132.192 149.96,132.192 L149.96,132.192 Z M149.96,130.56 C149.432,130.56 149.128,130.128 149.128,129.616 C149.128,129.104 149.432,128.656 149.96,128.656 C150.488,128.656 150.792,129.104 150.792,129.616 C150.792,130.128 150.488,130.56 149.96,130.56 L149.96,130.56 Z M143.752,130.816 C143.688,130.944 143.592,131.168 143.592,131.408 C143.592,131.888 144.088,132.288 144.504,132.288 C144.888,132.288 144.984,132.096 145.224,131.76 L150.6,121.696 C150.728,121.456 150.728,121.344 150.728,121.216 C150.728,120.72 150.28,120.32 149.784,120.32 C149.416,120.32 149.256,120.432 149.048,120.832 L143.752,130.816 Z" id="50%"></path>
                    <path d="M188.288,129.888 C189.648,128.176 192.128,125.968 192.128,123.744 C192.128,121.712 190.544,120.416 188.576,120.416 C186.608,120.416 184.816,122.032 184.816,124.048 C184.816,124.672 185.216,125.216 185.984,125.216 C187.52,125.216 186.64,122.624 188.48,122.624 C189.136,122.624 189.632,123.2 189.632,123.856 C189.632,124.432 189.36,124.928 189.072,125.344 C187.856,127.104 186.416,128.544 185.088,130.128 C184.928,130.32 184.72,130.608 184.72,130.944 C184.72,131.68 185.264,132 185.968,132 L191.312,132 C191.92,132 192.464,131.68 192.464,130.944 C192.464,130.208 191.92,129.888 191.216,129.888 L188.288,129.888 Z M197.184,122.816 L200.192,122.816 C200.48,122.816 201.312,122.72 201.312,121.616 C201.312,121.04 200.88,120.608 200.144,120.608 L196.288,120.608 C195.52,120.608 195.216,120.88 195.04,122.128 L194.64,125.504 C194.624,125.68 194.592,125.84 194.592,126.048 C194.592,126.32 194.912,126.8 195.536,126.8 C196.352,126.8 196.496,126.272 197.424,126.272 C198.416,126.272 198.96,126.928 198.96,127.888 C198.96,128.896 198.384,129.984 197.264,129.984 C196.192,129.984 195.424,128.96 194.784,128.96 C194.192,128.96 193.696,129.456 193.696,130.048 C193.696,131.456 196.08,132.192 197.216,132.192 C199.984,132.192 201.456,130.432 201.456,127.76 C201.456,125.888 200.08,124.352 198.144,124.352 C197.744,124.352 197.328,124.432 196.944,124.512 L197.184,122.816 Z M205.328,123.952 C204.8,123.952 204.496,123.52 204.496,123.008 C204.496,122.496 204.8,122.048 205.328,122.048 C205.856,122.048 206.16,122.496 206.16,123.008 C206.16,123.52 205.856,123.952 205.328,123.952 L205.328,123.952 Z M205.328,125.584 C206.752,125.584 207.792,124.4 207.792,123.008 C207.792,121.616 206.752,120.416 205.328,120.416 C203.904,120.416 202.864,121.616 202.864,123.008 C202.864,124.4 203.904,125.584 205.328,125.584 L205.328,125.584 Z M210.96,132.192 C212.384,132.192 213.424,131.008 213.424,129.616 C213.424,128.224 212.384,127.024 210.96,127.024 C209.536,127.024 208.496,128.224 208.496,129.616 C208.496,131.008 209.536,132.192 210.96,132.192 L210.96,132.192 Z M210.96,130.56 C210.432,130.56 210.128,130.128 210.128,129.616 C210.128,129.104 210.432,128.656 210.96,128.656 C211.488,128.656 211.792,129.104 211.792,129.616 C211.792,130.128 211.488,130.56 210.96,130.56 L210.96,130.56 Z M204.752,130.816 C204.688,130.944 204.592,131.168 204.592,131.408 C204.592,131.888 205.088,132.288 205.504,132.288 C205.888,132.288 205.984,132.096 206.224,131.76 L211.6,121.696 C211.728,121.456 211.728,121.344 211.728,121.216 C211.728,120.72 211.28,120.32 210.784,120.32 C210.416,120.32 210.256,120.432 210.048,120.832 L204.752,130.816 Z" id="25%"></path>
                    <path d="M252,122.816 L255.008,122.816 C255.296,122.816 256.128,122.72 256.128,121.616 C256.128,121.04 255.696,120.608 254.96,120.608 L251.104,120.608 C250.336,120.608 250.032,120.88 249.856,122.128 L249.456,125.504 C249.44,125.68 249.408,125.84 249.408,126.048 C249.408,126.32 249.728,126.8 250.352,126.8 C251.168,126.8 251.312,126.272 252.24,126.272 C253.232,126.272 253.776,126.928 253.776,127.888 C253.776,128.896 253.2,129.984 252.08,129.984 C251.008,129.984 250.24,128.96 249.6,128.96 C249.008,128.96 248.512,129.456 248.512,130.048 C248.512,131.456 250.896,132.192 252.032,132.192 C254.8,132.192 256.272,130.432 256.272,127.76 C256.272,125.888 254.896,124.352 252.96,124.352 C252.56,124.352 252.144,124.432 251.76,124.512 L252,122.816 Z M260.144,123.952 C259.616,123.952 259.312,123.52 259.312,123.008 C259.312,122.496 259.616,122.048 260.144,122.048 C260.672,122.048 260.976,122.496 260.976,123.008 C260.976,123.52 260.672,123.952 260.144,123.952 L260.144,123.952 Z M260.144,125.584 C261.568,125.584 262.608,124.4 262.608,123.008 C262.608,121.616 261.568,120.416 260.144,120.416 C258.72,120.416 257.68,121.616 257.68,123.008 C257.68,124.4 258.72,125.584 260.144,125.584 L260.144,125.584 Z M265.776,132.192 C267.2,132.192 268.24,131.008 268.24,129.616 C268.24,128.224 267.2,127.024 265.776,127.024 C264.352,127.024 263.312,128.224 263.312,129.616 C263.312,131.008 264.352,132.192 265.776,132.192 L265.776,132.192 Z M265.776,130.56 C265.248,130.56 264.944,130.128 264.944,129.616 C264.944,129.104 265.248,128.656 265.776,128.656 C266.304,128.656 266.608,129.104 266.608,129.616 C266.608,130.128 266.304,130.56 265.776,130.56 L265.776,130.56 Z M259.568,130.816 C259.504,130.944 259.408,131.168 259.408,131.408 C259.408,131.888 259.904,132.288 260.32,132.288 C260.704,132.288 260.8,132.096 261.04,131.76 L266.416,121.696 C266.544,121.456 266.544,121.344 266.544,121.216 C266.544,120.72 266.096,120.32 265.6,120.32 C265.232,120.32 265.072,120.432 264.864,120.832 L259.568,130.816 Z" id="5%"></path>
                </g>
                <g id="hex" transform="translate(180.000000, 82.000000)" fill="#4A4A4A">
                    <path d="M5.334,7.976 L6.314,7.976 C6.636,7.976 6.888,7.822 6.888,7.514 C6.888,7.206 6.636,7.052 6.314,7.052 L5.46,7.052 L5.754,4.98 L6.734,4.98 C7.056,4.98 7.308,4.84 7.308,4.518 C7.308,4.21 7.056,4.056 6.734,4.056 L5.88,4.056 L6.16,2.012 C6.202,1.746 6.23,1.578 6.23,1.424 C6.23,1.172 6.09,0.948 5.754,0.948 C5.39,0.948 5.264,1.13 5.222,1.452 L4.858,4.056 L3.192,4.056 L3.472,2.012 C3.514,1.746 3.542,1.578 3.542,1.424 C3.542,1.172 3.402,0.948 3.066,0.948 C2.702,0.948 2.576,1.13 2.534,1.452 L2.17,4.056 L1.19,4.056 C0.868,4.056 0.616,4.21 0.616,4.518 C0.616,4.826 0.868,4.98 1.19,4.98 L2.044,4.98 L1.75,7.052 L0.77,7.052 C0.448,7.052 0.196,7.192 0.196,7.514 C0.196,7.822 0.448,7.976 0.77,7.976 L1.624,7.976 L1.344,10.02 C1.302,10.286 1.274,10.454 1.274,10.608 C1.274,10.86 1.414,11.084 1.75,11.084 C2.114,11.084 2.24,10.902 2.282,10.58 L2.646,7.976 L4.312,7.976 L4.032,10.02 C3.99,10.286 3.962,10.454 3.962,10.608 C3.962,10.86 4.102,11.084 4.438,11.084 C4.802,11.084 4.928,10.902 4.97,10.58 L5.334,7.976 Z M4.438,7.052 L2.772,7.052 L3.066,4.98 L4.732,4.98 L4.438,7.052 Z M9.478,7.276 C9.478,6.016 10.01,4.532 11.522,4.532 C13.034,4.532 13.566,6.016 13.566,7.276 C13.566,8.536 13.034,10.02 11.522,10.02 C10.01,10.02 9.478,8.536 9.478,7.276 L9.478,7.276 Z M8.372,10.426 C8.372,10.832 8.61,11.084 8.988,11.084 C9.366,11.084 9.604,10.832 9.604,10.426 L9.604,10.062 L9.632,10.062 C9.982,10.734 10.64,11.084 11.62,11.084 C13.636,11.084 14.798,9.25 14.798,7.276 C14.798,5.302 13.636,3.468 11.62,3.468 C10.64,3.468 9.954,4.014 9.632,4.476 L9.604,4.476 L9.604,0.85 C9.604,0.444 9.366,0.192 8.988,0.192 C8.61,0.192 8.372,0.444 8.372,0.85 L8.372,10.426 Z M17.724,4.616 L18.494,4.616 C18.9,4.616 19.11,4.42 19.11,4.084 C19.11,3.748 18.9,3.552 18.494,3.552 L17.724,3.552 L17.724,1.746 C17.724,1.438 17.85,1.256 18.228,1.256 L18.536,1.256 C18.998,1.256 19.208,1.06 19.208,0.724 C19.208,0.388 18.83,0.192 18.508,0.192 L18.13,0.192 C17.234,0.192 16.492,0.724 16.492,1.802 L16.492,3.552 L15.988,3.552 C15.582,3.552 15.372,3.748 15.372,4.084 C15.372,4.42 15.582,4.616 15.988,4.616 L16.492,4.616 L16.492,10.426 C16.492,10.832 16.73,11.084 17.108,11.084 C17.486,11.084 17.724,10.832 17.724,10.426 L17.724,4.616 Z M25.144,7.752 C25.676,7.752 25.83,7.528 25.83,7.094 C25.83,5.302 24.654,3.468 22.624,3.468 C20.538,3.468 19.278,5.26 19.278,7.276 C19.278,9.25 20.314,11.084 22.694,11.084 C24.15,11.084 25.676,10.16 25.676,9.558 C25.676,9.208 25.452,9.012 25.228,9.012 C24.766,9.012 24.346,10.02 22.708,10.02 C21.322,10.02 20.51,9.026 20.51,7.752 L25.144,7.752 Z M20.51,6.828 C20.552,5.694 21.098,4.476 22.624,4.532 C23.982,4.532 24.598,5.764 24.598,6.828 L20.51,6.828 Z M31.318,2.096 L31.318,2.124 L27.832,9.95 C27.678,10.314 27.636,10.51 27.636,10.608 C27.636,10.93 27.93,11.084 28.098,11.084 C28.364,11.084 28.672,11.028 28.84,10.636 L32.564,2.166 C32.718,1.816 32.802,1.62 32.802,1.424 C32.802,1.13 32.55,1.032 32.172,1.032 L27.118,1.032 C26.824,1.032 26.586,1.27 26.586,1.564 C26.586,1.858 26.824,2.096 27.118,2.096 L31.318,2.096 Z M35.63,4.616 L36.4,4.616 C36.806,4.616 37.016,4.42 37.016,4.084 C37.016,3.748 36.806,3.552 36.4,3.552 L35.63,3.552 L35.63,1.746 C35.63,1.438 35.756,1.256 36.134,1.256 L36.442,1.256 C36.904,1.256 37.114,1.06 37.114,0.724 C37.114,0.388 36.736,0.192 36.414,0.192 L36.036,0.192 C35.14,0.192 34.398,0.724 34.398,1.802 L34.398,3.552 L33.894,3.552 C33.488,3.552 33.278,3.748 33.278,4.084 C33.278,4.42 33.488,4.616 33.894,4.616 L34.398,4.616 L34.398,10.426 C34.398,10.832 34.636,11.084 35.014,11.084 C35.392,11.084 35.63,10.832 35.63,10.426 L35.63,4.616 Z M38.024,3.23 C38.024,4.294 38.43,4.882 39.326,5.442 C38.164,5.708 37.52,6.772 37.52,7.934 C37.52,9.558 38.626,11.084 40.572,11.084 C42.518,11.084 43.624,9.558 43.624,7.934 C43.624,6.772 42.98,5.708 41.818,5.442 C42.714,4.882 43.12,4.294 43.12,3.23 C43.12,1.704 41.832,0.948 40.572,0.948 C39.312,0.948 38.024,1.704 38.024,3.23 L38.024,3.23 Z M39.172,3.468 C39.172,2.628 39.69,2.012 40.572,2.012 C41.454,2.012 41.972,2.628 41.972,3.468 C41.972,4.322 41.454,4.938 40.572,4.938 C39.69,4.938 39.172,4.322 39.172,3.468 L39.172,3.468 Z M38.836,7.99 C38.836,6.968 39.424,6.002 40.572,6.002 C41.72,6.002 42.308,6.968 42.308,7.99 C42.308,9.278 41.496,10.02 40.572,10.02 C39.648,10.02 38.836,9.278 38.836,7.99 L38.836,7.99 Z" id="#BFE7F8"></path>
                    <path d="M68.334,7.976 L69.314,7.976 C69.636,7.976 69.888,7.822 69.888,7.514 C69.888,7.206 69.636,7.052 69.314,7.052 L68.46,7.052 L68.754,4.98 L69.734,4.98 C70.056,4.98 70.308,4.84 70.308,4.518 C70.308,4.21 70.056,4.056 69.734,4.056 L68.88,4.056 L69.16,2.012 C69.202,1.746 69.23,1.578 69.23,1.424 C69.23,1.172 69.09,0.948 68.754,0.948 C68.39,0.948 68.264,1.13 68.222,1.452 L67.858,4.056 L66.192,4.056 L66.472,2.012 C66.514,1.746 66.542,1.578 66.542,1.424 C66.542,1.172 66.402,0.948 66.066,0.948 C65.702,0.948 65.576,1.13 65.534,1.452 L65.17,4.056 L64.19,4.056 C63.868,4.056 63.616,4.21 63.616,4.518 C63.616,4.826 63.868,4.98 64.19,4.98 L65.044,4.98 L64.75,7.052 L63.77,7.052 C63.448,7.052 63.196,7.192 63.196,7.514 C63.196,7.822 63.448,7.976 63.77,7.976 L64.624,7.976 L64.344,10.02 C64.302,10.286 64.274,10.454 64.274,10.608 C64.274,10.86 64.414,11.084 64.75,11.084 C65.114,11.084 65.24,10.902 65.282,10.58 L65.646,7.976 L67.312,7.976 L67.032,10.02 C66.99,10.286 66.962,10.454 66.962,10.608 C66.962,10.86 67.102,11.084 67.438,11.084 C67.802,11.084 67.928,10.902 67.97,10.58 L68.334,7.976 Z M67.438,7.052 L65.772,7.052 L66.066,4.98 L67.732,4.98 L67.438,7.052 Z M72.94,4.616 L73.71,4.616 C74.116,4.616 74.326,4.42 74.326,4.084 C74.326,3.748 74.116,3.552 73.71,3.552 L72.94,3.552 L72.94,1.746 C72.94,1.438 73.066,1.256 73.444,1.256 L73.752,1.256 C74.214,1.256 74.424,1.06 74.424,0.724 C74.424,0.388 74.046,0.192 73.724,0.192 L73.346,0.192 C72.45,0.192 71.708,0.724 71.708,1.802 L71.708,3.552 L71.204,3.552 C70.798,3.552 70.588,3.748 70.588,4.084 C70.588,4.42 70.798,4.616 71.204,4.616 L71.708,4.616 L71.708,10.426 C71.708,10.832 71.946,11.084 72.324,11.084 C72.702,11.084 72.94,10.832 72.94,10.426 L72.94,4.616 Z M76.678,9.936 L80.024,5.484 C80.668,4.644 80.71,4 80.71,3.426 C80.71,2.138 79.674,0.948 78.022,0.948 C75.964,0.948 74.844,2.418 74.844,4.07 C74.844,4.588 75.054,4.826 75.446,4.826 C75.712,4.826 75.992,4.7 75.992,4.266 C75.992,3.02 76.622,2.012 77.812,2.012 C78.708,2.012 79.394,2.656 79.394,3.566 C79.394,4.168 79.086,4.784 78.666,5.33 L75.222,9.936 C75.012,10.23 74.956,10.342 74.956,10.496 C74.956,10.706 75.11,11 75.628,11 L80.458,11 C80.752,11 80.99,10.762 80.99,10.468 C80.99,10.174 80.752,9.936 80.458,9.936 L76.678,9.936 Z M84.07,4.616 L84.84,4.616 C85.246,4.616 85.456,4.42 85.456,4.084 C85.456,3.748 85.246,3.552 84.84,3.552 L84.07,3.552 L84.07,1.746 C84.07,1.438 84.196,1.256 84.574,1.256 L84.882,1.256 C85.344,1.256 85.554,1.06 85.554,0.724 C85.554,0.388 85.176,0.192 84.854,0.192 L84.476,0.192 C83.58,0.192 82.838,0.724 82.838,1.802 L82.838,3.552 L82.334,3.552 C81.928,3.552 81.718,3.748 81.718,4.084 C81.718,4.42 81.928,4.616 82.334,4.616 L82.838,4.616 L82.838,10.426 C82.838,10.832 83.076,11.084 83.454,11.084 C83.832,11.084 84.07,10.832 84.07,10.426 L84.07,4.616 Z M87.234,7.276 C87.234,6.016 87.766,4.532 89.278,4.532 C90.79,4.532 91.322,6.016 91.322,7.276 C91.322,8.536 90.79,10.02 89.278,10.02 C87.766,10.02 87.234,8.536 87.234,7.276 L87.234,7.276 Z M86.128,10.426 C86.128,10.832 86.366,11.084 86.744,11.084 C87.122,11.084 87.36,10.832 87.36,10.426 L87.36,10.062 L87.388,10.062 C87.738,10.734 88.396,11.084 89.376,11.084 C91.392,11.084 92.554,9.25 92.554,7.276 C92.554,5.302 91.392,3.468 89.376,3.468 C88.396,3.468 87.71,4.014 87.388,4.476 L87.36,4.476 L87.36,0.85 C87.36,0.444 87.122,0.192 86.744,0.192 C86.366,0.192 86.128,0.444 86.128,0.85 L86.128,10.426 Z M95.48,4.616 L96.25,4.616 C96.656,4.616 96.866,4.42 96.866,4.084 C96.866,3.748 96.656,3.552 96.25,3.552 L95.48,3.552 L95.48,1.746 C95.48,1.438 95.606,1.256 95.984,1.256 L96.292,1.256 C96.754,1.256 96.964,1.06 96.964,0.724 C96.964,0.388 96.586,0.192 96.264,0.192 L95.886,0.192 C94.99,0.192 94.248,0.724 94.248,1.802 L94.248,3.552 L93.744,3.552 C93.338,3.552 93.128,3.748 93.128,4.084 C93.128,4.42 93.338,4.616 93.744,4.616 L94.248,4.616 L94.248,10.426 C94.248,10.832 94.486,11.084 94.864,11.084 C95.242,11.084 95.48,10.832 95.48,10.426 L95.48,4.616 Z M102.9,7.752 C103.432,7.752 103.586,7.528 103.586,7.094 C103.586,5.302 102.41,3.468 100.38,3.468 C98.294,3.468 97.034,5.26 97.034,7.276 C97.034,9.25 98.07,11.084 100.45,11.084 C101.906,11.084 103.432,10.16 103.432,9.558 C103.432,9.208 103.208,9.012 102.984,9.012 C102.522,9.012 102.102,10.02 100.464,10.02 C99.078,10.02 98.266,9.026 98.266,7.752 L102.9,7.752 Z M98.266,6.828 C98.308,5.694 98.854,4.476 100.38,4.532 C101.738,4.532 102.354,5.764 102.354,6.828 L98.266,6.828 Z" id="#F2FBFE"></path>
                </g>
            </g>
        </g>
    </g>
</svg>