<?xml version="1.0" encoding="UTF-8" standalone="no"?>
<svg width="290px" height="218px" viewBox="0 0 290 218" version="1.1" xmlns="http://www.w3.org/2000/svg" xmlns:xlink="http://www.w3.org/1999/xlink">
    <!-- Generator: Sketch 39.1 (31720) - http://www.bohemiancoding.com/sketch -->
    <title>accessibility-white-sunshine-hex</title>
    <desc>Created with Sketch.</desc>
    <defs>
        <rect id="path-1" x="240" y="26" width="50" height="50" rx="25"></rect>
        <mask id="mask-2" maskContentUnits="userSpaceOnUse" maskUnits="objectBoundingBox" x="0" y="0" width="50" height="50" fill="white">
            <use xlink:href="#path-1"></use>
        </mask>
    </defs>
    <g id="Templates" stroke="none" stroke-width="1" fill="none" fill-rule="evenodd">
        <g id="25-colour-accessibility" transform="translate(-675.000000, -3462.000000)">
            <g id="accessibility-white-sunshine-hex" transform="translate(675.000000, 3462.000000)">
                <rect id="colours-use-2-copy-70" fill="#FFED00" opacity="0.95" transform="translate(25.000000, 51.000000) rotate(-90.000000) translate(-25.000000, -51.000000) " x="0" y="26" width="50" height="50" rx="25"></rect>
                <rect id="colours-use-2-copy-61" fill="#FFF240" transform="translate(85.000000, 51.000000) rotate(-90.000000) translate(-85.000000, -51.000000) " x="60" y="26" width="50" height="50" rx="25"></rect>
                <rect id="colours-use-2-copy-62" fill="#FFF67F" transform="translate(145.000000, 51.000000) rotate(-90.000000) translate(-145.000000, -51.000000) " x="120" y="26" width="50" height="50" rx="25"></rect>
                <rect id="colours-use-2-copy-63" fill="#FFFBBF" transform="translate(205.000000, 51.000000) rotate(-90.000000) translate(-205.000000, -51.000000) " x="180" y="26" width="50" height="50" rx="25"></rect>
                <use id="colours-use-2-copy-64" stroke="#FFFBBF" mask="url(#mask-2)" stroke-width="2" fill="#FFFFF2" transform="translate(265.000000, 51.000000) rotate(-90.000000) translate(-265.000000, -51.000000) " xlink:href="#path-1"></use>
                <rect id="colours-use-2-copy-65" fill="#F4E302" transform="translate(25.000000, 171.000000) rotate(-90.000000) translate(-25.000000, -171.000000) " x="0" y="146" width="50" height="50" rx="25"></rect>
                <rect id="colours-use-2-copy-66" fill="#CDC00D" transform="translate(85.000000, 171.000000) rotate(-90.000000) translate(-85.000000, -171.000000) " x="60" y="146" width="50" height="50" rx="25"></rect>
                <rect id="colours-use-2-copy-67" fill="#9C931A" transform="translate(145.000000, 171.000000) rotate(-90.000000) translate(-145.000000, -171.000000) " x="120" y="146" width="50" height="50" rx="25"></rect>
                <rect id="colours-use-2-copy-68" fill="#6A6728" transform="translate(205.000000, 171.000000) rotate(-90.000000) translate(-205.000000, -171.000000) " x="180" y="146" width="50" height="50" rx="25"></rect>
                <rect id="colours-use-2-copy-69" fill="#434433" transform="translate(265.000000, 171.000000) rotate(-90.000000) translate(-265.000000, -171.000000) " x="240" y="146" width="50" height="50" rx="25"></rect>
                <polygon id="Star-1" fill="#D0011B" points="265 10.5 260.885503 12.663119 261.671302 8.08155948 258.342604 4.83688104 262.942752 4.16844052 265 0 267.057248 4.16844052 271.657396 4.83688104 268.328698 8.08155948 269.114497 12.663119"></polygon>
                <polygon id="Star-1" fill="#D0011B" points="203 10.5 198.885503 12.663119 199.671302 8.08155948 196.342604 4.83688104 200.942752 4.16844052 203 0 205.057248 4.16844052 209.657396 4.83688104 206.328698 8.08155948 207.114497 12.663119"></polygon>
                <polygon id="Star-1" fill="#D0011B" points="143 10.5 138.885503 12.663119 139.671302 8.08155948 136.342604 4.83688104 140.942752 4.16844052 143 0 145.057248 4.16844052 149.657396 4.83688104 146.328698 8.08155948 147.114497 12.663119"></polygon>
                <polygon id="Star-1" fill="#D0011B" points="85 10.5 80.8855032 12.663119 81.6713022 8.08155948 78.3426044 4.83688104 82.9427516 4.16844052 85 0 87.0572484 4.16844052 91.6573956 4.83688104 88.3286978 8.08155948 89.1144968 12.663119"></polygon>
                <polygon id="Star-1" fill="#D0011B" points="25 10.5 20.8855032 12.663119 21.6713022 8.08155948 18.3426044 4.83688104 22.9427516 4.16844052 25 0 27.0572484 4.16844052 31.6573956 4.83688104 28.3286978 8.08155948 29.1144968 12.663119"></polygon>
                <polygon id="Star-1" fill="#D0011B" points="85 133.5 80.8855032 135.663119 81.6713022 131.081559 78.3426044 127.836881 82.9427516 127.168441 85 123 87.0572484 127.168441 91.6573956 127.836881 88.3286978 131.081559 89.1144968 135.663119"></polygon>
                <polygon id="Star-1" fill="#E69900" points="145 133.5 140.885503 135.663119 141.671302 131.081559 138.342604 127.836881 142.942752 127.168441 145 123 147.057248 127.168441 151.657396 127.836881 148.328698 131.081559 149.114497 135.663119"></polygon>
                <polygon id="Star-1" fill="#8AB82E" points="205 133.5 200.885503 135.663119 201.671302 131.081559 198.342604 127.836881 202.942752 127.168441 205 123 207.057248 127.168441 211.657396 127.836881 208.328698 131.081559 209.114497 135.663119"></polygon>
                <polygon id="Star-1" fill="#8AB82E" points="267 133.5 262.885503 135.663119 263.671302 131.081559 260.342604 127.836881 264.942752 127.168441 267 123 269.057248 127.168441 273.657396 127.836881 270.328698 131.081559 271.114497 135.663119"></polygon>
                <polygon id="Star-1" fill="#D0011B" points="25 133.5 20.8855032 135.663119 21.6713022 131.081559 18.3426044 127.836881 22.9427516 127.168441 25 123 27.0572484 127.168441 31.6573956 127.836881 28.3286978 131.081559 29.1144968 135.663119"></polygon>
                <g id="%-" transform="translate(9.000000, 45.000000)" fill="#FFFFFF">
                    <path d="M2.432,10.848 C2.432,11.648 2.944,12.096 3.632,12.096 C4.32,12.096 4.832,11.648 4.832,10.848 L4.832,1.744 C4.832,1.104 4.448,0.608 3.76,0.608 L1.488,0.608 C0.8,0.608 0.4,1.152 0.4,1.712 C0.4,2.256 0.72,2.816 1.488,2.816 L2.432,2.816 L2.432,10.848 Z M10.512,10.016 C8.88,10.016 8.768,7.44 8.768,6.304 C8.768,5.088 8.88,2.592 10.512,2.592 C12.144,2.592 12.256,5.088 12.256,6.304 C12.256,7.44 12.144,10.016 10.512,10.016 L10.512,10.016 Z M10.512,12.192 C13.744,12.192 14.752,8.912 14.752,6.304 C14.752,3.696 13.744,0.416 10.512,0.416 C7.28,0.416 6.272,3.696 6.272,6.304 C6.272,8.912 7.28,12.192 10.512,12.192 L10.512,12.192 Z M19.696,10.016 C18.064,10.016 17.952,7.44 17.952,6.304 C17.952,5.088 18.064,2.592 19.696,2.592 C21.328,2.592 21.44,5.088 21.44,6.304 C21.44,7.44 21.328,10.016 19.696,10.016 L19.696,10.016 Z M19.696,12.192 C22.928,12.192 23.936,8.912 23.936,6.304 C23.936,3.696 22.928,0.416 19.696,0.416 C16.464,0.416 15.456,3.696 15.456,6.304 C15.456,8.912 16.464,12.192 19.696,12.192 L19.696,12.192 Z M27.248,3.952 C26.72,3.952 26.416,3.52 26.416,3.008 C26.416,2.496 26.72,2.048 27.248,2.048 C27.776,2.048 28.08,2.496 28.08,3.008 C28.08,3.52 27.776,3.952 27.248,3.952 L27.248,3.952 Z M27.248,5.584 C28.672,5.584 29.712,4.4 29.712,3.008 C29.712,1.616 28.672,0.416 27.248,0.416 C25.824,0.416 24.784,1.616 24.784,3.008 C24.784,4.4 25.824,5.584 27.248,5.584 L27.248,5.584 Z M32.88,12.192 C34.304,12.192 35.344,11.008 35.344,9.616 C35.344,8.224 34.304,7.024 32.88,7.024 C31.456,7.024 30.416,8.224 30.416,9.616 C30.416,11.008 31.456,12.192 32.88,12.192 L32.88,12.192 Z M32.88,10.56 C32.352,10.56 32.048,10.128 32.048,9.616 C32.048,9.104 32.352,8.656 32.88,8.656 C33.408,8.656 33.712,9.104 33.712,9.616 C33.712,10.128 33.408,10.56 32.88,10.56 L32.88,10.56 Z M26.672,10.816 C26.608,10.944 26.512,11.168 26.512,11.408 C26.512,11.888 27.008,12.288 27.424,12.288 C27.808,12.288 27.904,12.096 28.144,11.76 L33.52,1.696 C33.648,1.456 33.648,1.344 33.648,1.216 C33.648,0.72 33.2,0.32 32.704,0.32 C32.336,0.32 32.176,0.432 31.968,0.832 L26.672,10.816 Z" id="100%"></path>
                    <path d="M65.52,10.4 C65.408,10.624 65.36,10.768 65.36,10.96 C65.36,11.424 65.808,12.096 66.688,12.096 C67.408,12.096 67.584,11.776 68.032,10.88 L72,2.816 C72.192,2.416 72.368,2.08 72.368,1.76 C72.368,1.344 72.032,0.608 71.216,0.608 L65.424,0.608 C64.544,0.608 64.24,1.152 64.24,1.712 C64.24,2.256 64.56,2.816 65.424,2.816 L69.52,2.816 L65.52,10.4 Z M76.608,2.816 L79.616,2.816 C79.904,2.816 80.736,2.72 80.736,1.616 C80.736,1.04 80.304,0.608 79.568,0.608 L75.712,0.608 C74.944,0.608 74.64,0.88 74.464,2.128 L74.064,5.504 C74.048,5.68 74.016,5.84 74.016,6.048 C74.016,6.32 74.336,6.8 74.96,6.8 C75.776,6.8 75.92,6.272 76.848,6.272 C77.84,6.272 78.384,6.928 78.384,7.888 C78.384,8.896 77.808,9.984 76.688,9.984 C75.616,9.984 74.848,8.96 74.208,8.96 C73.616,8.96 73.12,9.456 73.12,10.048 C73.12,11.456 75.504,12.192 76.64,12.192 C79.408,12.192 80.88,10.432 80.88,7.76 C80.88,5.888 79.504,4.352 77.568,4.352 C77.168,4.352 76.752,4.432 76.368,4.512 L76.608,2.816 Z M84.752,3.952 C84.224,3.952 83.92,3.52 83.92,3.008 C83.92,2.496 84.224,2.048 84.752,2.048 C85.28,2.048 85.584,2.496 85.584,3.008 C85.584,3.52 85.28,3.952 84.752,3.952 L84.752,3.952 Z M84.752,5.584 C86.176,5.584 87.216,4.4 87.216,3.008 C87.216,1.616 86.176,0.416 84.752,0.416 C83.328,0.416 82.288,1.616 82.288,3.008 C82.288,4.4 83.328,5.584 84.752,5.584 L84.752,5.584 Z M90.384,12.192 C91.808,12.192 92.848,11.008 92.848,9.616 C92.848,8.224 91.808,7.024 90.384,7.024 C88.96,7.024 87.92,8.224 87.92,9.616 C87.92,11.008 88.96,12.192 90.384,12.192 L90.384,12.192 Z M90.384,10.56 C89.856,10.56 89.552,10.128 89.552,9.616 C89.552,9.104 89.856,8.656 90.384,8.656 C90.912,8.656 91.216,9.104 91.216,9.616 C91.216,10.128 90.912,10.56 90.384,10.56 L90.384,10.56 Z M84.176,10.816 C84.112,10.944 84.016,11.168 84.016,11.408 C84.016,11.888 84.512,12.288 84.928,12.288 C85.312,12.288 85.408,12.096 85.648,11.76 L91.024,1.696 C91.152,1.456 91.152,1.344 91.152,1.216 C91.152,0.72 90.704,0.32 90.208,0.32 C89.84,0.32 89.68,0.432 89.472,0.832 L84.176,10.816 Z" id="75%"></path>
                    <path d="M127,2.816 L130.008,2.816 C130.296,2.816 131.128,2.72 131.128,1.616 C131.128,1.04 130.696,0.608 129.96,0.608 L126.104,0.608 C125.336,0.608 125.032,0.88 124.856,2.128 L124.456,5.504 C124.44,5.68 124.408,5.84 124.408,6.048 C124.408,6.32 124.728,6.8 125.352,6.8 C126.168,6.8 126.312,6.272 127.24,6.272 C128.232,6.272 128.776,6.928 128.776,7.888 C128.776,8.896 128.2,9.984 127.08,9.984 C126.008,9.984 125.24,8.96 124.6,8.96 C124.008,8.96 123.512,9.456 123.512,10.048 C123.512,11.456 125.896,12.192 127.032,12.192 C129.8,12.192 131.272,10.432 131.272,7.76 C131.272,5.888 129.896,4.352 127.96,4.352 C127.56,4.352 127.144,4.432 126.76,4.512 L127,2.816 Z M136.776,10.016 C135.144,10.016 135.032,7.44 135.032,6.304 C135.032,5.088 135.144,2.592 136.776,2.592 C138.408,2.592 138.52,5.088 138.52,6.304 C138.52,7.44 138.408,10.016 136.776,10.016 L136.776,10.016 Z M136.776,12.192 C140.008,12.192 141.016,8.912 141.016,6.304 C141.016,3.696 140.008,0.416 136.776,0.416 C133.544,0.416 132.536,3.696 132.536,6.304 C132.536,8.912 133.544,12.192 136.776,12.192 L136.776,12.192 Z M144.328,3.952 C143.8,3.952 143.496,3.52 143.496,3.008 C143.496,2.496 143.8,2.048 144.328,2.048 C144.856,2.048 145.16,2.496 145.16,3.008 C145.16,3.52 144.856,3.952 144.328,3.952 L144.328,3.952 Z M144.328,5.584 C145.752,5.584 146.792,4.4 146.792,3.008 C146.792,1.616 145.752,0.416 144.328,0.416 C142.904,0.416 141.864,1.616 141.864,3.008 C141.864,4.4 142.904,5.584 144.328,5.584 L144.328,5.584 Z M149.96,12.192 C151.384,12.192 152.424,11.008 152.424,9.616 C152.424,8.224 151.384,7.024 149.96,7.024 C148.536,7.024 147.496,8.224 147.496,9.616 C147.496,11.008 148.536,12.192 149.96,12.192 L149.96,12.192 Z M149.96,10.56 C149.432,10.56 149.128,10.128 149.128,9.616 C149.128,9.104 149.432,8.656 149.96,8.656 C150.488,8.656 150.792,9.104 150.792,9.616 C150.792,10.128 150.488,10.56 149.96,10.56 L149.96,10.56 Z M143.752,10.816 C143.688,10.944 143.592,11.168 143.592,11.408 C143.592,11.888 144.088,12.288 144.504,12.288 C144.888,12.288 144.984,12.096 145.224,11.76 L150.6,1.696 C150.728,1.456 150.728,1.344 150.728,1.216 C150.728,0.72 150.28,0.32 149.784,0.32 C149.416,0.32 149.256,0.432 149.048,0.832 L143.752,10.816 Z" id="50%"></path>
                    <path d="M188.288,9.888 C189.648,8.176 192.128,5.968 192.128,3.744 C192.128,1.712 190.544,0.416 188.576,0.416 C186.608,0.416 184.816,2.032 184.816,4.048 C184.816,4.672 185.216,5.216 185.984,5.216 C187.52,5.216 186.64,2.624 188.48,2.624 C189.136,2.624 189.632,3.2 189.632,3.856 C189.632,4.432 189.36,4.928 189.072,5.344 C187.856,7.104 186.416,8.544 185.088,10.128 C184.928,10.32 184.72,10.608 184.72,10.944 C184.72,11.68 185.264,12 185.968,12 L191.312,12 C191.92,12 192.464,11.68 192.464,10.944 C192.464,10.208 191.92,9.888 191.216,9.888 L188.288,9.888 Z M197.184,2.816 L200.192,2.816 C200.48,2.816 201.312,2.72 201.312,1.616 C201.312,1.04 200.88,0.608 200.144,0.608 L196.288,0.608 C195.52,0.608 195.216,0.88 195.04,2.128 L194.64,5.504 C194.624,5.68 194.592,5.84 194.592,6.048 C194.592,6.32 194.912,6.8 195.536,6.8 C196.352,6.8 196.496,6.272 197.424,6.272 C198.416,6.272 198.96,6.928 198.96,7.888 C198.96,8.896 198.384,9.984 197.264,9.984 C196.192,9.984 195.424,8.96 194.784,8.96 C194.192,8.96 193.696,9.456 193.696,10.048 C193.696,11.456 196.08,12.192 197.216,12.192 C199.984,12.192 201.456,10.432 201.456,7.76 C201.456,5.888 200.08,4.352 198.144,4.352 C197.744,4.352 197.328,4.432 196.944,4.512 L197.184,2.816 Z M205.328,3.952 C204.8,3.952 204.496,3.52 204.496,3.008 C204.496,2.496 204.8,2.048 205.328,2.048 C205.856,2.048 206.16,2.496 206.16,3.008 C206.16,3.52 205.856,3.952 205.328,3.952 L205.328,3.952 Z M205.328,5.584 C206.752,5.584 207.792,4.4 207.792,3.008 C207.792,1.616 206.752,0.416 205.328,0.416 C203.904,0.416 202.864,1.616 202.864,3.008 C202.864,4.4 203.904,5.584 205.328,5.584 L205.328,5.584 Z M210.96,12.192 C212.384,12.192 213.424,11.008 213.424,9.616 C213.424,8.224 212.384,7.024 210.96,7.024 C209.536,7.024 208.496,8.224 208.496,9.616 C208.496,11.008 209.536,12.192 210.96,12.192 L210.96,12.192 Z M210.96,10.56 C210.432,10.56 210.128,10.128 210.128,9.616 C210.128,9.104 210.432,8.656 210.96,8.656 C211.488,8.656 211.792,9.104 211.792,9.616 C211.792,10.128 211.488,10.56 210.96,10.56 L210.96,10.56 Z M204.752,10.816 C204.688,10.944 204.592,11.168 204.592,11.408 C204.592,11.888 205.088,12.288 205.504,12.288 C205.888,12.288 205.984,12.096 206.224,11.76 L211.6,1.696 C211.728,1.456 211.728,1.344 211.728,1.216 C211.728,0.72 211.28,0.32 210.784,0.32 C210.416,0.32 210.256,0.432 210.048,0.832 L204.752,10.816 Z" id="25%"></path>
                    <path d="M252,2.816 L255.008,2.816 C255.296,2.816 256.128,2.72 256.128,1.616 C256.128,1.04 255.696,0.608 254.96,0.608 L251.104,0.608 C250.336,0.608 250.032,0.88 249.856,2.128 L249.456,5.504 C249.44,5.68 249.408,5.84 249.408,6.048 C249.408,6.32 249.728,6.8 250.352,6.8 C251.168,6.8 251.312,6.272 252.24,6.272 C253.232,6.272 253.776,6.928 253.776,7.888 C253.776,8.896 253.2,9.984 252.08,9.984 C251.008,9.984 250.24,8.96 249.6,8.96 C249.008,8.96 248.512,9.456 248.512,10.048 C248.512,11.456 250.896,12.192 252.032,12.192 C254.8,12.192 256.272,10.432 256.272,7.76 C256.272,5.888 254.896,4.352 252.96,4.352 C252.56,4.352 252.144,4.432 251.76,4.512 L252,2.816 Z M260.144,3.952 C259.616,3.952 259.312,3.52 259.312,3.008 C259.312,2.496 259.616,2.048 260.144,2.048 C260.672,2.048 260.976,2.496 260.976,3.008 C260.976,3.52 260.672,3.952 260.144,3.952 L260.144,3.952 Z M260.144,5.584 C261.568,5.584 262.608,4.4 262.608,3.008 C262.608,1.616 261.568,0.416 260.144,0.416 C258.72,0.416 257.68,1.616 257.68,3.008 C257.68,4.4 258.72,5.584 260.144,5.584 L260.144,5.584 Z M265.776,12.192 C267.2,12.192 268.24,11.008 268.24,9.616 C268.24,8.224 267.2,7.024 265.776,7.024 C264.352,7.024 263.312,8.224 263.312,9.616 C263.312,11.008 264.352,12.192 265.776,12.192 L265.776,12.192 Z M265.776,10.56 C265.248,10.56 264.944,10.128 264.944,9.616 C264.944,9.104 265.248,8.656 265.776,8.656 C266.304,8.656 266.608,9.104 266.608,9.616 C266.608,10.128 266.304,10.56 265.776,10.56 L265.776,10.56 Z M259.568,10.816 C259.504,10.944 259.408,11.168 259.408,11.408 C259.408,11.888 259.904,12.288 260.32,12.288 C260.704,12.288 260.8,12.096 261.04,11.76 L266.416,1.696 C266.544,1.456 266.544,1.344 266.544,1.216 C266.544,0.72 266.096,0.32 265.6,0.32 C265.232,0.32 265.072,0.432 264.864,0.832 L259.568,10.816 Z" id="5%"></path>
                    <path d="M8.592,120.416 C6.224,120.416 4.576,122.304 4.576,124.384 C4.576,126.272 6,127.968 7.92,127.968 C8.272,127.968 8.64,127.904 8.928,127.776 L8.96,127.808 C8.432,128.56 7.392,129.584 6.752,130.368 C6.56,130.608 6.416,130.8 6.416,131.024 C6.416,131.6 7.104,132.192 7.552,132.192 C7.68,132.192 7.856,132.192 8.032,132.08 C8.224,131.952 8.416,131.824 8.544,131.696 C10.16,130.192 12.608,126.8 12.608,124.384 C12.608,122.256 11.056,120.416 8.592,120.416 L8.592,120.416 Z M8.592,126.048 C7.584,126.048 7.072,125.232 7.072,124.384 C7.072,123.456 7.68,122.72 8.592,122.72 C9.552,122.72 10.112,123.488 10.112,124.384 C10.112,125.328 9.504,126.048 8.592,126.048 L8.592,126.048 Z M17.184,122.816 L20.192,122.816 C20.48,122.816 21.312,122.72 21.312,121.616 C21.312,121.04 20.88,120.608 20.144,120.608 L16.288,120.608 C15.52,120.608 15.216,120.88 15.04,122.128 L14.64,125.504 C14.624,125.68 14.592,125.84 14.592,126.048 C14.592,126.32 14.912,126.8 15.536,126.8 C16.352,126.8 16.496,126.272 17.424,126.272 C18.416,126.272 18.96,126.928 18.96,127.888 C18.96,128.896 18.384,129.984 17.264,129.984 C16.192,129.984 15.424,128.96 14.784,128.96 C14.192,128.96 13.696,129.456 13.696,130.048 C13.696,131.456 16.08,132.192 17.216,132.192 C19.984,132.192 21.456,130.432 21.456,127.76 C21.456,125.888 20.08,124.352 18.144,124.352 C17.744,124.352 17.328,124.432 16.944,124.512 L17.184,122.816 Z M25.328,123.952 C24.8,123.952 24.496,123.52 24.496,123.008 C24.496,122.496 24.8,122.048 25.328,122.048 C25.856,122.048 26.16,122.496 26.16,123.008 C26.16,123.52 25.856,123.952 25.328,123.952 L25.328,123.952 Z M25.328,125.584 C26.752,125.584 27.792,124.4 27.792,123.008 C27.792,121.616 26.752,120.416 25.328,120.416 C23.904,120.416 22.864,121.616 22.864,123.008 C22.864,124.4 23.904,125.584 25.328,125.584 L25.328,125.584 Z M30.96,132.192 C32.384,132.192 33.424,131.008 33.424,129.616 C33.424,128.224 32.384,127.024 30.96,127.024 C29.536,127.024 28.496,128.224 28.496,129.616 C28.496,131.008 29.536,132.192 30.96,132.192 L30.96,132.192 Z M30.96,130.56 C30.432,130.56 30.128,130.128 30.128,129.616 C30.128,129.104 30.432,128.656 30.96,128.656 C31.488,128.656 31.792,129.104 31.792,129.616 C31.792,130.128 31.488,130.56 30.96,130.56 L30.96,130.56 Z M24.752,130.816 C24.688,130.944 24.592,131.168 24.592,131.408 C24.592,131.888 25.088,132.288 25.504,132.288 C25.888,132.288 25.984,132.096 26.224,131.76 L31.6,121.696 C31.728,121.456 31.728,121.344 31.728,121.216 C31.728,120.72 31.28,120.32 30.784,120.32 C30.416,120.32 30.256,120.432 30.048,120.832 L24.752,130.816 Z" id="95%"></path>
                    <path d="M65.52,130.4 C65.408,130.624 65.36,130.768 65.36,130.96 C65.36,131.424 65.808,132.096 66.688,132.096 C67.408,132.096 67.584,131.776 68.032,130.88 L72,122.816 C72.192,122.416 72.368,122.08 72.368,121.76 C72.368,121.344 72.032,120.608 71.216,120.608 L65.424,120.608 C64.544,120.608 64.24,121.152 64.24,121.712 C64.24,122.256 64.56,122.816 65.424,122.816 L69.52,122.816 L65.52,130.4 Z M76.608,122.816 L79.616,122.816 C79.904,122.816 80.736,122.72 80.736,121.616 C80.736,121.04 80.304,120.608 79.568,120.608 L75.712,120.608 C74.944,120.608 74.64,120.88 74.464,122.128 L74.064,125.504 C74.048,125.68 74.016,125.84 74.016,126.048 C74.016,126.32 74.336,126.8 74.96,126.8 C75.776,126.8 75.92,126.272 76.848,126.272 C77.84,126.272 78.384,126.928 78.384,127.888 C78.384,128.896 77.808,129.984 76.688,129.984 C75.616,129.984 74.848,128.96 74.208,128.96 C73.616,128.96 73.12,129.456 73.12,130.048 C73.12,131.456 75.504,132.192 76.64,132.192 C79.408,132.192 80.88,130.432 80.88,127.76 C80.88,125.888 79.504,124.352 77.568,124.352 C77.168,124.352 76.752,124.432 76.368,124.512 L76.608,122.816 Z M84.752,123.952 C84.224,123.952 83.92,123.52 83.92,123.008 C83.92,122.496 84.224,122.048 84.752,122.048 C85.28,122.048 85.584,122.496 85.584,123.008 C85.584,123.52 85.28,123.952 84.752,123.952 L84.752,123.952 Z M84.752,125.584 C86.176,125.584 87.216,124.4 87.216,123.008 C87.216,121.616 86.176,120.416 84.752,120.416 C83.328,120.416 82.288,121.616 82.288,123.008 C82.288,124.4 83.328,125.584 84.752,125.584 L84.752,125.584 Z M90.384,132.192 C91.808,132.192 92.848,131.008 92.848,129.616 C92.848,128.224 91.808,127.024 90.384,127.024 C88.96,127.024 87.92,128.224 87.92,129.616 C87.92,131.008 88.96,132.192 90.384,132.192 L90.384,132.192 Z M90.384,130.56 C89.856,130.56 89.552,130.128 89.552,129.616 C89.552,129.104 89.856,128.656 90.384,128.656 C90.912,128.656 91.216,129.104 91.216,129.616 C91.216,130.128 90.912,130.56 90.384,130.56 L90.384,130.56 Z M84.176,130.816 C84.112,130.944 84.016,131.168 84.016,131.408 C84.016,131.888 84.512,132.288 84.928,132.288 C85.312,132.288 85.408,132.096 85.648,131.76 L91.024,121.696 C91.152,121.456 91.152,121.344 91.152,121.216 C91.152,120.72 90.704,120.32 90.208,120.32 C89.84,120.32 89.68,120.432 89.472,120.832 L84.176,130.816 Z" id="75%"></path>
                    <path d="M127,122.816 L130.008,122.816 C130.296,122.816 131.128,122.72 131.128,121.616 C131.128,121.04 130.696,120.608 129.96,120.608 L126.104,120.608 C125.336,120.608 125.032,120.88 124.856,122.128 L124.456,125.504 C124.44,125.68 124.408,125.84 124.408,126.048 C124.408,126.32 124.728,126.8 125.352,126.8 C126.168,126.8 126.312,126.272 127.24,126.272 C128.232,126.272 128.776,126.928 128.776,127.888 C128.776,128.896 128.2,129.984 127.08,129.984 C126.008,129.984 125.24,128.96 124.6,128.96 C124.008,128.96 123.512,129.456 123.512,130.048 C123.512,131.456 125.896,132.192 127.032,132.192 C129.8,132.192 131.272,130.432 131.272,127.76 C131.272,125.888 129.896,124.352 127.96,124.352 C127.56,124.352 127.144,124.432 126.76,124.512 L127,122.816 Z M136.776,130.016 C135.144,130.016 135.032,127.44 135.032,126.304 C135.032,125.088 135.144,122.592 136.776,122.592 C138.408,122.592 138.52,125.088 138.52,126.304 C138.52,127.44 138.408,130.016 136.776,130.016 L136.776,130.016 Z M136.776,132.192 C140.008,132.192 141.016,128.912 141.016,126.304 C141.016,123.696 140.008,120.416 136.776,120.416 C133.544,120.416 132.536,123.696 132.536,126.304 C132.536,128.912 133.544,132.192 136.776,132.192 L136.776,132.192 Z M144.328,123.952 C143.8,123.952 143.496,123.52 143.496,123.008 C143.496,122.496 143.8,122.048 144.328,122.048 C144.856,122.048 145.16,122.496 145.16,123.008 C145.16,123.52 144.856,123.952 144.328,123.952 L144.328,123.952 Z M144.328,125.584 C145.752,125.584 146.792,124.4 146.792,123.008 C146.792,121.616 145.752,120.416 144.328,120.416 C142.904,120.416 141.864,121.616 141.864,123.008 C141.864,124.4 142.904,125.584 144.328,125.584 L144.328,125.584 Z M149.96,132.192 C151.384,132.192 152.424,131.008 152.424,129.616 C152.424,128.224 151.384,127.024 149.96,127.024 C148.536,127.024 147.496,128.224 147.496,129.616 C147.496,131.008 148.536,132.192 149.96,132.192 L149.96,132.192 Z M149.96,130.56 C149.432,130.56 149.128,130.128 149.128,129.616 C149.128,129.104 149.432,128.656 149.96,128.656 C150.488,128.656 150.792,129.104 150.792,129.616 C150.792,130.128 150.488,130.56 149.96,130.56 L149.96,130.56 Z M143.752,130.816 C143.688,130.944 143.592,131.168 143.592,131.408 C143.592,131.888 144.088,132.288 144.504,132.288 C144.888,132.288 144.984,132.096 145.224,131.76 L150.6,121.696 C150.728,121.456 150.728,121.344 150.728,121.216 C150.728,120.72 150.28,120.32 149.784,120.32 C149.416,120.32 149.256,120.432 149.048,120.832 L143.752,130.816 Z" id="50%"></path>
                    <path d="M188.288,129.888 C189.648,128.176 192.128,125.968 192.128,123.744 C192.128,121.712 190.544,120.416 188.576,120.416 C186.608,120.416 184.816,122.032 184.816,124.048 C184.816,124.672 185.216,125.216 185.984,125.216 C187.52,125.216 186.64,122.624 188.48,122.624 C189.136,122.624 189.632,123.2 189.632,123.856 C189.632,124.432 189.36,124.928 189.072,125.344 C187.856,127.104 186.416,128.544 185.088,130.128 C184.928,130.32 184.72,130.608 184.72,130.944 C184.72,131.68 185.264,132 185.968,132 L191.312,132 C191.92,132 192.464,131.68 192.464,130.944 C192.464,130.208 191.92,129.888 191.216,129.888 L188.288,129.888 Z M197.184,122.816 L200.192,122.816 C200.48,122.816 201.312,122.72 201.312,121.616 C201.312,121.04 200.88,120.608 200.144,120.608 L196.288,120.608 C195.52,120.608 195.216,120.88 195.04,122.128 L194.64,125.504 C194.624,125.68 194.592,125.84 194.592,126.048 C194.592,126.32 194.912,126.8 195.536,126.8 C196.352,126.8 196.496,126.272 197.424,126.272 C198.416,126.272 198.96,126.928 198.96,127.888 C198.96,128.896 198.384,129.984 197.264,129.984 C196.192,129.984 195.424,128.96 194.784,128.96 C194.192,128.96 193.696,129.456 193.696,130.048 C193.696,131.456 196.08,132.192 197.216,132.192 C199.984,132.192 201.456,130.432 201.456,127.76 C201.456,125.888 200.08,124.352 198.144,124.352 C197.744,124.352 197.328,124.432 196.944,124.512 L197.184,122.816 Z M205.328,123.952 C204.8,123.952 204.496,123.52 204.496,123.008 C204.496,122.496 204.8,122.048 205.328,122.048 C205.856,122.048 206.16,122.496 206.16,123.008 C206.16,123.52 205.856,123.952 205.328,123.952 L205.328,123.952 Z M205.328,125.584 C206.752,125.584 207.792,124.4 207.792,123.008 C207.792,121.616 206.752,120.416 205.328,120.416 C203.904,120.416 202.864,121.616 202.864,123.008 C202.864,124.4 203.904,125.584 205.328,125.584 L205.328,125.584 Z M210.96,132.192 C212.384,132.192 213.424,131.008 213.424,129.616 C213.424,128.224 212.384,127.024 210.96,127.024 C209.536,127.024 208.496,128.224 208.496,129.616 C208.496,131.008 209.536,132.192 210.96,132.192 L210.96,132.192 Z M210.96,130.56 C210.432,130.56 210.128,130.128 210.128,129.616 C210.128,129.104 210.432,128.656 210.96,128.656 C211.488,128.656 211.792,129.104 211.792,129.616 C211.792,130.128 211.488,130.56 210.96,130.56 L210.96,130.56 Z M204.752,130.816 C204.688,130.944 204.592,131.168 204.592,131.408 C204.592,131.888 205.088,132.288 205.504,132.288 C205.888,132.288 205.984,132.096 206.224,131.76 L211.6,121.696 C211.728,121.456 211.728,121.344 211.728,121.216 C211.728,120.72 211.28,120.32 210.784,120.32 C210.416,120.32 210.256,120.432 210.048,120.832 L204.752,130.816 Z" id="25%"></path>
                    <path d="M252,122.816 L255.008,122.816 C255.296,122.816 256.128,122.72 256.128,121.616 C256.128,121.04 255.696,120.608 254.96,120.608 L251.104,120.608 C250.336,120.608 250.032,120.88 249.856,122.128 L249.456,125.504 C249.44,125.68 249.408,125.84 249.408,126.048 C249.408,126.32 249.728,126.8 250.352,126.8 C251.168,126.8 251.312,126.272 252.24,126.272 C253.232,126.272 253.776,126.928 253.776,127.888 C253.776,128.896 253.2,129.984 252.08,129.984 C251.008,129.984 250.24,128.96 249.6,128.96 C249.008,128.96 248.512,129.456 248.512,130.048 C248.512,131.456 250.896,132.192 252.032,132.192 C254.8,132.192 256.272,130.432 256.272,127.76 C256.272,125.888 254.896,124.352 252.96,124.352 C252.56,124.352 252.144,124.432 251.76,124.512 L252,122.816 Z M260.144,123.952 C259.616,123.952 259.312,123.52 259.312,123.008 C259.312,122.496 259.616,122.048 260.144,122.048 C260.672,122.048 260.976,122.496 260.976,123.008 C260.976,123.52 260.672,123.952 260.144,123.952 L260.144,123.952 Z M260.144,125.584 C261.568,125.584 262.608,124.4 262.608,123.008 C262.608,121.616 261.568,120.416 260.144,120.416 C258.72,120.416 257.68,121.616 257.68,123.008 C257.68,124.4 258.72,125.584 260.144,125.584 L260.144,125.584 Z M265.776,132.192 C267.2,132.192 268.24,131.008 268.24,129.616 C268.24,128.224 267.2,127.024 265.776,127.024 C264.352,127.024 263.312,128.224 263.312,129.616 C263.312,131.008 264.352,132.192 265.776,132.192 L265.776,132.192 Z M265.776,130.56 C265.248,130.56 264.944,130.128 264.944,129.616 C264.944,129.104 265.248,128.656 265.776,128.656 C266.304,128.656 266.608,129.104 266.608,129.616 C266.608,130.128 266.304,130.56 265.776,130.56 L265.776,130.56 Z M259.568,130.816 C259.504,130.944 259.408,131.168 259.408,131.408 C259.408,131.888 259.904,132.288 260.32,132.288 C260.704,132.288 260.8,132.096 261.04,131.76 L266.416,121.696 C266.544,121.456 266.544,121.344 266.544,121.216 C266.544,120.72 266.096,120.32 265.6,120.32 C265.232,120.32 265.072,120.432 264.864,120.832 L259.568,130.816 Z" id="5%"></path>
                </g>
                <g id="hex" transform="translate(173.000000, 206.000000)" fill="#4A4A4A">
                    <path d="M5.334,7.976 L6.314,7.976 C6.636,7.976 6.888,7.822 6.888,7.514 C6.888,7.206 6.636,7.052 6.314,7.052 L5.46,7.052 L5.754,4.98 L6.734,4.98 C7.056,4.98 7.308,4.84 7.308,4.518 C7.308,4.21 7.056,4.056 6.734,4.056 L5.88,4.056 L6.16,2.012 C6.202,1.746 6.23,1.578 6.23,1.424 C6.23,1.172 6.09,0.948 5.754,0.948 C5.39,0.948 5.264,1.13 5.222,1.452 L4.858,4.056 L3.192,4.056 L3.472,2.012 C3.514,1.746 3.542,1.578 3.542,1.424 C3.542,1.172 3.402,0.948 3.066,0.948 C2.702,0.948 2.576,1.13 2.534,1.452 L2.17,4.056 L1.19,4.056 C0.868,4.056 0.616,4.21 0.616,4.518 C0.616,4.826 0.868,4.98 1.19,4.98 L2.044,4.98 L1.75,7.052 L0.77,7.052 C0.448,7.052 0.196,7.192 0.196,7.514 C0.196,7.822 0.448,7.976 0.77,7.976 L1.624,7.976 L1.344,10.02 C1.302,10.286 1.274,10.454 1.274,10.608 C1.274,10.86 1.414,11.084 1.75,11.084 C2.114,11.084 2.24,10.902 2.282,10.58 L2.646,7.976 L4.312,7.976 L4.032,10.02 C3.99,10.286 3.962,10.454 3.962,10.608 C3.962,10.86 4.102,11.084 4.438,11.084 C4.802,11.084 4.928,10.902 4.97,10.58 L5.334,7.976 Z M4.438,7.052 L2.772,7.052 L3.066,4.98 L4.732,4.98 L4.438,7.052 Z M11.228,11.084 C12.992,11.084 14.28,9.642 14.28,7.836 C14.28,6.1 13.384,4.56 11.76,4.56 C11.088,4.56 10.64,4.714 10.178,4.952 L10.15,4.952 C10.906,3.566 11.494,2.894 12.292,2.18 C12.642,1.872 12.782,1.718 12.782,1.522 C12.782,1.144 12.474,0.948 12.278,0.948 C12.11,0.948 11.956,1.018 11.704,1.228 C10.192,2.502 8.232,4.742 8.232,7.654 C8.232,9.642 9.492,11.084 11.228,11.084 L11.228,11.084 Z M9.464,7.78 C9.464,6.632 9.996,5.624 11.214,5.624 C12.432,5.624 12.964,6.464 12.964,7.78 C12.964,8.942 12.432,9.936 11.214,9.936 C9.996,9.936 9.464,8.942 9.464,7.78 L9.464,7.78 Z M21.98,4.07 C21.98,3.636 21.644,3.468 21.406,3.468 C21.154,3.468 20.832,3.636 20.832,4.07 L20.832,4.462 L20.804,4.462 C20.23,3.832 19.628,3.468 18.774,3.468 C16.674,3.468 15.498,5.302 15.498,7.276 C15.498,9.25 16.674,11.084 18.774,11.084 C19.572,11.084 20.272,10.72 20.804,9.964 L20.832,9.964 L20.832,10.482 C20.832,10.916 21.154,11.084 21.406,11.084 C21.644,11.084 21.98,10.916 21.98,10.482 L21.98,4.07 Z M16.73,7.276 C16.73,6.016 17.262,4.532 18.774,4.532 C20.286,4.532 20.818,6.016 20.818,7.276 C20.818,8.536 20.286,10.02 18.774,10.02 C17.262,10.02 16.73,8.536 16.73,7.276 L16.73,7.276 Z M26.516,11.084 C28.28,11.084 29.568,9.642 29.568,7.836 C29.568,6.1 28.672,4.56 27.048,4.56 C26.376,4.56 25.928,4.714 25.466,4.952 L25.438,4.952 C26.194,3.566 26.782,2.894 27.58,2.18 C27.93,1.872 28.07,1.718 28.07,1.522 C28.07,1.144 27.762,0.948 27.566,0.948 C27.398,0.948 27.244,1.018 26.992,1.228 C25.48,2.502 23.52,4.742 23.52,7.654 C23.52,9.642 24.78,11.084 26.516,11.084 L26.516,11.084 Z M24.752,7.78 C24.752,6.632 25.284,5.624 26.502,5.624 C27.72,5.624 28.252,6.464 28.252,7.78 C28.252,8.942 27.72,9.936 26.502,9.936 C25.284,9.936 24.752,8.942 24.752,7.78 L24.752,7.78 Z M35.42,2.096 L35.42,2.124 L31.934,9.95 C31.78,10.314 31.738,10.51 31.738,10.608 C31.738,10.93 32.032,11.084 32.2,11.084 C32.466,11.084 32.774,11.028 32.942,10.636 L36.666,2.166 C36.82,1.816 36.904,1.62 36.904,1.424 C36.904,1.13 36.652,1.032 36.274,1.032 L31.22,1.032 C30.926,1.032 30.688,1.27 30.688,1.564 C30.688,1.858 30.926,2.096 31.22,2.096 L35.42,2.096 Z M39.844,9.936 L43.19,5.484 C43.834,4.644 43.876,4 43.876,3.426 C43.876,2.138 42.84,0.948 41.188,0.948 C39.13,0.948 38.01,2.418 38.01,4.07 C38.01,4.588 38.22,4.826 38.612,4.826 C38.878,4.826 39.158,4.7 39.158,4.266 C39.158,3.02 39.788,2.012 40.978,2.012 C41.874,2.012 42.56,2.656 42.56,3.566 C42.56,4.168 42.252,4.784 41.832,5.33 L38.388,9.936 C38.178,10.23 38.122,10.342 38.122,10.496 C38.122,10.706 38.276,11 38.794,11 L43.624,11 C43.918,11 44.156,10.762 44.156,10.468 C44.156,10.174 43.918,9.936 43.624,9.936 L39.844,9.936 Z M46.004,3.23 C46.004,4.294 46.41,4.882 47.306,5.442 C46.144,5.708 45.5,6.772 45.5,7.934 C45.5,9.558 46.606,11.084 48.552,11.084 C50.498,11.084 51.604,9.558 51.604,7.934 C51.604,6.772 50.96,5.708 49.798,5.442 C50.694,4.882 51.1,4.294 51.1,3.23 C51.1,1.704 49.812,0.948 48.552,0.948 C47.292,0.948 46.004,1.704 46.004,3.23 L46.004,3.23 Z M47.152,3.468 C47.152,2.628 47.67,2.012 48.552,2.012 C49.434,2.012 49.952,2.628 49.952,3.468 C49.952,4.322 49.434,4.938 48.552,4.938 C47.67,4.938 47.152,4.322 47.152,3.468 L47.152,3.468 Z M46.816,7.99 C46.816,6.968 47.404,6.002 48.552,6.002 C49.7,6.002 50.288,6.968 50.288,7.99 C50.288,9.278 49.476,10.02 48.552,10.02 C47.628,10.02 46.816,9.278 46.816,7.99 L46.816,7.99 Z" id="#6A6728"></path>
                    <path d="M66.334,7.976 L67.314,7.976 C67.636,7.976 67.888,7.822 67.888,7.514 C67.888,7.206 67.636,7.052 67.314,7.052 L66.46,7.052 L66.754,4.98 L67.734,4.98 C68.056,4.98 68.308,4.84 68.308,4.518 C68.308,4.21 68.056,4.056 67.734,4.056 L66.88,4.056 L67.16,2.012 C67.202,1.746 67.23,1.578 67.23,1.424 C67.23,1.172 67.09,0.948 66.754,0.948 C66.39,0.948 66.264,1.13 66.222,1.452 L65.858,4.056 L64.192,4.056 L64.472,2.012 C64.514,1.746 64.542,1.578 64.542,1.424 C64.542,1.172 64.402,0.948 64.066,0.948 C63.702,0.948 63.576,1.13 63.534,1.452 L63.17,4.056 L62.19,4.056 C61.868,4.056 61.616,4.21 61.616,4.518 C61.616,4.826 61.868,4.98 62.19,4.98 L63.044,4.98 L62.75,7.052 L61.77,7.052 C61.448,7.052 61.196,7.192 61.196,7.514 C61.196,7.822 61.448,7.976 61.77,7.976 L62.624,7.976 L62.344,10.02 C62.302,10.286 62.274,10.454 62.274,10.608 C62.274,10.86 62.414,11.084 62.75,11.084 C63.114,11.084 63.24,10.902 63.282,10.58 L63.646,7.976 L65.312,7.976 L65.032,10.02 C64.99,10.286 64.962,10.454 64.962,10.608 C64.962,10.86 65.102,11.084 65.438,11.084 C65.802,11.084 65.928,10.902 65.97,10.58 L66.334,7.976 Z M65.438,7.052 L63.772,7.052 L64.066,4.98 L65.732,4.98 L65.438,7.052 Z M73.18,8.438 L73.18,10.426 C73.18,10.832 73.418,11.084 73.796,11.084 C74.174,11.084 74.412,10.832 74.412,10.426 L74.412,8.438 L75.042,8.438 C75.336,8.438 75.574,8.2 75.574,7.906 C75.574,7.612 75.336,7.374 75.042,7.374 L74.412,7.374 L74.412,1.97 C74.412,1.242 74.02,0.948 73.474,0.948 C73.04,0.948 72.76,1.088 72.508,1.508 L68.98,7.29 C68.798,7.584 68.672,7.822 68.672,8.004 C68.672,8.256 68.784,8.438 69.204,8.438 L73.18,8.438 Z M70.212,7.374 L73.152,2.264 L73.18,2.264 L73.18,7.374 L70.212,7.374 Z M82.672,8.06 C82.672,6.926 82.084,5.974 80.964,5.638 C81.748,5.162 82.14,4.35 82.14,3.524 C82.14,2.124 81.146,0.948 79.55,0.948 C77.898,0.948 76.932,2.138 76.932,3.468 C76.932,3.79 77.142,4.042 77.492,4.042 C77.702,4.042 78.038,4.028 78.08,3.468 C78.15,2.712 78.514,2.012 79.494,2.012 C80.348,2.012 80.908,2.684 80.908,3.636 C80.908,4.546 80.502,5.022 79.508,5.246 C79.046,5.344 78.864,5.498 78.864,5.778 C78.864,6.1 79.13,6.31 79.62,6.31 C80.544,6.31 81.356,6.688 81.356,8.172 C81.356,9.194 80.572,10.02 79.466,10.02 C78.528,10.02 78.024,9.46 77.786,8.746 C77.646,8.312 77.464,8.102 77.1,8.102 C76.806,8.102 76.582,8.354 76.582,8.788 C76.582,9.53 77.422,11.084 79.494,11.084 C81.272,11.084 82.672,9.95 82.672,8.06 L82.672,8.06 Z M88.188,8.438 L88.188,10.426 C88.188,10.832 88.426,11.084 88.804,11.084 C89.182,11.084 89.42,10.832 89.42,10.426 L89.42,8.438 L90.05,8.438 C90.344,8.438 90.582,8.2 90.582,7.906 C90.582,7.612 90.344,7.374 90.05,7.374 L89.42,7.374 L89.42,1.97 C89.42,1.242 89.028,0.948 88.482,0.948 C88.048,0.948 87.768,1.088 87.516,1.508 L83.988,7.29 C83.806,7.584 83.68,7.822 83.68,8.004 C83.68,8.256 83.792,8.438 84.212,8.438 L88.188,8.438 Z M85.22,7.374 L88.16,2.264 L88.188,2.264 L88.188,7.374 L85.22,7.374 Z M95.692,8.438 L95.692,10.426 C95.692,10.832 95.93,11.084 96.308,11.084 C96.686,11.084 96.924,10.832 96.924,10.426 L96.924,8.438 L97.554,8.438 C97.848,8.438 98.086,8.2 98.086,7.906 C98.086,7.612 97.848,7.374 97.554,7.374 L96.924,7.374 L96.924,1.97 C96.924,1.242 96.532,0.948 95.986,0.948 C95.552,0.948 95.272,1.088 95.02,1.508 L91.492,7.29 C91.31,7.584 91.184,7.822 91.184,8.004 C91.184,8.256 91.296,8.438 91.716,8.438 L95.692,8.438 Z M92.724,7.374 L95.664,2.264 L95.692,2.264 L95.692,7.374 L92.724,7.374 Z M105.184,8.06 C105.184,6.926 104.596,5.974 103.476,5.638 C104.26,5.162 104.652,4.35 104.652,3.524 C104.652,2.124 103.658,0.948 102.062,0.948 C100.41,0.948 99.444,2.138 99.444,3.468 C99.444,3.79 99.654,4.042 100.004,4.042 C100.214,4.042 100.55,4.028 100.592,3.468 C100.662,2.712 101.026,2.012 102.006,2.012 C102.86,2.012 103.42,2.684 103.42,3.636 C103.42,4.546 103.014,5.022 102.02,5.246 C101.558,5.344 101.376,5.498 101.376,5.778 C101.376,6.1 101.642,6.31 102.132,6.31 C103.056,6.31 103.868,6.688 103.868,8.172 C103.868,9.194 103.084,10.02 101.978,10.02 C101.04,10.02 100.536,9.46 100.298,8.746 C100.158,8.312 99.976,8.102 99.612,8.102 C99.318,8.102 99.094,8.354 99.094,8.788 C99.094,9.53 99.934,11.084 102.006,11.084 C103.784,11.084 105.184,9.95 105.184,8.06 L105.184,8.06 Z M112.688,8.06 C112.688,6.926 112.1,5.974 110.98,5.638 C111.764,5.162 112.156,4.35 112.156,3.524 C112.156,2.124 111.162,0.948 109.566,0.948 C107.914,0.948 106.948,2.138 106.948,3.468 C106.948,3.79 107.158,4.042 107.508,4.042 C107.718,4.042 108.054,4.028 108.096,3.468 C108.166,2.712 108.53,2.012 109.51,2.012 C110.364,2.012 110.924,2.684 110.924,3.636 C110.924,4.546 110.518,5.022 109.524,5.246 C109.062,5.344 108.88,5.498 108.88,5.778 C108.88,6.1 109.146,6.31 109.636,6.31 C110.56,6.31 111.372,6.688 111.372,8.172 C111.372,9.194 110.588,10.02 109.482,10.02 C108.544,10.02 108.04,9.46 107.802,8.746 C107.662,8.312 107.48,8.102 107.116,8.102 C106.822,8.102 106.598,8.354 106.598,8.788 C106.598,9.53 107.438,11.084 109.51,11.084 C111.288,11.084 112.688,9.95 112.688,8.06 L112.688,8.06 Z" id="#434433"></path>
                </g>
            </g>
        </g>
    </g>
</svg>