<?xml version="1.0" encoding="UTF-8" standalone="no"?>
<svg width="290px" height="193px" viewBox="0 0 290 193" version="1.1" xmlns="http://www.w3.org/2000/svg" xmlns:xlink="http://www.w3.org/1999/xlink">
    <!-- Generator: Sketch 39.1 (31720) - http://www.bohemiancoding.com/sketch -->
    <title>accessibility-charcoal-midnight-hex</title>
    <desc>Created with Sketch.</desc>
    <defs>
        <rect id="path-1" x="240" y="23" width="50" height="50" rx="25"></rect>
        <mask id="mask-2" maskContentUnits="userSpaceOnUse" maskUnits="objectBoundingBox" x="0" y="0" width="50" height="50" fill="white">
            <use xlink:href="#path-1"></use>
        </mask>
    </defs>
    <g id="Templates" stroke="none" stroke-width="1" fill="none" fill-rule="evenodd">
        <g id="25-colour-accessibility" transform="translate(-1078.000000, -2791.000000)">
            <g id="accessibility-charcoal-midnight-hex" transform="translate(1078.000000, 2791.000000)">
                <rect id="colours-use-2-copy-70" fill="#1D3661" opacity="0.95" transform="translate(25.000000, 48.000000) rotate(-90.000000) translate(-25.000000, -48.000000) " x="0" y="23" width="50" height="50" rx="25"></rect>
                <rect id="colours-use-2-copy-61" fill="#566989" transform="translate(85.000000, 48.000000) rotate(-90.000000) translate(-85.000000, -48.000000) " x="60" y="23" width="50" height="50" rx="25"></rect>
                <rect id="colours-use-2-copy-62" fill="#8E9BB0" transform="translate(145.000000, 48.000000) rotate(-90.000000) translate(-145.000000, -48.000000) " x="120" y="23" width="50" height="50" rx="25"></rect>
                <rect id="colours-use-2-copy-63" fill="#C7CDD8" transform="translate(205.000000, 48.000000) rotate(-90.000000) translate(-205.000000, -48.000000) " x="180" y="23" width="50" height="50" rx="25"></rect>
                <use id="colours-use-2-copy-64" stroke="#C7CDD8" mask="url(#mask-2)" stroke-width="2" fill="#F4F5F7" transform="translate(265.000000, 48.000000) rotate(-90.000000) translate(-265.000000, -48.000000) " xlink:href="#path-1"></use>
                <rect id="colours-use-2-copy-65" fill="#1E365F" transform="translate(25.000000, 168.000000) rotate(-90.000000) translate(-25.000000, -168.000000) " x="0" y="143" width="50" height="50" rx="25"></rect>
                <rect id="colours-use-2-copy-66" fill="#243756" transform="translate(85.000000, 168.000000) rotate(-90.000000) translate(-85.000000, -168.000000) " x="60" y="143" width="50" height="50" rx="25"></rect>
                <rect id="colours-use-2-copy-67" fill="#2B384B" transform="translate(145.000000, 168.000000) rotate(-90.000000) translate(-145.000000, -168.000000) " x="120" y="143" width="50" height="50" rx="25"></rect>
                <rect id="colours-use-2-copy-68" fill="#323941" transform="translate(205.000000, 168.000000) rotate(-90.000000) translate(-205.000000, -168.000000) " x="180" y="143" width="50" height="50" rx="25"></rect>
                <rect id="colours-use-2-copy-69" fill="#383A38" transform="translate(265.000000, 168.000000) rotate(-90.000000) translate(-265.000000, -168.000000) " x="240" y="143" width="50" height="50" rx="25"></rect>
                <polygon id="Star-1" fill="#8AB82E" points="264.657396 10.5 260.542899 12.663119 261.328698 8.08155948 258 4.83688104 262.600147 4.16844052 264.657396 0 266.714644 4.16844052 271.314791 4.83688104 267.986093 8.08155948 268.771892 12.663119"></polygon>
                <polygon id="Star-1" fill="#8AB82E" points="204.657396 10.5 200.542899 12.663119 201.328698 8.08155948 198 4.83688104 202.600147 4.16844052 204.657396 0 206.714644 4.16844052 211.314791 4.83688104 207.986093 8.08155948 208.771892 12.663119"></polygon>
                <polygon id="Star-1" fill="#D0021B" points="143.657396 10.5 139.542899 12.663119 140.328698 8.08155948 137 4.83688104 141.600147 4.16844052 143.657396 0 145.714644 4.16844052 150.314791 4.83688104 146.986093 8.08155948 147.771892 12.663119"></polygon>
                <polygon id="Star-1" fill="#D0021B" points="84.6573956 10.5 80.5428988 12.663119 81.3286978 8.08155948 78 4.83688104 82.6001472 4.16844052 84.6573956 0 86.714644 4.16844052 91.3147912 4.83688104 87.9860934 8.08155948 88.7718924 12.663119"></polygon>
                <polygon id="Star-1" fill="#D0021B" points="24.6573956 10.5 20.5428988 12.663119 21.3286978 8.08155948 18 4.83688104 22.6001472 4.16844052 24.6573956 0 26.714644 4.16844052 31.3147912 4.83688104 27.9860934 8.08155948 28.7718924 12.663119"></polygon>
                <polygon id="Star-1" fill="#D0021B" points="84.6573956 129.5 80.5428988 131.663119 81.3286978 127.081559 78 123.836881 82.6001472 123.168441 84.6573956 119 86.714644 123.168441 91.3147912 123.836881 87.9860934 127.081559 88.7718924 131.663119"></polygon>
                <polygon id="Star-1" fill="#D0021B" points="143.657396 129.5 139.542899 131.663119 140.328698 127.081559 137 123.836881 141.600147 123.168441 143.657396 119 145.714644 123.168441 150.314791 123.836881 146.986093 127.081559 147.771892 131.663119"></polygon>
                <polygon id="Star-1" fill="#D0021B" points="204.657396 129.5 200.542899 131.663119 201.328698 127.081559 198 123.836881 202.600147 123.168441 204.657396 119 206.714644 123.168441 211.314791 123.836881 207.986093 127.081559 208.771892 131.663119"></polygon>
                <polygon id="Star-1" fill="#D0021B" points="264.657396 129.5 260.542899 131.663119 261.328698 127.081559 258 123.836881 262.600147 123.168441 264.657396 119 266.714644 123.168441 271.314791 123.836881 267.986093 127.081559 268.771892 131.663119"></polygon>
                <polygon id="Star-1" fill="#D0021B" points="24.6573956 129.5 20.5428988 131.663119 21.3286978 127.081559 18 123.836881 22.6001472 123.168441 24.6573956 119 26.714644 123.168441 31.3147912 123.836881 27.9860934 127.081559 28.7718924 131.663119"></polygon>
                <g id="%--" transform="translate(8.000000, 42.000000)" fill="#575756">
                    <path d="M2.432,10.848 C2.432,11.648 2.944,12.096 3.632,12.096 C4.32,12.096 4.832,11.648 4.832,10.848 L4.832,1.744 C4.832,1.104 4.448,0.608 3.76,0.608 L1.488,0.608 C0.8,0.608 0.4,1.152 0.4,1.712 C0.4,2.256 0.72,2.816 1.488,2.816 L2.432,2.816 L2.432,10.848 Z M10.512,10.016 C8.88,10.016 8.768,7.44 8.768,6.304 C8.768,5.088 8.88,2.592 10.512,2.592 C12.144,2.592 12.256,5.088 12.256,6.304 C12.256,7.44 12.144,10.016 10.512,10.016 L10.512,10.016 Z M10.512,12.192 C13.744,12.192 14.752,8.912 14.752,6.304 C14.752,3.696 13.744,0.416 10.512,0.416 C7.28,0.416 6.272,3.696 6.272,6.304 C6.272,8.912 7.28,12.192 10.512,12.192 L10.512,12.192 Z M19.696,10.016 C18.064,10.016 17.952,7.44 17.952,6.304 C17.952,5.088 18.064,2.592 19.696,2.592 C21.328,2.592 21.44,5.088 21.44,6.304 C21.44,7.44 21.328,10.016 19.696,10.016 L19.696,10.016 Z M19.696,12.192 C22.928,12.192 23.936,8.912 23.936,6.304 C23.936,3.696 22.928,0.416 19.696,0.416 C16.464,0.416 15.456,3.696 15.456,6.304 C15.456,8.912 16.464,12.192 19.696,12.192 L19.696,12.192 Z M27.248,3.952 C26.72,3.952 26.416,3.52 26.416,3.008 C26.416,2.496 26.72,2.048 27.248,2.048 C27.776,2.048 28.08,2.496 28.08,3.008 C28.08,3.52 27.776,3.952 27.248,3.952 L27.248,3.952 Z M27.248,5.584 C28.672,5.584 29.712,4.4 29.712,3.008 C29.712,1.616 28.672,0.416 27.248,0.416 C25.824,0.416 24.784,1.616 24.784,3.008 C24.784,4.4 25.824,5.584 27.248,5.584 L27.248,5.584 Z M32.88,12.192 C34.304,12.192 35.344,11.008 35.344,9.616 C35.344,8.224 34.304,7.024 32.88,7.024 C31.456,7.024 30.416,8.224 30.416,9.616 C30.416,11.008 31.456,12.192 32.88,12.192 L32.88,12.192 Z M32.88,10.56 C32.352,10.56 32.048,10.128 32.048,9.616 C32.048,9.104 32.352,8.656 32.88,8.656 C33.408,8.656 33.712,9.104 33.712,9.616 C33.712,10.128 33.408,10.56 32.88,10.56 L32.88,10.56 Z M26.672,10.816 C26.608,10.944 26.512,11.168 26.512,11.408 C26.512,11.888 27.008,12.288 27.424,12.288 C27.808,12.288 27.904,12.096 28.144,11.76 L33.52,1.696 C33.648,1.456 33.648,1.344 33.648,1.216 C33.648,0.72 33.2,0.32 32.704,0.32 C32.336,0.32 32.176,0.432 31.968,0.832 L26.672,10.816 Z" id="100%"></path>
                    <path d="M66.52,10.4 C66.408,10.624 66.36,10.768 66.36,10.96 C66.36,11.424 66.808,12.096 67.688,12.096 C68.408,12.096 68.584,11.776 69.032,10.88 L73,2.816 C73.192,2.416 73.368,2.08 73.368,1.76 C73.368,1.344 73.032,0.608 72.216,0.608 L66.424,0.608 C65.544,0.608 65.24,1.152 65.24,1.712 C65.24,2.256 65.56,2.816 66.424,2.816 L70.52,2.816 L66.52,10.4 Z M77.608,2.816 L80.616,2.816 C80.904,2.816 81.736,2.72 81.736,1.616 C81.736,1.04 81.304,0.608 80.568,0.608 L76.712,0.608 C75.944,0.608 75.64,0.88 75.464,2.128 L75.064,5.504 C75.048,5.68 75.016,5.84 75.016,6.048 C75.016,6.32 75.336,6.8 75.96,6.8 C76.776,6.8 76.92,6.272 77.848,6.272 C78.84,6.272 79.384,6.928 79.384,7.888 C79.384,8.896 78.808,9.984 77.688,9.984 C76.616,9.984 75.848,8.96 75.208,8.96 C74.616,8.96 74.12,9.456 74.12,10.048 C74.12,11.456 76.504,12.192 77.64,12.192 C80.408,12.192 81.88,10.432 81.88,7.76 C81.88,5.888 80.504,4.352 78.568,4.352 C78.168,4.352 77.752,4.432 77.368,4.512 L77.608,2.816 Z M85.752,3.952 C85.224,3.952 84.92,3.52 84.92,3.008 C84.92,2.496 85.224,2.048 85.752,2.048 C86.28,2.048 86.584,2.496 86.584,3.008 C86.584,3.52 86.28,3.952 85.752,3.952 L85.752,3.952 Z M85.752,5.584 C87.176,5.584 88.216,4.4 88.216,3.008 C88.216,1.616 87.176,0.416 85.752,0.416 C84.328,0.416 83.288,1.616 83.288,3.008 C83.288,4.4 84.328,5.584 85.752,5.584 L85.752,5.584 Z M91.384,12.192 C92.808,12.192 93.848,11.008 93.848,9.616 C93.848,8.224 92.808,7.024 91.384,7.024 C89.96,7.024 88.92,8.224 88.92,9.616 C88.92,11.008 89.96,12.192 91.384,12.192 L91.384,12.192 Z M91.384,10.56 C90.856,10.56 90.552,10.128 90.552,9.616 C90.552,9.104 90.856,8.656 91.384,8.656 C91.912,8.656 92.216,9.104 92.216,9.616 C92.216,10.128 91.912,10.56 91.384,10.56 L91.384,10.56 Z M85.176,10.816 C85.112,10.944 85.016,11.168 85.016,11.408 C85.016,11.888 85.512,12.288 85.928,12.288 C86.312,12.288 86.408,12.096 86.648,11.76 L92.024,1.696 C92.152,1.456 92.152,1.344 92.152,1.216 C92.152,0.72 91.704,0.32 91.208,0.32 C90.84,0.32 90.68,0.432 90.472,0.832 L85.176,10.816 Z" id="75%"></path>
                    <path d="M128,2.816 L131.008,2.816 C131.296,2.816 132.128,2.72 132.128,1.616 C132.128,1.04 131.696,0.608 130.96,0.608 L127.104,0.608 C126.336,0.608 126.032,0.88 125.856,2.128 L125.456,5.504 C125.44,5.68 125.408,5.84 125.408,6.048 C125.408,6.32 125.728,6.8 126.352,6.8 C127.168,6.8 127.312,6.272 128.24,6.272 C129.232,6.272 129.776,6.928 129.776,7.888 C129.776,8.896 129.2,9.984 128.08,9.984 C127.008,9.984 126.24,8.96 125.6,8.96 C125.008,8.96 124.512,9.456 124.512,10.048 C124.512,11.456 126.896,12.192 128.032,12.192 C130.8,12.192 132.272,10.432 132.272,7.76 C132.272,5.888 130.896,4.352 128.96,4.352 C128.56,4.352 128.144,4.432 127.76,4.512 L128,2.816 Z M137.776,10.016 C136.144,10.016 136.032,7.44 136.032,6.304 C136.032,5.088 136.144,2.592 137.776,2.592 C139.408,2.592 139.52,5.088 139.52,6.304 C139.52,7.44 139.408,10.016 137.776,10.016 L137.776,10.016 Z M137.776,12.192 C141.008,12.192 142.016,8.912 142.016,6.304 C142.016,3.696 141.008,0.416 137.776,0.416 C134.544,0.416 133.536,3.696 133.536,6.304 C133.536,8.912 134.544,12.192 137.776,12.192 L137.776,12.192 Z M145.328,3.952 C144.8,3.952 144.496,3.52 144.496,3.008 C144.496,2.496 144.8,2.048 145.328,2.048 C145.856,2.048 146.16,2.496 146.16,3.008 C146.16,3.52 145.856,3.952 145.328,3.952 L145.328,3.952 Z M145.328,5.584 C146.752,5.584 147.792,4.4 147.792,3.008 C147.792,1.616 146.752,0.416 145.328,0.416 C143.904,0.416 142.864,1.616 142.864,3.008 C142.864,4.4 143.904,5.584 145.328,5.584 L145.328,5.584 Z M150.96,12.192 C152.384,12.192 153.424,11.008 153.424,9.616 C153.424,8.224 152.384,7.024 150.96,7.024 C149.536,7.024 148.496,8.224 148.496,9.616 C148.496,11.008 149.536,12.192 150.96,12.192 L150.96,12.192 Z M150.96,10.56 C150.432,10.56 150.128,10.128 150.128,9.616 C150.128,9.104 150.432,8.656 150.96,8.656 C151.488,8.656 151.792,9.104 151.792,9.616 C151.792,10.128 151.488,10.56 150.96,10.56 L150.96,10.56 Z M144.752,10.816 C144.688,10.944 144.592,11.168 144.592,11.408 C144.592,11.888 145.088,12.288 145.504,12.288 C145.888,12.288 145.984,12.096 146.224,11.76 L151.6,1.696 C151.728,1.456 151.728,1.344 151.728,1.216 C151.728,0.72 151.28,0.32 150.784,0.32 C150.416,0.32 150.256,0.432 150.048,0.832 L144.752,10.816 Z" id="50%"></path>
                    <path d="M189.288,9.888 C190.648,8.176 193.128,5.968 193.128,3.744 C193.128,1.712 191.544,0.416 189.576,0.416 C187.608,0.416 185.816,2.032 185.816,4.048 C185.816,4.672 186.216,5.216 186.984,5.216 C188.52,5.216 187.64,2.624 189.48,2.624 C190.136,2.624 190.632,3.2 190.632,3.856 C190.632,4.432 190.36,4.928 190.072,5.344 C188.856,7.104 187.416,8.544 186.088,10.128 C185.928,10.32 185.72,10.608 185.72,10.944 C185.72,11.68 186.264,12 186.968,12 L192.312,12 C192.92,12 193.464,11.68 193.464,10.944 C193.464,10.208 192.92,9.888 192.216,9.888 L189.288,9.888 Z M198.184,2.816 L201.192,2.816 C201.48,2.816 202.312,2.72 202.312,1.616 C202.312,1.04 201.88,0.608 201.144,0.608 L197.288,0.608 C196.52,0.608 196.216,0.88 196.04,2.128 L195.64,5.504 C195.624,5.68 195.592,5.84 195.592,6.048 C195.592,6.32 195.912,6.8 196.536,6.8 C197.352,6.8 197.496,6.272 198.424,6.272 C199.416,6.272 199.96,6.928 199.96,7.888 C199.96,8.896 199.384,9.984 198.264,9.984 C197.192,9.984 196.424,8.96 195.784,8.96 C195.192,8.96 194.696,9.456 194.696,10.048 C194.696,11.456 197.08,12.192 198.216,12.192 C200.984,12.192 202.456,10.432 202.456,7.76 C202.456,5.888 201.08,4.352 199.144,4.352 C198.744,4.352 198.328,4.432 197.944,4.512 L198.184,2.816 Z M206.328,3.952 C205.8,3.952 205.496,3.52 205.496,3.008 C205.496,2.496 205.8,2.048 206.328,2.048 C206.856,2.048 207.16,2.496 207.16,3.008 C207.16,3.52 206.856,3.952 206.328,3.952 L206.328,3.952 Z M206.328,5.584 C207.752,5.584 208.792,4.4 208.792,3.008 C208.792,1.616 207.752,0.416 206.328,0.416 C204.904,0.416 203.864,1.616 203.864,3.008 C203.864,4.4 204.904,5.584 206.328,5.584 L206.328,5.584 Z M211.96,12.192 C213.384,12.192 214.424,11.008 214.424,9.616 C214.424,8.224 213.384,7.024 211.96,7.024 C210.536,7.024 209.496,8.224 209.496,9.616 C209.496,11.008 210.536,12.192 211.96,12.192 L211.96,12.192 Z M211.96,10.56 C211.432,10.56 211.128,10.128 211.128,9.616 C211.128,9.104 211.432,8.656 211.96,8.656 C212.488,8.656 212.792,9.104 212.792,9.616 C212.792,10.128 212.488,10.56 211.96,10.56 L211.96,10.56 Z M205.752,10.816 C205.688,10.944 205.592,11.168 205.592,11.408 C205.592,11.888 206.088,12.288 206.504,12.288 C206.888,12.288 206.984,12.096 207.224,11.76 L212.6,1.696 C212.728,1.456 212.728,1.344 212.728,1.216 C212.728,0.72 212.28,0.32 211.784,0.32 C211.416,0.32 211.256,0.432 211.048,0.832 L205.752,10.816 Z" id="25%"></path>
                    <path d="M253,2.816 L256.008,2.816 C256.296,2.816 257.128,2.72 257.128,1.616 C257.128,1.04 256.696,0.608 255.96,0.608 L252.104,0.608 C251.336,0.608 251.032,0.88 250.856,2.128 L250.456,5.504 C250.44,5.68 250.408,5.84 250.408,6.048 C250.408,6.32 250.728,6.8 251.352,6.8 C252.168,6.8 252.312,6.272 253.24,6.272 C254.232,6.272 254.776,6.928 254.776,7.888 C254.776,8.896 254.2,9.984 253.08,9.984 C252.008,9.984 251.24,8.96 250.6,8.96 C250.008,8.96 249.512,9.456 249.512,10.048 C249.512,11.456 251.896,12.192 253.032,12.192 C255.8,12.192 257.272,10.432 257.272,7.76 C257.272,5.888 255.896,4.352 253.96,4.352 C253.56,4.352 253.144,4.432 252.76,4.512 L253,2.816 Z M261.144,3.952 C260.616,3.952 260.312,3.52 260.312,3.008 C260.312,2.496 260.616,2.048 261.144,2.048 C261.672,2.048 261.976,2.496 261.976,3.008 C261.976,3.52 261.672,3.952 261.144,3.952 L261.144,3.952 Z M261.144,5.584 C262.568,5.584 263.608,4.4 263.608,3.008 C263.608,1.616 262.568,0.416 261.144,0.416 C259.72,0.416 258.68,1.616 258.68,3.008 C258.68,4.4 259.72,5.584 261.144,5.584 L261.144,5.584 Z M266.776,12.192 C268.2,12.192 269.24,11.008 269.24,9.616 C269.24,8.224 268.2,7.024 266.776,7.024 C265.352,7.024 264.312,8.224 264.312,9.616 C264.312,11.008 265.352,12.192 266.776,12.192 L266.776,12.192 Z M266.776,10.56 C266.248,10.56 265.944,10.128 265.944,9.616 C265.944,9.104 266.248,8.656 266.776,8.656 C267.304,8.656 267.608,9.104 267.608,9.616 C267.608,10.128 267.304,10.56 266.776,10.56 L266.776,10.56 Z M260.568,10.816 C260.504,10.944 260.408,11.168 260.408,11.408 C260.408,11.888 260.904,12.288 261.32,12.288 C261.704,12.288 261.8,12.096 262.04,11.76 L267.416,1.696 C267.544,1.456 267.544,1.344 267.544,1.216 C267.544,0.72 267.096,0.32 266.6,0.32 C266.232,0.32 266.072,0.432 265.864,0.832 L260.568,10.816 Z" id="5%"></path>
                    <path d="M9.592,119.416 C7.224,119.416 5.576,121.304 5.576,123.384 C5.576,125.272 7,126.968 8.92,126.968 C9.272,126.968 9.64,126.904 9.928,126.776 L9.96,126.808 C9.432,127.56 8.392,128.584 7.752,129.368 C7.56,129.608 7.416,129.8 7.416,130.024 C7.416,130.6 8.104,131.192 8.552,131.192 C8.68,131.192 8.856,131.192 9.032,131.08 C9.224,130.952 9.416,130.824 9.544,130.696 C11.16,129.192 13.608,125.8 13.608,123.384 C13.608,121.256 12.056,119.416 9.592,119.416 L9.592,119.416 Z M9.592,125.048 C8.584,125.048 8.072,124.232 8.072,123.384 C8.072,122.456 8.68,121.72 9.592,121.72 C10.552,121.72 11.112,122.488 11.112,123.384 C11.112,124.328 10.504,125.048 9.592,125.048 L9.592,125.048 Z M18.184,121.816 L21.192,121.816 C21.48,121.816 22.312,121.72 22.312,120.616 C22.312,120.04 21.88,119.608 21.144,119.608 L17.288,119.608 C16.52,119.608 16.216,119.88 16.04,121.128 L15.64,124.504 C15.624,124.68 15.592,124.84 15.592,125.048 C15.592,125.32 15.912,125.8 16.536,125.8 C17.352,125.8 17.496,125.272 18.424,125.272 C19.416,125.272 19.96,125.928 19.96,126.888 C19.96,127.896 19.384,128.984 18.264,128.984 C17.192,128.984 16.424,127.96 15.784,127.96 C15.192,127.96 14.696,128.456 14.696,129.048 C14.696,130.456 17.08,131.192 18.216,131.192 C20.984,131.192 22.456,129.432 22.456,126.76 C22.456,124.888 21.08,123.352 19.144,123.352 C18.744,123.352 18.328,123.432 17.944,123.512 L18.184,121.816 Z M26.328,122.952 C25.8,122.952 25.496,122.52 25.496,122.008 C25.496,121.496 25.8,121.048 26.328,121.048 C26.856,121.048 27.16,121.496 27.16,122.008 C27.16,122.52 26.856,122.952 26.328,122.952 L26.328,122.952 Z M26.328,124.584 C27.752,124.584 28.792,123.4 28.792,122.008 C28.792,120.616 27.752,119.416 26.328,119.416 C24.904,119.416 23.864,120.616 23.864,122.008 C23.864,123.4 24.904,124.584 26.328,124.584 L26.328,124.584 Z M31.96,131.192 C33.384,131.192 34.424,130.008 34.424,128.616 C34.424,127.224 33.384,126.024 31.96,126.024 C30.536,126.024 29.496,127.224 29.496,128.616 C29.496,130.008 30.536,131.192 31.96,131.192 L31.96,131.192 Z M31.96,129.56 C31.432,129.56 31.128,129.128 31.128,128.616 C31.128,128.104 31.432,127.656 31.96,127.656 C32.488,127.656 32.792,128.104 32.792,128.616 C32.792,129.128 32.488,129.56 31.96,129.56 L31.96,129.56 Z M25.752,129.816 C25.688,129.944 25.592,130.168 25.592,130.408 C25.592,130.888 26.088,131.288 26.504,131.288 C26.888,131.288 26.984,131.096 27.224,130.76 L32.6,120.696 C32.728,120.456 32.728,120.344 32.728,120.216 C32.728,119.72 32.28,119.32 31.784,119.32 C31.416,119.32 31.256,119.432 31.048,119.832 L25.752,129.816 Z" id="95%"></path>
                    <path d="M66.52,129.4 C66.408,129.624 66.36,129.768 66.36,129.96 C66.36,130.424 66.808,131.096 67.688,131.096 C68.408,131.096 68.584,130.776 69.032,129.88 L73,121.816 C73.192,121.416 73.368,121.08 73.368,120.76 C73.368,120.344 73.032,119.608 72.216,119.608 L66.424,119.608 C65.544,119.608 65.24,120.152 65.24,120.712 C65.24,121.256 65.56,121.816 66.424,121.816 L70.52,121.816 L66.52,129.4 Z M77.608,121.816 L80.616,121.816 C80.904,121.816 81.736,121.72 81.736,120.616 C81.736,120.04 81.304,119.608 80.568,119.608 L76.712,119.608 C75.944,119.608 75.64,119.88 75.464,121.128 L75.064,124.504 C75.048,124.68 75.016,124.84 75.016,125.048 C75.016,125.32 75.336,125.8 75.96,125.8 C76.776,125.8 76.92,125.272 77.848,125.272 C78.84,125.272 79.384,125.928 79.384,126.888 C79.384,127.896 78.808,128.984 77.688,128.984 C76.616,128.984 75.848,127.96 75.208,127.96 C74.616,127.96 74.12,128.456 74.12,129.048 C74.12,130.456 76.504,131.192 77.64,131.192 C80.408,131.192 81.88,129.432 81.88,126.76 C81.88,124.888 80.504,123.352 78.568,123.352 C78.168,123.352 77.752,123.432 77.368,123.512 L77.608,121.816 Z M85.752,122.952 C85.224,122.952 84.92,122.52 84.92,122.008 C84.92,121.496 85.224,121.048 85.752,121.048 C86.28,121.048 86.584,121.496 86.584,122.008 C86.584,122.52 86.28,122.952 85.752,122.952 L85.752,122.952 Z M85.752,124.584 C87.176,124.584 88.216,123.4 88.216,122.008 C88.216,120.616 87.176,119.416 85.752,119.416 C84.328,119.416 83.288,120.616 83.288,122.008 C83.288,123.4 84.328,124.584 85.752,124.584 L85.752,124.584 Z M91.384,131.192 C92.808,131.192 93.848,130.008 93.848,128.616 C93.848,127.224 92.808,126.024 91.384,126.024 C89.96,126.024 88.92,127.224 88.92,128.616 C88.92,130.008 89.96,131.192 91.384,131.192 L91.384,131.192 Z M91.384,129.56 C90.856,129.56 90.552,129.128 90.552,128.616 C90.552,128.104 90.856,127.656 91.384,127.656 C91.912,127.656 92.216,128.104 92.216,128.616 C92.216,129.128 91.912,129.56 91.384,129.56 L91.384,129.56 Z M85.176,129.816 C85.112,129.944 85.016,130.168 85.016,130.408 C85.016,130.888 85.512,131.288 85.928,131.288 C86.312,131.288 86.408,131.096 86.648,130.76 L92.024,120.696 C92.152,120.456 92.152,120.344 92.152,120.216 C92.152,119.72 91.704,119.32 91.208,119.32 C90.84,119.32 90.68,119.432 90.472,119.832 L85.176,129.816 Z" id="75%"></path>
                    <path d="M128,121.816 L131.008,121.816 C131.296,121.816 132.128,121.72 132.128,120.616 C132.128,120.04 131.696,119.608 130.96,119.608 L127.104,119.608 C126.336,119.608 126.032,119.88 125.856,121.128 L125.456,124.504 C125.44,124.68 125.408,124.84 125.408,125.048 C125.408,125.32 125.728,125.8 126.352,125.8 C127.168,125.8 127.312,125.272 128.24,125.272 C129.232,125.272 129.776,125.928 129.776,126.888 C129.776,127.896 129.2,128.984 128.08,128.984 C127.008,128.984 126.24,127.96 125.6,127.96 C125.008,127.96 124.512,128.456 124.512,129.048 C124.512,130.456 126.896,131.192 128.032,131.192 C130.8,131.192 132.272,129.432 132.272,126.76 C132.272,124.888 130.896,123.352 128.96,123.352 C128.56,123.352 128.144,123.432 127.76,123.512 L128,121.816 Z M137.776,129.016 C136.144,129.016 136.032,126.44 136.032,125.304 C136.032,124.088 136.144,121.592 137.776,121.592 C139.408,121.592 139.52,124.088 139.52,125.304 C139.52,126.44 139.408,129.016 137.776,129.016 L137.776,129.016 Z M137.776,131.192 C141.008,131.192 142.016,127.912 142.016,125.304 C142.016,122.696 141.008,119.416 137.776,119.416 C134.544,119.416 133.536,122.696 133.536,125.304 C133.536,127.912 134.544,131.192 137.776,131.192 L137.776,131.192 Z M145.328,122.952 C144.8,122.952 144.496,122.52 144.496,122.008 C144.496,121.496 144.8,121.048 145.328,121.048 C145.856,121.048 146.16,121.496 146.16,122.008 C146.16,122.52 145.856,122.952 145.328,122.952 L145.328,122.952 Z M145.328,124.584 C146.752,124.584 147.792,123.4 147.792,122.008 C147.792,120.616 146.752,119.416 145.328,119.416 C143.904,119.416 142.864,120.616 142.864,122.008 C142.864,123.4 143.904,124.584 145.328,124.584 L145.328,124.584 Z M150.96,131.192 C152.384,131.192 153.424,130.008 153.424,128.616 C153.424,127.224 152.384,126.024 150.96,126.024 C149.536,126.024 148.496,127.224 148.496,128.616 C148.496,130.008 149.536,131.192 150.96,131.192 L150.96,131.192 Z M150.96,129.56 C150.432,129.56 150.128,129.128 150.128,128.616 C150.128,128.104 150.432,127.656 150.96,127.656 C151.488,127.656 151.792,128.104 151.792,128.616 C151.792,129.128 151.488,129.56 150.96,129.56 L150.96,129.56 Z M144.752,129.816 C144.688,129.944 144.592,130.168 144.592,130.408 C144.592,130.888 145.088,131.288 145.504,131.288 C145.888,131.288 145.984,131.096 146.224,130.76 L151.6,120.696 C151.728,120.456 151.728,120.344 151.728,120.216 C151.728,119.72 151.28,119.32 150.784,119.32 C150.416,119.32 150.256,119.432 150.048,119.832 L144.752,129.816 Z" id="50%"></path>
                    <path d="M189.288,128.888 C190.648,127.176 193.128,124.968 193.128,122.744 C193.128,120.712 191.544,119.416 189.576,119.416 C187.608,119.416 185.816,121.032 185.816,123.048 C185.816,123.672 186.216,124.216 186.984,124.216 C188.52,124.216 187.64,121.624 189.48,121.624 C190.136,121.624 190.632,122.2 190.632,122.856 C190.632,123.432 190.36,123.928 190.072,124.344 C188.856,126.104 187.416,127.544 186.088,129.128 C185.928,129.32 185.72,129.608 185.72,129.944 C185.72,130.68 186.264,131 186.968,131 L192.312,131 C192.92,131 193.464,130.68 193.464,129.944 C193.464,129.208 192.92,128.888 192.216,128.888 L189.288,128.888 Z M198.184,121.816 L201.192,121.816 C201.48,121.816 202.312,121.72 202.312,120.616 C202.312,120.04 201.88,119.608 201.144,119.608 L197.288,119.608 C196.52,119.608 196.216,119.88 196.04,121.128 L195.64,124.504 C195.624,124.68 195.592,124.84 195.592,125.048 C195.592,125.32 195.912,125.8 196.536,125.8 C197.352,125.8 197.496,125.272 198.424,125.272 C199.416,125.272 199.96,125.928 199.96,126.888 C199.96,127.896 199.384,128.984 198.264,128.984 C197.192,128.984 196.424,127.96 195.784,127.96 C195.192,127.96 194.696,128.456 194.696,129.048 C194.696,130.456 197.08,131.192 198.216,131.192 C200.984,131.192 202.456,129.432 202.456,126.76 C202.456,124.888 201.08,123.352 199.144,123.352 C198.744,123.352 198.328,123.432 197.944,123.512 L198.184,121.816 Z M206.328,122.952 C205.8,122.952 205.496,122.52 205.496,122.008 C205.496,121.496 205.8,121.048 206.328,121.048 C206.856,121.048 207.16,121.496 207.16,122.008 C207.16,122.52 206.856,122.952 206.328,122.952 L206.328,122.952 Z M206.328,124.584 C207.752,124.584 208.792,123.4 208.792,122.008 C208.792,120.616 207.752,119.416 206.328,119.416 C204.904,119.416 203.864,120.616 203.864,122.008 C203.864,123.4 204.904,124.584 206.328,124.584 L206.328,124.584 Z M211.96,131.192 C213.384,131.192 214.424,130.008 214.424,128.616 C214.424,127.224 213.384,126.024 211.96,126.024 C210.536,126.024 209.496,127.224 209.496,128.616 C209.496,130.008 210.536,131.192 211.96,131.192 L211.96,131.192 Z M211.96,129.56 C211.432,129.56 211.128,129.128 211.128,128.616 C211.128,128.104 211.432,127.656 211.96,127.656 C212.488,127.656 212.792,128.104 212.792,128.616 C212.792,129.128 212.488,129.56 211.96,129.56 L211.96,129.56 Z M205.752,129.816 C205.688,129.944 205.592,130.168 205.592,130.408 C205.592,130.888 206.088,131.288 206.504,131.288 C206.888,131.288 206.984,131.096 207.224,130.76 L212.6,120.696 C212.728,120.456 212.728,120.344 212.728,120.216 C212.728,119.72 212.28,119.32 211.784,119.32 C211.416,119.32 211.256,119.432 211.048,119.832 L205.752,129.816 Z" id="25%"></path>
                    <path d="M253,121.816 L256.008,121.816 C256.296,121.816 257.128,121.72 257.128,120.616 C257.128,120.04 256.696,119.608 255.96,119.608 L252.104,119.608 C251.336,119.608 251.032,119.88 250.856,121.128 L250.456,124.504 C250.44,124.68 250.408,124.84 250.408,125.048 C250.408,125.32 250.728,125.8 251.352,125.8 C252.168,125.8 252.312,125.272 253.24,125.272 C254.232,125.272 254.776,125.928 254.776,126.888 C254.776,127.896 254.2,128.984 253.08,128.984 C252.008,128.984 251.24,127.96 250.6,127.96 C250.008,127.96 249.512,128.456 249.512,129.048 C249.512,130.456 251.896,131.192 253.032,131.192 C255.8,131.192 257.272,129.432 257.272,126.76 C257.272,124.888 255.896,123.352 253.96,123.352 C253.56,123.352 253.144,123.432 252.76,123.512 L253,121.816 Z M261.144,122.952 C260.616,122.952 260.312,122.52 260.312,122.008 C260.312,121.496 260.616,121.048 261.144,121.048 C261.672,121.048 261.976,121.496 261.976,122.008 C261.976,122.52 261.672,122.952 261.144,122.952 L261.144,122.952 Z M261.144,124.584 C262.568,124.584 263.608,123.4 263.608,122.008 C263.608,120.616 262.568,119.416 261.144,119.416 C259.72,119.416 258.68,120.616 258.68,122.008 C258.68,123.4 259.72,124.584 261.144,124.584 L261.144,124.584 Z M266.776,131.192 C268.2,131.192 269.24,130.008 269.24,128.616 C269.24,127.224 268.2,126.024 266.776,126.024 C265.352,126.024 264.312,127.224 264.312,128.616 C264.312,130.008 265.352,131.192 266.776,131.192 L266.776,131.192 Z M266.776,129.56 C266.248,129.56 265.944,129.128 265.944,128.616 C265.944,128.104 266.248,127.656 266.776,127.656 C267.304,127.656 267.608,128.104 267.608,128.616 C267.608,129.128 267.304,129.56 266.776,129.56 L266.776,129.56 Z M260.568,129.816 C260.504,129.944 260.408,130.168 260.408,130.408 C260.408,130.888 260.904,131.288 261.32,131.288 C261.704,131.288 261.8,131.096 262.04,130.76 L267.416,120.696 C267.544,120.456 267.544,120.344 267.544,120.216 C267.544,119.72 267.096,119.32 266.6,119.32 C266.232,119.32 266.072,119.432 265.864,119.832 L260.568,129.816 Z" id="5%"></path>
                </g>
                <g id="hex" transform="translate(176.000000, 82.000000)" fill="#4A4A4A">
                    <path d="M70.334,7.976 L71.314,7.976 C71.636,7.976 71.888,7.822 71.888,7.514 C71.888,7.206 71.636,7.052 71.314,7.052 L70.46,7.052 L70.754,4.98 L71.734,4.98 C72.056,4.98 72.308,4.84 72.308,4.518 C72.308,4.21 72.056,4.056 71.734,4.056 L70.88,4.056 L71.16,2.012 C71.202,1.746 71.23,1.578 71.23,1.424 C71.23,1.172 71.09,0.948 70.754,0.948 C70.39,0.948 70.264,1.13 70.222,1.452 L69.858,4.056 L68.192,4.056 L68.472,2.012 C68.514,1.746 68.542,1.578 68.542,1.424 C68.542,1.172 68.402,0.948 68.066,0.948 C67.702,0.948 67.576,1.13 67.534,1.452 L67.17,4.056 L66.19,4.056 C65.868,4.056 65.616,4.21 65.616,4.518 C65.616,4.826 65.868,4.98 66.19,4.98 L67.044,4.98 L66.75,7.052 L65.77,7.052 C65.448,7.052 65.196,7.192 65.196,7.514 C65.196,7.822 65.448,7.976 65.77,7.976 L66.624,7.976 L66.344,10.02 C66.302,10.286 66.274,10.454 66.274,10.608 C66.274,10.86 66.414,11.084 66.75,11.084 C67.114,11.084 67.24,10.902 67.282,10.58 L67.646,7.976 L69.312,7.976 L69.032,10.02 C68.99,10.286 68.962,10.454 68.962,10.608 C68.962,10.86 69.102,11.084 69.438,11.084 C69.802,11.084 69.928,10.902 69.97,10.58 L70.334,7.976 Z M69.438,7.052 L67.772,7.052 L68.066,4.98 L69.732,4.98 L69.438,7.052 Z M74.94,4.616 L75.71,4.616 C76.116,4.616 76.326,4.42 76.326,4.084 C76.326,3.748 76.116,3.552 75.71,3.552 L74.94,3.552 L74.94,1.746 C74.94,1.438 75.066,1.256 75.444,1.256 L75.752,1.256 C76.214,1.256 76.424,1.06 76.424,0.724 C76.424,0.388 76.046,0.192 75.724,0.192 L75.346,0.192 C74.45,0.192 73.708,0.724 73.708,1.802 L73.708,3.552 L73.204,3.552 C72.798,3.552 72.588,3.748 72.588,4.084 C72.588,4.42 72.798,4.616 73.204,4.616 L73.708,4.616 L73.708,10.426 C73.708,10.832 73.946,11.084 74.324,11.084 C74.702,11.084 74.94,10.832 74.94,10.426 L74.94,4.616 Z M80.806,8.438 L80.806,10.426 C80.806,10.832 81.044,11.084 81.422,11.084 C81.8,11.084 82.038,10.832 82.038,10.426 L82.038,8.438 L82.668,8.438 C82.962,8.438 83.2,8.2 83.2,7.906 C83.2,7.612 82.962,7.374 82.668,7.374 L82.038,7.374 L82.038,1.97 C82.038,1.242 81.646,0.948 81.1,0.948 C80.666,0.948 80.386,1.088 80.134,1.508 L76.606,7.29 C76.424,7.584 76.298,7.822 76.298,8.004 C76.298,8.256 76.41,8.438 76.83,8.438 L80.806,8.438 Z M77.838,7.374 L80.778,2.264 L80.806,2.264 L80.806,7.374 L77.838,7.374 Z M86.07,4.616 L86.84,4.616 C87.246,4.616 87.456,4.42 87.456,4.084 C87.456,3.748 87.246,3.552 86.84,3.552 L86.07,3.552 L86.07,1.746 C86.07,1.438 86.196,1.256 86.574,1.256 L86.882,1.256 C87.344,1.256 87.554,1.06 87.554,0.724 C87.554,0.388 87.176,0.192 86.854,0.192 L86.476,0.192 C85.58,0.192 84.838,0.724 84.838,1.802 L84.838,3.552 L84.334,3.552 C83.928,3.552 83.718,3.748 83.718,4.084 C83.718,4.42 83.928,4.616 84.334,4.616 L84.838,4.616 L84.838,10.426 C84.838,10.832 85.076,11.084 85.454,11.084 C85.832,11.084 86.07,10.832 86.07,10.426 L86.07,4.616 Z M90.452,2.096 L93.294,2.096 C93.588,2.096 93.826,1.858 93.826,1.564 C93.826,1.27 93.588,1.032 93.294,1.032 L89.836,1.032 C89.542,1.032 89.416,1.102 89.374,1.354 L88.856,4.84 C88.814,5.148 88.758,5.512 88.758,5.666 C88.758,5.862 88.884,6.044 89.178,6.044 C89.528,6.044 89.962,5.666 90.872,5.666 C92.076,5.666 92.594,6.604 92.594,7.78 C92.594,8.942 91.88,9.936 90.69,9.936 C89.276,9.936 88.828,8.9 88.324,8.9 C88.016,8.9 87.876,9.18 87.876,9.432 C87.876,10.034 89.024,11.084 90.676,11.084 C92.692,11.084 93.91,9.684 93.91,7.542 C93.91,5.988 92.916,4.518 91.362,4.518 C90.9,4.518 90.452,4.588 90.046,4.798 L90.452,2.096 Z M97.2,4.616 L97.97,4.616 C98.376,4.616 98.586,4.42 98.586,4.084 C98.586,3.748 98.376,3.552 97.97,3.552 L97.2,3.552 L97.2,1.746 C97.2,1.438 97.326,1.256 97.704,1.256 L98.012,1.256 C98.474,1.256 98.684,1.06 98.684,0.724 C98.684,0.388 98.306,0.192 97.984,0.192 L97.606,0.192 C96.71,0.192 95.968,0.724 95.968,1.802 L95.968,3.552 L95.464,3.552 C95.058,3.552 94.848,3.748 94.848,4.084 C94.848,4.42 95.058,4.616 95.464,4.616 L95.968,4.616 L95.968,10.426 C95.968,10.832 96.206,11.084 96.584,11.084 C96.962,11.084 97.2,10.832 97.2,10.426 L97.2,4.616 Z M103.514,2.096 L103.514,2.124 L100.028,9.95 C99.874,10.314 99.832,10.51 99.832,10.608 C99.832,10.93 100.126,11.084 100.294,11.084 C100.56,11.084 100.868,11.028 101.036,10.636 L104.76,2.166 C104.914,1.816 104.998,1.62 104.998,1.424 C104.998,1.13 104.746,1.032 104.368,1.032 L99.314,1.032 C99.02,1.032 98.782,1.27 98.782,1.564 C98.782,1.858 99.02,2.096 99.314,2.096 L103.514,2.096 Z" id="#F4F5F7"></path>
                    <path d="M5.334,7.976 L6.314,7.976 C6.636,7.976 6.888,7.822 6.888,7.514 C6.888,7.206 6.636,7.052 6.314,7.052 L5.46,7.052 L5.754,4.98 L6.734,4.98 C7.056,4.98 7.308,4.84 7.308,4.518 C7.308,4.21 7.056,4.056 6.734,4.056 L5.88,4.056 L6.16,2.012 C6.202,1.746 6.23,1.578 6.23,1.424 C6.23,1.172 6.09,0.948 5.754,0.948 C5.39,0.948 5.264,1.13 5.222,1.452 L4.858,4.056 L3.192,4.056 L3.472,2.012 C3.514,1.746 3.542,1.578 3.542,1.424 C3.542,1.172 3.402,0.948 3.066,0.948 C2.702,0.948 2.576,1.13 2.534,1.452 L2.17,4.056 L1.19,4.056 C0.868,4.056 0.616,4.21 0.616,4.518 C0.616,4.826 0.868,4.98 1.19,4.98 L2.044,4.98 L1.75,7.052 L0.77,7.052 C0.448,7.052 0.196,7.192 0.196,7.514 C0.196,7.822 0.448,7.976 0.77,7.976 L1.624,7.976 L1.344,10.02 C1.302,10.286 1.274,10.454 1.274,10.608 C1.274,10.86 1.414,11.084 1.75,11.084 C2.114,11.084 2.24,10.902 2.282,10.58 L2.646,7.976 L4.312,7.976 L4.032,10.02 C3.99,10.286 3.962,10.454 3.962,10.608 C3.962,10.86 4.102,11.084 4.438,11.084 C4.802,11.084 4.928,10.902 4.97,10.58 L5.334,7.976 Z M4.438,7.052 L2.772,7.052 L3.066,4.98 L4.732,4.98 L4.438,7.052 Z M7.994,7.276 C7.994,9.25 9.086,11.084 11.354,11.084 C12.628,11.084 13.314,10.58 13.314,10.118 C13.314,9.782 13.118,9.6 12.838,9.6 C12.446,9.6 12.222,10.02 11.354,10.02 C9.828,10.02 9.226,8.536 9.226,7.276 C9.226,6.016 9.828,4.532 11.354,4.532 C12.194,4.532 12.376,4.924 12.852,4.924 C13.146,4.924 13.356,4.658 13.356,4.406 C13.356,3.902 12.614,3.468 11.354,3.468 C9.086,3.468 7.994,5.302 7.994,7.276 L7.994,7.276 Z M18.844,2.096 L18.844,2.124 L15.358,9.95 C15.204,10.314 15.162,10.51 15.162,10.608 C15.162,10.93 15.456,11.084 15.624,11.084 C15.89,11.084 16.198,11.028 16.366,10.636 L20.09,2.166 C20.244,1.816 20.328,1.62 20.328,1.424 C20.328,1.13 20.076,1.032 19.698,1.032 L14.644,1.032 C14.35,1.032 14.112,1.27 14.112,1.564 C14.112,1.858 14.35,2.096 14.644,2.096 L18.844,2.096 Z M21.21,7.276 C21.21,9.25 22.302,11.084 24.57,11.084 C25.844,11.084 26.53,10.58 26.53,10.118 C26.53,9.782 26.334,9.6 26.054,9.6 C25.662,9.6 25.438,10.02 24.57,10.02 C23.044,10.02 22.442,8.536 22.442,7.276 C22.442,6.016 23.044,4.532 24.57,4.532 C25.41,4.532 25.592,4.924 26.068,4.924 C26.362,4.924 26.572,4.658 26.572,4.406 C26.572,3.902 25.83,3.468 24.57,3.468 C22.302,3.468 21.21,5.302 21.21,7.276 L21.21,7.276 Z M32.746,7.276 C32.746,8.536 32.214,10.02 30.702,10.02 C29.19,10.02 28.658,8.536 28.658,7.276 C28.658,6.016 29.19,4.532 30.702,4.532 C32.214,4.532 32.746,6.016 32.746,7.276 L32.746,7.276 Z M32.62,10.426 C32.62,10.832 32.858,11.084 33.236,11.084 C33.614,11.084 33.852,10.832 33.852,10.426 L33.852,0.85 C33.852,0.444 33.614,0.192 33.236,0.192 C32.858,0.192 32.62,0.444 32.62,0.85 L32.62,4.476 L32.592,4.476 C32.27,4.014 31.584,3.468 30.604,3.468 C28.588,3.468 27.426,5.302 27.426,7.276 C27.426,9.25 28.588,11.084 30.604,11.084 C31.584,11.084 32.242,10.734 32.592,10.062 L32.62,10.062 L32.62,10.426 Z M40.53,7.276 C40.53,8.536 39.998,10.02 38.486,10.02 C36.974,10.02 36.442,8.536 36.442,7.276 C36.442,6.016 36.974,4.532 38.486,4.532 C39.998,4.532 40.53,6.016 40.53,7.276 L40.53,7.276 Z M40.404,10.426 C40.404,10.832 40.642,11.084 41.02,11.084 C41.398,11.084 41.636,10.832 41.636,10.426 L41.636,0.85 C41.636,0.444 41.398,0.192 41.02,0.192 C40.642,0.192 40.404,0.444 40.404,0.85 L40.404,4.476 L40.376,4.476 C40.054,4.014 39.368,3.468 38.388,3.468 C36.372,3.468 35.21,5.302 35.21,7.276 C35.21,9.25 36.372,11.084 38.388,11.084 C39.368,11.084 40.026,10.734 40.376,10.062 L40.404,10.062 L40.404,10.426 Z M43.708,3.23 C43.708,4.294 44.114,4.882 45.01,5.442 C43.848,5.708 43.204,6.772 43.204,7.934 C43.204,9.558 44.31,11.084 46.256,11.084 C48.202,11.084 49.308,9.558 49.308,7.934 C49.308,6.772 48.664,5.708 47.502,5.442 C48.398,4.882 48.804,4.294 48.804,3.23 C48.804,1.704 47.516,0.948 46.256,0.948 C44.996,0.948 43.708,1.704 43.708,3.23 L43.708,3.23 Z M44.856,3.468 C44.856,2.628 45.374,2.012 46.256,2.012 C47.138,2.012 47.656,2.628 47.656,3.468 C47.656,4.322 47.138,4.938 46.256,4.938 C45.374,4.938 44.856,4.322 44.856,3.468 L44.856,3.468 Z M44.52,7.99 C44.52,6.968 45.108,6.002 46.256,6.002 C47.404,6.002 47.992,6.968 47.992,7.99 C47.992,9.278 47.18,10.02 46.256,10.02 C45.332,10.02 44.52,9.278 44.52,7.99 L44.52,7.99 Z" id="#C7CDD8"></path>
                </g>
            </g>
        </g>
    </g>
</svg>