<?xml version="1.0" encoding="UTF-8" standalone="no"?>
<svg width="292px" height="215px" viewBox="0 0 292 215" version="1.1" xmlns="http://www.w3.org/2000/svg" xmlns:xlink="http://www.w3.org/1999/xlink">
    <!-- Generator: Sketch 39.1 (31720) - http://www.bohemiancoding.com/sketch -->
    <title>accessibility-white-midnight-hex</title>
    <desc>Created with Sketch.</desc>
    <defs>
        <rect id="path-1" x="242" y="23" width="50" height="50" rx="25"></rect>
        <mask id="mask-2" maskContentUnits="userSpaceOnUse" maskUnits="objectBoundingBox" x="0" y="0" width="50" height="50" fill="white">
            <use xlink:href="#path-1"></use>
        </mask>
    </defs>
    <g id="Templates" stroke="none" stroke-width="1" fill="none" fill-rule="evenodd">
        <g id="25-colour-accessibility" transform="translate(-1074.000000, -3818.000000)">
            <g id="accessibility-white-midnight-hex" transform="translate(1074.000000, 3818.300010)">
                <rect id="colours-use-2-copy-70" fill="#1D3661" transform="translate(27.000000, 48.000000) rotate(-90.000000) translate(-27.000000, -48.000000) " x="2" y="23" width="50" height="50" rx="25"></rect>
                <rect id="colours-use-2-copy-61" fill="#566989" transform="translate(87.000000, 48.000000) rotate(-90.000000) translate(-87.000000, -48.000000) " x="62" y="23" width="50" height="50" rx="25"></rect>
                <rect id="colours-use-2-copy-62" fill="#8E9BB0" transform="translate(147.000000, 48.000000) rotate(-90.000000) translate(-147.000000, -48.000000) " x="122" y="23" width="50" height="50" rx="25"></rect>
                <rect id="colours-use-2-copy-63" fill="#C7CDD8" transform="translate(207.000000, 48.000000) rotate(-90.000000) translate(-207.000000, -48.000000) " x="182" y="23" width="50" height="50" rx="25"></rect>
                <use id="colours-use-2-copy-64" stroke="#C7CDD8" mask="url(#mask-2)" stroke-width="2" fill="#F4F5F7" transform="translate(267.000000, 48.000000) rotate(-90.000000) translate(-267.000000, -48.000000) " xlink:href="#path-1"></use>
                <rect id="colours-use-2-copy-65" fill="#1E365F" transform="translate(27.000000, 168.000000) rotate(-90.000000) translate(-27.000000, -168.000000) " x="2" y="143" width="50" height="50" rx="25"></rect>
                <rect id="colours-use-2-copy-66" fill="#243756" transform="translate(87.000000, 168.000000) rotate(-90.000000) translate(-87.000000, -168.000000) " x="62" y="143" width="50" height="50" rx="25"></rect>
                <rect id="colours-use-2-copy-67" fill="#2B384B" transform="translate(147.000000, 168.000000) rotate(-90.000000) translate(-147.000000, -168.000000) " x="122" y="143" width="50" height="50" rx="25"></rect>
                <rect id="colours-use-2-copy-68" fill="#323941" transform="translate(207.000000, 168.000000) rotate(-90.000000) translate(-207.000000, -168.000000) " x="182" y="143" width="50" height="50" rx="25"></rect>
                <rect id="colours-use-2-copy-69" fill="#383A38" transform="translate(267.000000, 168.000000) rotate(-90.000000) translate(-267.000000, -168.000000) " x="242" y="143" width="50" height="50" rx="25"></rect>
                <polygon id="Star-1" fill="#D0011B" points="267 10.5 262.885503 12.663119 263.671302 8.08155948 260.342604 4.83688104 264.942752 4.16844052 267 0 269.057248 4.16844052 273.657396 4.83688104 270.328698 8.08155948 271.114497 12.663119"></polygon>
                <polygon id="Star-1" fill="#D0011B" points="205 10.5 200.885503 12.663119 201.671302 8.08155948 198.342604 4.83688104 202.942752 4.16844052 205 0 207.057248 4.16844052 211.657396 4.83688104 208.328698 8.08155948 209.114497 12.663119"></polygon>
                <polygon id="Star-1" fill="#D0011B" points="145 10.5 140.885503 12.663119 141.671302 8.08155948 138.342604 4.83688104 142.942752 4.16844052 145 0 147.057248 4.16844052 151.657396 4.83688104 148.328698 8.08155948 149.114497 12.663119"></polygon>
                <polygon id="Star-1" fill="#8AB82E" points="87 10.5 82.8855032 12.663119 83.6713022 8.08155948 80.3426044 4.83688104 84.9427516 4.16844052 87 0 89.0572484 4.16844052 93.6573956 4.83688104 90.3286978 8.08155948 91.1144968 12.663119"></polygon>
                <polygon id="Star-1" fill="#8AB82E" points="27 10.5 22.8855032 12.663119 23.6713022 8.08155948 20.3426044 4.83688104 24.9427516 4.16844052 27 0 29.0572484 4.16844052 33.6573956 4.83688104 30.3286978 8.08155948 31.1144968 12.663119"></polygon>
                <polygon id="Star-1" fill="#8AB82E" points="87 130.5 82.8855032 132.663119 83.6713022 128.081559 80.3426044 124.836881 84.9427516 124.168441 87 120 89.0572484 124.168441 93.6573956 124.836881 90.3286978 128.081559 91.1144968 132.663119"></polygon>
                <polygon id="Star-1" fill="#8AB82E" points="147 130.5 142.885503 132.663119 143.671302 128.081559 140.342604 124.836881 144.942752 124.168441 147 120 149.057248 124.168441 153.657396 124.836881 150.328698 128.081559 151.114497 132.663119"></polygon>
                <polygon id="Star-1" fill="#8AB82E" points="207 130.5 202.885503 132.663119 203.671302 128.081559 200.342604 124.836881 204.942752 124.168441 207 120 209.057248 124.168441 213.657396 124.836881 210.328698 128.081559 211.114497 132.663119"></polygon>
                <polygon id="Star-1" fill="#8AB82E" points="269 130.5 264.885503 132.663119 265.671302 128.081559 262.342604 124.836881 266.942752 124.168441 269 120 271.057248 124.168441 275.657396 124.836881 272.328698 128.081559 273.114497 132.663119"></polygon>
                <polygon id="Star-1" fill="#8AB82E" points="27 130.5 22.8855032 132.663119 23.6713022 128.081559 20.3426044 124.836881 24.9427516 124.168441 27 120 29.0572484 124.168441 33.6573956 124.836881 30.3286978 128.081559 31.1144968 132.663119"></polygon>
                <g id="%-" transform="translate(11.000000, 42.000000)" fill="#FFFFFF">
                    <path d="M2.432,10.848 C2.432,11.648 2.944,12.096 3.632,12.096 C4.32,12.096 4.832,11.648 4.832,10.848 L4.832,1.744 C4.832,1.104 4.448,0.608 3.76,0.608 L1.488,0.608 C0.8,0.608 0.4,1.152 0.4,1.712 C0.4,2.256 0.72,2.816 1.488,2.816 L2.432,2.816 L2.432,10.848 Z M10.512,10.016 C8.88,10.016 8.768,7.44 8.768,6.304 C8.768,5.088 8.88,2.592 10.512,2.592 C12.144,2.592 12.256,5.088 12.256,6.304 C12.256,7.44 12.144,10.016 10.512,10.016 L10.512,10.016 Z M10.512,12.192 C13.744,12.192 14.752,8.912 14.752,6.304 C14.752,3.696 13.744,0.416 10.512,0.416 C7.28,0.416 6.272,3.696 6.272,6.304 C6.272,8.912 7.28,12.192 10.512,12.192 L10.512,12.192 Z M19.696,10.016 C18.064,10.016 17.952,7.44 17.952,6.304 C17.952,5.088 18.064,2.592 19.696,2.592 C21.328,2.592 21.44,5.088 21.44,6.304 C21.44,7.44 21.328,10.016 19.696,10.016 L19.696,10.016 Z M19.696,12.192 C22.928,12.192 23.936,8.912 23.936,6.304 C23.936,3.696 22.928,0.416 19.696,0.416 C16.464,0.416 15.456,3.696 15.456,6.304 C15.456,8.912 16.464,12.192 19.696,12.192 L19.696,12.192 Z M27.248,3.952 C26.72,3.952 26.416,3.52 26.416,3.008 C26.416,2.496 26.72,2.048 27.248,2.048 C27.776,2.048 28.08,2.496 28.08,3.008 C28.08,3.52 27.776,3.952 27.248,3.952 L27.248,3.952 Z M27.248,5.584 C28.672,5.584 29.712,4.4 29.712,3.008 C29.712,1.616 28.672,0.416 27.248,0.416 C25.824,0.416 24.784,1.616 24.784,3.008 C24.784,4.4 25.824,5.584 27.248,5.584 L27.248,5.584 Z M32.88,12.192 C34.304,12.192 35.344,11.008 35.344,9.616 C35.344,8.224 34.304,7.024 32.88,7.024 C31.456,7.024 30.416,8.224 30.416,9.616 C30.416,11.008 31.456,12.192 32.88,12.192 L32.88,12.192 Z M32.88,10.56 C32.352,10.56 32.048,10.128 32.048,9.616 C32.048,9.104 32.352,8.656 32.88,8.656 C33.408,8.656 33.712,9.104 33.712,9.616 C33.712,10.128 33.408,10.56 32.88,10.56 L32.88,10.56 Z M26.672,10.816 C26.608,10.944 26.512,11.168 26.512,11.408 C26.512,11.888 27.008,12.288 27.424,12.288 C27.808,12.288 27.904,12.096 28.144,11.76 L33.52,1.696 C33.648,1.456 33.648,1.344 33.648,1.216 C33.648,0.72 33.2,0.32 32.704,0.32 C32.336,0.32 32.176,0.432 31.968,0.832 L26.672,10.816 Z" id="100%"></path>
                    <path d="M65.52,10.4 C65.408,10.624 65.36,10.768 65.36,10.96 C65.36,11.424 65.808,12.096 66.688,12.096 C67.408,12.096 67.584,11.776 68.032,10.88 L72,2.816 C72.192,2.416 72.368,2.08 72.368,1.76 C72.368,1.344 72.032,0.608 71.216,0.608 L65.424,0.608 C64.544,0.608 64.24,1.152 64.24,1.712 C64.24,2.256 64.56,2.816 65.424,2.816 L69.52,2.816 L65.52,10.4 Z M76.608,2.816 L79.616,2.816 C79.904,2.816 80.736,2.72 80.736,1.616 C80.736,1.04 80.304,0.608 79.568,0.608 L75.712,0.608 C74.944,0.608 74.64,0.88 74.464,2.128 L74.064,5.504 C74.048,5.68 74.016,5.84 74.016,6.048 C74.016,6.32 74.336,6.8 74.96,6.8 C75.776,6.8 75.92,6.272 76.848,6.272 C77.84,6.272 78.384,6.928 78.384,7.888 C78.384,8.896 77.808,9.984 76.688,9.984 C75.616,9.984 74.848,8.96 74.208,8.96 C73.616,8.96 73.12,9.456 73.12,10.048 C73.12,11.456 75.504,12.192 76.64,12.192 C79.408,12.192 80.88,10.432 80.88,7.76 C80.88,5.888 79.504,4.352 77.568,4.352 C77.168,4.352 76.752,4.432 76.368,4.512 L76.608,2.816 Z M84.752,3.952 C84.224,3.952 83.92,3.52 83.92,3.008 C83.92,2.496 84.224,2.048 84.752,2.048 C85.28,2.048 85.584,2.496 85.584,3.008 C85.584,3.52 85.28,3.952 84.752,3.952 L84.752,3.952 Z M84.752,5.584 C86.176,5.584 87.216,4.4 87.216,3.008 C87.216,1.616 86.176,0.416 84.752,0.416 C83.328,0.416 82.288,1.616 82.288,3.008 C82.288,4.4 83.328,5.584 84.752,5.584 L84.752,5.584 Z M90.384,12.192 C91.808,12.192 92.848,11.008 92.848,9.616 C92.848,8.224 91.808,7.024 90.384,7.024 C88.96,7.024 87.92,8.224 87.92,9.616 C87.92,11.008 88.96,12.192 90.384,12.192 L90.384,12.192 Z M90.384,10.56 C89.856,10.56 89.552,10.128 89.552,9.616 C89.552,9.104 89.856,8.656 90.384,8.656 C90.912,8.656 91.216,9.104 91.216,9.616 C91.216,10.128 90.912,10.56 90.384,10.56 L90.384,10.56 Z M84.176,10.816 C84.112,10.944 84.016,11.168 84.016,11.408 C84.016,11.888 84.512,12.288 84.928,12.288 C85.312,12.288 85.408,12.096 85.648,11.76 L91.024,1.696 C91.152,1.456 91.152,1.344 91.152,1.216 C91.152,0.72 90.704,0.32 90.208,0.32 C89.84,0.32 89.68,0.432 89.472,0.832 L84.176,10.816 Z" id="75%"></path>
                    <path d="M127,2.816 L130.008,2.816 C130.296,2.816 131.128,2.72 131.128,1.616 C131.128,1.04 130.696,0.608 129.96,0.608 L126.104,0.608 C125.336,0.608 125.032,0.88 124.856,2.128 L124.456,5.504 C124.44,5.68 124.408,5.84 124.408,6.048 C124.408,6.32 124.728,6.8 125.352,6.8 C126.168,6.8 126.312,6.272 127.24,6.272 C128.232,6.272 128.776,6.928 128.776,7.888 C128.776,8.896 128.2,9.984 127.08,9.984 C126.008,9.984 125.24,8.96 124.6,8.96 C124.008,8.96 123.512,9.456 123.512,10.048 C123.512,11.456 125.896,12.192 127.032,12.192 C129.8,12.192 131.272,10.432 131.272,7.76 C131.272,5.888 129.896,4.352 127.96,4.352 C127.56,4.352 127.144,4.432 126.76,4.512 L127,2.816 Z M136.776,10.016 C135.144,10.016 135.032,7.44 135.032,6.304 C135.032,5.088 135.144,2.592 136.776,2.592 C138.408,2.592 138.52,5.088 138.52,6.304 C138.52,7.44 138.408,10.016 136.776,10.016 L136.776,10.016 Z M136.776,12.192 C140.008,12.192 141.016,8.912 141.016,6.304 C141.016,3.696 140.008,0.416 136.776,0.416 C133.544,0.416 132.536,3.696 132.536,6.304 C132.536,8.912 133.544,12.192 136.776,12.192 L136.776,12.192 Z M144.328,3.952 C143.8,3.952 143.496,3.52 143.496,3.008 C143.496,2.496 143.8,2.048 144.328,2.048 C144.856,2.048 145.16,2.496 145.16,3.008 C145.16,3.52 144.856,3.952 144.328,3.952 L144.328,3.952 Z M144.328,5.584 C145.752,5.584 146.792,4.4 146.792,3.008 C146.792,1.616 145.752,0.416 144.328,0.416 C142.904,0.416 141.864,1.616 141.864,3.008 C141.864,4.4 142.904,5.584 144.328,5.584 L144.328,5.584 Z M149.96,12.192 C151.384,12.192 152.424,11.008 152.424,9.616 C152.424,8.224 151.384,7.024 149.96,7.024 C148.536,7.024 147.496,8.224 147.496,9.616 C147.496,11.008 148.536,12.192 149.96,12.192 L149.96,12.192 Z M149.96,10.56 C149.432,10.56 149.128,10.128 149.128,9.616 C149.128,9.104 149.432,8.656 149.96,8.656 C150.488,8.656 150.792,9.104 150.792,9.616 C150.792,10.128 150.488,10.56 149.96,10.56 L149.96,10.56 Z M143.752,10.816 C143.688,10.944 143.592,11.168 143.592,11.408 C143.592,11.888 144.088,12.288 144.504,12.288 C144.888,12.288 144.984,12.096 145.224,11.76 L150.6,1.696 C150.728,1.456 150.728,1.344 150.728,1.216 C150.728,0.72 150.28,0.32 149.784,0.32 C149.416,0.32 149.256,0.432 149.048,0.832 L143.752,10.816 Z" id="50%"></path>
                    <path d="M188.288,9.888 C189.648,8.176 192.128,5.968 192.128,3.744 C192.128,1.712 190.544,0.416 188.576,0.416 C186.608,0.416 184.816,2.032 184.816,4.048 C184.816,4.672 185.216,5.216 185.984,5.216 C187.52,5.216 186.64,2.624 188.48,2.624 C189.136,2.624 189.632,3.2 189.632,3.856 C189.632,4.432 189.36,4.928 189.072,5.344 C187.856,7.104 186.416,8.544 185.088,10.128 C184.928,10.32 184.72,10.608 184.72,10.944 C184.72,11.68 185.264,12 185.968,12 L191.312,12 C191.92,12 192.464,11.68 192.464,10.944 C192.464,10.208 191.92,9.888 191.216,9.888 L188.288,9.888 Z M197.184,2.816 L200.192,2.816 C200.48,2.816 201.312,2.72 201.312,1.616 C201.312,1.04 200.88,0.608 200.144,0.608 L196.288,0.608 C195.52,0.608 195.216,0.88 195.04,2.128 L194.64,5.504 C194.624,5.68 194.592,5.84 194.592,6.048 C194.592,6.32 194.912,6.8 195.536,6.8 C196.352,6.8 196.496,6.272 197.424,6.272 C198.416,6.272 198.96,6.928 198.96,7.888 C198.96,8.896 198.384,9.984 197.264,9.984 C196.192,9.984 195.424,8.96 194.784,8.96 C194.192,8.96 193.696,9.456 193.696,10.048 C193.696,11.456 196.08,12.192 197.216,12.192 C199.984,12.192 201.456,10.432 201.456,7.76 C201.456,5.888 200.08,4.352 198.144,4.352 C197.744,4.352 197.328,4.432 196.944,4.512 L197.184,2.816 Z M205.328,3.952 C204.8,3.952 204.496,3.52 204.496,3.008 C204.496,2.496 204.8,2.048 205.328,2.048 C205.856,2.048 206.16,2.496 206.16,3.008 C206.16,3.52 205.856,3.952 205.328,3.952 L205.328,3.952 Z M205.328,5.584 C206.752,5.584 207.792,4.4 207.792,3.008 C207.792,1.616 206.752,0.416 205.328,0.416 C203.904,0.416 202.864,1.616 202.864,3.008 C202.864,4.4 203.904,5.584 205.328,5.584 L205.328,5.584 Z M210.96,12.192 C212.384,12.192 213.424,11.008 213.424,9.616 C213.424,8.224 212.384,7.024 210.96,7.024 C209.536,7.024 208.496,8.224 208.496,9.616 C208.496,11.008 209.536,12.192 210.96,12.192 L210.96,12.192 Z M210.96,10.56 C210.432,10.56 210.128,10.128 210.128,9.616 C210.128,9.104 210.432,8.656 210.96,8.656 C211.488,8.656 211.792,9.104 211.792,9.616 C211.792,10.128 211.488,10.56 210.96,10.56 L210.96,10.56 Z M204.752,10.816 C204.688,10.944 204.592,11.168 204.592,11.408 C204.592,11.888 205.088,12.288 205.504,12.288 C205.888,12.288 205.984,12.096 206.224,11.76 L211.6,1.696 C211.728,1.456 211.728,1.344 211.728,1.216 C211.728,0.72 211.28,0.32 210.784,0.32 C210.416,0.32 210.256,0.432 210.048,0.832 L204.752,10.816 Z" id="25%"></path>
                    <path d="M252,2.816 L255.008,2.816 C255.296,2.816 256.128,2.72 256.128,1.616 C256.128,1.04 255.696,0.608 254.96,0.608 L251.104,0.608 C250.336,0.608 250.032,0.88 249.856,2.128 L249.456,5.504 C249.44,5.68 249.408,5.84 249.408,6.048 C249.408,6.32 249.728,6.8 250.352,6.8 C251.168,6.8 251.312,6.272 252.24,6.272 C253.232,6.272 253.776,6.928 253.776,7.888 C253.776,8.896 253.2,9.984 252.08,9.984 C251.008,9.984 250.24,8.96 249.6,8.96 C249.008,8.96 248.512,9.456 248.512,10.048 C248.512,11.456 250.896,12.192 252.032,12.192 C254.8,12.192 256.272,10.432 256.272,7.76 C256.272,5.888 254.896,4.352 252.96,4.352 C252.56,4.352 252.144,4.432 251.76,4.512 L252,2.816 Z M260.144,3.952 C259.616,3.952 259.312,3.52 259.312,3.008 C259.312,2.496 259.616,2.048 260.144,2.048 C260.672,2.048 260.976,2.496 260.976,3.008 C260.976,3.52 260.672,3.952 260.144,3.952 L260.144,3.952 Z M260.144,5.584 C261.568,5.584 262.608,4.4 262.608,3.008 C262.608,1.616 261.568,0.416 260.144,0.416 C258.72,0.416 257.68,1.616 257.68,3.008 C257.68,4.4 258.72,5.584 260.144,5.584 L260.144,5.584 Z M265.776,12.192 C267.2,12.192 268.24,11.008 268.24,9.616 C268.24,8.224 267.2,7.024 265.776,7.024 C264.352,7.024 263.312,8.224 263.312,9.616 C263.312,11.008 264.352,12.192 265.776,12.192 L265.776,12.192 Z M265.776,10.56 C265.248,10.56 264.944,10.128 264.944,9.616 C264.944,9.104 265.248,8.656 265.776,8.656 C266.304,8.656 266.608,9.104 266.608,9.616 C266.608,10.128 266.304,10.56 265.776,10.56 L265.776,10.56 Z M259.568,10.816 C259.504,10.944 259.408,11.168 259.408,11.408 C259.408,11.888 259.904,12.288 260.32,12.288 C260.704,12.288 260.8,12.096 261.04,11.76 L266.416,1.696 C266.544,1.456 266.544,1.344 266.544,1.216 C266.544,0.72 266.096,0.32 265.6,0.32 C265.232,0.32 265.072,0.432 264.864,0.832 L259.568,10.816 Z" id="5%"></path>
                    <path d="M8.592,120.416 C6.224,120.416 4.576,122.304 4.576,124.384 C4.576,126.272 6,127.968 7.92,127.968 C8.272,127.968 8.64,127.904 8.928,127.776 L8.96,127.808 C8.432,128.56 7.392,129.584 6.752,130.368 C6.56,130.608 6.416,130.8 6.416,131.024 C6.416,131.6 7.104,132.192 7.552,132.192 C7.68,132.192 7.856,132.192 8.032,132.08 C8.224,131.952 8.416,131.824 8.544,131.696 C10.16,130.192 12.608,126.8 12.608,124.384 C12.608,122.256 11.056,120.416 8.592,120.416 L8.592,120.416 Z M8.592,126.048 C7.584,126.048 7.072,125.232 7.072,124.384 C7.072,123.456 7.68,122.72 8.592,122.72 C9.552,122.72 10.112,123.488 10.112,124.384 C10.112,125.328 9.504,126.048 8.592,126.048 L8.592,126.048 Z M17.184,122.816 L20.192,122.816 C20.48,122.816 21.312,122.72 21.312,121.616 C21.312,121.04 20.88,120.608 20.144,120.608 L16.288,120.608 C15.52,120.608 15.216,120.88 15.04,122.128 L14.64,125.504 C14.624,125.68 14.592,125.84 14.592,126.048 C14.592,126.32 14.912,126.8 15.536,126.8 C16.352,126.8 16.496,126.272 17.424,126.272 C18.416,126.272 18.96,126.928 18.96,127.888 C18.96,128.896 18.384,129.984 17.264,129.984 C16.192,129.984 15.424,128.96 14.784,128.96 C14.192,128.96 13.696,129.456 13.696,130.048 C13.696,131.456 16.08,132.192 17.216,132.192 C19.984,132.192 21.456,130.432 21.456,127.76 C21.456,125.888 20.08,124.352 18.144,124.352 C17.744,124.352 17.328,124.432 16.944,124.512 L17.184,122.816 Z M25.328,123.952 C24.8,123.952 24.496,123.52 24.496,123.008 C24.496,122.496 24.8,122.048 25.328,122.048 C25.856,122.048 26.16,122.496 26.16,123.008 C26.16,123.52 25.856,123.952 25.328,123.952 L25.328,123.952 Z M25.328,125.584 C26.752,125.584 27.792,124.4 27.792,123.008 C27.792,121.616 26.752,120.416 25.328,120.416 C23.904,120.416 22.864,121.616 22.864,123.008 C22.864,124.4 23.904,125.584 25.328,125.584 L25.328,125.584 Z M30.96,132.192 C32.384,132.192 33.424,131.008 33.424,129.616 C33.424,128.224 32.384,127.024 30.96,127.024 C29.536,127.024 28.496,128.224 28.496,129.616 C28.496,131.008 29.536,132.192 30.96,132.192 L30.96,132.192 Z M30.96,130.56 C30.432,130.56 30.128,130.128 30.128,129.616 C30.128,129.104 30.432,128.656 30.96,128.656 C31.488,128.656 31.792,129.104 31.792,129.616 C31.792,130.128 31.488,130.56 30.96,130.56 L30.96,130.56 Z M24.752,130.816 C24.688,130.944 24.592,131.168 24.592,131.408 C24.592,131.888 25.088,132.288 25.504,132.288 C25.888,132.288 25.984,132.096 26.224,131.76 L31.6,121.696 C31.728,121.456 31.728,121.344 31.728,121.216 C31.728,120.72 31.28,120.32 30.784,120.32 C30.416,120.32 30.256,120.432 30.048,120.832 L24.752,130.816 Z" id="95%"></path>
                    <path d="M65.52,130.4 C65.408,130.624 65.36,130.768 65.36,130.96 C65.36,131.424 65.808,132.096 66.688,132.096 C67.408,132.096 67.584,131.776 68.032,130.88 L72,122.816 C72.192,122.416 72.368,122.08 72.368,121.76 C72.368,121.344 72.032,120.608 71.216,120.608 L65.424,120.608 C64.544,120.608 64.24,121.152 64.24,121.712 C64.24,122.256 64.56,122.816 65.424,122.816 L69.52,122.816 L65.52,130.4 Z M76.608,122.816 L79.616,122.816 C79.904,122.816 80.736,122.72 80.736,121.616 C80.736,121.04 80.304,120.608 79.568,120.608 L75.712,120.608 C74.944,120.608 74.64,120.88 74.464,122.128 L74.064,125.504 C74.048,125.68 74.016,125.84 74.016,126.048 C74.016,126.32 74.336,126.8 74.96,126.8 C75.776,126.8 75.92,126.272 76.848,126.272 C77.84,126.272 78.384,126.928 78.384,127.888 C78.384,128.896 77.808,129.984 76.688,129.984 C75.616,129.984 74.848,128.96 74.208,128.96 C73.616,128.96 73.12,129.456 73.12,130.048 C73.12,131.456 75.504,132.192 76.64,132.192 C79.408,132.192 80.88,130.432 80.88,127.76 C80.88,125.888 79.504,124.352 77.568,124.352 C77.168,124.352 76.752,124.432 76.368,124.512 L76.608,122.816 Z M84.752,123.952 C84.224,123.952 83.92,123.52 83.92,123.008 C83.92,122.496 84.224,122.048 84.752,122.048 C85.28,122.048 85.584,122.496 85.584,123.008 C85.584,123.52 85.28,123.952 84.752,123.952 L84.752,123.952 Z M84.752,125.584 C86.176,125.584 87.216,124.4 87.216,123.008 C87.216,121.616 86.176,120.416 84.752,120.416 C83.328,120.416 82.288,121.616 82.288,123.008 C82.288,124.4 83.328,125.584 84.752,125.584 L84.752,125.584 Z M90.384,132.192 C91.808,132.192 92.848,131.008 92.848,129.616 C92.848,128.224 91.808,127.024 90.384,127.024 C88.96,127.024 87.92,128.224 87.92,129.616 C87.92,131.008 88.96,132.192 90.384,132.192 L90.384,132.192 Z M90.384,130.56 C89.856,130.56 89.552,130.128 89.552,129.616 C89.552,129.104 89.856,128.656 90.384,128.656 C90.912,128.656 91.216,129.104 91.216,129.616 C91.216,130.128 90.912,130.56 90.384,130.56 L90.384,130.56 Z M84.176,130.816 C84.112,130.944 84.016,131.168 84.016,131.408 C84.016,131.888 84.512,132.288 84.928,132.288 C85.312,132.288 85.408,132.096 85.648,131.76 L91.024,121.696 C91.152,121.456 91.152,121.344 91.152,121.216 C91.152,120.72 90.704,120.32 90.208,120.32 C89.84,120.32 89.68,120.432 89.472,120.832 L84.176,130.816 Z" id="75%"></path>
                    <path d="M127,122.816 L130.008,122.816 C130.296,122.816 131.128,122.72 131.128,121.616 C131.128,121.04 130.696,120.608 129.96,120.608 L126.104,120.608 C125.336,120.608 125.032,120.88 124.856,122.128 L124.456,125.504 C124.44,125.68 124.408,125.84 124.408,126.048 C124.408,126.32 124.728,126.8 125.352,126.8 C126.168,126.8 126.312,126.272 127.24,126.272 C128.232,126.272 128.776,126.928 128.776,127.888 C128.776,128.896 128.2,129.984 127.08,129.984 C126.008,129.984 125.24,128.96 124.6,128.96 C124.008,128.96 123.512,129.456 123.512,130.048 C123.512,131.456 125.896,132.192 127.032,132.192 C129.8,132.192 131.272,130.432 131.272,127.76 C131.272,125.888 129.896,124.352 127.96,124.352 C127.56,124.352 127.144,124.432 126.76,124.512 L127,122.816 Z M136.776,130.016 C135.144,130.016 135.032,127.44 135.032,126.304 C135.032,125.088 135.144,122.592 136.776,122.592 C138.408,122.592 138.52,125.088 138.52,126.304 C138.52,127.44 138.408,130.016 136.776,130.016 L136.776,130.016 Z M136.776,132.192 C140.008,132.192 141.016,128.912 141.016,126.304 C141.016,123.696 140.008,120.416 136.776,120.416 C133.544,120.416 132.536,123.696 132.536,126.304 C132.536,128.912 133.544,132.192 136.776,132.192 L136.776,132.192 Z M144.328,123.952 C143.8,123.952 143.496,123.52 143.496,123.008 C143.496,122.496 143.8,122.048 144.328,122.048 C144.856,122.048 145.16,122.496 145.16,123.008 C145.16,123.52 144.856,123.952 144.328,123.952 L144.328,123.952 Z M144.328,125.584 C145.752,125.584 146.792,124.4 146.792,123.008 C146.792,121.616 145.752,120.416 144.328,120.416 C142.904,120.416 141.864,121.616 141.864,123.008 C141.864,124.4 142.904,125.584 144.328,125.584 L144.328,125.584 Z M149.96,132.192 C151.384,132.192 152.424,131.008 152.424,129.616 C152.424,128.224 151.384,127.024 149.96,127.024 C148.536,127.024 147.496,128.224 147.496,129.616 C147.496,131.008 148.536,132.192 149.96,132.192 L149.96,132.192 Z M149.96,130.56 C149.432,130.56 149.128,130.128 149.128,129.616 C149.128,129.104 149.432,128.656 149.96,128.656 C150.488,128.656 150.792,129.104 150.792,129.616 C150.792,130.128 150.488,130.56 149.96,130.56 L149.96,130.56 Z M143.752,130.816 C143.688,130.944 143.592,131.168 143.592,131.408 C143.592,131.888 144.088,132.288 144.504,132.288 C144.888,132.288 144.984,132.096 145.224,131.76 L150.6,121.696 C150.728,121.456 150.728,121.344 150.728,121.216 C150.728,120.72 150.28,120.32 149.784,120.32 C149.416,120.32 149.256,120.432 149.048,120.832 L143.752,130.816 Z" id="50%"></path>
                    <path d="M188.288,129.888 C189.648,128.176 192.128,125.968 192.128,123.744 C192.128,121.712 190.544,120.416 188.576,120.416 C186.608,120.416 184.816,122.032 184.816,124.048 C184.816,124.672 185.216,125.216 185.984,125.216 C187.52,125.216 186.64,122.624 188.48,122.624 C189.136,122.624 189.632,123.2 189.632,123.856 C189.632,124.432 189.36,124.928 189.072,125.344 C187.856,127.104 186.416,128.544 185.088,130.128 C184.928,130.32 184.72,130.608 184.72,130.944 C184.72,131.68 185.264,132 185.968,132 L191.312,132 C191.92,132 192.464,131.68 192.464,130.944 C192.464,130.208 191.92,129.888 191.216,129.888 L188.288,129.888 Z M197.184,122.816 L200.192,122.816 C200.48,122.816 201.312,122.72 201.312,121.616 C201.312,121.04 200.88,120.608 200.144,120.608 L196.288,120.608 C195.52,120.608 195.216,120.88 195.04,122.128 L194.64,125.504 C194.624,125.68 194.592,125.84 194.592,126.048 C194.592,126.32 194.912,126.8 195.536,126.8 C196.352,126.8 196.496,126.272 197.424,126.272 C198.416,126.272 198.96,126.928 198.96,127.888 C198.96,128.896 198.384,129.984 197.264,129.984 C196.192,129.984 195.424,128.96 194.784,128.96 C194.192,128.96 193.696,129.456 193.696,130.048 C193.696,131.456 196.08,132.192 197.216,132.192 C199.984,132.192 201.456,130.432 201.456,127.76 C201.456,125.888 200.08,124.352 198.144,124.352 C197.744,124.352 197.328,124.432 196.944,124.512 L197.184,122.816 Z M205.328,123.952 C204.8,123.952 204.496,123.52 204.496,123.008 C204.496,122.496 204.8,122.048 205.328,122.048 C205.856,122.048 206.16,122.496 206.16,123.008 C206.16,123.52 205.856,123.952 205.328,123.952 L205.328,123.952 Z M205.328,125.584 C206.752,125.584 207.792,124.4 207.792,123.008 C207.792,121.616 206.752,120.416 205.328,120.416 C203.904,120.416 202.864,121.616 202.864,123.008 C202.864,124.4 203.904,125.584 205.328,125.584 L205.328,125.584 Z M210.96,132.192 C212.384,132.192 213.424,131.008 213.424,129.616 C213.424,128.224 212.384,127.024 210.96,127.024 C209.536,127.024 208.496,128.224 208.496,129.616 C208.496,131.008 209.536,132.192 210.96,132.192 L210.96,132.192 Z M210.96,130.56 C210.432,130.56 210.128,130.128 210.128,129.616 C210.128,129.104 210.432,128.656 210.96,128.656 C211.488,128.656 211.792,129.104 211.792,129.616 C211.792,130.128 211.488,130.56 210.96,130.56 L210.96,130.56 Z M204.752,130.816 C204.688,130.944 204.592,131.168 204.592,131.408 C204.592,131.888 205.088,132.288 205.504,132.288 C205.888,132.288 205.984,132.096 206.224,131.76 L211.6,121.696 C211.728,121.456 211.728,121.344 211.728,121.216 C211.728,120.72 211.28,120.32 210.784,120.32 C210.416,120.32 210.256,120.432 210.048,120.832 L204.752,130.816 Z" id="25%"></path>
                    <path d="M252,122.816 L255.008,122.816 C255.296,122.816 256.128,122.72 256.128,121.616 C256.128,121.04 255.696,120.608 254.96,120.608 L251.104,120.608 C250.336,120.608 250.032,120.88 249.856,122.128 L249.456,125.504 C249.44,125.68 249.408,125.84 249.408,126.048 C249.408,126.32 249.728,126.8 250.352,126.8 C251.168,126.8 251.312,126.272 252.24,126.272 C253.232,126.272 253.776,126.928 253.776,127.888 C253.776,128.896 253.2,129.984 252.08,129.984 C251.008,129.984 250.24,128.96 249.6,128.96 C249.008,128.96 248.512,129.456 248.512,130.048 C248.512,131.456 250.896,132.192 252.032,132.192 C254.8,132.192 256.272,130.432 256.272,127.76 C256.272,125.888 254.896,124.352 252.96,124.352 C252.56,124.352 252.144,124.432 251.76,124.512 L252,122.816 Z M260.144,123.952 C259.616,123.952 259.312,123.52 259.312,123.008 C259.312,122.496 259.616,122.048 260.144,122.048 C260.672,122.048 260.976,122.496 260.976,123.008 C260.976,123.52 260.672,123.952 260.144,123.952 L260.144,123.952 Z M260.144,125.584 C261.568,125.584 262.608,124.4 262.608,123.008 C262.608,121.616 261.568,120.416 260.144,120.416 C258.72,120.416 257.68,121.616 257.68,123.008 C257.68,124.4 258.72,125.584 260.144,125.584 L260.144,125.584 Z M265.776,132.192 C267.2,132.192 268.24,131.008 268.24,129.616 C268.24,128.224 267.2,127.024 265.776,127.024 C264.352,127.024 263.312,128.224 263.312,129.616 C263.312,131.008 264.352,132.192 265.776,132.192 L265.776,132.192 Z M265.776,130.56 C265.248,130.56 264.944,130.128 264.944,129.616 C264.944,129.104 265.248,128.656 265.776,128.656 C266.304,128.656 266.608,129.104 266.608,129.616 C266.608,130.128 266.304,130.56 265.776,130.56 L265.776,130.56 Z M259.568,130.816 C259.504,130.944 259.408,131.168 259.408,131.408 C259.408,131.888 259.904,132.288 260.32,132.288 C260.704,132.288 260.8,132.096 261.04,131.76 L266.416,121.696 C266.544,121.456 266.544,121.344 266.544,121.216 C266.544,120.72 266.096,120.32 265.6,120.32 C265.232,120.32 265.072,120.432 264.864,120.832 L259.568,130.816 Z" id="5%"></path>
                </g>
                <g id="hex" transform="translate(0.000000, 81.699990)" fill="#4A4A4A">
                    <path d="M244.334,129.27601 L245.314,129.27601 C245.636,129.27601 245.888,129.12201 245.888,128.81401 C245.888,128.50601 245.636,128.35201 245.314,128.35201 L244.46,128.35201 L244.754,126.28001 L245.734,126.28001 C246.056,126.28001 246.308,126.14001 246.308,125.81801 C246.308,125.51001 246.056,125.35601 245.734,125.35601 L244.88,125.35601 L245.16,123.31201 C245.202,123.04601 245.23,122.87801 245.23,122.72401 C245.23,122.47201 245.09,122.24801 244.754,122.24801 C244.39,122.24801 244.264,122.43001 244.222,122.75201 L243.858,125.35601 L242.192,125.35601 L242.472,123.31201 C242.514,123.04601 242.542,122.87801 242.542,122.72401 C242.542,122.47201 242.402,122.24801 242.066,122.24801 C241.702,122.24801 241.576,122.43001 241.534,122.75201 L241.17,125.35601 L240.19,125.35601 C239.868,125.35601 239.616,125.51001 239.616,125.81801 C239.616,126.12601 239.868,126.28001 240.19,126.28001 L241.044,126.28001 L240.75,128.35201 L239.77,128.35201 C239.448,128.35201 239.196,128.49201 239.196,128.81401 C239.196,129.12201 239.448,129.27601 239.77,129.27601 L240.624,129.27601 L240.344,131.32001 C240.302,131.58601 240.274,131.75401 240.274,131.90801 C240.274,132.16001 240.414,132.38401 240.75,132.38401 C241.114,132.38401 241.24,132.20201 241.282,131.88001 L241.646,129.27601 L243.312,129.27601 L243.032,131.32001 C242.99,131.58601 242.962,131.75401 242.962,131.90801 C242.962,132.16001 243.102,132.38401 243.438,132.38401 C243.802,132.38401 243.928,132.20201 243.97,131.88001 L244.334,129.27601 Z M243.438,128.35201 L241.772,128.35201 L242.066,126.28001 L243.732,126.28001 L243.438,128.35201 Z M253.168,129.36001 C253.168,128.22601 252.58,127.27401 251.46,126.93801 C252.244,126.46201 252.636,125.65001 252.636,124.82401 C252.636,123.42401 251.642,122.24801 250.046,122.24801 C248.394,122.24801 247.428,123.43801 247.428,124.76801 C247.428,125.09001 247.638,125.34201 247.988,125.34201 C248.198,125.34201 248.534,125.32801 248.576,124.76801 C248.646,124.01201 249.01,123.31201 249.99,123.31201 C250.844,123.31201 251.404,123.98401 251.404,124.93601 C251.404,125.84601 250.998,126.32201 250.004,126.54601 C249.542,126.64401 249.36,126.79801 249.36,127.07801 C249.36,127.40001 249.626,127.61001 250.116,127.61001 C251.04,127.61001 251.852,127.98801 251.852,129.47201 C251.852,130.49401 251.068,131.32001 249.962,131.32001 C249.024,131.32001 248.52,130.76001 248.282,130.04601 C248.142,129.61201 247.96,129.40201 247.596,129.40201 C247.302,129.40201 247.078,129.65401 247.078,130.08801 C247.078,130.83001 247.918,132.38401 249.99,132.38401 C251.768,132.38401 253.168,131.25001 253.168,129.36001 L253.168,129.36001 Z M255.212,124.53001 C255.212,125.59401 255.618,126.18201 256.514,126.74201 C255.352,127.00801 254.708,128.07201 254.708,129.23401 C254.708,130.85801 255.814,132.38401 257.76,132.38401 C259.706,132.38401 260.812,130.85801 260.812,129.23401 C260.812,128.07201 260.168,127.00801 259.006,126.74201 C259.902,126.18201 260.308,125.59401 260.308,124.53001 C260.308,123.00401 259.02,122.24801 257.76,122.24801 C256.5,122.24801 255.212,123.00401 255.212,124.53001 L255.212,124.53001 Z M256.36,124.76801 C256.36,123.92801 256.878,123.31201 257.76,123.31201 C258.642,123.31201 259.16,123.92801 259.16,124.76801 C259.16,125.62201 258.642,126.23801 257.76,126.23801 C256.878,126.23801 256.36,125.62201 256.36,124.76801 L256.36,124.76801 Z M256.024,129.29001 C256.024,128.26801 256.612,127.30201 257.76,127.30201 C258.908,127.30201 259.496,128.26801 259.496,129.29001 C259.496,130.57801 258.684,131.32001 257.76,131.32001 C256.836,131.32001 256.024,130.57801 256.024,129.29001 L256.024,129.29001 Z M268.176,129.36001 C268.176,128.22601 267.588,127.27401 266.468,126.93801 C267.252,126.46201 267.644,125.65001 267.644,124.82401 C267.644,123.42401 266.65,122.24801 265.054,122.24801 C263.402,122.24801 262.436,123.43801 262.436,124.76801 C262.436,125.09001 262.646,125.34201 262.996,125.34201 C263.206,125.34201 263.542,125.32801 263.584,124.76801 C263.654,124.01201 264.018,123.31201 264.998,123.31201 C265.852,123.31201 266.412,123.98401 266.412,124.93601 C266.412,125.84601 266.006,126.32201 265.012,126.54601 C264.55,126.64401 264.368,126.79801 264.368,127.07801 C264.368,127.40001 264.634,127.61001 265.124,127.61001 C266.048,127.61001 266.86,127.98801 266.86,129.47201 C266.86,130.49401 266.076,131.32001 264.97,131.32001 C264.032,131.32001 263.528,130.76001 263.29,130.04601 C263.15,129.61201 262.968,129.40201 262.604,129.40201 C262.31,129.40201 262.086,129.65401 262.086,130.08801 C262.086,130.83001 262.926,132.38401 264.998,132.38401 C266.776,132.38401 268.176,131.25001 268.176,129.36001 L268.176,129.36001 Z M275.988,125.37001 C275.988,124.93601 275.652,124.76801 275.414,124.76801 C275.162,124.76801 274.84,124.93601 274.84,125.37001 L274.84,125.76201 L274.812,125.76201 C274.238,125.13201 273.636,124.76801 272.782,124.76801 C270.682,124.76801 269.506,126.60201 269.506,128.57601 C269.506,130.55001 270.682,132.38401 272.782,132.38401 C273.58,132.38401 274.28,132.02001 274.812,131.26401 L274.84,131.26401 L274.84,131.78201 C274.84,132.21601 275.162,132.38401 275.414,132.38401 C275.652,132.38401 275.988,132.21601 275.988,131.78201 L275.988,125.37001 Z M270.738,128.57601 C270.738,127.31601 271.27,125.83201 272.782,125.83201 C274.294,125.83201 274.826,127.31601 274.826,128.57601 C274.826,129.83601 274.294,131.32001 272.782,131.32001 C271.27,131.32001 270.738,129.83601 270.738,128.57601 L270.738,128.57601 Z M283.464,129.36001 C283.464,128.22601 282.876,127.27401 281.756,126.93801 C282.54,126.46201 282.932,125.65001 282.932,124.82401 C282.932,123.42401 281.938,122.24801 280.342,122.24801 C278.69,122.24801 277.724,123.43801 277.724,124.76801 C277.724,125.09001 277.934,125.34201 278.284,125.34201 C278.494,125.34201 278.83,125.32801 278.872,124.76801 C278.942,124.01201 279.306,123.31201 280.286,123.31201 C281.14,123.31201 281.7,123.98401 281.7,124.93601 C281.7,125.84601 281.294,126.32201 280.3,126.54601 C279.838,126.64401 279.656,126.79801 279.656,127.07801 C279.656,127.40001 279.922,127.61001 280.412,127.61001 C281.336,127.61001 282.148,127.98801 282.148,129.47201 C282.148,130.49401 281.364,131.32001 280.258,131.32001 C279.32,131.32001 278.816,130.76001 278.578,130.04601 C278.438,129.61201 278.256,129.40201 277.892,129.40201 C277.598,129.40201 277.374,129.65401 277.374,130.08801 C277.374,130.83001 278.214,132.38401 280.286,132.38401 C282.064,132.38401 283.464,131.25001 283.464,129.36001 L283.464,129.36001 Z M285.508,124.53001 C285.508,125.59401 285.914,126.18201 286.81,126.74201 C285.648,127.00801 285.004,128.07201 285.004,129.23401 C285.004,130.85801 286.11,132.38401 288.056,132.38401 C290.002,132.38401 291.108,130.85801 291.108,129.23401 C291.108,128.07201 290.464,127.00801 289.302,126.74201 C290.198,126.18201 290.604,125.59401 290.604,124.53001 C290.604,123.00401 289.316,122.24801 288.056,122.24801 C286.796,122.24801 285.508,123.00401 285.508,124.53001 L285.508,124.53001 Z M286.656,124.76801 C286.656,123.92801 287.174,123.31201 288.056,123.31201 C288.938,123.31201 289.456,123.92801 289.456,124.76801 C289.456,125.62201 288.938,126.23801 288.056,126.23801 C287.174,126.23801 286.656,125.62201 286.656,124.76801 L286.656,124.76801 Z M286.32,129.29001 C286.32,128.26801 286.908,127.30201 288.056,127.30201 C289.204,127.30201 289.792,128.26801 289.792,129.29001 C289.792,130.57801 288.98,131.32001 288.056,131.32001 C287.132,131.32001 286.32,130.57801 286.32,129.29001 L286.32,129.29001 Z" id="#383A38"></path>
                    <path d="M185.334,129.27601 L186.314,129.27601 C186.636,129.27601 186.888,129.12201 186.888,128.81401 C186.888,128.50601 186.636,128.35201 186.314,128.35201 L185.46,128.35201 L185.754,126.28001 L186.734,126.28001 C187.056,126.28001 187.308,126.14001 187.308,125.81801 C187.308,125.51001 187.056,125.35601 186.734,125.35601 L185.88,125.35601 L186.16,123.31201 C186.202,123.04601 186.23,122.87801 186.23,122.72401 C186.23,122.47201 186.09,122.24801 185.754,122.24801 C185.39,122.24801 185.264,122.43001 185.222,122.75201 L184.858,125.35601 L183.192,125.35601 L183.472,123.31201 C183.514,123.04601 183.542,122.87801 183.542,122.72401 C183.542,122.47201 183.402,122.24801 183.066,122.24801 C182.702,122.24801 182.576,122.43001 182.534,122.75201 L182.17,125.35601 L181.19,125.35601 C180.868,125.35601 180.616,125.51001 180.616,125.81801 C180.616,126.12601 180.868,126.28001 181.19,126.28001 L182.044,126.28001 L181.75,128.35201 L180.77,128.35201 C180.448,128.35201 180.196,128.49201 180.196,128.81401 C180.196,129.12201 180.448,129.27601 180.77,129.27601 L181.624,129.27601 L181.344,131.32001 C181.302,131.58601 181.274,131.75401 181.274,131.90801 C181.274,132.16001 181.414,132.38401 181.75,132.38401 C182.114,132.38401 182.24,132.20201 182.282,131.88001 L182.646,129.27601 L184.312,129.27601 L184.032,131.32001 C183.99,131.58601 183.962,131.75401 183.962,131.90801 C183.962,132.16001 184.102,132.38401 184.438,132.38401 C184.802,132.38401 184.928,132.20201 184.97,131.88001 L185.334,129.27601 Z M184.438,128.35201 L182.772,128.35201 L183.066,126.28001 L184.732,126.28001 L184.438,128.35201 Z M194.168,129.36001 C194.168,128.22601 193.58,127.27401 192.46,126.93801 C193.244,126.46201 193.636,125.65001 193.636,124.82401 C193.636,123.42401 192.642,122.24801 191.046,122.24801 C189.394,122.24801 188.428,123.43801 188.428,124.76801 C188.428,125.09001 188.638,125.34201 188.988,125.34201 C189.198,125.34201 189.534,125.32801 189.576,124.76801 C189.646,124.01201 190.01,123.31201 190.99,123.31201 C191.844,123.31201 192.404,123.98401 192.404,124.93601 C192.404,125.84601 191.998,126.32201 191.004,126.54601 C190.542,126.64401 190.36,126.79801 190.36,127.07801 C190.36,127.40001 190.626,127.61001 191.116,127.61001 C192.04,127.61001 192.852,127.98801 192.852,129.47201 C192.852,130.49401 192.068,131.32001 190.962,131.32001 C190.024,131.32001 189.52,130.76001 189.282,130.04601 C189.142,129.61201 188.96,129.40201 188.596,129.40201 C188.302,129.40201 188.078,129.65401 188.078,130.08801 C188.078,130.83001 188.918,132.38401 190.99,132.38401 C192.768,132.38401 194.168,131.25001 194.168,129.36001 L194.168,129.36001 Z M197.556,131.23601 L200.902,126.78401 C201.546,125.94401 201.588,125.30001 201.588,124.72601 C201.588,123.43801 200.552,122.24801 198.9,122.24801 C196.842,122.24801 195.722,123.71801 195.722,125.37001 C195.722,125.88801 195.932,126.12601 196.324,126.12601 C196.59,126.12601 196.87,126.00001 196.87,125.56601 C196.87,124.32001 197.5,123.31201 198.69,123.31201 C199.586,123.31201 200.272,123.95601 200.272,124.86601 C200.272,125.46801 199.964,126.08401 199.544,126.63001 L196.1,131.23601 C195.89,131.53001 195.834,131.64201 195.834,131.79601 C195.834,132.00601 195.988,132.30001 196.506,132.30001 L201.336,132.30001 C201.63,132.30001 201.868,132.06201 201.868,131.76801 C201.868,131.47401 201.63,131.23601 201.336,131.23601 L197.556,131.23601 Z M209.176,129.36001 C209.176,128.22601 208.588,127.27401 207.468,126.93801 C208.252,126.46201 208.644,125.65001 208.644,124.82401 C208.644,123.42401 207.65,122.24801 206.054,122.24801 C204.402,122.24801 203.436,123.43801 203.436,124.76801 C203.436,125.09001 203.646,125.34201 203.996,125.34201 C204.206,125.34201 204.542,125.32801 204.584,124.76801 C204.654,124.01201 205.018,123.31201 205.998,123.31201 C206.852,123.31201 207.412,123.98401 207.412,124.93601 C207.412,125.84601 207.006,126.32201 206.012,126.54601 C205.55,126.64401 205.368,126.79801 205.368,127.07801 C205.368,127.40001 205.634,127.61001 206.124,127.61001 C207.048,127.61001 207.86,127.98801 207.86,129.47201 C207.86,130.49401 207.076,131.32001 205.97,131.32001 C205.032,131.32001 204.528,130.76001 204.29,130.04601 C204.15,129.61201 203.968,129.40201 203.604,129.40201 C203.31,129.40201 203.086,129.65401 203.086,130.08801 C203.086,130.83001 203.926,132.38401 205.998,132.38401 C207.776,132.38401 209.176,131.25001 209.176,129.36001 L209.176,129.36001 Z M213.796,122.24801 C212.032,122.24801 210.744,123.69001 210.744,125.49601 C210.744,127.23201 211.64,128.77201 213.264,128.77201 C213.936,128.77201 214.384,128.61801 214.846,128.38001 L214.874,128.38001 C214.118,129.76601 213.53,130.43801 212.732,131.15201 C212.382,131.46001 212.242,131.61401 212.242,131.81001 C212.242,132.18801 212.55,132.38401 212.746,132.38401 C212.914,132.38401 213.068,132.31401 213.32,132.10401 C214.832,130.83001 216.792,128.59001 216.792,125.67801 C216.792,123.69001 215.532,122.24801 213.796,122.24801 L213.796,122.24801 Z M215.56,125.55201 C215.56,126.70001 215.028,127.70801 213.81,127.70801 C212.592,127.70801 212.06,126.86801 212.06,125.55201 C212.06,124.39001 212.592,123.39601 213.81,123.39601 C215.028,123.39601 215.56,124.39001 215.56,125.55201 L215.56,125.55201 Z M222.196,129.73801 L222.196,131.72601 C222.196,132.13201 222.434,132.38401 222.812,132.38401 C223.19,132.38401 223.428,132.13201 223.428,131.72601 L223.428,129.73801 L224.058,129.73801 C224.352,129.73801 224.59,129.50001 224.59,129.20601 C224.59,128.91201 224.352,128.67401 224.058,128.67401 L223.428,128.67401 L223.428,123.27001 C223.428,122.54201 223.036,122.24801 222.49,122.24801 C222.056,122.24801 221.776,122.38801 221.524,122.80801 L217.996,128.59001 C217.814,128.88401 217.688,129.12201 217.688,129.30401 C217.688,129.55601 217.8,129.73801 218.22,129.73801 L222.196,129.73801 Z M219.228,128.67401 L222.168,123.56401 L222.196,123.56401 L222.196,128.67401 L219.228,128.67401 Z M227.32,131.72601 C227.32,132.13201 227.558,132.38401 227.936,132.38401 C228.314,132.38401 228.552,132.13201 228.552,131.72601 L228.552,122.66801 C228.552,122.36001 228.412,122.33201 228.174,122.33201 L226.032,122.33201 C225.738,122.33201 225.5,122.57001 225.5,122.86401 C225.5,123.15801 225.738,123.39601 226.032,123.39601 L227.32,123.39601 L227.32,131.72601 Z" id="#323941"></path>
                    <path d="M122.334,129.27601 L123.314,129.27601 C123.636,129.27601 123.888,129.12201 123.888,128.81401 C123.888,128.50601 123.636,128.35201 123.314,128.35201 L122.46,128.35201 L122.754,126.28001 L123.734,126.28001 C124.056,126.28001 124.308,126.14001 124.308,125.81801 C124.308,125.51001 124.056,125.35601 123.734,125.35601 L122.88,125.35601 L123.16,123.31201 C123.202,123.04601 123.23,122.87801 123.23,122.72401 C123.23,122.47201 123.09,122.24801 122.754,122.24801 C122.39,122.24801 122.264,122.43001 122.222,122.75201 L121.858,125.35601 L120.192,125.35601 L120.472,123.31201 C120.514,123.04601 120.542,122.87801 120.542,122.72401 C120.542,122.47201 120.402,122.24801 120.066,122.24801 C119.702,122.24801 119.576,122.43001 119.534,122.75201 L119.17,125.35601 L118.19,125.35601 C117.868,125.35601 117.616,125.51001 117.616,125.81801 C117.616,126.12601 117.868,126.28001 118.19,126.28001 L119.044,126.28001 L118.75,128.35201 L117.77,128.35201 C117.448,128.35201 117.196,128.49201 117.196,128.81401 C117.196,129.12201 117.448,129.27601 117.77,129.27601 L118.624,129.27601 L118.344,131.32001 C118.302,131.58601 118.274,131.75401 118.274,131.90801 C118.274,132.16001 118.414,132.38401 118.75,132.38401 C119.114,132.38401 119.24,132.20201 119.282,131.88001 L119.646,129.27601 L121.312,129.27601 L121.032,131.32001 C120.99,131.58601 120.962,131.75401 120.962,131.90801 C120.962,132.16001 121.102,132.38401 121.438,132.38401 C121.802,132.38401 121.928,132.20201 121.97,131.88001 L122.334,129.27601 Z M121.438,128.35201 L119.772,128.35201 L120.066,126.28001 L121.732,126.28001 L121.438,128.35201 Z M127.052,131.23601 L130.398,126.78401 C131.042,125.94401 131.084,125.30001 131.084,124.72601 C131.084,123.43801 130.048,122.24801 128.396,122.24801 C126.338,122.24801 125.218,123.71801 125.218,125.37001 C125.218,125.88801 125.428,126.12601 125.82,126.12601 C126.086,126.12601 126.366,126.00001 126.366,125.56601 C126.366,124.32001 126.996,123.31201 128.186,123.31201 C129.082,123.31201 129.768,123.95601 129.768,124.86601 C129.768,125.46801 129.46,126.08401 129.04,126.63001 L125.596,131.23601 C125.386,131.53001 125.33,131.64201 125.33,131.79601 C125.33,132.00601 125.484,132.30001 126.002,132.30001 L130.832,132.30001 C131.126,132.30001 131.364,132.06201 131.364,131.76801 C131.364,131.47401 131.126,131.23601 130.832,131.23601 L127.052,131.23601 Z M133.982,128.57601 C133.982,127.31601 134.514,125.83201 136.026,125.83201 C137.538,125.83201 138.07,127.31601 138.07,128.57601 C138.07,129.83601 137.538,131.32001 136.026,131.32001 C134.514,131.32001 133.982,129.83601 133.982,128.57601 L133.982,128.57601 Z M132.876,131.72601 C132.876,132.13201 133.114,132.38401 133.492,132.38401 C133.87,132.38401 134.108,132.13201 134.108,131.72601 L134.108,131.36201 L134.136,131.36201 C134.486,132.03401 135.144,132.38401 136.124,132.38401 C138.14,132.38401 139.302,130.55001 139.302,128.57601 C139.302,126.60201 138.14,124.76801 136.124,124.76801 C135.144,124.76801 134.458,125.31401 134.136,125.77601 L134.108,125.77601 L134.108,122.15001 C134.108,121.74401 133.87,121.49201 133.492,121.49201 C133.114,121.49201 132.876,121.74401 132.876,122.15001 L132.876,131.72601 Z M146.456,129.36001 C146.456,128.22601 145.868,127.27401 144.748,126.93801 C145.532,126.46201 145.924,125.65001 145.924,124.82401 C145.924,123.42401 144.93,122.24801 143.334,122.24801 C141.682,122.24801 140.716,123.43801 140.716,124.76801 C140.716,125.09001 140.926,125.34201 141.276,125.34201 C141.486,125.34201 141.822,125.32801 141.864,124.76801 C141.934,124.01201 142.298,123.31201 143.278,123.31201 C144.132,123.31201 144.692,123.98401 144.692,124.93601 C144.692,125.84601 144.286,126.32201 143.292,126.54601 C142.83,126.64401 142.648,126.79801 142.648,127.07801 C142.648,127.40001 142.914,127.61001 143.404,127.61001 C144.328,127.61001 145.14,127.98801 145.14,129.47201 C145.14,130.49401 144.356,131.32001 143.25,131.32001 C142.312,131.32001 141.808,130.76001 141.57,130.04601 C141.43,129.61201 141.248,129.40201 140.884,129.40201 C140.59,129.40201 140.366,129.65401 140.366,130.08801 C140.366,130.83001 141.206,132.38401 143.278,132.38401 C145.056,132.38401 146.456,131.25001 146.456,129.36001 L146.456,129.36001 Z M148.5,124.53001 C148.5,125.59401 148.906,126.18201 149.802,126.74201 C148.64,127.00801 147.996,128.07201 147.996,129.23401 C147.996,130.85801 149.102,132.38401 151.048,132.38401 C152.994,132.38401 154.1,130.85801 154.1,129.23401 C154.1,128.07201 153.456,127.00801 152.294,126.74201 C153.19,126.18201 153.596,125.59401 153.596,124.53001 C153.596,123.00401 152.308,122.24801 151.048,122.24801 C149.788,122.24801 148.5,123.00401 148.5,124.53001 L148.5,124.53001 Z M149.648,124.76801 C149.648,123.92801 150.166,123.31201 151.048,123.31201 C151.93,123.31201 152.448,123.92801 152.448,124.76801 C152.448,125.62201 151.93,126.23801 151.048,126.23801 C150.166,126.23801 149.648,125.62201 149.648,124.76801 L149.648,124.76801 Z M149.312,129.29001 C149.312,128.26801 149.9,127.30201 151.048,127.30201 C152.196,127.30201 152.784,128.26801 152.784,129.29001 C152.784,130.57801 151.972,131.32001 151.048,131.32001 C150.124,131.32001 149.312,130.57801 149.312,129.29001 L149.312,129.29001 Z M159.476,129.73801 L159.476,131.72601 C159.476,132.13201 159.714,132.38401 160.092,132.38401 C160.47,132.38401 160.708,132.13201 160.708,131.72601 L160.708,129.73801 L161.338,129.73801 C161.632,129.73801 161.87,129.50001 161.87,129.20601 C161.87,128.91201 161.632,128.67401 161.338,128.67401 L160.708,128.67401 L160.708,123.27001 C160.708,122.54201 160.316,122.24801 159.77,122.24801 C159.336,122.24801 159.056,122.38801 158.804,122.80801 L155.276,128.59001 C155.094,128.88401 154.968,129.12201 154.968,129.30401 C154.968,129.55601 155.08,129.73801 155.5,129.73801 L159.476,129.73801 Z M156.508,128.67401 L159.448,123.56401 L159.476,123.56401 L159.476,128.67401 L156.508,128.67401 Z M164.278,128.57601 C164.278,127.31601 164.81,125.83201 166.322,125.83201 C167.834,125.83201 168.366,127.31601 168.366,128.57601 C168.366,129.83601 167.834,131.32001 166.322,131.32001 C164.81,131.32001 164.278,129.83601 164.278,128.57601 L164.278,128.57601 Z M163.172,131.72601 C163.172,132.13201 163.41,132.38401 163.788,132.38401 C164.166,132.38401 164.404,132.13201 164.404,131.72601 L164.404,131.36201 L164.432,131.36201 C164.782,132.03401 165.44,132.38401 166.42,132.38401 C168.436,132.38401 169.598,130.55001 169.598,128.57601 C169.598,126.60201 168.436,124.76801 166.42,124.76801 C165.44,124.76801 164.754,125.31401 164.432,125.77601 L164.404,125.77601 L164.404,122.15001 C164.404,121.74401 164.166,121.49201 163.788,121.49201 C163.41,121.49201 163.172,121.74401 163.172,122.15001 L163.172,131.72601 Z" id="#2B384B"></path>
                    <path d="M61.334,129.27601 L62.314,129.27601 C62.636,129.27601 62.888,129.12201 62.888,128.81401 C62.888,128.50601 62.636,128.35201 62.314,128.35201 L61.46,128.35201 L61.754,126.28001 L62.734,126.28001 C63.056,126.28001 63.308,126.14001 63.308,125.81801 C63.308,125.51001 63.056,125.35601 62.734,125.35601 L61.88,125.35601 L62.16,123.31201 C62.202,123.04601 62.23,122.87801 62.23,122.72401 C62.23,122.47201 62.09,122.24801 61.754,122.24801 C61.39,122.24801 61.264,122.43001 61.222,122.75201 L60.858,125.35601 L59.192,125.35601 L59.472,123.31201 C59.514,123.04601 59.542,122.87801 59.542,122.72401 C59.542,122.47201 59.402,122.24801 59.066,122.24801 C58.702,122.24801 58.576,122.43001 58.534,122.75201 L58.17,125.35601 L57.19,125.35601 C56.868,125.35601 56.616,125.51001 56.616,125.81801 C56.616,126.12601 56.868,126.28001 57.19,126.28001 L58.044,126.28001 L57.75,128.35201 L56.77,128.35201 C56.448,128.35201 56.196,128.49201 56.196,128.81401 C56.196,129.12201 56.448,129.27601 56.77,129.27601 L57.624,129.27601 L57.344,131.32001 C57.302,131.58601 57.274,131.75401 57.274,131.90801 C57.274,132.16001 57.414,132.38401 57.75,132.38401 C58.114,132.38401 58.24,132.20201 58.282,131.88001 L58.646,129.27601 L60.312,129.27601 L60.032,131.32001 C59.99,131.58601 59.962,131.75401 59.962,131.90801 C59.962,132.16001 60.102,132.38401 60.438,132.38401 C60.802,132.38401 60.928,132.20201 60.97,131.88001 L61.334,129.27601 Z M60.438,128.35201 L58.772,128.35201 L59.066,126.28001 L60.732,126.28001 L60.438,128.35201 Z M66.052,131.23601 L69.398,126.78401 C70.042,125.94401 70.084,125.30001 70.084,124.72601 C70.084,123.43801 69.048,122.24801 67.396,122.24801 C65.338,122.24801 64.218,123.71801 64.218,125.37001 C64.218,125.88801 64.428,126.12601 64.82,126.12601 C65.086,126.12601 65.366,126.00001 65.366,125.56601 C65.366,124.32001 65.996,123.31201 67.186,123.31201 C68.082,123.31201 68.768,123.95601 68.768,124.86601 C68.768,125.46801 68.46,126.08401 68.04,126.63001 L64.596,131.23601 C64.386,131.53001 64.33,131.64201 64.33,131.79601 C64.33,132.00601 64.484,132.30001 65.002,132.30001 L69.832,132.30001 C70.126,132.30001 70.364,132.06201 70.364,131.76801 C70.364,131.47401 70.126,131.23601 69.832,131.23601 L66.052,131.23601 Z M75.684,129.73801 L75.684,131.72601 C75.684,132.13201 75.922,132.38401 76.3,132.38401 C76.678,132.38401 76.916,132.13201 76.916,131.72601 L76.916,129.73801 L77.546,129.73801 C77.84,129.73801 78.078,129.50001 78.078,129.20601 C78.078,128.91201 77.84,128.67401 77.546,128.67401 L76.916,128.67401 L76.916,123.27001 C76.916,122.54201 76.524,122.24801 75.978,122.24801 C75.544,122.24801 75.264,122.38801 75.012,122.80801 L71.484,128.59001 C71.302,128.88401 71.176,129.12201 71.176,129.30401 C71.176,129.55601 71.288,129.73801 71.708,129.73801 L75.684,129.73801 Z M72.716,128.67401 L75.656,123.56401 L75.684,123.56401 L75.684,128.67401 L72.716,128.67401 Z M85.176,129.36001 C85.176,128.22601 84.588,127.27401 83.468,126.93801 C84.252,126.46201 84.644,125.65001 84.644,124.82401 C84.644,123.42401 83.65,122.24801 82.054,122.24801 C80.402,122.24801 79.436,123.43801 79.436,124.76801 C79.436,125.09001 79.646,125.34201 79.996,125.34201 C80.206,125.34201 80.542,125.32801 80.584,124.76801 C80.654,124.01201 81.018,123.31201 81.998,123.31201 C82.852,123.31201 83.412,123.98401 83.412,124.93601 C83.412,125.84601 83.006,126.32201 82.012,126.54601 C81.55,126.64401 81.368,126.79801 81.368,127.07801 C81.368,127.40001 81.634,127.61001 82.124,127.61001 C83.048,127.61001 83.86,127.98801 83.86,129.47201 C83.86,130.49401 83.076,131.32001 81.97,131.32001 C81.032,131.32001 80.528,130.76001 80.29,130.04601 C80.15,129.61201 79.968,129.40201 79.604,129.40201 C79.31,129.40201 79.086,129.65401 79.086,130.08801 C79.086,130.83001 79.926,132.38401 81.998,132.38401 C83.776,132.38401 85.176,131.25001 85.176,129.36001 L85.176,129.36001 Z M91.14,123.39601 L91.14,123.42401 L87.654,131.25001 C87.5,131.61401 87.458,131.81001 87.458,131.90801 C87.458,132.23001 87.752,132.38401 87.92,132.38401 C88.186,132.38401 88.494,132.32801 88.662,131.93601 L92.386,123.46601 C92.54,123.11601 92.624,122.92001 92.624,122.72401 C92.624,122.43001 92.372,122.33201 91.994,122.33201 L86.94,122.33201 C86.646,122.33201 86.408,122.57001 86.408,122.86401 C86.408,123.15801 86.646,123.39601 86.94,123.39601 L91.14,123.39601 Z M96.208,123.39601 L99.05,123.39601 C99.344,123.39601 99.582,123.15801 99.582,122.86401 C99.582,122.57001 99.344,122.33201 99.05,122.33201 L95.592,122.33201 C95.298,122.33201 95.172,122.40201 95.13,122.65401 L94.612,126.14001 C94.57,126.44801 94.514,126.81201 94.514,126.96601 C94.514,127.16201 94.64,127.34401 94.934,127.34401 C95.284,127.34401 95.718,126.96601 96.628,126.96601 C97.832,126.96601 98.35,127.90401 98.35,129.08001 C98.35,130.24201 97.636,131.23601 96.446,131.23601 C95.032,131.23601 94.584,130.20001 94.08,130.20001 C93.772,130.20001 93.632,130.48001 93.632,130.73201 C93.632,131.33401 94.78,132.38401 96.432,132.38401 C98.448,132.38401 99.666,130.98401 99.666,128.84201 C99.666,127.28801 98.672,125.81801 97.118,125.81801 C96.656,125.81801 96.208,125.88801 95.802,126.09801 L96.208,123.39601 Z M104.244,132.38401 C106.008,132.38401 107.296,130.94201 107.296,129.13601 C107.296,127.40001 106.4,125.86001 104.776,125.86001 C104.104,125.86001 103.656,126.01401 103.194,126.25201 L103.166,126.25201 C103.922,124.86601 104.51,124.19401 105.308,123.48001 C105.658,123.17201 105.798,123.01801 105.798,122.82201 C105.798,122.44401 105.49,122.24801 105.294,122.24801 C105.126,122.24801 104.972,122.31801 104.72,122.52801 C103.208,123.80201 101.248,126.04201 101.248,128.95401 C101.248,130.94201 102.508,132.38401 104.244,132.38401 L104.244,132.38401 Z M102.48,129.08001 C102.48,127.93201 103.012,126.92401 104.23,126.92401 C105.448,126.92401 105.98,127.76401 105.98,129.08001 C105.98,130.24201 105.448,131.23601 104.23,131.23601 C103.012,131.23601 102.48,130.24201 102.48,129.08001 L102.48,129.08001 Z" id="#243756"></path>
                    <path d="M8.334,129.27601 L9.314,129.27601 C9.636,129.27601 9.888,129.12201 9.888,128.81401 C9.888,128.50601 9.636,128.35201 9.314,128.35201 L8.46,128.35201 L8.754,126.28001 L9.734,126.28001 C10.056,126.28001 10.308,126.14001 10.308,125.81801 C10.308,125.51001 10.056,125.35601 9.734,125.35601 L8.88,125.35601 L9.16,123.31201 C9.202,123.04601 9.23,122.87801 9.23,122.72401 C9.23,122.47201 9.09,122.24801 8.754,122.24801 C8.39,122.24801 8.264,122.43001 8.222,122.75201 L7.858,125.35601 L6.192,125.35601 L6.472,123.31201 C6.514,123.04601 6.542,122.87801 6.542,122.72401 C6.542,122.47201 6.402,122.24801 6.066,122.24801 C5.702,122.24801 5.576,122.43001 5.534,122.75201 L5.17,125.35601 L4.19,125.35601 C3.868,125.35601 3.616,125.51001 3.616,125.81801 C3.616,126.12601 3.868,126.28001 4.19,126.28001 L5.044,126.28001 L4.75,128.35201 L3.77,128.35201 C3.448,128.35201 3.196,128.49201 3.196,128.81401 C3.196,129.12201 3.448,129.27601 3.77,129.27601 L4.624,129.27601 L4.344,131.32001 C4.302,131.58601 4.274,131.75401 4.274,131.90801 C4.274,132.16001 4.414,132.38401 4.75,132.38401 C5.114,132.38401 5.24,132.20201 5.282,131.88001 L5.646,129.27601 L7.312,129.27601 L7.032,131.32001 C6.99,131.58601 6.962,131.75401 6.962,131.90801 C6.962,132.16001 7.102,132.38401 7.438,132.38401 C7.802,132.38401 7.928,132.20201 7.97,131.88001 L8.334,129.27601 Z M7.438,128.35201 L5.772,128.35201 L6.066,126.28001 L7.732,126.28001 L7.438,128.35201 Z M12.8,131.72601 C12.8,132.13201 13.038,132.38401 13.416,132.38401 C13.794,132.38401 14.032,132.13201 14.032,131.72601 L14.032,122.66801 C14.032,122.36001 13.892,122.33201 13.654,122.33201 L11.512,122.33201 C11.218,122.33201 10.98,122.57001 10.98,122.86401 C10.98,123.15801 11.218,123.39601 11.512,123.39601 L12.8,123.39601 L12.8,131.72601 Z M21.662,129.05201 C22.194,129.05201 22.348,128.82801 22.348,128.39401 C22.348,126.60201 21.172,124.76801 19.142,124.76801 C17.056,124.76801 15.796,126.56001 15.796,128.57601 C15.796,130.55001 16.832,132.38401 19.212,132.38401 C20.668,132.38401 22.194,131.46001 22.194,130.85801 C22.194,130.50801 21.97,130.31201 21.746,130.31201 C21.284,130.31201 20.864,131.32001 19.226,131.32001 C17.84,131.32001 17.028,130.32601 17.028,129.05201 L21.662,129.05201 Z M17.028,128.12801 C17.07,126.99401 17.616,125.77601 19.142,125.83201 C20.5,125.83201 21.116,127.06401 21.116,128.12801 L17.028,128.12801 Z M29.376,129.36001 C29.376,128.22601 28.788,127.27401 27.668,126.93801 C28.452,126.46201 28.844,125.65001 28.844,124.82401 C28.844,123.42401 27.85,122.24801 26.254,122.24801 C24.602,122.24801 23.636,123.43801 23.636,124.76801 C23.636,125.09001 23.846,125.34201 24.196,125.34201 C24.406,125.34201 24.742,125.32801 24.784,124.76801 C24.854,124.01201 25.218,123.31201 26.198,123.31201 C27.052,123.31201 27.612,123.98401 27.612,124.93601 C27.612,125.84601 27.206,126.32201 26.212,126.54601 C25.75,126.64401 25.568,126.79801 25.568,127.07801 C25.568,127.40001 25.834,127.61001 26.324,127.61001 C27.248,127.61001 28.06,127.98801 28.06,129.47201 C28.06,130.49401 27.276,131.32001 26.17,131.32001 C25.232,131.32001 24.728,130.76001 24.49,130.04601 C24.35,129.61201 24.168,129.40201 23.804,129.40201 C23.51,129.40201 23.286,129.65401 23.286,130.08801 C23.286,130.83001 24.126,132.38401 26.198,132.38401 C27.976,132.38401 29.376,131.25001 29.376,129.36001 L29.376,129.36001 Z M33.94,132.38401 C35.704,132.38401 36.992,130.94201 36.992,129.13601 C36.992,127.40001 36.096,125.86001 34.472,125.86001 C33.8,125.86001 33.352,126.01401 32.89,126.25201 L32.862,126.25201 C33.618,124.86601 34.206,124.19401 35.004,123.48001 C35.354,123.17201 35.494,123.01801 35.494,122.82201 C35.494,122.44401 35.186,122.24801 34.99,122.24801 C34.822,122.24801 34.668,122.31801 34.416,122.52801 C32.904,123.80201 30.944,126.04201 30.944,128.95401 C30.944,130.94201 32.204,132.38401 33.94,132.38401 L33.94,132.38401 Z M32.176,129.08001 C32.176,127.93201 32.708,126.92401 33.926,126.92401 C35.144,126.92401 35.676,127.76401 35.676,129.08001 C35.676,130.24201 35.144,131.23601 33.926,131.23601 C32.708,131.23601 32.176,130.24201 32.176,129.08001 L32.176,129.08001 Z M40.912,123.39601 L43.754,123.39601 C44.048,123.39601 44.286,123.15801 44.286,122.86401 C44.286,122.57001 44.048,122.33201 43.754,122.33201 L40.296,122.33201 C40.002,122.33201 39.876,122.40201 39.834,122.65401 L39.316,126.14001 C39.274,126.44801 39.218,126.81201 39.218,126.96601 C39.218,127.16201 39.344,127.34401 39.638,127.34401 C39.988,127.34401 40.422,126.96601 41.332,126.96601 C42.536,126.96601 43.054,127.90401 43.054,129.08001 C43.054,130.24201 42.34,131.23601 41.15,131.23601 C39.736,131.23601 39.288,130.20001 38.784,130.20001 C38.476,130.20001 38.336,130.48001 38.336,130.73201 C38.336,131.33401 39.484,132.38401 41.136,132.38401 C43.152,132.38401 44.37,130.98401 44.37,128.84201 C44.37,127.28801 43.376,125.81801 41.822,125.81801 C41.36,125.81801 40.912,125.88801 40.506,126.09801 L40.912,123.39601 Z M47.66,125.91601 L48.43,125.91601 C48.836,125.91601 49.046,125.72001 49.046,125.38401 C49.046,125.04801 48.836,124.85201 48.43,124.85201 L47.66,124.85201 L47.66,123.04601 C47.66,122.73801 47.786,122.55601 48.164,122.55601 L48.472,122.55601 C48.934,122.55601 49.144,122.36001 49.144,122.02401 C49.144,121.68801 48.766,121.49201 48.444,121.49201 L48.066,121.49201 C47.17,121.49201 46.428,122.02401 46.428,123.10201 L46.428,124.85201 L45.924,124.85201 C45.518,124.85201 45.308,125.04801 45.308,125.38401 C45.308,125.72001 45.518,125.91601 45.924,125.91601 L46.428,125.91601 L46.428,131.72601 C46.428,132.13201 46.666,132.38401 47.044,132.38401 C47.422,132.38401 47.66,132.13201 47.66,131.72601 L47.66,125.91601 Z" id="#1E365F"></path>
                    <path d="M67.334,8.27600973 L68.314,8.27600973 C68.636,8.27600973 68.888,8.12200973 68.888,7.81400973 C68.888,7.50600973 68.636,7.35200973 68.314,7.35200973 L67.46,7.35200973 L67.754,5.28000973 L68.734,5.28000973 C69.056,5.28000973 69.308,5.14000973 69.308,4.81800973 C69.308,4.51000973 69.056,4.35600973 68.734,4.35600973 L67.88,4.35600973 L68.16,2.31200973 C68.202,2.04600973 68.23,1.87800973 68.23,1.72400973 C68.23,1.47200973 68.09,1.24800973 67.754,1.24800973 C67.39,1.24800973 67.264,1.43000973 67.222,1.75200973 L66.858,4.35600973 L65.192,4.35600973 L65.472,2.31200973 C65.514,2.04600973 65.542,1.87800973 65.542,1.72400973 C65.542,1.47200973 65.402,1.24800973 65.066,1.24800973 C64.702,1.24800973 64.576,1.43000973 64.534,1.75200973 L64.17,4.35600973 L63.19,4.35600973 C62.868,4.35600973 62.616,4.51000973 62.616,4.81800973 C62.616,5.12600973 62.868,5.28000973 63.19,5.28000973 L64.044,5.28000973 L63.75,7.35200973 L62.77,7.35200973 C62.448,7.35200973 62.196,7.49200973 62.196,7.81400973 C62.196,8.12200973 62.448,8.27600973 62.77,8.27600973 L63.624,8.27600973 L63.344,10.3200097 C63.302,10.5860097 63.274,10.7540097 63.274,10.9080097 C63.274,11.1600097 63.414,11.3840097 63.75,11.3840097 C64.114,11.3840097 64.24,11.2020097 64.282,10.8800097 L64.646,8.27600973 L66.312,8.27600973 L66.032,10.3200097 C65.99,10.5860097 65.962,10.7540097 65.962,10.9080097 C65.962,11.1600097 66.102,11.3840097 66.438,11.3840097 C66.802,11.3840097 66.928,11.2020097 66.97,10.8800097 L67.334,8.27600973 Z M66.438,7.35200973 L64.772,7.35200973 L65.066,5.28000973 L66.732,5.28000973 L66.438,7.35200973 Z M72.696,2.39600973 L75.538,2.39600973 C75.832,2.39600973 76.07,2.15800973 76.07,1.86400973 C76.07,1.57000973 75.832,1.33200973 75.538,1.33200973 L72.08,1.33200973 C71.786,1.33200973 71.66,1.40200973 71.618,1.65400973 L71.1,5.14000973 C71.058,5.44800973 71.002,5.81200973 71.002,5.96600973 C71.002,6.16200973 71.128,6.34400973 71.422,6.34400973 C71.772,6.34400973 72.206,5.96600973 73.116,5.96600973 C74.32,5.96600973 74.838,6.90400973 74.838,8.08000973 C74.838,9.24200973 74.124,10.2360097 72.934,10.2360097 C71.52,10.2360097 71.072,9.20000973 70.568,9.20000973 C70.26,9.20000973 70.12,9.48000973 70.12,9.73200973 C70.12,10.3340097 71.268,11.3840097 72.92,11.3840097 C74.936,11.3840097 76.154,9.98400973 76.154,7.84200973 C76.154,6.28800973 75.16,4.81800973 73.606,4.81800973 C73.144,4.81800973 72.696,4.88800973 72.29,5.09800973 L72.696,2.39600973 Z M80.732,11.3840097 C82.496,11.3840097 83.784,9.94200973 83.784,8.13600973 C83.784,6.40000973 82.888,4.86000973 81.264,4.86000973 C80.592,4.86000973 80.144,5.01400973 79.682,5.25200973 L79.654,5.25200973 C80.41,3.86600973 80.998,3.19400973 81.796,2.48000973 C82.146,2.17200973 82.286,2.01800973 82.286,1.82200973 C82.286,1.44400973 81.978,1.24800973 81.782,1.24800973 C81.614,1.24800973 81.46,1.31800973 81.208,1.52800973 C79.696,2.80200973 77.736,5.04200973 77.736,7.95400973 C77.736,9.94200973 78.996,11.3840097 80.732,11.3840097 L80.732,11.3840097 Z M78.968,8.08000973 C78.968,6.93200973 79.5,5.92400973 80.718,5.92400973 C81.936,5.92400973 82.468,6.76400973 82.468,8.08000973 C82.468,9.24200973 81.936,10.2360097 80.718,10.2360097 C79.5,10.2360097 78.968,9.24200973 78.968,8.08000973 L78.968,8.08000973 Z M88.236,11.3840097 C90,11.3840097 91.288,9.94200973 91.288,8.13600973 C91.288,6.40000973 90.392,4.86000973 88.768,4.86000973 C88.096,4.86000973 87.648,5.01400973 87.186,5.25200973 L87.158,5.25200973 C87.914,3.86600973 88.502,3.19400973 89.3,2.48000973 C89.65,2.17200973 89.79,2.01800973 89.79,1.82200973 C89.79,1.44400973 89.482,1.24800973 89.286,1.24800973 C89.118,1.24800973 88.964,1.31800973 88.712,1.52800973 C87.2,2.80200973 85.24,5.04200973 85.24,7.95400973 C85.24,9.94200973 86.5,11.3840097 88.236,11.3840097 L88.236,11.3840097 Z M86.472,8.08000973 C86.472,6.93200973 87.004,5.92400973 88.222,5.92400973 C89.44,5.92400973 89.972,6.76400973 89.972,8.08000973 C89.972,9.24200973 89.44,10.2360097 88.222,10.2360097 C87.004,10.2360097 86.472,9.24200973 86.472,8.08000973 L86.472,8.08000973 Z M95.796,1.24800973 C94.032,1.24800973 92.744,2.69000973 92.744,4.49600973 C92.744,6.23200973 93.64,7.77200973 95.264,7.77200973 C95.936,7.77200973 96.384,7.61800973 96.846,7.38000973 L96.874,7.38000973 C96.118,8.76600973 95.53,9.43800973 94.732,10.1520097 C94.382,10.4600097 94.242,10.6140097 94.242,10.8100097 C94.242,11.1880097 94.55,11.3840097 94.746,11.3840097 C94.914,11.3840097 95.068,11.3140097 95.32,11.1040097 C96.832,9.83000973 98.792,7.59000973 98.792,4.67800973 C98.792,2.69000973 97.532,1.24800973 95.796,1.24800973 L95.796,1.24800973 Z M97.56,4.55200973 C97.56,5.70000973 97.028,6.70800973 95.81,6.70800973 C94.592,6.70800973 94.06,5.86800973 94.06,4.55200973 C94.06,3.39000973 94.592,2.39600973 95.81,2.39600973 C97.028,2.39600973 97.56,3.39000973 97.56,4.55200973 L97.56,4.55200973 Z M100.724,3.53000973 C100.724,4.59400973 101.13,5.18200973 102.026,5.74200973 C100.864,6.00800973 100.22,7.07200973 100.22,8.23400973 C100.22,9.85800973 101.326,11.3840097 103.272,11.3840097 C105.218,11.3840097 106.324,9.85800973 106.324,8.23400973 C106.324,7.07200973 105.68,6.00800973 104.518,5.74200973 C105.414,5.18200973 105.82,4.59400973 105.82,3.53000973 C105.82,2.00400973 104.532,1.24800973 103.272,1.24800973 C102.012,1.24800973 100.724,2.00400973 100.724,3.53000973 L100.724,3.53000973 Z M101.872,3.76800973 C101.872,2.92800973 102.39,2.31200973 103.272,2.31200973 C104.154,2.31200973 104.672,2.92800973 104.672,3.76800973 C104.672,4.62200973 104.154,5.23800973 103.272,5.23800973 C102.39,5.23800973 101.872,4.62200973 101.872,3.76800973 L101.872,3.76800973 Z M101.536,8.29000973 C101.536,7.26800973 102.124,6.30200973 103.272,6.30200973 C104.42,6.30200973 105.008,7.26800973 105.008,8.29000973 C105.008,9.57800973 104.196,10.3200097 103.272,10.3200097 C102.348,10.3200097 101.536,9.57800973 101.536,8.29000973 L101.536,8.29000973 Z M110.804,1.24800973 C109.04,1.24800973 107.752,2.69000973 107.752,4.49600973 C107.752,6.23200973 108.648,7.77200973 110.272,7.77200973 C110.944,7.77200973 111.392,7.61800973 111.854,7.38000973 L111.882,7.38000973 C111.126,8.76600973 110.538,9.43800973 109.74,10.1520097 C109.39,10.4600097 109.25,10.6140097 109.25,10.8100097 C109.25,11.1880097 109.558,11.3840097 109.754,11.3840097 C109.922,11.3840097 110.076,11.3140097 110.328,11.1040097 C111.84,9.83000973 113.8,7.59000973 113.8,4.67800973 C113.8,2.69000973 112.54,1.24800973 110.804,1.24800973 L110.804,1.24800973 Z M112.568,4.55200973 C112.568,5.70000973 112.036,6.70800973 110.818,6.70800973 C109.6,6.70800973 109.068,5.86800973 109.068,4.55200973 C109.068,3.39000973 109.6,2.39600973 110.818,2.39600973 C112.036,2.39600973 112.568,3.39000973 112.568,4.55200973 L112.568,4.55200973 Z" id="#566989"></path>
                    <path d="M5.334,8.27600973 L6.314,8.27600973 C6.636,8.27600973 6.888,8.12200973 6.888,7.81400973 C6.888,7.50600973 6.636,7.35200973 6.314,7.35200973 L5.46,7.35200973 L5.754,5.28000973 L6.734,5.28000973 C7.056,5.28000973 7.308,5.14000973 7.308,4.81800973 C7.308,4.51000973 7.056,4.35600973 6.734,4.35600973 L5.88,4.35600973 L6.16,2.31200973 C6.202,2.04600973 6.23,1.87800973 6.23,1.72400973 C6.23,1.47200973 6.09,1.24800973 5.754,1.24800973 C5.39,1.24800973 5.264,1.43000973 5.222,1.75200973 L4.858,4.35600973 L3.192,4.35600973 L3.472,2.31200973 C3.514,2.04600973 3.542,1.87800973 3.542,1.72400973 C3.542,1.47200973 3.402,1.24800973 3.066,1.24800973 C2.702,1.24800973 2.576,1.43000973 2.534,1.75200973 L2.17,4.35600973 L1.19,4.35600973 C0.868,4.35600973 0.616,4.51000973 0.616,4.81800973 C0.616,5.12600973 0.868,5.28000973 1.19,5.28000973 L2.044,5.28000973 L1.75,7.35200973 L0.77,7.35200973 C0.448,7.35200973 0.196,7.49200973 0.196,7.81400973 C0.196,8.12200973 0.448,8.27600973 0.77,8.27600973 L1.624,8.27600973 L1.344,10.3200097 C1.302,10.5860097 1.274,10.7540097 1.274,10.9080097 C1.274,11.1600097 1.414,11.3840097 1.75,11.3840097 C2.114,11.3840097 2.24,11.2020097 2.282,10.8800097 L2.646,8.27600973 L4.312,8.27600973 L4.032,10.3200097 C3.99,10.5860097 3.962,10.7540097 3.962,10.9080097 C3.962,11.1600097 4.102,11.3840097 4.438,11.3840097 C4.802,11.3840097 4.928,11.2020097 4.97,10.8800097 L5.334,8.27600973 Z M4.438,7.35200973 L2.772,7.35200973 L3.066,5.28000973 L4.732,5.28000973 L4.438,7.35200973 Z M9.8,10.7260097 C9.8,11.1320097 10.038,11.3840097 10.416,11.3840097 C10.794,11.3840097 11.032,11.1320097 11.032,10.7260097 L11.032,1.66800973 C11.032,1.36000973 10.892,1.33200973 10.654,1.33200973 L8.512,1.33200973 C8.218,1.33200973 7.98,1.57000973 7.98,1.86400973 C7.98,2.15800973 8.218,2.39600973 8.512,2.39600973 L9.8,2.39600973 L9.8,10.7260097 Z M18.242,7.57600973 C18.242,8.83600973 17.71,10.3200097 16.198,10.3200097 C14.686,10.3200097 14.154,8.83600973 14.154,7.57600973 C14.154,6.31600973 14.686,4.83200973 16.198,4.83200973 C17.71,4.83200973 18.242,6.31600973 18.242,7.57600973 L18.242,7.57600973 Z M18.116,10.7260097 C18.116,11.1320097 18.354,11.3840097 18.732,11.3840097 C19.11,11.3840097 19.348,11.1320097 19.348,10.7260097 L19.348,1.15000973 C19.348,0.744009727 19.11,0.492009727 18.732,0.492009727 C18.354,0.492009727 18.116,0.744009727 18.116,1.15000973 L18.116,4.77600973 L18.088,4.77600973 C17.766,4.31400973 17.08,3.76800973 16.1,3.76800973 C14.084,3.76800973 12.922,5.60200973 12.922,7.57600973 C12.922,9.55000973 14.084,11.3840097 16.1,11.3840097 C17.08,11.3840097 17.738,11.0340097 18.088,10.3620097 L18.116,10.3620097 L18.116,10.7260097 Z M26.88,8.36000973 C26.88,7.22600973 26.292,6.27400973 25.172,5.93800973 C25.956,5.46200973 26.348,4.65000973 26.348,3.82400973 C26.348,2.42400973 25.354,1.24800973 23.758,1.24800973 C22.106,1.24800973 21.14,2.43800973 21.14,3.76800973 C21.14,4.09000973 21.35,4.34200973 21.7,4.34200973 C21.91,4.34200973 22.246,4.32800973 22.288,3.76800973 C22.358,3.01200973 22.722,2.31200973 23.702,2.31200973 C24.556,2.31200973 25.116,2.98400973 25.116,3.93600973 C25.116,4.84600973 24.71,5.32200973 23.716,5.54600973 C23.254,5.64400973 23.072,5.79800973 23.072,6.07800973 C23.072,6.40000973 23.338,6.61000973 23.828,6.61000973 C24.752,6.61000973 25.564,6.98800973 25.564,8.47200973 C25.564,9.49400973 24.78,10.3200097 23.674,10.3200097 C22.736,10.3200097 22.232,9.76000973 21.994,9.04600973 C21.854,8.61200973 21.672,8.40200973 21.308,8.40200973 C21.014,8.40200973 20.79,8.65400973 20.79,9.08800973 C20.79,9.83000973 21.63,11.3840097 23.702,11.3840097 C25.48,11.3840097 26.88,10.2500097 26.88,8.36000973 L26.88,8.36000973 Z M31.444,11.3840097 C33.208,11.3840097 34.496,9.94200973 34.496,8.13600973 C34.496,6.40000973 33.6,4.86000973 31.976,4.86000973 C31.304,4.86000973 30.856,5.01400973 30.394,5.25200973 L30.366,5.25200973 C31.122,3.86600973 31.71,3.19400973 32.508,2.48000973 C32.858,2.17200973 32.998,2.01800973 32.998,1.82200973 C32.998,1.44400973 32.69,1.24800973 32.494,1.24800973 C32.326,1.24800973 32.172,1.31800973 31.92,1.52800973 C30.408,2.80200973 28.448,5.04200973 28.448,7.95400973 C28.448,9.94200973 29.708,11.3840097 31.444,11.3840097 L31.444,11.3840097 Z M29.68,8.08000973 C29.68,6.93200973 30.212,5.92400973 31.43,5.92400973 C32.648,5.92400973 33.18,6.76400973 33.18,8.08000973 C33.18,9.24200973 32.648,10.2360097 31.43,10.2360097 C30.212,10.2360097 29.68,9.24200973 29.68,8.08000973 L29.68,8.08000973 Z M38.948,11.3840097 C40.712,11.3840097 42,9.94200973 42,8.13600973 C42,6.40000973 41.104,4.86000973 39.48,4.86000973 C38.808,4.86000973 38.36,5.01400973 37.898,5.25200973 L37.87,5.25200973 C38.626,3.86600973 39.214,3.19400973 40.012,2.48000973 C40.362,2.17200973 40.502,2.01800973 40.502,1.82200973 C40.502,1.44400973 40.194,1.24800973 39.998,1.24800973 C39.83,1.24800973 39.676,1.31800973 39.424,1.52800973 C37.912,2.80200973 35.952,5.04200973 35.952,7.95400973 C35.952,9.94200973 37.212,11.3840097 38.948,11.3840097 L38.948,11.3840097 Z M37.184,8.08000973 C37.184,6.93200973 37.716,5.92400973 38.934,5.92400973 C40.152,5.92400973 40.684,6.76400973 40.684,8.08000973 C40.684,9.24200973 40.152,10.2360097 38.934,10.2360097 C37.716,10.2360097 37.184,9.24200973 37.184,8.08000973 L37.184,8.08000973 Z M45.024,10.7260097 C45.024,11.1320097 45.262,11.3840097 45.64,11.3840097 C46.018,11.3840097 46.256,11.1320097 46.256,10.7260097 L46.256,1.66800973 C46.256,1.36000973 46.116,1.33200973 45.878,1.33200973 L43.736,1.33200973 C43.442,1.33200973 43.204,1.57000973 43.204,1.86400973 C43.204,2.15800973 43.442,2.39600973 43.736,2.39600973 L45.024,2.39600973 L45.024,10.7260097 Z" id="#1D3661"></path>
                </g>
            </g>
        </g>
    </g>
</svg>