<?xml version="1.0" encoding="UTF-8" standalone="no"?>
<svg width="290px" height="193px" viewBox="0 0 290 193" version="1.1" xmlns="http://www.w3.org/2000/svg" xmlns:xlink="http://www.w3.org/1999/xlink">
    <!-- Generator: Sketch 39.1 (31720) - http://www.bohemiancoding.com/sketch -->
    <title>accessibility-charcoal-lime-hex</title>
    <desc>Created with Sketch.</desc>
    <defs>
        <rect id="path-1" x="240" y="23" width="50" height="50" rx="25"></rect>
        <mask id="mask-2" maskContentUnits="userSpaceOnUse" maskUnits="objectBoundingBox" x="0" y="0" width="50" height="50" fill="white">
            <use xlink:href="#path-1"></use>
        </mask>
    </defs>
    <g id="Templates" stroke="none" stroke-width="1" fill="none" fill-rule="evenodd">
        <g id="25-colour-accessibility" transform="translate(-1075.000000, -3121.000000)">
            <g id="accessibility-charcoal-lime-hex" transform="translate(1075.000000, 3121.000000)">
                <rect id="colours-use-2-copy-70" fill="#86AC1B" transform="translate(25.000000, 48.000000) rotate(-90.000000) translate(-25.000000, -48.000000) " x="0" y="23" width="50" height="50" rx="25"></rect>
                <rect id="colours-use-2-copy-61" fill="#A5C155" transform="translate(85.000000, 48.000000) rotate(-90.000000) translate(-85.000000, -48.000000) " x="60" y="23" width="50" height="50" rx="25"></rect>
                <rect id="colours-use-2-copy-62" fill="#C3D68D" transform="translate(145.000000, 48.000000) rotate(-90.000000) translate(-145.000000, -48.000000) " x="120" y="23" width="50" height="50" rx="25"></rect>
                <rect id="colours-use-2-copy-63" fill="#E1EBC6" transform="translate(205.000000, 48.000000) rotate(-90.000000) translate(-205.000000, -48.000000) " x="180" y="23" width="50" height="50" rx="25"></rect>
                <use id="colours-use-2-copy-64" stroke="#E1EBC6" mask="url(#mask-2)" stroke-width="2" fill="#F9FBF4" transform="translate(265.000000, 48.000000) rotate(-90.000000) translate(-265.000000, -48.000000) " xlink:href="#path-1"></use>
                <rect id="colours-use-2-copy-65" fill="#82A61C" transform="translate(25.000000, 168.000000) rotate(-90.000000) translate(-25.000000, -168.000000) " x="0" y="143" width="50" height="50" rx="25"></rect>
                <rect id="colours-use-2-copy-66" fill="#738F22" transform="translate(85.000000, 168.000000) rotate(-90.000000) translate(-85.000000, -168.000000) " x="60" y="143" width="50" height="50" rx="25"></rect>
                <rect id="colours-use-2-copy-67" fill="#607328" transform="translate(145.000000, 168.000000) rotate(-90.000000) translate(-145.000000, -168.000000) " x="120" y="143" width="50" height="50" rx="25"></rect>
                <rect id="colours-use-2-copy-68" fill="#4C572F" transform="translate(205.000000, 168.000000) rotate(-90.000000) translate(-205.000000, -168.000000) " x="180" y="143" width="50" height="50" rx="25"></rect>
                <rect id="colours-use-2-copy-69" fill="#3D4035" transform="translate(265.000000, 168.000000) rotate(-90.000000) translate(-265.000000, -168.000000) " x="240" y="143" width="50" height="50" rx="25"></rect>
                <polygon id="Star-1" fill="#8AB82E" points="262.657396 10.5 258.542899 12.663119 259.328698 8.08155948 256 4.83688104 260.600147 4.16844052 262.657396 0 264.714644 4.16844052 269.314791 4.83688104 265.986093 8.08155948 266.771892 12.663119"></polygon>
                <polygon id="Star-1" fill="#8AB82E" points="202.657396 10.5 198.542899 12.663119 199.328698 8.08155948 196 4.83688104 200.600147 4.16844052 202.657396 0 204.714644 4.16844052 209.314791 4.83688104 205.986093 8.08155948 206.771892 12.663119"></polygon>
                <polygon id="Star-1" fill="#8AB82E" points="144.657396 10.5 140.542899 12.663119 141.328698 8.08155948 138 4.83688104 142.600147 4.16844052 144.657396 0 146.714644 4.16844052 151.314791 4.83688104 147.986093 8.08155948 148.771892 12.663119"></polygon>
                <polygon id="Star-1" fill="#E69900" points="82.6573956 10.5 78.5428988 12.663119 79.3286978 8.08155948 76 4.83688104 80.6001472 4.16844052 82.6573956 0 84.714644 4.16844052 89.3147912 4.83688104 85.9860934 8.08155948 86.7718924 12.663119"></polygon>
                <polygon id="Star-1" fill="#CC0000" points="22.6573956 10.5 18.5428988 12.663119 19.3286978 8.08155948 16 4.83688104 20.6001472 4.16844052 22.6573956 0 24.714644 4.16844052 29.3147912 4.83688104 25.9860934 8.08155948 26.7718924 12.663119"></polygon>
                <polygon id="Star-1" fill="#CC0000" points="82.6573956 130.5 78.5428988 132.663119 79.3286978 128.081559 76 124.836881 80.6001472 124.168441 82.6573956 120 84.714644 124.168441 89.3147912 124.836881 85.9860934 128.081559 86.7718924 132.663119"></polygon>
                <polygon id="Star-1" fill="#CC0000" points="144.657396 130.5 140.542899 132.663119 141.328698 128.081559 138 124.836881 142.600147 124.168441 144.657396 120 146.714644 124.168441 151.314791 124.836881 147.986093 128.081559 148.771892 132.663119"></polygon>
                <polygon id="Star-1" fill="#CC0000" points="202.657396 130.5 198.542899 132.663119 199.328698 128.081559 196 124.836881 200.600147 124.168441 202.657396 120 204.714644 124.168441 209.314791 124.836881 205.986093 128.081559 206.771892 132.663119"></polygon>
                <polygon id="Star-1" fill="#CC0000" points="266 130.5 261.885503 132.663119 262.671302 128.081559 259.342604 124.836881 263.942752 124.168441 266 120 268.057248 124.168441 272.657396 124.836881 269.328698 128.081559 270.114497 132.663119"></polygon>
                <polygon id="Star-1" fill="#CC0000" points="22.6573956 130.5 18.5428988 132.663119 19.3286978 128.081559 16 124.836881 20.6001472 124.168441 22.6573956 120 24.714644 124.168441 29.3147912 124.836881 25.9860934 128.081559 26.7718924 132.663119"></polygon>
                <g id="%---convert-to-paths-before-SVG-" transform="translate(9.000000, 42.000000)" fill="#575756">
                    <path d="M2.432,10.848 C2.432,11.648 2.944,12.096 3.632,12.096 C4.32,12.096 4.832,11.648 4.832,10.848 L4.832,1.744 C4.832,1.104 4.448,0.608 3.76,0.608 L1.488,0.608 C0.8,0.608 0.4,1.152 0.4,1.712 C0.4,2.256 0.72,2.816 1.488,2.816 L2.432,2.816 L2.432,10.848 Z M10.512,10.016 C8.88,10.016 8.768,7.44 8.768,6.304 C8.768,5.088 8.88,2.592 10.512,2.592 C12.144,2.592 12.256,5.088 12.256,6.304 C12.256,7.44 12.144,10.016 10.512,10.016 L10.512,10.016 Z M10.512,12.192 C13.744,12.192 14.752,8.912 14.752,6.304 C14.752,3.696 13.744,0.416 10.512,0.416 C7.28,0.416 6.272,3.696 6.272,6.304 C6.272,8.912 7.28,12.192 10.512,12.192 L10.512,12.192 Z M19.696,10.016 C18.064,10.016 17.952,7.44 17.952,6.304 C17.952,5.088 18.064,2.592 19.696,2.592 C21.328,2.592 21.44,5.088 21.44,6.304 C21.44,7.44 21.328,10.016 19.696,10.016 L19.696,10.016 Z M19.696,12.192 C22.928,12.192 23.936,8.912 23.936,6.304 C23.936,3.696 22.928,0.416 19.696,0.416 C16.464,0.416 15.456,3.696 15.456,6.304 C15.456,8.912 16.464,12.192 19.696,12.192 L19.696,12.192 Z M27.248,3.952 C26.72,3.952 26.416,3.52 26.416,3.008 C26.416,2.496 26.72,2.048 27.248,2.048 C27.776,2.048 28.08,2.496 28.08,3.008 C28.08,3.52 27.776,3.952 27.248,3.952 L27.248,3.952 Z M27.248,5.584 C28.672,5.584 29.712,4.4 29.712,3.008 C29.712,1.616 28.672,0.416 27.248,0.416 C25.824,0.416 24.784,1.616 24.784,3.008 C24.784,4.4 25.824,5.584 27.248,5.584 L27.248,5.584 Z M32.88,12.192 C34.304,12.192 35.344,11.008 35.344,9.616 C35.344,8.224 34.304,7.024 32.88,7.024 C31.456,7.024 30.416,8.224 30.416,9.616 C30.416,11.008 31.456,12.192 32.88,12.192 L32.88,12.192 Z M32.88,10.56 C32.352,10.56 32.048,10.128 32.048,9.616 C32.048,9.104 32.352,8.656 32.88,8.656 C33.408,8.656 33.712,9.104 33.712,9.616 C33.712,10.128 33.408,10.56 32.88,10.56 L32.88,10.56 Z M26.672,10.816 C26.608,10.944 26.512,11.168 26.512,11.408 C26.512,11.888 27.008,12.288 27.424,12.288 C27.808,12.288 27.904,12.096 28.144,11.76 L33.52,1.696 C33.648,1.456 33.648,1.344 33.648,1.216 C33.648,0.72 33.2,0.32 32.704,0.32 C32.336,0.32 32.176,0.432 31.968,0.832 L26.672,10.816 Z" id="100%"></path>
                    <path d="M65.52,10.4 C65.408,10.624 65.36,10.768 65.36,10.96 C65.36,11.424 65.808,12.096 66.688,12.096 C67.408,12.096 67.584,11.776 68.032,10.88 L72,2.816 C72.192,2.416 72.368,2.08 72.368,1.76 C72.368,1.344 72.032,0.608 71.216,0.608 L65.424,0.608 C64.544,0.608 64.24,1.152 64.24,1.712 C64.24,2.256 64.56,2.816 65.424,2.816 L69.52,2.816 L65.52,10.4 Z M76.608,2.816 L79.616,2.816 C79.904,2.816 80.736,2.72 80.736,1.616 C80.736,1.04 80.304,0.608 79.568,0.608 L75.712,0.608 C74.944,0.608 74.64,0.88 74.464,2.128 L74.064,5.504 C74.048,5.68 74.016,5.84 74.016,6.048 C74.016,6.32 74.336,6.8 74.96,6.8 C75.776,6.8 75.92,6.272 76.848,6.272 C77.84,6.272 78.384,6.928 78.384,7.888 C78.384,8.896 77.808,9.984 76.688,9.984 C75.616,9.984 74.848,8.96 74.208,8.96 C73.616,8.96 73.12,9.456 73.12,10.048 C73.12,11.456 75.504,12.192 76.64,12.192 C79.408,12.192 80.88,10.432 80.88,7.76 C80.88,5.888 79.504,4.352 77.568,4.352 C77.168,4.352 76.752,4.432 76.368,4.512 L76.608,2.816 Z M84.752,3.952 C84.224,3.952 83.92,3.52 83.92,3.008 C83.92,2.496 84.224,2.048 84.752,2.048 C85.28,2.048 85.584,2.496 85.584,3.008 C85.584,3.52 85.28,3.952 84.752,3.952 L84.752,3.952 Z M84.752,5.584 C86.176,5.584 87.216,4.4 87.216,3.008 C87.216,1.616 86.176,0.416 84.752,0.416 C83.328,0.416 82.288,1.616 82.288,3.008 C82.288,4.4 83.328,5.584 84.752,5.584 L84.752,5.584 Z M90.384,12.192 C91.808,12.192 92.848,11.008 92.848,9.616 C92.848,8.224 91.808,7.024 90.384,7.024 C88.96,7.024 87.92,8.224 87.92,9.616 C87.92,11.008 88.96,12.192 90.384,12.192 L90.384,12.192 Z M90.384,10.56 C89.856,10.56 89.552,10.128 89.552,9.616 C89.552,9.104 89.856,8.656 90.384,8.656 C90.912,8.656 91.216,9.104 91.216,9.616 C91.216,10.128 90.912,10.56 90.384,10.56 L90.384,10.56 Z M84.176,10.816 C84.112,10.944 84.016,11.168 84.016,11.408 C84.016,11.888 84.512,12.288 84.928,12.288 C85.312,12.288 85.408,12.096 85.648,11.76 L91.024,1.696 C91.152,1.456 91.152,1.344 91.152,1.216 C91.152,0.72 90.704,0.32 90.208,0.32 C89.84,0.32 89.68,0.432 89.472,0.832 L84.176,10.816 Z" id="75%"></path>
                    <path d="M127,2.816 L130.008,2.816 C130.296,2.816 131.128,2.72 131.128,1.616 C131.128,1.04 130.696,0.608 129.96,0.608 L126.104,0.608 C125.336,0.608 125.032,0.88 124.856,2.128 L124.456,5.504 C124.44,5.68 124.408,5.84 124.408,6.048 C124.408,6.32 124.728,6.8 125.352,6.8 C126.168,6.8 126.312,6.272 127.24,6.272 C128.232,6.272 128.776,6.928 128.776,7.888 C128.776,8.896 128.2,9.984 127.08,9.984 C126.008,9.984 125.24,8.96 124.6,8.96 C124.008,8.96 123.512,9.456 123.512,10.048 C123.512,11.456 125.896,12.192 127.032,12.192 C129.8,12.192 131.272,10.432 131.272,7.76 C131.272,5.888 129.896,4.352 127.96,4.352 C127.56,4.352 127.144,4.432 126.76,4.512 L127,2.816 Z M136.776,10.016 C135.144,10.016 135.032,7.44 135.032,6.304 C135.032,5.088 135.144,2.592 136.776,2.592 C138.408,2.592 138.52,5.088 138.52,6.304 C138.52,7.44 138.408,10.016 136.776,10.016 L136.776,10.016 Z M136.776,12.192 C140.008,12.192 141.016,8.912 141.016,6.304 C141.016,3.696 140.008,0.416 136.776,0.416 C133.544,0.416 132.536,3.696 132.536,6.304 C132.536,8.912 133.544,12.192 136.776,12.192 L136.776,12.192 Z M144.328,3.952 C143.8,3.952 143.496,3.52 143.496,3.008 C143.496,2.496 143.8,2.048 144.328,2.048 C144.856,2.048 145.16,2.496 145.16,3.008 C145.16,3.52 144.856,3.952 144.328,3.952 L144.328,3.952 Z M144.328,5.584 C145.752,5.584 146.792,4.4 146.792,3.008 C146.792,1.616 145.752,0.416 144.328,0.416 C142.904,0.416 141.864,1.616 141.864,3.008 C141.864,4.4 142.904,5.584 144.328,5.584 L144.328,5.584 Z M149.96,12.192 C151.384,12.192 152.424,11.008 152.424,9.616 C152.424,8.224 151.384,7.024 149.96,7.024 C148.536,7.024 147.496,8.224 147.496,9.616 C147.496,11.008 148.536,12.192 149.96,12.192 L149.96,12.192 Z M149.96,10.56 C149.432,10.56 149.128,10.128 149.128,9.616 C149.128,9.104 149.432,8.656 149.96,8.656 C150.488,8.656 150.792,9.104 150.792,9.616 C150.792,10.128 150.488,10.56 149.96,10.56 L149.96,10.56 Z M143.752,10.816 C143.688,10.944 143.592,11.168 143.592,11.408 C143.592,11.888 144.088,12.288 144.504,12.288 C144.888,12.288 144.984,12.096 145.224,11.76 L150.6,1.696 C150.728,1.456 150.728,1.344 150.728,1.216 C150.728,0.72 150.28,0.32 149.784,0.32 C149.416,0.32 149.256,0.432 149.048,0.832 L143.752,10.816 Z" id="50%"></path>
                    <path d="M188.288,9.888 C189.648,8.176 192.128,5.968 192.128,3.744 C192.128,1.712 190.544,0.416 188.576,0.416 C186.608,0.416 184.816,2.032 184.816,4.048 C184.816,4.672 185.216,5.216 185.984,5.216 C187.52,5.216 186.64,2.624 188.48,2.624 C189.136,2.624 189.632,3.2 189.632,3.856 C189.632,4.432 189.36,4.928 189.072,5.344 C187.856,7.104 186.416,8.544 185.088,10.128 C184.928,10.32 184.72,10.608 184.72,10.944 C184.72,11.68 185.264,12 185.968,12 L191.312,12 C191.92,12 192.464,11.68 192.464,10.944 C192.464,10.208 191.92,9.888 191.216,9.888 L188.288,9.888 Z M197.184,2.816 L200.192,2.816 C200.48,2.816 201.312,2.72 201.312,1.616 C201.312,1.04 200.88,0.608 200.144,0.608 L196.288,0.608 C195.52,0.608 195.216,0.88 195.04,2.128 L194.64,5.504 C194.624,5.68 194.592,5.84 194.592,6.048 C194.592,6.32 194.912,6.8 195.536,6.8 C196.352,6.8 196.496,6.272 197.424,6.272 C198.416,6.272 198.96,6.928 198.96,7.888 C198.96,8.896 198.384,9.984 197.264,9.984 C196.192,9.984 195.424,8.96 194.784,8.96 C194.192,8.96 193.696,9.456 193.696,10.048 C193.696,11.456 196.08,12.192 197.216,12.192 C199.984,12.192 201.456,10.432 201.456,7.76 C201.456,5.888 200.08,4.352 198.144,4.352 C197.744,4.352 197.328,4.432 196.944,4.512 L197.184,2.816 Z M205.328,3.952 C204.8,3.952 204.496,3.52 204.496,3.008 C204.496,2.496 204.8,2.048 205.328,2.048 C205.856,2.048 206.16,2.496 206.16,3.008 C206.16,3.52 205.856,3.952 205.328,3.952 L205.328,3.952 Z M205.328,5.584 C206.752,5.584 207.792,4.4 207.792,3.008 C207.792,1.616 206.752,0.416 205.328,0.416 C203.904,0.416 202.864,1.616 202.864,3.008 C202.864,4.4 203.904,5.584 205.328,5.584 L205.328,5.584 Z M210.96,12.192 C212.384,12.192 213.424,11.008 213.424,9.616 C213.424,8.224 212.384,7.024 210.96,7.024 C209.536,7.024 208.496,8.224 208.496,9.616 C208.496,11.008 209.536,12.192 210.96,12.192 L210.96,12.192 Z M210.96,10.56 C210.432,10.56 210.128,10.128 210.128,9.616 C210.128,9.104 210.432,8.656 210.96,8.656 C211.488,8.656 211.792,9.104 211.792,9.616 C211.792,10.128 211.488,10.56 210.96,10.56 L210.96,10.56 Z M204.752,10.816 C204.688,10.944 204.592,11.168 204.592,11.408 C204.592,11.888 205.088,12.288 205.504,12.288 C205.888,12.288 205.984,12.096 206.224,11.76 L211.6,1.696 C211.728,1.456 211.728,1.344 211.728,1.216 C211.728,0.72 211.28,0.32 210.784,0.32 C210.416,0.32 210.256,0.432 210.048,0.832 L204.752,10.816 Z" id="25%"></path>
                    <path d="M252,2.816 L255.008,2.816 C255.296,2.816 256.128,2.72 256.128,1.616 C256.128,1.04 255.696,0.608 254.96,0.608 L251.104,0.608 C250.336,0.608 250.032,0.88 249.856,2.128 L249.456,5.504 C249.44,5.68 249.408,5.84 249.408,6.048 C249.408,6.32 249.728,6.8 250.352,6.8 C251.168,6.8 251.312,6.272 252.24,6.272 C253.232,6.272 253.776,6.928 253.776,7.888 C253.776,8.896 253.2,9.984 252.08,9.984 C251.008,9.984 250.24,8.96 249.6,8.96 C249.008,8.96 248.512,9.456 248.512,10.048 C248.512,11.456 250.896,12.192 252.032,12.192 C254.8,12.192 256.272,10.432 256.272,7.76 C256.272,5.888 254.896,4.352 252.96,4.352 C252.56,4.352 252.144,4.432 251.76,4.512 L252,2.816 Z M260.144,3.952 C259.616,3.952 259.312,3.52 259.312,3.008 C259.312,2.496 259.616,2.048 260.144,2.048 C260.672,2.048 260.976,2.496 260.976,3.008 C260.976,3.52 260.672,3.952 260.144,3.952 L260.144,3.952 Z M260.144,5.584 C261.568,5.584 262.608,4.4 262.608,3.008 C262.608,1.616 261.568,0.416 260.144,0.416 C258.72,0.416 257.68,1.616 257.68,3.008 C257.68,4.4 258.72,5.584 260.144,5.584 L260.144,5.584 Z M265.776,12.192 C267.2,12.192 268.24,11.008 268.24,9.616 C268.24,8.224 267.2,7.024 265.776,7.024 C264.352,7.024 263.312,8.224 263.312,9.616 C263.312,11.008 264.352,12.192 265.776,12.192 L265.776,12.192 Z M265.776,10.56 C265.248,10.56 264.944,10.128 264.944,9.616 C264.944,9.104 265.248,8.656 265.776,8.656 C266.304,8.656 266.608,9.104 266.608,9.616 C266.608,10.128 266.304,10.56 265.776,10.56 L265.776,10.56 Z M259.568,10.816 C259.504,10.944 259.408,11.168 259.408,11.408 C259.408,11.888 259.904,12.288 260.32,12.288 C260.704,12.288 260.8,12.096 261.04,11.76 L266.416,1.696 C266.544,1.456 266.544,1.344 266.544,1.216 C266.544,0.72 266.096,0.32 265.6,0.32 C265.232,0.32 265.072,0.432 264.864,0.832 L259.568,10.816 Z" id="5%"></path>
                    <path d="M8.592,120.416 C6.224,120.416 4.576,122.304 4.576,124.384 C4.576,126.272 6,127.968 7.92,127.968 C8.272,127.968 8.64,127.904 8.928,127.776 L8.96,127.808 C8.432,128.56 7.392,129.584 6.752,130.368 C6.56,130.608 6.416,130.8 6.416,131.024 C6.416,131.6 7.104,132.192 7.552,132.192 C7.68,132.192 7.856,132.192 8.032,132.08 C8.224,131.952 8.416,131.824 8.544,131.696 C10.16,130.192 12.608,126.8 12.608,124.384 C12.608,122.256 11.056,120.416 8.592,120.416 L8.592,120.416 Z M8.592,126.048 C7.584,126.048 7.072,125.232 7.072,124.384 C7.072,123.456 7.68,122.72 8.592,122.72 C9.552,122.72 10.112,123.488 10.112,124.384 C10.112,125.328 9.504,126.048 8.592,126.048 L8.592,126.048 Z M17.184,122.816 L20.192,122.816 C20.48,122.816 21.312,122.72 21.312,121.616 C21.312,121.04 20.88,120.608 20.144,120.608 L16.288,120.608 C15.52,120.608 15.216,120.88 15.04,122.128 L14.64,125.504 C14.624,125.68 14.592,125.84 14.592,126.048 C14.592,126.32 14.912,126.8 15.536,126.8 C16.352,126.8 16.496,126.272 17.424,126.272 C18.416,126.272 18.96,126.928 18.96,127.888 C18.96,128.896 18.384,129.984 17.264,129.984 C16.192,129.984 15.424,128.96 14.784,128.96 C14.192,128.96 13.696,129.456 13.696,130.048 C13.696,131.456 16.08,132.192 17.216,132.192 C19.984,132.192 21.456,130.432 21.456,127.76 C21.456,125.888 20.08,124.352 18.144,124.352 C17.744,124.352 17.328,124.432 16.944,124.512 L17.184,122.816 Z M25.328,123.952 C24.8,123.952 24.496,123.52 24.496,123.008 C24.496,122.496 24.8,122.048 25.328,122.048 C25.856,122.048 26.16,122.496 26.16,123.008 C26.16,123.52 25.856,123.952 25.328,123.952 L25.328,123.952 Z M25.328,125.584 C26.752,125.584 27.792,124.4 27.792,123.008 C27.792,121.616 26.752,120.416 25.328,120.416 C23.904,120.416 22.864,121.616 22.864,123.008 C22.864,124.4 23.904,125.584 25.328,125.584 L25.328,125.584 Z M30.96,132.192 C32.384,132.192 33.424,131.008 33.424,129.616 C33.424,128.224 32.384,127.024 30.96,127.024 C29.536,127.024 28.496,128.224 28.496,129.616 C28.496,131.008 29.536,132.192 30.96,132.192 L30.96,132.192 Z M30.96,130.56 C30.432,130.56 30.128,130.128 30.128,129.616 C30.128,129.104 30.432,128.656 30.96,128.656 C31.488,128.656 31.792,129.104 31.792,129.616 C31.792,130.128 31.488,130.56 30.96,130.56 L30.96,130.56 Z M24.752,130.816 C24.688,130.944 24.592,131.168 24.592,131.408 C24.592,131.888 25.088,132.288 25.504,132.288 C25.888,132.288 25.984,132.096 26.224,131.76 L31.6,121.696 C31.728,121.456 31.728,121.344 31.728,121.216 C31.728,120.72 31.28,120.32 30.784,120.32 C30.416,120.32 30.256,120.432 30.048,120.832 L24.752,130.816 Z" id="95%"></path>
                    <path d="M65.52,130.4 C65.408,130.624 65.36,130.768 65.36,130.96 C65.36,131.424 65.808,132.096 66.688,132.096 C67.408,132.096 67.584,131.776 68.032,130.88 L72,122.816 C72.192,122.416 72.368,122.08 72.368,121.76 C72.368,121.344 72.032,120.608 71.216,120.608 L65.424,120.608 C64.544,120.608 64.24,121.152 64.24,121.712 C64.24,122.256 64.56,122.816 65.424,122.816 L69.52,122.816 L65.52,130.4 Z M76.608,122.816 L79.616,122.816 C79.904,122.816 80.736,122.72 80.736,121.616 C80.736,121.04 80.304,120.608 79.568,120.608 L75.712,120.608 C74.944,120.608 74.64,120.88 74.464,122.128 L74.064,125.504 C74.048,125.68 74.016,125.84 74.016,126.048 C74.016,126.32 74.336,126.8 74.96,126.8 C75.776,126.8 75.92,126.272 76.848,126.272 C77.84,126.272 78.384,126.928 78.384,127.888 C78.384,128.896 77.808,129.984 76.688,129.984 C75.616,129.984 74.848,128.96 74.208,128.96 C73.616,128.96 73.12,129.456 73.12,130.048 C73.12,131.456 75.504,132.192 76.64,132.192 C79.408,132.192 80.88,130.432 80.88,127.76 C80.88,125.888 79.504,124.352 77.568,124.352 C77.168,124.352 76.752,124.432 76.368,124.512 L76.608,122.816 Z M84.752,123.952 C84.224,123.952 83.92,123.52 83.92,123.008 C83.92,122.496 84.224,122.048 84.752,122.048 C85.28,122.048 85.584,122.496 85.584,123.008 C85.584,123.52 85.28,123.952 84.752,123.952 L84.752,123.952 Z M84.752,125.584 C86.176,125.584 87.216,124.4 87.216,123.008 C87.216,121.616 86.176,120.416 84.752,120.416 C83.328,120.416 82.288,121.616 82.288,123.008 C82.288,124.4 83.328,125.584 84.752,125.584 L84.752,125.584 Z M90.384,132.192 C91.808,132.192 92.848,131.008 92.848,129.616 C92.848,128.224 91.808,127.024 90.384,127.024 C88.96,127.024 87.92,128.224 87.92,129.616 C87.92,131.008 88.96,132.192 90.384,132.192 L90.384,132.192 Z M90.384,130.56 C89.856,130.56 89.552,130.128 89.552,129.616 C89.552,129.104 89.856,128.656 90.384,128.656 C90.912,128.656 91.216,129.104 91.216,129.616 C91.216,130.128 90.912,130.56 90.384,130.56 L90.384,130.56 Z M84.176,130.816 C84.112,130.944 84.016,131.168 84.016,131.408 C84.016,131.888 84.512,132.288 84.928,132.288 C85.312,132.288 85.408,132.096 85.648,131.76 L91.024,121.696 C91.152,121.456 91.152,121.344 91.152,121.216 C91.152,120.72 90.704,120.32 90.208,120.32 C89.84,120.32 89.68,120.432 89.472,120.832 L84.176,130.816 Z" id="75%"></path>
                    <path d="M127,122.816 L130.008,122.816 C130.296,122.816 131.128,122.72 131.128,121.616 C131.128,121.04 130.696,120.608 129.96,120.608 L126.104,120.608 C125.336,120.608 125.032,120.88 124.856,122.128 L124.456,125.504 C124.44,125.68 124.408,125.84 124.408,126.048 C124.408,126.32 124.728,126.8 125.352,126.8 C126.168,126.8 126.312,126.272 127.24,126.272 C128.232,126.272 128.776,126.928 128.776,127.888 C128.776,128.896 128.2,129.984 127.08,129.984 C126.008,129.984 125.24,128.96 124.6,128.96 C124.008,128.96 123.512,129.456 123.512,130.048 C123.512,131.456 125.896,132.192 127.032,132.192 C129.8,132.192 131.272,130.432 131.272,127.76 C131.272,125.888 129.896,124.352 127.96,124.352 C127.56,124.352 127.144,124.432 126.76,124.512 L127,122.816 Z M136.776,130.016 C135.144,130.016 135.032,127.44 135.032,126.304 C135.032,125.088 135.144,122.592 136.776,122.592 C138.408,122.592 138.52,125.088 138.52,126.304 C138.52,127.44 138.408,130.016 136.776,130.016 L136.776,130.016 Z M136.776,132.192 C140.008,132.192 141.016,128.912 141.016,126.304 C141.016,123.696 140.008,120.416 136.776,120.416 C133.544,120.416 132.536,123.696 132.536,126.304 C132.536,128.912 133.544,132.192 136.776,132.192 L136.776,132.192 Z M144.328,123.952 C143.8,123.952 143.496,123.52 143.496,123.008 C143.496,122.496 143.8,122.048 144.328,122.048 C144.856,122.048 145.16,122.496 145.16,123.008 C145.16,123.52 144.856,123.952 144.328,123.952 L144.328,123.952 Z M144.328,125.584 C145.752,125.584 146.792,124.4 146.792,123.008 C146.792,121.616 145.752,120.416 144.328,120.416 C142.904,120.416 141.864,121.616 141.864,123.008 C141.864,124.4 142.904,125.584 144.328,125.584 L144.328,125.584 Z M149.96,132.192 C151.384,132.192 152.424,131.008 152.424,129.616 C152.424,128.224 151.384,127.024 149.96,127.024 C148.536,127.024 147.496,128.224 147.496,129.616 C147.496,131.008 148.536,132.192 149.96,132.192 L149.96,132.192 Z M149.96,130.56 C149.432,130.56 149.128,130.128 149.128,129.616 C149.128,129.104 149.432,128.656 149.96,128.656 C150.488,128.656 150.792,129.104 150.792,129.616 C150.792,130.128 150.488,130.56 149.96,130.56 L149.96,130.56 Z M143.752,130.816 C143.688,130.944 143.592,131.168 143.592,131.408 C143.592,131.888 144.088,132.288 144.504,132.288 C144.888,132.288 144.984,132.096 145.224,131.76 L150.6,121.696 C150.728,121.456 150.728,121.344 150.728,121.216 C150.728,120.72 150.28,120.32 149.784,120.32 C149.416,120.32 149.256,120.432 149.048,120.832 L143.752,130.816 Z" id="50%"></path>
                    <path d="M188.288,129.888 C189.648,128.176 192.128,125.968 192.128,123.744 C192.128,121.712 190.544,120.416 188.576,120.416 C186.608,120.416 184.816,122.032 184.816,124.048 C184.816,124.672 185.216,125.216 185.984,125.216 C187.52,125.216 186.64,122.624 188.48,122.624 C189.136,122.624 189.632,123.2 189.632,123.856 C189.632,124.432 189.36,124.928 189.072,125.344 C187.856,127.104 186.416,128.544 185.088,130.128 C184.928,130.32 184.72,130.608 184.72,130.944 C184.72,131.68 185.264,132 185.968,132 L191.312,132 C191.92,132 192.464,131.68 192.464,130.944 C192.464,130.208 191.92,129.888 191.216,129.888 L188.288,129.888 Z M197.184,122.816 L200.192,122.816 C200.48,122.816 201.312,122.72 201.312,121.616 C201.312,121.04 200.88,120.608 200.144,120.608 L196.288,120.608 C195.52,120.608 195.216,120.88 195.04,122.128 L194.64,125.504 C194.624,125.68 194.592,125.84 194.592,126.048 C194.592,126.32 194.912,126.8 195.536,126.8 C196.352,126.8 196.496,126.272 197.424,126.272 C198.416,126.272 198.96,126.928 198.96,127.888 C198.96,128.896 198.384,129.984 197.264,129.984 C196.192,129.984 195.424,128.96 194.784,128.96 C194.192,128.96 193.696,129.456 193.696,130.048 C193.696,131.456 196.08,132.192 197.216,132.192 C199.984,132.192 201.456,130.432 201.456,127.76 C201.456,125.888 200.08,124.352 198.144,124.352 C197.744,124.352 197.328,124.432 196.944,124.512 L197.184,122.816 Z M205.328,123.952 C204.8,123.952 204.496,123.52 204.496,123.008 C204.496,122.496 204.8,122.048 205.328,122.048 C205.856,122.048 206.16,122.496 206.16,123.008 C206.16,123.52 205.856,123.952 205.328,123.952 L205.328,123.952 Z M205.328,125.584 C206.752,125.584 207.792,124.4 207.792,123.008 C207.792,121.616 206.752,120.416 205.328,120.416 C203.904,120.416 202.864,121.616 202.864,123.008 C202.864,124.4 203.904,125.584 205.328,125.584 L205.328,125.584 Z M210.96,132.192 C212.384,132.192 213.424,131.008 213.424,129.616 C213.424,128.224 212.384,127.024 210.96,127.024 C209.536,127.024 208.496,128.224 208.496,129.616 C208.496,131.008 209.536,132.192 210.96,132.192 L210.96,132.192 Z M210.96,130.56 C210.432,130.56 210.128,130.128 210.128,129.616 C210.128,129.104 210.432,128.656 210.96,128.656 C211.488,128.656 211.792,129.104 211.792,129.616 C211.792,130.128 211.488,130.56 210.96,130.56 L210.96,130.56 Z M204.752,130.816 C204.688,130.944 204.592,131.168 204.592,131.408 C204.592,131.888 205.088,132.288 205.504,132.288 C205.888,132.288 205.984,132.096 206.224,131.76 L211.6,121.696 C211.728,121.456 211.728,121.344 211.728,121.216 C211.728,120.72 211.28,120.32 210.784,120.32 C210.416,120.32 210.256,120.432 210.048,120.832 L204.752,130.816 Z" id="25%"></path>
                    <path d="M252,122.816 L255.008,122.816 C255.296,122.816 256.128,122.72 256.128,121.616 C256.128,121.04 255.696,120.608 254.96,120.608 L251.104,120.608 C250.336,120.608 250.032,120.88 249.856,122.128 L249.456,125.504 C249.44,125.68 249.408,125.84 249.408,126.048 C249.408,126.32 249.728,126.8 250.352,126.8 C251.168,126.8 251.312,126.272 252.24,126.272 C253.232,126.272 253.776,126.928 253.776,127.888 C253.776,128.896 253.2,129.984 252.08,129.984 C251.008,129.984 250.24,128.96 249.6,128.96 C249.008,128.96 248.512,129.456 248.512,130.048 C248.512,131.456 250.896,132.192 252.032,132.192 C254.8,132.192 256.272,130.432 256.272,127.76 C256.272,125.888 254.896,124.352 252.96,124.352 C252.56,124.352 252.144,124.432 251.76,124.512 L252,122.816 Z M260.144,123.952 C259.616,123.952 259.312,123.52 259.312,123.008 C259.312,122.496 259.616,122.048 260.144,122.048 C260.672,122.048 260.976,122.496 260.976,123.008 C260.976,123.52 260.672,123.952 260.144,123.952 L260.144,123.952 Z M260.144,125.584 C261.568,125.584 262.608,124.4 262.608,123.008 C262.608,121.616 261.568,120.416 260.144,120.416 C258.72,120.416 257.68,121.616 257.68,123.008 C257.68,124.4 258.72,125.584 260.144,125.584 L260.144,125.584 Z M265.776,132.192 C267.2,132.192 268.24,131.008 268.24,129.616 C268.24,128.224 267.2,127.024 265.776,127.024 C264.352,127.024 263.312,128.224 263.312,129.616 C263.312,131.008 264.352,132.192 265.776,132.192 L265.776,132.192 Z M265.776,130.56 C265.248,130.56 264.944,130.128 264.944,129.616 C264.944,129.104 265.248,128.656 265.776,128.656 C266.304,128.656 266.608,129.104 266.608,129.616 C266.608,130.128 266.304,130.56 265.776,130.56 L265.776,130.56 Z M259.568,130.816 C259.504,130.944 259.408,131.168 259.408,131.408 C259.408,131.888 259.904,132.288 260.32,132.288 C260.704,132.288 260.8,132.096 261.04,131.76 L266.416,121.696 C266.544,121.456 266.544,121.344 266.544,121.216 C266.544,120.72 266.096,120.32 265.6,120.32 C265.232,120.32 265.072,120.432 264.864,120.832 L259.568,130.816 Z" id="5%"></path>
                </g>
                <g id="hex" transform="translate(116.000000, 83.000000)" fill="#4A4A4A">
                    <path d="M69.334,7.976 L70.314,7.976 C70.636,7.976 70.888,7.822 70.888,7.514 C70.888,7.206 70.636,7.052 70.314,7.052 L69.46,7.052 L69.754,4.98 L70.734,4.98 C71.056,4.98 71.308,4.84 71.308,4.518 C71.308,4.21 71.056,4.056 70.734,4.056 L69.88,4.056 L70.16,2.012 C70.202,1.746 70.23,1.578 70.23,1.424 C70.23,1.172 70.09,0.948 69.754,0.948 C69.39,0.948 69.264,1.13 69.222,1.452 L68.858,4.056 L67.192,4.056 L67.472,2.012 C67.514,1.746 67.542,1.578 67.542,1.424 C67.542,1.172 67.402,0.948 67.066,0.948 C66.702,0.948 66.576,1.13 66.534,1.452 L66.17,4.056 L65.19,4.056 C64.868,4.056 64.616,4.21 64.616,4.518 C64.616,4.826 64.868,4.98 65.19,4.98 L66.044,4.98 L65.75,7.052 L64.77,7.052 C64.448,7.052 64.196,7.192 64.196,7.514 C64.196,7.822 64.448,7.976 64.77,7.976 L65.624,7.976 L65.344,10.02 C65.302,10.286 65.274,10.454 65.274,10.608 C65.274,10.86 65.414,11.084 65.75,11.084 C66.114,11.084 66.24,10.902 66.282,10.58 L66.646,7.976 L68.312,7.976 L68.032,10.02 C67.99,10.286 67.962,10.454 67.962,10.608 C67.962,10.86 68.102,11.084 68.438,11.084 C68.802,11.084 68.928,10.902 68.97,10.58 L69.334,7.976 Z M68.438,7.052 L66.772,7.052 L67.066,4.98 L68.732,4.98 L68.438,7.052 Z M77.734,7.752 C78.266,7.752 78.42,7.528 78.42,7.094 C78.42,5.302 77.244,3.468 75.214,3.468 C73.128,3.468 71.868,5.26 71.868,7.276 C71.868,9.25 72.904,11.084 75.284,11.084 C76.74,11.084 78.266,10.16 78.266,9.558 C78.266,9.208 78.042,9.012 77.818,9.012 C77.356,9.012 76.936,10.02 75.298,10.02 C73.912,10.02 73.1,9.026 73.1,7.752 L77.734,7.752 Z M73.1,6.828 C73.142,5.694 73.688,4.476 75.214,4.532 C76.572,4.532 77.188,5.764 77.188,6.828 L73.1,6.828 Z M81.08,10.426 C81.08,10.832 81.318,11.084 81.696,11.084 C82.074,11.084 82.312,10.832 82.312,10.426 L82.312,1.368 C82.312,1.06 82.172,1.032 81.934,1.032 L79.792,1.032 C79.498,1.032 79.26,1.27 79.26,1.564 C79.26,1.858 79.498,2.096 79.792,2.096 L81.08,2.096 L81.08,10.426 Z M89.942,7.752 C90.474,7.752 90.628,7.528 90.628,7.094 C90.628,5.302 89.452,3.468 87.422,3.468 C85.336,3.468 84.076,5.26 84.076,7.276 C84.076,9.25 85.112,11.084 87.492,11.084 C88.948,11.084 90.474,10.16 90.474,9.558 C90.474,9.208 90.25,9.012 90.026,9.012 C89.564,9.012 89.144,10.02 87.506,10.02 C86.12,10.02 85.308,9.026 85.308,7.752 L89.942,7.752 Z M85.308,6.828 C85.35,5.694 85.896,4.476 87.422,4.532 C88.78,4.532 89.396,5.764 89.396,6.828 L85.308,6.828 Z M92.966,7.276 C92.966,6.016 93.498,4.532 95.01,4.532 C96.522,4.532 97.054,6.016 97.054,7.276 C97.054,8.536 96.522,10.02 95.01,10.02 C93.498,10.02 92.966,8.536 92.966,7.276 L92.966,7.276 Z M91.86,10.426 C91.86,10.832 92.098,11.084 92.476,11.084 C92.854,11.084 93.092,10.832 93.092,10.426 L93.092,10.062 L93.12,10.062 C93.47,10.734 94.128,11.084 95.108,11.084 C97.124,11.084 98.286,9.25 98.286,7.276 C98.286,5.302 97.124,3.468 95.108,3.468 C94.128,3.468 93.442,4.014 93.12,4.476 L93.092,4.476 L93.092,0.85 C93.092,0.444 92.854,0.192 92.476,0.192 C92.098,0.192 91.86,0.444 91.86,0.85 L91.86,10.426 Z M99.266,7.276 C99.266,9.25 100.358,11.084 102.626,11.084 C103.9,11.084 104.586,10.58 104.586,10.118 C104.586,9.782 104.39,9.6 104.11,9.6 C103.718,9.6 103.494,10.02 102.626,10.02 C101.1,10.02 100.498,8.536 100.498,7.276 C100.498,6.016 101.1,4.532 102.626,4.532 C103.466,4.532 103.648,4.924 104.124,4.924 C104.418,4.924 104.628,4.658 104.628,4.406 C104.628,3.902 103.886,3.468 102.626,3.468 C100.358,3.468 99.266,5.302 99.266,7.276 L99.266,7.276 Z M108.716,11.084 C110.48,11.084 111.768,9.642 111.768,7.836 C111.768,6.1 110.872,4.56 109.248,4.56 C108.576,4.56 108.128,4.714 107.666,4.952 L107.638,4.952 C108.394,3.566 108.982,2.894 109.78,2.18 C110.13,1.872 110.27,1.718 110.27,1.522 C110.27,1.144 109.962,0.948 109.766,0.948 C109.598,0.948 109.444,1.018 109.192,1.228 C107.68,2.502 105.72,4.742 105.72,7.654 C105.72,9.642 106.98,11.084 108.716,11.084 L108.716,11.084 Z M106.952,7.78 C106.952,6.632 107.484,5.624 108.702,5.624 C109.92,5.624 110.452,6.464 110.452,7.78 C110.452,8.942 109.92,9.936 108.702,9.936 C107.484,9.936 106.952,8.942 106.952,7.78 L106.952,7.78 Z" id="#E1EBC6"></path>
                    <path d="M5.334,7.976 L6.314,7.976 C6.636,7.976 6.888,7.822 6.888,7.514 C6.888,7.206 6.636,7.052 6.314,7.052 L5.46,7.052 L5.754,4.98 L6.734,4.98 C7.056,4.98 7.308,4.84 7.308,4.518 C7.308,4.21 7.056,4.056 6.734,4.056 L5.88,4.056 L6.16,2.012 C6.202,1.746 6.23,1.578 6.23,1.424 C6.23,1.172 6.09,0.948 5.754,0.948 C5.39,0.948 5.264,1.13 5.222,1.452 L4.858,4.056 L3.192,4.056 L3.472,2.012 C3.514,1.746 3.542,1.578 3.542,1.424 C3.542,1.172 3.402,0.948 3.066,0.948 C2.702,0.948 2.576,1.13 2.534,1.452 L2.17,4.056 L1.19,4.056 C0.868,4.056 0.616,4.21 0.616,4.518 C0.616,4.826 0.868,4.98 1.19,4.98 L2.044,4.98 L1.75,7.052 L0.77,7.052 C0.448,7.052 0.196,7.192 0.196,7.514 C0.196,7.822 0.448,7.976 0.77,7.976 L1.624,7.976 L1.344,10.02 C1.302,10.286 1.274,10.454 1.274,10.608 C1.274,10.86 1.414,11.084 1.75,11.084 C2.114,11.084 2.24,10.902 2.282,10.58 L2.646,7.976 L4.312,7.976 L4.032,10.02 C3.99,10.286 3.962,10.454 3.962,10.608 C3.962,10.86 4.102,11.084 4.438,11.084 C4.802,11.084 4.928,10.902 4.97,10.58 L5.334,7.976 Z M4.438,7.052 L2.772,7.052 L3.066,4.98 L4.732,4.98 L4.438,7.052 Z M7.994,7.276 C7.994,9.25 9.086,11.084 11.354,11.084 C12.628,11.084 13.314,10.58 13.314,10.118 C13.314,9.782 13.118,9.6 12.838,9.6 C12.446,9.6 12.222,10.02 11.354,10.02 C9.828,10.02 9.226,8.536 9.226,7.276 C9.226,6.016 9.828,4.532 11.354,4.532 C12.194,4.532 12.376,4.924 12.852,4.924 C13.146,4.924 13.356,4.658 13.356,4.406 C13.356,3.902 12.614,3.468 11.354,3.468 C9.086,3.468 7.994,5.302 7.994,7.276 L7.994,7.276 Z M20.384,8.06 C20.384,6.926 19.796,5.974 18.676,5.638 C19.46,5.162 19.852,4.35 19.852,3.524 C19.852,2.124 18.858,0.948 17.262,0.948 C15.61,0.948 14.644,2.138 14.644,3.468 C14.644,3.79 14.854,4.042 15.204,4.042 C15.414,4.042 15.75,4.028 15.792,3.468 C15.862,2.712 16.226,2.012 17.206,2.012 C18.06,2.012 18.62,2.684 18.62,3.636 C18.62,4.546 18.214,5.022 17.22,5.246 C16.758,5.344 16.576,5.498 16.576,5.778 C16.576,6.1 16.842,6.31 17.332,6.31 C18.256,6.31 19.068,6.688 19.068,8.172 C19.068,9.194 18.284,10.02 17.178,10.02 C16.24,10.02 15.736,9.46 15.498,8.746 C15.358,8.312 15.176,8.102 14.812,8.102 C14.518,8.102 14.294,8.354 14.294,8.788 C14.294,9.53 15.134,11.084 17.206,11.084 C18.984,11.084 20.384,9.95 20.384,8.06 L20.384,8.06 Z M27.034,7.276 C27.034,8.536 26.502,10.02 24.99,10.02 C23.478,10.02 22.946,8.536 22.946,7.276 C22.946,6.016 23.478,4.532 24.99,4.532 C26.502,4.532 27.034,6.016 27.034,7.276 L27.034,7.276 Z M26.908,10.426 C26.908,10.832 27.146,11.084 27.524,11.084 C27.902,11.084 28.14,10.832 28.14,10.426 L28.14,0.85 C28.14,0.444 27.902,0.192 27.524,0.192 C27.146,0.192 26.908,0.444 26.908,0.85 L26.908,4.476 L26.88,4.476 C26.558,4.014 25.872,3.468 24.892,3.468 C22.876,3.468 21.714,5.302 21.714,7.276 C21.714,9.25 22.876,11.084 24.892,11.084 C25.872,11.084 26.53,10.734 26.88,10.062 L26.908,10.062 L26.908,10.426 Z M32.732,11.084 C34.496,11.084 35.784,9.642 35.784,7.836 C35.784,6.1 34.888,4.56 33.264,4.56 C32.592,4.56 32.144,4.714 31.682,4.952 L31.654,4.952 C32.41,3.566 32.998,2.894 33.796,2.18 C34.146,1.872 34.286,1.718 34.286,1.522 C34.286,1.144 33.978,0.948 33.782,0.948 C33.614,0.948 33.46,1.018 33.208,1.228 C31.696,2.502 29.736,4.742 29.736,7.654 C29.736,9.642 30.996,11.084 32.732,11.084 L32.732,11.084 Z M30.968,7.78 C30.968,6.632 31.5,5.624 32.718,5.624 C33.936,5.624 34.468,6.464 34.468,7.78 C34.468,8.942 33.936,9.936 32.718,9.936 C31.5,9.936 30.968,8.942 30.968,7.78 L30.968,7.78 Z M37.716,3.23 C37.716,4.294 38.122,4.882 39.018,5.442 C37.856,5.708 37.212,6.772 37.212,7.934 C37.212,9.558 38.318,11.084 40.264,11.084 C42.21,11.084 43.316,9.558 43.316,7.934 C43.316,6.772 42.672,5.708 41.51,5.442 C42.406,4.882 42.812,4.294 42.812,3.23 C42.812,1.704 41.524,0.948 40.264,0.948 C39.004,0.948 37.716,1.704 37.716,3.23 L37.716,3.23 Z M38.864,3.468 C38.864,2.628 39.382,2.012 40.264,2.012 C41.146,2.012 41.664,2.628 41.664,3.468 C41.664,4.322 41.146,4.938 40.264,4.938 C39.382,4.938 38.864,4.322 38.864,3.468 L38.864,3.468 Z M38.528,7.99 C38.528,6.968 39.116,6.002 40.264,6.002 C41.412,6.002 42,6.968 42,7.99 C42,9.278 41.188,10.02 40.264,10.02 C39.34,10.02 38.528,9.278 38.528,7.99 L38.528,7.99 Z M49.826,7.276 C49.826,8.536 49.294,10.02 47.782,10.02 C46.27,10.02 45.738,8.536 45.738,7.276 C45.738,6.016 46.27,4.532 47.782,4.532 C49.294,4.532 49.826,6.016 49.826,7.276 L49.826,7.276 Z M49.7,10.426 C49.7,10.832 49.938,11.084 50.316,11.084 C50.694,11.084 50.932,10.832 50.932,10.426 L50.932,0.85 C50.932,0.444 50.694,0.192 50.316,0.192 C49.938,0.192 49.7,0.444 49.7,0.85 L49.7,4.476 L49.672,4.476 C49.35,4.014 48.664,3.468 47.684,3.468 C45.668,3.468 44.506,5.302 44.506,7.276 C44.506,9.25 45.668,11.084 47.684,11.084 C48.664,11.084 49.322,10.734 49.672,10.062 L49.7,10.062 L49.7,10.426 Z" id="#C3D68D"></path>
                    <path d="M132.334,7.976 L133.314,7.976 C133.636,7.976 133.888,7.822 133.888,7.514 C133.888,7.206 133.636,7.052 133.314,7.052 L132.46,7.052 L132.754,4.98 L133.734,4.98 C134.056,4.98 134.308,4.84 134.308,4.518 C134.308,4.21 134.056,4.056 133.734,4.056 L132.88,4.056 L133.16,2.012 C133.202,1.746 133.23,1.578 133.23,1.424 C133.23,1.172 133.09,0.948 132.754,0.948 C132.39,0.948 132.264,1.13 132.222,1.452 L131.858,4.056 L130.192,4.056 L130.472,2.012 C130.514,1.746 130.542,1.578 130.542,1.424 C130.542,1.172 130.402,0.948 130.066,0.948 C129.702,0.948 129.576,1.13 129.534,1.452 L129.17,4.056 L128.19,4.056 C127.868,4.056 127.616,4.21 127.616,4.518 C127.616,4.826 127.868,4.98 128.19,4.98 L129.044,4.98 L128.75,7.052 L127.77,7.052 C127.448,7.052 127.196,7.192 127.196,7.514 C127.196,7.822 127.448,7.976 127.77,7.976 L128.624,7.976 L128.344,10.02 C128.302,10.286 128.274,10.454 128.274,10.608 C128.274,10.86 128.414,11.084 128.75,11.084 C129.114,11.084 129.24,10.902 129.282,10.58 L129.646,7.976 L131.312,7.976 L131.032,10.02 C130.99,10.286 130.962,10.454 130.962,10.608 C130.962,10.86 131.102,11.084 131.438,11.084 C131.802,11.084 131.928,10.902 131.97,10.58 L132.334,7.976 Z M131.438,7.052 L129.772,7.052 L130.066,4.98 L131.732,4.98 L131.438,7.052 Z M136.94,4.616 L137.71,4.616 C138.116,4.616 138.326,4.42 138.326,4.084 C138.326,3.748 138.116,3.552 137.71,3.552 L136.94,3.552 L136.94,1.746 C136.94,1.438 137.066,1.256 137.444,1.256 L137.752,1.256 C138.214,1.256 138.424,1.06 138.424,0.724 C138.424,0.388 138.046,0.192 137.724,0.192 L137.346,0.192 C136.45,0.192 135.708,0.724 135.708,1.802 L135.708,3.552 L135.204,3.552 C134.798,3.552 134.588,3.748 134.588,4.084 C134.588,4.42 134.798,4.616 135.204,4.616 L135.708,4.616 L135.708,10.426 C135.708,10.832 135.946,11.084 136.324,11.084 C136.702,11.084 136.94,10.832 136.94,10.426 L136.94,4.616 Z M141.91,0.948 C140.146,0.948 138.858,2.39 138.858,4.196 C138.858,5.932 139.754,7.472 141.378,7.472 C142.05,7.472 142.498,7.318 142.96,7.08 L142.988,7.08 C142.232,8.466 141.644,9.138 140.846,9.852 C140.496,10.16 140.356,10.314 140.356,10.51 C140.356,10.888 140.664,11.084 140.86,11.084 C141.028,11.084 141.182,11.014 141.434,10.804 C142.946,9.53 144.906,7.29 144.906,4.378 C144.906,2.39 143.646,0.948 141.91,0.948 L141.91,0.948 Z M143.674,4.252 C143.674,5.4 143.142,6.408 141.924,6.408 C140.706,6.408 140.174,5.568 140.174,4.252 C140.174,3.09 140.706,2.096 141.924,2.096 C143.142,2.096 143.674,3.09 143.674,4.252 L143.674,4.252 Z M148.07,4.616 L148.84,4.616 C149.246,4.616 149.456,4.42 149.456,4.084 C149.456,3.748 149.246,3.552 148.84,3.552 L148.07,3.552 L148.07,1.746 C148.07,1.438 148.196,1.256 148.574,1.256 L148.882,1.256 C149.344,1.256 149.554,1.06 149.554,0.724 C149.554,0.388 149.176,0.192 148.854,0.192 L148.476,0.192 C147.58,0.192 146.838,0.724 146.838,1.802 L146.838,3.552 L146.334,3.552 C145.928,3.552 145.718,3.748 145.718,4.084 C145.718,4.42 145.928,4.616 146.334,4.616 L146.838,4.616 L146.838,10.426 C146.838,10.832 147.076,11.084 147.454,11.084 C147.832,11.084 148.07,10.832 148.07,10.426 L148.07,4.616 Z M151.234,7.276 C151.234,6.016 151.766,4.532 153.278,4.532 C154.79,4.532 155.322,6.016 155.322,7.276 C155.322,8.536 154.79,10.02 153.278,10.02 C151.766,10.02 151.234,8.536 151.234,7.276 L151.234,7.276 Z M150.128,10.426 C150.128,10.832 150.366,11.084 150.744,11.084 C151.122,11.084 151.36,10.832 151.36,10.426 L151.36,10.062 L151.388,10.062 C151.738,10.734 152.396,11.084 153.376,11.084 C155.392,11.084 156.554,9.25 156.554,7.276 C156.554,5.302 155.392,3.468 153.376,3.468 C152.396,3.468 151.71,4.014 151.388,4.476 L151.36,4.476 L151.36,0.85 C151.36,0.444 151.122,0.192 150.744,0.192 C150.366,0.192 150.128,0.444 150.128,0.85 L150.128,10.426 Z M159.48,4.616 L160.25,4.616 C160.656,4.616 160.866,4.42 160.866,4.084 C160.866,3.748 160.656,3.552 160.25,3.552 L159.48,3.552 L159.48,1.746 C159.48,1.438 159.606,1.256 159.984,1.256 L160.292,1.256 C160.754,1.256 160.964,1.06 160.964,0.724 C160.964,0.388 160.586,0.192 160.264,0.192 L159.886,0.192 C158.99,0.192 158.248,0.724 158.248,1.802 L158.248,3.552 L157.744,3.552 C157.338,3.552 157.128,3.748 157.128,4.084 C157.128,4.42 157.338,4.616 157.744,4.616 L158.248,4.616 L158.248,10.426 C158.248,10.832 158.486,11.084 158.864,11.084 C159.242,11.084 159.48,10.832 159.48,10.426 L159.48,4.616 Z M165.346,8.438 L165.346,10.426 C165.346,10.832 165.584,11.084 165.962,11.084 C166.34,11.084 166.578,10.832 166.578,10.426 L166.578,8.438 L167.208,8.438 C167.502,8.438 167.74,8.2 167.74,7.906 C167.74,7.612 167.502,7.374 167.208,7.374 L166.578,7.374 L166.578,1.97 C166.578,1.242 166.186,0.948 165.64,0.948 C165.206,0.948 164.926,1.088 164.674,1.508 L161.146,7.29 C160.964,7.584 160.838,7.822 160.838,8.004 C160.838,8.256 160.95,8.438 161.37,8.438 L165.346,8.438 Z M162.378,7.374 L165.318,2.264 L165.346,2.264 L165.346,7.374 L162.378,7.374 Z" id="#F9FBF4"></path>
                </g>
            </g>
        </g>
    </g>
</svg>