<?xml version="1.0" encoding="UTF-8" standalone="no"?>
<svg width="290px" height="214px" viewBox="0 0 290 214" version="1.1" xmlns="http://www.w3.org/2000/svg" xmlns:xlink="http://www.w3.org/1999/xlink">
    <!-- Generator: Sketch 39.1 (31720) - http://www.bohemiancoding.com/sketch -->
    <title>accessibility-white-sky-hex</title>
    <desc>Created with Sketch.</desc>
    <defs>
        <rect id="path-1" x="240" y="22.8000097" width="50" height="50" rx="25"></rect>
        <mask id="mask-2" maskContentUnits="userSpaceOnUse" maskUnits="objectBoundingBox" x="0" y="0" width="50" height="50" fill="white">
            <use xlink:href="#path-1"></use>
        </mask>
    </defs>
    <g id="Templates" stroke="none" stroke-width="1" fill="none" fill-rule="evenodd">
        <g id="25-colour-accessibility" transform="translate(-1077.000000, -3466.000000)">
            <g id="accessibility-white-sky-hex" transform="translate(1077.000000, 3466.000000)">
                <rect id="colours-use-2-copy-70" fill="#009FE3" transform="translate(25.000000, 47.800010) rotate(-90.000000) translate(-25.000000, -47.800010) " x="0" y="22.8000097" width="50" height="50" rx="25"></rect>
                <rect id="colours-use-2-copy-61" fill="#40B8EB" transform="translate(85.000000, 47.800010) rotate(-90.000000) translate(-85.000000, -47.800010) " x="60" y="22.8000097" width="50" height="50" rx="25"></rect>
                <rect id="colours-use-2-copy-62" fill="#7FCFF1" transform="translate(145.000000, 47.800010) rotate(-90.000000) translate(-145.000000, -47.800010) " x="120" y="22.8000097" width="50" height="50" rx="25"></rect>
                <rect id="colours-use-2-copy-63" fill="#BFE7F8" transform="translate(205.000000, 47.800010) rotate(-90.000000) translate(-205.000000, -47.800010) " x="180" y="22.8000097" width="50" height="50" rx="25"></rect>
                <use id="colours-use-2-copy-64" stroke="#BFE7F8" mask="url(#mask-2)" stroke-width="2" fill="#F2FBFE" transform="translate(265.000000, 47.800010) rotate(-90.000000) translate(-265.000000, -47.800010) " xlink:href="#path-1"></use>
                <rect id="colours-use-2-copy-65" fill="#0299DA" transform="translate(25.000000, 167.800010) rotate(-90.000000) translate(-25.000000, -167.800010) " x="0" y="142.80001" width="50" height="50" rx="25"></rect>
                <rect id="colours-use-2-copy-66" fill="#0E86B8" transform="translate(85.000000, 167.800010) rotate(-90.000000) translate(-85.000000, -167.800010) " x="60" y="142.80001" width="50" height="50" rx="25"></rect>
                <rect id="colours-use-2-copy-67" fill="#1C6C8C" transform="translate(145.000000, 167.800010) rotate(-90.000000) translate(-145.000000, -167.800010) " x="120" y="142.80001" width="50" height="50" rx="25"></rect>
                <rect id="colours-use-2-copy-68" fill="#2A5361" transform="translate(205.000000, 167.800010) rotate(-90.000000) translate(-205.000000, -167.800010) " x="180" y="142.80001" width="50" height="50" rx="25"></rect>
                <rect id="colours-use-2-copy-69" fill="#36403F" transform="translate(265.000000, 167.800010) rotate(-90.000000) translate(-265.000000, -167.800010) " x="240" y="142.80001" width="50" height="50" rx="25"></rect>
                <polygon id="Star-1" fill="#D0011B" points="266 11.3000097 261.885503 13.4631287 262.671302 8.88156921 259.342604 5.63689077 263.942752 4.96845025 266 0.800009727 268.057248 4.96845025 272.657396 5.63689077 269.328698 8.88156921 270.114497 13.4631287"></polygon>
                <polygon id="Star-1" fill="#D0011B" points="204 11.3000097 199.885503 13.4631287 200.671302 8.88156921 197.342604 5.63689077 201.942752 4.96845025 204 0.800009727 206.057248 4.96845025 210.657396 5.63689077 207.328698 8.88156921 208.114497 13.4631287"></polygon>
                <polygon id="Star-1" fill="#D0011B" points="144 11.3000097 139.885503 13.4631287 140.671302 8.88156921 137.342604 5.63689077 141.942752 4.96845025 144 0.800009727 146.057248 4.96845025 150.657396 5.63689077 147.328698 8.88156921 148.114497 13.4631287"></polygon>
                <polygon id="Star-1" fill="#D0021B" points="86 11.3000097 81.8855032 13.4631287 82.6713022 8.88156921 79.3426044 5.63689077 83.9427516 4.96845025 86 0.800009727 88.0572484 4.96845025 92.6573956 5.63689077 89.3286978 8.88156921 90.1144968 13.4631287"></polygon>
                <polygon id="Star-1" fill="#E69900" points="24 11.3000097 19.8855032 13.4631287 20.6713022 8.88156921 17.3426044 5.63689077 21.9427516 4.96845025 24 0.800009727 26.0572484 4.96845025 30.6573956 5.63689077 27.3286978 8.88156921 28.1144968 13.4631287"></polygon>
                <polygon id="Star-1" fill="#E69900" points="84 130.30001 79.8855032 132.463129 80.6713022 127.881569 77.3426044 124.636891 81.9427516 123.96845 84 119.80001 86.0572484 123.96845 90.6573956 124.636891 87.3286978 127.881569 88.1144968 132.463129"></polygon>
                <polygon id="Star-1" fill="#8AB82E" points="147 130.30001 142.885503 132.463129 143.671302 127.881569 140.342604 124.636891 144.942752 123.96845 147 119.80001 149.057248 123.96845 153.657396 124.636891 150.328698 127.881569 151.114497 132.463129"></polygon>
                <polygon id="Star-1" fill="#8AB82E" points="207 130.30001 202.885503 132.463129 203.671302 127.881569 200.342604 124.636891 204.942752 123.96845 207 119.80001 209.057248 123.96845 213.657396 124.636891 210.328698 127.881569 211.114497 132.463129"></polygon>
                <polygon id="Star-1" fill="#8AB82E" points="269 130.30001 264.885503 132.463129 265.671302 127.881569 262.342604 124.636891 266.942752 123.96845 269 119.80001 271.057248 123.96845 275.657396 124.636891 272.328698 127.881569 273.114497 132.463129"></polygon>
                <polygon id="Star-1" fill="#E69900" points="24 130.30001 19.8855032 132.463129 20.6713022 127.881569 17.3426044 124.636891 21.9427516 123.96845 24 119.80001 26.0572484 123.96845 30.6573956 124.636891 27.3286978 127.881569 28.1144968 132.463129"></polygon>
                <g id="%---convert-to-paths-before-SVG-" transform="translate(9.000000, 41.800010)" fill="#FFFFFF">
                    <path d="M2.432,10.848 C2.432,11.648 2.944,12.096 3.632,12.096 C4.32,12.096 4.832,11.648 4.832,10.848 L4.832,1.744 C4.832,1.104 4.448,0.608 3.76,0.608 L1.488,0.608 C0.8,0.608 0.4,1.152 0.4,1.712 C0.4,2.256 0.72,2.816 1.488,2.816 L2.432,2.816 L2.432,10.848 Z M10.512,10.016 C8.88,10.016 8.768,7.44 8.768,6.304 C8.768,5.088 8.88,2.592 10.512,2.592 C12.144,2.592 12.256,5.088 12.256,6.304 C12.256,7.44 12.144,10.016 10.512,10.016 L10.512,10.016 Z M10.512,12.192 C13.744,12.192 14.752,8.912 14.752,6.304 C14.752,3.696 13.744,0.416 10.512,0.416 C7.28,0.416 6.272,3.696 6.272,6.304 C6.272,8.912 7.28,12.192 10.512,12.192 L10.512,12.192 Z M19.696,10.016 C18.064,10.016 17.952,7.44 17.952,6.304 C17.952,5.088 18.064,2.592 19.696,2.592 C21.328,2.592 21.44,5.088 21.44,6.304 C21.44,7.44 21.328,10.016 19.696,10.016 L19.696,10.016 Z M19.696,12.192 C22.928,12.192 23.936,8.912 23.936,6.304 C23.936,3.696 22.928,0.416 19.696,0.416 C16.464,0.416 15.456,3.696 15.456,6.304 C15.456,8.912 16.464,12.192 19.696,12.192 L19.696,12.192 Z M27.248,3.952 C26.72,3.952 26.416,3.52 26.416,3.008 C26.416,2.496 26.72,2.048 27.248,2.048 C27.776,2.048 28.08,2.496 28.08,3.008 C28.08,3.52 27.776,3.952 27.248,3.952 L27.248,3.952 Z M27.248,5.584 C28.672,5.584 29.712,4.4 29.712,3.008 C29.712,1.616 28.672,0.416 27.248,0.416 C25.824,0.416 24.784,1.616 24.784,3.008 C24.784,4.4 25.824,5.584 27.248,5.584 L27.248,5.584 Z M32.88,12.192 C34.304,12.192 35.344,11.008 35.344,9.616 C35.344,8.224 34.304,7.024 32.88,7.024 C31.456,7.024 30.416,8.224 30.416,9.616 C30.416,11.008 31.456,12.192 32.88,12.192 L32.88,12.192 Z M32.88,10.56 C32.352,10.56 32.048,10.128 32.048,9.616 C32.048,9.104 32.352,8.656 32.88,8.656 C33.408,8.656 33.712,9.104 33.712,9.616 C33.712,10.128 33.408,10.56 32.88,10.56 L32.88,10.56 Z M26.672,10.816 C26.608,10.944 26.512,11.168 26.512,11.408 C26.512,11.888 27.008,12.288 27.424,12.288 C27.808,12.288 27.904,12.096 28.144,11.76 L33.52,1.696 C33.648,1.456 33.648,1.344 33.648,1.216 C33.648,0.72 33.2,0.32 32.704,0.32 C32.336,0.32 32.176,0.432 31.968,0.832 L26.672,10.816 Z" id="100%"></path>
                    <path d="M65.52,10.4 C65.408,10.624 65.36,10.768 65.36,10.96 C65.36,11.424 65.808,12.096 66.688,12.096 C67.408,12.096 67.584,11.776 68.032,10.88 L72,2.816 C72.192,2.416 72.368,2.08 72.368,1.76 C72.368,1.344 72.032,0.608 71.216,0.608 L65.424,0.608 C64.544,0.608 64.24,1.152 64.24,1.712 C64.24,2.256 64.56,2.816 65.424,2.816 L69.52,2.816 L65.52,10.4 Z M76.608,2.816 L79.616,2.816 C79.904,2.816 80.736,2.72 80.736,1.616 C80.736,1.04 80.304,0.608 79.568,0.608 L75.712,0.608 C74.944,0.608 74.64,0.88 74.464,2.128 L74.064,5.504 C74.048,5.68 74.016,5.84 74.016,6.048 C74.016,6.32 74.336,6.8 74.96,6.8 C75.776,6.8 75.92,6.272 76.848,6.272 C77.84,6.272 78.384,6.928 78.384,7.888 C78.384,8.896 77.808,9.984 76.688,9.984 C75.616,9.984 74.848,8.96 74.208,8.96 C73.616,8.96 73.12,9.456 73.12,10.048 C73.12,11.456 75.504,12.192 76.64,12.192 C79.408,12.192 80.88,10.432 80.88,7.76 C80.88,5.888 79.504,4.352 77.568,4.352 C77.168,4.352 76.752,4.432 76.368,4.512 L76.608,2.816 Z M84.752,3.952 C84.224,3.952 83.92,3.52 83.92,3.008 C83.92,2.496 84.224,2.048 84.752,2.048 C85.28,2.048 85.584,2.496 85.584,3.008 C85.584,3.52 85.28,3.952 84.752,3.952 L84.752,3.952 Z M84.752,5.584 C86.176,5.584 87.216,4.4 87.216,3.008 C87.216,1.616 86.176,0.416 84.752,0.416 C83.328,0.416 82.288,1.616 82.288,3.008 C82.288,4.4 83.328,5.584 84.752,5.584 L84.752,5.584 Z M90.384,12.192 C91.808,12.192 92.848,11.008 92.848,9.616 C92.848,8.224 91.808,7.024 90.384,7.024 C88.96,7.024 87.92,8.224 87.92,9.616 C87.92,11.008 88.96,12.192 90.384,12.192 L90.384,12.192 Z M90.384,10.56 C89.856,10.56 89.552,10.128 89.552,9.616 C89.552,9.104 89.856,8.656 90.384,8.656 C90.912,8.656 91.216,9.104 91.216,9.616 C91.216,10.128 90.912,10.56 90.384,10.56 L90.384,10.56 Z M84.176,10.816 C84.112,10.944 84.016,11.168 84.016,11.408 C84.016,11.888 84.512,12.288 84.928,12.288 C85.312,12.288 85.408,12.096 85.648,11.76 L91.024,1.696 C91.152,1.456 91.152,1.344 91.152,1.216 C91.152,0.72 90.704,0.32 90.208,0.32 C89.84,0.32 89.68,0.432 89.472,0.832 L84.176,10.816 Z" id="75%"></path>
                    <path d="M127,2.816 L130.008,2.816 C130.296,2.816 131.128,2.72 131.128,1.616 C131.128,1.04 130.696,0.608 129.96,0.608 L126.104,0.608 C125.336,0.608 125.032,0.88 124.856,2.128 L124.456,5.504 C124.44,5.68 124.408,5.84 124.408,6.048 C124.408,6.32 124.728,6.8 125.352,6.8 C126.168,6.8 126.312,6.272 127.24,6.272 C128.232,6.272 128.776,6.928 128.776,7.888 C128.776,8.896 128.2,9.984 127.08,9.984 C126.008,9.984 125.24,8.96 124.6,8.96 C124.008,8.96 123.512,9.456 123.512,10.048 C123.512,11.456 125.896,12.192 127.032,12.192 C129.8,12.192 131.272,10.432 131.272,7.76 C131.272,5.888 129.896,4.352 127.96,4.352 C127.56,4.352 127.144,4.432 126.76,4.512 L127,2.816 Z M136.776,10.016 C135.144,10.016 135.032,7.44 135.032,6.304 C135.032,5.088 135.144,2.592 136.776,2.592 C138.408,2.592 138.52,5.088 138.52,6.304 C138.52,7.44 138.408,10.016 136.776,10.016 L136.776,10.016 Z M136.776,12.192 C140.008,12.192 141.016,8.912 141.016,6.304 C141.016,3.696 140.008,0.416 136.776,0.416 C133.544,0.416 132.536,3.696 132.536,6.304 C132.536,8.912 133.544,12.192 136.776,12.192 L136.776,12.192 Z M144.328,3.952 C143.8,3.952 143.496,3.52 143.496,3.008 C143.496,2.496 143.8,2.048 144.328,2.048 C144.856,2.048 145.16,2.496 145.16,3.008 C145.16,3.52 144.856,3.952 144.328,3.952 L144.328,3.952 Z M144.328,5.584 C145.752,5.584 146.792,4.4 146.792,3.008 C146.792,1.616 145.752,0.416 144.328,0.416 C142.904,0.416 141.864,1.616 141.864,3.008 C141.864,4.4 142.904,5.584 144.328,5.584 L144.328,5.584 Z M149.96,12.192 C151.384,12.192 152.424,11.008 152.424,9.616 C152.424,8.224 151.384,7.024 149.96,7.024 C148.536,7.024 147.496,8.224 147.496,9.616 C147.496,11.008 148.536,12.192 149.96,12.192 L149.96,12.192 Z M149.96,10.56 C149.432,10.56 149.128,10.128 149.128,9.616 C149.128,9.104 149.432,8.656 149.96,8.656 C150.488,8.656 150.792,9.104 150.792,9.616 C150.792,10.128 150.488,10.56 149.96,10.56 L149.96,10.56 Z M143.752,10.816 C143.688,10.944 143.592,11.168 143.592,11.408 C143.592,11.888 144.088,12.288 144.504,12.288 C144.888,12.288 144.984,12.096 145.224,11.76 L150.6,1.696 C150.728,1.456 150.728,1.344 150.728,1.216 C150.728,0.72 150.28,0.32 149.784,0.32 C149.416,0.32 149.256,0.432 149.048,0.832 L143.752,10.816 Z" id="50%"></path>
                    <path d="M188.288,9.888 C189.648,8.176 192.128,5.968 192.128,3.744 C192.128,1.712 190.544,0.416 188.576,0.416 C186.608,0.416 184.816,2.032 184.816,4.048 C184.816,4.672 185.216,5.216 185.984,5.216 C187.52,5.216 186.64,2.624 188.48,2.624 C189.136,2.624 189.632,3.2 189.632,3.856 C189.632,4.432 189.36,4.928 189.072,5.344 C187.856,7.104 186.416,8.544 185.088,10.128 C184.928,10.32 184.72,10.608 184.72,10.944 C184.72,11.68 185.264,12 185.968,12 L191.312,12 C191.92,12 192.464,11.68 192.464,10.944 C192.464,10.208 191.92,9.888 191.216,9.888 L188.288,9.888 Z M197.184,2.816 L200.192,2.816 C200.48,2.816 201.312,2.72 201.312,1.616 C201.312,1.04 200.88,0.608 200.144,0.608 L196.288,0.608 C195.52,0.608 195.216,0.88 195.04,2.128 L194.64,5.504 C194.624,5.68 194.592,5.84 194.592,6.048 C194.592,6.32 194.912,6.8 195.536,6.8 C196.352,6.8 196.496,6.272 197.424,6.272 C198.416,6.272 198.96,6.928 198.96,7.888 C198.96,8.896 198.384,9.984 197.264,9.984 C196.192,9.984 195.424,8.96 194.784,8.96 C194.192,8.96 193.696,9.456 193.696,10.048 C193.696,11.456 196.08,12.192 197.216,12.192 C199.984,12.192 201.456,10.432 201.456,7.76 C201.456,5.888 200.08,4.352 198.144,4.352 C197.744,4.352 197.328,4.432 196.944,4.512 L197.184,2.816 Z M205.328,3.952 C204.8,3.952 204.496,3.52 204.496,3.008 C204.496,2.496 204.8,2.048 205.328,2.048 C205.856,2.048 206.16,2.496 206.16,3.008 C206.16,3.52 205.856,3.952 205.328,3.952 L205.328,3.952 Z M205.328,5.584 C206.752,5.584 207.792,4.4 207.792,3.008 C207.792,1.616 206.752,0.416 205.328,0.416 C203.904,0.416 202.864,1.616 202.864,3.008 C202.864,4.4 203.904,5.584 205.328,5.584 L205.328,5.584 Z M210.96,12.192 C212.384,12.192 213.424,11.008 213.424,9.616 C213.424,8.224 212.384,7.024 210.96,7.024 C209.536,7.024 208.496,8.224 208.496,9.616 C208.496,11.008 209.536,12.192 210.96,12.192 L210.96,12.192 Z M210.96,10.56 C210.432,10.56 210.128,10.128 210.128,9.616 C210.128,9.104 210.432,8.656 210.96,8.656 C211.488,8.656 211.792,9.104 211.792,9.616 C211.792,10.128 211.488,10.56 210.96,10.56 L210.96,10.56 Z M204.752,10.816 C204.688,10.944 204.592,11.168 204.592,11.408 C204.592,11.888 205.088,12.288 205.504,12.288 C205.888,12.288 205.984,12.096 206.224,11.76 L211.6,1.696 C211.728,1.456 211.728,1.344 211.728,1.216 C211.728,0.72 211.28,0.32 210.784,0.32 C210.416,0.32 210.256,0.432 210.048,0.832 L204.752,10.816 Z" id="25%"></path>
                    <path d="M252,2.816 L255.008,2.816 C255.296,2.816 256.128,2.72 256.128,1.616 C256.128,1.04 255.696,0.608 254.96,0.608 L251.104,0.608 C250.336,0.608 250.032,0.88 249.856,2.128 L249.456,5.504 C249.44,5.68 249.408,5.84 249.408,6.048 C249.408,6.32 249.728,6.8 250.352,6.8 C251.168,6.8 251.312,6.272 252.24,6.272 C253.232,6.272 253.776,6.928 253.776,7.888 C253.776,8.896 253.2,9.984 252.08,9.984 C251.008,9.984 250.24,8.96 249.6,8.96 C249.008,8.96 248.512,9.456 248.512,10.048 C248.512,11.456 250.896,12.192 252.032,12.192 C254.8,12.192 256.272,10.432 256.272,7.76 C256.272,5.888 254.896,4.352 252.96,4.352 C252.56,4.352 252.144,4.432 251.76,4.512 L252,2.816 Z M260.144,3.952 C259.616,3.952 259.312,3.52 259.312,3.008 C259.312,2.496 259.616,2.048 260.144,2.048 C260.672,2.048 260.976,2.496 260.976,3.008 C260.976,3.52 260.672,3.952 260.144,3.952 L260.144,3.952 Z M260.144,5.584 C261.568,5.584 262.608,4.4 262.608,3.008 C262.608,1.616 261.568,0.416 260.144,0.416 C258.72,0.416 257.68,1.616 257.68,3.008 C257.68,4.4 258.72,5.584 260.144,5.584 L260.144,5.584 Z M265.776,12.192 C267.2,12.192 268.24,11.008 268.24,9.616 C268.24,8.224 267.2,7.024 265.776,7.024 C264.352,7.024 263.312,8.224 263.312,9.616 C263.312,11.008 264.352,12.192 265.776,12.192 L265.776,12.192 Z M265.776,10.56 C265.248,10.56 264.944,10.128 264.944,9.616 C264.944,9.104 265.248,8.656 265.776,8.656 C266.304,8.656 266.608,9.104 266.608,9.616 C266.608,10.128 266.304,10.56 265.776,10.56 L265.776,10.56 Z M259.568,10.816 C259.504,10.944 259.408,11.168 259.408,11.408 C259.408,11.888 259.904,12.288 260.32,12.288 C260.704,12.288 260.8,12.096 261.04,11.76 L266.416,1.696 C266.544,1.456 266.544,1.344 266.544,1.216 C266.544,0.72 266.096,0.32 265.6,0.32 C265.232,0.32 265.072,0.432 264.864,0.832 L259.568,10.816 Z" id="5%"></path>
                    <path d="M8.592,120.416 C6.224,120.416 4.576,122.304 4.576,124.384 C4.576,126.272 6,127.968 7.92,127.968 C8.272,127.968 8.64,127.904 8.928,127.776 L8.96,127.808 C8.432,128.56 7.392,129.584 6.752,130.368 C6.56,130.608 6.416,130.8 6.416,131.024 C6.416,131.6 7.104,132.192 7.552,132.192 C7.68,132.192 7.856,132.192 8.032,132.08 C8.224,131.952 8.416,131.824 8.544,131.696 C10.16,130.192 12.608,126.8 12.608,124.384 C12.608,122.256 11.056,120.416 8.592,120.416 L8.592,120.416 Z M8.592,126.048 C7.584,126.048 7.072,125.232 7.072,124.384 C7.072,123.456 7.68,122.72 8.592,122.72 C9.552,122.72 10.112,123.488 10.112,124.384 C10.112,125.328 9.504,126.048 8.592,126.048 L8.592,126.048 Z M17.184,122.816 L20.192,122.816 C20.48,122.816 21.312,122.72 21.312,121.616 C21.312,121.04 20.88,120.608 20.144,120.608 L16.288,120.608 C15.52,120.608 15.216,120.88 15.04,122.128 L14.64,125.504 C14.624,125.68 14.592,125.84 14.592,126.048 C14.592,126.32 14.912,126.8 15.536,126.8 C16.352,126.8 16.496,126.272 17.424,126.272 C18.416,126.272 18.96,126.928 18.96,127.888 C18.96,128.896 18.384,129.984 17.264,129.984 C16.192,129.984 15.424,128.96 14.784,128.96 C14.192,128.96 13.696,129.456 13.696,130.048 C13.696,131.456 16.08,132.192 17.216,132.192 C19.984,132.192 21.456,130.432 21.456,127.76 C21.456,125.888 20.08,124.352 18.144,124.352 C17.744,124.352 17.328,124.432 16.944,124.512 L17.184,122.816 Z M25.328,123.952 C24.8,123.952 24.496,123.52 24.496,123.008 C24.496,122.496 24.8,122.048 25.328,122.048 C25.856,122.048 26.16,122.496 26.16,123.008 C26.16,123.52 25.856,123.952 25.328,123.952 L25.328,123.952 Z M25.328,125.584 C26.752,125.584 27.792,124.4 27.792,123.008 C27.792,121.616 26.752,120.416 25.328,120.416 C23.904,120.416 22.864,121.616 22.864,123.008 C22.864,124.4 23.904,125.584 25.328,125.584 L25.328,125.584 Z M30.96,132.192 C32.384,132.192 33.424,131.008 33.424,129.616 C33.424,128.224 32.384,127.024 30.96,127.024 C29.536,127.024 28.496,128.224 28.496,129.616 C28.496,131.008 29.536,132.192 30.96,132.192 L30.96,132.192 Z M30.96,130.56 C30.432,130.56 30.128,130.128 30.128,129.616 C30.128,129.104 30.432,128.656 30.96,128.656 C31.488,128.656 31.792,129.104 31.792,129.616 C31.792,130.128 31.488,130.56 30.96,130.56 L30.96,130.56 Z M24.752,130.816 C24.688,130.944 24.592,131.168 24.592,131.408 C24.592,131.888 25.088,132.288 25.504,132.288 C25.888,132.288 25.984,132.096 26.224,131.76 L31.6,121.696 C31.728,121.456 31.728,121.344 31.728,121.216 C31.728,120.72 31.28,120.32 30.784,120.32 C30.416,120.32 30.256,120.432 30.048,120.832 L24.752,130.816 Z" id="95%"></path>
                    <path d="M65.52,130.4 C65.408,130.624 65.36,130.768 65.36,130.96 C65.36,131.424 65.808,132.096 66.688,132.096 C67.408,132.096 67.584,131.776 68.032,130.88 L72,122.816 C72.192,122.416 72.368,122.08 72.368,121.76 C72.368,121.344 72.032,120.608 71.216,120.608 L65.424,120.608 C64.544,120.608 64.24,121.152 64.24,121.712 C64.24,122.256 64.56,122.816 65.424,122.816 L69.52,122.816 L65.52,130.4 Z M76.608,122.816 L79.616,122.816 C79.904,122.816 80.736,122.72 80.736,121.616 C80.736,121.04 80.304,120.608 79.568,120.608 L75.712,120.608 C74.944,120.608 74.64,120.88 74.464,122.128 L74.064,125.504 C74.048,125.68 74.016,125.84 74.016,126.048 C74.016,126.32 74.336,126.8 74.96,126.8 C75.776,126.8 75.92,126.272 76.848,126.272 C77.84,126.272 78.384,126.928 78.384,127.888 C78.384,128.896 77.808,129.984 76.688,129.984 C75.616,129.984 74.848,128.96 74.208,128.96 C73.616,128.96 73.12,129.456 73.12,130.048 C73.12,131.456 75.504,132.192 76.64,132.192 C79.408,132.192 80.88,130.432 80.88,127.76 C80.88,125.888 79.504,124.352 77.568,124.352 C77.168,124.352 76.752,124.432 76.368,124.512 L76.608,122.816 Z M84.752,123.952 C84.224,123.952 83.92,123.52 83.92,123.008 C83.92,122.496 84.224,122.048 84.752,122.048 C85.28,122.048 85.584,122.496 85.584,123.008 C85.584,123.52 85.28,123.952 84.752,123.952 L84.752,123.952 Z M84.752,125.584 C86.176,125.584 87.216,124.4 87.216,123.008 C87.216,121.616 86.176,120.416 84.752,120.416 C83.328,120.416 82.288,121.616 82.288,123.008 C82.288,124.4 83.328,125.584 84.752,125.584 L84.752,125.584 Z M90.384,132.192 C91.808,132.192 92.848,131.008 92.848,129.616 C92.848,128.224 91.808,127.024 90.384,127.024 C88.96,127.024 87.92,128.224 87.92,129.616 C87.92,131.008 88.96,132.192 90.384,132.192 L90.384,132.192 Z M90.384,130.56 C89.856,130.56 89.552,130.128 89.552,129.616 C89.552,129.104 89.856,128.656 90.384,128.656 C90.912,128.656 91.216,129.104 91.216,129.616 C91.216,130.128 90.912,130.56 90.384,130.56 L90.384,130.56 Z M84.176,130.816 C84.112,130.944 84.016,131.168 84.016,131.408 C84.016,131.888 84.512,132.288 84.928,132.288 C85.312,132.288 85.408,132.096 85.648,131.76 L91.024,121.696 C91.152,121.456 91.152,121.344 91.152,121.216 C91.152,120.72 90.704,120.32 90.208,120.32 C89.84,120.32 89.68,120.432 89.472,120.832 L84.176,130.816 Z" id="75%"></path>
                    <path d="M127,122.816 L130.008,122.816 C130.296,122.816 131.128,122.72 131.128,121.616 C131.128,121.04 130.696,120.608 129.96,120.608 L126.104,120.608 C125.336,120.608 125.032,120.88 124.856,122.128 L124.456,125.504 C124.44,125.68 124.408,125.84 124.408,126.048 C124.408,126.32 124.728,126.8 125.352,126.8 C126.168,126.8 126.312,126.272 127.24,126.272 C128.232,126.272 128.776,126.928 128.776,127.888 C128.776,128.896 128.2,129.984 127.08,129.984 C126.008,129.984 125.24,128.96 124.6,128.96 C124.008,128.96 123.512,129.456 123.512,130.048 C123.512,131.456 125.896,132.192 127.032,132.192 C129.8,132.192 131.272,130.432 131.272,127.76 C131.272,125.888 129.896,124.352 127.96,124.352 C127.56,124.352 127.144,124.432 126.76,124.512 L127,122.816 Z M136.776,130.016 C135.144,130.016 135.032,127.44 135.032,126.304 C135.032,125.088 135.144,122.592 136.776,122.592 C138.408,122.592 138.52,125.088 138.52,126.304 C138.52,127.44 138.408,130.016 136.776,130.016 L136.776,130.016 Z M136.776,132.192 C140.008,132.192 141.016,128.912 141.016,126.304 C141.016,123.696 140.008,120.416 136.776,120.416 C133.544,120.416 132.536,123.696 132.536,126.304 C132.536,128.912 133.544,132.192 136.776,132.192 L136.776,132.192 Z M144.328,123.952 C143.8,123.952 143.496,123.52 143.496,123.008 C143.496,122.496 143.8,122.048 144.328,122.048 C144.856,122.048 145.16,122.496 145.16,123.008 C145.16,123.52 144.856,123.952 144.328,123.952 L144.328,123.952 Z M144.328,125.584 C145.752,125.584 146.792,124.4 146.792,123.008 C146.792,121.616 145.752,120.416 144.328,120.416 C142.904,120.416 141.864,121.616 141.864,123.008 C141.864,124.4 142.904,125.584 144.328,125.584 L144.328,125.584 Z M149.96,132.192 C151.384,132.192 152.424,131.008 152.424,129.616 C152.424,128.224 151.384,127.024 149.96,127.024 C148.536,127.024 147.496,128.224 147.496,129.616 C147.496,131.008 148.536,132.192 149.96,132.192 L149.96,132.192 Z M149.96,130.56 C149.432,130.56 149.128,130.128 149.128,129.616 C149.128,129.104 149.432,128.656 149.96,128.656 C150.488,128.656 150.792,129.104 150.792,129.616 C150.792,130.128 150.488,130.56 149.96,130.56 L149.96,130.56 Z M143.752,130.816 C143.688,130.944 143.592,131.168 143.592,131.408 C143.592,131.888 144.088,132.288 144.504,132.288 C144.888,132.288 144.984,132.096 145.224,131.76 L150.6,121.696 C150.728,121.456 150.728,121.344 150.728,121.216 C150.728,120.72 150.28,120.32 149.784,120.32 C149.416,120.32 149.256,120.432 149.048,120.832 L143.752,130.816 Z" id="50%"></path>
                    <path d="M188.288,129.888 C189.648,128.176 192.128,125.968 192.128,123.744 C192.128,121.712 190.544,120.416 188.576,120.416 C186.608,120.416 184.816,122.032 184.816,124.048 C184.816,124.672 185.216,125.216 185.984,125.216 C187.52,125.216 186.64,122.624 188.48,122.624 C189.136,122.624 189.632,123.2 189.632,123.856 C189.632,124.432 189.36,124.928 189.072,125.344 C187.856,127.104 186.416,128.544 185.088,130.128 C184.928,130.32 184.72,130.608 184.72,130.944 C184.72,131.68 185.264,132 185.968,132 L191.312,132 C191.92,132 192.464,131.68 192.464,130.944 C192.464,130.208 191.92,129.888 191.216,129.888 L188.288,129.888 Z M197.184,122.816 L200.192,122.816 C200.48,122.816 201.312,122.72 201.312,121.616 C201.312,121.04 200.88,120.608 200.144,120.608 L196.288,120.608 C195.52,120.608 195.216,120.88 195.04,122.128 L194.64,125.504 C194.624,125.68 194.592,125.84 194.592,126.048 C194.592,126.32 194.912,126.8 195.536,126.8 C196.352,126.8 196.496,126.272 197.424,126.272 C198.416,126.272 198.96,126.928 198.96,127.888 C198.96,128.896 198.384,129.984 197.264,129.984 C196.192,129.984 195.424,128.96 194.784,128.96 C194.192,128.96 193.696,129.456 193.696,130.048 C193.696,131.456 196.08,132.192 197.216,132.192 C199.984,132.192 201.456,130.432 201.456,127.76 C201.456,125.888 200.08,124.352 198.144,124.352 C197.744,124.352 197.328,124.432 196.944,124.512 L197.184,122.816 Z M205.328,123.952 C204.8,123.952 204.496,123.52 204.496,123.008 C204.496,122.496 204.8,122.048 205.328,122.048 C205.856,122.048 206.16,122.496 206.16,123.008 C206.16,123.52 205.856,123.952 205.328,123.952 L205.328,123.952 Z M205.328,125.584 C206.752,125.584 207.792,124.4 207.792,123.008 C207.792,121.616 206.752,120.416 205.328,120.416 C203.904,120.416 202.864,121.616 202.864,123.008 C202.864,124.4 203.904,125.584 205.328,125.584 L205.328,125.584 Z M210.96,132.192 C212.384,132.192 213.424,131.008 213.424,129.616 C213.424,128.224 212.384,127.024 210.96,127.024 C209.536,127.024 208.496,128.224 208.496,129.616 C208.496,131.008 209.536,132.192 210.96,132.192 L210.96,132.192 Z M210.96,130.56 C210.432,130.56 210.128,130.128 210.128,129.616 C210.128,129.104 210.432,128.656 210.96,128.656 C211.488,128.656 211.792,129.104 211.792,129.616 C211.792,130.128 211.488,130.56 210.96,130.56 L210.96,130.56 Z M204.752,130.816 C204.688,130.944 204.592,131.168 204.592,131.408 C204.592,131.888 205.088,132.288 205.504,132.288 C205.888,132.288 205.984,132.096 206.224,131.76 L211.6,121.696 C211.728,121.456 211.728,121.344 211.728,121.216 C211.728,120.72 211.28,120.32 210.784,120.32 C210.416,120.32 210.256,120.432 210.048,120.832 L204.752,130.816 Z" id="25%"></path>
                    <path d="M252,122.816 L255.008,122.816 C255.296,122.816 256.128,122.72 256.128,121.616 C256.128,121.04 255.696,120.608 254.96,120.608 L251.104,120.608 C250.336,120.608 250.032,120.88 249.856,122.128 L249.456,125.504 C249.44,125.68 249.408,125.84 249.408,126.048 C249.408,126.32 249.728,126.8 250.352,126.8 C251.168,126.8 251.312,126.272 252.24,126.272 C253.232,126.272 253.776,126.928 253.776,127.888 C253.776,128.896 253.2,129.984 252.08,129.984 C251.008,129.984 250.24,128.96 249.6,128.96 C249.008,128.96 248.512,129.456 248.512,130.048 C248.512,131.456 250.896,132.192 252.032,132.192 C254.8,132.192 256.272,130.432 256.272,127.76 C256.272,125.888 254.896,124.352 252.96,124.352 C252.56,124.352 252.144,124.432 251.76,124.512 L252,122.816 Z M260.144,123.952 C259.616,123.952 259.312,123.52 259.312,123.008 C259.312,122.496 259.616,122.048 260.144,122.048 C260.672,122.048 260.976,122.496 260.976,123.008 C260.976,123.52 260.672,123.952 260.144,123.952 L260.144,123.952 Z M260.144,125.584 C261.568,125.584 262.608,124.4 262.608,123.008 C262.608,121.616 261.568,120.416 260.144,120.416 C258.72,120.416 257.68,121.616 257.68,123.008 C257.68,124.4 258.72,125.584 260.144,125.584 L260.144,125.584 Z M265.776,132.192 C267.2,132.192 268.24,131.008 268.24,129.616 C268.24,128.224 267.2,127.024 265.776,127.024 C264.352,127.024 263.312,128.224 263.312,129.616 C263.312,131.008 264.352,132.192 265.776,132.192 L265.776,132.192 Z M265.776,130.56 C265.248,130.56 264.944,130.128 264.944,129.616 C264.944,129.104 265.248,128.656 265.776,128.656 C266.304,128.656 266.608,129.104 266.608,129.616 C266.608,130.128 266.304,130.56 265.776,130.56 L265.776,130.56 Z M259.568,130.816 C259.504,130.944 259.408,131.168 259.408,131.408 C259.408,131.888 259.904,132.288 260.32,132.288 C260.704,132.288 260.8,132.096 261.04,131.76 L266.416,121.696 C266.544,121.456 266.544,121.344 266.544,121.216 C266.544,120.72 266.096,120.32 265.6,120.32 C265.232,120.32 265.072,120.432 264.864,120.832 L259.568,130.816 Z" id="5%"></path>
                </g>
                <g id="hex" transform="translate(118.000000, 202.000000)" fill="#4A4A4A">
                    <path d="M65.334,8.77600973 L66.314,8.77600973 C66.636,8.77600973 66.888,8.62200973 66.888,8.31400973 C66.888,8.00600973 66.636,7.85200973 66.314,7.85200973 L65.46,7.85200973 L65.754,5.78000973 L66.734,5.78000973 C67.056,5.78000973 67.308,5.64000973 67.308,5.31800973 C67.308,5.01000973 67.056,4.85600973 66.734,4.85600973 L65.88,4.85600973 L66.16,2.81200973 C66.202,2.54600973 66.23,2.37800973 66.23,2.22400973 C66.23,1.97200973 66.09,1.74800973 65.754,1.74800973 C65.39,1.74800973 65.264,1.93000973 65.222,2.25200973 L64.858,4.85600973 L63.192,4.85600973 L63.472,2.81200973 C63.514,2.54600973 63.542,2.37800973 63.542,2.22400973 C63.542,1.97200973 63.402,1.74800973 63.066,1.74800973 C62.702,1.74800973 62.576,1.93000973 62.534,2.25200973 L62.17,4.85600973 L61.19,4.85600973 C60.868,4.85600973 60.616,5.01000973 60.616,5.31800973 C60.616,5.62600973 60.868,5.78000973 61.19,5.78000973 L62.044,5.78000973 L61.75,7.85200973 L60.77,7.85200973 C60.448,7.85200973 60.196,7.99200973 60.196,8.31400973 C60.196,8.62200973 60.448,8.77600973 60.77,8.77600973 L61.624,8.77600973 L61.344,10.8200097 C61.302,11.0860097 61.274,11.2540097 61.274,11.4080097 C61.274,11.6600097 61.414,11.8840097 61.75,11.8840097 C62.114,11.8840097 62.24,11.7020097 62.282,11.3800097 L62.646,8.77600973 L64.312,8.77600973 L64.032,10.8200097 C63.99,11.0860097 63.962,11.2540097 63.962,11.4080097 C63.962,11.6600097 64.102,11.8840097 64.438,11.8840097 C64.802,11.8840097 64.928,11.7020097 64.97,11.3800097 L65.334,8.77600973 Z M64.438,7.85200973 L62.772,7.85200973 L63.066,5.78000973 L64.732,5.78000973 L64.438,7.85200973 Z M70.052,10.7360097 L73.398,6.28400973 C74.042,5.44400973 74.084,4.80000973 74.084,4.22600973 C74.084,2.93800973 73.048,1.74800973 71.396,1.74800973 C69.338,1.74800973 68.218,3.21800973 68.218,4.87000973 C68.218,5.38800973 68.428,5.62600973 68.82,5.62600973 C69.086,5.62600973 69.366,5.50000973 69.366,5.06600973 C69.366,3.82000973 69.996,2.81200973 71.186,2.81200973 C72.082,2.81200973 72.768,3.45600973 72.768,4.36600973 C72.768,4.96800973 72.46,5.58400973 72.04,6.13000973 L68.596,10.7360097 C68.386,11.0300097 68.33,11.1420097 68.33,11.2960097 C68.33,11.5060097 68.484,11.8000097 69.002,11.8000097 L73.832,11.8000097 C74.126,11.8000097 74.364,11.5620097 74.364,11.2680097 C74.364,10.9740097 74.126,10.7360097 73.832,10.7360097 L70.052,10.7360097 Z M81.98,4.87000973 C81.98,4.43600973 81.644,4.26800973 81.406,4.26800973 C81.154,4.26800973 80.832,4.43600973 80.832,4.87000973 L80.832,5.26200973 L80.804,5.26200973 C80.23,4.63200973 79.628,4.26800973 78.774,4.26800973 C76.674,4.26800973 75.498,6.10200973 75.498,8.07600973 C75.498,10.0500097 76.674,11.8840097 78.774,11.8840097 C79.572,11.8840097 80.272,11.5200097 80.804,10.7640097 L80.832,10.7640097 L80.832,11.2820097 C80.832,11.7160097 81.154,11.8840097 81.406,11.8840097 C81.644,11.8840097 81.98,11.7160097 81.98,11.2820097 L81.98,4.87000973 Z M76.73,8.07600973 C76.73,6.81600973 77.262,5.33200973 78.774,5.33200973 C80.286,5.33200973 80.818,6.81600973 80.818,8.07600973 C80.818,9.33600973 80.286,10.8200097 78.774,10.8200097 C77.262,10.8200097 76.73,9.33600973 76.73,8.07600973 L76.73,8.07600973 Z M85.984,2.89600973 L88.826,2.89600973 C89.12,2.89600973 89.358,2.65800973 89.358,2.36400973 C89.358,2.07000973 89.12,1.83200973 88.826,1.83200973 L85.368,1.83200973 C85.074,1.83200973 84.948,1.90200973 84.906,2.15400973 L84.388,5.64000973 C84.346,5.94800973 84.29,6.31200973 84.29,6.46600973 C84.29,6.66200973 84.416,6.84400973 84.71,6.84400973 C85.06,6.84400973 85.494,6.46600973 86.404,6.46600973 C87.608,6.46600973 88.126,7.40400973 88.126,8.58000973 C88.126,9.74200973 87.412,10.7360097 86.222,10.7360097 C84.808,10.7360097 84.36,9.70000973 83.856,9.70000973 C83.548,9.70000973 83.408,9.98000973 83.408,10.2320097 C83.408,10.8340097 84.556,11.8840097 86.208,11.8840097 C88.224,11.8840097 89.442,10.4840097 89.442,8.34200973 C89.442,6.78800973 88.448,5.31800973 86.894,5.31800973 C86.432,5.31800973 85.984,5.38800973 85.578,5.59800973 L85.984,2.89600973 Z M96.96,8.86000973 C96.96,7.72600973 96.372,6.77400973 95.252,6.43800973 C96.036,5.96200973 96.428,5.15000973 96.428,4.32400973 C96.428,2.92400973 95.434,1.74800973 93.838,1.74800973 C92.186,1.74800973 91.22,2.93800973 91.22,4.26800973 C91.22,4.59000973 91.43,4.84200973 91.78,4.84200973 C91.99,4.84200973 92.326,4.82800973 92.368,4.26800973 C92.438,3.51200973 92.802,2.81200973 93.782,2.81200973 C94.636,2.81200973 95.196,3.48400973 95.196,4.43600973 C95.196,5.34600973 94.79,5.82200973 93.796,6.04600973 C93.334,6.14400973 93.152,6.29800973 93.152,6.57800973 C93.152,6.90000973 93.418,7.11000973 93.908,7.11000973 C94.832,7.11000973 95.644,7.48800973 95.644,8.97200973 C95.644,9.99400973 94.86,10.8200097 93.754,10.8200097 C92.816,10.8200097 92.312,10.2600097 92.074,9.54600973 C91.934,9.11200973 91.752,8.90200973 91.388,8.90200973 C91.094,8.90200973 90.87,9.15400973 90.87,9.58800973 C90.87,10.3300097 91.71,11.8840097 93.782,11.8840097 C95.56,11.8840097 96.96,10.7500097 96.96,8.86000973 L96.96,8.86000973 Z M101.524,11.8840097 C103.288,11.8840097 104.576,10.4420097 104.576,8.63600973 C104.576,6.90000973 103.68,5.36000973 102.056,5.36000973 C101.384,5.36000973 100.936,5.51400973 100.474,5.75200973 L100.446,5.75200973 C101.202,4.36600973 101.79,3.69400973 102.588,2.98000973 C102.938,2.67200973 103.078,2.51800973 103.078,2.32200973 C103.078,1.94400973 102.77,1.74800973 102.574,1.74800973 C102.406,1.74800973 102.252,1.81800973 102,2.02800973 C100.488,3.30200973 98.528,5.54200973 98.528,8.45400973 C98.528,10.4420097 99.788,11.8840097 101.524,11.8840097 L101.524,11.8840097 Z M99.76,8.58000973 C99.76,7.43200973 100.292,6.42400973 101.51,6.42400973 C102.728,6.42400973 103.26,7.26400973 103.26,8.58000973 C103.26,9.74200973 102.728,10.7360097 101.51,10.7360097 C100.292,10.7360097 99.76,9.74200973 99.76,8.58000973 L99.76,8.58000973 Z M107.6,11.2260097 C107.6,11.6320097 107.838,11.8840097 108.216,11.8840097 C108.594,11.8840097 108.832,11.6320097 108.832,11.2260097 L108.832,2.16800973 C108.832,1.86000973 108.692,1.83200973 108.454,1.83200973 L106.312,1.83200973 C106.018,1.83200973 105.78,2.07000973 105.78,2.36400973 C105.78,2.65800973 106.018,2.89600973 106.312,2.89600973 L107.6,2.89600973 L107.6,11.2260097 Z" id="#2A5361"></path>
                    <path d="M5.334,8.77600973 L6.314,8.77600973 C6.636,8.77600973 6.888,8.62200973 6.888,8.31400973 C6.888,8.00600973 6.636,7.85200973 6.314,7.85200973 L5.46,7.85200973 L5.754,5.78000973 L6.734,5.78000973 C7.056,5.78000973 7.308,5.64000973 7.308,5.31800973 C7.308,5.01000973 7.056,4.85600973 6.734,4.85600973 L5.88,4.85600973 L6.16,2.81200973 C6.202,2.54600973 6.23,2.37800973 6.23,2.22400973 C6.23,1.97200973 6.09,1.74800973 5.754,1.74800973 C5.39,1.74800973 5.264,1.93000973 5.222,2.25200973 L4.858,4.85600973 L3.192,4.85600973 L3.472,2.81200973 C3.514,2.54600973 3.542,2.37800973 3.542,2.22400973 C3.542,1.97200973 3.402,1.74800973 3.066,1.74800973 C2.702,1.74800973 2.576,1.93000973 2.534,2.25200973 L2.17,4.85600973 L1.19,4.85600973 C0.868,4.85600973 0.616,5.01000973 0.616,5.31800973 C0.616,5.62600973 0.868,5.78000973 1.19,5.78000973 L2.044,5.78000973 L1.75,7.85200973 L0.77,7.85200973 C0.448,7.85200973 0.196,7.99200973 0.196,8.31400973 C0.196,8.62200973 0.448,8.77600973 0.77,8.77600973 L1.624,8.77600973 L1.344,10.8200097 C1.302,11.0860097 1.274,11.2540097 1.274,11.4080097 C1.274,11.6600097 1.414,11.8840097 1.75,11.8840097 C2.114,11.8840097 2.24,11.7020097 2.282,11.3800097 L2.646,8.77600973 L4.312,8.77600973 L4.032,10.8200097 C3.99,11.0860097 3.962,11.2540097 3.962,11.4080097 C3.962,11.6600097 4.102,11.8840097 4.438,11.8840097 C4.802,11.8840097 4.928,11.7020097 4.97,11.3800097 L5.334,8.77600973 Z M4.438,7.85200973 L2.772,7.85200973 L3.066,5.78000973 L4.732,5.78000973 L4.438,7.85200973 Z M9.8,11.2260097 C9.8,11.6320097 10.038,11.8840097 10.416,11.8840097 C10.794,11.8840097 11.032,11.6320097 11.032,11.2260097 L11.032,2.16800973 C11.032,1.86000973 10.892,1.83200973 10.654,1.83200973 L8.512,1.83200973 C8.218,1.83200973 7.98,2.07000973 7.98,2.36400973 C7.98,2.65800973 8.218,2.89600973 8.512,2.89600973 L9.8,2.89600973 L9.8,11.2260097 Z M12.922,8.07600973 C12.922,10.0500097 14.014,11.8840097 16.282,11.8840097 C17.556,11.8840097 18.242,11.3800097 18.242,10.9180097 C18.242,10.5820097 18.046,10.4000097 17.766,10.4000097 C17.374,10.4000097 17.15,10.8200097 16.282,10.8200097 C14.756,10.8200097 14.154,9.33600973 14.154,8.07600973 C14.154,6.81600973 14.756,5.33200973 16.282,5.33200973 C17.122,5.33200973 17.304,5.72400973 17.78,5.72400973 C18.074,5.72400973 18.284,5.45800973 18.284,5.20600973 C18.284,4.70200973 17.542,4.26800973 16.282,4.26800973 C14.014,4.26800973 12.922,6.10200973 12.922,8.07600973 L12.922,8.07600973 Z M22.372,11.8840097 C24.136,11.8840097 25.424,10.4420097 25.424,8.63600973 C25.424,6.90000973 24.528,5.36000973 22.904,5.36000973 C22.232,5.36000973 21.784,5.51400973 21.322,5.75200973 L21.294,5.75200973 C22.05,4.36600973 22.638,3.69400973 23.436,2.98000973 C23.786,2.67200973 23.926,2.51800973 23.926,2.32200973 C23.926,1.94400973 23.618,1.74800973 23.422,1.74800973 C23.254,1.74800973 23.1,1.81800973 22.848,2.02800973 C21.336,3.30200973 19.376,5.54200973 19.376,8.45400973 C19.376,10.4420097 20.636,11.8840097 22.372,11.8840097 L22.372,11.8840097 Z M20.608,8.58000973 C20.608,7.43200973 21.14,6.42400973 22.358,6.42400973 C23.576,6.42400973 24.108,7.26400973 24.108,8.58000973 C24.108,9.74200973 23.576,10.7360097 22.358,10.7360097 C21.14,10.7360097 20.608,9.74200973 20.608,8.58000973 L20.608,8.58000973 Z M26.642,8.07600973 C26.642,10.0500097 27.734,11.8840097 30.002,11.8840097 C31.276,11.8840097 31.962,11.3800097 31.962,10.9180097 C31.962,10.5820097 31.766,10.4000097 31.486,10.4000097 C31.094,10.4000097 30.87,10.8200097 30.002,10.8200097 C28.476,10.8200097 27.874,9.33600973 27.874,8.07600973 C27.874,6.81600973 28.476,5.33200973 30.002,5.33200973 C30.842,5.33200973 31.024,5.72400973 31.5,5.72400973 C31.794,5.72400973 32.004,5.45800973 32.004,5.20600973 C32.004,4.70200973 31.262,4.26800973 30.002,4.26800973 C27.734,4.26800973 26.642,6.10200973 26.642,8.07600973 L26.642,8.07600973 Z M33.572,4.03000973 C33.572,5.09400973 33.978,5.68200973 34.874,6.24200973 C33.712,6.50800973 33.068,7.57200973 33.068,8.73400973 C33.068,10.3580097 34.174,11.8840097 36.12,11.8840097 C38.066,11.8840097 39.172,10.3580097 39.172,8.73400973 C39.172,7.57200973 38.528,6.50800973 37.366,6.24200973 C38.262,5.68200973 38.668,5.09400973 38.668,4.03000973 C38.668,2.50400973 37.38,1.74800973 36.12,1.74800973 C34.86,1.74800973 33.572,2.50400973 33.572,4.03000973 L33.572,4.03000973 Z M34.72,4.26800973 C34.72,3.42800973 35.238,2.81200973 36.12,2.81200973 C37.002,2.81200973 37.52,3.42800973 37.52,4.26800973 C37.52,5.12200973 37.002,5.73800973 36.12,5.73800973 C35.238,5.73800973 34.72,5.12200973 34.72,4.26800973 L34.72,4.26800973 Z M34.384,8.79000973 C34.384,7.76800973 34.972,6.80200973 36.12,6.80200973 C37.268,6.80200973 37.856,7.76800973 37.856,8.79000973 C37.856,10.0780097 37.044,10.8200097 36.12,10.8200097 C35.196,10.8200097 34.384,10.0780097 34.384,8.79000973 L34.384,8.79000973 Z M40.362,8.07600973 C40.362,10.0500097 41.454,11.8840097 43.722,11.8840097 C44.996,11.8840097 45.682,11.3800097 45.682,10.9180097 C45.682,10.5820097 45.486,10.4000097 45.206,10.4000097 C44.814,10.4000097 44.59,10.8200097 43.722,10.8200097 C42.196,10.8200097 41.594,9.33600973 41.594,8.07600973 C41.594,6.81600973 42.196,5.33200973 43.722,5.33200973 C44.562,5.33200973 44.744,5.72400973 45.22,5.72400973 C45.514,5.72400973 45.724,5.45800973 45.724,5.20600973 C45.724,4.70200973 44.982,4.26800973 43.722,4.26800973 C41.454,4.26800973 40.362,6.10200973 40.362,8.07600973 L40.362,8.07600973 Z" id="#1C6C8C"></path>
                    <path d="M126.334,8.77600973 L127.314,8.77600973 C127.636,8.77600973 127.888,8.62200973 127.888,8.31400973 C127.888,8.00600973 127.636,7.85200973 127.314,7.85200973 L126.46,7.85200973 L126.754,5.78000973 L127.734,5.78000973 C128.056,5.78000973 128.308,5.64000973 128.308,5.31800973 C128.308,5.01000973 128.056,4.85600973 127.734,4.85600973 L126.88,4.85600973 L127.16,2.81200973 C127.202,2.54600973 127.23,2.37800973 127.23,2.22400973 C127.23,1.97200973 127.09,1.74800973 126.754,1.74800973 C126.39,1.74800973 126.264,1.93000973 126.222,2.25200973 L125.858,4.85600973 L124.192,4.85600973 L124.472,2.81200973 C124.514,2.54600973 124.542,2.37800973 124.542,2.22400973 C124.542,1.97200973 124.402,1.74800973 124.066,1.74800973 C123.702,1.74800973 123.576,1.93000973 123.534,2.25200973 L123.17,4.85600973 L122.19,4.85600973 C121.868,4.85600973 121.616,5.01000973 121.616,5.31800973 C121.616,5.62600973 121.868,5.78000973 122.19,5.78000973 L123.044,5.78000973 L122.75,7.85200973 L121.77,7.85200973 C121.448,7.85200973 121.196,7.99200973 121.196,8.31400973 C121.196,8.62200973 121.448,8.77600973 121.77,8.77600973 L122.624,8.77600973 L122.344,10.8200097 C122.302,11.0860097 122.274,11.2540097 122.274,11.4080097 C122.274,11.6600097 122.414,11.8840097 122.75,11.8840097 C123.114,11.8840097 123.24,11.7020097 123.282,11.3800097 L123.646,8.77600973 L125.312,8.77600973 L125.032,10.8200097 C124.99,11.0860097 124.962,11.2540097 124.962,11.4080097 C124.962,11.6600097 125.102,11.8840097 125.438,11.8840097 C125.802,11.8840097 125.928,11.7020097 125.97,11.3800097 L126.334,8.77600973 Z M125.438,7.85200973 L123.772,7.85200973 L124.066,5.78000973 L125.732,5.78000973 L125.438,7.85200973 Z M135.168,8.86000973 C135.168,7.72600973 134.58,6.77400973 133.46,6.43800973 C134.244,5.96200973 134.636,5.15000973 134.636,4.32400973 C134.636,2.92400973 133.642,1.74800973 132.046,1.74800973 C130.394,1.74800973 129.428,2.93800973 129.428,4.26800973 C129.428,4.59000973 129.638,4.84200973 129.988,4.84200973 C130.198,4.84200973 130.534,4.82800973 130.576,4.26800973 C130.646,3.51200973 131.01,2.81200973 131.99,2.81200973 C132.844,2.81200973 133.404,3.48400973 133.404,4.43600973 C133.404,5.34600973 132.998,5.82200973 132.004,6.04600973 C131.542,6.14400973 131.36,6.29800973 131.36,6.57800973 C131.36,6.90000973 131.626,7.11000973 132.116,7.11000973 C133.04,7.11000973 133.852,7.48800973 133.852,8.97200973 C133.852,9.99400973 133.068,10.8200097 131.962,10.8200097 C131.024,10.8200097 130.52,10.2600097 130.282,9.54600973 C130.142,9.11200973 129.96,8.90200973 129.596,8.90200973 C129.302,8.90200973 129.078,9.15400973 129.078,9.58800973 C129.078,10.3300097 129.918,11.8840097 131.99,11.8840097 C133.768,11.8840097 135.168,10.7500097 135.168,8.86000973 L135.168,8.86000973 Z M139.732,11.8840097 C141.496,11.8840097 142.784,10.4420097 142.784,8.63600973 C142.784,6.90000973 141.888,5.36000973 140.264,5.36000973 C139.592,5.36000973 139.144,5.51400973 138.682,5.75200973 L138.654,5.75200973 C139.41,4.36600973 139.998,3.69400973 140.796,2.98000973 C141.146,2.67200973 141.286,2.51800973 141.286,2.32200973 C141.286,1.94400973 140.978,1.74800973 140.782,1.74800973 C140.614,1.74800973 140.46,1.81800973 140.208,2.02800973 C138.696,3.30200973 136.736,5.54200973 136.736,8.45400973 C136.736,10.4420097 137.996,11.8840097 139.732,11.8840097 L139.732,11.8840097 Z M137.968,8.58000973 C137.968,7.43200973 138.5,6.42400973 139.718,6.42400973 C140.936,6.42400973 141.468,7.26400973 141.468,8.58000973 C141.468,9.74200973 140.936,10.7360097 139.718,10.7360097 C138.5,10.7360097 137.968,9.74200973 137.968,8.58000973 L137.968,8.58000973 Z M148.188,9.23800973 L148.188,11.2260097 C148.188,11.6320097 148.426,11.8840097 148.804,11.8840097 C149.182,11.8840097 149.42,11.6320097 149.42,11.2260097 L149.42,9.23800973 L150.05,9.23800973 C150.344,9.23800973 150.582,9.00000973 150.582,8.70600973 C150.582,8.41200973 150.344,8.17400973 150.05,8.17400973 L149.42,8.17400973 L149.42,2.77000973 C149.42,2.04200973 149.028,1.74800973 148.482,1.74800973 C148.048,1.74800973 147.768,1.88800973 147.516,2.30800973 L143.988,8.09000973 C143.806,8.38400973 143.68,8.62200973 143.68,8.80400973 C143.68,9.05600973 143.792,9.23800973 144.212,9.23800973 L148.188,9.23800973 Z M145.22,8.17400973 L148.16,3.06400973 L148.188,3.06400973 L148.188,8.17400973 L145.22,8.17400973 Z M151.478,6.81600973 C151.478,10.0220097 152.948,11.8840097 154.768,11.8840097 C156.588,11.8840097 158.058,10.0220097 158.058,6.81600973 C158.058,3.61000973 156.588,1.74800973 154.768,1.74800973 C152.948,1.74800973 151.478,3.61000973 151.478,6.81600973 L151.478,6.81600973 Z M152.794,6.81600973 C152.794,4.03000973 153.676,2.81200973 154.768,2.81200973 C155.86,2.81200973 156.742,4.03000973 156.742,6.81600973 C156.742,9.60200973 155.86,10.8200097 154.768,10.8200097 C153.676,10.8200097 152.794,9.60200973 152.794,6.81600973 L152.794,6.81600973 Z M165.184,8.86000973 C165.184,7.72600973 164.596,6.77400973 163.476,6.43800973 C164.26,5.96200973 164.652,5.15000973 164.652,4.32400973 C164.652,2.92400973 163.658,1.74800973 162.062,1.74800973 C160.41,1.74800973 159.444,2.93800973 159.444,4.26800973 C159.444,4.59000973 159.654,4.84200973 160.004,4.84200973 C160.214,4.84200973 160.55,4.82800973 160.592,4.26800973 C160.662,3.51200973 161.026,2.81200973 162.006,2.81200973 C162.86,2.81200973 163.42,3.48400973 163.42,4.43600973 C163.42,5.34600973 163.014,5.82200973 162.02,6.04600973 C161.558,6.14400973 161.376,6.29800973 161.376,6.57800973 C161.376,6.90000973 161.642,7.11000973 162.132,7.11000973 C163.056,7.11000973 163.868,7.48800973 163.868,8.97200973 C163.868,9.99400973 163.084,10.8200097 161.978,10.8200097 C161.04,10.8200097 160.536,10.2600097 160.298,9.54600973 C160.158,9.11200973 159.976,8.90200973 159.612,8.90200973 C159.318,8.90200973 159.094,9.15400973 159.094,9.58800973 C159.094,10.3300097 159.934,11.8840097 162.006,11.8840097 C163.784,11.8840097 165.184,10.7500097 165.184,8.86000973 L165.184,8.86000973 Z M168.46,5.41600973 L169.23,5.41600973 C169.636,5.41600973 169.846,5.22000973 169.846,4.88400973 C169.846,4.54800973 169.636,4.35200973 169.23,4.35200973 L168.46,4.35200973 L168.46,2.54600973 C168.46,2.23800973 168.586,2.05600973 168.964,2.05600973 L169.272,2.05600973 C169.734,2.05600973 169.944,1.86000973 169.944,1.52400973 C169.944,1.18800973 169.566,0.992009727 169.244,0.992009727 L168.866,0.992009727 C167.97,0.992009727 167.228,1.52400973 167.228,2.60200973 L167.228,4.35200973 L166.724,4.35200973 C166.318,4.35200973 166.108,4.54800973 166.108,4.88400973 C166.108,5.22000973 166.318,5.41600973 166.724,5.41600973 L167.228,5.41600973 L167.228,11.2260097 C167.228,11.6320097 167.466,11.8840097 167.844,11.8840097 C168.222,11.8840097 168.46,11.6320097 168.46,11.2260097 L168.46,5.41600973 Z" id="#36403F"></path>
                </g>
            </g>
        </g>
    </g>
</svg>