<?xml version="1.0" encoding="UTF-8" standalone="no"?>
<svg width="290px" height="214px" viewBox="0 0 290 214" version="1.1" xmlns="http://www.w3.org/2000/svg" xmlns:xlink="http://www.w3.org/1999/xlink">
    <!-- Generator: Sketch 39.1 (31720) - http://www.bohemiancoding.com/sketch -->
    <title>accessibility-white-lime-hex</title>
    <desc>Created with Sketch.</desc>
    <defs>
        <rect id="path-1" x="240" y="23" width="50" height="50" rx="25"></rect>
        <mask id="mask-2" maskContentUnits="userSpaceOnUse" maskUnits="objectBoundingBox" x="0" y="0" width="50" height="50" fill="white">
            <use xlink:href="#path-1"></use>
        </mask>
    </defs>
    <g id="Templates" stroke="none" stroke-width="1" fill="none" fill-rule="evenodd">
        <g id="25-colour-accessibility" transform="translate(-1076.000000, -4158.000000)">
            <g id="accessibility-white-lime-hex" transform="translate(1076.000000, 4158.000000)">
                <rect id="colours-use-2-copy-70" fill="#86AC1B" transform="translate(25.000000, 48.000000) rotate(-90.000000) translate(-25.000000, -48.000000) " x="0" y="23" width="50" height="50" rx="25"></rect>
                <rect id="colours-use-2-copy-61" fill="#A5C155" transform="translate(85.000000, 48.000000) rotate(-90.000000) translate(-85.000000, -48.000000) " x="60" y="23" width="50" height="50" rx="25"></rect>
                <rect id="colours-use-2-copy-62" fill="#C3D68D" transform="translate(145.000000, 48.000000) rotate(-90.000000) translate(-145.000000, -48.000000) " x="120" y="23" width="50" height="50" rx="25"></rect>
                <rect id="colours-use-2-copy-63" fill="#E1EBC6" transform="translate(205.000000, 48.000000) rotate(-90.000000) translate(-205.000000, -48.000000) " x="180" y="23" width="50" height="50" rx="25"></rect>
                <use id="colours-use-2-copy-64" stroke="#E1EBC6" mask="url(#mask-2)" stroke-width="2" fill="#F9FBF4" transform="translate(265.000000, 48.000000) rotate(-90.000000) translate(-265.000000, -48.000000) " xlink:href="#path-1"></use>
                <rect id="colours-use-2-copy-65" fill="#82A61C" transform="translate(25.000000, 168.000000) rotate(-90.000000) translate(-25.000000, -168.000000) " x="0" y="143" width="50" height="50" rx="25"></rect>
                <rect id="colours-use-2-copy-66" fill="#738F22" transform="translate(85.000000, 168.000000) rotate(-90.000000) translate(-85.000000, -168.000000) " x="60" y="143" width="50" height="50" rx="25"></rect>
                <rect id="colours-use-2-copy-67" fill="#607328" transform="translate(145.000000, 168.000000) rotate(-90.000000) translate(-145.000000, -168.000000) " x="120" y="143" width="50" height="50" rx="25"></rect>
                <rect id="colours-use-2-copy-68" fill="#4C572F" transform="translate(205.000000, 168.000000) rotate(-90.000000) translate(-205.000000, -168.000000) " x="180" y="143" width="50" height="50" rx="25"></rect>
                <rect id="colours-use-2-copy-69" fill="#3D4035" transform="translate(265.000000, 168.000000) rotate(-90.000000) translate(-265.000000, -168.000000) " x="240" y="143" width="50" height="50" rx="25"></rect>
                <polygon id="Star-1" fill="#D0011B" points="265.657396 10.5 261.542899 12.663119 262.328698 8.08155948 259 4.83688104 263.600147 4.16844052 265.657396 0 267.714644 4.16844052 272.314791 4.83688104 268.986093 8.08155948 269.771892 12.663119"></polygon>
                <polygon id="Star-1" fill="#D0011B" points="203.657396 10.5 199.542899 12.663119 200.328698 8.08155948 197 4.83688104 201.600147 4.16844052 203.657396 0 205.714644 4.16844052 210.314791 4.83688104 206.986093 8.08155948 207.771892 12.663119"></polygon>
                <polygon id="Star-1" fill="#D0011B" points="143.657396 10.5 139.542899 12.663119 140.328698 8.08155948 137 4.83688104 141.600147 4.16844052 143.657396 0 145.714644 4.16844052 150.314791 4.83688104 146.986093 8.08155948 147.771892 12.663119"></polygon>
                <polygon id="Star-1" fill="#CC0000" points="85.6573956 10.5 81.5428988 12.663119 82.3286978 8.08155948 79 4.83688104 83.6001472 4.16844052 85.6573956 0 87.714644 4.16844052 92.3147912 4.83688104 88.9860934 8.08155948 89.7718924 12.663119"></polygon>
                <polygon id="Star-1" fill="#CC0000" points="25.6573956 10.5 21.5428988 12.663119 22.3286978 8.08155948 19 4.83688104 23.6001472 4.16844052 25.6573956 0 27.714644 4.16844052 32.3147912 4.83688104 28.9860934 8.08155948 29.7718924 12.663119"></polygon>
                <polygon id="Star-1" fill="#E69900" points="84 130.5 79.8855032 132.663119 80.6713022 128.081559 77.3426044 124.836881 81.9427516 124.168441 84 120 86.0572484 124.168441 90.6573956 124.836881 87.3286978 128.081559 88.1144968 132.663119"></polygon>
                <polygon id="Star-1" fill="#8AB82E" points="144 130.5 139.885503 132.663119 140.671302 128.081559 137.342604 124.836881 141.942752 124.168441 144 120 146.057248 124.168441 150.657396 124.836881 147.328698 128.081559 148.114497 132.663119"></polygon>
                <polygon id="Star-1" fill="#8AB82E" points="204 130.5 199.885503 132.663119 200.671302 128.081559 197.342604 124.836881 201.942752 124.168441 204 120 206.057248 124.168441 210.657396 124.836881 207.328698 128.081559 208.114497 132.663119"></polygon>
                <polygon id="Star-1" fill="#8AB82E" points="266 130.5 261.885503 132.663119 262.671302 128.081559 259.342604 124.836881 263.942752 124.168441 266 120 268.057248 124.168441 272.657396 124.836881 269.328698 128.081559 270.114497 132.663119"></polygon>
                <polygon id="Star-1" fill="#CC0000" points="24 130.5 19.8855032 132.663119 20.6713022 128.081559 17.3426044 124.836881 21.9427516 124.168441 24 120 26.0572484 124.168441 30.6573956 124.836881 27.3286978 128.081559 28.1144968 132.663119"></polygon>
                <g id="%---convert-to-paths-before-SVG-" transform="translate(9.000000, 42.000000)" fill="#FFFFFF">
                    <path d="M2.432,10.848 C2.432,11.648 2.944,12.096 3.632,12.096 C4.32,12.096 4.832,11.648 4.832,10.848 L4.832,1.744 C4.832,1.104 4.448,0.608 3.76,0.608 L1.488,0.608 C0.8,0.608 0.4,1.152 0.4,1.712 C0.4,2.256 0.72,2.816 1.488,2.816 L2.432,2.816 L2.432,10.848 Z M10.512,10.016 C8.88,10.016 8.768,7.44 8.768,6.304 C8.768,5.088 8.88,2.592 10.512,2.592 C12.144,2.592 12.256,5.088 12.256,6.304 C12.256,7.44 12.144,10.016 10.512,10.016 L10.512,10.016 Z M10.512,12.192 C13.744,12.192 14.752,8.912 14.752,6.304 C14.752,3.696 13.744,0.416 10.512,0.416 C7.28,0.416 6.272,3.696 6.272,6.304 C6.272,8.912 7.28,12.192 10.512,12.192 L10.512,12.192 Z M19.696,10.016 C18.064,10.016 17.952,7.44 17.952,6.304 C17.952,5.088 18.064,2.592 19.696,2.592 C21.328,2.592 21.44,5.088 21.44,6.304 C21.44,7.44 21.328,10.016 19.696,10.016 L19.696,10.016 Z M19.696,12.192 C22.928,12.192 23.936,8.912 23.936,6.304 C23.936,3.696 22.928,0.416 19.696,0.416 C16.464,0.416 15.456,3.696 15.456,6.304 C15.456,8.912 16.464,12.192 19.696,12.192 L19.696,12.192 Z M27.248,3.952 C26.72,3.952 26.416,3.52 26.416,3.008 C26.416,2.496 26.72,2.048 27.248,2.048 C27.776,2.048 28.08,2.496 28.08,3.008 C28.08,3.52 27.776,3.952 27.248,3.952 L27.248,3.952 Z M27.248,5.584 C28.672,5.584 29.712,4.4 29.712,3.008 C29.712,1.616 28.672,0.416 27.248,0.416 C25.824,0.416 24.784,1.616 24.784,3.008 C24.784,4.4 25.824,5.584 27.248,5.584 L27.248,5.584 Z M32.88,12.192 C34.304,12.192 35.344,11.008 35.344,9.616 C35.344,8.224 34.304,7.024 32.88,7.024 C31.456,7.024 30.416,8.224 30.416,9.616 C30.416,11.008 31.456,12.192 32.88,12.192 L32.88,12.192 Z M32.88,10.56 C32.352,10.56 32.048,10.128 32.048,9.616 C32.048,9.104 32.352,8.656 32.88,8.656 C33.408,8.656 33.712,9.104 33.712,9.616 C33.712,10.128 33.408,10.56 32.88,10.56 L32.88,10.56 Z M26.672,10.816 C26.608,10.944 26.512,11.168 26.512,11.408 C26.512,11.888 27.008,12.288 27.424,12.288 C27.808,12.288 27.904,12.096 28.144,11.76 L33.52,1.696 C33.648,1.456 33.648,1.344 33.648,1.216 C33.648,0.72 33.2,0.32 32.704,0.32 C32.336,0.32 32.176,0.432 31.968,0.832 L26.672,10.816 Z" id="100%"></path>
                    <path d="M65.52,10.4 C65.408,10.624 65.36,10.768 65.36,10.96 C65.36,11.424 65.808,12.096 66.688,12.096 C67.408,12.096 67.584,11.776 68.032,10.88 L72,2.816 C72.192,2.416 72.368,2.08 72.368,1.76 C72.368,1.344 72.032,0.608 71.216,0.608 L65.424,0.608 C64.544,0.608 64.24,1.152 64.24,1.712 C64.24,2.256 64.56,2.816 65.424,2.816 L69.52,2.816 L65.52,10.4 Z M76.608,2.816 L79.616,2.816 C79.904,2.816 80.736,2.72 80.736,1.616 C80.736,1.04 80.304,0.608 79.568,0.608 L75.712,0.608 C74.944,0.608 74.64,0.88 74.464,2.128 L74.064,5.504 C74.048,5.68 74.016,5.84 74.016,6.048 C74.016,6.32 74.336,6.8 74.96,6.8 C75.776,6.8 75.92,6.272 76.848,6.272 C77.84,6.272 78.384,6.928 78.384,7.888 C78.384,8.896 77.808,9.984 76.688,9.984 C75.616,9.984 74.848,8.96 74.208,8.96 C73.616,8.96 73.12,9.456 73.12,10.048 C73.12,11.456 75.504,12.192 76.64,12.192 C79.408,12.192 80.88,10.432 80.88,7.76 C80.88,5.888 79.504,4.352 77.568,4.352 C77.168,4.352 76.752,4.432 76.368,4.512 L76.608,2.816 Z M84.752,3.952 C84.224,3.952 83.92,3.52 83.92,3.008 C83.92,2.496 84.224,2.048 84.752,2.048 C85.28,2.048 85.584,2.496 85.584,3.008 C85.584,3.52 85.28,3.952 84.752,3.952 L84.752,3.952 Z M84.752,5.584 C86.176,5.584 87.216,4.4 87.216,3.008 C87.216,1.616 86.176,0.416 84.752,0.416 C83.328,0.416 82.288,1.616 82.288,3.008 C82.288,4.4 83.328,5.584 84.752,5.584 L84.752,5.584 Z M90.384,12.192 C91.808,12.192 92.848,11.008 92.848,9.616 C92.848,8.224 91.808,7.024 90.384,7.024 C88.96,7.024 87.92,8.224 87.92,9.616 C87.92,11.008 88.96,12.192 90.384,12.192 L90.384,12.192 Z M90.384,10.56 C89.856,10.56 89.552,10.128 89.552,9.616 C89.552,9.104 89.856,8.656 90.384,8.656 C90.912,8.656 91.216,9.104 91.216,9.616 C91.216,10.128 90.912,10.56 90.384,10.56 L90.384,10.56 Z M84.176,10.816 C84.112,10.944 84.016,11.168 84.016,11.408 C84.016,11.888 84.512,12.288 84.928,12.288 C85.312,12.288 85.408,12.096 85.648,11.76 L91.024,1.696 C91.152,1.456 91.152,1.344 91.152,1.216 C91.152,0.72 90.704,0.32 90.208,0.32 C89.84,0.32 89.68,0.432 89.472,0.832 L84.176,10.816 Z" id="75%"></path>
                    <path d="M127,2.816 L130.008,2.816 C130.296,2.816 131.128,2.72 131.128,1.616 C131.128,1.04 130.696,0.608 129.96,0.608 L126.104,0.608 C125.336,0.608 125.032,0.88 124.856,2.128 L124.456,5.504 C124.44,5.68 124.408,5.84 124.408,6.048 C124.408,6.32 124.728,6.8 125.352,6.8 C126.168,6.8 126.312,6.272 127.24,6.272 C128.232,6.272 128.776,6.928 128.776,7.888 C128.776,8.896 128.2,9.984 127.08,9.984 C126.008,9.984 125.24,8.96 124.6,8.96 C124.008,8.96 123.512,9.456 123.512,10.048 C123.512,11.456 125.896,12.192 127.032,12.192 C129.8,12.192 131.272,10.432 131.272,7.76 C131.272,5.888 129.896,4.352 127.96,4.352 C127.56,4.352 127.144,4.432 126.76,4.512 L127,2.816 Z M136.776,10.016 C135.144,10.016 135.032,7.44 135.032,6.304 C135.032,5.088 135.144,2.592 136.776,2.592 C138.408,2.592 138.52,5.088 138.52,6.304 C138.52,7.44 138.408,10.016 136.776,10.016 L136.776,10.016 Z M136.776,12.192 C140.008,12.192 141.016,8.912 141.016,6.304 C141.016,3.696 140.008,0.416 136.776,0.416 C133.544,0.416 132.536,3.696 132.536,6.304 C132.536,8.912 133.544,12.192 136.776,12.192 L136.776,12.192 Z M144.328,3.952 C143.8,3.952 143.496,3.52 143.496,3.008 C143.496,2.496 143.8,2.048 144.328,2.048 C144.856,2.048 145.16,2.496 145.16,3.008 C145.16,3.52 144.856,3.952 144.328,3.952 L144.328,3.952 Z M144.328,5.584 C145.752,5.584 146.792,4.4 146.792,3.008 C146.792,1.616 145.752,0.416 144.328,0.416 C142.904,0.416 141.864,1.616 141.864,3.008 C141.864,4.4 142.904,5.584 144.328,5.584 L144.328,5.584 Z M149.96,12.192 C151.384,12.192 152.424,11.008 152.424,9.616 C152.424,8.224 151.384,7.024 149.96,7.024 C148.536,7.024 147.496,8.224 147.496,9.616 C147.496,11.008 148.536,12.192 149.96,12.192 L149.96,12.192 Z M149.96,10.56 C149.432,10.56 149.128,10.128 149.128,9.616 C149.128,9.104 149.432,8.656 149.96,8.656 C150.488,8.656 150.792,9.104 150.792,9.616 C150.792,10.128 150.488,10.56 149.96,10.56 L149.96,10.56 Z M143.752,10.816 C143.688,10.944 143.592,11.168 143.592,11.408 C143.592,11.888 144.088,12.288 144.504,12.288 C144.888,12.288 144.984,12.096 145.224,11.76 L150.6,1.696 C150.728,1.456 150.728,1.344 150.728,1.216 C150.728,0.72 150.28,0.32 149.784,0.32 C149.416,0.32 149.256,0.432 149.048,0.832 L143.752,10.816 Z" id="50%"></path>
                    <path d="M188.288,9.888 C189.648,8.176 192.128,5.968 192.128,3.744 C192.128,1.712 190.544,0.416 188.576,0.416 C186.608,0.416 184.816,2.032 184.816,4.048 C184.816,4.672 185.216,5.216 185.984,5.216 C187.52,5.216 186.64,2.624 188.48,2.624 C189.136,2.624 189.632,3.2 189.632,3.856 C189.632,4.432 189.36,4.928 189.072,5.344 C187.856,7.104 186.416,8.544 185.088,10.128 C184.928,10.32 184.72,10.608 184.72,10.944 C184.72,11.68 185.264,12 185.968,12 L191.312,12 C191.92,12 192.464,11.68 192.464,10.944 C192.464,10.208 191.92,9.888 191.216,9.888 L188.288,9.888 Z M197.184,2.816 L200.192,2.816 C200.48,2.816 201.312,2.72 201.312,1.616 C201.312,1.04 200.88,0.608 200.144,0.608 L196.288,0.608 C195.52,0.608 195.216,0.88 195.04,2.128 L194.64,5.504 C194.624,5.68 194.592,5.84 194.592,6.048 C194.592,6.32 194.912,6.8 195.536,6.8 C196.352,6.8 196.496,6.272 197.424,6.272 C198.416,6.272 198.96,6.928 198.96,7.888 C198.96,8.896 198.384,9.984 197.264,9.984 C196.192,9.984 195.424,8.96 194.784,8.96 C194.192,8.96 193.696,9.456 193.696,10.048 C193.696,11.456 196.08,12.192 197.216,12.192 C199.984,12.192 201.456,10.432 201.456,7.76 C201.456,5.888 200.08,4.352 198.144,4.352 C197.744,4.352 197.328,4.432 196.944,4.512 L197.184,2.816 Z M205.328,3.952 C204.8,3.952 204.496,3.52 204.496,3.008 C204.496,2.496 204.8,2.048 205.328,2.048 C205.856,2.048 206.16,2.496 206.16,3.008 C206.16,3.52 205.856,3.952 205.328,3.952 L205.328,3.952 Z M205.328,5.584 C206.752,5.584 207.792,4.4 207.792,3.008 C207.792,1.616 206.752,0.416 205.328,0.416 C203.904,0.416 202.864,1.616 202.864,3.008 C202.864,4.4 203.904,5.584 205.328,5.584 L205.328,5.584 Z M210.96,12.192 C212.384,12.192 213.424,11.008 213.424,9.616 C213.424,8.224 212.384,7.024 210.96,7.024 C209.536,7.024 208.496,8.224 208.496,9.616 C208.496,11.008 209.536,12.192 210.96,12.192 L210.96,12.192 Z M210.96,10.56 C210.432,10.56 210.128,10.128 210.128,9.616 C210.128,9.104 210.432,8.656 210.96,8.656 C211.488,8.656 211.792,9.104 211.792,9.616 C211.792,10.128 211.488,10.56 210.96,10.56 L210.96,10.56 Z M204.752,10.816 C204.688,10.944 204.592,11.168 204.592,11.408 C204.592,11.888 205.088,12.288 205.504,12.288 C205.888,12.288 205.984,12.096 206.224,11.76 L211.6,1.696 C211.728,1.456 211.728,1.344 211.728,1.216 C211.728,0.72 211.28,0.32 210.784,0.32 C210.416,0.32 210.256,0.432 210.048,0.832 L204.752,10.816 Z" id="25%"></path>
                    <path d="M252,2.816 L255.008,2.816 C255.296,2.816 256.128,2.72 256.128,1.616 C256.128,1.04 255.696,0.608 254.96,0.608 L251.104,0.608 C250.336,0.608 250.032,0.88 249.856,2.128 L249.456,5.504 C249.44,5.68 249.408,5.84 249.408,6.048 C249.408,6.32 249.728,6.8 250.352,6.8 C251.168,6.8 251.312,6.272 252.24,6.272 C253.232,6.272 253.776,6.928 253.776,7.888 C253.776,8.896 253.2,9.984 252.08,9.984 C251.008,9.984 250.24,8.96 249.6,8.96 C249.008,8.96 248.512,9.456 248.512,10.048 C248.512,11.456 250.896,12.192 252.032,12.192 C254.8,12.192 256.272,10.432 256.272,7.76 C256.272,5.888 254.896,4.352 252.96,4.352 C252.56,4.352 252.144,4.432 251.76,4.512 L252,2.816 Z M260.144,3.952 C259.616,3.952 259.312,3.52 259.312,3.008 C259.312,2.496 259.616,2.048 260.144,2.048 C260.672,2.048 260.976,2.496 260.976,3.008 C260.976,3.52 260.672,3.952 260.144,3.952 L260.144,3.952 Z M260.144,5.584 C261.568,5.584 262.608,4.4 262.608,3.008 C262.608,1.616 261.568,0.416 260.144,0.416 C258.72,0.416 257.68,1.616 257.68,3.008 C257.68,4.4 258.72,5.584 260.144,5.584 L260.144,5.584 Z M265.776,12.192 C267.2,12.192 268.24,11.008 268.24,9.616 C268.24,8.224 267.2,7.024 265.776,7.024 C264.352,7.024 263.312,8.224 263.312,9.616 C263.312,11.008 264.352,12.192 265.776,12.192 L265.776,12.192 Z M265.776,10.56 C265.248,10.56 264.944,10.128 264.944,9.616 C264.944,9.104 265.248,8.656 265.776,8.656 C266.304,8.656 266.608,9.104 266.608,9.616 C266.608,10.128 266.304,10.56 265.776,10.56 L265.776,10.56 Z M259.568,10.816 C259.504,10.944 259.408,11.168 259.408,11.408 C259.408,11.888 259.904,12.288 260.32,12.288 C260.704,12.288 260.8,12.096 261.04,11.76 L266.416,1.696 C266.544,1.456 266.544,1.344 266.544,1.216 C266.544,0.72 266.096,0.32 265.6,0.32 C265.232,0.32 265.072,0.432 264.864,0.832 L259.568,10.816 Z" id="5%"></path>
                    <path d="M8.592,120.416 C6.224,120.416 4.576,122.304 4.576,124.384 C4.576,126.272 6,127.968 7.92,127.968 C8.272,127.968 8.64,127.904 8.928,127.776 L8.96,127.808 C8.432,128.56 7.392,129.584 6.752,130.368 C6.56,130.608 6.416,130.8 6.416,131.024 C6.416,131.6 7.104,132.192 7.552,132.192 C7.68,132.192 7.856,132.192 8.032,132.08 C8.224,131.952 8.416,131.824 8.544,131.696 C10.16,130.192 12.608,126.8 12.608,124.384 C12.608,122.256 11.056,120.416 8.592,120.416 L8.592,120.416 Z M8.592,126.048 C7.584,126.048 7.072,125.232 7.072,124.384 C7.072,123.456 7.68,122.72 8.592,122.72 C9.552,122.72 10.112,123.488 10.112,124.384 C10.112,125.328 9.504,126.048 8.592,126.048 L8.592,126.048 Z M17.184,122.816 L20.192,122.816 C20.48,122.816 21.312,122.72 21.312,121.616 C21.312,121.04 20.88,120.608 20.144,120.608 L16.288,120.608 C15.52,120.608 15.216,120.88 15.04,122.128 L14.64,125.504 C14.624,125.68 14.592,125.84 14.592,126.048 C14.592,126.32 14.912,126.8 15.536,126.8 C16.352,126.8 16.496,126.272 17.424,126.272 C18.416,126.272 18.96,126.928 18.96,127.888 C18.96,128.896 18.384,129.984 17.264,129.984 C16.192,129.984 15.424,128.96 14.784,128.96 C14.192,128.96 13.696,129.456 13.696,130.048 C13.696,131.456 16.08,132.192 17.216,132.192 C19.984,132.192 21.456,130.432 21.456,127.76 C21.456,125.888 20.08,124.352 18.144,124.352 C17.744,124.352 17.328,124.432 16.944,124.512 L17.184,122.816 Z M25.328,123.952 C24.8,123.952 24.496,123.52 24.496,123.008 C24.496,122.496 24.8,122.048 25.328,122.048 C25.856,122.048 26.16,122.496 26.16,123.008 C26.16,123.52 25.856,123.952 25.328,123.952 L25.328,123.952 Z M25.328,125.584 C26.752,125.584 27.792,124.4 27.792,123.008 C27.792,121.616 26.752,120.416 25.328,120.416 C23.904,120.416 22.864,121.616 22.864,123.008 C22.864,124.4 23.904,125.584 25.328,125.584 L25.328,125.584 Z M30.96,132.192 C32.384,132.192 33.424,131.008 33.424,129.616 C33.424,128.224 32.384,127.024 30.96,127.024 C29.536,127.024 28.496,128.224 28.496,129.616 C28.496,131.008 29.536,132.192 30.96,132.192 L30.96,132.192 Z M30.96,130.56 C30.432,130.56 30.128,130.128 30.128,129.616 C30.128,129.104 30.432,128.656 30.96,128.656 C31.488,128.656 31.792,129.104 31.792,129.616 C31.792,130.128 31.488,130.56 30.96,130.56 L30.96,130.56 Z M24.752,130.816 C24.688,130.944 24.592,131.168 24.592,131.408 C24.592,131.888 25.088,132.288 25.504,132.288 C25.888,132.288 25.984,132.096 26.224,131.76 L31.6,121.696 C31.728,121.456 31.728,121.344 31.728,121.216 C31.728,120.72 31.28,120.32 30.784,120.32 C30.416,120.32 30.256,120.432 30.048,120.832 L24.752,130.816 Z" id="95%"></path>
                    <path d="M65.52,130.4 C65.408,130.624 65.36,130.768 65.36,130.96 C65.36,131.424 65.808,132.096 66.688,132.096 C67.408,132.096 67.584,131.776 68.032,130.88 L72,122.816 C72.192,122.416 72.368,122.08 72.368,121.76 C72.368,121.344 72.032,120.608 71.216,120.608 L65.424,120.608 C64.544,120.608 64.24,121.152 64.24,121.712 C64.24,122.256 64.56,122.816 65.424,122.816 L69.52,122.816 L65.52,130.4 Z M76.608,122.816 L79.616,122.816 C79.904,122.816 80.736,122.72 80.736,121.616 C80.736,121.04 80.304,120.608 79.568,120.608 L75.712,120.608 C74.944,120.608 74.64,120.88 74.464,122.128 L74.064,125.504 C74.048,125.68 74.016,125.84 74.016,126.048 C74.016,126.32 74.336,126.8 74.96,126.8 C75.776,126.8 75.92,126.272 76.848,126.272 C77.84,126.272 78.384,126.928 78.384,127.888 C78.384,128.896 77.808,129.984 76.688,129.984 C75.616,129.984 74.848,128.96 74.208,128.96 C73.616,128.96 73.12,129.456 73.12,130.048 C73.12,131.456 75.504,132.192 76.64,132.192 C79.408,132.192 80.88,130.432 80.88,127.76 C80.88,125.888 79.504,124.352 77.568,124.352 C77.168,124.352 76.752,124.432 76.368,124.512 L76.608,122.816 Z M84.752,123.952 C84.224,123.952 83.92,123.52 83.92,123.008 C83.92,122.496 84.224,122.048 84.752,122.048 C85.28,122.048 85.584,122.496 85.584,123.008 C85.584,123.52 85.28,123.952 84.752,123.952 L84.752,123.952 Z M84.752,125.584 C86.176,125.584 87.216,124.4 87.216,123.008 C87.216,121.616 86.176,120.416 84.752,120.416 C83.328,120.416 82.288,121.616 82.288,123.008 C82.288,124.4 83.328,125.584 84.752,125.584 L84.752,125.584 Z M90.384,132.192 C91.808,132.192 92.848,131.008 92.848,129.616 C92.848,128.224 91.808,127.024 90.384,127.024 C88.96,127.024 87.92,128.224 87.92,129.616 C87.92,131.008 88.96,132.192 90.384,132.192 L90.384,132.192 Z M90.384,130.56 C89.856,130.56 89.552,130.128 89.552,129.616 C89.552,129.104 89.856,128.656 90.384,128.656 C90.912,128.656 91.216,129.104 91.216,129.616 C91.216,130.128 90.912,130.56 90.384,130.56 L90.384,130.56 Z M84.176,130.816 C84.112,130.944 84.016,131.168 84.016,131.408 C84.016,131.888 84.512,132.288 84.928,132.288 C85.312,132.288 85.408,132.096 85.648,131.76 L91.024,121.696 C91.152,121.456 91.152,121.344 91.152,121.216 C91.152,120.72 90.704,120.32 90.208,120.32 C89.84,120.32 89.68,120.432 89.472,120.832 L84.176,130.816 Z" id="75%"></path>
                    <path d="M127,122.816 L130.008,122.816 C130.296,122.816 131.128,122.72 131.128,121.616 C131.128,121.04 130.696,120.608 129.96,120.608 L126.104,120.608 C125.336,120.608 125.032,120.88 124.856,122.128 L124.456,125.504 C124.44,125.68 124.408,125.84 124.408,126.048 C124.408,126.32 124.728,126.8 125.352,126.8 C126.168,126.8 126.312,126.272 127.24,126.272 C128.232,126.272 128.776,126.928 128.776,127.888 C128.776,128.896 128.2,129.984 127.08,129.984 C126.008,129.984 125.24,128.96 124.6,128.96 C124.008,128.96 123.512,129.456 123.512,130.048 C123.512,131.456 125.896,132.192 127.032,132.192 C129.8,132.192 131.272,130.432 131.272,127.76 C131.272,125.888 129.896,124.352 127.96,124.352 C127.56,124.352 127.144,124.432 126.76,124.512 L127,122.816 Z M136.776,130.016 C135.144,130.016 135.032,127.44 135.032,126.304 C135.032,125.088 135.144,122.592 136.776,122.592 C138.408,122.592 138.52,125.088 138.52,126.304 C138.52,127.44 138.408,130.016 136.776,130.016 L136.776,130.016 Z M136.776,132.192 C140.008,132.192 141.016,128.912 141.016,126.304 C141.016,123.696 140.008,120.416 136.776,120.416 C133.544,120.416 132.536,123.696 132.536,126.304 C132.536,128.912 133.544,132.192 136.776,132.192 L136.776,132.192 Z M144.328,123.952 C143.8,123.952 143.496,123.52 143.496,123.008 C143.496,122.496 143.8,122.048 144.328,122.048 C144.856,122.048 145.16,122.496 145.16,123.008 C145.16,123.52 144.856,123.952 144.328,123.952 L144.328,123.952 Z M144.328,125.584 C145.752,125.584 146.792,124.4 146.792,123.008 C146.792,121.616 145.752,120.416 144.328,120.416 C142.904,120.416 141.864,121.616 141.864,123.008 C141.864,124.4 142.904,125.584 144.328,125.584 L144.328,125.584 Z M149.96,132.192 C151.384,132.192 152.424,131.008 152.424,129.616 C152.424,128.224 151.384,127.024 149.96,127.024 C148.536,127.024 147.496,128.224 147.496,129.616 C147.496,131.008 148.536,132.192 149.96,132.192 L149.96,132.192 Z M149.96,130.56 C149.432,130.56 149.128,130.128 149.128,129.616 C149.128,129.104 149.432,128.656 149.96,128.656 C150.488,128.656 150.792,129.104 150.792,129.616 C150.792,130.128 150.488,130.56 149.96,130.56 L149.96,130.56 Z M143.752,130.816 C143.688,130.944 143.592,131.168 143.592,131.408 C143.592,131.888 144.088,132.288 144.504,132.288 C144.888,132.288 144.984,132.096 145.224,131.76 L150.6,121.696 C150.728,121.456 150.728,121.344 150.728,121.216 C150.728,120.72 150.28,120.32 149.784,120.32 C149.416,120.32 149.256,120.432 149.048,120.832 L143.752,130.816 Z" id="50%"></path>
                    <path d="M188.288,129.888 C189.648,128.176 192.128,125.968 192.128,123.744 C192.128,121.712 190.544,120.416 188.576,120.416 C186.608,120.416 184.816,122.032 184.816,124.048 C184.816,124.672 185.216,125.216 185.984,125.216 C187.52,125.216 186.64,122.624 188.48,122.624 C189.136,122.624 189.632,123.2 189.632,123.856 C189.632,124.432 189.36,124.928 189.072,125.344 C187.856,127.104 186.416,128.544 185.088,130.128 C184.928,130.32 184.72,130.608 184.72,130.944 C184.72,131.68 185.264,132 185.968,132 L191.312,132 C191.92,132 192.464,131.68 192.464,130.944 C192.464,130.208 191.92,129.888 191.216,129.888 L188.288,129.888 Z M197.184,122.816 L200.192,122.816 C200.48,122.816 201.312,122.72 201.312,121.616 C201.312,121.04 200.88,120.608 200.144,120.608 L196.288,120.608 C195.52,120.608 195.216,120.88 195.04,122.128 L194.64,125.504 C194.624,125.68 194.592,125.84 194.592,126.048 C194.592,126.32 194.912,126.8 195.536,126.8 C196.352,126.8 196.496,126.272 197.424,126.272 C198.416,126.272 198.96,126.928 198.96,127.888 C198.96,128.896 198.384,129.984 197.264,129.984 C196.192,129.984 195.424,128.96 194.784,128.96 C194.192,128.96 193.696,129.456 193.696,130.048 C193.696,131.456 196.08,132.192 197.216,132.192 C199.984,132.192 201.456,130.432 201.456,127.76 C201.456,125.888 200.08,124.352 198.144,124.352 C197.744,124.352 197.328,124.432 196.944,124.512 L197.184,122.816 Z M205.328,123.952 C204.8,123.952 204.496,123.52 204.496,123.008 C204.496,122.496 204.8,122.048 205.328,122.048 C205.856,122.048 206.16,122.496 206.16,123.008 C206.16,123.52 205.856,123.952 205.328,123.952 L205.328,123.952 Z M205.328,125.584 C206.752,125.584 207.792,124.4 207.792,123.008 C207.792,121.616 206.752,120.416 205.328,120.416 C203.904,120.416 202.864,121.616 202.864,123.008 C202.864,124.4 203.904,125.584 205.328,125.584 L205.328,125.584 Z M210.96,132.192 C212.384,132.192 213.424,131.008 213.424,129.616 C213.424,128.224 212.384,127.024 210.96,127.024 C209.536,127.024 208.496,128.224 208.496,129.616 C208.496,131.008 209.536,132.192 210.96,132.192 L210.96,132.192 Z M210.96,130.56 C210.432,130.56 210.128,130.128 210.128,129.616 C210.128,129.104 210.432,128.656 210.96,128.656 C211.488,128.656 211.792,129.104 211.792,129.616 C211.792,130.128 211.488,130.56 210.96,130.56 L210.96,130.56 Z M204.752,130.816 C204.688,130.944 204.592,131.168 204.592,131.408 C204.592,131.888 205.088,132.288 205.504,132.288 C205.888,132.288 205.984,132.096 206.224,131.76 L211.6,121.696 C211.728,121.456 211.728,121.344 211.728,121.216 C211.728,120.72 211.28,120.32 210.784,120.32 C210.416,120.32 210.256,120.432 210.048,120.832 L204.752,130.816 Z" id="25%"></path>
                    <path d="M252,122.816 L255.008,122.816 C255.296,122.816 256.128,122.72 256.128,121.616 C256.128,121.04 255.696,120.608 254.96,120.608 L251.104,120.608 C250.336,120.608 250.032,120.88 249.856,122.128 L249.456,125.504 C249.44,125.68 249.408,125.84 249.408,126.048 C249.408,126.32 249.728,126.8 250.352,126.8 C251.168,126.8 251.312,126.272 252.24,126.272 C253.232,126.272 253.776,126.928 253.776,127.888 C253.776,128.896 253.2,129.984 252.08,129.984 C251.008,129.984 250.24,128.96 249.6,128.96 C249.008,128.96 248.512,129.456 248.512,130.048 C248.512,131.456 250.896,132.192 252.032,132.192 C254.8,132.192 256.272,130.432 256.272,127.76 C256.272,125.888 254.896,124.352 252.96,124.352 C252.56,124.352 252.144,124.432 251.76,124.512 L252,122.816 Z M260.144,123.952 C259.616,123.952 259.312,123.52 259.312,123.008 C259.312,122.496 259.616,122.048 260.144,122.048 C260.672,122.048 260.976,122.496 260.976,123.008 C260.976,123.52 260.672,123.952 260.144,123.952 L260.144,123.952 Z M260.144,125.584 C261.568,125.584 262.608,124.4 262.608,123.008 C262.608,121.616 261.568,120.416 260.144,120.416 C258.72,120.416 257.68,121.616 257.68,123.008 C257.68,124.4 258.72,125.584 260.144,125.584 L260.144,125.584 Z M265.776,132.192 C267.2,132.192 268.24,131.008 268.24,129.616 C268.24,128.224 267.2,127.024 265.776,127.024 C264.352,127.024 263.312,128.224 263.312,129.616 C263.312,131.008 264.352,132.192 265.776,132.192 L265.776,132.192 Z M265.776,130.56 C265.248,130.56 264.944,130.128 264.944,129.616 C264.944,129.104 265.248,128.656 265.776,128.656 C266.304,128.656 266.608,129.104 266.608,129.616 C266.608,130.128 266.304,130.56 265.776,130.56 L265.776,130.56 Z M259.568,130.816 C259.504,130.944 259.408,131.168 259.408,131.408 C259.408,131.888 259.904,132.288 260.32,132.288 C260.704,132.288 260.8,132.096 261.04,131.76 L266.416,121.696 C266.544,121.456 266.544,121.344 266.544,121.216 C266.544,120.72 266.096,120.32 265.6,120.32 C265.232,120.32 265.072,120.432 264.864,120.832 L259.568,130.816 Z" id="5%"></path>
                </g>
                <g id="hex" transform="translate(117.000000, 202.000000)" fill="#4A4A4A">
                    <path d="M5.334,7.976 L6.314,7.976 C6.636,7.976 6.888,7.822 6.888,7.514 C6.888,7.206 6.636,7.052 6.314,7.052 L5.46,7.052 L5.754,4.98 L6.734,4.98 C7.056,4.98 7.308,4.84 7.308,4.518 C7.308,4.21 7.056,4.056 6.734,4.056 L5.88,4.056 L6.16,2.012 C6.202,1.746 6.23,1.578 6.23,1.424 C6.23,1.172 6.09,0.948 5.754,0.948 C5.39,0.948 5.264,1.13 5.222,1.452 L4.858,4.056 L3.192,4.056 L3.472,2.012 C3.514,1.746 3.542,1.578 3.542,1.424 C3.542,1.172 3.402,0.948 3.066,0.948 C2.702,0.948 2.576,1.13 2.534,1.452 L2.17,4.056 L1.19,4.056 C0.868,4.056 0.616,4.21 0.616,4.518 C0.616,4.826 0.868,4.98 1.19,4.98 L2.044,4.98 L1.75,7.052 L0.77,7.052 C0.448,7.052 0.196,7.192 0.196,7.514 C0.196,7.822 0.448,7.976 0.77,7.976 L1.624,7.976 L1.344,10.02 C1.302,10.286 1.274,10.454 1.274,10.608 C1.274,10.86 1.414,11.084 1.75,11.084 C2.114,11.084 2.24,10.902 2.282,10.58 L2.646,7.976 L4.312,7.976 L4.032,10.02 C3.99,10.286 3.962,10.454 3.962,10.608 C3.962,10.86 4.102,11.084 4.438,11.084 C4.802,11.084 4.928,10.902 4.97,10.58 L5.334,7.976 Z M4.438,7.052 L2.772,7.052 L3.066,4.98 L4.732,4.98 L4.438,7.052 Z M11.228,11.084 C12.992,11.084 14.28,9.642 14.28,7.836 C14.28,6.1 13.384,4.56 11.76,4.56 C11.088,4.56 10.64,4.714 10.178,4.952 L10.15,4.952 C10.906,3.566 11.494,2.894 12.292,2.18 C12.642,1.872 12.782,1.718 12.782,1.522 C12.782,1.144 12.474,0.948 12.278,0.948 C12.11,0.948 11.956,1.018 11.704,1.228 C10.192,2.502 8.232,4.742 8.232,7.654 C8.232,9.642 9.492,11.084 11.228,11.084 L11.228,11.084 Z M9.464,7.78 C9.464,6.632 9.996,5.624 11.214,5.624 C12.432,5.624 12.964,6.464 12.964,7.78 C12.964,8.942 12.432,9.936 11.214,9.936 C9.996,9.936 9.464,8.942 9.464,7.78 L9.464,7.78 Z M15.47,6.016 C15.47,9.222 16.94,11.084 18.76,11.084 C20.58,11.084 22.05,9.222 22.05,6.016 C22.05,2.81 20.58,0.948 18.76,0.948 C16.94,0.948 15.47,2.81 15.47,6.016 L15.47,6.016 Z M16.786,6.016 C16.786,3.23 17.668,2.012 18.76,2.012 C19.852,2.012 20.734,3.23 20.734,6.016 C20.734,8.802 19.852,10.02 18.76,10.02 C17.668,10.02 16.786,8.802 16.786,6.016 L16.786,6.016 Z M27.636,2.096 L27.636,2.124 L24.15,9.95 C23.996,10.314 23.954,10.51 23.954,10.608 C23.954,10.93 24.248,11.084 24.416,11.084 C24.682,11.084 24.99,11.028 25.158,10.636 L28.882,2.166 C29.036,1.816 29.12,1.62 29.12,1.424 C29.12,1.13 28.868,1.032 28.49,1.032 L23.436,1.032 C23.142,1.032 22.904,1.27 22.904,1.564 C22.904,1.858 23.142,2.096 23.436,2.096 L27.636,2.096 Z M36.176,8.06 C36.176,6.926 35.588,5.974 34.468,5.638 C35.252,5.162 35.644,4.35 35.644,3.524 C35.644,2.124 34.65,0.948 33.054,0.948 C31.402,0.948 30.436,2.138 30.436,3.468 C30.436,3.79 30.646,4.042 30.996,4.042 C31.206,4.042 31.542,4.028 31.584,3.468 C31.654,2.712 32.018,2.012 32.998,2.012 C33.852,2.012 34.412,2.684 34.412,3.636 C34.412,4.546 34.006,5.022 33.012,5.246 C32.55,5.344 32.368,5.498 32.368,5.778 C32.368,6.1 32.634,6.31 33.124,6.31 C34.048,6.31 34.86,6.688 34.86,8.172 C34.86,9.194 34.076,10.02 32.97,10.02 C32.032,10.02 31.528,9.46 31.29,8.746 C31.15,8.312 30.968,8.102 30.604,8.102 C30.31,8.102 30.086,8.354 30.086,8.788 C30.086,9.53 30.926,11.084 32.998,11.084 C34.776,11.084 36.176,9.95 36.176,8.06 L36.176,8.06 Z M39.564,9.936 L42.91,5.484 C43.554,4.644 43.596,4 43.596,3.426 C43.596,2.138 42.56,0.948 40.908,0.948 C38.85,0.948 37.73,2.418 37.73,4.07 C37.73,4.588 37.94,4.826 38.332,4.826 C38.598,4.826 38.878,4.7 38.878,4.266 C38.878,3.02 39.508,2.012 40.698,2.012 C41.594,2.012 42.28,2.656 42.28,3.566 C42.28,4.168 41.972,4.784 41.552,5.33 L38.108,9.936 C37.898,10.23 37.842,10.342 37.842,10.496 C37.842,10.706 37.996,11 38.514,11 L43.344,11 C43.638,11 43.876,10.762 43.876,10.468 C43.876,10.174 43.638,9.936 43.344,9.936 L39.564,9.936 Z M45.724,3.23 C45.724,4.294 46.13,4.882 47.026,5.442 C45.864,5.708 45.22,6.772 45.22,7.934 C45.22,9.558 46.326,11.084 48.272,11.084 C50.218,11.084 51.324,9.558 51.324,7.934 C51.324,6.772 50.68,5.708 49.518,5.442 C50.414,4.882 50.82,4.294 50.82,3.23 C50.82,1.704 49.532,0.948 48.272,0.948 C47.012,0.948 45.724,1.704 45.724,3.23 L45.724,3.23 Z M46.872,3.468 C46.872,2.628 47.39,2.012 48.272,2.012 C49.154,2.012 49.672,2.628 49.672,3.468 C49.672,4.322 49.154,4.938 48.272,4.938 C47.39,4.938 46.872,4.322 46.872,3.468 L46.872,3.468 Z M46.536,7.99 C46.536,6.968 47.124,6.002 48.272,6.002 C49.42,6.002 50.008,6.968 50.008,7.99 C50.008,9.278 49.196,10.02 48.272,10.02 C47.348,10.02 46.536,9.278 46.536,7.99 L46.536,7.99 Z" id="#607328"></path>
                    <path d="M67.334,7.976 L68.314,7.976 C68.636,7.976 68.888,7.822 68.888,7.514 C68.888,7.206 68.636,7.052 68.314,7.052 L67.46,7.052 L67.754,4.98 L68.734,4.98 C69.056,4.98 69.308,4.84 69.308,4.518 C69.308,4.21 69.056,4.056 68.734,4.056 L67.88,4.056 L68.16,2.012 C68.202,1.746 68.23,1.578 68.23,1.424 C68.23,1.172 68.09,0.948 67.754,0.948 C67.39,0.948 67.264,1.13 67.222,1.452 L66.858,4.056 L65.192,4.056 L65.472,2.012 C65.514,1.746 65.542,1.578 65.542,1.424 C65.542,1.172 65.402,0.948 65.066,0.948 C64.702,0.948 64.576,1.13 64.534,1.452 L64.17,4.056 L63.19,4.056 C62.868,4.056 62.616,4.21 62.616,4.518 C62.616,4.826 62.868,4.98 63.19,4.98 L64.044,4.98 L63.75,7.052 L62.77,7.052 C62.448,7.052 62.196,7.192 62.196,7.514 C62.196,7.822 62.448,7.976 62.77,7.976 L63.624,7.976 L63.344,10.02 C63.302,10.286 63.274,10.454 63.274,10.608 C63.274,10.86 63.414,11.084 63.75,11.084 C64.114,11.084 64.24,10.902 64.282,10.58 L64.646,7.976 L66.312,7.976 L66.032,10.02 C65.99,10.286 65.962,10.454 65.962,10.608 C65.962,10.86 66.102,11.084 66.438,11.084 C66.802,11.084 66.928,10.902 66.97,10.58 L67.334,7.976 Z M66.438,7.052 L64.772,7.052 L65.066,4.98 L66.732,4.98 L66.438,7.052 Z M74.18,8.438 L74.18,10.426 C74.18,10.832 74.418,11.084 74.796,11.084 C75.174,11.084 75.412,10.832 75.412,10.426 L75.412,8.438 L76.042,8.438 C76.336,8.438 76.574,8.2 76.574,7.906 C76.574,7.612 76.336,7.374 76.042,7.374 L75.412,7.374 L75.412,1.97 C75.412,1.242 75.02,0.948 74.474,0.948 C74.04,0.948 73.76,1.088 73.508,1.508 L69.98,7.29 C69.798,7.584 69.672,7.822 69.672,8.004 C69.672,8.256 69.784,8.438 70.204,8.438 L74.18,8.438 Z M71.212,7.374 L74.152,2.264 L74.18,2.264 L74.18,7.374 L71.212,7.374 Z M77.498,7.276 C77.498,9.25 78.59,11.084 80.858,11.084 C82.132,11.084 82.818,10.58 82.818,10.118 C82.818,9.782 82.622,9.6 82.342,9.6 C81.95,9.6 81.726,10.02 80.858,10.02 C79.332,10.02 78.73,8.536 78.73,7.276 C78.73,6.016 79.332,4.532 80.858,4.532 C81.698,4.532 81.88,4.924 82.356,4.924 C82.65,4.924 82.86,4.658 82.86,4.406 C82.86,3.902 82.118,3.468 80.858,3.468 C78.59,3.468 77.498,5.302 77.498,7.276 L77.498,7.276 Z M86.416,2.096 L89.258,2.096 C89.552,2.096 89.79,1.858 89.79,1.564 C89.79,1.27 89.552,1.032 89.258,1.032 L85.8,1.032 C85.506,1.032 85.38,1.102 85.338,1.354 L84.82,4.84 C84.778,5.148 84.722,5.512 84.722,5.666 C84.722,5.862 84.848,6.044 85.142,6.044 C85.492,6.044 85.926,5.666 86.836,5.666 C88.04,5.666 88.558,6.604 88.558,7.78 C88.558,8.942 87.844,9.936 86.654,9.936 C85.24,9.936 84.792,8.9 84.288,8.9 C83.98,8.9 83.84,9.18 83.84,9.432 C83.84,10.034 84.988,11.084 86.64,11.084 C88.656,11.084 89.874,9.684 89.874,7.542 C89.874,5.988 88.88,4.518 87.326,4.518 C86.864,4.518 86.416,4.588 86.01,4.798 L86.416,2.096 Z M95.852,2.096 L95.852,2.124 L92.366,9.95 C92.212,10.314 92.17,10.51 92.17,10.608 C92.17,10.93 92.464,11.084 92.632,11.084 C92.898,11.084 93.206,11.028 93.374,10.636 L97.098,2.166 C97.252,1.816 97.336,1.62 97.336,1.424 C97.336,1.13 97.084,1.032 96.706,1.032 L91.652,1.032 C91.358,1.032 91.12,1.27 91.12,1.564 C91.12,1.858 91.358,2.096 91.652,2.096 L95.852,2.096 Z M100.276,9.936 L103.622,5.484 C104.266,4.644 104.308,4 104.308,3.426 C104.308,2.138 103.272,0.948 101.62,0.948 C99.562,0.948 98.442,2.418 98.442,4.07 C98.442,4.588 98.652,4.826 99.044,4.826 C99.31,4.826 99.59,4.7 99.59,4.266 C99.59,3.02 100.22,2.012 101.41,2.012 C102.306,2.012 102.992,2.656 102.992,3.566 C102.992,4.168 102.684,4.784 102.264,5.33 L98.82,9.936 C98.61,10.23 98.554,10.342 98.554,10.496 C98.554,10.706 98.708,11 99.226,11 L104.056,11 C104.35,11 104.588,10.762 104.588,10.468 C104.588,10.174 104.35,9.936 104.056,9.936 L100.276,9.936 Z M107.668,4.616 L108.438,4.616 C108.844,4.616 109.054,4.42 109.054,4.084 C109.054,3.748 108.844,3.552 108.438,3.552 L107.668,3.552 L107.668,1.746 C107.668,1.438 107.794,1.256 108.172,1.256 L108.48,1.256 C108.942,1.256 109.152,1.06 109.152,0.724 C109.152,0.388 108.774,0.192 108.452,0.192 L108.074,0.192 C107.178,0.192 106.436,0.724 106.436,1.802 L106.436,3.552 L105.932,3.552 C105.526,3.552 105.316,3.748 105.316,4.084 C105.316,4.42 105.526,4.616 105.932,4.616 L106.436,4.616 L106.436,10.426 C106.436,10.832 106.674,11.084 107.052,11.084 C107.43,11.084 107.668,10.832 107.668,10.426 L107.668,4.616 Z" id="#4C572F"></path>
                    <path d="M126.334,7.976 L127.314,7.976 C127.636,7.976 127.888,7.822 127.888,7.514 C127.888,7.206 127.636,7.052 127.314,7.052 L126.46,7.052 L126.754,4.98 L127.734,4.98 C128.056,4.98 128.308,4.84 128.308,4.518 C128.308,4.21 128.056,4.056 127.734,4.056 L126.88,4.056 L127.16,2.012 C127.202,1.746 127.23,1.578 127.23,1.424 C127.23,1.172 127.09,0.948 126.754,0.948 C126.39,0.948 126.264,1.13 126.222,1.452 L125.858,4.056 L124.192,4.056 L124.472,2.012 C124.514,1.746 124.542,1.578 124.542,1.424 C124.542,1.172 124.402,0.948 124.066,0.948 C123.702,0.948 123.576,1.13 123.534,1.452 L123.17,4.056 L122.19,4.056 C121.868,4.056 121.616,4.21 121.616,4.518 C121.616,4.826 121.868,4.98 122.19,4.98 L123.044,4.98 L122.75,7.052 L121.77,7.052 C121.448,7.052 121.196,7.192 121.196,7.514 C121.196,7.822 121.448,7.976 121.77,7.976 L122.624,7.976 L122.344,10.02 C122.302,10.286 122.274,10.454 122.274,10.608 C122.274,10.86 122.414,11.084 122.75,11.084 C123.114,11.084 123.24,10.902 123.282,10.58 L123.646,7.976 L125.312,7.976 L125.032,10.02 C124.99,10.286 124.962,10.454 124.962,10.608 C124.962,10.86 125.102,11.084 125.438,11.084 C125.802,11.084 125.928,10.902 125.97,10.58 L126.334,7.976 Z M125.438,7.052 L123.772,7.052 L124.066,4.98 L125.732,4.98 L125.438,7.052 Z M135.168,8.06 C135.168,6.926 134.58,5.974 133.46,5.638 C134.244,5.162 134.636,4.35 134.636,3.524 C134.636,2.124 133.642,0.948 132.046,0.948 C130.394,0.948 129.428,2.138 129.428,3.468 C129.428,3.79 129.638,4.042 129.988,4.042 C130.198,4.042 130.534,4.028 130.576,3.468 C130.646,2.712 131.01,2.012 131.99,2.012 C132.844,2.012 133.404,2.684 133.404,3.636 C133.404,4.546 132.998,5.022 132.004,5.246 C131.542,5.344 131.36,5.498 131.36,5.778 C131.36,6.1 131.626,6.31 132.116,6.31 C133.04,6.31 133.852,6.688 133.852,8.172 C133.852,9.194 133.068,10.02 131.962,10.02 C131.024,10.02 130.52,9.46 130.282,8.746 C130.142,8.312 129.96,8.102 129.596,8.102 C129.302,8.102 129.078,8.354 129.078,8.788 C129.078,9.53 129.918,11.084 131.99,11.084 C133.768,11.084 135.168,9.95 135.168,8.06 L135.168,8.06 Z M141.818,7.276 C141.818,8.536 141.286,10.02 139.774,10.02 C138.262,10.02 137.73,8.536 137.73,7.276 C137.73,6.016 138.262,4.532 139.774,4.532 C141.286,4.532 141.818,6.016 141.818,7.276 L141.818,7.276 Z M141.692,10.426 C141.692,10.832 141.93,11.084 142.308,11.084 C142.686,11.084 142.924,10.832 142.924,10.426 L142.924,0.85 C142.924,0.444 142.686,0.192 142.308,0.192 C141.93,0.192 141.692,0.444 141.692,0.85 L141.692,4.476 L141.664,4.476 C141.342,4.014 140.656,3.468 139.676,3.468 C137.66,3.468 136.498,5.302 136.498,7.276 C136.498,9.25 137.66,11.084 139.676,11.084 C140.656,11.084 141.314,10.734 141.664,10.062 L141.692,10.062 L141.692,10.426 Z M148.468,8.438 L148.468,10.426 C148.468,10.832 148.706,11.084 149.084,11.084 C149.462,11.084 149.7,10.832 149.7,10.426 L149.7,8.438 L150.33,8.438 C150.624,8.438 150.862,8.2 150.862,7.906 C150.862,7.612 150.624,7.374 150.33,7.374 L149.7,7.374 L149.7,1.97 C149.7,1.242 149.308,0.948 148.762,0.948 C148.328,0.948 148.048,1.088 147.796,1.508 L144.268,7.29 C144.086,7.584 143.96,7.822 143.96,8.004 C143.96,8.256 144.072,8.438 144.492,8.438 L148.468,8.438 Z M145.5,7.374 L148.44,2.264 L148.468,2.264 L148.468,7.374 L145.5,7.374 Z M151.758,6.016 C151.758,9.222 153.228,11.084 155.048,11.084 C156.868,11.084 158.338,9.222 158.338,6.016 C158.338,2.81 156.868,0.948 155.048,0.948 C153.228,0.948 151.758,2.81 151.758,6.016 L151.758,6.016 Z M153.074,6.016 C153.074,3.23 153.956,2.012 155.048,2.012 C156.14,2.012 157.022,3.23 157.022,6.016 C157.022,8.802 156.14,10.02 155.048,10.02 C153.956,10.02 153.074,8.802 153.074,6.016 L153.074,6.016 Z M165.464,8.06 C165.464,6.926 164.876,5.974 163.756,5.638 C164.54,5.162 164.932,4.35 164.932,3.524 C164.932,2.124 163.938,0.948 162.342,0.948 C160.69,0.948 159.724,2.138 159.724,3.468 C159.724,3.79 159.934,4.042 160.284,4.042 C160.494,4.042 160.83,4.028 160.872,3.468 C160.942,2.712 161.306,2.012 162.286,2.012 C163.14,2.012 163.7,2.684 163.7,3.636 C163.7,4.546 163.294,5.022 162.3,5.246 C161.838,5.344 161.656,5.498 161.656,5.778 C161.656,6.1 161.922,6.31 162.412,6.31 C163.336,6.31 164.148,6.688 164.148,8.172 C164.148,9.194 163.364,10.02 162.258,10.02 C161.32,10.02 160.816,9.46 160.578,8.746 C160.438,8.312 160.256,8.102 159.892,8.102 C159.598,8.102 159.374,8.354 159.374,8.788 C159.374,9.53 160.214,11.084 162.286,11.084 C164.064,11.084 165.464,9.95 165.464,8.06 L165.464,8.06 Z M169.496,2.096 L172.338,2.096 C172.632,2.096 172.87,1.858 172.87,1.564 C172.87,1.27 172.632,1.032 172.338,1.032 L168.88,1.032 C168.586,1.032 168.46,1.102 168.418,1.354 L167.9,4.84 C167.858,5.148 167.802,5.512 167.802,5.666 C167.802,5.862 167.928,6.044 168.222,6.044 C168.572,6.044 169.006,5.666 169.916,5.666 C171.12,5.666 171.638,6.604 171.638,7.78 C171.638,8.942 170.924,9.936 169.734,9.936 C168.32,9.936 167.872,8.9 167.368,8.9 C167.06,8.9 166.92,9.18 166.92,9.432 C166.92,10.034 168.068,11.084 169.72,11.084 C171.736,11.084 172.954,9.684 172.954,7.542 C172.954,5.988 171.96,4.518 170.406,4.518 C169.944,4.518 169.496,4.588 169.09,4.798 L169.496,2.096 Z" id="#3D4035"></path>
                </g>
            </g>
        </g>
    </g>
</svg>