<?xml version="1.0" encoding="UTF-8" standalone="no"?>
<svg width="178px" height="178px" viewBox="0 0 178 178" version="1.1" xmlns="http://www.w3.org/2000/svg" xmlns:xlink="http://www.w3.org/1999/xlink">
    <!-- Generator: Sketch 39.1 (31720) - http://www.bohemiancoding.com/sketch -->
    <title>roundel-sunshine-one</title>
    <desc>Created with Sketch.</desc>
    <defs></defs>
    <g id="Templates" stroke="none" stroke-width="1" fill="none" fill-rule="evenodd">
        <g id="14-roundels" transform="translate(-631.000000, -3713.000000)">
            <g id="roundel-sunshine-one" transform="translate(631.000000, 3713.000000)">
                <path d="M177.557214,89 C177.557214,137.908378 137.908378,177.557214 89,177.557214 C40.0916219,177.557214 0.44278607,137.908378 0.44278607,89 C0.44278607,40.0916219 40.0916219,0.44278607 89,0.44278607 C137.908378,0.44278607 177.557214,40.0916219 177.557214,89 L177.557214,89 Z" id="Stroke-1" fill="#FFEE00"></path>
                <path d="M32.3957191,97.7995319 C32.3957191,99.2164473 33.302545,100.00992 34.5210923,100.00992 C35.7396395,100.00992 36.6464654,99.2164473 36.6464654,97.7995319 L36.6464654,93.1520493 L39.7920176,93.1520493 C43.6743659,93.1520493 46.8765948,90.5732632 46.8765948,86.4358702 C46.8765948,82.3834921 43.7877191,79.6630145 39.6219878,79.6630145 L34.6061072,79.6630145 C33.1891918,79.6630145 32.3957191,80.541502 32.3957191,81.8734025 L32.3957191,97.7995319 Z M36.6464654,83.4036712 L39.5369729,83.4036712 C41.3222863,83.4036712 42.4558186,84.7072334 42.4558186,86.4075319 C42.4558186,88.1078304 41.3222863,89.4113926 39.5369729,89.4113926 L36.6464654,89.4113926 L36.6464654,83.4036712 Z M57.1775699,96.2692632 C53.5786047,96.2692632 51.8499679,93.2087259 51.8499679,89.7514523 C51.8499679,86.3225169 53.6352813,83.2336413 57.1775699,83.2336413 C60.7198584,83.2336413 62.5051719,86.3225169 62.5051719,89.7514523 C62.5051719,93.2087259 60.7765351,96.2692632 57.1775699,96.2692632 L57.1775699,96.2692632 Z M57.1775699,100.17995 C62.9869231,100.17995 66.925948,95.6174821 66.925948,89.7514523 C66.925948,83.9987756 62.8735699,79.3229548 57.1775699,79.3229548 C51.396555,79.3229548 47.4291918,83.8570841 47.4291918,89.7514523 C47.4291918,95.6174821 51.4248933,100.17995 57.1775699,100.17995 L57.1775699,100.17995 Z M68.7537689,97.7995319 C68.7537689,99.2164473 69.6605948,100.00992 70.879142,100.00992 C72.0976893,100.00992 73.0045152,99.2164473 73.0045152,97.7995319 L73.0045152,93.1520493 L76.1500674,93.1520493 C80.0324157,93.1520493 83.2346445,90.5732632 83.2346445,86.4358702 C83.2346445,82.3834921 80.1457689,79.6630145 75.9800376,79.6630145 L70.964157,79.6630145 C69.5472415,79.6630145 68.7537689,80.541502 68.7537689,81.8734025 L68.7537689,97.7995319 Z M73.0045152,83.4036712 L75.8950226,83.4036712 C77.6803361,83.4036712 78.8138684,84.7072334 78.8138684,86.4075319 C78.8138684,88.1078304 77.6803361,89.4113926 75.8950226,89.4113926 L73.0045152,89.4113926 L73.0045152,83.4036712 Z M84.4106843,91.8201488 C84.4106843,96.6376612 88.2930326,100.17995 93.0255301,100.17995 C97.701351,100.17995 101.612038,96.5809846 101.612038,91.8201488 L101.612038,81.7033727 C101.612038,80.2864572 100.705212,79.4929846 99.4866644,79.4929846 C98.2681172,79.4929846 97.3612913,80.2864572 97.3612913,81.7033727 L97.3612913,91.5934423 C97.3612913,94.0872135 95.6043162,96.2692632 93.0255301,96.2692632 C90.3333908,96.2692632 88.6614306,94.2005667 88.6614306,91.5934423 L88.6614306,81.7033727 C88.6614306,80.2864572 87.7546047,79.4929846 86.5360575,79.4929846 C85.3175102,79.4929846 84.4106843,80.2864572 84.4106843,81.7033727 L84.4106843,91.8201488 Z M104.063301,97.5161488 C104.063301,98.9330642 104.885112,99.8398901 106.273689,99.8398901 L113.358266,99.8398901 C114.605152,99.8398901 115.341948,98.9047259 115.398625,97.9695617 C115.426963,97.0060592 114.80352,95.9292035 113.358266,95.9292035 L108.314048,95.9292035 L108.314048,81.7033727 C108.314048,80.2864572 107.407222,79.4929846 106.188674,79.4929846 C104.970127,79.4929846 104.063301,80.2864572 104.063301,81.7033727 L104.063301,97.5161488 Z M115.186087,97.0910742 C115.129411,97.2327657 114.987719,97.5728254 114.987719,98.0262383 C114.987719,99.1597707 115.951222,100.00992 117.084754,100.00992 C118.246625,100.00992 118.841729,99.3864771 119.125112,98.5079896 L119.975261,95.8725269 L127.853311,95.8725269 L128.70346,98.5363279 C128.986844,99.3864771 129.581948,100.00992 130.772157,100.00992 C131.820674,100.00992 132.7275,99.2447856 132.7275,98.1395916 C132.7275,97.9412234 132.670824,97.5444871 132.500794,97.0910742 L126.946485,81.6750344 C126.464734,80.3147955 125.416217,79.3229548 123.914286,79.3229548 C122.469033,79.3229548 121.363839,80.3714722 120.882087,81.6750344 L115.186087,97.0910742 Z M123.885948,83.7437309 L123.942625,83.7437309 L126.578087,91.9618403 L121.193809,91.9618403 L123.885948,83.7437309 Z M134.130247,97.7995319 C134.130247,99.2164473 135.037072,100.00992 136.25562,100.00992 C137.474167,100.00992 138.380993,99.2164473 138.380993,97.7995319 L138.380993,91.6501189 L138.437669,91.6501189 L144.728774,99.2731239 C145.182187,99.8115518 145.862306,100.00992 146.372396,100.00992 C147.619281,100.00992 148.497769,98.9330642 148.497769,97.8278702 C148.497769,97.4311339 148.327739,97.0060592 147.931003,96.5809846 L143.11349,91.4234125 C146.003998,90.9699995 148.356077,89.1846861 148.356077,86.0674722 C148.356077,81.6183577 145.663938,79.6630145 141.299839,79.6630145 L136.312296,79.6630145 C134.895381,79.6630145 134.130247,80.5131637 134.130247,81.8734025 L134.130247,97.7995319 Z M138.380993,83.573701 L141.299839,83.573701 C142.858446,83.573701 143.935301,84.4521886 143.935301,86.0674722 C143.935301,87.6544174 142.858446,88.5895816 141.299839,88.5895816 L138.380993,88.5895816 L138.380993,83.573701 Z" id="POPULAR" fill="#575756" transform="translate(90.446744, 89.751452) rotate(-5.000000) translate(-90.446744, -89.751452) "></path>
                <path d="M26.652791,119.0068 C26.652791,115.875417 27.9882337,112.421685 31.6722138,112.421685 C35.3561939,112.421685 36.6916367,115.875417 36.6916367,119.0068 C36.6916367,122.138183 35.3561939,125.591914 31.6722138,125.591914 C27.9882337,125.591914 26.652791,122.138183 26.652791,119.0068 L26.652791,119.0068 Z M24.4884526,119.0068 C24.4884526,123.266402 26.9981641,127.341805 31.6722138,127.341805 C36.3462636,127.341805 38.855975,123.266402 38.855975,119.0068 C38.855975,114.747198 36.3462636,110.671795 31.6722138,110.671795 C26.9981641,110.671795 24.4884526,114.747198 24.4884526,119.0068 L24.4884526,119.0068 Z M43.4724626,126.46686 C43.6796865,127.065506 43.8869104,127.341805 44.5316069,127.341805 C45.1763034,127.341805 45.3835273,127.065506 45.5907512,126.46686 L49.1135571,116.589188 C49.2517064,116.22079 49.320781,115.990541 49.320781,115.760292 C49.320781,115.161646 48.8833084,114.816272 48.399786,114.816272 C47.7320646,114.816272 47.5018158,115.138621 47.3406417,115.599118 L44.5546318,124.072272 L44.508582,124.072272 L41.7225721,115.599118 C41.5613979,115.138621 41.3311492,114.816272 40.6634278,114.816272 C40.1799054,114.816272 39.7424327,115.161646 39.7424327,115.760292 C39.7424327,115.990541 39.8115074,116.22079 39.9496566,116.589188 L43.4724626,126.46686 Z M59.7395372,121.861884 C60.6144825,121.861884 60.8677561,121.493486 60.8677561,120.779715 C60.8677561,117.832531 58.9336666,114.816272 55.5950596,114.816272 C52.1643532,114.816272 50.0921143,117.763457 50.0921143,121.079039 C50.0921143,124.325546 51.7959551,127.341805 55.710184,127.341805 C58.1047711,127.341805 60.6144825,125.822163 60.6144825,124.832093 C60.6144825,124.256471 60.2460845,123.934123 59.8776865,123.934123 C59.1178656,123.934123 58.4271193,125.591914 55.7332089,125.591914 C53.4537462,125.591914 52.1183034,123.957148 52.1183034,121.861884 L59.7395372,121.861884 Z M52.1183034,120.342243 C52.187378,118.477228 53.0853482,116.474064 55.5950596,116.566163 C57.8284726,116.566163 58.8415671,118.592352 58.8415671,120.342243 L52.1183034,120.342243 Z M62.8594079,126.259636 C62.8594079,126.927357 63.2508308,127.341805 63.8725024,127.341805 C64.4941741,127.341805 64.8855969,126.927357 64.8855969,126.259636 L64.8855969,120.434342 C64.8855969,118.06278 66.359189,117.16481 67.5564825,116.957586 C68.4084029,116.796412 68.8228507,116.428014 68.8228507,115.852392 C68.8228507,115.27677 68.4084029,114.816272 67.6946318,114.816272 C66.5203631,114.816272 65.3921442,115.990541 64.9316467,116.934561 L64.8855969,116.934561 L64.8855969,115.898442 C64.8855969,115.23072 64.4941741,114.816272 63.8725024,114.816272 C63.2508308,114.816272 62.8594079,115.23072 62.8594079,115.898442 L62.8594079,126.259636 Z M79.8978159,112.559835 L84.5718656,112.559835 C85.055388,112.559835 85.4468109,112.168412 85.4468109,111.684889 C85.4468109,111.201367 85.055388,110.809944 84.5718656,110.809944 L78.8847213,110.809944 C78.4011989,110.809944 78.1939751,110.925068 78.1249004,111.339516 L77.27298,117.07271 C77.2039054,117.579258 77.1118059,118.177904 77.1118059,118.431178 C77.1118059,118.753526 77.3190298,119.05285 77.8025522,119.05285 C78.3781741,119.05285 79.0919452,118.431178 80.5885621,118.431178 C82.5687014,118.431178 83.4206218,119.973845 83.4206218,121.907934 C83.4206218,123.818999 82.2463532,125.453765 80.2892387,125.453765 C77.9637263,125.453765 77.2269303,123.749924 76.3980348,123.749924 C75.8914875,123.749924 75.6612387,124.210422 75.6612387,124.624869 C75.6612387,125.614939 77.5492785,127.341805 80.2662139,127.341805 C83.581796,127.341805 85.5849601,125.039317 85.5849601,121.516511 C85.5849601,118.96075 83.950194,116.543138 81.3944328,116.543138 C80.6346119,116.543138 79.8978159,116.658263 79.2300945,117.003636 L79.8978159,112.559835 Z M87.8068606,119.0068 C87.8068606,124.279496 90.2244726,127.341805 93.2177064,127.341805 C96.2109402,127.341805 98.6285522,124.279496 98.6285522,119.0068 C98.6285522,113.734103 96.2109402,110.671795 93.2177064,110.671795 C90.2244726,110.671795 87.8068606,113.734103 87.8068606,119.0068 L87.8068606,119.0068 Z M89.9711989,119.0068 C89.9711989,114.42485 91.4217661,112.421685 93.2177064,112.421685 C95.0136467,112.421685 96.4642139,114.42485 96.4642139,119.0068 C96.4642139,123.58875 95.0136467,125.591914 93.2177064,125.591914 C91.4217661,125.591914 89.9711989,123.58875 89.9711989,119.0068 L89.9711989,119.0068 Z M100.50508,118.270004 C100.50508,121.677685 107.044144,121.539536 107.044144,123.934123 C107.044144,124.763019 106.146174,125.591914 104.672582,125.591914 C102.462194,125.591914 101.725398,124.095297 100.827428,124.095297 C100.389955,124.095297 99.9985323,124.463695 99.9985323,125.016292 C99.9985323,126.052412 102.024721,127.341805 104.603507,127.341805 C106.88297,127.341805 109.070333,126.121486 109.070333,123.565725 C109.070333,120.019894 102.531269,120.250143 102.531269,118.10883 C102.531269,117.07271 103.521338,116.566163 104.672582,116.566163 C106.606672,116.566163 106.952045,117.809506 107.82699,117.809506 C108.448662,117.809506 108.747985,117.418083 108.747985,116.980611 C108.747985,115.714243 106.353398,114.816272 104.672582,114.816272 C102.623368,114.816272 100.50508,116.013566 100.50508,118.270004 L100.50508,118.270004 Z M118.901955,121.079039 L122.033338,121.079039 C125.026572,121.079039 127.28301,118.822601 127.28301,115.967516 C127.28301,113.112432 125.256821,110.809944 121.964264,110.809944 L117.957935,110.809944 C117.198114,110.809944 116.875766,111.293466 116.875766,111.915138 L116.875766,126.259636 C116.875766,126.927357 117.267189,127.341805 117.888861,127.341805 C118.510532,127.341805 118.901955,126.927357 118.901955,126.259636 L118.901955,121.079039 Z M118.901955,112.559835 L121.80309,112.559835 C124.335826,112.559835 125.256821,114.355775 125.256821,115.967516 C125.256821,117.832531 123.898353,119.329148 121.895189,119.329148 L118.901955,119.329148 L118.901955,112.559835 Z M130.909428,110.510621 C130.909428,109.842899 130.518005,109.428452 129.896333,109.428452 C129.274662,109.428452 128.883239,109.842899 128.883239,110.510621 L128.883239,126.259636 C128.883239,126.927357 129.274662,127.341805 129.896333,127.341805 C130.518005,127.341805 130.909428,126.927357 130.909428,126.259636 L130.909428,110.510621 Z M143.768821,115.806342 C143.768821,115.092571 143.216224,114.816272 142.824801,114.816272 C142.410353,114.816272 141.880781,115.092571 141.880781,115.806342 L141.880781,116.451039 L141.834731,116.451039 C140.890711,115.414919 139.900642,114.816272 138.496124,114.816272 C135.042393,114.816272 133.108303,117.832531 133.108303,121.079039 C133.108303,124.325546 135.042393,127.341805 138.496124,127.341805 C139.808542,127.341805 140.959786,126.743158 141.834731,125.499815 L141.880781,125.499815 L141.880781,126.351735 C141.880781,127.065506 142.410353,127.341805 142.824801,127.341805 C143.216224,127.341805 143.768821,127.065506 143.768821,126.351735 L143.768821,115.806342 Z M135.134492,121.079039 C135.134492,119.0068 136.009438,116.566163 138.496124,116.566163 C140.982811,116.566163 141.857756,119.0068 141.857756,121.079039 C141.857756,123.151277 140.982811,125.591914 138.496124,125.591914 C136.009438,125.591914 135.134492,123.151277 135.134492,121.079039 L135.134492,121.079039 Z M146.497269,126.259636 C146.497269,126.927357 146.888692,127.341805 147.510363,127.341805 C148.132035,127.341805 148.523458,126.927357 148.523458,126.259636 L148.523458,119.582422 C148.523458,117.441108 150.020075,116.566163 151.355517,116.566163 C152.69096,116.566163 154.187577,117.441108 154.187577,119.582422 L154.187577,126.259636 C154.187577,126.927357 154.579,127.341805 155.200672,127.341805 C155.822343,127.341805 156.213766,126.927357 156.213766,126.259636 L156.213766,119.467297 C156.213766,116.013566 153.842204,114.816272 151.954164,114.816272 C150.733846,114.816272 149.467478,115.27677 148.569507,116.428014 L148.523458,116.381964 L148.523458,115.898442 C148.523458,115.23072 148.132035,114.816272 147.510363,114.816272 C146.888692,114.816272 146.497269,115.23072 146.497269,115.898442 L146.497269,126.259636 Z" id="Over-50s-Plan" fill="#575756" transform="translate(90.351109, 118.385128) rotate(-5.000000) translate(-90.351109, -118.385128) "></path>
                <path d="M20.6793371,65.1342997 C20.6793371,69.9518122 24.5616854,73.4941007 29.2941829,73.4941007 C33.9700038,73.4941007 37.8806903,69.8951356 37.8806903,65.1342997 L37.8806903,55.0175236 C37.8806903,53.6006082 36.9738645,52.8071356 35.7553172,52.8071356 C34.5367699,52.8071356 33.6299441,53.6006082 33.6299441,55.0175236 L33.6299441,64.9075933 C33.6299441,67.4013644 31.872969,69.5834142 29.2941829,69.5834142 C26.6020436,69.5834142 24.9300834,67.5147177 24.9300834,64.9075933 L24.9300834,55.0175236 C24.9300834,53.6006082 24.0232575,52.8071356 22.8047102,52.8071356 C21.586163,52.8071356 20.6793371,53.6006082 20.6793371,55.0175236 L20.6793371,65.1342997 Z M40.2611083,71.2837127 C40.2611083,72.5305983 41.1679341,73.3240709 42.3864814,73.3240709 C43.6617053,73.3240709 44.5118545,72.3889067 44.5118545,71.2837127 L44.5118545,64.057444 L51.8514764,71.9921704 C52.6449491,72.8423196 53.1833769,73.3240709 54.0051879,73.3240709 C55.1670585,73.3240709 56.2155759,72.7006281 56.2155759,71.3687276 C56.2155759,70.5185784 55.7054864,69.8951356 55.025367,69.2150162 L48.4792177,62.3854838 L53.835158,57.1145585 C54.7703222,56.1793943 55.2237351,55.5842898 55.2237351,54.8474938 C55.2237351,53.6289465 54.203556,52.8071356 53.1267003,52.8071356 C52.3332277,52.8071356 51.7947998,53.2605485 51.4830784,53.6006082 L44.5118545,61.025245 L44.5118545,54.9041704 C44.5118545,53.6006082 43.6050287,52.8071356 42.3864814,52.8071356 C41.1112575,52.8071356 40.2611083,53.7422997 40.2611083,54.9041704 L40.2611083,71.2837127 Z M62.4783421,55.6409664 C62.6483719,55.2725684 62.8467401,54.9041704 62.8467401,54.5074341 C62.8467401,53.487255 61.9115759,52.6371057 60.8913968,52.6371057 C60.4379839,52.6371057 59.6161729,52.9488271 59.2477749,53.6006082 L56.8956953,57.8513545 C56.7256655,58.2197525 56.5556356,58.5881505 56.5556356,58.9848868 C56.5556356,60.0050659 57.4624615,60.8552152 58.4826406,60.8552152 C58.9360535,60.8552152 59.7578645,60.5434938 60.0979242,59.8917127 L62.4783421,55.6409664 Z M72.4250884,60.6851853 C72.4250884,58.6731654 69.3362127,57.7380012 67.3241928,57.7380012 C64.0936257,57.7380012 61.7982227,59.6650062 61.7982227,62.4988371 C61.7982227,67.174658 68.8827998,66.8912749 68.8827998,68.7616032 C68.8827998,69.5267376 68.5144018,69.9234739 67.2675162,69.9234739 C65.3405112,69.9234739 64.6320535,68.5348968 63.0451083,68.5348968 C61.9115759,68.5348968 61.2881331,69.7251057 61.2881331,70.3485485 C61.2881331,72.1905386 64.6887301,73.4941007 66.9841331,73.4941007 C70.4980834,73.4941007 72.7934864,71.4254042 72.7934864,68.7049266 C72.7934864,64.057444 65.7089093,64.3408271 65.7089093,62.4421604 C65.7089093,61.6486878 66.3606903,61.3086281 67.0974864,61.3086281 C68.4293869,61.3086281 69.9879938,62.4988371 70.7531282,62.4988371 C71.7166306,62.4988371 72.4250884,61.6203495 72.4250884,60.6851853 L72.4250884,60.6851853 Z M81.3799938,70.8019614 C81.3516555,70.9719913 81.3516555,71.1420211 81.3516555,71.2837127 C81.3516555,72.5305983 82.2584814,73.3240709 83.3920137,73.3240709 C84.8372675,73.3240709 85.4040336,72.6722898 85.6024018,71.3403893 L87.274362,59.8066978 L87.3310386,59.8066978 L90.7316356,71.680449 C90.9300038,72.3605684 91.4684316,73.3240709 92.9987003,73.3240709 C94.528969,73.3240709 95.0673968,72.3605684 95.265765,71.680449 L98.666362,59.8066978 L98.7230386,59.8066978 L100.394999,71.3403893 C100.593367,72.6722898 101.160133,73.3240709 102.605387,73.3240709 C103.738919,73.3240709 104.645745,72.5305983 104.645745,71.2837127 C104.645745,71.1420211 104.645745,70.9719913 104.617407,70.8019614 L101.981944,54.9891853 C101.811914,53.9690062 100.70672,52.8071356 99.2047898,52.8071356 C97.7878744,52.8071356 96.6826804,53.8273147 96.370959,54.8474938 L93.0270386,66.0694639 L92.970362,66.0694639 L89.6264416,54.8474938 C89.3147202,53.8273147 88.2095262,52.8071356 86.7926107,52.8071356 C85.2906804,52.8071356 84.1854864,53.9690062 84.0154565,54.9891853 L81.3799938,70.8019614 Z M115.555994,69.5834142 C111.957029,69.5834142 110.228392,66.5228769 110.228392,63.0656032 C110.228392,59.6366679 112.013705,56.5477923 115.555994,56.5477923 C119.098282,56.5477923 120.883596,59.6366679 120.883596,63.0656032 C120.883596,66.5228769 119.154959,69.5834142 115.555994,69.5834142 L115.555994,69.5834142 Z M115.555994,73.4941007 C121.365347,73.4941007 125.304372,68.9316331 125.304372,63.0656032 C125.304372,57.3129266 121.251994,52.6371057 115.555994,52.6371057 C109.774979,52.6371057 105.807616,57.1712351 105.807616,63.0656032 C105.807616,68.9316331 109.803317,73.4941007 115.555994,73.4941007 L115.555994,73.4941007 Z M133.437466,52.6371057 C129.668471,52.6371057 126.409566,55.1025386 126.409566,59.0699017 C126.409566,65.6443893 135.874561,63.6323694 135.874561,66.9762898 C135.874561,68.3648669 134.854382,69.4133843 132.984054,69.4133843 C131.142063,69.4133843 129.555118,68.3081903 128.223218,68.3081903 C127.061347,68.3081903 126.324551,69.2150162 126.324551,70.3202102 C126.324551,72.9840112 131.02871,73.4941007 133.21076,73.4941007 C137.121447,73.4941007 140.465367,70.9719913 140.465367,66.9196132 C140.465367,59.6083296 131.000372,61.478658 131.000372,58.5598122 C131.000372,57.3696032 132.105566,56.7178221 133.324113,56.7178221 C135.024412,56.7178221 135.931238,57.5679714 137.093108,57.5679714 C138.254979,57.5679714 138.991775,56.5761306 138.991775,55.4709366 C138.991775,53.2322102 135.024412,52.6371057 133.437466,52.6371057 L133.437466,52.6371057 Z M145.679616,71.1136828 C145.679616,72.5305983 146.586442,73.3240709 147.804989,73.3240709 C149.023536,73.3240709 149.930362,72.5305983 149.930362,71.1136828 L149.930362,56.887852 L153.019238,56.887852 C154.379476,56.887852 154.946243,55.8960112 154.946243,54.9325087 C154.946243,53.9406679 154.237785,52.9771654 153.019238,52.9771654 L142.59074,52.9771654 C141.372193,52.9771654 140.663735,53.9406679 140.663735,54.9325087 C140.663735,55.8960112 141.230501,56.887852 142.59074,56.887852 L145.679616,56.887852 L145.679616,71.1136828 Z" id="UK’s-MOST" fill="#575756" transform="translate(87.812790, 63.065603) rotate(-5.000000) translate(-87.812790, -63.065603) "></path>
            </g>
        </g>
    </g>
</svg>