<?xml version="1.0" encoding="UTF-8" standalone="no"?>
<svg width="22px" height="22px" viewBox="0 0 22 22" version="1.1" xmlns="http://www.w3.org/2000/svg" xmlns:xlink="http://www.w3.org/1999/xlink">
    <!-- Generator: Sketch 39.1 (31720) - http://www.bohemiancoding.com/sketch -->
    <title>expander-icon-down</title>
    <desc>Created with Sketch.</desc>
    <defs></defs>
    <g id="Page-1" stroke="none" stroke-width="1" fill="none" fill-rule="evenodd">
        <g id="iPad-Pro-Portrait" transform="translate(-471.000000, -544.000000)" fill="#009FE3">
            <path d="M493,555 C493,548.92492 488.07508,544 482,544 C475.92492,544 471,548.92492 471,555 C471,561.07508 475.92492,566 482,566 C488.07508,566 493,561.07508 493,555 Z M483.146305,560.58372 C482.544583,561.185431 481.569108,561.185521 480.96785,560.584252 L477.170831,556.787164 C476.569425,556.185747 476.569774,555.210319 477.171573,554.608519 L477.184418,554.595674 C477.786233,553.993859 478.761659,553.993549 479.36271,554.5946 L480.477136,555.709026 L480.477136,550.70931 C480.477136,549.859172 481.167137,549.17 482.01711,549.17 L482.037547,549.17 C482.888051,549.17 483.577521,549.860523 483.577521,550.71068 L483.577521,555.767953 L484.791555,554.553918 C485.393133,553.952341 486.368716,553.952574 486.969742,554.553601 L486.984194,554.568052 C487.585596,555.169454 487.585882,556.144223 486.983615,556.74648 L483.146305,560.58372 Z" id="expander-icon-down"></path>
        </g>
    </g>
</svg>