<?xml version="1.0" encoding="UTF-8" standalone="no"?>
<svg width="22px" height="22px" viewBox="0 0 22 22" version="1.1" xmlns="http://www.w3.org/2000/svg" xmlns:xlink="http://www.w3.org/1999/xlink">
    <!-- Generator: Sketch 39.1 (31720) - http://www.bohemiancoding.com/sketch -->
    <title>expander-icon-up</title>
    <desc>Created with Sketch.</desc>
    <defs></defs>
    <g id="Page-1" stroke="none" stroke-width="1" fill="none" fill-rule="evenodd">
        <g id="iPad-Pro-Portrait" transform="translate(-433.000000, -544.000000)" fill="#85AB1B">
            <path d="M455,555 C455,561.07508 450.07508,566 444,566 C437.92492,566 433,561.07508 433,555 C433,548.92492 437.92492,544 444,544 C450.07508,544 455,548.92492 455,555 Z M445.146305,549.621383 C444.544583,549.019673 443.569108,549.019583 442.96785,549.620851 L439.170831,553.41794 C438.569425,554.019356 438.569774,554.994785 439.171573,555.596584 L439.184418,555.609429 C439.786233,556.211245 440.761659,556.211554 441.36271,555.610503 L442.477136,554.496078 L442.477136,559.495794 C442.477136,560.345931 443.167137,561.035104 444.01711,561.035104 L444.037547,561.035104 C444.888051,561.035104 445.577521,560.344581 445.577521,559.494423 L445.577521,554.437151 L446.791555,555.651185 C447.393133,556.252763 448.368716,556.252529 448.969742,555.651503 L448.984194,555.637052 C449.585596,555.03565 449.585882,554.06088 448.983615,553.458624 L445.146305,549.621383 Z" id="expander-icon-up"></path>
        </g>
    </g>
</svg>