<?xml version="1.0" encoding="UTF-8" standalone="no"?>
<svg width="24px" height="20px" viewBox="0 0 24 20" version="1.1" xmlns="http://www.w3.org/2000/svg" xmlns:xlink="http://www.w3.org/1999/xlink">
    <!-- Generator: Sketch 39.1 (31720) - http://www.bohemiancoding.com/sketch -->
    <title>icon-text-lg</title>
    <desc>Created with Sketch.</desc>
    <defs></defs>
    <g id="Templates" stroke="none" stroke-width="1" fill="none" fill-rule="evenodd">
        <g id="10-body-text-(2)" transform="translate(-1032.000000, -1786.000000)" fill="#000000">
            <path d="M1054,1800.968 L1034,1800.968 L1034,1788.968 L1054,1788.968 L1054,1800.968 Z M1054.5,1786.968 L1033.5,1786.968 C1032.673,1786.968 1032,1787.641 1032,1788.468 L1032,1801.468 C1032,1802.295 1032.673,1802.968 1033.5,1802.968 L1042,1802.968 L1042,1804.968 L1039,1804.968 C1038.724,1804.968 1038.5,1805.191 1038.5,1805.468 C1038.5,1805.744 1038.724,1805.968 1039,1805.968 L1049,1805.968 C1049.276,1805.968 1049.5,1805.744 1049.5,1805.468 C1049.5,1805.191 1049.276,1804.968 1049,1804.968 L1046,1804.968 L1046,1802.968 L1054.5,1802.968 C1055.327,1802.968 1056,1802.295 1056,1801.468 L1056,1788.468 C1056,1787.641 1055.327,1786.968 1054.5,1786.968 L1054.5,1786.968 Z" id="icon-text-lg"></path>
        </g>
    </g>
</svg>