<?xml version="1.0" encoding="UTF-8" standalone="no"?>
<svg width="14px" height="25px" viewBox="0 0 14 25" version="1.1" xmlns="http://www.w3.org/2000/svg" xmlns:xlink="http://www.w3.org/1999/xlink">
    <!-- Generator: Sketch 39.1 (31720) - http://www.bohemiancoding.com/sketch -->
    <title>icon-text-sm</title>
    <desc>Created with Sketch.</desc>
    <defs></defs>
    <g id="Templates" stroke="none" stroke-width="1" fill="none" fill-rule="evenodd">
        <g id="10-body-text-(2)" transform="translate(-630.000000, -1786.000000)" fill="#000000">
            <path d="M643,1805.968 L631,1805.968 L631,1791.968 L643,1791.968 L643,1805.968 Z M637,1809.468 C636.448,1809.468 636,1809.019 636,1808.468 C636,1807.915 636.448,1807.468 637,1807.468 C637.553,1807.468 638,1807.915 638,1808.468 C638,1809.019 637.553,1809.468 637,1809.468 L637,1809.468 Z M634.5,1788.968 L639.5,1788.968 C639.776,1788.968 640,1789.191 640,1789.468 C640,1789.744 639.776,1789.968 639.5,1789.968 L634.5,1789.968 C634.224,1789.968 634,1789.744 634,1789.468 C634,1789.191 634.224,1788.968 634.5,1788.968 L634.5,1788.968 Z M641.5,1786.968 L632.5,1786.968 C631.121,1786.968 630,1788.09 630,1789.468 L630,1790.968 L630,1806.968 L630,1808.468 C630,1809.846 631.121,1810.968 632.5,1810.968 L641.5,1810.968 C642.878,1810.968 644,1809.846 644,1808.468 L644,1806.968 L644,1790.968 L644,1789.468 C644,1788.09 642.878,1786.968 641.5,1786.968 L641.5,1786.968 Z" id="icon-text-sm"></path>
        </g>
    </g>
</svg>