<?xml version="1.0" encoding="UTF-8" standalone="no"?>
<svg width="193px" height="188px" viewBox="0 0 193 188" version="1.1" xmlns="http://www.w3.org/2000/svg" xmlns:xlink="http://www.w3.org/1999/xlink">
    <!-- Generator: Sketch 39.1 (31720) - http://www.bohemiancoding.com/sketch -->
    <title>icon-github-svg</title>
    <desc>Created with Sketch.</desc>
    <defs></defs>
    <g id="Page-1" stroke="none" stroke-width="1" fill="none" fill-rule="evenodd">
        <path d="M96.304125,0 C43.122875,0 0,43.1145 0,96.3125 C0,138.87425 27.58725,174.9705 65.869375,187.71725 C70.676625,188.58825 72.200875,185.732375 72.200875,183.186375 C72.200875,180.891625 72.251125,174.493125 72.200875,166.4615 C45.417625,172.282125 39.865,153.773375 39.865,153.773375 C35.484875,142.643 29.1785,139.686625 29.1785,139.686625 C20.435,133.706875 29.83175,133.8325 29.83175,133.8325 C39.4965,134.5025 44.5885,143.756875 44.5885,143.756875 C53.189625,158.47175 67.134,154.21725 72.61125,151.755 C73.490625,145.54075 75.978,141.28625 78.733375,138.891 C57.352,136.4455 34.865125,128.196125 34.865125,91.27075 C34.865125,80.7685 38.617125,72.167375 44.781125,65.433875 C43.7845,63.005125 40.476375,53.206375 45.719125,39.940375 C45.719125,39.940375 53.81775,37.3525 72.200875,49.822875 C79.889125,47.68725 88.130125,46.61525 96.320875,46.573375 C104.494875,46.61525 112.735875,47.68725 120.440875,49.822875 C138.824,37.3525 146.8975,39.940375 146.8975,39.940375 C152.148625,53.206375 148.8405,63.005125 147.85225,65.433875 C154.024625,72.167375 157.759875,80.7685 157.759875,91.27075 C157.759875,128.28825 135.2395,136.42875 113.78275,138.798875 C117.23325,141.780375 120.373875,147.559125 120.373875,156.5455 L120.373875,183.2115 C120.373875,185.791 121.931625,188.630125 126.822625,187.7005 C165.062875,174.937 192.625,138.8575 192.625,96.3125 C192.625,43.1145 149.5105,0 96.304125,0" id="icon-github-svg" fill="#009FE3"></path>
    </g>
</svg>