<?xml version="1.0" encoding="UTF-8" standalone="no"?>
<svg width="24px" height="20px" viewBox="0 0 24 20" version="1.1" xmlns="http://www.w3.org/2000/svg" xmlns:xlink="http://www.w3.org/1999/xlink">
    <!-- Generator: Sketch 39.1 (31720) - http://www.bohemiancoding.com/sketch -->
    <title>icon-lg</title>
    <desc>Created with Sketch.</desc>
    <defs></defs>
    <g id="Page-1" stroke="none" stroke-width="1" fill="none" fill-rule="evenodd">
        <g id="iPad-Pro-Portrait" transform="translate(-335.000000, -750.000000)" fill="#FFFFFF">
            <g id="icon-lg" transform="translate(335.000000, 750.000000)">
                <g id="Templates">
                    <g>
                        <g id="10-body-text-(2)">
                            <path d="M22,14.968 L2,14.968 L2,2.968 L22,2.968 L22,14.968 L22,14.968 Z M22.5,0.968 L1.5,0.968 C0.673,0.968 0,1.641 0,2.468 L0,15.468 C0,16.295 0.673,16.968 1.5,16.968 L10,16.968 L10,18.968 L7,18.968 C6.724,18.968 6.5,19.191 6.5,19.468 C6.5,19.744 6.724,19.968 7,19.968 L17,19.968 C17.276,19.968 17.5,19.744 17.5,19.468 C17.5,19.191 17.276,18.968 17,18.968 L14,18.968 L14,16.968 L22.5,16.968 C23.327,16.968 24,16.295 24,15.468 L24,2.468 C24,1.641 23.327,0.968 22.5,0.968 L22.5,0.968 L22.5,0.968 Z" id="icon-lg"></path>
                        </g>
                    </g>
                </g>
            </g>
        </g>
    </g>
</svg>