<?xml version="1.0" encoding="UTF-8" standalone="no"?>
<svg width="201px" height="201px" viewBox="0 0 201 201" version="1.1" xmlns="http://www.w3.org/2000/svg" xmlns:xlink="http://www.w3.org/1999/xlink">
    <!-- Generator: Sketch 39.1 (31720) - http://www.bohemiancoding.com/sketch -->
    <title>icon-email-svg</title>
    <desc>Created with Sketch.</desc>
    <defs></defs>
    <g id="Page-1" stroke="none" stroke-width="1" fill="none" fill-rule="evenodd">
        <path d="M200.5,100.5 C200.5,155.728 155.728,200.5 100.5,200.5 C45.272,200.5 0.5,155.728 0.5,100.5 C0.5,45.272 45.272,0.5 100.5,0.5 C155.728,0.5 200.5,45.272 200.5,100.5 Z M102.374545,107.685667 C101.973091,108.006333 101.484364,108.166667 101,108.166667 C100.515636,108.166667 100.026909,108.006333 99.6254545,107.685667 L54.2741818,71.2293333 C53.4843636,72.5336667 53,74.0373333 53,75.6666667 L53,123.333333 C53,128.113 56.9141818,132 61.7272727,132 L140.272727,132 C145.085818,132 149,128.113 149,123.333333 L149,75.6666667 C149,74.0373333 148.515636,72.5336667 147.730182,71.2293333 L102.374545,107.685667 Z M144.584,68.1786667 C143.305455,67.4463333 141.848,67 140.272727,67 L61.7272727,67 C60.152,67 58.6945455,67.4463333 57.416,68.1786667 L101,103.213667 L144.584,68.1786667 Z" id="icon-email-svg" fill="#009FE3"></path>
    </g>
</svg>