<?xml version="1.0" encoding="UTF-8" standalone="no"?>
<svg width="18px" height="25px" viewBox="0 0 18 25" version="1.1" xmlns="http://www.w3.org/2000/svg" xmlns:xlink="http://www.w3.org/1999/xlink">
    <!-- Generator: Sketch 39.1 (31720) - http://www.bohemiancoding.com/sketch -->
    <title>icon-text-md</title>
    <desc>Created with Sketch.</desc>
    <defs></defs>
    <g id="Templates" stroke="none" stroke-width="1" fill="none" fill-rule="evenodd">
        <g id="10-body-text-(2)" transform="translate(-831.000000, -1786.000000)" fill="#000000">
            <path d="M847,1806.4676 C847,1806.7436 846.776,1806.9676 846.5,1806.9676 L833.5,1806.9676 C833.224,1806.9676 833,1806.7436 833,1806.4676 L833,1790.4676 C833,1790.1916 833.224,1789.9676 833.5,1789.9676 L846.5,1789.9676 C846.776,1789.9676 847,1790.1916 847,1790.4676 L847,1806.4676 Z M840,1809.4676 C839.447,1809.4676 839,1809.0196 839,1808.4676 C839,1807.9146 839.447,1807.4676 840,1807.4676 C840.552,1807.4676 841,1807.9146 841,1808.4676 C841,1809.0196 840.552,1809.4676 840,1809.4676 L840,1809.4676 Z M840,1788.4676 C840.276,1788.4676 840.5,1788.6916 840.5,1788.9676 C840.5,1789.2436 840.276,1789.4676 840,1789.4676 C839.724,1789.4676 839.5,1789.2436 839.5,1788.9676 C839.5,1788.6916 839.724,1788.4676 840,1788.4676 L840,1788.4676 Z M846.5,1786.9676 L833.5,1786.9676 C832.121,1786.9676 831,1788.0896 831,1789.4676 L831,1808.4676 C831,1809.8456 832.121,1810.9676 833.5,1810.9676 L846.5,1810.9676 C847.878,1810.9676 849,1809.8456 849,1808.4676 L849,1789.4676 C849,1788.0896 847.878,1786.9676 846.5,1786.9676 L846.5,1786.9676 Z" id="icon-text-md"></path>
        </g>
    </g>
</svg>