<?xml version="1.0" encoding="utf-8"?>
<!-- Generator: Adobe Illustrator 20.0.0, SVG Export Plug-In . SVG Version: 6.00 Build 0)  -->
<svg version="1.1" id="Layer_1" xmlns="http://www.w3.org/2000/svg" xmlns:xlink="http://www.w3.org/1999/xlink" x="0px" y="0px"
	 viewBox="0 0 42 131" style="enable-background:new 0 0 42 131;" xml:space="preserve">
<style type="text/css">
	.st0{opacity:0.25;}
	.st1{fill:#86786F;}
</style>
<title>quote-brackets-right</title>
<desc>Created with Sketch.</desc>
<g id="Templates" class="st0">
	<g id="_x37_-colour-supporting-_x28_2_x29_" transform="translate(-1109.000000, -1699.000000)">
		<g id="Group-5" transform="translate(570.000000, 1689.000000)">
			<path id="quote-brackets-right" class="st1" d="M568.3,75.5c0,14.6-2.5,27.1-7.5,37.4c-5,10.3-12.3,18.8-21.8,25.4l1.4,2.2
				c6.1-2.9,11.6-6.5,16.6-10.9c4.9-4.4,9.1-9.4,12.6-15s6.1-11.7,8-18.3c1.8-6.6,2.7-13.6,2.7-20.8s-0.9-14.2-2.7-20.8
				c-1.8-6.6-4.5-12.7-8-18.3s-7.7-10.6-12.6-15c-4.9-4.4-10.5-8.1-16.6-10.9l-1.4,2.1c9.5,6.6,16.7,15.1,21.8,25.5
				C565.8,48.4,568.3,60.9,568.3,75.5L568.3,75.5z"/>
		</g>
	</g>
</g>
</svg>
