<?xml version="1.0" encoding="utf-8"?>
<!-- Generator: Adobe Illustrator 20.0.0, SVG Export Plug-In . SVG Version: 6.00 Build 0)  -->
<svg version="1.1" id="Layer_1" xmlns="http://www.w3.org/2000/svg" xmlns:xlink="http://www.w3.org/1999/xlink" x="0px" y="0px"
	 viewBox="0 0 42 131" style="enable-background:new 0 0 42 131;" xml:space="preserve">
<style type="text/css">
	.st0{opacity:0.25;}
	.st1{fill:#86786F;}
</style>
<title>quote-brackets-left</title>
<desc>Created with Sketch.</desc>
<g id="Templates" class="st0">
	<g id="_x37_-colour-supporting-_x28_2_x29_" transform="translate(-570.000000, -1699.000000)">
		<g id="Group-5" transform="translate(570.000000, 1689.000000)">
			<path id="quote-brackets-left" class="st1" d="M19.5,112.9c5,10.3,12.3,18.8,21.8,25.4l-1.4,2.2c-6.1-2.9-11.6-6.5-16.6-10.9
				c-4.9-4.4-9.1-9.4-12.6-15s-6.1-11.7-8-18.3S0,82.8,0,75.5s0.9-14.2,2.7-20.8s4.5-12.7,8-18.3s7.7-10.6,12.6-15
				s10.5-8.1,16.6-10.9l1.4,2.1C31.8,19.2,24.5,27.7,19.5,38S12,60.9,12,75.5S14.5,102.6,19.5,112.9z"/>
		</g>
	</g>
</g>
</svg>
