<?xml version="1.0" encoding="utf-8"?>
<!-- Generator: Adobe Illustrator 20.0.0, SVG Export Plug-In . SVG Version: 6.00 Build 0)  -->
<svg version="1.1" id="Layer_1" xmlns="http://www.w3.org/2000/svg" xmlns:xlink="http://www.w3.org/1999/xlink" x="0px" y="0px"
	 viewBox="0 0 40 30" style="enable-background:new 0 0 40 30;" xml:space="preserve">
<style type="text/css">
	.st0{opacity:0.25;}
	.st1{fill:#86786F;}
</style>
<title>quote-mark-one</title>
<desc>Created with Sketch.</desc>
<g id="Templates" class="st0">
	<g id="_x31_1-quotes" transform="translate(-629.000000, -1106.000000)">
		<g id="quote-mark-one" transform="translate(629.000000, 1106.000000)">
			<path id="_x201C_" class="st1" d="M0,18.9c0,5.3,3.6,10.7,9.4,10.7c4.7,0,8.7-3.5,8.7-8.4c0-3.7-2.5-8-6.5-8.3
				C10.8,12.8,9,12.8,9,11.7c0-1.6,2.3-3.6,6-5.8c1.1-0.7,3.5-1.9,3.5-3.4c0-1.2-0.9-2.1-2.8-1.9c-1.8,0.2-4.6,1.5-8.3,4.6
				C3.6,8.3,0,13.7,0,18.9L0,18.9z M21.5,18.9c0,5.3,3.6,10.7,9.4,10.7c4.7,0,8.7-3.5,8.7-8.4c0-3.7-2.5-8-6.5-8.3
				c-0.8-0.1-2.6-0.1-2.6-1.2c0-1.6,2.3-3.6,6-5.8C37.6,5.1,40,4,40,2.4c0-1.2-0.9-2.1-2.8-1.9c-1.8,0.2-4.6,1.5-8.3,4.6
				C25.1,8.3,21.5,13.7,21.5,18.9L21.5,18.9z"/>
		</g>
	</g>
</g>
</svg>
